%TF.GenerationSoftware,KiCad,Pcbnew,(6.0.6)*%
%TF.CreationDate,2022-08-10T17:58:30-05:00*%
%TF.ProjectId,EFuse_Test,45467573-655f-4546-9573-742e6b696361,rev?*%
%TF.SameCoordinates,Original*%
%TF.FileFunction,Copper,L1,Top*%
%TF.FilePolarity,Positive*%
%FSLAX46Y46*%
G04 Gerber Fmt 4.6, Leading zero omitted, Abs format (unit mm)*
G04 Created by KiCad (PCBNEW (6.0.6)) date 2022-08-10 17:58:30*
%MOMM*%
%LPD*%
G01*
G04 APERTURE LIST*
G04 Aperture macros list*
%AMRoundRect*
0 Rectangle with rounded corners*
0 $1 Rounding radius*
0 $2 $3 $4 $5 $6 $7 $8 $9 X,Y pos of 4 corners*
0 Add a 4 corners polygon primitive as box body*
4,1,4,$2,$3,$4,$5,$6,$7,$8,$9,$2,$3,0*
0 Add four circle primitives for the rounded corners*
1,1,$1+$1,$2,$3*
1,1,$1+$1,$4,$5*
1,1,$1+$1,$6,$7*
1,1,$1+$1,$8,$9*
0 Add four rect primitives between the rounded corners*
20,1,$1+$1,$2,$3,$4,$5,0*
20,1,$1+$1,$4,$5,$6,$7,0*
20,1,$1+$1,$6,$7,$8,$9,0*
20,1,$1+$1,$8,$9,$2,$3,0*%
G04 Aperture macros list end*
%TA.AperFunction,SMDPad,CuDef*%
%ADD10RoundRect,0.250000X-0.450000X0.262500X-0.450000X-0.262500X0.450000X-0.262500X0.450000X0.262500X0*%
%TD*%
%TA.AperFunction,SMDPad,CuDef*%
%ADD11RoundRect,0.218750X0.256250X-0.218750X0.256250X0.218750X-0.256250X0.218750X-0.256250X-0.218750X0*%
%TD*%
%TA.AperFunction,SMDPad,CuDef*%
%ADD12RoundRect,0.225000X0.225000X0.250000X-0.225000X0.250000X-0.225000X-0.250000X0.225000X-0.250000X0*%
%TD*%
%TA.AperFunction,SMDPad,CuDef*%
%ADD13RoundRect,0.200000X0.200000X0.275000X-0.200000X0.275000X-0.200000X-0.275000X0.200000X-0.275000X0*%
%TD*%
%TA.AperFunction,SMDPad,CuDef*%
%ADD14R,0.670000X0.300000*%
%TD*%
%TA.AperFunction,SMDPad,CuDef*%
%ADD15RoundRect,0.250000X-0.250000X-0.475000X0.250000X-0.475000X0.250000X0.475000X-0.250000X0.475000X0*%
%TD*%
%TA.AperFunction,SMDPad,CuDef*%
%ADD16RoundRect,0.225000X-0.225000X-0.250000X0.225000X-0.250000X0.225000X0.250000X-0.225000X0.250000X0*%
%TD*%
%TA.AperFunction,SMDPad,CuDef*%
%ADD17RoundRect,0.140000X-0.140000X-0.170000X0.140000X-0.170000X0.140000X0.170000X-0.140000X0.170000X0*%
%TD*%
%TA.AperFunction,SMDPad,CuDef*%
%ADD18RoundRect,0.200000X-0.275000X0.200000X-0.275000X-0.200000X0.275000X-0.200000X0.275000X0.200000X0*%
%TD*%
%TA.AperFunction,SMDPad,CuDef*%
%ADD19R,2.500000X2.500000*%
%TD*%
%TA.AperFunction,SMDPad,CuDef*%
%ADD20R,1.000000X1.600000*%
%TD*%
%TA.AperFunction,SMDPad,CuDef*%
%ADD21RoundRect,0.500000X-0.500000X-1.100000X0.500000X-1.100000X0.500000X1.100000X-0.500000X1.100000X0*%
%TD*%
%TA.AperFunction,SMDPad,CuDef*%
%ADD22C,2.000000*%
%TD*%
%TA.AperFunction,SMDPad,CuDef*%
%ADD23RoundRect,0.200000X-0.200000X-0.275000X0.200000X-0.275000X0.200000X0.275000X-0.200000X0.275000X0*%
%TD*%
%TA.AperFunction,SMDPad,CuDef*%
%ADD24RoundRect,0.250000X0.250000X0.475000X-0.250000X0.475000X-0.250000X-0.475000X0.250000X-0.475000X0*%
%TD*%
%TA.AperFunction,SMDPad,CuDef*%
%ADD25RoundRect,0.225000X-0.250000X0.225000X-0.250000X-0.225000X0.250000X-0.225000X0.250000X0.225000X0*%
%TD*%
%TA.AperFunction,ComponentPad*%
%ADD26R,1.520000X1.520000*%
%TD*%
%TA.AperFunction,ComponentPad*%
%ADD27C,1.520000*%
%TD*%
%TA.AperFunction,ComponentPad*%
%ADD28C,2.200000*%
%TD*%
%TA.AperFunction,SMDPad,CuDef*%
%ADD29R,1.200000X0.900000*%
%TD*%
%TA.AperFunction,ComponentPad*%
%ADD30RoundRect,0.250001X-0.499999X-0.759999X0.499999X-0.759999X0.499999X0.759999X-0.499999X0.759999X0*%
%TD*%
%TA.AperFunction,ComponentPad*%
%ADD31O,1.500000X2.020000*%
%TD*%
%TA.AperFunction,SMDPad,CuDef*%
%ADD32R,2.300000X2.500000*%
%TD*%
%TA.AperFunction,SMDPad,CuDef*%
%ADD33R,1.310000X0.450000*%
%TD*%
%TA.AperFunction,SMDPad,CuDef*%
%ADD34R,2.650000X4.000000*%
%TD*%
%TA.AperFunction,SMDPad,CuDef*%
%ADD35RoundRect,0.100000X-0.637500X-0.100000X0.637500X-0.100000X0.637500X0.100000X-0.637500X0.100000X0*%
%TD*%
%TA.AperFunction,SMDPad,CuDef*%
%ADD36RoundRect,0.200000X0.275000X-0.200000X0.275000X0.200000X-0.275000X0.200000X-0.275000X-0.200000X0*%
%TD*%
%TA.AperFunction,ComponentPad*%
%ADD37RoundRect,0.250001X-0.499999X-0.499999X0.499999X-0.499999X0.499999X0.499999X-0.499999X0.499999X0*%
%TD*%
%TA.AperFunction,ComponentPad*%
%ADD38C,1.500000*%
%TD*%
%TA.AperFunction,ViaPad*%
%ADD39C,0.523240*%
%TD*%
%TA.AperFunction,ViaPad*%
%ADD40C,1.066800*%
%TD*%
%TA.AperFunction,ViaPad*%
%ADD41C,0.800000*%
%TD*%
%TA.AperFunction,Conductor*%
%ADD42C,0.500000*%
%TD*%
%TA.AperFunction,Conductor*%
%ADD43C,1.000000*%
%TD*%
%TA.AperFunction,Conductor*%
%ADD44C,0.635000*%
%TD*%
%TA.AperFunction,Conductor*%
%ADD45C,0.400000*%
%TD*%
%TA.AperFunction,Conductor*%
%ADD46C,0.300000*%
%TD*%
G04 APERTURE END LIST*
D10*
%TO.P,R3,1*%
%TO.N,Vout*%
X179070000Y-119737500D03*
%TO.P,R3,2*%
%TO.N,Net-(D1-Pad2)*%
X179070000Y-121562500D03*
%TD*%
D11*
%TO.P,D1,1,K*%
%TO.N,GND*%
X179070000Y-124993500D03*
%TO.P,D1,2,A*%
%TO.N,Net-(D1-Pad2)*%
X179070000Y-123418500D03*
%TD*%
D12*
%TO.P,C15,1*%
%TO.N,+3.3VA*%
X150254000Y-108839000D03*
%TO.P,C15,2*%
%TO.N,GND*%
X148704000Y-108839000D03*
%TD*%
D13*
%TO.P,R12,1*%
%TO.N,VBAT_IN*%
X150355000Y-116459000D03*
%TO.P,R12,2*%
%TO.N,GND*%
X148705000Y-116459000D03*
%TD*%
D14*
%TO.P,U3,1,RT*%
%TO.N,unconnected-(U3-Pad1)*%
X136674000Y-92722000D03*
%TO.P,U3,2,EN*%
%TO.N,unconnected-(U3-Pad2)*%
X136674000Y-93222000D03*
%TO.P,U3,3,VIN*%
%TO.N,SDC*%
X136674000Y-93722000D03*
%TO.P,U3,4,GND*%
%TO.N,GND*%
X136674000Y-94222000D03*
%TO.P,U3,5,SW*%
%TO.N,Net-(C9-Pad1)*%
X138154000Y-94222000D03*
%TO.P,U3,6,BST*%
%TO.N,Net-(C9-Pad2)*%
X138154000Y-93722000D03*
%TO.P,U3,7,SS*%
%TO.N,Net-(C7-Pad1)*%
X138154000Y-93222000D03*
%TO.P,U3,8,FB*%
%TO.N,Net-(R14-Pad2)*%
X138154000Y-92722000D03*
%TD*%
D15*
%TO.P,C13,1*%
%TO.N,+3V3*%
X145542000Y-102616000D03*
%TO.P,C13,2*%
%TO.N,GND*%
X147442000Y-102616000D03*
%TD*%
D12*
%TO.P,C12,1*%
%TO.N,+3.3VA*%
X150241000Y-110490000D03*
%TO.P,C12,2*%
%TO.N,GND*%
X148691000Y-110490000D03*
%TD*%
D16*
%TO.P,C17,1*%
%TO.N,+3V3*%
X164579000Y-115797000D03*
%TO.P,C17,2*%
%TO.N,GND*%
X166129000Y-115797000D03*
%TD*%
D17*
%TO.P,FB1,1*%
%TO.N,+3V3*%
X149621000Y-113538000D03*
%TO.P,FB1,2*%
%TO.N,+3.3VA*%
X150581000Y-113538000D03*
%TD*%
D15*
%TO.P,C11,1*%
%TO.N,+3V3*%
X164404000Y-112241000D03*
%TO.P,C11,2*%
%TO.N,GND*%
X166304000Y-112241000D03*
%TD*%
D18*
%TO.P,R9,1*%
%TO.N,Net-(R7-Pad2)*%
X174180000Y-117920000D03*
%TO.P,R9,2*%
%TO.N,GND*%
X174180000Y-119570000D03*
%TD*%
D19*
%TO.P,REF\u002A\u002A,1*%
%TO.N,Vout*%
X183108600Y-111836200D03*
%TD*%
D18*
%TO.P,R8,1*%
%TO.N,GND*%
X168910000Y-105130000D03*
%TO.P,R8,2*%
%TO.N,Net-(C5-Pad2)*%
X168910000Y-106780000D03*
%TD*%
D20*
%TO.P,SW1,1,A*%
%TO.N,GND*%
X168260400Y-122650400D03*
%TO.P,SW1,2,B*%
%TO.N,SW*%
X165760400Y-125050400D03*
%TO.P,SW1,3*%
%TO.N,N/C*%
X163260400Y-122650400D03*
%TD*%
D13*
%TO.P,R5,1*%
%TO.N,Net-(R5-Pad1)*%
X166179000Y-108685000D03*
%TO.P,R5,2*%
%TO.N,EN*%
X164529000Y-108685000D03*
%TD*%
D16*
%TO.P,C5,1*%
%TO.N,+BATT*%
X165722000Y-106844000D03*
%TO.P,C5,2*%
%TO.N,Net-(C5-Pad2)*%
X167272000Y-106844000D03*
%TD*%
D21*
%TO.P,L1,1*%
%TO.N,Net-(C9-Pad1)*%
X133514000Y-101219000D03*
%TO.P,L1,2*%
%TO.N,+3V3*%
X141314000Y-101219000D03*
%TD*%
D22*
%TO.P,TP2,1,1*%
%TO.N,GND*%
X128270000Y-99060000D03*
%TD*%
%TO.P,TP5,1,1*%
%TO.N,SW*%
X160655000Y-118491000D03*
%TD*%
D23*
%TO.P,R1,1*%
%TO.N,GND*%
X148641000Y-107188000D03*
%TO.P,R1,2*%
%TO.N,Net-(R1-Pad2)*%
X150291000Y-107188000D03*
%TD*%
D22*
%TO.P,TP7,1,1*%
%TO.N,+BATT*%
X162560000Y-93345000D03*
%TD*%
D24*
%TO.P,C2,1*%
%TO.N,SDC*%
X134173000Y-91821000D03*
%TO.P,C2,2*%
%TO.N,GND*%
X132273000Y-91821000D03*
%TD*%
D15*
%TO.P,C16,1*%
%TO.N,+3V3*%
X145542000Y-104775000D03*
%TO.P,C16,2*%
%TO.N,GND*%
X147442000Y-104775000D03*
%TD*%
D13*
%TO.P,R13,1*%
%TO.N,SW*%
X150431000Y-118110000D03*
%TO.P,R13,2*%
%TO.N,+3V3*%
X148781000Y-118110000D03*
%TD*%
D25*
%TO.P,C1,1*%
%TO.N,CS*%
X169608000Y-117970000D03*
%TO.P,C1,2*%
%TO.N,GND*%
X169608000Y-119520000D03*
%TD*%
D26*
%TO.P,J1,1,Pin_1*%
%TO.N,GND*%
X171374994Y-99540009D03*
D27*
%TO.P,J1,2,Pin_2*%
%TO.N,+BATT*%
X171374994Y-96040008D03*
D28*
%TO.P,J1,3,Pin_3*%
%TO.N,GND*%
X179284986Y-102040004D03*
%TO.P,J1,4,Pin_4*%
X179284986Y-93540021D03*
%TD*%
D29*
%TO.P,D2,1,K*%
%TO.N,Net-(D2-Pad1)*%
X171894000Y-117095000D03*
%TO.P,D2,2,A*%
%TO.N,GND*%
X171894000Y-120395000D03*
%TD*%
D25*
%TO.P,C8,1*%
%TO.N,Vout*%
X177000000Y-122733008D03*
%TO.P,C8,2*%
%TO.N,GND*%
X177000000Y-124283008D03*
%TD*%
D23*
%TO.P,R4,1*%
%TO.N,CS*%
X169418000Y-115443000D03*
%TO.P,R4,2*%
%TO.N,Net-(D2-Pad1)*%
X171068000Y-115443000D03*
%TD*%
D19*
%TO.P,REF\u002A\u002A,1*%
%TO.N,GND*%
X183108600Y-106603800D03*
%TD*%
D22*
%TO.P,TP3,1,1*%
%TO.N,Vout*%
X182245000Y-121285000D03*
%TD*%
D16*
%TO.P,C4,1*%
%TO.N,+BATT*%
X165722000Y-105193000D03*
%TO.P,C4,2*%
%TO.N,GND*%
X167272000Y-105193000D03*
%TD*%
%TO.P,C9,1*%
%TO.N,Net-(C9-Pad1)*%
X136639000Y-96012000D03*
%TO.P,C9,2*%
%TO.N,Net-(C9-Pad2)*%
X138189000Y-96012000D03*
%TD*%
D30*
%TO.P,J3,1,Pin_1*%
%TO.N,UART_TX*%
X149352000Y-123698000D03*
D31*
%TO.P,J3,2,Pin_2*%
%TO.N,UART_RX*%
X152352000Y-123698000D03*
%TO.P,J3,3,Pin_3*%
%TO.N,GND*%
X155352000Y-123698000D03*
%TD*%
D16*
%TO.P,C18,1*%
%TO.N,+3V3*%
X164588800Y-114190200D03*
%TO.P,C18,2*%
%TO.N,GND*%
X166138800Y-114190200D03*
%TD*%
D22*
%TO.P,TP6,1,1*%
%TO.N,+3V3*%
X142875000Y-109220000D03*
%TD*%
D32*
%TO.P,D3,1,A1*%
%TO.N,GND*%
X167132000Y-100194000D03*
%TO.P,D3,2,A2*%
%TO.N,+BATT*%
X167132000Y-95894000D03*
%TD*%
D33*
%TO.P,U2,1,GND*%
%TO.N,Net-(C5-Pad2)*%
X169108000Y-109175000D03*
%TO.P,U2,2,IN*%
%TO.N,Net-(R5-Pad1)*%
X169108000Y-109825000D03*
%TO.P,U2,3,DEN*%
%TO.N,Net-(R10-Pad1)*%
X169108000Y-110475000D03*
%TO.P,U2,4,IS*%
%TO.N,Net-(R7-Pad2)*%
X169113000Y-111125000D03*
%TO.P,U2,5,NC*%
%TO.N,unconnected-(U2-Pad5)*%
X169108000Y-111775000D03*
%TO.P,U2,6,NC*%
%TO.N,unconnected-(U2-Pad6)*%
X169108000Y-112425000D03*
%TO.P,U2,7,NC*%
%TO.N,unconnected-(U2-Pad7)*%
X169108000Y-113075000D03*
%TO.P,U2,8,OUT*%
%TO.N,Vout*%
X174808000Y-113075000D03*
%TO.P,U2,9,OUT*%
X174808000Y-112425000D03*
%TO.P,U2,10,OUT*%
X174808000Y-111775000D03*
%TO.P,U2,11,NC*%
%TO.N,unconnected-(U2-Pad11)*%
X174808000Y-111125000D03*
%TO.P,U2,12,OUT*%
%TO.N,Vout*%
X174808000Y-110475000D03*
%TO.P,U2,13,OUT*%
X174808000Y-109825000D03*
%TO.P,U2,14,OUT*%
X174808000Y-109175000D03*
D34*
%TO.P,U2,15,VS*%
%TO.N,+BATT*%
X171958000Y-111125000D03*
%TD*%
D20*
%TO.P,SW2,1,A*%
%TO.N,+BATT*%
X156170000Y-92145000D03*
%TO.P,SW2,2,B*%
%TO.N,SDC*%
X153670000Y-94545000D03*
%TO.P,SW2,3*%
%TO.N,N/C*%
X151170000Y-92145000D03*
%TD*%
D23*
%TO.P,R7,1*%
%TO.N,Net-(D2-Pad1)*%
X172720000Y-115443000D03*
%TO.P,R7,2*%
%TO.N,Net-(R7-Pad2)*%
X174370000Y-115443000D03*
%TD*%
D25*
%TO.P,C7,1*%
%TO.N,Net-(C7-Pad1)*%
X140335000Y-94475000D03*
%TO.P,C7,2*%
%TO.N,GND*%
X140335000Y-96025000D03*
%TD*%
D35*
%TO.P,U1,1,BOOT0*%
%TO.N,Net-(R1-Pad2)*%
X154744500Y-109851000D03*
%TO.P,U1,2,PF0*%
%TO.N,unconnected-(U1-Pad2)*%
X154744500Y-110501000D03*
%TO.P,U1,3,PF1*%
%TO.N,unconnected-(U1-Pad3)*%
X154744500Y-111151000D03*
%TO.P,U1,4,NRST*%
%TO.N,NRST*%
X154744500Y-111801000D03*
%TO.P,U1,5,VDDA*%
%TO.N,+3.3VA*%
X154744500Y-112451000D03*
%TO.P,U1,6,PA0*%
%TO.N,VBAT_IN*%
X154744500Y-113101000D03*
%TO.P,U1,7,PA1*%
%TO.N,unconnected-(U1-Pad7)*%
X154744500Y-113751000D03*
%TO.P,U1,8,PA2*%
%TO.N,UART_TX*%
X154744500Y-114401000D03*
%TO.P,U1,9,PA3*%
%TO.N,UART_RX*%
X154744500Y-115051000D03*
%TO.P,U1,10,PA4*%
%TO.N,SW*%
X154744500Y-115701000D03*
%TO.P,U1,11,PA5*%
%TO.N,CS*%
X160469500Y-115701000D03*
%TO.P,U1,12,PA6*%
%TO.N,EN*%
X160469500Y-115051000D03*
%TO.P,U1,13,PA7*%
%TO.N,unconnected-(U1-Pad13)*%
X160469500Y-114401000D03*
%TO.P,U1,14,PB1*%
%TO.N,unconnected-(U1-Pad14)*%
X160469500Y-113751000D03*
%TO.P,U1,15,VSS*%
%TO.N,GND*%
X160469500Y-113101000D03*
%TO.P,U1,16,VDD*%
%TO.N,+3V3*%
X160469500Y-112451000D03*
%TO.P,U1,17,PA9*%
%TO.N,unconnected-(U1-Pad17)*%
X160469500Y-111801000D03*
%TO.P,U1,18,PA10*%
%TO.N,unconnected-(U1-Pad18)*%
X160469500Y-111151000D03*
%TO.P,U1,19,PA13*%
%TO.N,SWDIO*%
X160469500Y-110501000D03*
%TO.P,U1,20,PA14*%
%TO.N,SWCLK*%
X160469500Y-109851000D03*
%TD*%
D13*
%TO.P,R6,1*%
%TO.N,GND*%
X166179000Y-119099000D03*
%TO.P,R6,2*%
%TO.N,+3V3*%
X164529000Y-119099000D03*
%TD*%
D12*
%TO.P,C14,1*%
%TO.N,+3V3*%
X150254000Y-112141000D03*
%TO.P,C14,2*%
%TO.N,GND*%
X148704000Y-112141000D03*
%TD*%
D23*
%TO.P,R11,1*%
%TO.N,+BATT*%
X148705000Y-114935000D03*
%TO.P,R11,2*%
%TO.N,VBAT_IN*%
X150355000Y-114935000D03*
%TD*%
D18*
%TO.P,R15,1*%
%TO.N,Net-(R14-Pad2)*%
X147381000Y-96711000D03*
%TO.P,R15,2*%
%TO.N,GND*%
X147381000Y-98361000D03*
%TD*%
D22*
%TO.P,TP1,1,1*%
%TO.N,SDC*%
X144780000Y-93345000D03*
%TD*%
D36*
%TO.P,R14,1*%
%TO.N,+3V3*%
X145476000Y-98361000D03*
%TO.P,R14,2*%
%TO.N,Net-(R14-Pad2)*%
X145476000Y-96711000D03*
%TD*%
D13*
%TO.P,R10,1*%
%TO.N,Net-(R10-Pad1)*%
X166179000Y-117448000D03*
%TO.P,R10,2*%
%TO.N,+3V3*%
X164529000Y-117448000D03*
%TD*%
%TO.P,R2,1*%
%TO.N,GND*%
X166179000Y-110336000D03*
%TO.P,R2,2*%
%TO.N,EN*%
X164529000Y-110336000D03*
%TD*%
D12*
%TO.P,C6,1*%
%TO.N,SDC*%
X133998000Y-95707200D03*
%TO.P,C6,2*%
%TO.N,GND*%
X132448000Y-95707200D03*
%TD*%
D15*
%TO.P,C10,1*%
%TO.N,+3V3*%
X145542000Y-100457000D03*
%TO.P,C10,2*%
%TO.N,GND*%
X147442000Y-100457000D03*
%TD*%
D22*
%TO.P,TP4,1,1*%
%TO.N,VBAT_IN*%
X155702000Y-118491000D03*
%TD*%
D24*
%TO.P,C3,1*%
%TO.N,SDC*%
X134173000Y-93878400D03*
%TO.P,C3,2*%
%TO.N,GND*%
X132273000Y-93878400D03*
%TD*%
D37*
%TO.P,J2,1,Pin_1*%
%TO.N,NRST*%
X153210000Y-99050000D03*
D38*
%TO.P,J2,2,Pin_2*%
%TO.N,+3V3*%
X156210000Y-99050000D03*
%TO.P,J2,3,Pin_3*%
%TO.N,SWCLK*%
X159210000Y-99050000D03*
%TO.P,J2,4,Pin_4*%
%TO.N,SWDIO*%
X153210000Y-102050000D03*
%TO.P,J2,5,Pin_5*%
%TO.N,GND*%
X156210000Y-102050000D03*
%TO.P,J2,6,Pin_6*%
%TO.N,unconnected-(J2-Pad6)*%
X159210000Y-102050000D03*
%TD*%
D39*
%TO.N,GND*%
X152984200Y-113817400D03*
X156133800Y-115011200D03*
X147066000Y-109728000D03*
X167386000Y-117602000D03*
X184150000Y-104140000D03*
X151688800Y-109880400D03*
X182245000Y-104140000D03*
X163322000Y-115062000D03*
X168656000Y-103886000D03*
D40*
%TO.N,+BATT*%
X159156400Y-91389200D03*
D41*
X172720000Y-112522000D03*
D39*
X162978000Y-106844000D03*
X149606000Y-105664000D03*
D41*
X171958000Y-110998000D03*
X171196000Y-109728000D03*
X172720000Y-109728000D03*
D39*
X172974000Y-107950000D03*
D41*
X171196000Y-112522000D03*
D39*
X170942000Y-107950000D03*
%TO.N,Vout*%
X184150000Y-114300000D03*
X176530000Y-112776000D03*
X176530000Y-110490000D03*
X179070000Y-118618000D03*
X177000002Y-121666000D03*
X176530000Y-112014000D03*
X182245000Y-114300000D03*
X176530000Y-111252000D03*
D40*
%TO.N,+3V3*%
X144907000Y-107188000D03*
D39*
X148781008Y-119380000D03*
X148590000Y-113538000D03*
X162306000Y-113030000D03*
%TO.N,UART_TX*%
X153162000Y-114554000D03*
%TO.N,UART_RX*%
X153162000Y-115316000D03*
%TO.N,EN*%
X163068000Y-111252000D03*
X162052000Y-115062000D03*
%TO.N,VBAT_IN*%
X157480000Y-114808000D03*
X157734000Y-119634000D03*
%TD*%
D42*
%TO.N,+BATT*%
X146304000Y-112534000D02*
X148705000Y-114935000D01*
X146304000Y-107950000D02*
X146304000Y-112534000D01*
X149098000Y-106172000D02*
X148082000Y-106172000D01*
X148082000Y-106172000D02*
X146304000Y-107950000D01*
X149606000Y-105664000D02*
X149098000Y-106172000D01*
D43*
%TO.N,+3V3*%
X144907000Y-107188000D02*
X142875000Y-109220000D01*
X145542000Y-104775000D02*
X145542000Y-106553000D01*
X145542000Y-106553000D02*
X144907000Y-107188000D01*
D44*
%TO.N,Net-(D1-Pad2)*%
X179070000Y-123418500D02*
X179070000Y-121562500D01*
D45*
%TO.N,CS*%
X162560000Y-117791500D02*
X162560000Y-118916425D01*
D44*
X169608000Y-117970000D02*
X169608000Y-115633000D01*
X169608000Y-115633000D02*
X169418000Y-115443000D01*
D45*
X164293575Y-120650000D02*
X166928000Y-120650000D01*
X160469500Y-115701000D02*
X162560000Y-117791500D01*
X162560000Y-118916425D02*
X164293575Y-120650000D01*
X166928000Y-120650000D02*
X169608000Y-117970000D01*
D43*
%TO.N,SDC*%
X134173000Y-91821000D02*
X134173000Y-93878400D01*
D46*
X136674000Y-93722000D02*
X134329400Y-93722000D01*
D43*
X134173000Y-95532200D02*
X133998000Y-95707200D01*
X145980000Y-94545000D02*
X144780000Y-93345000D01*
X144780000Y-93345000D02*
X142875000Y-91440000D01*
X142875000Y-91440000D02*
X134554000Y-91440000D01*
X134173000Y-93878400D02*
X134173000Y-95532200D01*
D46*
X134329400Y-93722000D02*
X134173000Y-93878400D01*
D43*
X153670000Y-94545000D02*
X145980000Y-94545000D01*
X134554000Y-91440000D02*
X134173000Y-91821000D01*
D44*
%TO.N,+BATT*%
X165722000Y-105193000D02*
X165722000Y-106844000D01*
D42*
X165722000Y-105178042D02*
X168030042Y-102870000D01*
X165722000Y-106844000D02*
X162978000Y-106844000D01*
X165722000Y-105193000D02*
X165722000Y-105178042D01*
X171196000Y-102870000D02*
X171958000Y-103632000D01*
X168030042Y-102870000D02*
X171196000Y-102870000D01*
D44*
%TO.N,Net-(C5-Pad2)*%
X167272000Y-106844000D02*
X168846000Y-106844000D01*
D45*
X169108000Y-109175000D02*
X169108000Y-106978000D01*
D44*
X168846000Y-106844000D02*
X168910000Y-106780000D01*
D45*
X169108000Y-106978000D02*
X168910000Y-106780000D01*
D46*
%TO.N,Net-(C7-Pad1)*%
X139082000Y-93222000D02*
X140335000Y-94475000D01*
X138154000Y-93222000D02*
X139082000Y-93222000D01*
%TO.N,Net-(C9-Pad1)*%
X136639000Y-96012000D02*
X136639000Y-95737000D01*
D43*
X136639000Y-96012000D02*
X136639000Y-98094000D01*
X136639000Y-98094000D02*
X133514000Y-101219000D01*
D46*
X136639000Y-95737000D02*
X138154000Y-94222000D01*
%TO.N,Net-(C9-Pad2)*%
X139065000Y-93948978D02*
X138838022Y-93722000D01*
X138189000Y-96012000D02*
X139065000Y-95136000D01*
X138838022Y-93722000D02*
X138154000Y-93722000D01*
X139065000Y-95136000D02*
X139065000Y-93948978D01*
D43*
%TO.N,+3V3*%
X142076000Y-100457000D02*
X141314000Y-101219000D01*
X145542000Y-100457000D02*
X142076000Y-100457000D01*
D45*
X149621000Y-113538000D02*
X149621000Y-112774000D01*
D43*
X145476000Y-98361000D02*
X145476000Y-104709000D01*
D42*
X164529000Y-112366000D02*
X164404000Y-112241000D01*
D45*
X162306000Y-113030000D02*
X163615000Y-113030000D01*
X149621000Y-113538000D02*
X148590000Y-113538000D01*
X162306000Y-113030000D02*
X161727000Y-112451000D01*
X161727000Y-112451000D02*
X160469500Y-112451000D01*
X148781000Y-119379992D02*
X148781008Y-119380000D01*
D43*
X145476000Y-104709000D02*
X145542000Y-104775000D01*
D45*
X163615000Y-113030000D02*
X164404000Y-112241000D01*
X148781000Y-118110000D02*
X148781000Y-119379992D01*
X149621000Y-112774000D02*
X150254000Y-112141000D01*
D42*
X164529000Y-119099000D02*
X164529000Y-112366000D01*
D45*
%TO.N,+3.3VA*%
X150495000Y-110490000D02*
X152456000Y-112451000D01*
X154744500Y-112451000D02*
X152344000Y-112451000D01*
X152344000Y-112451000D02*
X151257000Y-113538000D01*
X151257000Y-113538000D02*
X150581000Y-113538000D01*
X150254000Y-110477000D02*
X150241000Y-110490000D01*
X150241000Y-110490000D02*
X150495000Y-110490000D01*
X150254000Y-108839000D02*
X150254000Y-110477000D01*
D44*
%TO.N,Net-(D2-Pad1)*%
X171894000Y-117095000D02*
X171894000Y-116269000D01*
X171894000Y-116269000D02*
X172720000Y-115443000D01*
X171068000Y-115443000D02*
X172720000Y-115443000D01*
D45*
%TO.N,NRST*%
X151765000Y-103438277D02*
X151765000Y-100495000D01*
X155538427Y-111801000D02*
X155881520Y-111457907D01*
X151765000Y-100495000D02*
X153210000Y-99050000D01*
X154744500Y-111801000D02*
X155538427Y-111801000D01*
X155881520Y-107554797D02*
X151765000Y-103438277D01*
X155881520Y-111457907D02*
X155881520Y-107554797D01*
%TO.N,SWCLK*%
X160469500Y-109851000D02*
X160469500Y-100309500D01*
X160469500Y-100309500D02*
X159210000Y-99050000D01*
%TO.N,SWDIO*%
X160469500Y-110501000D02*
X159675573Y-110501000D01*
X159675573Y-110501000D02*
X153210000Y-104035427D01*
X153210000Y-104035427D02*
X153210000Y-102050000D01*
%TO.N,UART_TX*%
X154744500Y-114401000D02*
X153315000Y-114401000D01*
X153315000Y-114401000D02*
X153162000Y-114554000D01*
%TO.N,UART_RX*%
X153544671Y-115101480D02*
X154694020Y-115101480D01*
X153162000Y-115316000D02*
X153330151Y-115316000D01*
X153330151Y-115316000D02*
X153544671Y-115101480D01*
X154694020Y-115101480D02*
X154744500Y-115051000D01*
%TO.N,Net-(R1-Pad2)*%
X152954000Y-109851000D02*
X150291000Y-107188000D01*
X154744500Y-109851000D02*
X152954000Y-109851000D01*
%TO.N,EN*%
X163984000Y-110336000D02*
X163068000Y-111252000D01*
X160469500Y-115051000D02*
X162041000Y-115051000D01*
X164529000Y-110336000D02*
X163984000Y-110336000D01*
D42*
X164529000Y-108685000D02*
X164529000Y-110336000D01*
D45*
X162041000Y-115051000D02*
X162052000Y-115062000D01*
%TO.N,Net-(R5-Pad1)*%
X167319000Y-109825000D02*
X166179000Y-108685000D01*
X169108000Y-109825000D02*
X167319000Y-109825000D01*
%TO.N,Net-(R7-Pad2)*%
X168053489Y-111129511D02*
X168053489Y-114043978D01*
X168196991Y-114187480D02*
X173495480Y-114187480D01*
X168053489Y-114043978D02*
X168196991Y-114187480D01*
X168058000Y-111125000D02*
X168053489Y-111129511D01*
D44*
X174180000Y-117920000D02*
X174180000Y-115633000D01*
X174180000Y-115633000D02*
X174370000Y-115443000D01*
D45*
X169113000Y-111125000D02*
X168058000Y-111125000D01*
X173495480Y-114187480D02*
X174370000Y-115062000D01*
%TO.N,Net-(R10-Pad1)*%
X167453969Y-110881181D02*
X167453969Y-116173031D01*
X167453969Y-116173031D02*
X166179000Y-117448000D01*
X169108000Y-110475000D02*
X167860150Y-110475000D01*
X167860150Y-110475000D02*
X167453969Y-110881181D01*
%TO.N,VBAT_IN*%
X155773000Y-113101000D02*
X157480000Y-114808000D01*
X154744500Y-113101000D02*
X155773000Y-113101000D01*
X155702000Y-118491000D02*
X156591000Y-118491000D01*
X150876000Y-114935000D02*
X150355000Y-114935000D01*
D42*
X150355000Y-114935000D02*
X150355000Y-116459000D01*
D45*
X156591000Y-118491000D02*
X157734000Y-119634000D01*
X154744500Y-113101000D02*
X152710000Y-113101000D01*
X152710000Y-113101000D02*
X150876000Y-114935000D01*
%TO.N,SW*%
X160655000Y-118491000D02*
X160984911Y-118491000D01*
X165760400Y-123266489D02*
X165760400Y-125050400D01*
X151384000Y-118110000D02*
X150431000Y-118110000D01*
X154744500Y-115701000D02*
X153793000Y-115701000D01*
X157865000Y-115701000D02*
X160655000Y-118491000D01*
X153793000Y-115701000D02*
X151384000Y-118110000D01*
X154744500Y-115701000D02*
X157865000Y-115701000D01*
X160984911Y-118491000D02*
X165760400Y-123266489D01*
D46*
%TO.N,Net-(R14-Pad2)*%
X141487000Y-92722000D02*
X145476000Y-96711000D01*
D42*
X145476000Y-96711000D02*
X147381000Y-96711000D01*
D46*
X138154000Y-92722000D02*
X141487000Y-92722000D01*
%TD*%
%TA.AperFunction,Conductor*%
%TO.N,GND*%
G36*
X154882121Y-90186502D02*
G01*
X154928614Y-90240158D01*
X154940000Y-90292500D01*
X154940000Y-96520000D01*
X164339000Y-96520000D01*
X164407121Y-96540002D01*
X164453614Y-96593658D01*
X164465000Y-96646000D01*
X164465000Y-98425000D01*
X172594000Y-98425000D01*
X172662121Y-98445002D01*
X172708614Y-98498658D01*
X172720000Y-98551000D01*
X172720000Y-100839000D01*
X172699998Y-100907121D01*
X172646342Y-100953614D01*
X172594000Y-100965000D01*
X169545000Y-100965000D01*
X169545000Y-102243500D01*
X169524998Y-102311621D01*
X169471342Y-102358114D01*
X169419000Y-102369500D01*
X168100217Y-102369500D01*
X168088337Y-102368172D01*
X168088296Y-102368683D01*
X168079351Y-102367963D01*
X168070594Y-102365982D01*
X168024107Y-102368866D01*
X168017788Y-102369258D01*
X168009986Y-102369500D01*
X167994102Y-102369500D01*
X167989654Y-102370137D01*
X167989652Y-102370137D01*
X167983984Y-102370948D01*
X167973933Y-102371978D01*
X167936461Y-102374303D01*
X167936459Y-102374303D01*
X167927504Y-102374859D01*
X167919067Y-102377905D01*
X167915367Y-102378671D01*
X167900643Y-102382343D01*
X167897015Y-102383404D01*
X167888124Y-102384677D01*
X167845760Y-102403939D01*
X167836405Y-102407746D01*
X167801099Y-102420491D01*
X167801095Y-102420493D01*
X167792655Y-102423540D01*
X167785407Y-102428835D01*
X167782067Y-102430611D01*
X167768953Y-102438274D01*
X167765781Y-102440303D01*
X167757614Y-102444016D01*
X167750819Y-102449871D01*
X167750816Y-102449873D01*
X167722367Y-102474387D01*
X167714447Y-102480675D01*
X167703706Y-102488522D01*
X167692963Y-102499265D01*
X167686117Y-102505623D01*
X167649005Y-102537600D01*
X167644122Y-102545134D01*
X167638223Y-102551896D01*
X167638218Y-102551892D01*
X167629242Y-102562986D01*
X165761633Y-104430595D01*
X165699321Y-104464621D01*
X165672539Y-104467500D01*
X165468760Y-104467501D01*
X165451986Y-104467501D01*
X165393843Y-104473816D01*
X165266305Y-104521628D01*
X165157313Y-104603313D01*
X165075628Y-104712305D01*
X165027816Y-104839843D01*
X165026963Y-104847696D01*
X165026962Y-104847700D01*
X165022399Y-104889707D01*
X165021500Y-104897985D01*
X165021501Y-105488014D01*
X165027816Y-105546157D01*
X165075628Y-105673695D01*
X165085358Y-105686677D01*
X165128826Y-105744677D01*
X165153674Y-105811183D01*
X165154000Y-105820242D01*
X165154000Y-106216758D01*
X165133998Y-106284879D01*
X165128842Y-106292302D01*
X165128275Y-106293058D01*
X165071421Y-106335576D01*
X165027444Y-106343500D01*
X163110372Y-106343500D01*
X163074270Y-106338217D01*
X163074145Y-106338180D01*
X163054475Y-106332297D01*
X163045499Y-106332242D01*
X163045498Y-106332242D01*
X162982277Y-106331856D01*
X162907783Y-106331401D01*
X162899151Y-106333868D01*
X162775367Y-106369245D01*
X162775365Y-106369246D01*
X162766736Y-106371712D01*
X162642672Y-106449991D01*
X162545565Y-106559943D01*
X162541751Y-106568066D01*
X162541750Y-106568068D01*
X162525009Y-106603726D01*
X162483221Y-106692731D01*
X162481840Y-106701603D01*
X162462034Y-106828806D01*
X162462034Y-106828809D01*
X162460653Y-106837679D01*
X162461817Y-106846581D01*
X162461817Y-106846584D01*
X162466793Y-106884637D01*
X162479673Y-106983135D01*
X162538754Y-107117407D01*
X162544531Y-107124280D01*
X162544532Y-107124281D01*
X162556917Y-107139015D01*
X162633145Y-107229699D01*
X162755260Y-107310985D01*
X162859520Y-107343558D01*
X162876738Y-107348937D01*
X162895280Y-107354730D01*
X162904252Y-107354894D01*
X162904255Y-107354895D01*
X162969937Y-107356099D01*
X163041950Y-107357419D01*
X163073060Y-107348937D01*
X163106204Y-107344500D01*
X165027444Y-107344500D01*
X165095565Y-107364502D01*
X165128270Y-107394935D01*
X165157313Y-107433687D01*
X165266305Y-107515372D01*
X165393843Y-107563184D01*
X165401696Y-107564037D01*
X165401700Y-107564038D01*
X165448586Y-107569131D01*
X165448590Y-107569131D01*
X165451985Y-107569500D01*
X165721960Y-107569500D01*
X165992014Y-107569499D01*
X166050157Y-107563184D01*
X166177695Y-107515372D01*
X166286687Y-107433687D01*
X166368372Y-107324695D01*
X166379018Y-107296297D01*
X166421660Y-107239533D01*
X166488221Y-107214833D01*
X166557570Y-107230041D01*
X166607688Y-107280327D01*
X166614982Y-107296297D01*
X166625628Y-107324695D01*
X166707313Y-107433687D01*
X166816305Y-107515372D01*
X166943843Y-107563184D01*
X166951696Y-107564037D01*
X166951700Y-107564038D01*
X166998586Y-107569131D01*
X166998590Y-107569131D01*
X167001985Y-107569500D01*
X167271960Y-107569500D01*
X167542014Y-107569499D01*
X167600157Y-107563184D01*
X167727695Y-107515372D01*
X167832035Y-107437174D01*
X167898540Y-107412326D01*
X167907599Y-107412000D01*
X168483957Y-107412000D01*
X168525706Y-107419117D01*
X168549631Y-107427519D01*
X168557269Y-107428241D01*
X168558504Y-107428512D01*
X168620755Y-107462649D01*
X168654668Y-107525022D01*
X168657500Y-107551584D01*
X168657500Y-108573500D01*
X168637498Y-108641621D01*
X168583842Y-108688114D01*
X168531500Y-108699500D01*
X168428326Y-108699500D01*
X168355260Y-108714034D01*
X168272399Y-108769399D01*
X168217034Y-108852260D01*
X168202500Y-108925326D01*
X168202500Y-109248500D01*
X168182498Y-109316621D01*
X168128842Y-109363114D01*
X168076500Y-109374500D01*
X167557793Y-109374500D01*
X167489672Y-109354498D01*
X167468698Y-109337595D01*
X166866405Y-108735302D01*
X166832379Y-108672990D01*
X166829500Y-108646207D01*
X166829500Y-108356166D01*
X166826519Y-108324631D01*
X166781634Y-108196816D01*
X166776042Y-108189246D01*
X166776041Y-108189243D01*
X166713665Y-108104794D01*
X166701150Y-108087850D01*
X166662824Y-108059542D01*
X166599757Y-108012959D01*
X166599754Y-108012958D01*
X166592184Y-108007366D01*
X166464369Y-107962481D01*
X166456723Y-107961758D01*
X166456722Y-107961758D01*
X166450752Y-107961194D01*
X166432834Y-107959500D01*
X165925166Y-107959500D01*
X165907248Y-107961194D01*
X165901278Y-107961758D01*
X165901277Y-107961758D01*
X165893631Y-107962481D01*
X165765816Y-108007366D01*
X165758246Y-108012958D01*
X165758243Y-108012959D01*
X165695176Y-108059542D01*
X165656850Y-108087850D01*
X165644335Y-108104794D01*
X165581959Y-108189243D01*
X165581958Y-108189246D01*
X165576366Y-108196816D01*
X165531481Y-108324631D01*
X165528500Y-108356166D01*
X165528500Y-109013834D01*
X165531481Y-109045369D01*
X165576366Y-109173184D01*
X165581958Y-109180754D01*
X165581959Y-109180757D01*
X165644335Y-109265206D01*
X165656850Y-109282150D01*
X165664421Y-109287742D01*
X165758243Y-109357041D01*
X165758246Y-109357042D01*
X165765816Y-109362634D01*
X165893631Y-109407519D01*
X165901277Y-109408242D01*
X165901278Y-109408242D01*
X165907248Y-109408806D01*
X165925166Y-109410500D01*
X166215207Y-109410500D01*
X166283328Y-109430502D01*
X166304302Y-109447405D01*
X166976247Y-110119350D01*
X166986101Y-110130439D01*
X166999741Y-110147740D01*
X167007128Y-110157110D01*
X167014875Y-110162465D01*
X167014877Y-110162466D01*
X167055375Y-110190455D01*
X167058587Y-110192750D01*
X167076276Y-110205815D01*
X167093825Y-110218777D01*
X167105816Y-110227634D01*
X167112632Y-110230027D01*
X167118569Y-110234131D01*
X167127549Y-110236971D01*
X167127551Y-110236972D01*
X167147717Y-110243350D01*
X167174519Y-110251826D01*
X167178225Y-110253062D01*
X167186674Y-110256029D01*
X167186694Y-110256036D01*
X167244337Y-110297482D01*
X167270423Y-110363513D01*
X167256668Y-110433164D01*
X167234035Y-110464012D01*
X167159619Y-110538428D01*
X167148530Y-110548282D01*
X167129260Y-110563474D01*
X167129258Y-110563476D01*
X167121859Y-110569309D01*
X167116504Y-110577056D01*
X167116503Y-110577058D01*
X167088514Y-110617556D01*
X167086219Y-110620768D01*
X167051335Y-110667997D01*
X167048942Y-110674813D01*
X167044838Y-110680750D01*
X167041998Y-110689730D01*
X167041997Y-110689732D01*
X167037766Y-110703112D01*
X167030947Y-110724674D01*
X167027151Y-110736676D01*
X167025898Y-110740431D01*
X167011443Y-110781595D01*
X167006450Y-110795812D01*
X167006168Y-110803000D01*
X167006157Y-110803059D01*
X167003989Y-110809911D01*
X167003469Y-110816518D01*
X167003469Y-110869197D01*
X167003372Y-110874143D01*
X167001131Y-110931175D01*
X167003015Y-110938281D01*
X167003469Y-110946528D01*
X167003469Y-115934238D01*
X166983467Y-116002359D01*
X166966564Y-116023333D01*
X166304302Y-116685595D01*
X166241990Y-116719621D01*
X166215207Y-116722500D01*
X165925166Y-116722500D01*
X165907248Y-116724194D01*
X165901278Y-116724758D01*
X165901277Y-116724758D01*
X165893631Y-116725481D01*
X165765816Y-116770366D01*
X165758246Y-116775958D01*
X165758243Y-116775959D01*
X165689660Y-116826616D01*
X165656850Y-116850850D01*
X165651258Y-116858421D01*
X165581959Y-116952243D01*
X165581958Y-116952246D01*
X165576366Y-116959816D01*
X165531481Y-117087631D01*
X165528500Y-117119166D01*
X165528500Y-117776834D01*
X165531481Y-117808369D01*
X165576366Y-117936184D01*
X165581958Y-117943754D01*
X165581959Y-117943757D01*
X165612160Y-117984645D01*
X165656850Y-118045150D01*
X165664421Y-118050742D01*
X165758243Y-118120041D01*
X165758246Y-118120042D01*
X165765816Y-118125634D01*
X165893631Y-118170519D01*
X165901277Y-118171242D01*
X165901278Y-118171242D01*
X165907248Y-118171806D01*
X165925166Y-118173500D01*
X166432834Y-118173500D01*
X166450752Y-118171806D01*
X166456722Y-118171242D01*
X166456723Y-118171242D01*
X166464369Y-118170519D01*
X166592184Y-118125634D01*
X166599754Y-118120042D01*
X166599757Y-118120041D01*
X166693579Y-118050742D01*
X166701150Y-118045150D01*
X166745840Y-117984645D01*
X166776041Y-117943757D01*
X166776042Y-117943754D01*
X166781634Y-117936184D01*
X166826519Y-117808369D01*
X166829500Y-117776834D01*
X166829500Y-117486793D01*
X166849502Y-117418672D01*
X166866405Y-117397698D01*
X167748319Y-116515784D01*
X167759408Y-116505930D01*
X167778678Y-116490738D01*
X167778680Y-116490736D01*
X167786079Y-116484903D01*
X167797180Y-116468842D01*
X167819424Y-116436656D01*
X167821726Y-116433434D01*
X167851009Y-116393789D01*
X167851010Y-116393788D01*
X167856603Y-116386215D01*
X167858996Y-116379399D01*
X167863100Y-116373462D01*
X167880795Y-116317512D01*
X167882040Y-116313781D01*
X167898365Y-116267294D01*
X167898365Y-116267292D01*
X167901488Y-116258400D01*
X167901770Y-116251212D01*
X167901781Y-116251153D01*
X167903949Y-116244301D01*
X167904469Y-116237694D01*
X167904469Y-116185015D01*
X167904566Y-116180068D01*
X167905021Y-116168500D01*
X167906807Y-116123037D01*
X167904923Y-116115931D01*
X167904469Y-116107687D01*
X167904469Y-114740044D01*
X167924471Y-114671923D01*
X167978127Y-114625430D01*
X168048401Y-114615326D01*
X168072217Y-114621161D01*
X168102731Y-114631877D01*
X168102733Y-114631877D01*
X168111622Y-114634999D01*
X168118810Y-114635281D01*
X168118869Y-114635292D01*
X168125721Y-114637460D01*
X168132328Y-114637980D01*
X168185007Y-114637980D01*
X168189953Y-114638077D01*
X168246985Y-114640318D01*
X168254091Y-114638434D01*
X168262335Y-114637980D01*
X168801509Y-114637980D01*
X168869630Y-114657982D01*
X168916123Y-114711638D01*
X168926227Y-114781912D01*
X168897625Y-114844539D01*
X168895850Y-114845850D01*
X168890258Y-114853421D01*
X168820959Y-114947243D01*
X168820958Y-114947246D01*
X168815366Y-114954816D01*
X168770481Y-115082631D01*
X168767500Y-115114166D01*
X168767500Y-115771834D01*
X168770481Y-115803369D01*
X168815366Y-115931184D01*
X168820958Y-115938754D01*
X168820959Y-115938757D01*
X168851200Y-115979699D01*
X168895850Y-116040150D01*
X168903421Y-116045742D01*
X168988860Y-116108849D01*
X169031771Y-116165410D01*
X169040000Y-116210200D01*
X169040000Y-117334401D01*
X169019998Y-117402522D01*
X169014829Y-117409962D01*
X168936628Y-117514305D01*
X168888816Y-117641843D01*
X168887963Y-117649696D01*
X168887962Y-117649700D01*
X168885852Y-117669129D01*
X168882500Y-117699985D01*
X168882501Y-117868343D01*
X168882501Y-118006206D01*
X168862499Y-118074326D01*
X168845596Y-118095301D01*
X166778302Y-120162595D01*
X166715990Y-120196621D01*
X166689207Y-120199500D01*
X164532368Y-120199500D01*
X164464247Y-120179498D01*
X164443273Y-120162595D01*
X164320273Y-120039595D01*
X164286247Y-119977283D01*
X164291312Y-119906468D01*
X164333859Y-119849632D01*
X164400379Y-119824821D01*
X164409368Y-119824500D01*
X164782834Y-119824500D01*
X164800752Y-119822806D01*
X164806722Y-119822242D01*
X164806723Y-119822242D01*
X164814369Y-119821519D01*
X164942184Y-119776634D01*
X164949754Y-119771042D01*
X164949757Y-119771041D01*
X165043579Y-119701742D01*
X165051150Y-119696150D01*
X165076934Y-119661242D01*
X165126041Y-119594757D01*
X165126042Y-119594754D01*
X165131634Y-119587184D01*
X165176519Y-119459369D01*
X165177528Y-119448701D01*
X165179221Y-119430782D01*
X165179500Y-119427834D01*
X165179500Y-118770166D01*
X165176519Y-118738631D01*
X165131634Y-118610816D01*
X165126043Y-118603246D01*
X165126039Y-118603239D01*
X165054149Y-118505909D01*
X165029766Y-118439231D01*
X165029500Y-118431050D01*
X165029500Y-118115950D01*
X165049502Y-118047829D01*
X165054149Y-118041091D01*
X165126039Y-117943761D01*
X165126043Y-117943754D01*
X165131634Y-117936184D01*
X165176519Y-117808369D01*
X165179500Y-117776834D01*
X165179500Y-117119166D01*
X165176519Y-117087631D01*
X165131634Y-116959816D01*
X165126043Y-116952246D01*
X165126039Y-116952239D01*
X165054149Y-116854909D01*
X165029766Y-116788231D01*
X165029500Y-116780050D01*
X165029500Y-116535292D01*
X165049502Y-116467171D01*
X165079930Y-116434470D01*
X165143687Y-116386687D01*
X165225372Y-116277695D01*
X165273184Y-116150157D01*
X165274037Y-116142304D01*
X165274038Y-116142300D01*
X165279131Y-116095414D01*
X165279131Y-116095410D01*
X165279500Y-116092015D01*
X165279499Y-115501986D01*
X165273184Y-115443843D01*
X165225372Y-115316305D01*
X165143687Y-115207313D01*
X165079932Y-115159532D01*
X165037420Y-115102675D01*
X165029500Y-115058708D01*
X165029500Y-114935837D01*
X165049502Y-114867716D01*
X165079935Y-114835011D01*
X165138099Y-114791420D01*
X165153487Y-114779887D01*
X165235172Y-114670895D01*
X165282984Y-114543357D01*
X165283837Y-114535504D01*
X165283838Y-114535500D01*
X165288931Y-114488614D01*
X165288931Y-114488610D01*
X165289300Y-114485215D01*
X165289299Y-113895186D01*
X165282984Y-113837043D01*
X165235172Y-113709505D01*
X165153487Y-113600513D01*
X165079935Y-113545389D01*
X165037420Y-113488530D01*
X165029500Y-113444563D01*
X165029500Y-113091567D01*
X165049502Y-113023446D01*
X165054674Y-113016002D01*
X165092141Y-112966010D01*
X165092143Y-112966007D01*
X165097526Y-112958824D01*
X165109899Y-112925819D01*
X165145079Y-112831975D01*
X165145079Y-112831973D01*
X165147851Y-112824580D01*
X165149085Y-112813226D01*
X165154131Y-112766774D01*
X165154131Y-112766773D01*
X165154500Y-112763377D01*
X165154499Y-111718624D01*
X165153998Y-111714009D01*
X165148705Y-111665278D01*
X165148704Y-111665274D01*
X165147851Y-111657420D01*
X165097526Y-111523176D01*
X165092146Y-111515997D01*
X165092144Y-111515994D01*
X165016928Y-111415635D01*
X165011546Y-111408454D01*
X164999405Y-111399355D01*
X164904006Y-111327856D01*
X164904003Y-111327854D01*
X164896824Y-111322474D01*
X164843479Y-111302476D01*
X164818431Y-111293086D01*
X164761666Y-111250445D01*
X164736966Y-111183883D01*
X164752173Y-111114534D01*
X164802459Y-111064416D01*
X164820909Y-111056222D01*
X164942184Y-111013634D01*
X164949754Y-111008042D01*
X164949757Y-111008041D01*
X165043579Y-110938742D01*
X165051150Y-110933150D01*
X165068152Y-110910131D01*
X165126041Y-110831757D01*
X165126042Y-110831754D01*
X165131634Y-110824184D01*
X165176519Y-110696369D01*
X165179500Y-110664834D01*
X165179500Y-110007166D01*
X165176519Y-109975631D01*
X165131634Y-109847816D01*
X165126043Y-109840246D01*
X165126039Y-109840239D01*
X165054149Y-109742909D01*
X165029766Y-109676231D01*
X165029500Y-109668050D01*
X165029500Y-109352950D01*
X165049502Y-109284829D01*
X165054149Y-109278091D01*
X165126039Y-109180761D01*
X165126043Y-109180754D01*
X165131634Y-109173184D01*
X165176519Y-109045369D01*
X165179500Y-109013834D01*
X165179500Y-108356166D01*
X165176519Y-108324631D01*
X165131634Y-108196816D01*
X165126042Y-108189246D01*
X165126041Y-108189243D01*
X165063665Y-108104794D01*
X165051150Y-108087850D01*
X165012824Y-108059542D01*
X164949757Y-108012959D01*
X164949754Y-108012958D01*
X164942184Y-108007366D01*
X164814369Y-107962481D01*
X164806723Y-107961758D01*
X164806722Y-107961758D01*
X164800752Y-107961194D01*
X164782834Y-107959500D01*
X164275166Y-107959500D01*
X164257248Y-107961194D01*
X164251278Y-107961758D01*
X164251277Y-107961758D01*
X164243631Y-107962481D01*
X164115816Y-108007366D01*
X164108246Y-108012958D01*
X164108243Y-108012959D01*
X164045176Y-108059542D01*
X164006850Y-108087850D01*
X163994335Y-108104794D01*
X163931959Y-108189243D01*
X163931958Y-108189246D01*
X163926366Y-108196816D01*
X163881481Y-108324631D01*
X163878500Y-108356166D01*
X163878500Y-109013834D01*
X163881481Y-109045369D01*
X163926366Y-109173184D01*
X163931957Y-109180754D01*
X163931961Y-109180761D01*
X164003851Y-109278091D01*
X164028234Y-109344769D01*
X164028500Y-109352950D01*
X164028500Y-109668050D01*
X164008498Y-109736171D01*
X164003851Y-109742909D01*
X163926366Y-109847815D01*
X163924696Y-109846582D01*
X163883700Y-109888647D01*
X163859177Y-109899177D01*
X163850038Y-109900551D01*
X163843528Y-109903677D01*
X163836427Y-109904974D01*
X163828072Y-109909314D01*
X163784363Y-109932018D01*
X163780825Y-109933786D01*
X163736411Y-109955114D01*
X163727921Y-109959191D01*
X163722640Y-109964074D01*
X163722588Y-109964109D01*
X163716212Y-109967420D01*
X163711172Y-109971724D01*
X163673933Y-110008963D01*
X163670367Y-110012393D01*
X163635357Y-110044755D01*
X163635355Y-110044758D01*
X163628444Y-110051146D01*
X163624753Y-110057501D01*
X163619245Y-110063651D01*
X163277298Y-110405599D01*
X162944855Y-110738042D01*
X162890385Y-110770095D01*
X162856736Y-110779712D01*
X162732672Y-110857991D01*
X162635565Y-110967943D01*
X162631751Y-110976066D01*
X162631750Y-110976068D01*
X162614113Y-111013634D01*
X162573221Y-111100731D01*
X162571840Y-111109603D01*
X162552034Y-111236806D01*
X162552034Y-111236809D01*
X162550653Y-111245679D01*
X162551817Y-111254581D01*
X162551817Y-111254584D01*
X162553245Y-111265501D01*
X162569673Y-111391135D01*
X162628754Y-111525407D01*
X162634531Y-111532280D01*
X162634532Y-111532281D01*
X162668726Y-111572960D01*
X162723145Y-111637699D01*
X162845260Y-111718985D01*
X162985280Y-111762730D01*
X162994252Y-111762894D01*
X162994255Y-111762895D01*
X163059937Y-111764099D01*
X163131950Y-111765419D01*
X163262072Y-111729943D01*
X163264816Y-111729195D01*
X163264817Y-111729195D01*
X163273479Y-111726833D01*
X163281126Y-111722138D01*
X163281130Y-111722136D01*
X163364419Y-111670996D01*
X163398490Y-111650077D01*
X163404511Y-111643425D01*
X163404516Y-111643421D01*
X163436121Y-111608504D01*
X163496664Y-111571422D01*
X163567644Y-111572960D01*
X163626525Y-111612628D01*
X163654613Y-111677832D01*
X163654799Y-111706666D01*
X163653500Y-111718623D01*
X163653501Y-112026641D01*
X163653501Y-112302206D01*
X163633499Y-112370327D01*
X163616596Y-112391301D01*
X163465302Y-112542595D01*
X163402990Y-112576621D01*
X163376207Y-112579500D01*
X162589178Y-112579500D01*
X162536328Y-112567880D01*
X162530549Y-112565210D01*
X162523019Y-112560329D01*
X162482763Y-112548290D01*
X162429771Y-112516668D01*
X162069753Y-112156650D01*
X162059899Y-112145561D01*
X162044707Y-112126291D01*
X162044705Y-112126289D01*
X162038872Y-112118890D01*
X162031125Y-112113535D01*
X162031123Y-112113534D01*
X161990625Y-112085545D01*
X161987403Y-112083243D01*
X161947758Y-112053960D01*
X161947757Y-112053959D01*
X161940184Y-112048366D01*
X161933368Y-112045973D01*
X161927431Y-112041869D01*
X161918451Y-112039029D01*
X161918449Y-112039028D01*
X161879281Y-112026641D01*
X161871481Y-112024174D01*
X161867750Y-112022929D01*
X161821263Y-112006604D01*
X161821261Y-112006604D01*
X161812369Y-112003481D01*
X161805181Y-112003199D01*
X161805122Y-112003188D01*
X161798270Y-112001020D01*
X161791663Y-112000500D01*
X161738984Y-112000500D01*
X161734037Y-112000403D01*
X161677006Y-111998162D01*
X161669900Y-112000046D01*
X161661653Y-112000500D01*
X161583500Y-112000500D01*
X161515379Y-111980498D01*
X161468886Y-111926842D01*
X161457500Y-111874500D01*
X161457500Y-111667782D01*
X161456400Y-111660305D01*
X161448784Y-111608574D01*
X161448784Y-111608573D01*
X161447358Y-111598888D01*
X161414304Y-111531564D01*
X161402236Y-111461601D01*
X161414206Y-111420705D01*
X161447536Y-111352518D01*
X161453862Y-111309158D01*
X161456840Y-111288744D01*
X161456840Y-111288740D01*
X161457500Y-111284218D01*
X161457500Y-111017782D01*
X161455203Y-111002174D01*
X161448784Y-110958574D01*
X161448784Y-110958573D01*
X161447358Y-110948888D01*
X161414304Y-110881564D01*
X161402236Y-110811601D01*
X161414206Y-110770705D01*
X161447536Y-110702518D01*
X161452572Y-110667997D01*
X161456840Y-110638744D01*
X161456840Y-110638740D01*
X161457500Y-110634218D01*
X161457500Y-110367782D01*
X161453224Y-110338731D01*
X161448784Y-110308574D01*
X161448784Y-110308573D01*
X161447358Y-110298888D01*
X161414304Y-110231564D01*
X161402236Y-110161601D01*
X161414206Y-110120705D01*
X161447536Y-110052518D01*
X161454582Y-110004218D01*
X161456840Y-109988744D01*
X161456840Y-109988740D01*
X161457500Y-109984218D01*
X161457500Y-109717782D01*
X161447358Y-109648888D01*
X161395932Y-109544145D01*
X161313350Y-109461707D01*
X161208518Y-109410464D01*
X161170886Y-109404974D01*
X161144744Y-109401160D01*
X161144740Y-109401160D01*
X161140218Y-109400500D01*
X161046000Y-109400500D01*
X160977879Y-109380498D01*
X160931386Y-109326842D01*
X160920000Y-109274500D01*
X160920000Y-103030862D01*
X161455497Y-103030862D01*
X161456737Y-103038078D01*
X161456737Y-103038080D01*
X161473384Y-103134960D01*
X161485134Y-103203340D01*
X161553654Y-103364373D01*
X161657383Y-103505324D01*
X161662961Y-103510063D01*
X161662964Y-103510066D01*
X161785176Y-103613893D01*
X161785180Y-103613896D01*
X161790755Y-103618632D01*
X161828462Y-103637886D01*
X161939051Y-103694356D01*
X161946616Y-103698219D01*
X161953721Y-103699958D01*
X161953725Y-103699959D01*
X162006457Y-103712862D01*
X162116606Y-103739815D01*
X162122206Y-103740162D01*
X162122210Y-103740163D01*
X162125709Y-103740380D01*
X162125718Y-103740380D01*
X162127648Y-103740500D01*
X162253822Y-103740500D01*
X162345369Y-103729827D01*
X162376556Y-103726191D01*
X162376558Y-103726191D01*
X162383828Y-103725343D01*
X162390705Y-103722847D01*
X162390708Y-103722846D01*
X162541452Y-103668128D01*
X162548331Y-103665631D01*
X162694685Y-103569677D01*
X162815040Y-103442628D01*
X162902939Y-103291298D01*
X162953667Y-103123807D01*
X162964503Y-102949138D01*
X162958641Y-102915020D01*
X162936106Y-102783875D01*
X162936105Y-102783873D01*
X162934866Y-102776660D01*
X162866346Y-102615627D01*
X162850873Y-102594601D01*
X162819442Y-102551892D01*
X162762617Y-102474676D01*
X162757039Y-102469937D01*
X162757036Y-102469934D01*
X162634824Y-102366107D01*
X162634820Y-102366104D01*
X162629245Y-102361368D01*
X162545062Y-102318382D01*
X162479900Y-102285108D01*
X162479898Y-102285107D01*
X162473384Y-102281781D01*
X162466279Y-102280042D01*
X162466275Y-102280041D01*
X162372741Y-102257154D01*
X162303394Y-102240185D01*
X162297794Y-102239838D01*
X162297790Y-102239837D01*
X162294291Y-102239620D01*
X162294282Y-102239620D01*
X162292352Y-102239500D01*
X162166178Y-102239500D01*
X162074631Y-102250173D01*
X162043444Y-102253809D01*
X162043442Y-102253809D01*
X162036172Y-102254657D01*
X162029295Y-102257153D01*
X162029292Y-102257154D01*
X161878548Y-102311872D01*
X161871669Y-102314369D01*
X161725315Y-102410323D01*
X161604960Y-102537372D01*
X161517061Y-102688702D01*
X161466333Y-102856193D01*
X161455497Y-103030862D01*
X160920000Y-103030862D01*
X160920000Y-100343720D01*
X160920873Y-100328911D01*
X160923757Y-100304543D01*
X160924864Y-100295190D01*
X160922599Y-100282786D01*
X160914328Y-100237499D01*
X160913678Y-100233596D01*
X160906350Y-100184855D01*
X160906350Y-100184854D01*
X160904949Y-100175538D01*
X160901821Y-100169025D01*
X160900525Y-100161927D01*
X160873475Y-100109853D01*
X160871725Y-100106350D01*
X160862628Y-100087405D01*
X160846309Y-100053421D01*
X160841423Y-100048135D01*
X160841390Y-100048087D01*
X160838079Y-100041712D01*
X160833775Y-100036672D01*
X160796548Y-99999445D01*
X160793118Y-99995879D01*
X160785968Y-99988144D01*
X160754354Y-99953944D01*
X160747995Y-99950251D01*
X160741837Y-99944734D01*
X160215300Y-99418197D01*
X160181274Y-99355885D01*
X160184836Y-99289333D01*
X160188411Y-99278586D01*
X160188412Y-99278582D01*
X160190358Y-99272732D01*
X160214949Y-99078071D01*
X160215341Y-99050000D01*
X160196194Y-98854728D01*
X160194413Y-98848829D01*
X160194412Y-98848824D01*
X160141265Y-98672793D01*
X160139484Y-98666894D01*
X160047370Y-98493653D01*
X159923361Y-98341602D01*
X159772180Y-98216535D01*
X159599585Y-98123213D01*
X159505868Y-98094203D01*
X159418039Y-98067015D01*
X159418036Y-98067014D01*
X159412152Y-98065193D01*
X159406027Y-98064549D01*
X159406026Y-98064549D01*
X159223147Y-98045327D01*
X159223146Y-98045327D01*
X159217019Y-98044683D01*
X159100403Y-98055296D01*
X159027759Y-98061907D01*
X159027758Y-98061907D01*
X159021618Y-98062466D01*
X159015704Y-98064207D01*
X159015702Y-98064207D01*
X159001510Y-98068384D01*
X158833393Y-98117864D01*
X158827928Y-98120721D01*
X158664972Y-98205912D01*
X158664968Y-98205915D01*
X158659512Y-98208767D01*
X158654712Y-98212627D01*
X158654711Y-98212627D01*
X158620326Y-98240273D01*
X158506600Y-98331711D01*
X158380480Y-98482016D01*
X158377516Y-98487408D01*
X158377513Y-98487412D01*
X158314014Y-98602917D01*
X158285956Y-98653954D01*
X158284095Y-98659821D01*
X158284094Y-98659823D01*
X158279980Y-98672793D01*
X158226628Y-98840978D01*
X158204757Y-99035963D01*
X158221175Y-99231483D01*
X158275258Y-99420091D01*
X158278076Y-99425574D01*
X158362123Y-99589113D01*
X158362126Y-99589117D01*
X158364944Y-99594601D01*
X158486818Y-99748369D01*
X158491511Y-99752363D01*
X158491512Y-99752364D01*
X158625057Y-99866019D01*
X158636238Y-99875535D01*
X158641616Y-99878541D01*
X158641618Y-99878542D01*
X158677932Y-99898837D01*
X158807513Y-99971257D01*
X158994118Y-100031889D01*
X159188946Y-100055121D01*
X159195081Y-100054649D01*
X159195083Y-100054649D01*
X159378434Y-100040541D01*
X159378438Y-100040540D01*
X159384576Y-100040068D01*
X159453113Y-100020932D01*
X159524103Y-100021878D01*
X159576092Y-100053195D01*
X159982095Y-100459198D01*
X160016121Y-100521510D01*
X160019000Y-100548293D01*
X160019000Y-101152958D01*
X159998998Y-101221079D01*
X159945342Y-101267572D01*
X159875068Y-101277676D01*
X159812686Y-101250043D01*
X159776936Y-101220468D01*
X159776926Y-101220461D01*
X159772180Y-101216535D01*
X159599585Y-101123213D01*
X159466631Y-101082057D01*
X159418039Y-101067015D01*
X159418036Y-101067014D01*
X159412152Y-101065193D01*
X159406027Y-101064549D01*
X159406026Y-101064549D01*
X159223147Y-101045327D01*
X159223146Y-101045327D01*
X159217019Y-101044683D01*
X159094383Y-101055844D01*
X159027759Y-101061907D01*
X159027758Y-101061907D01*
X159021618Y-101062466D01*
X159015704Y-101064207D01*
X159015702Y-101064207D01*
X158955054Y-101082057D01*
X158833393Y-101117864D01*
X158827928Y-101120721D01*
X158664972Y-101205912D01*
X158664968Y-101205915D01*
X158659512Y-101208767D01*
X158654712Y-101212627D01*
X158654711Y-101212627D01*
X158644959Y-101220468D01*
X158506600Y-101331711D01*
X158380480Y-101482016D01*
X158377516Y-101487408D01*
X158377513Y-101487412D01*
X158298813Y-101630567D01*
X158285956Y-101653954D01*
X158226628Y-101840978D01*
X158204757Y-102035963D01*
X158221175Y-102231483D01*
X158275258Y-102420091D01*
X158280665Y-102430611D01*
X158362123Y-102589113D01*
X158362126Y-102589117D01*
X158364944Y-102594601D01*
X158486818Y-102748369D01*
X158491511Y-102752363D01*
X158491512Y-102752364D01*
X158622095Y-102863498D01*
X158636238Y-102875535D01*
X158641616Y-102878541D01*
X158641618Y-102878542D01*
X158694970Y-102908359D01*
X158807513Y-102971257D01*
X158994118Y-103031889D01*
X159188946Y-103055121D01*
X159195081Y-103054649D01*
X159195083Y-103054649D01*
X159378434Y-103040541D01*
X159378438Y-103040540D01*
X159384576Y-103040068D01*
X159573556Y-102987303D01*
X159748689Y-102898837D01*
X159806088Y-102853992D01*
X159815427Y-102846696D01*
X159881422Y-102820519D01*
X159951092Y-102834177D01*
X160002319Y-102883333D01*
X160019000Y-102945986D01*
X160019000Y-109274500D01*
X159998998Y-109342621D01*
X159945342Y-109389114D01*
X159893000Y-109400500D01*
X159798782Y-109400500D01*
X159794232Y-109401170D01*
X159794229Y-109401170D01*
X159739574Y-109409216D01*
X159739573Y-109409216D01*
X159729888Y-109410642D01*
X159689438Y-109430502D01*
X159634493Y-109457478D01*
X159634491Y-109457479D01*
X159625145Y-109462068D01*
X159542707Y-109544650D01*
X159540880Y-109542826D01*
X159496914Y-109577338D01*
X159426233Y-109584024D01*
X159361093Y-109549417D01*
X153697405Y-103885729D01*
X153663379Y-103823417D01*
X153660500Y-103796634D01*
X153660500Y-103020900D01*
X153680502Y-102952779D01*
X153729690Y-102908434D01*
X153743186Y-102901617D01*
X153743188Y-102901616D01*
X153748689Y-102898837D01*
X153903303Y-102778040D01*
X153933084Y-102743539D01*
X154027485Y-102634173D01*
X154027485Y-102634172D01*
X154031509Y-102629511D01*
X154035572Y-102622360D01*
X154083722Y-102537600D01*
X154128425Y-102458909D01*
X154190358Y-102272732D01*
X154214949Y-102078071D01*
X154215341Y-102050000D01*
X154196194Y-101854728D01*
X154194413Y-101848829D01*
X154194412Y-101848824D01*
X154141265Y-101672793D01*
X154139484Y-101666894D01*
X154047370Y-101493653D01*
X153923361Y-101341602D01*
X153772180Y-101216535D01*
X153599585Y-101123213D01*
X153466631Y-101082057D01*
X153418039Y-101067015D01*
X153418036Y-101067014D01*
X153412152Y-101065193D01*
X153406027Y-101064549D01*
X153406026Y-101064549D01*
X153223147Y-101045327D01*
X153223146Y-101045327D01*
X153217019Y-101044683D01*
X153094383Y-101055844D01*
X153027759Y-101061907D01*
X153027758Y-101061907D01*
X153021618Y-101062466D01*
X153015704Y-101064207D01*
X153015702Y-101064207D01*
X152955054Y-101082057D01*
X152833393Y-101117864D01*
X152827928Y-101120721D01*
X152664972Y-101205912D01*
X152664968Y-101205915D01*
X152659512Y-101208767D01*
X152654712Y-101212627D01*
X152654711Y-101212627D01*
X152644959Y-101220468D01*
X152506600Y-101331711D01*
X152438022Y-101413440D01*
X152378913Y-101452766D01*
X152307925Y-101453893D01*
X152247597Y-101416462D01*
X152217083Y-101352358D01*
X152215500Y-101332449D01*
X152215500Y-100733793D01*
X152235502Y-100665672D01*
X152252405Y-100644698D01*
X152809698Y-100087405D01*
X152872010Y-100053379D01*
X152898793Y-100050500D01*
X153757376Y-100050500D01*
X153760773Y-100050131D01*
X153810728Y-100044704D01*
X153810729Y-100044704D01*
X153818579Y-100043851D01*
X153825972Y-100041079D01*
X153825974Y-100041079D01*
X153879716Y-100020932D01*
X153952823Y-99993526D01*
X153960002Y-99988146D01*
X153960005Y-99988144D01*
X154060366Y-99912927D01*
X154067546Y-99907546D01*
X154093122Y-99873420D01*
X154148144Y-99800005D01*
X154148146Y-99800002D01*
X154153526Y-99792823D01*
X154203851Y-99658579D01*
X154204821Y-99649655D01*
X154210131Y-99600773D01*
X154210131Y-99600772D01*
X154210500Y-99597376D01*
X154210500Y-99035963D01*
X155204757Y-99035963D01*
X155221175Y-99231483D01*
X155275258Y-99420091D01*
X155278076Y-99425574D01*
X155362123Y-99589113D01*
X155362126Y-99589117D01*
X155364944Y-99594601D01*
X155486818Y-99748369D01*
X155491511Y-99752363D01*
X155491512Y-99752364D01*
X155625057Y-99866019D01*
X155636238Y-99875535D01*
X155641616Y-99878541D01*
X155641618Y-99878542D01*
X155677932Y-99898837D01*
X155807513Y-99971257D01*
X155994118Y-100031889D01*
X156188946Y-100055121D01*
X156195081Y-100054649D01*
X156195083Y-100054649D01*
X156378434Y-100040541D01*
X156378438Y-100040540D01*
X156384576Y-100040068D01*
X156573556Y-99987303D01*
X156748689Y-99898837D01*
X156778515Y-99875535D01*
X156883599Y-99793434D01*
X156903303Y-99778040D01*
X156933084Y-99743539D01*
X157027485Y-99634173D01*
X157027485Y-99634172D01*
X157031509Y-99629511D01*
X157051706Y-99593959D01*
X157125378Y-99464272D01*
X157128425Y-99458909D01*
X157190358Y-99272732D01*
X157214949Y-99078071D01*
X157215341Y-99050000D01*
X157196194Y-98854728D01*
X157194413Y-98848829D01*
X157194412Y-98848824D01*
X157141265Y-98672793D01*
X157139484Y-98666894D01*
X157047370Y-98493653D01*
X156923361Y-98341602D01*
X156772180Y-98216535D01*
X156599585Y-98123213D01*
X156505868Y-98094203D01*
X156418039Y-98067015D01*
X156418036Y-98067014D01*
X156412152Y-98065193D01*
X156406027Y-98064549D01*
X156406026Y-98064549D01*
X156223147Y-98045327D01*
X156223146Y-98045327D01*
X156217019Y-98044683D01*
X156100403Y-98055296D01*
X156027759Y-98061907D01*
X156027758Y-98061907D01*
X156021618Y-98062466D01*
X156015704Y-98064207D01*
X156015702Y-98064207D01*
X156001510Y-98068384D01*
X155833393Y-98117864D01*
X155827928Y-98120721D01*
X155664972Y-98205912D01*
X155664968Y-98205915D01*
X155659512Y-98208767D01*
X155654712Y-98212627D01*
X155654711Y-98212627D01*
X155620326Y-98240273D01*
X155506600Y-98331711D01*
X155380480Y-98482016D01*
X155377516Y-98487408D01*
X155377513Y-98487412D01*
X155314014Y-98602917D01*
X155285956Y-98653954D01*
X155284095Y-98659821D01*
X155284094Y-98659823D01*
X155279980Y-98672793D01*
X155226628Y-98840978D01*
X155204757Y-99035963D01*
X154210500Y-99035963D01*
X154210500Y-98502624D01*
X154208847Y-98487412D01*
X154204704Y-98449272D01*
X154204704Y-98449271D01*
X154203851Y-98441421D01*
X154197942Y-98425657D01*
X154168221Y-98346376D01*
X154153526Y-98307177D01*
X154148146Y-98299998D01*
X154148144Y-98299995D01*
X154072927Y-98199634D01*
X154067546Y-98192454D01*
X154024316Y-98160055D01*
X153960005Y-98111856D01*
X153960002Y-98111854D01*
X153952823Y-98106474D01*
X153863438Y-98072966D01*
X153825974Y-98058921D01*
X153825972Y-98058921D01*
X153818579Y-98056149D01*
X153810729Y-98055296D01*
X153810728Y-98055296D01*
X153760773Y-98049869D01*
X153760772Y-98049869D01*
X153757376Y-98049500D01*
X152662624Y-98049500D01*
X152659228Y-98049869D01*
X152659227Y-98049869D01*
X152609272Y-98055296D01*
X152609271Y-98055296D01*
X152601421Y-98056149D01*
X152594028Y-98058921D01*
X152594026Y-98058921D01*
X152556562Y-98072966D01*
X152467177Y-98106474D01*
X152459998Y-98111854D01*
X152459995Y-98111856D01*
X152395684Y-98160055D01*
X152352454Y-98192454D01*
X152347073Y-98199634D01*
X152271856Y-98299995D01*
X152271854Y-98299998D01*
X152266474Y-98307177D01*
X152251779Y-98346376D01*
X152222059Y-98425657D01*
X152216149Y-98441421D01*
X152215296Y-98449271D01*
X152215296Y-98449272D01*
X152211153Y-98487412D01*
X152209500Y-98502624D01*
X152209500Y-99361205D01*
X152189498Y-99429326D01*
X152172596Y-99450300D01*
X151470645Y-100152252D01*
X151459555Y-100162107D01*
X151432890Y-100183128D01*
X151427535Y-100190875D01*
X151427534Y-100190877D01*
X151399545Y-100231375D01*
X151397250Y-100234587D01*
X151362366Y-100281816D01*
X151359973Y-100288632D01*
X151355869Y-100294569D01*
X151353029Y-100303549D01*
X151353028Y-100303551D01*
X151346650Y-100323717D01*
X151340325Y-100343720D01*
X151338182Y-100350495D01*
X151336929Y-100354250D01*
X151317481Y-100409631D01*
X151317199Y-100416819D01*
X151317188Y-100416878D01*
X151315020Y-100423730D01*
X151314500Y-100430337D01*
X151314500Y-100483016D01*
X151314403Y-100487962D01*
X151312162Y-100544994D01*
X151314046Y-100552100D01*
X151314500Y-100560347D01*
X151314500Y-103404057D01*
X151313627Y-103418866D01*
X151309636Y-103452587D01*
X151311328Y-103461851D01*
X151311328Y-103461852D01*
X151320172Y-103510278D01*
X151320822Y-103514181D01*
X151327652Y-103559605D01*
X151329551Y-103572239D01*
X151332679Y-103578752D01*
X151333975Y-103585850D01*
X151361025Y-103637924D01*
X151362768Y-103641414D01*
X151388191Y-103694356D01*
X151393077Y-103699642D01*
X151393110Y-103699690D01*
X151396421Y-103706065D01*
X151400725Y-103711105D01*
X151437952Y-103748332D01*
X151441381Y-103751897D01*
X151480146Y-103793833D01*
X151486505Y-103797526D01*
X151492663Y-103803043D01*
X155394115Y-107704495D01*
X155428141Y-107766807D01*
X155431020Y-107793590D01*
X155431020Y-109274500D01*
X155411018Y-109342621D01*
X155357362Y-109389114D01*
X155305020Y-109400500D01*
X153192793Y-109400500D01*
X153124672Y-109380498D01*
X153103698Y-109363595D01*
X150978405Y-107238302D01*
X150944379Y-107175990D01*
X150941500Y-107149207D01*
X150941500Y-106859166D01*
X150938519Y-106827631D01*
X150893634Y-106699816D01*
X150888042Y-106692246D01*
X150888041Y-106692243D01*
X150818742Y-106598421D01*
X150813150Y-106590850D01*
X150748008Y-106542735D01*
X150711757Y-106515959D01*
X150711754Y-106515958D01*
X150704184Y-106510366D01*
X150576369Y-106465481D01*
X150568723Y-106464758D01*
X150568722Y-106464758D01*
X150562752Y-106464194D01*
X150544834Y-106462500D01*
X150037166Y-106462500D01*
X150019248Y-106464194D01*
X150013278Y-106464758D01*
X150013277Y-106464758D01*
X150005631Y-106465481D01*
X149877816Y-106510366D01*
X149870246Y-106515958D01*
X149870243Y-106515959D01*
X149833992Y-106542735D01*
X149768850Y-106590850D01*
X149763258Y-106598421D01*
X149693959Y-106692243D01*
X149693958Y-106692246D01*
X149688366Y-106699816D01*
X149643481Y-106827631D01*
X149640500Y-106859166D01*
X149640500Y-107516834D01*
X149643481Y-107548369D01*
X149688366Y-107676184D01*
X149693958Y-107683754D01*
X149693959Y-107683757D01*
X149743431Y-107750736D01*
X149768850Y-107785150D01*
X149776421Y-107790742D01*
X149870243Y-107860041D01*
X149870246Y-107860042D01*
X149877816Y-107865634D01*
X149925609Y-107882417D01*
X149983253Y-107923861D01*
X150009341Y-107989890D01*
X149995590Y-108059542D01*
X149946365Y-108110703D01*
X149925515Y-108118940D01*
X149925843Y-108119816D01*
X149798305Y-108167628D01*
X149689313Y-108249313D01*
X149607628Y-108358305D01*
X149559816Y-108485843D01*
X149553500Y-108543985D01*
X149553501Y-109134014D01*
X149559816Y-109192157D01*
X149607628Y-109319695D01*
X149689313Y-109428687D01*
X149753068Y-109476468D01*
X149795580Y-109533325D01*
X149803500Y-109577292D01*
X149803500Y-109741965D01*
X149783498Y-109810086D01*
X149753066Y-109842790D01*
X149676313Y-109900313D01*
X149594628Y-110009305D01*
X149546816Y-110136843D01*
X149545963Y-110144696D01*
X149545962Y-110144700D01*
X149541954Y-110181598D01*
X149540500Y-110194985D01*
X149540501Y-110785014D01*
X149546816Y-110843157D01*
X149594628Y-110970695D01*
X149676313Y-111079687D01*
X149785305Y-111161372D01*
X149793713Y-111164524D01*
X149888224Y-111199955D01*
X149944988Y-111242597D01*
X149969688Y-111309158D01*
X149954480Y-111378507D01*
X149904194Y-111428625D01*
X149888223Y-111435919D01*
X149806715Y-111466475D01*
X149806714Y-111466476D01*
X149798305Y-111469628D01*
X149689313Y-111551313D01*
X149607628Y-111660305D01*
X149559816Y-111787843D01*
X149558963Y-111795696D01*
X149558962Y-111795700D01*
X149553869Y-111842586D01*
X149553500Y-111845985D01*
X149553501Y-112024674D01*
X149553501Y-112152206D01*
X149533499Y-112220326D01*
X149516596Y-112241301D01*
X149326650Y-112431247D01*
X149315561Y-112441101D01*
X149296291Y-112456293D01*
X149296289Y-112456295D01*
X149288890Y-112462128D01*
X149283535Y-112469875D01*
X149283534Y-112469877D01*
X149255545Y-112510375D01*
X149253250Y-112513587D01*
X149218366Y-112560816D01*
X149215973Y-112567632D01*
X149211869Y-112573569D01*
X149209029Y-112582549D01*
X149209028Y-112582551D01*
X149207061Y-112588771D01*
X149195689Y-112624731D01*
X149194182Y-112629495D01*
X149192929Y-112633250D01*
X149182342Y-112663399D01*
X149173481Y-112688631D01*
X149173199Y-112695819D01*
X149173188Y-112695878D01*
X149171020Y-112702730D01*
X149170500Y-112709337D01*
X149170500Y-112762016D01*
X149170403Y-112766962D01*
X149168162Y-112823994D01*
X149170046Y-112831100D01*
X149170500Y-112839347D01*
X149170500Y-112961500D01*
X149150498Y-113029621D01*
X149096842Y-113076114D01*
X149044500Y-113087500D01*
X148873178Y-113087500D01*
X148820328Y-113075880D01*
X148814549Y-113073210D01*
X148807019Y-113068329D01*
X148798422Y-113065758D01*
X148798420Y-113065757D01*
X148724455Y-113043637D01*
X148666475Y-113026297D01*
X148657499Y-113026242D01*
X148657498Y-113026242D01*
X148594277Y-113025856D01*
X148519783Y-113025401D01*
X148511151Y-113027868D01*
X148387367Y-113063245D01*
X148387365Y-113063246D01*
X148378736Y-113065712D01*
X148337759Y-113091567D01*
X148267957Y-113135609D01*
X148254672Y-113143991D01*
X148157565Y-113253943D01*
X148153751Y-113262066D01*
X148153750Y-113262068D01*
X148097783Y-113381273D01*
X148050726Y-113434435D01*
X147982398Y-113453717D01*
X147914492Y-113432997D01*
X147894633Y-113416819D01*
X146841405Y-112363591D01*
X146807379Y-112301279D01*
X146804500Y-112274496D01*
X146804500Y-108209504D01*
X146824502Y-108141383D01*
X146841405Y-108120409D01*
X148252409Y-106709405D01*
X148314721Y-106675379D01*
X148341504Y-106672500D01*
X149027819Y-106672500D01*
X149039704Y-106673828D01*
X149039745Y-106673318D01*
X149048691Y-106674038D01*
X149057447Y-106676019D01*
X149110263Y-106672742D01*
X149118067Y-106672500D01*
X149133940Y-106672500D01*
X149144052Y-106671052D01*
X149154106Y-106670022D01*
X149182097Y-106668285D01*
X149200538Y-106667141D01*
X149208982Y-106664093D01*
X149212694Y-106663324D01*
X149227399Y-106659657D01*
X149231027Y-106658596D01*
X149239918Y-106657323D01*
X149282282Y-106638061D01*
X149291637Y-106634254D01*
X149326943Y-106621509D01*
X149326947Y-106621507D01*
X149335387Y-106618460D01*
X149342635Y-106613165D01*
X149345975Y-106611389D01*
X149359089Y-106603726D01*
X149362261Y-106601697D01*
X149370428Y-106597984D01*
X149377223Y-106592129D01*
X149377226Y-106592127D01*
X149405675Y-106567613D01*
X149413596Y-106561324D01*
X149420402Y-106556352D01*
X149424336Y-106553478D01*
X149435079Y-106542735D01*
X149441926Y-106536377D01*
X149472237Y-106510259D01*
X149479037Y-106504400D01*
X149483920Y-106496866D01*
X149489819Y-106490104D01*
X149489824Y-106490108D01*
X149498800Y-106479014D01*
X149872218Y-106105596D01*
X149895385Y-106087315D01*
X149928843Y-106066772D01*
X149936490Y-106062077D01*
X150034932Y-105953319D01*
X150098894Y-105821302D01*
X150115518Y-105722491D01*
X150122426Y-105681434D01*
X150122426Y-105681429D01*
X150123232Y-105676641D01*
X150123386Y-105664000D01*
X150102590Y-105518787D01*
X150053095Y-105409929D01*
X150045589Y-105393420D01*
X150045588Y-105393418D01*
X150041873Y-105385248D01*
X149946117Y-105274117D01*
X149823019Y-105194329D01*
X149814417Y-105191757D01*
X149814414Y-105191755D01*
X149739753Y-105169427D01*
X149682475Y-105152297D01*
X149673499Y-105152242D01*
X149673498Y-105152242D01*
X149610277Y-105151856D01*
X149535783Y-105151401D01*
X149527151Y-105153868D01*
X149403367Y-105189245D01*
X149403365Y-105189246D01*
X149394736Y-105191712D01*
X149270672Y-105269991D01*
X149173565Y-105379943D01*
X149169752Y-105388065D01*
X149168474Y-105390010D01*
X149152258Y-105409929D01*
X148927590Y-105634596D01*
X148865278Y-105668621D01*
X148838495Y-105671500D01*
X148152181Y-105671500D01*
X148140296Y-105670172D01*
X148140255Y-105670682D01*
X148131309Y-105669962D01*
X148122553Y-105667981D01*
X148087240Y-105670172D01*
X148069736Y-105671258D01*
X148061933Y-105671500D01*
X148046060Y-105671500D01*
X148035948Y-105672948D01*
X148025894Y-105673978D01*
X147997903Y-105675715D01*
X147979462Y-105676859D01*
X147971018Y-105679907D01*
X147967306Y-105680676D01*
X147952601Y-105684343D01*
X147948973Y-105685404D01*
X147940082Y-105686677D01*
X147897718Y-105705939D01*
X147888363Y-105709746D01*
X147853057Y-105722491D01*
X147853053Y-105722493D01*
X147844613Y-105725540D01*
X147837365Y-105730835D01*
X147834025Y-105732611D01*
X147820911Y-105740274D01*
X147817739Y-105742303D01*
X147809572Y-105746016D01*
X147802777Y-105751871D01*
X147802774Y-105751873D01*
X147774325Y-105776387D01*
X147766405Y-105782675D01*
X147755664Y-105790522D01*
X147744921Y-105801265D01*
X147738075Y-105807623D01*
X147700963Y-105839600D01*
X147696080Y-105847134D01*
X147690181Y-105853896D01*
X147690176Y-105853892D01*
X147681200Y-105864986D01*
X145999720Y-107546466D01*
X145990376Y-107553932D01*
X145990708Y-107554322D01*
X145983872Y-107560140D01*
X145976280Y-107564930D01*
X145970338Y-107571658D01*
X145970337Y-107571659D01*
X145941245Y-107604600D01*
X145935898Y-107610288D01*
X145924680Y-107621506D01*
X145921991Y-107625094D01*
X145921990Y-107625095D01*
X145918550Y-107629684D01*
X145912168Y-107637523D01*
X145881377Y-107672388D01*
X145877563Y-107680511D01*
X145875492Y-107683664D01*
X145867673Y-107696676D01*
X145865856Y-107699995D01*
X145860474Y-107707176D01*
X145857325Y-107715577D01*
X145857324Y-107715578D01*
X145844144Y-107750736D01*
X145840217Y-107760053D01*
X145824263Y-107794034D01*
X145824262Y-107794037D01*
X145820447Y-107802163D01*
X145819065Y-107811037D01*
X145817961Y-107814650D01*
X145814115Y-107829307D01*
X145813301Y-107833010D01*
X145810148Y-107841420D01*
X145806698Y-107887843D01*
X145805548Y-107897856D01*
X145803500Y-107911009D01*
X145803500Y-107926204D01*
X145803154Y-107935541D01*
X145799524Y-107984392D01*
X145801397Y-107993168D01*
X145802008Y-108002125D01*
X145802002Y-108002125D01*
X145803500Y-108016318D01*
X145803500Y-112463819D01*
X145802172Y-112475704D01*
X145802682Y-112475745D01*
X145801962Y-112484691D01*
X145799981Y-112493447D01*
X145800537Y-112502407D01*
X145803258Y-112546264D01*
X145803500Y-112554067D01*
X145803500Y-112569940D01*
X145804135Y-112574374D01*
X145804948Y-112580050D01*
X145805978Y-112590106D01*
X145808859Y-112636538D01*
X145811907Y-112644982D01*
X145812676Y-112648694D01*
X145816343Y-112663399D01*
X145817404Y-112667027D01*
X145818677Y-112675918D01*
X145837939Y-112718282D01*
X145841746Y-112727637D01*
X145854491Y-112762943D01*
X145854493Y-112762947D01*
X145857540Y-112771387D01*
X145862835Y-112778635D01*
X145864611Y-112781975D01*
X145872274Y-112795089D01*
X145874303Y-112798261D01*
X145878016Y-112806428D01*
X145883871Y-112813223D01*
X145883873Y-112813226D01*
X145908387Y-112841675D01*
X145914675Y-112849595D01*
X145922522Y-112860336D01*
X145933265Y-112871079D01*
X145939623Y-112877925D01*
X145971600Y-112915037D01*
X145979134Y-112919920D01*
X145985896Y-112925819D01*
X145985892Y-112925824D01*
X145996986Y-112934800D01*
X148017595Y-114955409D01*
X148051621Y-115017721D01*
X148054500Y-115044504D01*
X148054500Y-115263834D01*
X148057481Y-115295369D01*
X148102366Y-115423184D01*
X148107958Y-115430754D01*
X148107959Y-115430757D01*
X148142184Y-115477093D01*
X148182850Y-115532150D01*
X148190421Y-115537742D01*
X148284243Y-115607041D01*
X148284246Y-115607042D01*
X148291816Y-115612634D01*
X148419631Y-115657519D01*
X148427277Y-115658242D01*
X148427278Y-115658242D01*
X148433248Y-115658806D01*
X148451166Y-115660500D01*
X148958834Y-115660500D01*
X148976752Y-115658806D01*
X148982722Y-115658242D01*
X148982723Y-115658242D01*
X148990369Y-115657519D01*
X149118184Y-115612634D01*
X149125754Y-115607042D01*
X149125757Y-115607041D01*
X149219579Y-115537742D01*
X149227150Y-115532150D01*
X149267816Y-115477093D01*
X149302041Y-115430757D01*
X149302042Y-115430754D01*
X149307634Y-115423184D01*
X149352519Y-115295369D01*
X149355500Y-115263834D01*
X149355500Y-114606166D01*
X149352519Y-114574631D01*
X149307634Y-114446816D01*
X149302042Y-114439246D01*
X149302041Y-114439243D01*
X149232742Y-114345421D01*
X149227150Y-114337850D01*
X149209931Y-114325132D01*
X149125757Y-114262959D01*
X149125754Y-114262958D01*
X149118184Y-114257366D01*
X149049890Y-114233383D01*
X148992244Y-114191940D01*
X148966156Y-114125910D01*
X148979907Y-114056258D01*
X149029132Y-114005097D01*
X149091638Y-113988500D01*
X149157060Y-113988500D01*
X149225181Y-114008502D01*
X149233463Y-114015177D01*
X149233577Y-114015020D01*
X149241597Y-114020847D01*
X149248609Y-114027859D01*
X149358825Y-114084017D01*
X149450265Y-114098500D01*
X149525601Y-114098500D01*
X149774237Y-114098499D01*
X149842357Y-114118501D01*
X149888850Y-114172156D01*
X149898955Y-114242430D01*
X149869462Y-114307011D01*
X149849095Y-114325851D01*
X149840423Y-114332256D01*
X149840421Y-114332258D01*
X149832850Y-114337850D01*
X149827258Y-114345421D01*
X149757959Y-114439243D01*
X149757958Y-114439246D01*
X149752366Y-114446816D01*
X149707481Y-114574631D01*
X149704500Y-114606166D01*
X149704500Y-115263834D01*
X149707481Y-115295369D01*
X149752366Y-115423184D01*
X149757957Y-115430754D01*
X149757961Y-115430761D01*
X149829851Y-115528091D01*
X149854234Y-115594769D01*
X149854500Y-115602950D01*
X149854500Y-115791050D01*
X149834498Y-115859171D01*
X149829851Y-115865909D01*
X149757961Y-115963239D01*
X149757957Y-115963246D01*
X149752366Y-115970816D01*
X149707481Y-116098631D01*
X149704500Y-116130166D01*
X149704500Y-116787834D01*
X149707481Y-116819369D01*
X149752366Y-116947184D01*
X149757958Y-116954754D01*
X149757959Y-116954757D01*
X149761696Y-116959816D01*
X149832850Y-117056150D01*
X149840421Y-117061742D01*
X149934243Y-117131041D01*
X149934246Y-117131042D01*
X149941816Y-117136634D01*
X149950699Y-117139754D01*
X149950702Y-117139755D01*
X150062349Y-117178963D01*
X150119994Y-117220406D01*
X150146082Y-117286435D01*
X150132331Y-117356088D01*
X150083106Y-117407248D01*
X150062347Y-117416728D01*
X150026700Y-117429246D01*
X150026699Y-117429247D01*
X150017816Y-117432366D01*
X150010246Y-117437958D01*
X150010243Y-117437959D01*
X149953761Y-117479678D01*
X149908850Y-117512850D01*
X149903258Y-117520421D01*
X149833959Y-117614243D01*
X149833958Y-117614246D01*
X149828366Y-117621816D01*
X149783481Y-117749631D01*
X149780500Y-117781166D01*
X149780500Y-118438834D01*
X149783481Y-118470369D01*
X149828366Y-118598184D01*
X149833958Y-118605754D01*
X149833959Y-118605757D01*
X149896335Y-118690206D01*
X149908850Y-118707150D01*
X149916421Y-118712742D01*
X150010243Y-118782041D01*
X150010246Y-118782042D01*
X150017816Y-118787634D01*
X150145631Y-118832519D01*
X150153277Y-118833242D01*
X150153278Y-118833242D01*
X150159248Y-118833806D01*
X150177166Y-118835500D01*
X150684834Y-118835500D01*
X150702752Y-118833806D01*
X150708722Y-118833242D01*
X150708723Y-118833242D01*
X150716369Y-118832519D01*
X150844184Y-118787634D01*
X150851754Y-118782042D01*
X150851757Y-118782041D01*
X150945579Y-118712742D01*
X150953150Y-118707150D01*
X150958742Y-118699579D01*
X150958745Y-118699576D01*
X151023695Y-118611641D01*
X151080256Y-118568730D01*
X151125046Y-118560500D01*
X151349780Y-118560500D01*
X151364589Y-118561373D01*
X151398310Y-118565364D01*
X151407574Y-118563672D01*
X151407575Y-118563672D01*
X151456001Y-118554828D01*
X151459904Y-118554178D01*
X151508645Y-118546850D01*
X151508646Y-118546850D01*
X151517962Y-118545449D01*
X151524475Y-118542321D01*
X151531573Y-118541025D01*
X151583647Y-118513975D01*
X151587137Y-118512232D01*
X151631351Y-118491000D01*
X154446723Y-118491000D01*
X154465793Y-118708977D01*
X154522425Y-118920330D01*
X154524747Y-118925310D01*
X154524748Y-118925312D01*
X154609159Y-119106330D01*
X154614898Y-119118638D01*
X154740402Y-119297877D01*
X154895123Y-119452598D01*
X154899631Y-119455755D01*
X154899634Y-119455757D01*
X155063678Y-119570622D01*
X155074361Y-119578102D01*
X155079343Y-119580425D01*
X155079348Y-119580428D01*
X155210923Y-119641782D01*
X155272670Y-119670575D01*
X155277978Y-119671997D01*
X155277980Y-119671998D01*
X155339862Y-119688579D01*
X155484023Y-119727207D01*
X155702000Y-119746277D01*
X155919977Y-119727207D01*
X156064138Y-119688579D01*
X156126020Y-119671998D01*
X156126022Y-119671997D01*
X156131330Y-119670575D01*
X156193077Y-119641782D01*
X156324652Y-119580428D01*
X156324657Y-119580425D01*
X156329639Y-119578102D01*
X156340322Y-119570622D01*
X156504366Y-119455757D01*
X156504369Y-119455755D01*
X156508877Y-119452598D01*
X156623091Y-119338384D01*
X156685403Y-119304358D01*
X156756218Y-119309423D01*
X156801281Y-119338384D01*
X157218676Y-119755779D01*
X157244910Y-119794128D01*
X157288599Y-119893419D01*
X157294754Y-119907407D01*
X157389145Y-120019699D01*
X157511260Y-120100985D01*
X157651280Y-120144730D01*
X157660252Y-120144894D01*
X157660255Y-120144895D01*
X157725937Y-120146099D01*
X157797950Y-120147419D01*
X157898464Y-120120015D01*
X157930816Y-120111195D01*
X157930817Y-120111195D01*
X157939479Y-120108833D01*
X157947126Y-120104138D01*
X157947130Y-120104136D01*
X158039573Y-120047376D01*
X158064490Y-120032077D01*
X158162932Y-119923319D01*
X158226894Y-119791302D01*
X158244176Y-119688579D01*
X158250426Y-119651434D01*
X158250426Y-119651429D01*
X158251232Y-119646641D01*
X158251386Y-119634000D01*
X158230590Y-119488787D01*
X158185154Y-119388856D01*
X158173589Y-119363420D01*
X158173588Y-119363418D01*
X158169873Y-119355248D01*
X158074117Y-119244117D01*
X157951019Y-119164329D01*
X157910763Y-119152290D01*
X157857771Y-119120668D01*
X156935756Y-118198653D01*
X156903144Y-118142168D01*
X156882999Y-118066982D01*
X156882996Y-118066975D01*
X156881575Y-118061670D01*
X156855712Y-118006206D01*
X156791425Y-117868343D01*
X156791423Y-117868340D01*
X156789102Y-117863362D01*
X156663598Y-117684123D01*
X156508877Y-117529402D01*
X156504369Y-117526245D01*
X156504366Y-117526243D01*
X156334148Y-117407055D01*
X156334145Y-117407053D01*
X156329639Y-117403898D01*
X156324657Y-117401575D01*
X156324652Y-117401572D01*
X156136312Y-117313748D01*
X156136311Y-117313747D01*
X156131330Y-117311425D01*
X156126022Y-117310003D01*
X156126020Y-117310002D01*
X156023623Y-117282565D01*
X155919977Y-117254793D01*
X155702000Y-117235723D01*
X155484023Y-117254793D01*
X155380377Y-117282565D01*
X155277980Y-117310002D01*
X155277978Y-117310003D01*
X155272670Y-117311425D01*
X155267690Y-117313747D01*
X155267688Y-117313748D01*
X155079343Y-117401575D01*
X155079340Y-117401577D01*
X155074362Y-117403898D01*
X154895123Y-117529402D01*
X154740402Y-117684123D01*
X154614898Y-117863362D01*
X154612577Y-117868340D01*
X154612575Y-117868343D01*
X154548288Y-118006206D01*
X154522425Y-118061670D01*
X154521003Y-118066978D01*
X154521002Y-118066980D01*
X154505286Y-118125634D01*
X154465793Y-118273023D01*
X154446723Y-118491000D01*
X151631351Y-118491000D01*
X151640079Y-118486809D01*
X151645365Y-118481923D01*
X151645413Y-118481890D01*
X151651788Y-118478579D01*
X151656828Y-118474275D01*
X151694055Y-118437048D01*
X151697621Y-118433618D01*
X151732641Y-118401246D01*
X151739556Y-118394854D01*
X151743249Y-118388495D01*
X151748766Y-118382337D01*
X153942698Y-116188405D01*
X154005010Y-116154379D01*
X154031793Y-116151500D01*
X157626207Y-116151500D01*
X157694328Y-116171502D01*
X157715302Y-116188405D01*
X159449230Y-117922333D01*
X159483256Y-117984645D01*
X159478537Y-118054522D01*
X159477751Y-118056682D01*
X159475425Y-118061670D01*
X159418793Y-118273023D01*
X159399723Y-118491000D01*
X159418793Y-118708977D01*
X159475425Y-118920330D01*
X159477747Y-118925310D01*
X159477748Y-118925312D01*
X159562159Y-119106330D01*
X159567898Y-119118638D01*
X159693402Y-119297877D01*
X159848123Y-119452598D01*
X159852631Y-119455755D01*
X159852634Y-119455757D01*
X160016678Y-119570622D01*
X160027361Y-119578102D01*
X160032343Y-119580425D01*
X160032348Y-119580428D01*
X160163923Y-119641782D01*
X160225670Y-119670575D01*
X160230978Y-119671997D01*
X160230980Y-119671998D01*
X160292862Y-119688579D01*
X160437023Y-119727207D01*
X160655000Y-119746277D01*
X160872977Y-119727207D01*
X161017138Y-119688579D01*
X161079020Y-119671998D01*
X161079022Y-119671997D01*
X161084330Y-119670575D01*
X161146077Y-119641782D01*
X161277652Y-119580428D01*
X161277657Y-119580425D01*
X161282639Y-119578102D01*
X161287148Y-119574945D01*
X161291909Y-119572196D01*
X161292736Y-119573628D01*
X161352851Y-119553346D01*
X161421713Y-119570622D01*
X161446959Y-119590151D01*
X163241613Y-121384805D01*
X163275639Y-121447117D01*
X163270574Y-121517932D01*
X163228027Y-121574768D01*
X163161507Y-121599579D01*
X163152518Y-121599900D01*
X162735726Y-121599900D01*
X162662660Y-121614434D01*
X162579799Y-121669799D01*
X162524434Y-121752660D01*
X162509900Y-121825726D01*
X162509900Y-123475074D01*
X162524434Y-123548140D01*
X162579799Y-123631001D01*
X162662660Y-123686366D01*
X162735726Y-123700900D01*
X163785074Y-123700900D01*
X163858140Y-123686366D01*
X163941001Y-123631001D01*
X163996366Y-123548140D01*
X164010900Y-123475074D01*
X164010900Y-122458282D01*
X164030902Y-122390161D01*
X164084558Y-122343668D01*
X164154832Y-122333564D01*
X164219412Y-122363058D01*
X164225995Y-122369187D01*
X165272995Y-123416187D01*
X165307021Y-123478499D01*
X165309900Y-123505282D01*
X165309900Y-123881740D01*
X165289898Y-123949861D01*
X165236242Y-123996354D01*
X165208483Y-124005319D01*
X165174830Y-124012013D01*
X165174829Y-124012013D01*
X165162660Y-124014434D01*
X165079799Y-124069799D01*
X165024434Y-124152660D01*
X165009900Y-124225726D01*
X165009900Y-125875074D01*
X165024434Y-125948140D01*
X165079799Y-126031001D01*
X165162660Y-126086366D01*
X165235726Y-126100900D01*
X166285074Y-126100900D01*
X166358140Y-126086366D01*
X166441001Y-126031001D01*
X166496366Y-125948140D01*
X166510900Y-125875074D01*
X166510900Y-124225726D01*
X166496366Y-124152660D01*
X166441001Y-124069799D01*
X166358140Y-124014434D01*
X166345971Y-124012013D01*
X166345970Y-124012013D01*
X166312317Y-124005319D01*
X166249408Y-123972411D01*
X166214277Y-123910715D01*
X166210900Y-123881740D01*
X166210900Y-123300708D01*
X166211773Y-123285899D01*
X166214657Y-123261530D01*
X166215764Y-123252178D01*
X166214072Y-123242915D01*
X166214072Y-123242908D01*
X166205225Y-123194471D01*
X166204574Y-123190564D01*
X166197250Y-123141845D01*
X166197250Y-123141844D01*
X166195849Y-123132527D01*
X166192721Y-123126014D01*
X166191425Y-123118916D01*
X166164372Y-123066836D01*
X166162623Y-123063334D01*
X166141287Y-123018902D01*
X166141286Y-123018901D01*
X166137209Y-123010410D01*
X166132323Y-123005125D01*
X166132292Y-123005078D01*
X166128979Y-122998700D01*
X166124675Y-122993661D01*
X166087448Y-122956434D01*
X166084018Y-122952868D01*
X166051646Y-122917848D01*
X166045254Y-122910933D01*
X166038895Y-122907240D01*
X166032737Y-122901723D01*
X164446609Y-121315595D01*
X164412583Y-121253283D01*
X164417648Y-121182468D01*
X164460195Y-121125632D01*
X164526715Y-121100821D01*
X164535704Y-121100500D01*
X166893780Y-121100500D01*
X166908589Y-121101373D01*
X166942310Y-121105364D01*
X166951574Y-121103672D01*
X166951575Y-121103672D01*
X167000001Y-121094828D01*
X167003904Y-121094178D01*
X167052645Y-121086850D01*
X167052646Y-121086850D01*
X167061962Y-121085449D01*
X167068475Y-121082321D01*
X167075573Y-121081025D01*
X167127647Y-121053975D01*
X167131137Y-121052232D01*
X167184079Y-121026809D01*
X167189365Y-121021923D01*
X167189413Y-121021890D01*
X167195788Y-121018579D01*
X167200828Y-121014275D01*
X167238055Y-120977048D01*
X167241621Y-120973618D01*
X167276641Y-120941246D01*
X167283556Y-120934854D01*
X167287249Y-120928495D01*
X167292766Y-120922337D01*
X169507698Y-118707405D01*
X169570010Y-118673379D01*
X169596793Y-118670500D01*
X169880972Y-118670499D01*
X169903014Y-118670499D01*
X169961157Y-118664184D01*
X170088695Y-118616372D01*
X170197687Y-118534687D01*
X170279372Y-118425695D01*
X170327184Y-118298157D01*
X170329320Y-118278502D01*
X170333131Y-118243414D01*
X170333131Y-118243410D01*
X170333500Y-118240015D01*
X170333499Y-117699986D01*
X170327184Y-117641843D01*
X170279372Y-117514305D01*
X170201174Y-117409965D01*
X170176326Y-117343460D01*
X170176000Y-117334401D01*
X170176000Y-115846262D01*
X170196002Y-115778141D01*
X170249658Y-115731648D01*
X170319932Y-115721544D01*
X170384512Y-115751038D01*
X170420883Y-115804514D01*
X170465366Y-115931184D01*
X170470958Y-115938754D01*
X170470959Y-115938757D01*
X170501200Y-115979699D01*
X170545850Y-116040150D01*
X170553421Y-116045742D01*
X170647243Y-116115041D01*
X170647246Y-116115042D01*
X170654816Y-116120634D01*
X170782631Y-116165519D01*
X170790277Y-116166242D01*
X170790278Y-116166242D01*
X170796248Y-116166806D01*
X170814166Y-116168500D01*
X171149841Y-116168500D01*
X171217962Y-116188502D01*
X171264455Y-116242158D01*
X171274559Y-116312432D01*
X171245065Y-116377012D01*
X171202335Y-116407826D01*
X171196260Y-116409034D01*
X171113399Y-116464399D01*
X171106507Y-116474714D01*
X171066031Y-116535292D01*
X171058034Y-116547260D01*
X171043500Y-116620326D01*
X171043500Y-117569674D01*
X171058034Y-117642740D01*
X171064928Y-117653057D01*
X171064928Y-117653058D01*
X171069232Y-117659500D01*
X171113399Y-117725601D01*
X171196260Y-117780966D01*
X171269326Y-117795500D01*
X172518674Y-117795500D01*
X172591740Y-117780966D01*
X172674601Y-117725601D01*
X172718768Y-117659500D01*
X172723072Y-117653058D01*
X172723072Y-117653057D01*
X172729966Y-117642740D01*
X172744500Y-117569674D01*
X172744500Y-116620326D01*
X172729966Y-116547260D01*
X172721970Y-116535292D01*
X172681493Y-116474714D01*
X172674601Y-116464399D01*
X172672387Y-116462920D01*
X172641595Y-116406530D01*
X172646660Y-116335715D01*
X172675621Y-116290652D01*
X172760868Y-116205405D01*
X172823180Y-116171379D01*
X172849963Y-116168500D01*
X172973834Y-116168500D01*
X172991752Y-116166806D01*
X172997722Y-116166242D01*
X172997723Y-116166242D01*
X173005369Y-116165519D01*
X173133184Y-116120634D01*
X173140754Y-116115042D01*
X173140757Y-116115041D01*
X173234579Y-116045742D01*
X173242150Y-116040150D01*
X173286800Y-115979699D01*
X173317041Y-115938757D01*
X173317042Y-115938754D01*
X173322634Y-115931184D01*
X173367117Y-115804514D01*
X173408560Y-115746868D01*
X173474590Y-115720780D01*
X173544242Y-115734531D01*
X173595403Y-115783756D01*
X173612000Y-115846262D01*
X173612000Y-117318489D01*
X173591998Y-117386610D01*
X173583071Y-117397687D01*
X173582850Y-117397850D01*
X173581868Y-117399180D01*
X173581866Y-117399182D01*
X173507959Y-117499243D01*
X173507958Y-117499246D01*
X173502366Y-117506816D01*
X173457481Y-117634631D01*
X173454500Y-117666166D01*
X173454500Y-118173834D01*
X173457481Y-118205369D01*
X173502366Y-118333184D01*
X173507958Y-118340754D01*
X173507959Y-118340757D01*
X173538671Y-118382337D01*
X173582850Y-118442150D01*
X173590421Y-118447742D01*
X173684243Y-118517041D01*
X173684246Y-118517042D01*
X173691816Y-118522634D01*
X173819631Y-118567519D01*
X173827277Y-118568242D01*
X173827278Y-118568242D01*
X173832442Y-118568730D01*
X173851166Y-118570500D01*
X174508834Y-118570500D01*
X174527558Y-118568730D01*
X174532722Y-118568242D01*
X174532723Y-118568242D01*
X174540369Y-118567519D01*
X174668184Y-118522634D01*
X174675754Y-118517042D01*
X174675757Y-118517041D01*
X174769579Y-118447742D01*
X174777150Y-118442150D01*
X174821329Y-118382337D01*
X174852041Y-118340757D01*
X174852042Y-118340754D01*
X174857634Y-118333184D01*
X174902519Y-118205369D01*
X174905500Y-118173834D01*
X174905500Y-117666166D01*
X174902519Y-117634631D01*
X174857634Y-117506816D01*
X174852042Y-117499246D01*
X174852041Y-117499243D01*
X174777150Y-117397850D01*
X174778888Y-117396566D01*
X174750879Y-117345272D01*
X174748000Y-117318489D01*
X174748000Y-116210200D01*
X174768002Y-116142079D01*
X174799140Y-116108849D01*
X174884579Y-116045742D01*
X174892150Y-116040150D01*
X174936800Y-115979699D01*
X174967041Y-115938757D01*
X174967042Y-115938754D01*
X174972634Y-115931184D01*
X175015117Y-115810209D01*
X175056560Y-115752563D01*
X175122590Y-115726475D01*
X175192242Y-115740226D01*
X175243403Y-115789451D01*
X175260000Y-115851957D01*
X175260000Y-123825000D01*
X178304976Y-123825000D01*
X178373097Y-123845002D01*
X178405802Y-123875435D01*
X178473146Y-123965292D01*
X178473150Y-123965296D01*
X178478528Y-123972472D01*
X178485704Y-123977850D01*
X178531243Y-124011979D01*
X178586088Y-124053083D01*
X178594496Y-124056235D01*
X178704554Y-124097494D01*
X178704556Y-124097494D01*
X178711949Y-124100266D01*
X178719797Y-124101119D01*
X178719799Y-124101119D01*
X178765920Y-124106129D01*
X178769335Y-124106500D01*
X179069912Y-124106500D01*
X179370664Y-124106499D01*
X179428051Y-124100266D01*
X179553912Y-124053083D01*
X179608758Y-124011979D01*
X179654296Y-123977850D01*
X179661472Y-123972472D01*
X179666850Y-123965296D01*
X179666854Y-123965292D01*
X179734198Y-123875435D01*
X179791057Y-123832920D01*
X179835024Y-123825000D01*
X184559505Y-123825000D01*
X184627626Y-123845002D01*
X184674119Y-123898658D01*
X184684223Y-123968932D01*
X184678139Y-123993448D01*
X184627299Y-124135535D01*
X184622568Y-124146959D01*
X184467853Y-124474076D01*
X184462024Y-124484981D01*
X184275989Y-124795361D01*
X184269119Y-124805642D01*
X184053562Y-125096287D01*
X184045718Y-125105845D01*
X183802709Y-125373965D01*
X183793965Y-125382709D01*
X183525845Y-125625718D01*
X183516287Y-125633562D01*
X183225642Y-125849119D01*
X183215361Y-125855989D01*
X182904981Y-126042024D01*
X182894076Y-126047853D01*
X182566959Y-126202568D01*
X182555535Y-126207300D01*
X182214827Y-126329207D01*
X182202995Y-126332796D01*
X181954166Y-126395125D01*
X181851975Y-126420723D01*
X181839853Y-126423133D01*
X181481906Y-126476230D01*
X181469610Y-126477441D01*
X181342837Y-126483668D01*
X181137310Y-126493765D01*
X181126582Y-126492974D01*
X181126582Y-126493013D01*
X181114171Y-126493013D01*
X181102000Y-126490592D01*
X181089829Y-126493013D01*
X181089828Y-126493013D01*
X181089496Y-126493079D01*
X181064915Y-126495500D01*
X128561085Y-126495500D01*
X128536504Y-126493079D01*
X128536172Y-126493013D01*
X128536171Y-126493013D01*
X128524000Y-126490592D01*
X128511829Y-126493013D01*
X128499418Y-126493013D01*
X128499418Y-126492974D01*
X128488690Y-126493765D01*
X128283163Y-126483668D01*
X128156390Y-126477441D01*
X128144094Y-126476230D01*
X127786147Y-126423133D01*
X127774025Y-126420723D01*
X127671834Y-126395125D01*
X127423005Y-126332796D01*
X127411173Y-126329207D01*
X127070465Y-126207300D01*
X127059041Y-126202568D01*
X126731924Y-126047853D01*
X126721019Y-126042024D01*
X126410639Y-125855989D01*
X126400358Y-125849119D01*
X126109713Y-125633562D01*
X126100155Y-125625718D01*
X125832035Y-125382709D01*
X125823291Y-125373965D01*
X125580282Y-125105845D01*
X125572438Y-125096287D01*
X125356881Y-124805642D01*
X125350011Y-124795361D01*
X125176200Y-124505376D01*
X148351500Y-124505376D01*
X148358149Y-124566579D01*
X148408474Y-124700823D01*
X148413854Y-124708002D01*
X148413856Y-124708005D01*
X148445621Y-124750388D01*
X148494454Y-124815546D01*
X148501634Y-124820927D01*
X148601995Y-124896144D01*
X148601998Y-124896146D01*
X148609177Y-124901526D01*
X148690641Y-124932065D01*
X148736026Y-124949079D01*
X148736028Y-124949079D01*
X148743421Y-124951851D01*
X148751271Y-124952704D01*
X148751272Y-124952704D01*
X148779016Y-124955718D01*
X148804624Y-124958500D01*
X149899376Y-124958500D01*
X149924984Y-124955718D01*
X149952728Y-124952704D01*
X149952729Y-124952704D01*
X149960579Y-124951851D01*
X149967972Y-124949079D01*
X149967974Y-124949079D01*
X150013359Y-124932065D01*
X150094823Y-124901526D01*
X150102002Y-124896146D01*
X150102005Y-124896144D01*
X150202366Y-124820927D01*
X150209546Y-124815546D01*
X150258379Y-124750388D01*
X150290144Y-124708005D01*
X150290146Y-124708002D01*
X150295526Y-124700823D01*
X150345851Y-124566579D01*
X150352500Y-124505376D01*
X150352500Y-124008800D01*
X151351500Y-124008800D01*
X151351823Y-124011979D01*
X151366113Y-124152660D01*
X151366880Y-124160216D01*
X151427662Y-124354172D01*
X151526203Y-124531944D01*
X151658477Y-124686271D01*
X151819081Y-124810848D01*
X152001455Y-124900587D01*
X152007633Y-124902196D01*
X152007635Y-124902197D01*
X152191966Y-124950212D01*
X152191969Y-124950212D01*
X152198148Y-124951822D01*
X152279328Y-124956076D01*
X152394744Y-124962125D01*
X152394748Y-124962125D01*
X152401126Y-124962459D01*
X152602097Y-124932065D01*
X152792852Y-124861881D01*
X152798273Y-124858520D01*
X152960176Y-124758137D01*
X152960180Y-124758134D01*
X152965599Y-124754774D01*
X153113280Y-124615119D01*
X153229863Y-124448621D01*
X153310586Y-124262081D01*
X153337023Y-124135535D01*
X153351162Y-124067856D01*
X153351163Y-124067851D01*
X153352151Y-124063120D01*
X153352500Y-124056461D01*
X153352500Y-123387200D01*
X153342960Y-123293275D01*
X153337765Y-123242132D01*
X153337765Y-123242130D01*
X153337120Y-123235784D01*
X153276338Y-123041828D01*
X153177797Y-122864056D01*
X153045523Y-122709729D01*
X153035285Y-122701787D01*
X152934357Y-122623500D01*
X152884919Y-122585152D01*
X152702545Y-122495413D01*
X152696367Y-122493804D01*
X152696365Y-122493803D01*
X152512034Y-122445788D01*
X152512031Y-122445788D01*
X152505852Y-122444178D01*
X152424672Y-122439924D01*
X152309256Y-122433875D01*
X152309252Y-122433875D01*
X152302874Y-122433541D01*
X152101903Y-122463935D01*
X151911148Y-122534119D01*
X151905728Y-122537479D01*
X151905727Y-122537480D01*
X151743824Y-122637863D01*
X151743820Y-122637866D01*
X151738401Y-122641226D01*
X151733763Y-122645612D01*
X151674360Y-122701787D01*
X151590720Y-122780881D01*
X151474137Y-122947379D01*
X151393414Y-123133919D01*
X151392108Y-123140171D01*
X151359200Y-123297695D01*
X151351849Y-123332880D01*
X151351500Y-123339539D01*
X151351500Y-124008800D01*
X150352500Y-124008800D01*
X150352500Y-122890624D01*
X150345851Y-122829421D01*
X150295526Y-122695177D01*
X150290146Y-122687998D01*
X150290144Y-122687995D01*
X150225997Y-122602404D01*
X150209546Y-122580454D01*
X150152206Y-122537480D01*
X150102005Y-122499856D01*
X150102002Y-122499854D01*
X150094823Y-122494474D01*
X149986622Y-122453912D01*
X149967974Y-122446921D01*
X149967972Y-122446921D01*
X149960579Y-122444149D01*
X149952729Y-122443296D01*
X149952728Y-122443296D01*
X149902773Y-122437869D01*
X149902772Y-122437869D01*
X149899376Y-122437500D01*
X148804624Y-122437500D01*
X148801228Y-122437869D01*
X148801227Y-122437869D01*
X148751272Y-122443296D01*
X148751271Y-122443296D01*
X148743421Y-122444149D01*
X148736028Y-122446921D01*
X148736026Y-122446921D01*
X148717378Y-122453912D01*
X148609177Y-122494474D01*
X148601998Y-122499854D01*
X148601995Y-122499856D01*
X148551794Y-122537480D01*
X148494454Y-122580454D01*
X148478003Y-122602404D01*
X148413856Y-122687995D01*
X148413854Y-122687998D01*
X148408474Y-122695177D01*
X148358149Y-122829421D01*
X148351500Y-122890624D01*
X148351500Y-124505376D01*
X125176200Y-124505376D01*
X125163976Y-124484981D01*
X125158147Y-124474076D01*
X125003432Y-124146959D01*
X124998700Y-124135535D01*
X124876793Y-123794827D01*
X124873204Y-123782995D01*
X124785278Y-123431978D01*
X124782866Y-123419850D01*
X124764746Y-123297695D01*
X124729770Y-123061906D01*
X124728559Y-123049605D01*
X124727903Y-123036239D01*
X124712235Y-122717310D01*
X124713026Y-122706582D01*
X124712987Y-122706582D01*
X124712987Y-122694171D01*
X124715408Y-122682000D01*
X124712921Y-122669496D01*
X124710500Y-122644915D01*
X124710500Y-121831070D01*
X145466500Y-121831070D01*
X145467873Y-121837528D01*
X145492910Y-121955319D01*
X145505200Y-122013142D01*
X145580910Y-122183189D01*
X145584790Y-122188530D01*
X145584791Y-122188531D01*
X145676909Y-122315320D01*
X145690320Y-122333779D01*
X145695230Y-122338200D01*
X145695231Y-122338201D01*
X145814719Y-122445788D01*
X145828649Y-122458331D01*
X145927557Y-122515436D01*
X145970584Y-122540277D01*
X145989851Y-122551401D01*
X145996137Y-122553443D01*
X145996136Y-122553443D01*
X146160601Y-122606881D01*
X146160602Y-122606881D01*
X146166880Y-122608921D01*
X146173443Y-122609611D01*
X146173444Y-122609611D01*
X146196808Y-122612067D01*
X146305589Y-122623500D01*
X146398411Y-122623500D01*
X146507192Y-122612067D01*
X146530556Y-122609611D01*
X146530557Y-122609611D01*
X146537120Y-122608921D01*
X146543398Y-122606881D01*
X146543399Y-122606881D01*
X146707864Y-122553443D01*
X146707863Y-122553443D01*
X146714149Y-122551401D01*
X146733417Y-122540277D01*
X146776443Y-122515436D01*
X146875351Y-122458331D01*
X146889282Y-122445788D01*
X147008769Y-122338201D01*
X147008770Y-122338200D01*
X147013680Y-122333779D01*
X147027092Y-122315320D01*
X147119209Y-122188531D01*
X147119210Y-122188530D01*
X147123090Y-122183189D01*
X147198800Y-122013142D01*
X147211091Y-121955319D01*
X147236127Y-121837528D01*
X147237500Y-121831070D01*
X157466500Y-121831070D01*
X157467873Y-121837528D01*
X157492910Y-121955319D01*
X157505200Y-122013142D01*
X157580910Y-122183189D01*
X157584790Y-122188530D01*
X157584791Y-122188531D01*
X157676909Y-122315320D01*
X157690320Y-122333779D01*
X157695230Y-122338200D01*
X157695231Y-122338201D01*
X157814719Y-122445788D01*
X157828649Y-122458331D01*
X157927557Y-122515436D01*
X157970584Y-122540277D01*
X157989851Y-122551401D01*
X157996137Y-122553443D01*
X157996136Y-122553443D01*
X158160601Y-122606881D01*
X158160602Y-122606881D01*
X158166880Y-122608921D01*
X158173443Y-122609611D01*
X158173444Y-122609611D01*
X158196808Y-122612067D01*
X158305589Y-122623500D01*
X158398411Y-122623500D01*
X158507192Y-122612067D01*
X158530556Y-122609611D01*
X158530557Y-122609611D01*
X158537120Y-122608921D01*
X158543398Y-122606881D01*
X158543399Y-122606881D01*
X158707864Y-122553443D01*
X158707863Y-122553443D01*
X158714149Y-122551401D01*
X158733417Y-122540277D01*
X158776443Y-122515436D01*
X158875351Y-122458331D01*
X158889282Y-122445788D01*
X159008769Y-122338201D01*
X159008770Y-122338200D01*
X159013680Y-122333779D01*
X159027092Y-122315320D01*
X159119209Y-122188531D01*
X159119210Y-122188530D01*
X159123090Y-122183189D01*
X159198800Y-122013142D01*
X159211091Y-121955319D01*
X159236127Y-121837528D01*
X159237500Y-121831070D01*
X159237500Y-121644930D01*
X159209826Y-121514731D01*
X159200172Y-121469311D01*
X159200171Y-121469307D01*
X159198800Y-121462858D01*
X159165136Y-121387248D01*
X159125775Y-121298841D01*
X159125774Y-121298839D01*
X159123090Y-121292811D01*
X159110961Y-121276117D01*
X159017563Y-121147565D01*
X159017561Y-121147563D01*
X159013680Y-121142221D01*
X158949205Y-121084167D01*
X158880259Y-121022088D01*
X158880258Y-121022087D01*
X158875351Y-121017669D01*
X158745075Y-120942454D01*
X158719872Y-120927903D01*
X158719871Y-120927902D01*
X158714149Y-120924599D01*
X158640661Y-120900722D01*
X158543399Y-120869119D01*
X158543398Y-120869119D01*
X158537120Y-120867079D01*
X158530557Y-120866389D01*
X158530556Y-120866389D01*
X158507192Y-120863933D01*
X158398411Y-120852500D01*
X158305589Y-120852500D01*
X158196808Y-120863933D01*
X158173444Y-120866389D01*
X158173443Y-120866389D01*
X158166880Y-120867079D01*
X158160602Y-120869119D01*
X158160601Y-120869119D01*
X158063339Y-120900722D01*
X157989851Y-120924599D01*
X157984129Y-120927902D01*
X157984128Y-120927903D01*
X157958925Y-120942454D01*
X157828649Y-121017669D01*
X157823742Y-121022087D01*
X157823741Y-121022088D01*
X157754795Y-121084167D01*
X157690320Y-121142221D01*
X157686439Y-121147563D01*
X157686437Y-121147565D01*
X157593039Y-121276117D01*
X157580910Y-121292811D01*
X157578226Y-121298839D01*
X157578225Y-121298841D01*
X157538864Y-121387248D01*
X157505200Y-121462858D01*
X157503829Y-121469307D01*
X157503828Y-121469311D01*
X157494174Y-121514731D01*
X157466500Y-121644930D01*
X157466500Y-121831070D01*
X147237500Y-121831070D01*
X147237500Y-121644930D01*
X147209826Y-121514731D01*
X147200172Y-121469311D01*
X147200171Y-121469307D01*
X147198800Y-121462858D01*
X147165136Y-121387248D01*
X147125775Y-121298841D01*
X147125774Y-121298839D01*
X147123090Y-121292811D01*
X147110961Y-121276117D01*
X147017563Y-121147565D01*
X147017561Y-121147563D01*
X147013680Y-121142221D01*
X146949205Y-121084167D01*
X146880259Y-121022088D01*
X146880258Y-121022087D01*
X146875351Y-121017669D01*
X146745075Y-120942454D01*
X146719872Y-120927903D01*
X146719871Y-120927902D01*
X146714149Y-120924599D01*
X146640661Y-120900722D01*
X146543399Y-120869119D01*
X146543398Y-120869119D01*
X146537120Y-120867079D01*
X146530557Y-120866389D01*
X146530556Y-120866389D01*
X146507192Y-120863933D01*
X146398411Y-120852500D01*
X146305589Y-120852500D01*
X146196808Y-120863933D01*
X146173444Y-120866389D01*
X146173443Y-120866389D01*
X146166880Y-120867079D01*
X146160602Y-120869119D01*
X146160601Y-120869119D01*
X146063339Y-120900722D01*
X145989851Y-120924599D01*
X145984129Y-120927902D01*
X145984128Y-120927903D01*
X145958925Y-120942454D01*
X145828649Y-121017669D01*
X145823742Y-121022087D01*
X145823741Y-121022088D01*
X145754795Y-121084167D01*
X145690320Y-121142221D01*
X145686439Y-121147563D01*
X145686437Y-121147565D01*
X145593039Y-121276117D01*
X145580910Y-121292811D01*
X145578226Y-121298839D01*
X145578225Y-121298841D01*
X145538864Y-121387248D01*
X145505200Y-121462858D01*
X145503829Y-121469307D01*
X145503828Y-121469311D01*
X145494174Y-121514731D01*
X145466500Y-121644930D01*
X145466500Y-121831070D01*
X124710500Y-121831070D01*
X124710500Y-118438834D01*
X148130500Y-118438834D01*
X148133481Y-118470369D01*
X148178366Y-118598184D01*
X148183958Y-118605754D01*
X148183959Y-118605757D01*
X148246335Y-118690206D01*
X148258850Y-118707150D01*
X148266421Y-118712742D01*
X148279360Y-118722299D01*
X148322270Y-118778860D01*
X148330500Y-118823650D01*
X148330500Y-119106330D01*
X148318555Y-119159879D01*
X148286229Y-119228731D01*
X148276765Y-119289514D01*
X148265042Y-119364806D01*
X148265042Y-119364809D01*
X148263661Y-119373679D01*
X148264825Y-119382581D01*
X148264825Y-119382584D01*
X148266140Y-119392641D01*
X148282681Y-119519135D01*
X148341762Y-119653407D01*
X148436153Y-119765699D01*
X148558268Y-119846985D01*
X148698288Y-119890730D01*
X148707260Y-119890894D01*
X148707263Y-119890895D01*
X148772945Y-119892099D01*
X148844958Y-119893419D01*
X148945472Y-119866015D01*
X148977824Y-119857195D01*
X148977825Y-119857195D01*
X148986487Y-119854833D01*
X148994134Y-119850138D01*
X148994138Y-119850136D01*
X149103851Y-119782772D01*
X149111498Y-119778077D01*
X149209940Y-119669319D01*
X149273902Y-119537302D01*
X149288300Y-119451722D01*
X149297434Y-119397434D01*
X149297434Y-119397429D01*
X149298240Y-119392641D01*
X149298394Y-119380000D01*
X149285987Y-119293365D01*
X149278872Y-119243680D01*
X149278871Y-119243677D01*
X149277598Y-119234787D01*
X149242800Y-119158254D01*
X149231500Y-119106102D01*
X149231500Y-118823650D01*
X149251502Y-118755529D01*
X149282640Y-118722299D01*
X149295579Y-118712742D01*
X149303150Y-118707150D01*
X149315665Y-118690206D01*
X149378041Y-118605757D01*
X149378042Y-118605754D01*
X149383634Y-118598184D01*
X149428519Y-118470369D01*
X149431500Y-118438834D01*
X149431500Y-117781166D01*
X149428519Y-117749631D01*
X149383634Y-117621816D01*
X149378042Y-117614246D01*
X149378041Y-117614243D01*
X149308742Y-117520421D01*
X149303150Y-117512850D01*
X149258239Y-117479678D01*
X149201757Y-117437959D01*
X149201754Y-117437958D01*
X149194184Y-117432366D01*
X149066369Y-117387481D01*
X149058723Y-117386758D01*
X149058722Y-117386758D01*
X149052752Y-117386194D01*
X149034834Y-117384500D01*
X148527166Y-117384500D01*
X148509248Y-117386194D01*
X148503278Y-117386758D01*
X148503277Y-117386758D01*
X148495631Y-117387481D01*
X148367816Y-117432366D01*
X148360246Y-117437958D01*
X148360243Y-117437959D01*
X148303761Y-117479678D01*
X148258850Y-117512850D01*
X148253258Y-117520421D01*
X148183959Y-117614243D01*
X148183958Y-117614246D01*
X148178366Y-117621816D01*
X148133481Y-117749631D01*
X148130500Y-117781166D01*
X148130500Y-118438834D01*
X124710500Y-118438834D01*
X124710500Y-102368866D01*
X132263500Y-102368866D01*
X132263837Y-102372112D01*
X132263837Y-102372116D01*
X132273515Y-102465383D01*
X132274359Y-102473519D01*
X132276540Y-102480055D01*
X132276540Y-102480057D01*
X132293783Y-102531741D01*
X132329744Y-102639529D01*
X132421834Y-102788345D01*
X132545689Y-102911984D01*
X132694666Y-103003814D01*
X132701614Y-103006119D01*
X132701615Y-103006119D01*
X132854241Y-103056744D01*
X132854243Y-103056745D01*
X132860772Y-103058910D01*
X132964134Y-103069500D01*
X134063866Y-103069500D01*
X134067112Y-103069163D01*
X134067116Y-103069163D01*
X134161661Y-103059353D01*
X134161665Y-103059352D01*
X134168519Y-103058641D01*
X134175055Y-103056460D01*
X134175057Y-103056460D01*
X134327581Y-103005574D01*
X134334529Y-103003256D01*
X134483345Y-102911166D01*
X134495653Y-102898837D01*
X134601813Y-102792491D01*
X134606984Y-102787311D01*
X134698814Y-102638334D01*
X134703518Y-102624153D01*
X134751744Y-102478759D01*
X134751745Y-102478757D01*
X134753910Y-102472228D01*
X134764500Y-102368866D01*
X140063500Y-102368866D01*
X140063837Y-102372112D01*
X140063837Y-102372116D01*
X140073515Y-102465383D01*
X140074359Y-102473519D01*
X140076540Y-102480055D01*
X140076540Y-102480057D01*
X140093783Y-102531741D01*
X140129744Y-102639529D01*
X140221834Y-102788345D01*
X140345689Y-102911984D01*
X140494666Y-103003814D01*
X140501614Y-103006119D01*
X140501615Y-103006119D01*
X140654241Y-103056744D01*
X140654243Y-103056745D01*
X140660772Y-103058910D01*
X140764134Y-103069500D01*
X141863866Y-103069500D01*
X141867112Y-103069163D01*
X141867116Y-103069163D01*
X141961661Y-103059353D01*
X141961665Y-103059352D01*
X141968519Y-103058641D01*
X141975055Y-103056460D01*
X141975057Y-103056460D01*
X142127581Y-103005574D01*
X142134529Y-103003256D01*
X142283345Y-102911166D01*
X142295653Y-102898837D01*
X142401813Y-102792491D01*
X142406984Y-102787311D01*
X142498814Y-102638334D01*
X142503518Y-102624153D01*
X142551744Y-102478759D01*
X142551745Y-102478757D01*
X142553910Y-102472228D01*
X142564500Y-102368866D01*
X142564500Y-101333500D01*
X142584502Y-101265379D01*
X142638158Y-101218886D01*
X142690500Y-101207500D01*
X144599500Y-101207500D01*
X144667621Y-101227502D01*
X144714114Y-101281158D01*
X144725500Y-101333500D01*
X144725500Y-104642546D01*
X144724067Y-104661496D01*
X144720852Y-104682630D01*
X144721445Y-104689922D01*
X144721445Y-104689925D01*
X144725085Y-104734675D01*
X144725500Y-104744889D01*
X144725500Y-104752822D01*
X144725925Y-104756466D01*
X144728754Y-104780736D01*
X144729187Y-104785111D01*
X144735039Y-104857059D01*
X144737294Y-104864021D01*
X144738452Y-104869816D01*
X144739809Y-104875558D01*
X144740657Y-104882828D01*
X144765306Y-104950736D01*
X144766723Y-104954864D01*
X144785367Y-105012416D01*
X144791500Y-105051247D01*
X144791500Y-106189941D01*
X144771498Y-106258062D01*
X144754596Y-106279036D01*
X144551168Y-106482465D01*
X144528095Y-106500687D01*
X144421329Y-106566370D01*
X144416298Y-106571296D01*
X144416295Y-106571299D01*
X144388599Y-106598421D01*
X144295677Y-106689417D01*
X144275458Y-106720791D01*
X144214989Y-106814621D01*
X144198172Y-106835461D01*
X143094857Y-107938776D01*
X143032545Y-107972802D01*
X142994781Y-107975202D01*
X142880476Y-107965202D01*
X142880475Y-107965202D01*
X142875000Y-107964723D01*
X142657023Y-107983793D01*
X142516745Y-108021380D01*
X142450980Y-108039002D01*
X142450978Y-108039003D01*
X142445670Y-108040425D01*
X142440690Y-108042747D01*
X142440688Y-108042748D01*
X142252343Y-108130575D01*
X142252340Y-108130577D01*
X142247362Y-108132898D01*
X142068123Y-108258402D01*
X141913402Y-108413123D01*
X141787898Y-108592362D01*
X141785577Y-108597340D01*
X141785575Y-108597343D01*
X141708558Y-108762507D01*
X141695425Y-108790670D01*
X141638793Y-109002023D01*
X141619723Y-109220000D01*
X141638793Y-109437977D01*
X141695425Y-109649330D01*
X141697747Y-109654310D01*
X141697748Y-109654312D01*
X141784448Y-109840239D01*
X141787898Y-109847638D01*
X141913402Y-110026877D01*
X142068123Y-110181598D01*
X142072631Y-110184755D01*
X142072634Y-110184757D01*
X142242852Y-110303945D01*
X142247361Y-110307102D01*
X142252343Y-110309425D01*
X142252348Y-110309428D01*
X142440688Y-110397252D01*
X142445670Y-110399575D01*
X142450978Y-110400997D01*
X142450980Y-110400998D01*
X142516745Y-110418620D01*
X142657023Y-110456207D01*
X142875000Y-110475277D01*
X143092977Y-110456207D01*
X143233255Y-110418620D01*
X143299020Y-110400998D01*
X143299022Y-110400997D01*
X143304330Y-110399575D01*
X143309312Y-110397252D01*
X143497652Y-110309428D01*
X143497657Y-110309425D01*
X143502639Y-110307102D01*
X143507148Y-110303945D01*
X143677366Y-110184757D01*
X143677369Y-110184755D01*
X143681877Y-110181598D01*
X143836598Y-110026877D01*
X143962102Y-109847638D01*
X143965553Y-109840239D01*
X144052252Y-109654312D01*
X144052253Y-109654310D01*
X144054575Y-109649330D01*
X144111207Y-109437977D01*
X144130277Y-109220000D01*
X144129798Y-109214524D01*
X144119798Y-109100219D01*
X144133787Y-109030614D01*
X144156224Y-109000143D01*
X145264082Y-107892285D01*
X145288660Y-107873151D01*
X145377889Y-107819961D01*
X145377892Y-107819958D01*
X145383944Y-107816351D01*
X145489766Y-107715578D01*
X145506198Y-107699930D01*
X145506200Y-107699928D01*
X145511302Y-107695069D01*
X145603335Y-107556548D01*
X145619188Y-107537180D01*
X146025693Y-107130675D01*
X146040105Y-107118289D01*
X146051429Y-107109956D01*
X146051433Y-107109953D01*
X146057324Y-107105617D01*
X146091135Y-107065819D01*
X146098065Y-107058303D01*
X146103671Y-107052697D01*
X146105934Y-107049836D01*
X146105939Y-107049831D01*
X146121117Y-107030646D01*
X146123906Y-107027245D01*
X146165891Y-106977826D01*
X146165893Y-106977824D01*
X146170632Y-106972245D01*
X146173963Y-106965722D01*
X146177256Y-106960784D01*
X146180340Y-106955790D01*
X146184881Y-106950051D01*
X146187978Y-106943424D01*
X146187982Y-106943418D01*
X146215454Y-106884637D01*
X146217385Y-106880685D01*
X146229879Y-106856218D01*
X146250219Y-106816384D01*
X146251959Y-106809273D01*
X146254020Y-106803731D01*
X146255881Y-106798138D01*
X146258980Y-106791507D01*
X146273690Y-106720786D01*
X146274660Y-106716502D01*
X146280596Y-106692243D01*
X146291815Y-106646394D01*
X146292462Y-106635973D01*
X146292500Y-106635352D01*
X146292532Y-106635354D01*
X146292779Y-106631241D01*
X146293128Y-106627334D01*
X146294618Y-106620169D01*
X146292546Y-106543600D01*
X146292500Y-106540192D01*
X146292500Y-104841454D01*
X146293933Y-104822504D01*
X146296048Y-104808604D01*
X146296048Y-104808600D01*
X146297148Y-104801370D01*
X146295648Y-104782919D01*
X146292915Y-104749325D01*
X146292500Y-104739111D01*
X146292500Y-104731178D01*
X146292499Y-104731173D01*
X146292499Y-104252624D01*
X146285851Y-104191420D01*
X146235526Y-104057176D01*
X146238045Y-104056232D01*
X146226500Y-104011106D01*
X146226500Y-103379894D01*
X146238045Y-103334768D01*
X146235526Y-103333824D01*
X146283079Y-103206975D01*
X146283079Y-103206973D01*
X146285851Y-103199580D01*
X146292500Y-103138377D01*
X146292500Y-103030862D01*
X149455497Y-103030862D01*
X149456737Y-103038078D01*
X149456737Y-103038080D01*
X149473384Y-103134960D01*
X149485134Y-103203340D01*
X149553654Y-103364373D01*
X149657383Y-103505324D01*
X149662961Y-103510063D01*
X149662964Y-103510066D01*
X149785176Y-103613893D01*
X149785180Y-103613896D01*
X149790755Y-103618632D01*
X149828462Y-103637886D01*
X149939051Y-103694356D01*
X149946616Y-103698219D01*
X149953721Y-103699958D01*
X149953725Y-103699959D01*
X150006457Y-103712862D01*
X150116606Y-103739815D01*
X150122206Y-103740162D01*
X150122210Y-103740163D01*
X150125709Y-103740380D01*
X150125718Y-103740380D01*
X150127648Y-103740500D01*
X150253822Y-103740500D01*
X150345369Y-103729827D01*
X150376556Y-103726191D01*
X150376558Y-103726191D01*
X150383828Y-103725343D01*
X150390705Y-103722847D01*
X150390708Y-103722846D01*
X150541452Y-103668128D01*
X150548331Y-103665631D01*
X150694685Y-103569677D01*
X150815040Y-103442628D01*
X150902939Y-103291298D01*
X150953667Y-103123807D01*
X150964503Y-102949138D01*
X150958641Y-102915020D01*
X150936106Y-102783875D01*
X150936105Y-102783873D01*
X150934866Y-102776660D01*
X150866346Y-102615627D01*
X150850873Y-102594601D01*
X150819442Y-102551892D01*
X150762617Y-102474676D01*
X150757039Y-102469937D01*
X150757036Y-102469934D01*
X150634824Y-102366107D01*
X150634820Y-102366104D01*
X150629245Y-102361368D01*
X150545062Y-102318382D01*
X150479900Y-102285108D01*
X150479898Y-102285107D01*
X150473384Y-102281781D01*
X150466279Y-102280042D01*
X150466275Y-102280041D01*
X150372741Y-102257154D01*
X150303394Y-102240185D01*
X150297794Y-102239838D01*
X150297790Y-102239837D01*
X150294291Y-102239620D01*
X150294282Y-102239620D01*
X150292352Y-102239500D01*
X150166178Y-102239500D01*
X150074631Y-102250173D01*
X150043444Y-102253809D01*
X150043442Y-102253809D01*
X150036172Y-102254657D01*
X150029295Y-102257153D01*
X150029292Y-102257154D01*
X149878548Y-102311872D01*
X149871669Y-102314369D01*
X149725315Y-102410323D01*
X149604960Y-102537372D01*
X149517061Y-102688702D01*
X149466333Y-102856193D01*
X149455497Y-103030862D01*
X146292500Y-103030862D01*
X146292499Y-102093624D01*
X146292130Y-102090224D01*
X146286705Y-102040278D01*
X146286704Y-102040274D01*
X146285851Y-102032420D01*
X146235526Y-101898176D01*
X146238045Y-101897232D01*
X146226500Y-101852106D01*
X146226500Y-101220894D01*
X146238045Y-101175768D01*
X146235526Y-101174824D01*
X146283079Y-101047975D01*
X146283079Y-101047973D01*
X146285851Y-101040580D01*
X146292500Y-100979377D01*
X146292500Y-100484571D01*
X146292742Y-100476770D01*
X146296050Y-100423449D01*
X146296050Y-100423445D01*
X146296503Y-100416138D01*
X146294914Y-100406887D01*
X146294319Y-100403428D01*
X146292499Y-100382088D01*
X146292499Y-99934624D01*
X146292130Y-99931224D01*
X146286705Y-99881278D01*
X146286704Y-99881274D01*
X146285851Y-99873420D01*
X146235526Y-99739176D01*
X146238045Y-99738232D01*
X146226500Y-99693106D01*
X146226500Y-98317178D01*
X146211343Y-98187172D01*
X146208846Y-98180292D01*
X146207161Y-98173165D01*
X146207682Y-98173042D01*
X146201500Y-98137894D01*
X146201500Y-98107166D01*
X146198519Y-98075631D01*
X146153634Y-97947816D01*
X146148042Y-97940246D01*
X146148041Y-97940243D01*
X146078742Y-97846421D01*
X146073150Y-97838850D01*
X146047681Y-97820038D01*
X145971757Y-97763959D01*
X145971754Y-97763958D01*
X145964184Y-97758366D01*
X145895972Y-97734412D01*
X145874443Y-97724487D01*
X145777298Y-97668061D01*
X145609807Y-97617333D01*
X145544121Y-97613258D01*
X145477370Y-97589077D01*
X145468097Y-97576930D01*
X145419135Y-97608396D01*
X145404975Y-97611680D01*
X145269875Y-97634894D01*
X145269873Y-97634895D01*
X145262660Y-97636134D01*
X145101627Y-97704654D01*
X145095738Y-97708988D01*
X145095729Y-97708993D01*
X145081069Y-97719782D01*
X145048137Y-97737182D01*
X144996703Y-97755245D01*
X144987816Y-97758366D01*
X144980246Y-97763958D01*
X144980243Y-97763959D01*
X144904319Y-97820038D01*
X144878850Y-97838850D01*
X144873258Y-97846421D01*
X144803959Y-97940243D01*
X144803958Y-97940246D01*
X144798366Y-97947816D01*
X144753481Y-98075631D01*
X144750500Y-98107166D01*
X144750500Y-98153047D01*
X144746889Y-98182995D01*
X144726185Y-98267606D01*
X144725500Y-98278648D01*
X144725500Y-99580500D01*
X144705498Y-99648621D01*
X144651842Y-99695114D01*
X144599500Y-99706500D01*
X142511050Y-99706500D01*
X142442929Y-99686498D01*
X142412304Y-99658764D01*
X142410019Y-99655881D01*
X142406166Y-99649655D01*
X142282311Y-99526016D01*
X142133334Y-99434186D01*
X142072986Y-99414169D01*
X141973759Y-99381256D01*
X141973757Y-99381255D01*
X141967228Y-99379090D01*
X141863866Y-99368500D01*
X140764134Y-99368500D01*
X140760888Y-99368837D01*
X140760884Y-99368837D01*
X140666339Y-99378647D01*
X140666335Y-99378648D01*
X140659481Y-99379359D01*
X140652945Y-99381540D01*
X140652943Y-99381540D01*
X140629516Y-99389356D01*
X140493471Y-99434744D01*
X140344655Y-99526834D01*
X140221016Y-99650689D01*
X140217176Y-99656919D01*
X140217175Y-99656920D01*
X140211594Y-99665974D01*
X140129186Y-99799666D01*
X140126881Y-99806614D01*
X140126881Y-99806615D01*
X140078004Y-99953973D01*
X140074090Y-99965772D01*
X140063500Y-100069134D01*
X140063500Y-102368866D01*
X134764500Y-102368866D01*
X134764500Y-101082057D01*
X134784502Y-101013936D01*
X134801405Y-100992962D01*
X137122689Y-98671678D01*
X137137102Y-98659291D01*
X137148425Y-98650959D01*
X137148429Y-98650955D01*
X137154324Y-98646617D01*
X137188151Y-98606800D01*
X137195071Y-98599296D01*
X137200670Y-98593697D01*
X137218114Y-98571649D01*
X137220883Y-98568273D01*
X137262892Y-98518825D01*
X137262894Y-98518822D01*
X137267632Y-98513245D01*
X137270960Y-98506726D01*
X137274235Y-98501816D01*
X137277336Y-98496796D01*
X137281881Y-98491051D01*
X137312447Y-98425651D01*
X137314375Y-98421705D01*
X137343890Y-98363903D01*
X137347219Y-98357384D01*
X137348958Y-98350275D01*
X137351017Y-98344740D01*
X137352883Y-98339132D01*
X137355979Y-98332507D01*
X137370684Y-98261812D01*
X137371654Y-98257527D01*
X137381684Y-98216535D01*
X137388815Y-98187394D01*
X137389500Y-98176352D01*
X137389531Y-98176354D01*
X137389780Y-98172230D01*
X137390128Y-98168328D01*
X137391617Y-98161170D01*
X137389546Y-98084622D01*
X137389500Y-98081214D01*
X137389500Y-96666595D01*
X137409502Y-96598474D01*
X137463158Y-96551981D01*
X137533432Y-96541877D01*
X137598012Y-96571371D01*
X137616326Y-96591030D01*
X137618296Y-96593658D01*
X137624313Y-96601687D01*
X137733305Y-96683372D01*
X137860843Y-96731184D01*
X137868696Y-96732037D01*
X137868700Y-96732038D01*
X137915586Y-96737131D01*
X137915590Y-96737131D01*
X137918985Y-96737500D01*
X138188960Y-96737500D01*
X138459014Y-96737499D01*
X138517157Y-96731184D01*
X138644695Y-96683372D01*
X138753687Y-96601687D01*
X138835372Y-96492695D01*
X138883184Y-96365157D01*
X138889500Y-96307015D01*
X138889499Y-95930084D01*
X138909501Y-95861964D01*
X138926404Y-95840989D01*
X139370484Y-95396909D01*
X139370487Y-95396905D01*
X139393050Y-95374342D01*
X139403035Y-95354745D01*
X139413361Y-95337893D01*
X139426296Y-95320090D01*
X139433095Y-95299166D01*
X139440659Y-95280906D01*
X139446144Y-95270141D01*
X139446145Y-95270137D01*
X139450646Y-95261304D01*
X139452501Y-95249595D01*
X139454087Y-95239578D01*
X139458703Y-95220353D01*
X139462435Y-95208868D01*
X139462436Y-95208864D01*
X139465500Y-95199433D01*
X139465500Y-95044552D01*
X139485502Y-94976431D01*
X139539158Y-94929938D01*
X139609432Y-94919834D01*
X139674012Y-94949328D01*
X139692326Y-94968987D01*
X139697905Y-94976431D01*
X139745313Y-95039687D01*
X139854305Y-95121372D01*
X139981843Y-95169184D01*
X139989696Y-95170037D01*
X139989700Y-95170038D01*
X140036586Y-95175131D01*
X140036590Y-95175131D01*
X140039985Y-95175500D01*
X140334956Y-95175500D01*
X140630014Y-95175499D01*
X140688157Y-95169184D01*
X140815695Y-95121372D01*
X140924687Y-95039687D01*
X141006372Y-94930695D01*
X141054184Y-94803157D01*
X141060500Y-94745015D01*
X141060499Y-94204986D01*
X141054184Y-94146843D01*
X141006372Y-94019305D01*
X140924687Y-93910313D01*
X140815695Y-93828628D01*
X140688157Y-93780816D01*
X140680304Y-93779963D01*
X140680300Y-93779962D01*
X140633414Y-93774869D01*
X140633410Y-93774869D01*
X140630015Y-93774500D01*
X140603639Y-93774500D01*
X140253084Y-93774501D01*
X140184964Y-93754499D01*
X140163989Y-93737596D01*
X139763988Y-93337595D01*
X139729962Y-93275283D01*
X139735027Y-93204468D01*
X139777574Y-93147632D01*
X139844094Y-93122821D01*
X139853083Y-93122500D01*
X141268917Y-93122500D01*
X141337038Y-93142502D01*
X141358012Y-93159405D01*
X144713595Y-96514988D01*
X144747621Y-96577300D01*
X144750500Y-96604083D01*
X144750500Y-96964834D01*
X144753481Y-96996369D01*
X144798366Y-97124184D01*
X144803958Y-97131754D01*
X144803959Y-97131757D01*
X144831227Y-97168674D01*
X144878850Y-97233150D01*
X144886421Y-97238742D01*
X144980243Y-97308041D01*
X144980246Y-97308042D01*
X144987816Y-97313634D01*
X145115631Y-97358519D01*
X145123277Y-97359242D01*
X145123278Y-97359242D01*
X145129248Y-97359806D01*
X145147166Y-97361500D01*
X145383637Y-97361500D01*
X145451758Y-97381502D01*
X145465459Y-97397313D01*
X145523979Y-97364638D01*
X145551923Y-97361500D01*
X145804834Y-97361500D01*
X145822752Y-97359806D01*
X145828722Y-97359242D01*
X145828723Y-97359242D01*
X145836369Y-97358519D01*
X145964184Y-97313634D01*
X145971754Y-97308043D01*
X145971761Y-97308039D01*
X146069091Y-97236149D01*
X146135769Y-97211766D01*
X146143950Y-97211500D01*
X146713050Y-97211500D01*
X146781171Y-97231502D01*
X146787909Y-97236149D01*
X146885239Y-97308039D01*
X146885246Y-97308043D01*
X146892816Y-97313634D01*
X147020631Y-97358519D01*
X147028277Y-97359242D01*
X147028278Y-97359242D01*
X147034248Y-97359806D01*
X147052166Y-97361500D01*
X147709834Y-97361500D01*
X147727752Y-97359806D01*
X147733722Y-97359242D01*
X147733723Y-97359242D01*
X147741369Y-97358519D01*
X147869184Y-97313634D01*
X147876754Y-97308042D01*
X147876757Y-97308041D01*
X147970579Y-97238742D01*
X147978150Y-97233150D01*
X148025773Y-97168674D01*
X148053041Y-97131757D01*
X148053042Y-97131754D01*
X148058634Y-97124184D01*
X148103519Y-96996369D01*
X148106500Y-96964834D01*
X148106500Y-96457166D01*
X148103519Y-96425631D01*
X148058634Y-96297816D01*
X148053042Y-96290246D01*
X148053041Y-96290243D01*
X147983742Y-96196421D01*
X147978150Y-96188850D01*
X147961206Y-96176335D01*
X147876757Y-96113959D01*
X147876754Y-96113958D01*
X147869184Y-96108366D01*
X147741369Y-96063481D01*
X147733723Y-96062758D01*
X147733722Y-96062758D01*
X147727752Y-96062194D01*
X147709834Y-96060500D01*
X147052166Y-96060500D01*
X147034248Y-96062194D01*
X147028278Y-96062758D01*
X147028277Y-96062758D01*
X147020631Y-96063481D01*
X146892816Y-96108366D01*
X146885246Y-96113957D01*
X146885239Y-96113961D01*
X146787909Y-96185851D01*
X146721231Y-96210234D01*
X146713050Y-96210500D01*
X146143950Y-96210500D01*
X146075829Y-96190498D01*
X146069091Y-96185851D01*
X145971761Y-96113961D01*
X145971754Y-96113957D01*
X145964184Y-96108366D01*
X145836369Y-96063481D01*
X145828723Y-96062758D01*
X145828722Y-96062758D01*
X145822752Y-96062194D01*
X145804834Y-96060500D01*
X145444083Y-96060500D01*
X145375962Y-96040498D01*
X145354988Y-96023595D01*
X143873607Y-94542214D01*
X143839581Y-94479902D01*
X143844646Y-94409087D01*
X143887193Y-94352251D01*
X143953713Y-94327440D01*
X144023087Y-94342531D01*
X144034973Y-94349906D01*
X144097232Y-94393500D01*
X144152361Y-94432102D01*
X144157343Y-94434425D01*
X144157348Y-94434428D01*
X144322521Y-94511449D01*
X144350670Y-94524575D01*
X144355978Y-94525997D01*
X144355980Y-94525998D01*
X144416499Y-94542214D01*
X144562023Y-94581207D01*
X144780000Y-94600277D01*
X144785475Y-94599798D01*
X144785476Y-94599798D01*
X144899781Y-94589798D01*
X144969386Y-94603787D01*
X144999857Y-94626224D01*
X145402322Y-95028689D01*
X145414709Y-95043102D01*
X145423041Y-95054425D01*
X145423045Y-95054429D01*
X145427383Y-95060324D01*
X145467200Y-95094151D01*
X145474704Y-95101071D01*
X145480303Y-95106670D01*
X145502351Y-95124114D01*
X145505727Y-95126883D01*
X145555175Y-95168892D01*
X145555178Y-95168894D01*
X145560755Y-95173632D01*
X145567274Y-95176960D01*
X145572184Y-95180235D01*
X145577204Y-95183336D01*
X145582949Y-95187881D01*
X145589587Y-95190983D01*
X145589588Y-95190984D01*
X145648343Y-95218444D01*
X145652289Y-95220372D01*
X145716616Y-95253219D01*
X145723725Y-95254958D01*
X145729260Y-95257017D01*
X145734868Y-95258883D01*
X145741493Y-95261979D01*
X145748653Y-95263468D01*
X145748655Y-95263469D01*
X145812184Y-95276683D01*
X145816468Y-95277653D01*
X145886606Y-95294815D01*
X145892206Y-95295162D01*
X145892210Y-95295163D01*
X145897648Y-95295500D01*
X145897646Y-95295531D01*
X145901770Y-95295780D01*
X145905672Y-95296128D01*
X145912830Y-95297617D01*
X145989378Y-95295546D01*
X145992786Y-95295500D01*
X152801340Y-95295500D01*
X152869461Y-95315502D01*
X152915954Y-95369158D01*
X152924919Y-95396917D01*
X152934034Y-95442740D01*
X152989399Y-95525601D01*
X153072260Y-95580966D01*
X153145326Y-95595500D01*
X154194674Y-95595500D01*
X154267740Y-95580966D01*
X154350601Y-95525601D01*
X154405966Y-95442740D01*
X154420500Y-95369674D01*
X154420500Y-94572565D01*
X154420742Y-94564763D01*
X154424049Y-94511449D01*
X154424503Y-94504138D01*
X154422320Y-94491432D01*
X154420500Y-94470096D01*
X154420500Y-93720326D01*
X154405966Y-93647260D01*
X154350601Y-93564399D01*
X154267740Y-93509034D01*
X154194674Y-93494500D01*
X153145326Y-93494500D01*
X153072260Y-93509034D01*
X152989399Y-93564399D01*
X152934034Y-93647260D01*
X152931613Y-93659429D01*
X152931613Y-93659430D01*
X152924919Y-93693083D01*
X152892011Y-93755992D01*
X152830315Y-93791123D01*
X152801340Y-93794500D01*
X146343057Y-93794500D01*
X146274936Y-93774498D01*
X146253962Y-93757595D01*
X146061224Y-93564857D01*
X146027198Y-93502545D01*
X146024798Y-93464781D01*
X146034798Y-93350476D01*
X146034798Y-93350475D01*
X146035277Y-93345000D01*
X146016207Y-93127023D01*
X145974045Y-92969674D01*
X150419500Y-92969674D01*
X150434034Y-93042740D01*
X150489399Y-93125601D01*
X150572260Y-93180966D01*
X150645326Y-93195500D01*
X151694674Y-93195500D01*
X151767740Y-93180966D01*
X151850601Y-93125601D01*
X151905966Y-93042740D01*
X151920500Y-92969674D01*
X151920500Y-91320326D01*
X151905966Y-91247260D01*
X151850601Y-91164399D01*
X151767740Y-91109034D01*
X151694674Y-91094500D01*
X150645326Y-91094500D01*
X150572260Y-91109034D01*
X150489399Y-91164399D01*
X150434034Y-91247260D01*
X150419500Y-91320326D01*
X150419500Y-92969674D01*
X145974045Y-92969674D01*
X145959575Y-92915670D01*
X145939677Y-92872999D01*
X145869425Y-92722343D01*
X145869423Y-92722340D01*
X145867102Y-92717362D01*
X145741598Y-92538123D01*
X145586877Y-92383402D01*
X145582369Y-92380245D01*
X145582366Y-92380243D01*
X145412148Y-92261055D01*
X145412146Y-92261054D01*
X145407639Y-92257898D01*
X145402657Y-92255575D01*
X145402652Y-92255572D01*
X145214312Y-92167748D01*
X145214311Y-92167747D01*
X145209330Y-92165425D01*
X145204022Y-92164003D01*
X145204020Y-92164002D01*
X145138255Y-92146380D01*
X144997977Y-92108793D01*
X144780000Y-92089723D01*
X144774525Y-92090202D01*
X144774524Y-92090202D01*
X144660219Y-92100202D01*
X144590614Y-92086213D01*
X144560143Y-92063776D01*
X143452678Y-90956311D01*
X143440291Y-90941898D01*
X143431959Y-90930575D01*
X143431955Y-90930571D01*
X143427617Y-90924676D01*
X143387800Y-90890849D01*
X143380296Y-90883929D01*
X143374697Y-90878330D01*
X143352649Y-90860886D01*
X143349273Y-90858117D01*
X143299825Y-90816108D01*
X143299822Y-90816106D01*
X143294245Y-90811368D01*
X143287726Y-90808040D01*
X143282816Y-90804765D01*
X143277796Y-90801664D01*
X143272051Y-90797119D01*
X143206651Y-90766553D01*
X143202705Y-90764625D01*
X143193350Y-90759848D01*
X143138384Y-90731781D01*
X143131275Y-90730042D01*
X143125740Y-90727983D01*
X143120132Y-90726117D01*
X143113507Y-90723021D01*
X143106347Y-90721532D01*
X143106345Y-90721531D01*
X143042807Y-90708315D01*
X143038518Y-90707344D01*
X143004577Y-90699039D01*
X142968394Y-90690185D01*
X142962794Y-90689838D01*
X142962790Y-90689837D01*
X142957352Y-90689500D01*
X142957354Y-90689468D01*
X142953224Y-90689221D01*
X142949344Y-90688875D01*
X142942169Y-90687382D01*
X142934848Y-90687580D01*
X142934847Y-90687580D01*
X142865600Y-90689454D01*
X142862192Y-90689500D01*
X134620454Y-90689500D01*
X134601504Y-90688067D01*
X134587604Y-90685952D01*
X134587600Y-90685952D01*
X134580370Y-90684852D01*
X134573078Y-90685445D01*
X134573075Y-90685445D01*
X134528325Y-90689085D01*
X134518111Y-90689500D01*
X134510178Y-90689500D01*
X134504303Y-90690185D01*
X134482264Y-90692754D01*
X134477889Y-90693187D01*
X134447726Y-90695640D01*
X134405941Y-90699039D01*
X134398979Y-90701294D01*
X134393184Y-90702452D01*
X134387442Y-90703809D01*
X134380172Y-90704657D01*
X134312264Y-90729306D01*
X134308136Y-90730723D01*
X134246417Y-90750717D01*
X134246415Y-90750718D01*
X134239454Y-90752973D01*
X134233200Y-90756768D01*
X134227821Y-90759231D01*
X134222545Y-90761873D01*
X134215669Y-90764369D01*
X134170450Y-90794016D01*
X134155301Y-90803948D01*
X134151592Y-90806289D01*
X134135411Y-90816108D01*
X134117099Y-90827220D01*
X134051733Y-90845501D01*
X133875624Y-90845501D01*
X133872230Y-90845870D01*
X133872224Y-90845870D01*
X133822278Y-90851295D01*
X133822274Y-90851296D01*
X133814420Y-90852149D01*
X133680176Y-90902474D01*
X133672997Y-90907854D01*
X133672994Y-90907856D01*
X133642681Y-90930575D01*
X133565454Y-90988454D01*
X133560072Y-90995635D01*
X133484856Y-91095994D01*
X133484854Y-91095997D01*
X133479474Y-91103176D01*
X133429149Y-91237420D01*
X133422500Y-91298623D01*
X133422500Y-91734029D01*
X133422001Y-91745233D01*
X133421874Y-91746661D01*
X133420382Y-91753831D01*
X133420580Y-91761150D01*
X133422454Y-91830400D01*
X133422500Y-91833808D01*
X133422500Y-95089965D01*
X133402498Y-95158086D01*
X133397326Y-95165530D01*
X133378250Y-95190984D01*
X133351628Y-95226505D01*
X133303816Y-95354043D01*
X133302963Y-95361896D01*
X133302962Y-95361900D01*
X133297869Y-95408787D01*
X133297500Y-95412185D01*
X133297500Y-95412287D01*
X133286062Y-95457906D01*
X133281021Y-95468693D01*
X133245382Y-95640031D01*
X133250116Y-95814972D01*
X133276148Y-95913152D01*
X133293830Y-95979841D01*
X133297367Y-96002229D01*
X133297501Y-96002214D01*
X133297869Y-96005600D01*
X133297869Y-96005604D01*
X133300420Y-96029092D01*
X133303816Y-96060357D01*
X133351628Y-96187895D01*
X133433313Y-96296887D01*
X133542305Y-96378572D01*
X133669843Y-96426384D01*
X133677696Y-96427237D01*
X133677700Y-96427238D01*
X133724586Y-96432331D01*
X133724590Y-96432331D01*
X133727985Y-96432700D01*
X133772738Y-96432700D01*
X133798593Y-96436173D01*
X133798615Y-96436028D01*
X133964396Y-96461248D01*
X133964400Y-96461248D01*
X133971630Y-96462348D01*
X133978922Y-96461755D01*
X133978925Y-96461755D01*
X134138757Y-96448755D01*
X134138758Y-96448755D01*
X134146059Y-96448161D01*
X134174858Y-96438832D01*
X134213687Y-96432699D01*
X134268014Y-96432699D01*
X134326157Y-96426384D01*
X134453695Y-96378572D01*
X134562687Y-96296887D01*
X134579143Y-96274930D01*
X134638990Y-96195077D01*
X134638992Y-96195074D01*
X134644372Y-96187895D01*
X134671101Y-96116595D01*
X134693058Y-96079245D01*
X134722141Y-96045012D01*
X134729071Y-96037496D01*
X134734670Y-96031897D01*
X134752114Y-96009849D01*
X134754883Y-96006473D01*
X134796892Y-95957025D01*
X134796894Y-95957022D01*
X134801632Y-95951445D01*
X134804960Y-95944926D01*
X134808235Y-95940016D01*
X134811336Y-95934996D01*
X134815881Y-95929251D01*
X134846447Y-95863851D01*
X134848375Y-95859905D01*
X134858034Y-95840989D01*
X134881219Y-95795584D01*
X134882958Y-95788475D01*
X134885017Y-95782940D01*
X134886883Y-95777332D01*
X134889979Y-95770707D01*
X134893095Y-95755730D01*
X134904683Y-95700016D01*
X134905654Y-95695727D01*
X134921480Y-95631049D01*
X134922815Y-95625594D01*
X134923500Y-95614552D01*
X134923531Y-95614554D01*
X134923780Y-95610430D01*
X134924128Y-95606528D01*
X134925617Y-95599370D01*
X134923546Y-95522822D01*
X134923500Y-95519414D01*
X134923500Y-94248500D01*
X134943502Y-94180379D01*
X134997158Y-94133886D01*
X135049500Y-94122500D01*
X137033674Y-94122500D01*
X137106740Y-94107966D01*
X137189601Y-94052601D01*
X137244966Y-93969740D01*
X137259500Y-93896674D01*
X137259500Y-93547326D01*
X137249406Y-93496581D01*
X137249406Y-93447418D01*
X137258293Y-93402741D01*
X137259500Y-93396674D01*
X137259500Y-93047326D01*
X137249406Y-92996581D01*
X137249406Y-92947418D01*
X137258293Y-92902741D01*
X137259500Y-92896674D01*
X137259500Y-92547326D01*
X137244966Y-92474260D01*
X137189601Y-92391399D01*
X137191815Y-92389920D01*
X137166348Y-92343283D01*
X137171413Y-92272468D01*
X137213960Y-92215632D01*
X137280480Y-92190821D01*
X137289469Y-92190500D01*
X137538531Y-92190500D01*
X137606652Y-92210502D01*
X137653145Y-92264158D01*
X137663249Y-92334432D01*
X137637505Y-92390802D01*
X137638399Y-92391399D01*
X137636695Y-92393950D01*
X137583034Y-92474260D01*
X137568500Y-92547326D01*
X137568500Y-92896674D01*
X137569707Y-92902741D01*
X137578594Y-92947418D01*
X137578594Y-92996581D01*
X137568500Y-93047326D01*
X137568500Y-93396674D01*
X137569707Y-93402741D01*
X137578594Y-93447418D01*
X137578594Y-93496581D01*
X137568500Y-93547326D01*
X137568500Y-93896674D01*
X137569707Y-93902741D01*
X137578594Y-93947418D01*
X137578594Y-93996581D01*
X137568500Y-94047326D01*
X137568500Y-94188917D01*
X137548498Y-94257038D01*
X137531595Y-94278012D01*
X136570866Y-95238741D01*
X136503109Y-95273826D01*
X136483893Y-95277128D01*
X136439937Y-95284681D01*
X136418599Y-95286501D01*
X136368986Y-95286501D01*
X136310843Y-95292816D01*
X136183305Y-95340628D01*
X136074313Y-95422313D01*
X135992628Y-95531305D01*
X135944816Y-95658843D01*
X135938500Y-95716985D01*
X135938055Y-95716937D01*
X135931939Y-95746348D01*
X135930781Y-95748616D01*
X135889185Y-95918606D01*
X135888500Y-95929648D01*
X135888500Y-97730943D01*
X135868498Y-97799064D01*
X135851595Y-97820038D01*
X134316303Y-99355330D01*
X134253991Y-99389356D01*
X134187539Y-99385827D01*
X134167228Y-99379090D01*
X134063866Y-99368500D01*
X132964134Y-99368500D01*
X132960888Y-99368837D01*
X132960884Y-99368837D01*
X132866339Y-99378647D01*
X132866335Y-99378648D01*
X132859481Y-99379359D01*
X132852945Y-99381540D01*
X132852943Y-99381540D01*
X132829516Y-99389356D01*
X132693471Y-99434744D01*
X132544655Y-99526834D01*
X132421016Y-99650689D01*
X132417176Y-99656919D01*
X132417175Y-99656920D01*
X132411594Y-99665974D01*
X132329186Y-99799666D01*
X132326881Y-99806614D01*
X132326881Y-99806615D01*
X132278004Y-99953973D01*
X132274090Y-99965772D01*
X132263500Y-100069134D01*
X132263500Y-102368866D01*
X124710500Y-102368866D01*
X124710500Y-94017085D01*
X124712921Y-93992504D01*
X124712987Y-93992172D01*
X124712987Y-93992171D01*
X124715408Y-93980000D01*
X124712987Y-93967829D01*
X124712987Y-93955418D01*
X124713026Y-93955418D01*
X124712235Y-93944690D01*
X124722332Y-93739163D01*
X124728559Y-93612390D01*
X124729771Y-93600089D01*
X124736088Y-93557507D01*
X124782867Y-93242147D01*
X124785278Y-93230022D01*
X124793926Y-93195500D01*
X124814018Y-93115286D01*
X124873204Y-92879005D01*
X124876793Y-92867173D01*
X124998700Y-92526465D01*
X125003432Y-92515041D01*
X125158147Y-92187924D01*
X125163976Y-92177019D01*
X125350011Y-91866639D01*
X125356881Y-91856358D01*
X125572438Y-91565713D01*
X125580282Y-91556155D01*
X125823291Y-91288035D01*
X125832035Y-91279291D01*
X126100155Y-91036282D01*
X126109713Y-91028438D01*
X126400358Y-90812881D01*
X126410639Y-90806011D01*
X126721019Y-90619976D01*
X126731924Y-90614147D01*
X127059041Y-90459432D01*
X127070465Y-90454700D01*
X127411173Y-90332793D01*
X127423005Y-90329204D01*
X127671834Y-90266875D01*
X127774025Y-90241277D01*
X127786147Y-90238867D01*
X128144094Y-90185770D01*
X128156390Y-90184559D01*
X128283163Y-90178332D01*
X128488690Y-90168235D01*
X128499418Y-90169026D01*
X128499418Y-90168987D01*
X128511829Y-90168987D01*
X128524000Y-90171408D01*
X128536171Y-90168987D01*
X128536172Y-90168987D01*
X128536504Y-90168921D01*
X128561085Y-90166500D01*
X154814000Y-90166500D01*
X154882121Y-90186502D01*
G37*
%TD.AperFunction*%
%TA.AperFunction,Conductor*%
G36*
X156540532Y-108003516D02*
G01*
X156547115Y-108009645D01*
X159332820Y-110795350D01*
X159342674Y-110806439D01*
X159352567Y-110818987D01*
X159363701Y-110833110D01*
X159371448Y-110838465D01*
X159371450Y-110838466D01*
X159411948Y-110866455D01*
X159415143Y-110868737D01*
X159432510Y-110881565D01*
X159433959Y-110882635D01*
X159476868Y-110939198D01*
X159483777Y-111002174D01*
X159481500Y-111017782D01*
X159481500Y-111284218D01*
X159482170Y-111288768D01*
X159482170Y-111288771D01*
X159490216Y-111343426D01*
X159491642Y-111353112D01*
X159524696Y-111420435D01*
X159536764Y-111490399D01*
X159524794Y-111531295D01*
X159491464Y-111599482D01*
X159490052Y-111609162D01*
X159482284Y-111662410D01*
X159481500Y-111667782D01*
X159481500Y-111934218D01*
X159482170Y-111938768D01*
X159482170Y-111938771D01*
X159488313Y-111980498D01*
X159491642Y-112003112D01*
X159514271Y-112049202D01*
X159524696Y-112070435D01*
X159536764Y-112140399D01*
X159524794Y-112181295D01*
X159491464Y-112249482D01*
X159490052Y-112259162D01*
X159482166Y-112313219D01*
X159481500Y-112317782D01*
X159481500Y-112584218D01*
X159491642Y-112653112D01*
X159514271Y-112699202D01*
X159538102Y-112747740D01*
X159543068Y-112757855D01*
X159550438Y-112765212D01*
X159609910Y-112824580D01*
X159625650Y-112840293D01*
X159635006Y-112844866D01*
X159635007Y-112844867D01*
X159666343Y-112860184D01*
X159730482Y-112891536D01*
X159760973Y-112895984D01*
X159794256Y-112900840D01*
X159794260Y-112900840D01*
X159798782Y-112901500D01*
X161488207Y-112901500D01*
X161556328Y-112921502D01*
X161577302Y-112938405D01*
X161790676Y-113151779D01*
X161816910Y-113190128D01*
X161866754Y-113303407D01*
X161872531Y-113310280D01*
X161872532Y-113310281D01*
X161884631Y-113324674D01*
X161961145Y-113415699D01*
X162083260Y-113496985D01*
X162223280Y-113540730D01*
X162232252Y-113540894D01*
X162232255Y-113540895D01*
X162297937Y-113542099D01*
X162369950Y-113543419D01*
X162480764Y-113513207D01*
X162502816Y-113507195D01*
X162502817Y-113507195D01*
X162511479Y-113504833D01*
X162520775Y-113499125D01*
X162522760Y-113498564D01*
X162527367Y-113496571D01*
X162527634Y-113497188D01*
X162586705Y-113480500D01*
X163580780Y-113480500D01*
X163595589Y-113481373D01*
X163629310Y-113485364D01*
X163638574Y-113483672D01*
X163638575Y-113483672D01*
X163687001Y-113474828D01*
X163690904Y-113474178D01*
X163739645Y-113466850D01*
X163739646Y-113466850D01*
X163748962Y-113465449D01*
X163755475Y-113462321D01*
X163762573Y-113461025D01*
X163814647Y-113433975D01*
X163818137Y-113432232D01*
X163831366Y-113425879D01*
X163847960Y-113417911D01*
X163918026Y-113406455D01*
X163983163Y-113434699D01*
X164022690Y-113493675D01*
X164028500Y-113531495D01*
X164028500Y-113552684D01*
X164008498Y-113620805D01*
X164003326Y-113628249D01*
X163942428Y-113709505D01*
X163894616Y-113837043D01*
X163893763Y-113844896D01*
X163893762Y-113844900D01*
X163888997Y-113888771D01*
X163888300Y-113895185D01*
X163888301Y-114485214D01*
X163894616Y-114543357D01*
X163942428Y-114670895D01*
X163983757Y-114726040D01*
X164003326Y-114752151D01*
X164028174Y-114818657D01*
X164028500Y-114827716D01*
X164028500Y-115146408D01*
X164008498Y-115214529D01*
X164003327Y-115221972D01*
X163932628Y-115316305D01*
X163884816Y-115443843D01*
X163883963Y-115451696D01*
X163883963Y-115451698D01*
X163878500Y-115501985D01*
X163878501Y-116092014D01*
X163884816Y-116150157D01*
X163887589Y-116157554D01*
X163892772Y-116171379D01*
X163932628Y-116277695D01*
X163938014Y-116284881D01*
X164003326Y-116372027D01*
X164028174Y-116438533D01*
X164028500Y-116447592D01*
X164028500Y-116780050D01*
X164008498Y-116848171D01*
X164003851Y-116854909D01*
X163931961Y-116952239D01*
X163931957Y-116952246D01*
X163926366Y-116959816D01*
X163881481Y-117087631D01*
X163878500Y-117119166D01*
X163878500Y-117776834D01*
X163881481Y-117808369D01*
X163926366Y-117936184D01*
X163931957Y-117943754D01*
X163931961Y-117943761D01*
X164003851Y-118041091D01*
X164028234Y-118107769D01*
X164028500Y-118115950D01*
X164028500Y-118431050D01*
X164008498Y-118499171D01*
X164003851Y-118505909D01*
X163931961Y-118603239D01*
X163931957Y-118603246D01*
X163926366Y-118610816D01*
X163881481Y-118738631D01*
X163878500Y-118770166D01*
X163878500Y-119293632D01*
X163858498Y-119361753D01*
X163804842Y-119408246D01*
X163734568Y-119418350D01*
X163669988Y-119388856D01*
X163663405Y-119382727D01*
X163047405Y-118766727D01*
X163013379Y-118704415D01*
X163010500Y-118677632D01*
X163010500Y-117825719D01*
X163011373Y-117810910D01*
X163014257Y-117786542D01*
X163015364Y-117777189D01*
X163013672Y-117767923D01*
X163004826Y-117719488D01*
X163004176Y-117715584D01*
X162996849Y-117666848D01*
X162996848Y-117666846D01*
X162995449Y-117657538D01*
X162992322Y-117651025D01*
X162991025Y-117643926D01*
X162984087Y-117630569D01*
X162963982Y-117591863D01*
X162962214Y-117588325D01*
X162940887Y-117543913D01*
X162940887Y-117543912D01*
X162936809Y-117535421D01*
X162931924Y-117530136D01*
X162931892Y-117530089D01*
X162928579Y-117523711D01*
X162924275Y-117518672D01*
X162887048Y-117481445D01*
X162883618Y-117477879D01*
X162851246Y-117442859D01*
X162844854Y-117435944D01*
X162838495Y-117432251D01*
X162832337Y-117426734D01*
X161465373Y-116059770D01*
X161431347Y-115997458D01*
X161436412Y-115926643D01*
X161441266Y-115915345D01*
X161443241Y-115911305D01*
X161443241Y-115911304D01*
X161447536Y-115902518D01*
X161457500Y-115834218D01*
X161457500Y-115627500D01*
X161477502Y-115559379D01*
X161531158Y-115512886D01*
X161583500Y-115501500D01*
X161749869Y-115501500D01*
X161813413Y-115520716D01*
X161813685Y-115520146D01*
X161817420Y-115521928D01*
X161819688Y-115522613D01*
X161829260Y-115528985D01*
X161969280Y-115572730D01*
X161978252Y-115572894D01*
X161978255Y-115572895D01*
X162043937Y-115574099D01*
X162115950Y-115575419D01*
X162233917Y-115543257D01*
X162248816Y-115539195D01*
X162248817Y-115539195D01*
X162257479Y-115536833D01*
X162265126Y-115532138D01*
X162265130Y-115532136D01*
X162374843Y-115464772D01*
X162382490Y-115460077D01*
X162480932Y-115351319D01*
X162544894Y-115219302D01*
X162563579Y-115108241D01*
X162568426Y-115079434D01*
X162568426Y-115079429D01*
X162569232Y-115074641D01*
X162569386Y-115062000D01*
X162548590Y-114916787D01*
X162516025Y-114845165D01*
X162491589Y-114791420D01*
X162491588Y-114791418D01*
X162487873Y-114783248D01*
X162392117Y-114672117D01*
X162269019Y-114592329D01*
X162260417Y-114589757D01*
X162260414Y-114589755D01*
X162185609Y-114567384D01*
X162128475Y-114550297D01*
X162119499Y-114550242D01*
X162119498Y-114550242D01*
X162056277Y-114549856D01*
X161981783Y-114549401D01*
X161973151Y-114551868D01*
X161849367Y-114587245D01*
X161849365Y-114587246D01*
X161840736Y-114589712D01*
X161839386Y-114590564D01*
X161792839Y-114600500D01*
X161583500Y-114600500D01*
X161515379Y-114580498D01*
X161468886Y-114526842D01*
X161457500Y-114474500D01*
X161457500Y-114267782D01*
X161455508Y-114254247D01*
X161448784Y-114208574D01*
X161448784Y-114208573D01*
X161447358Y-114198888D01*
X161414304Y-114131564D01*
X161402236Y-114061601D01*
X161414206Y-114020705D01*
X161447536Y-113952518D01*
X161455401Y-113898605D01*
X161456840Y-113888744D01*
X161456840Y-113888740D01*
X161457500Y-113884218D01*
X161457500Y-113617782D01*
X161453176Y-113588405D01*
X161448784Y-113558574D01*
X161448784Y-113558573D01*
X161447358Y-113548888D01*
X161417724Y-113488530D01*
X161400522Y-113453493D01*
X161400521Y-113453491D01*
X161395932Y-113444145D01*
X161313350Y-113361707D01*
X161208518Y-113310464D01*
X161175184Y-113305601D01*
X161144744Y-113301160D01*
X161144740Y-113301160D01*
X161140218Y-113300500D01*
X159798782Y-113300500D01*
X159794232Y-113301170D01*
X159794229Y-113301170D01*
X159739574Y-113309216D01*
X159739573Y-113309216D01*
X159729888Y-113310642D01*
X159701308Y-113324674D01*
X159634493Y-113357478D01*
X159634491Y-113357479D01*
X159625145Y-113362068D01*
X159600525Y-113386731D01*
X159571608Y-113415699D01*
X159542707Y-113444650D01*
X159538134Y-113454006D01*
X159538133Y-113454007D01*
X159533167Y-113464167D01*
X159491464Y-113549482D01*
X159481500Y-113617782D01*
X159481500Y-113884218D01*
X159482170Y-113888768D01*
X159482170Y-113888771D01*
X159490216Y-113943426D01*
X159491642Y-113953112D01*
X159524538Y-114020114D01*
X159524696Y-114020435D01*
X159536764Y-114090399D01*
X159524794Y-114131295D01*
X159491464Y-114199482D01*
X159490052Y-114209162D01*
X159482204Y-114262959D01*
X159481500Y-114267782D01*
X159481500Y-114534218D01*
X159482170Y-114538768D01*
X159482170Y-114538771D01*
X159490216Y-114593426D01*
X159491642Y-114603112D01*
X159523124Y-114667234D01*
X159524696Y-114670435D01*
X159536764Y-114740399D01*
X159524794Y-114781295D01*
X159491464Y-114849482D01*
X159481500Y-114917782D01*
X159481500Y-115184218D01*
X159482170Y-115188768D01*
X159482170Y-115188771D01*
X159485957Y-115214493D01*
X159491642Y-115253112D01*
X159519140Y-115309119D01*
X159524696Y-115320435D01*
X159536764Y-115390399D01*
X159524794Y-115431295D01*
X159491464Y-115499482D01*
X159481500Y-115567782D01*
X159481500Y-115834218D01*
X159482170Y-115838768D01*
X159482170Y-115838771D01*
X159490216Y-115893426D01*
X159491642Y-115903112D01*
X159543068Y-116007855D01*
X159625650Y-116090293D01*
X159635006Y-116094866D01*
X159635007Y-116094867D01*
X159667460Y-116110730D01*
X159730482Y-116141536D01*
X159760973Y-116145984D01*
X159794256Y-116150840D01*
X159794260Y-116150840D01*
X159798782Y-116151500D01*
X160230707Y-116151500D01*
X160298828Y-116171502D01*
X160319802Y-116188405D01*
X161250766Y-117119369D01*
X161284792Y-117181681D01*
X161279727Y-117252496D01*
X161237180Y-117309332D01*
X161170660Y-117334143D01*
X161108420Y-117322658D01*
X161089317Y-117313750D01*
X161089312Y-117313748D01*
X161084330Y-117311425D01*
X161079022Y-117310003D01*
X161079020Y-117310002D01*
X160976623Y-117282565D01*
X160872977Y-117254793D01*
X160655000Y-117235723D01*
X160437023Y-117254793D01*
X160225670Y-117311425D01*
X160220682Y-117313751D01*
X160218522Y-117314537D01*
X160147668Y-117319039D01*
X160086333Y-117285230D01*
X158207753Y-115406650D01*
X158197899Y-115395561D01*
X158182707Y-115376291D01*
X158182705Y-115376289D01*
X158176872Y-115368890D01*
X158169125Y-115363535D01*
X158169123Y-115363534D01*
X158135067Y-115339997D01*
X158128615Y-115335538D01*
X158125403Y-115333243D01*
X158085758Y-115303960D01*
X158085757Y-115303959D01*
X158078184Y-115298366D01*
X158071368Y-115295973D01*
X158065431Y-115291869D01*
X158056451Y-115289029D01*
X158056449Y-115289028D01*
X158036283Y-115282650D01*
X158009481Y-115274174D01*
X158005775Y-115272938D01*
X157988245Y-115266782D01*
X157983493Y-115265113D01*
X157925848Y-115223668D01*
X157899761Y-115157638D01*
X157911852Y-115091293D01*
X157968979Y-114973383D01*
X157968979Y-114973382D01*
X157972894Y-114965302D01*
X157983604Y-114901643D01*
X157996426Y-114825434D01*
X157996426Y-114825429D01*
X157997232Y-114820641D01*
X157997386Y-114808000D01*
X157976590Y-114662787D01*
X157942243Y-114587245D01*
X157919589Y-114537420D01*
X157919588Y-114537418D01*
X157915873Y-114529248D01*
X157820117Y-114418117D01*
X157697019Y-114338329D01*
X157656764Y-114326290D01*
X157603772Y-114294668D01*
X156115752Y-112806649D01*
X156105897Y-112795560D01*
X156090703Y-112776287D01*
X156084872Y-112768890D01*
X156077125Y-112763535D01*
X156077123Y-112763534D01*
X156036625Y-112735545D01*
X156033403Y-112733243D01*
X155993758Y-112703960D01*
X155993757Y-112703959D01*
X155986184Y-112698366D01*
X155979368Y-112695973D01*
X155973431Y-112691869D01*
X155964451Y-112689029D01*
X155964449Y-112689028D01*
X155944283Y-112682650D01*
X155917481Y-112674174D01*
X155913750Y-112672929D01*
X155867263Y-112656604D01*
X155867261Y-112656604D01*
X155858369Y-112653481D01*
X155851184Y-112653199D01*
X155851118Y-112653186D01*
X155844270Y-112651020D01*
X155837663Y-112650500D01*
X155837333Y-112650500D01*
X155834398Y-112649928D01*
X155771361Y-112617265D01*
X155735990Y-112555707D01*
X155732500Y-112526255D01*
X155732500Y-112317782D01*
X155731830Y-112313229D01*
X155731829Y-112313219D01*
X155730687Y-112305460D01*
X155740556Y-112235153D01*
X155784525Y-112182898D01*
X155786011Y-112181888D01*
X155794506Y-112177809D01*
X155799789Y-112172925D01*
X155799844Y-112172889D01*
X155806215Y-112169579D01*
X155811255Y-112165275D01*
X155848482Y-112128048D01*
X155852048Y-112124618D01*
X155887068Y-112092246D01*
X155893983Y-112085854D01*
X155897676Y-112079495D01*
X155903193Y-112073337D01*
X156175870Y-111800660D01*
X156186959Y-111790806D01*
X156206231Y-111775613D01*
X156206235Y-111775609D01*
X156213630Y-111769779D01*
X156218984Y-111762032D01*
X156218988Y-111762028D01*
X156246997Y-111721503D01*
X156249278Y-111718309D01*
X156284155Y-111671090D01*
X156286549Y-111664273D01*
X156290651Y-111658338D01*
X156308332Y-111602432D01*
X156309580Y-111598692D01*
X156325920Y-111552162D01*
X156325921Y-111552159D01*
X156329040Y-111543276D01*
X156329323Y-111536091D01*
X156329337Y-111536018D01*
X156331500Y-111529177D01*
X156332020Y-111522570D01*
X156332020Y-111469901D01*
X156332117Y-111464955D01*
X156332616Y-111452260D01*
X156334358Y-111407913D01*
X156332474Y-111400807D01*
X156332020Y-111392560D01*
X156332020Y-108098740D01*
X156352022Y-108030619D01*
X156405678Y-107984126D01*
X156475952Y-107974022D01*
X156540532Y-108003516D01*
G37*
%TD.AperFunction*%
%TA.AperFunction,Conductor*%
G36*
X153698621Y-113571502D02*
G01*
X153745114Y-113625158D01*
X153756500Y-113677500D01*
X153756500Y-113824500D01*
X153736498Y-113892621D01*
X153682842Y-113939114D01*
X153630500Y-113950500D01*
X153349220Y-113950500D01*
X153334411Y-113949627D01*
X153310043Y-113946743D01*
X153300690Y-113945636D01*
X153291426Y-113947328D01*
X153291422Y-113947328D01*
X153242989Y-113956173D01*
X153239088Y-113956822D01*
X153190355Y-113964149D01*
X153190347Y-113964151D01*
X153181038Y-113965551D01*
X153174528Y-113968677D01*
X153167427Y-113969974D01*
X153159072Y-113974314D01*
X153115363Y-113997018D01*
X153111825Y-113998786D01*
X153082573Y-114012833D01*
X153058921Y-114024191D01*
X153053635Y-114029078D01*
X153053595Y-114029105D01*
X153047212Y-114032420D01*
X153042172Y-114036725D01*
X153038856Y-114040041D01*
X152984386Y-114072095D01*
X152950736Y-114081712D01*
X152826672Y-114159991D01*
X152729565Y-114269943D01*
X152725751Y-114278066D01*
X152725750Y-114278068D01*
X152709518Y-114312641D01*
X152667221Y-114402731D01*
X152663598Y-114426000D01*
X152646034Y-114538806D01*
X152646034Y-114538809D01*
X152644653Y-114547679D01*
X152645817Y-114556581D01*
X152645817Y-114556584D01*
X152653051Y-114611902D01*
X152663673Y-114693135D01*
X152722754Y-114827407D01*
X152728533Y-114834282D01*
X152744306Y-114853047D01*
X152772827Y-114918064D01*
X152761669Y-114988178D01*
X152742295Y-115017529D01*
X152729565Y-115031943D01*
X152725751Y-115040066D01*
X152725750Y-115040068D01*
X152709935Y-115073754D01*
X152667221Y-115164731D01*
X152664904Y-115179612D01*
X152646034Y-115300806D01*
X152646034Y-115300809D01*
X152644653Y-115309679D01*
X152645817Y-115318581D01*
X152645817Y-115318584D01*
X152652599Y-115370449D01*
X152663673Y-115455135D01*
X152684288Y-115501986D01*
X152716527Y-115575254D01*
X152722754Y-115589407D01*
X152817145Y-115701699D01*
X152892069Y-115751572D01*
X152937691Y-115805968D01*
X152946662Y-115876395D01*
X152911344Y-115945553D01*
X151234302Y-117622595D01*
X151171990Y-117656621D01*
X151145207Y-117659500D01*
X151125046Y-117659500D01*
X151056925Y-117639498D01*
X151023695Y-117608359D01*
X150958745Y-117520424D01*
X150958742Y-117520421D01*
X150953150Y-117512850D01*
X150908239Y-117479678D01*
X150851757Y-117437959D01*
X150851754Y-117437958D01*
X150844184Y-117432366D01*
X150835301Y-117429246D01*
X150835298Y-117429245D01*
X150723651Y-117390037D01*
X150666006Y-117348594D01*
X150639918Y-117282565D01*
X150653669Y-117212912D01*
X150702894Y-117161752D01*
X150723653Y-117152272D01*
X150759300Y-117139754D01*
X150759301Y-117139753D01*
X150768184Y-117136634D01*
X150775754Y-117131042D01*
X150775757Y-117131041D01*
X150869579Y-117061742D01*
X150877150Y-117056150D01*
X150948304Y-116959816D01*
X150952041Y-116954757D01*
X150952042Y-116954754D01*
X150957634Y-116947184D01*
X151002519Y-116819369D01*
X151005500Y-116787834D01*
X151005500Y-116130166D01*
X151002519Y-116098631D01*
X150957634Y-115970816D01*
X150952043Y-115963246D01*
X150952039Y-115963239D01*
X150880149Y-115865909D01*
X150855766Y-115799231D01*
X150855500Y-115791050D01*
X150855500Y-115602950D01*
X150875502Y-115534829D01*
X150880149Y-115528091D01*
X150952034Y-115430766D01*
X150952034Y-115430765D01*
X150957634Y-115423184D01*
X150958350Y-115421144D01*
X151005228Y-115373044D01*
X151019050Y-115366851D01*
X151023573Y-115366025D01*
X151075647Y-115338975D01*
X151079137Y-115337232D01*
X151132079Y-115311809D01*
X151137365Y-115306923D01*
X151137413Y-115306890D01*
X151143788Y-115303579D01*
X151148828Y-115299275D01*
X151186055Y-115262048D01*
X151189621Y-115258618D01*
X151224641Y-115226246D01*
X151231556Y-115219854D01*
X151235249Y-115213495D01*
X151240766Y-115207337D01*
X152859698Y-113588405D01*
X152922010Y-113554379D01*
X152948793Y-113551500D01*
X153630500Y-113551500D01*
X153698621Y-113571502D01*
G37*
%TD.AperFunction*%
%TA.AperFunction,Conductor*%
G36*
X155896502Y-113871973D02*
G01*
X155931636Y-113896739D01*
X156964676Y-114929779D01*
X156990910Y-114968128D01*
X157034354Y-115066860D01*
X157037387Y-115073754D01*
X157046515Y-115144161D01*
X157016128Y-115208326D01*
X156955875Y-115245877D01*
X156922058Y-115250500D01*
X155858500Y-115250500D01*
X155790379Y-115230498D01*
X155743886Y-115176842D01*
X155732500Y-115124500D01*
X155732500Y-114917782D01*
X155723871Y-114859162D01*
X155723784Y-114858574D01*
X155723784Y-114858573D01*
X155722358Y-114848888D01*
X155689304Y-114781564D01*
X155677236Y-114711601D01*
X155689206Y-114670705D01*
X155722536Y-114602518D01*
X155729925Y-114551868D01*
X155731840Y-114538744D01*
X155731840Y-114538740D01*
X155732500Y-114534218D01*
X155732500Y-114267782D01*
X155730508Y-114254247D01*
X155723784Y-114208574D01*
X155723784Y-114208573D01*
X155722358Y-114198888D01*
X155689304Y-114131564D01*
X155677236Y-114061601D01*
X155689206Y-114020705D01*
X155722536Y-113952518D01*
X155723370Y-113946802D01*
X155761386Y-113889450D01*
X155826378Y-113860875D01*
X155896502Y-113871973D01*
G37*
%TD.AperFunction*%
%TA.AperFunction,Conductor*%
G36*
X151163011Y-108697567D02*
G01*
X151169594Y-108703697D01*
X152611247Y-110145350D01*
X152621101Y-110156439D01*
X152636294Y-110175711D01*
X152636298Y-110175715D01*
X152642128Y-110183110D01*
X152649875Y-110188464D01*
X152649879Y-110188468D01*
X152690404Y-110216477D01*
X152693598Y-110218758D01*
X152740817Y-110253635D01*
X152747634Y-110256029D01*
X152753569Y-110260131D01*
X152762544Y-110262969D01*
X152762545Y-110262970D01*
X152784507Y-110269915D01*
X152809475Y-110277812D01*
X152813215Y-110279060D01*
X152859745Y-110295400D01*
X152859748Y-110295401D01*
X152868631Y-110298520D01*
X152875816Y-110298803D01*
X152875889Y-110298817D01*
X152882730Y-110300980D01*
X152889337Y-110301500D01*
X152942006Y-110301500D01*
X152946952Y-110301597D01*
X153003994Y-110303838D01*
X153011100Y-110301954D01*
X153019347Y-110301500D01*
X153630500Y-110301500D01*
X153698621Y-110321502D01*
X153745114Y-110375158D01*
X153756500Y-110427500D01*
X153756500Y-110634218D01*
X153757170Y-110638768D01*
X153757170Y-110638771D01*
X153765216Y-110693426D01*
X153766642Y-110703112D01*
X153784965Y-110740431D01*
X153799696Y-110770435D01*
X153811764Y-110840399D01*
X153799794Y-110881295D01*
X153766464Y-110949482D01*
X153756500Y-111017782D01*
X153756500Y-111284218D01*
X153757170Y-111288768D01*
X153757170Y-111288771D01*
X153765216Y-111343426D01*
X153766642Y-111353112D01*
X153799696Y-111420435D01*
X153811764Y-111490399D01*
X153799794Y-111531295D01*
X153766464Y-111599482D01*
X153765052Y-111609162D01*
X153757284Y-111662410D01*
X153756500Y-111667782D01*
X153756500Y-111874500D01*
X153736498Y-111942621D01*
X153682842Y-111989114D01*
X153630500Y-112000500D01*
X152694793Y-112000500D01*
X152626672Y-111980498D01*
X152605698Y-111963595D01*
X150978404Y-110336301D01*
X150944378Y-110273989D01*
X150941499Y-110247206D01*
X150941499Y-110194986D01*
X150935184Y-110136843D01*
X150887372Y-110009305D01*
X150805687Y-109900313D01*
X150754935Y-109862277D01*
X150712420Y-109805419D01*
X150704500Y-109761451D01*
X150704500Y-109577292D01*
X150724502Y-109509171D01*
X150754930Y-109476470D01*
X150818687Y-109428687D01*
X150900372Y-109319695D01*
X150948184Y-109192157D01*
X150949037Y-109184304D01*
X150949038Y-109184300D01*
X150954131Y-109137414D01*
X150954131Y-109137410D01*
X150954500Y-109134015D01*
X150954499Y-108792791D01*
X150974501Y-108724672D01*
X151028156Y-108678179D01*
X151098430Y-108668074D01*
X151163011Y-108697567D01*
G37*
%TD.AperFunction*%
%TA.AperFunction,Conductor*%
G36*
X169487121Y-103390502D02*
G01*
X169533614Y-103444158D01*
X169545000Y-103496500D01*
X169545000Y-106051132D01*
X169524998Y-106119253D01*
X169471342Y-106165746D01*
X169401068Y-106175850D01*
X169377252Y-106170015D01*
X169277616Y-106135026D01*
X169270369Y-106132481D01*
X169262723Y-106131758D01*
X169262722Y-106131758D01*
X169256752Y-106131194D01*
X169238834Y-106129500D01*
X168581166Y-106129500D01*
X168563248Y-106131194D01*
X168557278Y-106131758D01*
X168557277Y-106131758D01*
X168549631Y-106132481D01*
X168421816Y-106177366D01*
X168414246Y-106182958D01*
X168414243Y-106182959D01*
X168321649Y-106251351D01*
X168254970Y-106275734D01*
X168246789Y-106276000D01*
X167907599Y-106276000D01*
X167839478Y-106255998D01*
X167832034Y-106250826D01*
X167786577Y-106216758D01*
X167727695Y-106172628D01*
X167600157Y-106124816D01*
X167592304Y-106123963D01*
X167592300Y-106123962D01*
X167545414Y-106118869D01*
X167545410Y-106118869D01*
X167542015Y-106118500D01*
X167272040Y-106118500D01*
X167001986Y-106118501D01*
X166943843Y-106124816D01*
X166816305Y-106172628D01*
X166707313Y-106254313D01*
X166625628Y-106363305D01*
X166622477Y-106371710D01*
X166622476Y-106371712D01*
X166614982Y-106391703D01*
X166572340Y-106448467D01*
X166505779Y-106473167D01*
X166436430Y-106457959D01*
X166386312Y-106407673D01*
X166379018Y-106391703D01*
X166371524Y-106371712D01*
X166371523Y-106371710D01*
X166368372Y-106363305D01*
X166315174Y-106292323D01*
X166290326Y-106225817D01*
X166290000Y-106216758D01*
X166290000Y-105820242D01*
X166310002Y-105752121D01*
X166315174Y-105744677D01*
X166358642Y-105686677D01*
X166368372Y-105673695D01*
X166416184Y-105546157D01*
X166417037Y-105538304D01*
X166417038Y-105538300D01*
X166422131Y-105491414D01*
X166422131Y-105491410D01*
X166422500Y-105488015D01*
X166422499Y-105237547D01*
X166442501Y-105169427D01*
X166459404Y-105148452D01*
X168200451Y-103407405D01*
X168262763Y-103373379D01*
X168289546Y-103370500D01*
X169419000Y-103370500D01*
X169487121Y-103390502D01*
G37*
%TD.AperFunction*%
%TD*%
%TA.AperFunction,Conductor*%
%TO.N,GND*%
G36*
X181089496Y-90168921D02*
G01*
X181089828Y-90168987D01*
X181089829Y-90168987D01*
X181102000Y-90171408D01*
X181114171Y-90168987D01*
X181126582Y-90168987D01*
X181126582Y-90169026D01*
X181137310Y-90168235D01*
X181333768Y-90177886D01*
X181469610Y-90184559D01*
X181481906Y-90185770D01*
X181839853Y-90238867D01*
X181851975Y-90241277D01*
X181954166Y-90266875D01*
X182202995Y-90329204D01*
X182214827Y-90332793D01*
X182555535Y-90454700D01*
X182566959Y-90459432D01*
X182894076Y-90614147D01*
X182904981Y-90619976D01*
X183215361Y-90806011D01*
X183225642Y-90812881D01*
X183516287Y-91028438D01*
X183525845Y-91036282D01*
X183793965Y-91279291D01*
X183802709Y-91288035D01*
X184045718Y-91556155D01*
X184053562Y-91565713D01*
X184269119Y-91856358D01*
X184275989Y-91866639D01*
X184462024Y-92177019D01*
X184467853Y-92187924D01*
X184622568Y-92515041D01*
X184627300Y-92526465D01*
X184749207Y-92867173D01*
X184752796Y-92879005D01*
X184840722Y-93230022D01*
X184843134Y-93242150D01*
X184896229Y-93600089D01*
X184897441Y-93612395D01*
X184913765Y-93944690D01*
X184912974Y-93955418D01*
X184913013Y-93955418D01*
X184913013Y-93967829D01*
X184910592Y-93980000D01*
X184913013Y-93992171D01*
X184913013Y-93992172D01*
X184913079Y-93992504D01*
X184915500Y-94017085D01*
X184915500Y-108459000D01*
X184895498Y-108527121D01*
X184841842Y-108573614D01*
X184789500Y-108585000D01*
X181101000Y-108585000D01*
X181032879Y-108564998D01*
X180986386Y-108511342D01*
X180975000Y-108459000D01*
X180975000Y-103505000D01*
X177926000Y-103505000D01*
X177857879Y-103484998D01*
X177811386Y-103431342D01*
X177800000Y-103379000D01*
X177800000Y-99123126D01*
X177820002Y-99055005D01*
X177873658Y-99008512D01*
X177943932Y-98998408D01*
X178008512Y-99027902D01*
X178019999Y-99039220D01*
X178048169Y-99070782D01*
X178251064Y-99239528D01*
X178363869Y-99307980D01*
X178472676Y-99374006D01*
X178472681Y-99374008D01*
X178476673Y-99376431D01*
X178720039Y-99478482D01*
X178975816Y-99543442D01*
X179159929Y-99561981D01*
X179191858Y-99565196D01*
X179191859Y-99565196D01*
X179194997Y-99565512D01*
X179351993Y-99565512D01*
X179354318Y-99565339D01*
X179354324Y-99565339D01*
X179543512Y-99551280D01*
X179543516Y-99551279D01*
X179548164Y-99550934D01*
X179805554Y-99492693D01*
X179839143Y-99479631D01*
X180047156Y-99398739D01*
X180047158Y-99398738D01*
X180051509Y-99397046D01*
X180280624Y-99266096D01*
X180487867Y-99102719D01*
X180668684Y-98910504D01*
X180819105Y-98693674D01*
X180821173Y-98689481D01*
X180933758Y-98461180D01*
X180933759Y-98461177D01*
X180935823Y-98456992D01*
X181016276Y-98205657D01*
X181058696Y-97945192D01*
X181062150Y-97681317D01*
X181026563Y-97419831D01*
X180952717Y-97166476D01*
X180842234Y-96926820D01*
X180809774Y-96877311D01*
X180700107Y-96710040D01*
X180700103Y-96710035D01*
X180697541Y-96706127D01*
X180583826Y-96578719D01*
X180524934Y-96512736D01*
X180524932Y-96512734D01*
X180521817Y-96509244D01*
X180318922Y-96340498D01*
X180206118Y-96272047D01*
X180097310Y-96206020D01*
X180097305Y-96206018D01*
X180093313Y-96203595D01*
X179849947Y-96101544D01*
X179594170Y-96036584D01*
X179410057Y-96018045D01*
X179378128Y-96014830D01*
X179378127Y-96014830D01*
X179374989Y-96014514D01*
X179217993Y-96014514D01*
X179215668Y-96014687D01*
X179215662Y-96014687D01*
X179026474Y-96028746D01*
X179026470Y-96028747D01*
X179021822Y-96029092D01*
X178764432Y-96087333D01*
X178760080Y-96089025D01*
X178760078Y-96089026D01*
X178522830Y-96181287D01*
X178522828Y-96181288D01*
X178518477Y-96182980D01*
X178289362Y-96313930D01*
X178082119Y-96477307D01*
X178078919Y-96480709D01*
X178017775Y-96545707D01*
X177956531Y-96581619D01*
X177885594Y-96578719D01*
X177827485Y-96537928D01*
X177800654Y-96472197D01*
X177800000Y-96459374D01*
X177800000Y-90292500D01*
X177820002Y-90224379D01*
X177873658Y-90177886D01*
X177926000Y-90166500D01*
X181064915Y-90166500D01*
X181089496Y-90168921D01*
G37*
%TD.AperFunction*%
%TD*%
%TA.AperFunction,Conductor*%
%TO.N,+BATT*%
G36*
X177107121Y-90444502D02*
G01*
X177153614Y-90498158D01*
X177165000Y-90550500D01*
X177165000Y-104140000D01*
X179579000Y-104140000D01*
X179647121Y-104160002D01*
X179693614Y-104213658D01*
X179705000Y-104266000D01*
X179705000Y-107824000D01*
X179684998Y-107892121D01*
X179631342Y-107938614D01*
X179579000Y-107950000D01*
X173355000Y-107950000D01*
X173355000Y-112904000D01*
X173334998Y-112972121D01*
X173281342Y-113018614D01*
X173229000Y-113030000D01*
X170397500Y-113030000D01*
X170329379Y-113009998D01*
X170282886Y-112956342D01*
X170271500Y-112904000D01*
X170271500Y-112801866D01*
X170267344Y-112763606D01*
X170267344Y-112736393D01*
X170271131Y-112701533D01*
X170271131Y-112701529D01*
X170271500Y-112698134D01*
X170271500Y-112151866D01*
X170267344Y-112113606D01*
X170267344Y-112086393D01*
X170271131Y-112051533D01*
X170271131Y-112051529D01*
X170271500Y-112048134D01*
X170271500Y-111501866D01*
X170269844Y-111486620D01*
X170269844Y-111459405D01*
X170276131Y-111401531D01*
X170276500Y-111398134D01*
X170276500Y-110851866D01*
X170269844Y-110790595D01*
X170269844Y-110763380D01*
X170271131Y-110751533D01*
X170271131Y-110751528D01*
X170271500Y-110748134D01*
X170271500Y-110201866D01*
X170267344Y-110163606D01*
X170267344Y-110136393D01*
X170271131Y-110101533D01*
X170271131Y-110101529D01*
X170271500Y-110098134D01*
X170271500Y-109551866D01*
X170267344Y-109513606D01*
X170267344Y-109486393D01*
X170271131Y-109451533D01*
X170271131Y-109451529D01*
X170271500Y-109448134D01*
X170271500Y-108901866D01*
X170264745Y-108839684D01*
X170213615Y-108703295D01*
X170205173Y-108692031D01*
X170180326Y-108625525D01*
X170180000Y-108616467D01*
X170180000Y-101726000D01*
X170200002Y-101657879D01*
X170253658Y-101611386D01*
X170306000Y-101600000D01*
X173482000Y-101600000D01*
X173482000Y-97790000D01*
X165861000Y-97790000D01*
X165792879Y-97769998D01*
X165746386Y-97716342D01*
X165735000Y-97664000D01*
X165735000Y-95250001D01*
X164933564Y-95250001D01*
X157606000Y-95250000D01*
X157537879Y-95229998D01*
X157491386Y-95176342D01*
X157480000Y-95124000D01*
X157480000Y-93980000D01*
X155701000Y-93980000D01*
X155632879Y-93959998D01*
X155586386Y-93906342D01*
X155575000Y-93854000D01*
X155575000Y-90550500D01*
X155595002Y-90482379D01*
X155648658Y-90435886D01*
X155701000Y-90424500D01*
X177039000Y-90424500D01*
X177107121Y-90444502D01*
G37*
%TD.AperFunction*%
%TD*%
%TA.AperFunction,Conductor*%
%TO.N,Vout*%
G36*
X176472121Y-108605002D02*
G01*
X176518614Y-108658658D01*
X176530000Y-108711000D01*
X176530000Y-109855000D01*
X184789500Y-109855000D01*
X184857621Y-109875002D01*
X184904114Y-109928658D01*
X184915500Y-109981000D01*
X184915500Y-122644915D01*
X184913079Y-122669496D01*
X184910592Y-122682000D01*
X184913013Y-122694171D01*
X184913013Y-122706582D01*
X184912974Y-122706582D01*
X184913765Y-122717310D01*
X184897441Y-123049606D01*
X184896229Y-123061911D01*
X184893177Y-123082487D01*
X184863397Y-123146936D01*
X184803500Y-123185053D01*
X184768541Y-123190000D01*
X180466000Y-123190000D01*
X180397879Y-123169998D01*
X180351386Y-123116342D01*
X180340000Y-123064000D01*
X180340000Y-120650000D01*
X177800000Y-120650000D01*
X177800000Y-123064000D01*
X177779998Y-123132121D01*
X177726342Y-123178614D01*
X177674000Y-123190000D01*
X176021000Y-123190000D01*
X175952879Y-123169998D01*
X175906386Y-123116342D01*
X175895000Y-123064000D01*
X175895000Y-113665000D01*
X174116000Y-113665000D01*
X174047879Y-113644998D01*
X174001386Y-113591342D01*
X173990000Y-113539000D01*
X173990000Y-111725286D01*
X174010002Y-111657165D01*
X174063658Y-111610672D01*
X174126676Y-111600172D01*
X174128326Y-111600500D01*
X175487674Y-111600500D01*
X175560740Y-111585966D01*
X175643601Y-111530601D01*
X175698966Y-111447740D01*
X175713500Y-111374674D01*
X175713500Y-110875326D01*
X175698966Y-110802260D01*
X175643601Y-110719399D01*
X175560740Y-110664034D01*
X175487674Y-110649500D01*
X174128326Y-110649500D01*
X174126776Y-110649808D01*
X174058597Y-110636879D01*
X174007069Y-110588038D01*
X173990000Y-110524714D01*
X173990000Y-108711000D01*
X174010002Y-108642879D01*
X174063658Y-108596386D01*
X174116000Y-108585000D01*
X176404000Y-108585000D01*
X176472121Y-108605002D01*
G37*
%TD.AperFunction*%
%TD*%
M02*
