%TF.GenerationSoftware,KiCad,Pcbnew,(6.0.6)*%
%TF.CreationDate,2022-08-10T17:58:30-05:00*%
%TF.ProjectId,EFuse_Test,45467573-655f-4546-9573-742e6b696361,rev?*%
%TF.SameCoordinates,Original*%
%TF.FileFunction,Legend,Top*%
%TF.FilePolarity,Positive*%
%FSLAX46Y46*%
G04 Gerber Fmt 4.6, Leading zero omitted, Abs format (unit mm)*
G04 Created by KiCad (PCBNEW (6.0.6)) date 2022-08-10 17:58:30*
%MOMM*%
%LPD*%
G01*
G04 APERTURE LIST*
%ADD10C,0.127000*%
%ADD11C,0.190500*%
%ADD12C,0.146050*%
%ADD13C,0.150000*%
%ADD14C,0.120000*%
%ADD15C,0.010000*%
G04 APERTURE END LIST*
D10*
X161244642Y-91358357D02*
X161728452Y-91358357D01*
X161486547Y-91600261D02*
X161486547Y-91116452D01*
X162242500Y-91267642D02*
X162333214Y-91297880D01*
X162363452Y-91328119D01*
X162393690Y-91388595D01*
X162393690Y-91479309D01*
X162363452Y-91539785D01*
X162333214Y-91570023D01*
X162272738Y-91600261D01*
X162030833Y-91600261D01*
X162030833Y-90965261D01*
X162242500Y-90965261D01*
X162302976Y-90995500D01*
X162333214Y-91025738D01*
X162363452Y-91086214D01*
X162363452Y-91146690D01*
X162333214Y-91207166D01*
X162302976Y-91237404D01*
X162242500Y-91267642D01*
X162030833Y-91267642D01*
X162635595Y-91418833D02*
X162937976Y-91418833D01*
X162575119Y-91600261D02*
X162786785Y-90965261D01*
X162998452Y-91600261D01*
X163119404Y-90965261D02*
X163482261Y-90965261D01*
X163300833Y-91600261D02*
X163300833Y-90965261D01*
X163603214Y-90965261D02*
X163966071Y-90965261D01*
X163784642Y-91600261D02*
X163784642Y-90965261D01*
X143963571Y-91570023D02*
X144054285Y-91600261D01*
X144205476Y-91600261D01*
X144265952Y-91570023D01*
X144296190Y-91539785D01*
X144326428Y-91479309D01*
X144326428Y-91418833D01*
X144296190Y-91358357D01*
X144265952Y-91328119D01*
X144205476Y-91297880D01*
X144084523Y-91267642D01*
X144024047Y-91237404D01*
X143993809Y-91207166D01*
X143963571Y-91146690D01*
X143963571Y-91086214D01*
X143993809Y-91025738D01*
X144024047Y-90995500D01*
X144084523Y-90965261D01*
X144235714Y-90965261D01*
X144326428Y-90995500D01*
X144598571Y-91600261D02*
X144598571Y-90965261D01*
X144749761Y-90965261D01*
X144840476Y-90995500D01*
X144900952Y-91055976D01*
X144931190Y-91116452D01*
X144961428Y-91237404D01*
X144961428Y-91328119D01*
X144931190Y-91449071D01*
X144900952Y-91509547D01*
X144840476Y-91570023D01*
X144749761Y-91600261D01*
X144598571Y-91600261D01*
X145596428Y-91539785D02*
X145566190Y-91570023D01*
X145475476Y-91600261D01*
X145415000Y-91600261D01*
X145324285Y-91570023D01*
X145263809Y-91509547D01*
X145233571Y-91449071D01*
X145203333Y-91328119D01*
X145203333Y-91237404D01*
X145233571Y-91116452D01*
X145263809Y-91055976D01*
X145324285Y-90995500D01*
X145415000Y-90965261D01*
X145475476Y-90965261D01*
X145566190Y-90995500D01*
X145596428Y-91025738D01*
X127786190Y-96710500D02*
X127725714Y-96680261D01*
X127635000Y-96680261D01*
X127544285Y-96710500D01*
X127483809Y-96770976D01*
X127453571Y-96831452D01*
X127423333Y-96952404D01*
X127423333Y-97043119D01*
X127453571Y-97164071D01*
X127483809Y-97224547D01*
X127544285Y-97285023D01*
X127635000Y-97315261D01*
X127695476Y-97315261D01*
X127786190Y-97285023D01*
X127816428Y-97254785D01*
X127816428Y-97043119D01*
X127695476Y-97043119D01*
X128088571Y-97315261D02*
X128088571Y-96680261D01*
X128451428Y-97315261D01*
X128451428Y-96680261D01*
X128753809Y-97315261D02*
X128753809Y-96680261D01*
X128905000Y-96680261D01*
X128995714Y-96710500D01*
X129056190Y-96770976D01*
X129086428Y-96831452D01*
X129116666Y-96952404D01*
X129116666Y-97043119D01*
X129086428Y-97164071D01*
X129056190Y-97224547D01*
X128995714Y-97285023D01*
X128905000Y-97315261D01*
X128753809Y-97315261D01*
X141756190Y-107233357D02*
X142240000Y-107233357D01*
X141998095Y-107475261D02*
X141998095Y-106991452D01*
X142481904Y-106840261D02*
X142875000Y-106840261D01*
X142663333Y-107082166D01*
X142754047Y-107082166D01*
X142814523Y-107112404D01*
X142844761Y-107142642D01*
X142875000Y-107203119D01*
X142875000Y-107354309D01*
X142844761Y-107414785D01*
X142814523Y-107445023D01*
X142754047Y-107475261D01*
X142572619Y-107475261D01*
X142512142Y-107445023D01*
X142481904Y-107414785D01*
X143056428Y-106840261D02*
X143268095Y-107475261D01*
X143479761Y-106840261D01*
X143630952Y-106840261D02*
X144024047Y-106840261D01*
X143812380Y-107082166D01*
X143903095Y-107082166D01*
X143963571Y-107112404D01*
X143993809Y-107142642D01*
X144024047Y-107203119D01*
X144024047Y-107354309D01*
X143993809Y-107414785D01*
X143963571Y-107445023D01*
X143903095Y-107475261D01*
X143721666Y-107475261D01*
X143661190Y-107445023D01*
X143630952Y-107414785D01*
X158880023Y-119035285D02*
X158910261Y-118944571D01*
X158910261Y-118793380D01*
X158880023Y-118732904D01*
X158849785Y-118702666D01*
X158789309Y-118672428D01*
X158728833Y-118672428D01*
X158668357Y-118702666D01*
X158638119Y-118732904D01*
X158607880Y-118793380D01*
X158577642Y-118914333D01*
X158547404Y-118974809D01*
X158517166Y-119005047D01*
X158456690Y-119035285D01*
X158396214Y-119035285D01*
X158335738Y-119005047D01*
X158305500Y-118974809D01*
X158275261Y-118914333D01*
X158275261Y-118763142D01*
X158305500Y-118672428D01*
X158275261Y-118460761D02*
X158910261Y-118309571D01*
X158456690Y-118188619D01*
X158910261Y-118067666D01*
X158275261Y-117916476D01*
X153322261Y-120259928D02*
X153957261Y-120048261D01*
X153322261Y-119836595D01*
X153624642Y-119413261D02*
X153654880Y-119322547D01*
X153685119Y-119292309D01*
X153745595Y-119262071D01*
X153836309Y-119262071D01*
X153896785Y-119292309D01*
X153927023Y-119322547D01*
X153957261Y-119383023D01*
X153957261Y-119624928D01*
X153322261Y-119624928D01*
X153322261Y-119413261D01*
X153352500Y-119352785D01*
X153382738Y-119322547D01*
X153443214Y-119292309D01*
X153503690Y-119292309D01*
X153564166Y-119322547D01*
X153594404Y-119352785D01*
X153624642Y-119413261D01*
X153624642Y-119624928D01*
X153775833Y-119020166D02*
X153775833Y-118717785D01*
X153957261Y-119080642D02*
X153322261Y-118868976D01*
X153957261Y-118657309D01*
X153322261Y-118536357D02*
X153322261Y-118173500D01*
X153957261Y-118354928D02*
X153322261Y-118354928D01*
X154017738Y-118113023D02*
X154017738Y-117629214D01*
X153957261Y-117478023D02*
X153322261Y-117478023D01*
X153957261Y-117175642D02*
X153322261Y-117175642D01*
X153957261Y-116812785D01*
X153322261Y-116812785D01*
X181277380Y-118778261D02*
X181489047Y-119413261D01*
X181700714Y-118778261D01*
X182003095Y-119413261D02*
X181942619Y-119383023D01*
X181912380Y-119352785D01*
X181882142Y-119292309D01*
X181882142Y-119110880D01*
X181912380Y-119050404D01*
X181942619Y-119020166D01*
X182003095Y-118989928D01*
X182093809Y-118989928D01*
X182154285Y-119020166D01*
X182184523Y-119050404D01*
X182214761Y-119110880D01*
X182214761Y-119292309D01*
X182184523Y-119352785D01*
X182154285Y-119383023D01*
X182093809Y-119413261D01*
X182003095Y-119413261D01*
X182759047Y-118989928D02*
X182759047Y-119413261D01*
X182486904Y-118989928D02*
X182486904Y-119322547D01*
X182517142Y-119383023D01*
X182577619Y-119413261D01*
X182668333Y-119413261D01*
X182728809Y-119383023D01*
X182759047Y-119352785D01*
X182970714Y-118989928D02*
X183212619Y-118989928D01*
X183061428Y-118778261D02*
X183061428Y-119322547D01*
X183091666Y-119383023D01*
X183152142Y-119413261D01*
X183212619Y-119413261D01*
D11*
X170626314Y-124322114D02*
X170626314Y-124176971D01*
X170662600Y-124104400D01*
X170735171Y-124031828D01*
X170880314Y-123995542D01*
X171134314Y-123995542D01*
X171279457Y-124031828D01*
X171352028Y-124104400D01*
X171388314Y-124176971D01*
X171388314Y-124322114D01*
X171352028Y-124394685D01*
X171279457Y-124467257D01*
X171134314Y-124503542D01*
X170880314Y-124503542D01*
X170735171Y-124467257D01*
X170662600Y-124394685D01*
X170626314Y-124322114D01*
X171388314Y-123668971D02*
X170626314Y-123668971D01*
X171388314Y-123233542D01*
X170626314Y-123233542D01*
X158586714Y-93816714D02*
X158586714Y-93671571D01*
X158623000Y-93599000D01*
X158695571Y-93526428D01*
X158840714Y-93490142D01*
X159094714Y-93490142D01*
X159239857Y-93526428D01*
X159312428Y-93599000D01*
X159348714Y-93671571D01*
X159348714Y-93816714D01*
X159312428Y-93889285D01*
X159239857Y-93961857D01*
X159094714Y-93998142D01*
X158840714Y-93998142D01*
X158695571Y-93961857D01*
X158623000Y-93889285D01*
X158586714Y-93816714D01*
X159348714Y-93163571D02*
X158586714Y-93163571D01*
X159348714Y-92728142D01*
X158586714Y-92728142D01*
X128106714Y-123556304D02*
X128106714Y-122794304D01*
X128397000Y-122794304D01*
X128469571Y-122830590D01*
X128505857Y-122866875D01*
X128542142Y-122939447D01*
X128542142Y-123048304D01*
X128505857Y-123120875D01*
X128469571Y-123157161D01*
X128397000Y-123193447D01*
X128106714Y-123193447D01*
X128977571Y-123556304D02*
X128905000Y-123520018D01*
X128868714Y-123483732D01*
X128832428Y-123411161D01*
X128832428Y-123193447D01*
X128868714Y-123120875D01*
X128905000Y-123084590D01*
X128977571Y-123048304D01*
X129086428Y-123048304D01*
X129159000Y-123084590D01*
X129195285Y-123120875D01*
X129231571Y-123193447D01*
X129231571Y-123411161D01*
X129195285Y-123483732D01*
X129159000Y-123520018D01*
X129086428Y-123556304D01*
X128977571Y-123556304D01*
X129485571Y-123048304D02*
X129630714Y-123556304D01*
X129775857Y-123193447D01*
X129921000Y-123556304D01*
X130066142Y-123048304D01*
X130646714Y-123520018D02*
X130574142Y-123556304D01*
X130429000Y-123556304D01*
X130356428Y-123520018D01*
X130320142Y-123447447D01*
X130320142Y-123157161D01*
X130356428Y-123084590D01*
X130429000Y-123048304D01*
X130574142Y-123048304D01*
X130646714Y-123084590D01*
X130683000Y-123157161D01*
X130683000Y-123229732D01*
X130320142Y-123302304D01*
X131009571Y-123556304D02*
X131009571Y-123048304D01*
X131009571Y-123193447D02*
X131045857Y-123120875D01*
X131082142Y-123084590D01*
X131154714Y-123048304D01*
X131227285Y-123048304D01*
X132061857Y-123556304D02*
X132061857Y-122794304D01*
X132243285Y-122794304D01*
X132352142Y-122830590D01*
X132424714Y-122903161D01*
X132461000Y-122975732D01*
X132497285Y-123120875D01*
X132497285Y-123229732D01*
X132461000Y-123374875D01*
X132424714Y-123447447D01*
X132352142Y-123520018D01*
X132243285Y-123556304D01*
X132061857Y-123556304D01*
X132823857Y-123556304D02*
X132823857Y-123048304D01*
X132823857Y-122794304D02*
X132787571Y-122830590D01*
X132823857Y-122866875D01*
X132860142Y-122830590D01*
X132823857Y-122794304D01*
X132823857Y-122866875D01*
X133150428Y-123520018D02*
X133223000Y-123556304D01*
X133368142Y-123556304D01*
X133440714Y-123520018D01*
X133477000Y-123447447D01*
X133477000Y-123411161D01*
X133440714Y-123338590D01*
X133368142Y-123302304D01*
X133259285Y-123302304D01*
X133186714Y-123266018D01*
X133150428Y-123193447D01*
X133150428Y-123157161D01*
X133186714Y-123084590D01*
X133259285Y-123048304D01*
X133368142Y-123048304D01*
X133440714Y-123084590D01*
X133694714Y-123048304D02*
X133985000Y-123048304D01*
X133803571Y-122794304D02*
X133803571Y-123447447D01*
X133839857Y-123520018D01*
X133912428Y-123556304D01*
X133985000Y-123556304D01*
X134239000Y-123556304D02*
X134239000Y-123048304D01*
X134239000Y-123193447D02*
X134275285Y-123120875D01*
X134311571Y-123084590D01*
X134384142Y-123048304D01*
X134456714Y-123048304D01*
X134710714Y-123556304D02*
X134710714Y-123048304D01*
X134710714Y-122794304D02*
X134674428Y-122830590D01*
X134710714Y-122866875D01*
X134747000Y-122830590D01*
X134710714Y-122794304D01*
X134710714Y-122866875D01*
X135073571Y-123556304D02*
X135073571Y-122794304D01*
X135073571Y-123084590D02*
X135146142Y-123048304D01*
X135291285Y-123048304D01*
X135363857Y-123084590D01*
X135400142Y-123120875D01*
X135436428Y-123193447D01*
X135436428Y-123411161D01*
X135400142Y-123483732D01*
X135363857Y-123520018D01*
X135291285Y-123556304D01*
X135146142Y-123556304D01*
X135073571Y-123520018D01*
X136089571Y-123048304D02*
X136089571Y-123556304D01*
X135763000Y-123048304D02*
X135763000Y-123447447D01*
X135799285Y-123520018D01*
X135871857Y-123556304D01*
X135980714Y-123556304D01*
X136053285Y-123520018D01*
X136089571Y-123483732D01*
X136343571Y-123048304D02*
X136633857Y-123048304D01*
X136452428Y-122794304D02*
X136452428Y-123447447D01*
X136488714Y-123520018D01*
X136561285Y-123556304D01*
X136633857Y-123556304D01*
X136887857Y-123556304D02*
X136887857Y-123048304D01*
X136887857Y-122794304D02*
X136851571Y-122830590D01*
X136887857Y-122866875D01*
X136924142Y-122830590D01*
X136887857Y-122794304D01*
X136887857Y-122866875D01*
X137359571Y-123556304D02*
X137287000Y-123520018D01*
X137250714Y-123483732D01*
X137214428Y-123411161D01*
X137214428Y-123193447D01*
X137250714Y-123120875D01*
X137287000Y-123084590D01*
X137359571Y-123048304D01*
X137468428Y-123048304D01*
X137541000Y-123084590D01*
X137577285Y-123120875D01*
X137613571Y-123193447D01*
X137613571Y-123411161D01*
X137577285Y-123483732D01*
X137541000Y-123520018D01*
X137468428Y-123556304D01*
X137359571Y-123556304D01*
X137940142Y-123048304D02*
X137940142Y-123556304D01*
X137940142Y-123120875D02*
X137976428Y-123084590D01*
X138049000Y-123048304D01*
X138157857Y-123048304D01*
X138230428Y-123084590D01*
X138266714Y-123157161D01*
X138266714Y-123556304D01*
X139101285Y-122794304D02*
X139536714Y-122794304D01*
X139319000Y-123556304D02*
X139319000Y-122794304D01*
X140081000Y-123520018D02*
X140008428Y-123556304D01*
X139863285Y-123556304D01*
X139790714Y-123520018D01*
X139754428Y-123447447D01*
X139754428Y-123157161D01*
X139790714Y-123084590D01*
X139863285Y-123048304D01*
X140008428Y-123048304D01*
X140081000Y-123084590D01*
X140117285Y-123157161D01*
X140117285Y-123229732D01*
X139754428Y-123302304D01*
X140407571Y-123520018D02*
X140480142Y-123556304D01*
X140625285Y-123556304D01*
X140697857Y-123520018D01*
X140734142Y-123447447D01*
X140734142Y-123411161D01*
X140697857Y-123338590D01*
X140625285Y-123302304D01*
X140516428Y-123302304D01*
X140443857Y-123266018D01*
X140407571Y-123193447D01*
X140407571Y-123157161D01*
X140443857Y-123084590D01*
X140516428Y-123048304D01*
X140625285Y-123048304D01*
X140697857Y-123084590D01*
X140951857Y-123048304D02*
X141242142Y-123048304D01*
X141060714Y-122794304D02*
X141060714Y-123447447D01*
X141097000Y-123520018D01*
X141169571Y-123556304D01*
X141242142Y-123556304D01*
X133458857Y-124021124D02*
X133712857Y-124783124D01*
X133966857Y-124021124D01*
X134620000Y-124783124D02*
X134184571Y-124783124D01*
X134402285Y-124783124D02*
X134402285Y-124021124D01*
X134329714Y-124129981D01*
X134257142Y-124202552D01*
X134184571Y-124238838D01*
X134946571Y-124710552D02*
X134982857Y-124746838D01*
X134946571Y-124783124D01*
X134910285Y-124746838D01*
X134946571Y-124710552D01*
X134946571Y-124783124D01*
X135454571Y-124021124D02*
X135527142Y-124021124D01*
X135599714Y-124057410D01*
X135636000Y-124093695D01*
X135672285Y-124166267D01*
X135708571Y-124311410D01*
X135708571Y-124492838D01*
X135672285Y-124637981D01*
X135636000Y-124710552D01*
X135599714Y-124746838D01*
X135527142Y-124783124D01*
X135454571Y-124783124D01*
X135382000Y-124746838D01*
X135345714Y-124710552D01*
X135309428Y-124637981D01*
X135273142Y-124492838D01*
X135273142Y-124311410D01*
X135309428Y-124166267D01*
X135345714Y-124093695D01*
X135382000Y-124057410D01*
X135454571Y-124021124D01*
D12*
X129849033Y-112504461D02*
X129932490Y-112532280D01*
X130071585Y-112532280D01*
X130127223Y-112504461D01*
X130155042Y-112476642D01*
X130182861Y-112421004D01*
X130182861Y-112365366D01*
X130155042Y-112309728D01*
X130127223Y-112281909D01*
X130071585Y-112254090D01*
X129960309Y-112226271D01*
X129904671Y-112198452D01*
X129876852Y-112170633D01*
X129849033Y-112114995D01*
X129849033Y-112059357D01*
X129876852Y-112003719D01*
X129904671Y-111975900D01*
X129960309Y-111948080D01*
X130099404Y-111948080D01*
X130182861Y-111975900D01*
X130405414Y-112365366D02*
X130683604Y-112365366D01*
X130349776Y-112532280D02*
X130544509Y-111948080D01*
X130739242Y-112532280D01*
X130878338Y-111948080D02*
X131017433Y-112532280D01*
X131128709Y-112114995D01*
X131239985Y-112532280D01*
X131379080Y-111948080D01*
X131935461Y-112476642D02*
X131907642Y-112504461D01*
X131824185Y-112532280D01*
X131768547Y-112532280D01*
X131685090Y-112504461D01*
X131629452Y-112448823D01*
X131601633Y-112393185D01*
X131573814Y-112281909D01*
X131573814Y-112198452D01*
X131601633Y-112087176D01*
X131629452Y-112031538D01*
X131685090Y-111975900D01*
X131768547Y-111948080D01*
X131824185Y-111948080D01*
X131907642Y-111975900D01*
X131935461Y-112003719D01*
X132297109Y-111948080D02*
X132408385Y-111948080D01*
X132464023Y-111975900D01*
X132519661Y-112031538D01*
X132547480Y-112142814D01*
X132547480Y-112337547D01*
X132519661Y-112448823D01*
X132464023Y-112504461D01*
X132408385Y-112532280D01*
X132297109Y-112532280D01*
X132241471Y-112504461D01*
X132185833Y-112448823D01*
X132158014Y-112337547D01*
X132158014Y-112142814D01*
X132185833Y-112031538D01*
X132241471Y-111975900D01*
X132297109Y-111948080D01*
X132797852Y-112532280D02*
X132797852Y-111948080D01*
X133131680Y-112532280D01*
X133131680Y-111948080D01*
X133854976Y-112226271D02*
X134049709Y-112226271D01*
X134133166Y-112532280D02*
X133854976Y-112532280D01*
X133854976Y-111948080D01*
X134133166Y-111948080D01*
X134661728Y-112532280D02*
X134383538Y-112532280D01*
X134383538Y-111948080D01*
X134856461Y-112226271D02*
X135051195Y-112226271D01*
X135134652Y-112532280D02*
X134856461Y-112532280D01*
X134856461Y-111948080D01*
X135134652Y-111948080D01*
X135718852Y-112476642D02*
X135691033Y-112504461D01*
X135607576Y-112532280D01*
X135551938Y-112532280D01*
X135468480Y-112504461D01*
X135412842Y-112448823D01*
X135385023Y-112393185D01*
X135357204Y-112281909D01*
X135357204Y-112198452D01*
X135385023Y-112087176D01*
X135412842Y-112031538D01*
X135468480Y-111975900D01*
X135551938Y-111948080D01*
X135607576Y-111948080D01*
X135691033Y-111975900D01*
X135718852Y-112003719D01*
X135885766Y-111948080D02*
X136219595Y-111948080D01*
X136052680Y-112532280D02*
X136052680Y-111948080D01*
X136748157Y-112532280D02*
X136553423Y-112254090D01*
X136414328Y-112532280D02*
X136414328Y-111948080D01*
X136636880Y-111948080D01*
X136692519Y-111975900D01*
X136720338Y-112003719D01*
X136748157Y-112059357D01*
X136748157Y-112142814D01*
X136720338Y-112198452D01*
X136692519Y-112226271D01*
X136636880Y-112254090D01*
X136414328Y-112254090D01*
X137109804Y-111948080D02*
X137221080Y-111948080D01*
X137276719Y-111975900D01*
X137332357Y-112031538D01*
X137360176Y-112142814D01*
X137360176Y-112337547D01*
X137332357Y-112448823D01*
X137276719Y-112504461D01*
X137221080Y-112532280D01*
X137109804Y-112532280D01*
X137054166Y-112504461D01*
X136998528Y-112448823D01*
X136970709Y-112337547D01*
X136970709Y-112142814D01*
X136998528Y-112031538D01*
X137054166Y-111975900D01*
X137109804Y-111948080D01*
X137610547Y-112532280D02*
X137610547Y-111948080D01*
X137944376Y-112532280D01*
X137944376Y-111948080D01*
X138222566Y-112532280D02*
X138222566Y-111948080D01*
X138834585Y-112476642D02*
X138806766Y-112504461D01*
X138723309Y-112532280D01*
X138667671Y-112532280D01*
X138584214Y-112504461D01*
X138528576Y-112448823D01*
X138500757Y-112393185D01*
X138472938Y-112281909D01*
X138472938Y-112198452D01*
X138500757Y-112087176D01*
X138528576Y-112031538D01*
X138584214Y-111975900D01*
X138667671Y-111948080D01*
X138723309Y-111948080D01*
X138806766Y-111975900D01*
X138834585Y-112003719D01*
X139057138Y-112504461D02*
X139140595Y-112532280D01*
X139279690Y-112532280D01*
X139335328Y-112504461D01*
X139363147Y-112476642D01*
X139390966Y-112421004D01*
X139390966Y-112365366D01*
X139363147Y-112309728D01*
X139335328Y-112281909D01*
X139279690Y-112254090D01*
X139168414Y-112226271D01*
X139112776Y-112198452D01*
X139084957Y-112170633D01*
X139057138Y-112114995D01*
X139057138Y-112059357D01*
X139084957Y-112003719D01*
X139112776Y-111975900D01*
X139168414Y-111948080D01*
X139307509Y-111948080D01*
X139390966Y-111975900D01*
D11*
X148045714Y-94070714D02*
X148045714Y-93925571D01*
X148082000Y-93853000D01*
X148154571Y-93780428D01*
X148299714Y-93744142D01*
X148553714Y-93744142D01*
X148698857Y-93780428D01*
X148771428Y-93853000D01*
X148807714Y-93925571D01*
X148807714Y-94070714D01*
X148771428Y-94143285D01*
X148698857Y-94215857D01*
X148553714Y-94252142D01*
X148299714Y-94252142D01*
X148154571Y-94215857D01*
X148082000Y-94143285D01*
X148045714Y-94070714D01*
X148408571Y-93163571D02*
X148408571Y-93417571D01*
X148807714Y-93417571D02*
X148045714Y-93417571D01*
X148045714Y-93054714D01*
X148408571Y-92510428D02*
X148408571Y-92764428D01*
X148807714Y-92764428D02*
X148045714Y-92764428D01*
X148045714Y-92401571D01*
X160085314Y-124576114D02*
X160085314Y-124430971D01*
X160121600Y-124358400D01*
X160194171Y-124285828D01*
X160339314Y-124249542D01*
X160593314Y-124249542D01*
X160738457Y-124285828D01*
X160811028Y-124358400D01*
X160847314Y-124430971D01*
X160847314Y-124576114D01*
X160811028Y-124648685D01*
X160738457Y-124721257D01*
X160593314Y-124757542D01*
X160339314Y-124757542D01*
X160194171Y-124721257D01*
X160121600Y-124648685D01*
X160085314Y-124576114D01*
X160448171Y-123668971D02*
X160448171Y-123922971D01*
X160847314Y-123922971D02*
X160085314Y-123922971D01*
X160085314Y-123560114D01*
X160448171Y-123015828D02*
X160448171Y-123269828D01*
X160847314Y-123269828D02*
X160085314Y-123269828D01*
X160085314Y-122906971D01*
X180953228Y-114274600D02*
X180989514Y-114165742D01*
X180989514Y-113984314D01*
X180953228Y-113911742D01*
X180916942Y-113875457D01*
X180844371Y-113839171D01*
X180771800Y-113839171D01*
X180699228Y-113875457D01*
X180662942Y-113911742D01*
X180626657Y-113984314D01*
X180590371Y-114129457D01*
X180554085Y-114202028D01*
X180517800Y-114238314D01*
X180445228Y-114274600D01*
X180372657Y-114274600D01*
X180300085Y-114238314D01*
X180263800Y-114202028D01*
X180227514Y-114129457D01*
X180227514Y-113948028D01*
X180263800Y-113839171D01*
X180989514Y-113512600D02*
X180227514Y-113512600D01*
X180989514Y-113186028D02*
X180590371Y-113186028D01*
X180517800Y-113222314D01*
X180481514Y-113294885D01*
X180481514Y-113403742D01*
X180517800Y-113476314D01*
X180554085Y-113512600D01*
X180989514Y-112714314D02*
X180953228Y-112786885D01*
X180916942Y-112823171D01*
X180844371Y-112859457D01*
X180626657Y-112859457D01*
X180554085Y-112823171D01*
X180517800Y-112786885D01*
X180481514Y-112714314D01*
X180481514Y-112605457D01*
X180517800Y-112532885D01*
X180554085Y-112496600D01*
X180626657Y-112460314D01*
X180844371Y-112460314D01*
X180916942Y-112496600D01*
X180953228Y-112532885D01*
X180989514Y-112605457D01*
X180989514Y-112714314D01*
X180989514Y-112133742D02*
X180481514Y-112133742D01*
X180626657Y-112133742D02*
X180554085Y-112097457D01*
X180517800Y-112061171D01*
X180481514Y-111988600D01*
X180481514Y-111916028D01*
X180481514Y-111770885D02*
X180481514Y-111480600D01*
X180227514Y-111662028D02*
X180880657Y-111662028D01*
X180953228Y-111625742D01*
X180989514Y-111553171D01*
X180989514Y-111480600D01*
X180699228Y-111226600D02*
X180699228Y-110646028D01*
X180953228Y-109956600D02*
X180989514Y-110029171D01*
X180989514Y-110174314D01*
X180953228Y-110246885D01*
X180916942Y-110283171D01*
X180844371Y-110319457D01*
X180626657Y-110319457D01*
X180554085Y-110283171D01*
X180517800Y-110246885D01*
X180481514Y-110174314D01*
X180481514Y-110029171D01*
X180517800Y-109956600D01*
X180989514Y-109630028D02*
X180481514Y-109630028D01*
X180227514Y-109630028D02*
X180263800Y-109666314D01*
X180300085Y-109630028D01*
X180263800Y-109593742D01*
X180227514Y-109630028D01*
X180300085Y-109630028D01*
X180989514Y-109267171D02*
X180481514Y-109267171D01*
X180626657Y-109267171D02*
X180554085Y-109230885D01*
X180517800Y-109194600D01*
X180481514Y-109122028D01*
X180481514Y-109049457D01*
X180953228Y-108468885D02*
X180989514Y-108541457D01*
X180989514Y-108686600D01*
X180953228Y-108759171D01*
X180916942Y-108795457D01*
X180844371Y-108831742D01*
X180626657Y-108831742D01*
X180554085Y-108795457D01*
X180517800Y-108759171D01*
X180481514Y-108686600D01*
X180481514Y-108541457D01*
X180517800Y-108468885D01*
X180481514Y-107815742D02*
X180989514Y-107815742D01*
X180481514Y-108142314D02*
X180880657Y-108142314D01*
X180953228Y-108106028D01*
X180989514Y-108033457D01*
X180989514Y-107924600D01*
X180953228Y-107852028D01*
X180916942Y-107815742D01*
X180989514Y-107452885D02*
X180481514Y-107452885D01*
X180227514Y-107452885D02*
X180263800Y-107489171D01*
X180300085Y-107452885D01*
X180263800Y-107416600D01*
X180227514Y-107452885D01*
X180300085Y-107452885D01*
X180481514Y-107198885D02*
X180481514Y-106908600D01*
X180227514Y-107090028D02*
X180880657Y-107090028D01*
X180953228Y-107053742D01*
X180989514Y-106981171D01*
X180989514Y-106908600D01*
X180227514Y-106182885D02*
X180227514Y-105747457D01*
X180989514Y-105965171D02*
X180227514Y-105965171D01*
X180953228Y-105203171D02*
X180989514Y-105275742D01*
X180989514Y-105420885D01*
X180953228Y-105493457D01*
X180880657Y-105529742D01*
X180590371Y-105529742D01*
X180517800Y-105493457D01*
X180481514Y-105420885D01*
X180481514Y-105275742D01*
X180517800Y-105203171D01*
X180590371Y-105166885D01*
X180662942Y-105166885D01*
X180735514Y-105529742D01*
X180953228Y-104876600D02*
X180989514Y-104804028D01*
X180989514Y-104658885D01*
X180953228Y-104586314D01*
X180880657Y-104550028D01*
X180844371Y-104550028D01*
X180771800Y-104586314D01*
X180735514Y-104658885D01*
X180735514Y-104767742D01*
X180699228Y-104840314D01*
X180626657Y-104876600D01*
X180590371Y-104876600D01*
X180517800Y-104840314D01*
X180481514Y-104767742D01*
X180481514Y-104658885D01*
X180517800Y-104586314D01*
X180481514Y-104332314D02*
X180481514Y-104042028D01*
X180227514Y-104223457D02*
X180880657Y-104223457D01*
X180953228Y-104187171D01*
X180989514Y-104114600D01*
X180989514Y-104042028D01*
D10*
%TO.C,R3*%
X177833261Y-120755833D02*
X177530880Y-120967500D01*
X177833261Y-121118690D02*
X177198261Y-121118690D01*
X177198261Y-120876785D01*
X177228500Y-120816309D01*
X177258738Y-120786071D01*
X177319214Y-120755833D01*
X177409928Y-120755833D01*
X177470404Y-120786071D01*
X177500642Y-120816309D01*
X177530880Y-120876785D01*
X177530880Y-121118690D01*
X177198261Y-120544166D02*
X177198261Y-120151071D01*
X177440166Y-120362738D01*
X177440166Y-120272023D01*
X177470404Y-120211547D01*
X177500642Y-120181309D01*
X177561119Y-120151071D01*
X177712309Y-120151071D01*
X177772785Y-120181309D01*
X177803023Y-120211547D01*
X177833261Y-120272023D01*
X177833261Y-120453452D01*
X177803023Y-120513928D01*
X177772785Y-120544166D01*
%TO.C,D1*%
X180881261Y-124674690D02*
X180246261Y-124674690D01*
X180246261Y-124523500D01*
X180276500Y-124432785D01*
X180336976Y-124372309D01*
X180397452Y-124342071D01*
X180518404Y-124311833D01*
X180609119Y-124311833D01*
X180730071Y-124342071D01*
X180790547Y-124372309D01*
X180851023Y-124432785D01*
X180881261Y-124523500D01*
X180881261Y-124674690D01*
X180881261Y-123707071D02*
X180881261Y-124069928D01*
X180881261Y-123888500D02*
X180246261Y-123888500D01*
X180336976Y-123948976D01*
X180397452Y-124009452D01*
X180427690Y-124069928D01*
%TO.C,C15*%
X146530785Y-109065785D02*
X146500547Y-109096023D01*
X146409833Y-109126261D01*
X146349357Y-109126261D01*
X146258642Y-109096023D01*
X146198166Y-109035547D01*
X146167928Y-108975071D01*
X146137690Y-108854119D01*
X146137690Y-108763404D01*
X146167928Y-108642452D01*
X146198166Y-108581976D01*
X146258642Y-108521500D01*
X146349357Y-108491261D01*
X146409833Y-108491261D01*
X146500547Y-108521500D01*
X146530785Y-108551738D01*
X147135547Y-109126261D02*
X146772690Y-109126261D01*
X146954119Y-109126261D02*
X146954119Y-108491261D01*
X146893642Y-108581976D01*
X146833166Y-108642452D01*
X146772690Y-108672690D01*
X147710071Y-108491261D02*
X147407690Y-108491261D01*
X147377452Y-108793642D01*
X147407690Y-108763404D01*
X147468166Y-108733166D01*
X147619357Y-108733166D01*
X147679833Y-108763404D01*
X147710071Y-108793642D01*
X147740309Y-108854119D01*
X147740309Y-109005309D01*
X147710071Y-109065785D01*
X147679833Y-109096023D01*
X147619357Y-109126261D01*
X147468166Y-109126261D01*
X147407690Y-109096023D01*
X147377452Y-109065785D01*
%TO.C,R12*%
X146581785Y-116873261D02*
X146370119Y-116570880D01*
X146218928Y-116873261D02*
X146218928Y-116238261D01*
X146460833Y-116238261D01*
X146521309Y-116268500D01*
X146551547Y-116298738D01*
X146581785Y-116359214D01*
X146581785Y-116449928D01*
X146551547Y-116510404D01*
X146521309Y-116540642D01*
X146460833Y-116570880D01*
X146218928Y-116570880D01*
X147186547Y-116873261D02*
X146823690Y-116873261D01*
X147005119Y-116873261D02*
X147005119Y-116238261D01*
X146944642Y-116328976D01*
X146884166Y-116389452D01*
X146823690Y-116419690D01*
X147428452Y-116298738D02*
X147458690Y-116268500D01*
X147519166Y-116238261D01*
X147670357Y-116238261D01*
X147730833Y-116268500D01*
X147761071Y-116298738D01*
X147791309Y-116359214D01*
X147791309Y-116419690D01*
X147761071Y-116510404D01*
X147398214Y-116873261D01*
X147791309Y-116873261D01*
%TO.C,U3*%
X136930190Y-91219261D02*
X136930190Y-91733309D01*
X136960428Y-91793785D01*
X136990666Y-91824023D01*
X137051142Y-91854261D01*
X137172095Y-91854261D01*
X137232571Y-91824023D01*
X137262809Y-91793785D01*
X137293047Y-91733309D01*
X137293047Y-91219261D01*
X137534952Y-91219261D02*
X137928047Y-91219261D01*
X137716380Y-91461166D01*
X137807095Y-91461166D01*
X137867571Y-91491404D01*
X137897809Y-91521642D01*
X137928047Y-91582119D01*
X137928047Y-91733309D01*
X137897809Y-91793785D01*
X137867571Y-91824023D01*
X137807095Y-91854261D01*
X137625666Y-91854261D01*
X137565190Y-91824023D01*
X137534952Y-91793785D01*
%TO.C,C13*%
X144432785Y-103024214D02*
X144463023Y-103054452D01*
X144493261Y-103145166D01*
X144493261Y-103205642D01*
X144463023Y-103296357D01*
X144402547Y-103356833D01*
X144342071Y-103387071D01*
X144221119Y-103417309D01*
X144130404Y-103417309D01*
X144009452Y-103387071D01*
X143948976Y-103356833D01*
X143888500Y-103296357D01*
X143858261Y-103205642D01*
X143858261Y-103145166D01*
X143888500Y-103054452D01*
X143918738Y-103024214D01*
X144493261Y-102419452D02*
X144493261Y-102782309D01*
X144493261Y-102600880D02*
X143858261Y-102600880D01*
X143948976Y-102661357D01*
X144009452Y-102721833D01*
X144039690Y-102782309D01*
X143858261Y-102207785D02*
X143858261Y-101814690D01*
X144100166Y-102026357D01*
X144100166Y-101935642D01*
X144130404Y-101875166D01*
X144160642Y-101844928D01*
X144221119Y-101814690D01*
X144372309Y-101814690D01*
X144432785Y-101844928D01*
X144463023Y-101875166D01*
X144493261Y-101935642D01*
X144493261Y-102117071D01*
X144463023Y-102177547D01*
X144432785Y-102207785D01*
%TO.C,C12*%
X146517785Y-110716785D02*
X146487547Y-110747023D01*
X146396833Y-110777261D01*
X146336357Y-110777261D01*
X146245642Y-110747023D01*
X146185166Y-110686547D01*
X146154928Y-110626071D01*
X146124690Y-110505119D01*
X146124690Y-110414404D01*
X146154928Y-110293452D01*
X146185166Y-110232976D01*
X146245642Y-110172500D01*
X146336357Y-110142261D01*
X146396833Y-110142261D01*
X146487547Y-110172500D01*
X146517785Y-110202738D01*
X147122547Y-110777261D02*
X146759690Y-110777261D01*
X146941119Y-110777261D02*
X146941119Y-110142261D01*
X146880642Y-110232976D01*
X146820166Y-110293452D01*
X146759690Y-110323690D01*
X147364452Y-110202738D02*
X147394690Y-110172500D01*
X147455166Y-110142261D01*
X147606357Y-110142261D01*
X147666833Y-110172500D01*
X147697071Y-110202738D01*
X147727309Y-110263214D01*
X147727309Y-110323690D01*
X147697071Y-110414404D01*
X147334214Y-110777261D01*
X147727309Y-110777261D01*
%TO.C,C17*%
X162405785Y-116150785D02*
X162375547Y-116181023D01*
X162284833Y-116211261D01*
X162224357Y-116211261D01*
X162133642Y-116181023D01*
X162073166Y-116120547D01*
X162042928Y-116060071D01*
X162012690Y-115939119D01*
X162012690Y-115848404D01*
X162042928Y-115727452D01*
X162073166Y-115666976D01*
X162133642Y-115606500D01*
X162224357Y-115576261D01*
X162284833Y-115576261D01*
X162375547Y-115606500D01*
X162405785Y-115636738D01*
X163010547Y-116211261D02*
X162647690Y-116211261D01*
X162829119Y-116211261D02*
X162829119Y-115576261D01*
X162768642Y-115666976D01*
X162708166Y-115727452D01*
X162647690Y-115757690D01*
X163222214Y-115576261D02*
X163645547Y-115576261D01*
X163373404Y-116211261D01*
%TO.C,FB1*%
X146650833Y-113492642D02*
X146439166Y-113492642D01*
X146439166Y-113825261D02*
X146439166Y-113190261D01*
X146741547Y-113190261D01*
X147195119Y-113492642D02*
X147285833Y-113522880D01*
X147316071Y-113553119D01*
X147346309Y-113613595D01*
X147346309Y-113704309D01*
X147316071Y-113764785D01*
X147285833Y-113795023D01*
X147225357Y-113825261D01*
X146983452Y-113825261D01*
X146983452Y-113190261D01*
X147195119Y-113190261D01*
X147255595Y-113220500D01*
X147285833Y-113250738D01*
X147316071Y-113311214D01*
X147316071Y-113371690D01*
X147285833Y-113432166D01*
X147255595Y-113462404D01*
X147195119Y-113492642D01*
X146983452Y-113492642D01*
X147951071Y-113825261D02*
X147588214Y-113825261D01*
X147769642Y-113825261D02*
X147769642Y-113190261D01*
X147709166Y-113280976D01*
X147648690Y-113341452D01*
X147588214Y-113371690D01*
%TO.C,C11*%
X162151785Y-112467785D02*
X162121547Y-112498023D01*
X162030833Y-112528261D01*
X161970357Y-112528261D01*
X161879642Y-112498023D01*
X161819166Y-112437547D01*
X161788928Y-112377071D01*
X161758690Y-112256119D01*
X161758690Y-112165404D01*
X161788928Y-112044452D01*
X161819166Y-111983976D01*
X161879642Y-111923500D01*
X161970357Y-111893261D01*
X162030833Y-111893261D01*
X162121547Y-111923500D01*
X162151785Y-111953738D01*
X162756547Y-112528261D02*
X162393690Y-112528261D01*
X162575119Y-112528261D02*
X162575119Y-111893261D01*
X162514642Y-111983976D01*
X162454166Y-112044452D01*
X162393690Y-112074690D01*
X163361309Y-112528261D02*
X162998452Y-112528261D01*
X163179880Y-112528261D02*
X163179880Y-111893261D01*
X163119404Y-111983976D01*
X163058928Y-112044452D01*
X162998452Y-112074690D01*
%TO.C,R9*%
X174074166Y-121064261D02*
X173862500Y-120761880D01*
X173711309Y-121064261D02*
X173711309Y-120429261D01*
X173953214Y-120429261D01*
X174013690Y-120459500D01*
X174043928Y-120489738D01*
X174074166Y-120550214D01*
X174074166Y-120640928D01*
X174043928Y-120701404D01*
X174013690Y-120731642D01*
X173953214Y-120761880D01*
X173711309Y-120761880D01*
X174376547Y-121064261D02*
X174497500Y-121064261D01*
X174557976Y-121034023D01*
X174588214Y-121003785D01*
X174648690Y-120913071D01*
X174678928Y-120792119D01*
X174678928Y-120550214D01*
X174648690Y-120489738D01*
X174618452Y-120459500D01*
X174557976Y-120429261D01*
X174437023Y-120429261D01*
X174376547Y-120459500D01*
X174346309Y-120489738D01*
X174316071Y-120550214D01*
X174316071Y-120701404D01*
X174346309Y-120761880D01*
X174376547Y-120792119D01*
X174437023Y-120822357D01*
X174557976Y-120822357D01*
X174618452Y-120792119D01*
X174648690Y-120761880D01*
X174678928Y-120701404D01*
%TO.C,R8*%
X170627256Y-106060833D02*
X170324875Y-106272500D01*
X170627256Y-106423690D02*
X169992256Y-106423690D01*
X169992256Y-106181785D01*
X170022495Y-106121309D01*
X170052733Y-106091071D01*
X170113209Y-106060833D01*
X170203923Y-106060833D01*
X170264399Y-106091071D01*
X170294637Y-106121309D01*
X170324875Y-106181785D01*
X170324875Y-106423690D01*
X170264399Y-105697976D02*
X170234161Y-105758452D01*
X170203923Y-105788690D01*
X170143447Y-105818928D01*
X170113209Y-105818928D01*
X170052733Y-105788690D01*
X170022495Y-105758452D01*
X169992256Y-105697976D01*
X169992256Y-105577023D01*
X170022495Y-105516547D01*
X170052733Y-105486309D01*
X170113209Y-105456071D01*
X170143447Y-105456071D01*
X170203923Y-105486309D01*
X170234161Y-105516547D01*
X170264399Y-105577023D01*
X170264399Y-105697976D01*
X170294637Y-105758452D01*
X170324875Y-105788690D01*
X170385352Y-105818928D01*
X170506304Y-105818928D01*
X170566780Y-105788690D01*
X170597018Y-105758452D01*
X170627256Y-105697976D01*
X170627256Y-105577023D01*
X170597018Y-105516547D01*
X170566780Y-105486309D01*
X170506304Y-105456071D01*
X170385352Y-105456071D01*
X170324875Y-105486309D01*
X170294637Y-105516547D01*
X170264399Y-105577023D01*
%TO.C,SW1*%
X161332333Y-121313423D02*
X161423047Y-121343661D01*
X161574238Y-121343661D01*
X161634714Y-121313423D01*
X161664952Y-121283185D01*
X161695190Y-121222709D01*
X161695190Y-121162233D01*
X161664952Y-121101757D01*
X161634714Y-121071519D01*
X161574238Y-121041280D01*
X161453285Y-121011042D01*
X161392809Y-120980804D01*
X161362571Y-120950566D01*
X161332333Y-120890090D01*
X161332333Y-120829614D01*
X161362571Y-120769138D01*
X161392809Y-120738900D01*
X161453285Y-120708661D01*
X161604476Y-120708661D01*
X161695190Y-120738900D01*
X161906857Y-120708661D02*
X162058047Y-121343661D01*
X162179000Y-120890090D01*
X162299952Y-121343661D01*
X162451142Y-120708661D01*
X163025666Y-121343661D02*
X162662809Y-121343661D01*
X162844238Y-121343661D02*
X162844238Y-120708661D01*
X162783761Y-120799376D01*
X162723285Y-120859852D01*
X162662809Y-120890090D01*
%TO.C,R5*%
X163089166Y-108972261D02*
X162877500Y-108669880D01*
X162726309Y-108972261D02*
X162726309Y-108337261D01*
X162968214Y-108337261D01*
X163028690Y-108367500D01*
X163058928Y-108397738D01*
X163089166Y-108458214D01*
X163089166Y-108548928D01*
X163058928Y-108609404D01*
X163028690Y-108639642D01*
X162968214Y-108669880D01*
X162726309Y-108669880D01*
X163663690Y-108337261D02*
X163361309Y-108337261D01*
X163331071Y-108639642D01*
X163361309Y-108609404D01*
X163421785Y-108579166D01*
X163572976Y-108579166D01*
X163633452Y-108609404D01*
X163663690Y-108639642D01*
X163693928Y-108700119D01*
X163693928Y-108851309D01*
X163663690Y-108911785D01*
X163633452Y-108942023D01*
X163572976Y-108972261D01*
X163421785Y-108972261D01*
X163361309Y-108942023D01*
X163331071Y-108911785D01*
%TO.C,C5*%
X164105166Y-107070785D02*
X164074928Y-107101023D01*
X163984214Y-107131261D01*
X163923738Y-107131261D01*
X163833023Y-107101023D01*
X163772547Y-107040547D01*
X163742309Y-106980071D01*
X163712071Y-106859119D01*
X163712071Y-106768404D01*
X163742309Y-106647452D01*
X163772547Y-106586976D01*
X163833023Y-106526500D01*
X163923738Y-106496261D01*
X163984214Y-106496261D01*
X164074928Y-106526500D01*
X164105166Y-106556738D01*
X164679690Y-106496261D02*
X164377309Y-106496261D01*
X164347071Y-106798642D01*
X164377309Y-106768404D01*
X164437785Y-106738166D01*
X164588976Y-106738166D01*
X164649452Y-106768404D01*
X164679690Y-106798642D01*
X164709928Y-106859119D01*
X164709928Y-107010309D01*
X164679690Y-107070785D01*
X164649452Y-107101023D01*
X164588976Y-107131261D01*
X164437785Y-107131261D01*
X164377309Y-107101023D01*
X164347071Y-107070785D01*
%TO.C,L1*%
X140889566Y-98102661D02*
X140587185Y-98102661D01*
X140587185Y-97467661D01*
X141433852Y-98102661D02*
X141070995Y-98102661D01*
X141252423Y-98102661D02*
X141252423Y-97467661D01*
X141191947Y-97558376D01*
X141131471Y-97618852D01*
X141070995Y-97649090D01*
%TO.C,R1*%
X147201166Y-107475261D02*
X146989500Y-107172880D01*
X146838309Y-107475261D02*
X146838309Y-106840261D01*
X147080214Y-106840261D01*
X147140690Y-106870500D01*
X147170928Y-106900738D01*
X147201166Y-106961214D01*
X147201166Y-107051928D01*
X147170928Y-107112404D01*
X147140690Y-107142642D01*
X147080214Y-107172880D01*
X146838309Y-107172880D01*
X147805928Y-107475261D02*
X147443071Y-107475261D01*
X147624500Y-107475261D02*
X147624500Y-106840261D01*
X147564023Y-106930976D01*
X147503547Y-106991452D01*
X147443071Y-107021690D01*
%TO.C,C2*%
X130653366Y-92047785D02*
X130623128Y-92078023D01*
X130532414Y-92108261D01*
X130471938Y-92108261D01*
X130381223Y-92078023D01*
X130320747Y-92017547D01*
X130290509Y-91957071D01*
X130260271Y-91836119D01*
X130260271Y-91745404D01*
X130290509Y-91624452D01*
X130320747Y-91563976D01*
X130381223Y-91503500D01*
X130471938Y-91473261D01*
X130532414Y-91473261D01*
X130623128Y-91503500D01*
X130653366Y-91533738D01*
X130895271Y-91533738D02*
X130925509Y-91503500D01*
X130985985Y-91473261D01*
X131137176Y-91473261D01*
X131197652Y-91503500D01*
X131227890Y-91533738D01*
X131258128Y-91594214D01*
X131258128Y-91654690D01*
X131227890Y-91745404D01*
X130865033Y-92108261D01*
X131258128Y-92108261D01*
%TO.C,C16*%
X144432785Y-105183214D02*
X144463023Y-105213452D01*
X144493261Y-105304166D01*
X144493261Y-105364642D01*
X144463023Y-105455357D01*
X144402547Y-105515833D01*
X144342071Y-105546071D01*
X144221119Y-105576309D01*
X144130404Y-105576309D01*
X144009452Y-105546071D01*
X143948976Y-105515833D01*
X143888500Y-105455357D01*
X143858261Y-105364642D01*
X143858261Y-105304166D01*
X143888500Y-105213452D01*
X143918738Y-105183214D01*
X144493261Y-104578452D02*
X144493261Y-104941309D01*
X144493261Y-104759880D02*
X143858261Y-104759880D01*
X143948976Y-104820357D01*
X144009452Y-104880833D01*
X144039690Y-104941309D01*
X143858261Y-104034166D02*
X143858261Y-104155119D01*
X143888500Y-104215595D01*
X143918738Y-104245833D01*
X144009452Y-104306309D01*
X144130404Y-104336547D01*
X144372309Y-104336547D01*
X144432785Y-104306309D01*
X144463023Y-104276071D01*
X144493261Y-104215595D01*
X144493261Y-104094642D01*
X144463023Y-104034166D01*
X144432785Y-104003928D01*
X144372309Y-103973690D01*
X144221119Y-103973690D01*
X144160642Y-104003928D01*
X144130404Y-104034166D01*
X144100166Y-104094642D01*
X144100166Y-104215595D01*
X144130404Y-104276071D01*
X144160642Y-104306309D01*
X144221119Y-104336547D01*
%TO.C,R13*%
X146530785Y-118397261D02*
X146319119Y-118094880D01*
X146167928Y-118397261D02*
X146167928Y-117762261D01*
X146409833Y-117762261D01*
X146470309Y-117792500D01*
X146500547Y-117822738D01*
X146530785Y-117883214D01*
X146530785Y-117973928D01*
X146500547Y-118034404D01*
X146470309Y-118064642D01*
X146409833Y-118094880D01*
X146167928Y-118094880D01*
X147135547Y-118397261D02*
X146772690Y-118397261D01*
X146954119Y-118397261D02*
X146954119Y-117762261D01*
X146893642Y-117852976D01*
X146833166Y-117913452D01*
X146772690Y-117943690D01*
X147347214Y-117762261D02*
X147740309Y-117762261D01*
X147528642Y-118004166D01*
X147619357Y-118004166D01*
X147679833Y-118034404D01*
X147710071Y-118064642D01*
X147740309Y-118125119D01*
X147740309Y-118276309D01*
X147710071Y-118336785D01*
X147679833Y-118367023D01*
X147619357Y-118397261D01*
X147437928Y-118397261D01*
X147377452Y-118367023D01*
X147347214Y-118336785D01*
%TO.C,C1*%
X169502166Y-121003785D02*
X169471928Y-121034023D01*
X169381214Y-121064261D01*
X169320738Y-121064261D01*
X169230023Y-121034023D01*
X169169547Y-120973547D01*
X169139309Y-120913071D01*
X169109071Y-120792119D01*
X169109071Y-120701404D01*
X169139309Y-120580452D01*
X169169547Y-120519976D01*
X169230023Y-120459500D01*
X169320738Y-120429261D01*
X169381214Y-120429261D01*
X169471928Y-120459500D01*
X169502166Y-120489738D01*
X170106928Y-121064261D02*
X169744071Y-121064261D01*
X169925500Y-121064261D02*
X169925500Y-120429261D01*
X169865023Y-120519976D01*
X169804547Y-120580452D01*
X169744071Y-120610690D01*
%TO.C,J1*%
X169070261Y-92667666D02*
X169523833Y-92667666D01*
X169614547Y-92697904D01*
X169675023Y-92758380D01*
X169705261Y-92849095D01*
X169705261Y-92909571D01*
X169705261Y-92032666D02*
X169705261Y-92395523D01*
X169705261Y-92214095D02*
X169070261Y-92214095D01*
X169160976Y-92274571D01*
X169221452Y-92335047D01*
X169251690Y-92395523D01*
%TO.C,D2*%
X171425309Y-121953261D02*
X171425309Y-121318261D01*
X171576500Y-121318261D01*
X171667214Y-121348500D01*
X171727690Y-121408976D01*
X171757928Y-121469452D01*
X171788166Y-121590404D01*
X171788166Y-121681119D01*
X171757928Y-121802071D01*
X171727690Y-121862547D01*
X171667214Y-121923023D01*
X171576500Y-121953261D01*
X171425309Y-121953261D01*
X172030071Y-121378738D02*
X172060309Y-121348500D01*
X172120785Y-121318261D01*
X172271976Y-121318261D01*
X172332452Y-121348500D01*
X172362690Y-121378738D01*
X172392928Y-121439214D01*
X172392928Y-121499690D01*
X172362690Y-121590404D01*
X171999833Y-121953261D01*
X172392928Y-121953261D01*
%TO.C,C8*%
X175956785Y-123613841D02*
X175987023Y-123644079D01*
X176017261Y-123734793D01*
X176017261Y-123795269D01*
X175987023Y-123885984D01*
X175926547Y-123946460D01*
X175866071Y-123976698D01*
X175745119Y-124006936D01*
X175654404Y-124006936D01*
X175533452Y-123976698D01*
X175472976Y-123946460D01*
X175412500Y-123885984D01*
X175382261Y-123795269D01*
X175382261Y-123734793D01*
X175412500Y-123644079D01*
X175442738Y-123613841D01*
X175654404Y-123250984D02*
X175624166Y-123311460D01*
X175593928Y-123341698D01*
X175533452Y-123371936D01*
X175503214Y-123371936D01*
X175442738Y-123341698D01*
X175412500Y-123311460D01*
X175382261Y-123250984D01*
X175382261Y-123130031D01*
X175412500Y-123069555D01*
X175442738Y-123039317D01*
X175503214Y-123009079D01*
X175533452Y-123009079D01*
X175593928Y-123039317D01*
X175624166Y-123069555D01*
X175654404Y-123130031D01*
X175654404Y-123250984D01*
X175684642Y-123311460D01*
X175714880Y-123341698D01*
X175775357Y-123371936D01*
X175896309Y-123371936D01*
X175956785Y-123341698D01*
X175987023Y-123311460D01*
X176017261Y-123250984D01*
X176017261Y-123130031D01*
X175987023Y-123069555D01*
X175956785Y-123039317D01*
X175896309Y-123009079D01*
X175775357Y-123009079D01*
X175714880Y-123039317D01*
X175684642Y-123069555D01*
X175654404Y-123130031D01*
%TO.C,R4*%
X167851166Y-115730261D02*
X167639500Y-115427880D01*
X167488309Y-115730261D02*
X167488309Y-115095261D01*
X167730214Y-115095261D01*
X167790690Y-115125500D01*
X167820928Y-115155738D01*
X167851166Y-115216214D01*
X167851166Y-115306928D01*
X167820928Y-115367404D01*
X167790690Y-115397642D01*
X167730214Y-115427880D01*
X167488309Y-115427880D01*
X168395452Y-115306928D02*
X168395452Y-115730261D01*
X168244261Y-115065023D02*
X168093071Y-115518595D01*
X168486166Y-115518595D01*
%TO.C,C4*%
X163978166Y-105419785D02*
X163947928Y-105450023D01*
X163857214Y-105480261D01*
X163796738Y-105480261D01*
X163706023Y-105450023D01*
X163645547Y-105389547D01*
X163615309Y-105329071D01*
X163585071Y-105208119D01*
X163585071Y-105117404D01*
X163615309Y-104996452D01*
X163645547Y-104935976D01*
X163706023Y-104875500D01*
X163796738Y-104845261D01*
X163857214Y-104845261D01*
X163947928Y-104875500D01*
X163978166Y-104905738D01*
X164522452Y-105056928D02*
X164522452Y-105480261D01*
X164371261Y-104815023D02*
X164220071Y-105268595D01*
X164613166Y-105268595D01*
%TO.C,C9*%
X135608785Y-96117833D02*
X135639023Y-96148071D01*
X135669261Y-96238785D01*
X135669261Y-96299261D01*
X135639023Y-96389976D01*
X135578547Y-96450452D01*
X135518071Y-96480690D01*
X135397119Y-96510928D01*
X135306404Y-96510928D01*
X135185452Y-96480690D01*
X135124976Y-96450452D01*
X135064500Y-96389976D01*
X135034261Y-96299261D01*
X135034261Y-96238785D01*
X135064500Y-96148071D01*
X135094738Y-96117833D01*
X135669261Y-95815452D02*
X135669261Y-95694500D01*
X135639023Y-95634023D01*
X135608785Y-95603785D01*
X135518071Y-95543309D01*
X135397119Y-95513071D01*
X135155214Y-95513071D01*
X135094738Y-95543309D01*
X135064500Y-95573547D01*
X135034261Y-95634023D01*
X135034261Y-95754976D01*
X135064500Y-95815452D01*
X135094738Y-95845690D01*
X135155214Y-95875928D01*
X135306404Y-95875928D01*
X135366880Y-95845690D01*
X135397119Y-95815452D01*
X135427357Y-95754976D01*
X135427357Y-95634023D01*
X135397119Y-95573547D01*
X135366880Y-95543309D01*
X135306404Y-95513071D01*
%TO.C,J3*%
X146219333Y-119794261D02*
X146219333Y-120247833D01*
X146189095Y-120338547D01*
X146128619Y-120399023D01*
X146037904Y-120429261D01*
X145977428Y-120429261D01*
X146461238Y-119794261D02*
X146854333Y-119794261D01*
X146642666Y-120036166D01*
X146733380Y-120036166D01*
X146793857Y-120066404D01*
X146824095Y-120096642D01*
X146854333Y-120157119D01*
X146854333Y-120308309D01*
X146824095Y-120368785D01*
X146793857Y-120399023D01*
X146733380Y-120429261D01*
X146551952Y-120429261D01*
X146491476Y-120399023D01*
X146461238Y-120368785D01*
D13*
%TO.C,C18*%
X162405785Y-114626785D02*
X162375547Y-114657023D01*
X162284833Y-114687261D01*
X162224357Y-114687261D01*
X162133642Y-114657023D01*
X162073166Y-114596547D01*
X162042928Y-114536071D01*
X162012690Y-114415119D01*
X162012690Y-114324404D01*
X162042928Y-114203452D01*
X162073166Y-114142976D01*
X162133642Y-114082500D01*
X162224357Y-114052261D01*
X162284833Y-114052261D01*
X162375547Y-114082500D01*
X162405785Y-114112738D01*
X163010547Y-114687261D02*
X162647690Y-114687261D01*
X162829119Y-114687261D02*
X162829119Y-114052261D01*
X162768642Y-114142976D01*
X162708166Y-114203452D01*
X162647690Y-114233690D01*
X163373404Y-114324404D02*
X163312928Y-114294166D01*
X163282690Y-114263928D01*
X163252452Y-114203452D01*
X163252452Y-114173214D01*
X163282690Y-114112738D01*
X163312928Y-114082500D01*
X163373404Y-114052261D01*
X163494357Y-114052261D01*
X163554833Y-114082500D01*
X163585071Y-114112738D01*
X163615309Y-114173214D01*
X163615309Y-114203452D01*
X163585071Y-114263928D01*
X163554833Y-114294166D01*
X163494357Y-114324404D01*
X163373404Y-114324404D01*
X163312928Y-114354642D01*
X163282690Y-114384880D01*
X163252452Y-114445357D01*
X163252452Y-114566309D01*
X163282690Y-114626785D01*
X163312928Y-114657023D01*
X163373404Y-114687261D01*
X163494357Y-114687261D01*
X163554833Y-114657023D01*
X163585071Y-114626785D01*
X163615309Y-114566309D01*
X163615309Y-114445357D01*
X163585071Y-114384880D01*
X163554833Y-114354642D01*
X163494357Y-114324404D01*
D10*
%TO.C,D3*%
X164419267Y-98512698D02*
X163784267Y-98512698D01*
X163784267Y-98361508D01*
X163814506Y-98270793D01*
X163874982Y-98210317D01*
X163935458Y-98180079D01*
X164056410Y-98149841D01*
X164147125Y-98149841D01*
X164268077Y-98180079D01*
X164328553Y-98210317D01*
X164389029Y-98270793D01*
X164419267Y-98361508D01*
X164419267Y-98512698D01*
X163784267Y-97938174D02*
X163784267Y-97545079D01*
X164026172Y-97756746D01*
X164026172Y-97666031D01*
X164056410Y-97605555D01*
X164086648Y-97575317D01*
X164147125Y-97545079D01*
X164298315Y-97545079D01*
X164358791Y-97575317D01*
X164389029Y-97605555D01*
X164419267Y-97666031D01*
X164419267Y-97847460D01*
X164389029Y-97907936D01*
X164358791Y-97938174D01*
%TO.C,U2*%
X171474185Y-107221250D02*
X171474185Y-107735298D01*
X171504423Y-107795774D01*
X171534661Y-107826012D01*
X171595137Y-107856250D01*
X171716090Y-107856250D01*
X171776566Y-107826012D01*
X171806804Y-107795774D01*
X171837042Y-107735298D01*
X171837042Y-107221250D01*
X172109185Y-107281727D02*
X172139423Y-107251489D01*
X172199899Y-107221250D01*
X172351090Y-107221250D01*
X172411566Y-107251489D01*
X172441804Y-107281727D01*
X172472042Y-107342203D01*
X172472042Y-107402679D01*
X172441804Y-107493393D01*
X172078947Y-107856250D01*
X172472042Y-107856250D01*
%TO.C,SW2*%
X147209933Y-91493823D02*
X147300647Y-91524061D01*
X147451838Y-91524061D01*
X147512314Y-91493823D01*
X147542552Y-91463585D01*
X147572790Y-91403109D01*
X147572790Y-91342633D01*
X147542552Y-91282157D01*
X147512314Y-91251919D01*
X147451838Y-91221680D01*
X147330885Y-91191442D01*
X147270409Y-91161204D01*
X147240171Y-91130966D01*
X147209933Y-91070490D01*
X147209933Y-91010014D01*
X147240171Y-90949538D01*
X147270409Y-90919300D01*
X147330885Y-90889061D01*
X147482076Y-90889061D01*
X147572790Y-90919300D01*
X147784457Y-90889061D02*
X147935647Y-91524061D01*
X148056600Y-91070490D01*
X148177552Y-91524061D01*
X148328742Y-90889061D01*
X148540409Y-90949538D02*
X148570647Y-90919300D01*
X148631123Y-90889061D01*
X148782314Y-90889061D01*
X148842790Y-90919300D01*
X148873028Y-90949538D01*
X148903266Y-91010014D01*
X148903266Y-91070490D01*
X148873028Y-91161204D01*
X148510171Y-91524061D01*
X148903266Y-91524061D01*
%TO.C,R7*%
X175598166Y-115730261D02*
X175386500Y-115427880D01*
X175235309Y-115730261D02*
X175235309Y-115095261D01*
X175477214Y-115095261D01*
X175537690Y-115125500D01*
X175567928Y-115155738D01*
X175598166Y-115216214D01*
X175598166Y-115306928D01*
X175567928Y-115367404D01*
X175537690Y-115397642D01*
X175477214Y-115427880D01*
X175235309Y-115427880D01*
X175809833Y-115095261D02*
X176233166Y-115095261D01*
X175961023Y-115730261D01*
%TO.C,C7*%
X140229166Y-93444785D02*
X140198928Y-93475023D01*
X140108214Y-93505261D01*
X140047738Y-93505261D01*
X139957023Y-93475023D01*
X139896547Y-93414547D01*
X139866309Y-93354071D01*
X139836071Y-93233119D01*
X139836071Y-93142404D01*
X139866309Y-93021452D01*
X139896547Y-92960976D01*
X139957023Y-92900500D01*
X140047738Y-92870261D01*
X140108214Y-92870261D01*
X140198928Y-92900500D01*
X140229166Y-92930738D01*
X140440833Y-92870261D02*
X140864166Y-92870261D01*
X140592023Y-93505261D01*
%TO.C,U1*%
X157123190Y-108228269D02*
X157123190Y-108742317D01*
X157153428Y-108802793D01*
X157183666Y-108833031D01*
X157244142Y-108863269D01*
X157365095Y-108863269D01*
X157425571Y-108833031D01*
X157455809Y-108802793D01*
X157486047Y-108742317D01*
X157486047Y-108228269D01*
X158121047Y-108863269D02*
X157758190Y-108863269D01*
X157939619Y-108863269D02*
X157939619Y-108228269D01*
X157879142Y-108318984D01*
X157818666Y-108379460D01*
X157758190Y-108409698D01*
%TO.C,R6*%
X162962166Y-119386261D02*
X162750500Y-119083880D01*
X162599309Y-119386261D02*
X162599309Y-118751261D01*
X162841214Y-118751261D01*
X162901690Y-118781500D01*
X162931928Y-118811738D01*
X162962166Y-118872214D01*
X162962166Y-118962928D01*
X162931928Y-119023404D01*
X162901690Y-119053642D01*
X162841214Y-119083880D01*
X162599309Y-119083880D01*
X163506452Y-118751261D02*
X163385500Y-118751261D01*
X163325023Y-118781500D01*
X163294785Y-118811738D01*
X163234309Y-118902452D01*
X163204071Y-119023404D01*
X163204071Y-119265309D01*
X163234309Y-119325785D01*
X163264547Y-119356023D01*
X163325023Y-119386261D01*
X163445976Y-119386261D01*
X163506452Y-119356023D01*
X163536690Y-119325785D01*
X163566928Y-119265309D01*
X163566928Y-119114119D01*
X163536690Y-119053642D01*
X163506452Y-119023404D01*
X163445976Y-118993166D01*
X163325023Y-118993166D01*
X163264547Y-119023404D01*
X163234309Y-119053642D01*
X163204071Y-119114119D01*
%TO.C,C14*%
X146530785Y-112367785D02*
X146500547Y-112398023D01*
X146409833Y-112428261D01*
X146349357Y-112428261D01*
X146258642Y-112398023D01*
X146198166Y-112337547D01*
X146167928Y-112277071D01*
X146137690Y-112156119D01*
X146137690Y-112065404D01*
X146167928Y-111944452D01*
X146198166Y-111883976D01*
X146258642Y-111823500D01*
X146349357Y-111793261D01*
X146409833Y-111793261D01*
X146500547Y-111823500D01*
X146530785Y-111853738D01*
X147135547Y-112428261D02*
X146772690Y-112428261D01*
X146954119Y-112428261D02*
X146954119Y-111793261D01*
X146893642Y-111883976D01*
X146833166Y-111944452D01*
X146772690Y-111974690D01*
X147679833Y-112004928D02*
X147679833Y-112428261D01*
X147528642Y-111763023D02*
X147377452Y-112216595D01*
X147770547Y-112216595D01*
%TO.C,R11*%
X146581785Y-115222261D02*
X146370119Y-114919880D01*
X146218928Y-115222261D02*
X146218928Y-114587261D01*
X146460833Y-114587261D01*
X146521309Y-114617500D01*
X146551547Y-114647738D01*
X146581785Y-114708214D01*
X146581785Y-114798928D01*
X146551547Y-114859404D01*
X146521309Y-114889642D01*
X146460833Y-114919880D01*
X146218928Y-114919880D01*
X147186547Y-115222261D02*
X146823690Y-115222261D01*
X147005119Y-115222261D02*
X147005119Y-114587261D01*
X146944642Y-114677976D01*
X146884166Y-114738452D01*
X146823690Y-114768690D01*
X147791309Y-115222261D02*
X147428452Y-115222261D01*
X147609880Y-115222261D02*
X147609880Y-114587261D01*
X147549404Y-114677976D01*
X147488928Y-114738452D01*
X147428452Y-114768690D01*
%TO.C,R15*%
X149098256Y-97944222D02*
X148795875Y-98155888D01*
X149098256Y-98307079D02*
X148463256Y-98307079D01*
X148463256Y-98065174D01*
X148493495Y-98004698D01*
X148523733Y-97974460D01*
X148584209Y-97944222D01*
X148674923Y-97944222D01*
X148735399Y-97974460D01*
X148765637Y-98004698D01*
X148795875Y-98065174D01*
X148795875Y-98307079D01*
X149098256Y-97339460D02*
X149098256Y-97702317D01*
X149098256Y-97520888D02*
X148463256Y-97520888D01*
X148553971Y-97581365D01*
X148614447Y-97641841D01*
X148644685Y-97702317D01*
X148463256Y-96764936D02*
X148463256Y-97067317D01*
X148765637Y-97097555D01*
X148735399Y-97067317D01*
X148705161Y-97006841D01*
X148705161Y-96855650D01*
X148735399Y-96795174D01*
X148765637Y-96764936D01*
X148826114Y-96734698D01*
X148977304Y-96734698D01*
X149037780Y-96764936D01*
X149068018Y-96795174D01*
X149098256Y-96855650D01*
X149098256Y-97006841D01*
X149068018Y-97067317D01*
X149037780Y-97097555D01*
%TO.C,R14*%
X144333266Y-97944214D02*
X144030885Y-98155880D01*
X144333266Y-98307071D02*
X143698266Y-98307071D01*
X143698266Y-98065166D01*
X143728505Y-98004690D01*
X143758743Y-97974452D01*
X143819219Y-97944214D01*
X143909933Y-97944214D01*
X143970409Y-97974452D01*
X144000647Y-98004690D01*
X144030885Y-98065166D01*
X144030885Y-98307071D01*
X144333266Y-97339452D02*
X144333266Y-97702309D01*
X144333266Y-97520880D02*
X143698266Y-97520880D01*
X143788981Y-97581357D01*
X143849457Y-97641833D01*
X143879695Y-97702309D01*
X143909933Y-96795166D02*
X144333266Y-96795166D01*
X143668028Y-96946357D02*
X144121600Y-97097547D01*
X144121600Y-96704452D01*
%TO.C,R10*%
X162405785Y-117735261D02*
X162194119Y-117432880D01*
X162042928Y-117735261D02*
X162042928Y-117100261D01*
X162284833Y-117100261D01*
X162345309Y-117130500D01*
X162375547Y-117160738D01*
X162405785Y-117221214D01*
X162405785Y-117311928D01*
X162375547Y-117372404D01*
X162345309Y-117402642D01*
X162284833Y-117432880D01*
X162042928Y-117432880D01*
X163010547Y-117735261D02*
X162647690Y-117735261D01*
X162829119Y-117735261D02*
X162829119Y-117100261D01*
X162768642Y-117190976D01*
X162708166Y-117251452D01*
X162647690Y-117281690D01*
X163403642Y-117100261D02*
X163464119Y-117100261D01*
X163524595Y-117130500D01*
X163554833Y-117160738D01*
X163585071Y-117221214D01*
X163615309Y-117342166D01*
X163615309Y-117493357D01*
X163585071Y-117614309D01*
X163554833Y-117674785D01*
X163524595Y-117705023D01*
X163464119Y-117735261D01*
X163403642Y-117735261D01*
X163343166Y-117705023D01*
X163312928Y-117674785D01*
X163282690Y-117614309D01*
X163252452Y-117493357D01*
X163252452Y-117342166D01*
X163282690Y-117221214D01*
X163312928Y-117160738D01*
X163343166Y-117130500D01*
X163403642Y-117100261D01*
%TO.C,R2*%
X163089166Y-110623261D02*
X162877500Y-110320880D01*
X162726309Y-110623261D02*
X162726309Y-109988261D01*
X162968214Y-109988261D01*
X163028690Y-110018500D01*
X163058928Y-110048738D01*
X163089166Y-110109214D01*
X163089166Y-110199928D01*
X163058928Y-110260404D01*
X163028690Y-110290642D01*
X162968214Y-110320880D01*
X162726309Y-110320880D01*
X163331071Y-110048738D02*
X163361309Y-110018500D01*
X163421785Y-109988261D01*
X163572976Y-109988261D01*
X163633452Y-110018500D01*
X163663690Y-110048738D01*
X163693928Y-110109214D01*
X163693928Y-110169690D01*
X163663690Y-110260404D01*
X163300833Y-110623261D01*
X163693928Y-110623261D01*
%TO.C,C6*%
X130831166Y-95933985D02*
X130800928Y-95964223D01*
X130710214Y-95994461D01*
X130649738Y-95994461D01*
X130559023Y-95964223D01*
X130498547Y-95903747D01*
X130468309Y-95843271D01*
X130438071Y-95722319D01*
X130438071Y-95631604D01*
X130468309Y-95510652D01*
X130498547Y-95450176D01*
X130559023Y-95389700D01*
X130649738Y-95359461D01*
X130710214Y-95359461D01*
X130800928Y-95389700D01*
X130831166Y-95419938D01*
X131375452Y-95359461D02*
X131254500Y-95359461D01*
X131194023Y-95389700D01*
X131163785Y-95419938D01*
X131103309Y-95510652D01*
X131073071Y-95631604D01*
X131073071Y-95873509D01*
X131103309Y-95933985D01*
X131133547Y-95964223D01*
X131194023Y-95994461D01*
X131314976Y-95994461D01*
X131375452Y-95964223D01*
X131405690Y-95933985D01*
X131435928Y-95873509D01*
X131435928Y-95722319D01*
X131405690Y-95661842D01*
X131375452Y-95631604D01*
X131314976Y-95601366D01*
X131194023Y-95601366D01*
X131133547Y-95631604D01*
X131103309Y-95661842D01*
X131073071Y-95722319D01*
%TO.C,C10*%
X144432785Y-100865214D02*
X144463023Y-100895452D01*
X144493261Y-100986166D01*
X144493261Y-101046642D01*
X144463023Y-101137357D01*
X144402547Y-101197833D01*
X144342071Y-101228071D01*
X144221119Y-101258309D01*
X144130404Y-101258309D01*
X144009452Y-101228071D01*
X143948976Y-101197833D01*
X143888500Y-101137357D01*
X143858261Y-101046642D01*
X143858261Y-100986166D01*
X143888500Y-100895452D01*
X143918738Y-100865214D01*
X144493261Y-100260452D02*
X144493261Y-100623309D01*
X144493261Y-100441880D02*
X143858261Y-100441880D01*
X143948976Y-100502357D01*
X144009452Y-100562833D01*
X144039690Y-100623309D01*
X143858261Y-99867357D02*
X143858261Y-99806880D01*
X143888500Y-99746404D01*
X143918738Y-99716166D01*
X143979214Y-99685928D01*
X144100166Y-99655690D01*
X144251357Y-99655690D01*
X144372309Y-99685928D01*
X144432785Y-99716166D01*
X144463023Y-99746404D01*
X144493261Y-99806880D01*
X144493261Y-99867357D01*
X144463023Y-99927833D01*
X144432785Y-99958071D01*
X144372309Y-99988309D01*
X144251357Y-100018547D01*
X144100166Y-100018547D01*
X143979214Y-99988309D01*
X143918738Y-99958071D01*
X143888500Y-99927833D01*
X143858261Y-99867357D01*
%TO.C,C3*%
X130653366Y-94105185D02*
X130623128Y-94135423D01*
X130532414Y-94165661D01*
X130471938Y-94165661D01*
X130381223Y-94135423D01*
X130320747Y-94074947D01*
X130290509Y-94014471D01*
X130260271Y-93893519D01*
X130260271Y-93802804D01*
X130290509Y-93681852D01*
X130320747Y-93621376D01*
X130381223Y-93560900D01*
X130471938Y-93530661D01*
X130532414Y-93530661D01*
X130623128Y-93560900D01*
X130653366Y-93591138D01*
X130865033Y-93530661D02*
X131258128Y-93530661D01*
X131046461Y-93772566D01*
X131137176Y-93772566D01*
X131197652Y-93802804D01*
X131227890Y-93833042D01*
X131258128Y-93893519D01*
X131258128Y-94044709D01*
X131227890Y-94105185D01*
X131197652Y-94135423D01*
X131137176Y-94165661D01*
X130955747Y-94165661D01*
X130895271Y-94135423D01*
X130865033Y-94105185D01*
%TO.C,J2*%
X155998333Y-104427261D02*
X155998333Y-104880833D01*
X155968095Y-104971547D01*
X155907619Y-105032023D01*
X155816904Y-105062261D01*
X155756428Y-105062261D01*
X156270476Y-104487738D02*
X156300714Y-104457500D01*
X156361190Y-104427261D01*
X156512380Y-104427261D01*
X156572857Y-104457500D01*
X156603095Y-104487738D01*
X156633333Y-104548214D01*
X156633333Y-104608690D01*
X156603095Y-104699404D01*
X156240238Y-105062261D01*
X156633333Y-105062261D01*
D14*
%TO.C,R3*%
X179805000Y-120422936D02*
X179805000Y-120877064D01*
X178335000Y-120422936D02*
X178335000Y-120877064D01*
%TO.C,D1*%
X179805000Y-125691000D02*
X179805000Y-123406000D01*
X178335000Y-125691000D02*
X179805000Y-125691000D01*
X178335000Y-123406000D02*
X178335000Y-125691000D01*
%TO.C,C15*%
X149619580Y-109349000D02*
X149338420Y-109349000D01*
X149619580Y-108329000D02*
X149338420Y-108329000D01*
%TO.C,R12*%
X149767258Y-116981500D02*
X149292742Y-116981500D01*
X149767258Y-115936500D02*
X149292742Y-115936500D01*
%TO.C,U3*%
X136414000Y-92272000D02*
X138154000Y-92272000D01*
X136674000Y-94672000D02*
X138154000Y-94672000D01*
%TO.C,C13*%
X146230748Y-101881000D02*
X146753252Y-101881000D01*
X146230748Y-103351000D02*
X146753252Y-103351000D01*
%TO.C,C12*%
X149606580Y-111000000D02*
X149325420Y-111000000D01*
X149606580Y-109980000D02*
X149325420Y-109980000D01*
%TO.C,C17*%
X165213420Y-115287000D02*
X165494580Y-115287000D01*
X165213420Y-116307000D02*
X165494580Y-116307000D01*
%TO.C,FB1*%
X149993164Y-113898000D02*
X150208836Y-113898000D01*
X149993164Y-113178000D02*
X150208836Y-113178000D01*
%TO.C,C11*%
X165092748Y-111506000D02*
X165615252Y-111506000D01*
X165092748Y-112976000D02*
X165615252Y-112976000D01*
%TO.C,R9*%
X173657500Y-118507742D02*
X173657500Y-118982258D01*
X174702500Y-118507742D02*
X174702500Y-118982258D01*
%TO.C,REF\u002A\u002A*%
X181658600Y-113286200D02*
X181658600Y-110386200D01*
X184558600Y-113286200D02*
X181658600Y-113286200D01*
X181658600Y-110386200D02*
X184558600Y-110386200D01*
X184558600Y-110386200D02*
X184558600Y-113286200D01*
%TO.C,R8*%
X168387500Y-105717742D02*
X168387500Y-106192258D01*
X169432500Y-105717742D02*
X169432500Y-106192258D01*
D10*
%TO.C,SW1*%
X164100400Y-122050400D02*
X167420400Y-122050400D01*
X161510400Y-125650400D02*
X161510400Y-122050400D01*
X164880400Y-125650400D02*
X161510400Y-125650400D01*
X170010400Y-125650400D02*
X166640400Y-125650400D01*
X170010400Y-122050400D02*
X170010400Y-125650400D01*
D14*
%TO.C,R5*%
X165591258Y-109207500D02*
X165116742Y-109207500D01*
X165591258Y-108162500D02*
X165116742Y-108162500D01*
%TO.C,C5*%
X166356420Y-106334000D02*
X166637580Y-106334000D01*
X166356420Y-107354000D02*
X166637580Y-107354000D01*
%TO.C,L1*%
X139071000Y-97219000D02*
X140828510Y-98976510D01*
X135757000Y-105219000D02*
X133999490Y-103461490D01*
X139071000Y-105219000D02*
X140828510Y-103461490D01*
X135757000Y-105219000D02*
X139071000Y-105219000D01*
X135757000Y-97219000D02*
X139071000Y-97219000D01*
X135757000Y-97219000D02*
X133999490Y-98976510D01*
%TO.C,TP2*%
X129470000Y-99060000D02*
G75*
G03*
X129470000Y-99060000I-1200000J0D01*
G01*
%TO.C,TP5*%
X161855000Y-118491000D02*
G75*
G03*
X161855000Y-118491000I-1200000J0D01*
G01*
%TO.C,R1*%
X149228742Y-106665500D02*
X149703258Y-106665500D01*
X149228742Y-107710500D02*
X149703258Y-107710500D01*
%TO.C,TP7*%
X163760000Y-93345000D02*
G75*
G03*
X163760000Y-93345000I-1200000J0D01*
G01*
%TO.C,C2*%
X133484252Y-92556000D02*
X132961748Y-92556000D01*
X133484252Y-91086000D02*
X132961748Y-91086000D01*
%TO.C,C16*%
X146230748Y-105510000D02*
X146753252Y-105510000D01*
X146230748Y-104040000D02*
X146753252Y-104040000D01*
%TO.C,R13*%
X149843258Y-118632500D02*
X149368742Y-118632500D01*
X149843258Y-117587500D02*
X149368742Y-117587500D01*
%TO.C,C1*%
X170118000Y-118604420D02*
X170118000Y-118885580D01*
X169098000Y-118604420D02*
X169098000Y-118885580D01*
%TO.C,J1*%
X180383401Y-102940002D02*
X184534994Y-102940002D01*
X170104994Y-102940002D02*
X178186570Y-102940002D01*
X178186571Y-92640022D02*
X170104994Y-92640022D01*
X184534994Y-102940002D02*
X184534994Y-92640022D01*
X184534994Y-92640022D02*
X180383401Y-92640022D01*
X170104994Y-92640022D02*
X170104994Y-102940002D01*
%TO.C,D2*%
X172894000Y-116495000D02*
X170894000Y-116495000D01*
X170894000Y-116495000D02*
X170894000Y-120395000D01*
X172894000Y-116495000D02*
X172894000Y-120395000D01*
%TO.C,C8*%
X177510000Y-123367428D02*
X177510000Y-123648588D01*
X176490000Y-123367428D02*
X176490000Y-123648588D01*
%TO.C,R4*%
X170005742Y-115965500D02*
X170480258Y-115965500D01*
X170005742Y-114920500D02*
X170480258Y-114920500D01*
%TO.C,REF\u002A\u002A*%
X181658600Y-105153800D02*
X184558600Y-105153800D01*
X184558600Y-105153800D02*
X184558600Y-108053800D01*
X181658600Y-108053800D02*
X181658600Y-105153800D01*
X184558600Y-108053800D02*
X181658600Y-108053800D01*
%TO.C,TP3*%
X183445000Y-121285000D02*
G75*
G03*
X183445000Y-121285000I-1200000J0D01*
G01*
%TO.C,C4*%
X166356420Y-104683000D02*
X166637580Y-104683000D01*
X166356420Y-105703000D02*
X166637580Y-105703000D01*
%TO.C,C9*%
X137273420Y-95502000D02*
X137554580Y-95502000D01*
X137273420Y-96522000D02*
X137554580Y-96522000D01*
%TO.C,J3*%
X147337000Y-121618000D02*
X157367000Y-121618000D01*
X147337000Y-121118000D02*
X147337000Y-121618000D01*
X147357000Y-121118000D02*
X147337000Y-121118000D01*
X157367000Y-121618000D02*
X157367000Y-121118000D01*
X157367000Y-121118000D02*
X157347000Y-121118000D01*
X145917000Y-125708000D02*
X158787000Y-125708000D01*
X158787000Y-125708000D02*
X158787000Y-122633000D01*
X145917000Y-122633000D02*
X145917000Y-125708000D01*
%TO.C,C18*%
X165223220Y-113680200D02*
X165504380Y-113680200D01*
X165223220Y-114700200D02*
X165504380Y-114700200D01*
%TO.C,TP6*%
X144075000Y-109220000D02*
G75*
G03*
X144075000Y-109220000I-1200000J0D01*
G01*
%TO.C,D3*%
X169282000Y-101594000D02*
X169282000Y-95894000D01*
X164982000Y-101594000D02*
X169282000Y-101594000D01*
X164982000Y-101594000D02*
X164982000Y-95894000D01*
%TO.C,G\u002A\u002A\u002A*%
G36*
X133553200Y-117944900D02*
G01*
X135686800Y-117944900D01*
X135686800Y-117189250D01*
X136036050Y-117189250D01*
X136036050Y-119126000D01*
X135686800Y-119126000D01*
X135686800Y-118370350D01*
X133553200Y-118370350D01*
X133553200Y-119126000D01*
X133203950Y-119126000D01*
X133203950Y-117189250D01*
X133553200Y-117189250D01*
X133553200Y-117944900D01*
G37*
D15*
X133553200Y-117944900D02*
X135686800Y-117944900D01*
X135686800Y-117189250D01*
X136036050Y-117189250D01*
X136036050Y-119126000D01*
X135686800Y-119126000D01*
X135686800Y-118370350D01*
X133553200Y-118370350D01*
X133553200Y-119126000D01*
X133203950Y-119126000D01*
X133203950Y-117189250D01*
X133553200Y-117189250D01*
X133553200Y-117944900D01*
G36*
X137618787Y-117189286D02*
G01*
X137776473Y-117189323D01*
X137925169Y-117189422D01*
X138064603Y-117189582D01*
X138194505Y-117189803D01*
X138314602Y-117190082D01*
X138424625Y-117190419D01*
X138524301Y-117190812D01*
X138613360Y-117191259D01*
X138691530Y-117191760D01*
X138758540Y-117192313D01*
X138814118Y-117192917D01*
X138857994Y-117193571D01*
X138889897Y-117194273D01*
X138909554Y-117195022D01*
X138915775Y-117195555D01*
X138969966Y-117210699D01*
X139020887Y-117237254D01*
X139067412Y-117274114D01*
X139108416Y-117320173D01*
X139142776Y-117374325D01*
X139169368Y-117435464D01*
X139174019Y-117449600D01*
X139177527Y-117461165D01*
X139180432Y-117472085D01*
X139182790Y-117483641D01*
X139184660Y-117497112D01*
X139186097Y-117513777D01*
X139187159Y-117534916D01*
X139187902Y-117561809D01*
X139188383Y-117595736D01*
X139188659Y-117637977D01*
X139188786Y-117689811D01*
X139188823Y-117752517D01*
X139188825Y-117782975D01*
X139188810Y-117850712D01*
X139188730Y-117907029D01*
X139188526Y-117953205D01*
X139188141Y-117990519D01*
X139187519Y-118020250D01*
X139186603Y-118043678D01*
X139185334Y-118062083D01*
X139183657Y-118076742D01*
X139181515Y-118088937D01*
X139178849Y-118099945D01*
X139175604Y-118111048D01*
X139173960Y-118116350D01*
X139149303Y-118179334D01*
X139117415Y-118234665D01*
X139079241Y-118281126D01*
X139035725Y-118317501D01*
X139003406Y-118335929D01*
X138983610Y-118346342D01*
X138969367Y-118355905D01*
X138963722Y-118362570D01*
X138963718Y-118362630D01*
X138965529Y-118369986D01*
X138970859Y-118388381D01*
X138979378Y-118416750D01*
X138990760Y-118454030D01*
X139004676Y-118499156D01*
X139020796Y-118551063D01*
X139038794Y-118608687D01*
X139058341Y-118670965D01*
X139079108Y-118736831D01*
X139080875Y-118742421D01*
X139101722Y-118808469D01*
X139121387Y-118870959D01*
X139139542Y-118928833D01*
X139155857Y-118981036D01*
X139170003Y-119026510D01*
X139181653Y-119064199D01*
X139190477Y-119093046D01*
X139196148Y-119111993D01*
X139198335Y-119119985D01*
X139198350Y-119120129D01*
X139192145Y-119121931D01*
X139174098Y-119123317D01*
X139145063Y-119124265D01*
X139105890Y-119124753D01*
X139057434Y-119124760D01*
X139022917Y-119124512D01*
X138847484Y-119122825D01*
X138713354Y-118746720D01*
X138579225Y-118370615D01*
X137644187Y-118370482D01*
X136709150Y-118370350D01*
X136709150Y-119126000D01*
X136359900Y-119126000D01*
X136359900Y-117944900D01*
X136709150Y-117944900D01*
X137714758Y-117944900D01*
X137862100Y-117944858D01*
X137998898Y-117944734D01*
X138124969Y-117944530D01*
X138240129Y-117944245D01*
X138344195Y-117943882D01*
X138436984Y-117943441D01*
X138518315Y-117942923D01*
X138588003Y-117942330D01*
X138645865Y-117941663D01*
X138691720Y-117940923D01*
X138725383Y-117940110D01*
X138746672Y-117939227D01*
X138754570Y-117938489D01*
X138788248Y-117928735D01*
X138813131Y-117912744D01*
X138832431Y-117888418D01*
X138833225Y-117887086D01*
X138838806Y-117875806D01*
X138842504Y-117862665D01*
X138844681Y-117844868D01*
X138845700Y-117819624D01*
X138845925Y-117789151D01*
X138845689Y-117755743D01*
X138844668Y-117731881D01*
X138842387Y-117714417D01*
X138838371Y-117700202D01*
X138832148Y-117686087D01*
X138829677Y-117681201D01*
X138809029Y-117651522D01*
X138788402Y-117635441D01*
X138763375Y-117621258D01*
X137736262Y-117621154D01*
X136709150Y-117621050D01*
X136709150Y-117944900D01*
X136359900Y-117944900D01*
X136359900Y-117189250D01*
X137618787Y-117189286D01*
G37*
X137618787Y-117189286D02*
X137776473Y-117189323D01*
X137925169Y-117189422D01*
X138064603Y-117189582D01*
X138194505Y-117189803D01*
X138314602Y-117190082D01*
X138424625Y-117190419D01*
X138524301Y-117190812D01*
X138613360Y-117191259D01*
X138691530Y-117191760D01*
X138758540Y-117192313D01*
X138814118Y-117192917D01*
X138857994Y-117193571D01*
X138889897Y-117194273D01*
X138909554Y-117195022D01*
X138915775Y-117195555D01*
X138969966Y-117210699D01*
X139020887Y-117237254D01*
X139067412Y-117274114D01*
X139108416Y-117320173D01*
X139142776Y-117374325D01*
X139169368Y-117435464D01*
X139174019Y-117449600D01*
X139177527Y-117461165D01*
X139180432Y-117472085D01*
X139182790Y-117483641D01*
X139184660Y-117497112D01*
X139186097Y-117513777D01*
X139187159Y-117534916D01*
X139187902Y-117561809D01*
X139188383Y-117595736D01*
X139188659Y-117637977D01*
X139188786Y-117689811D01*
X139188823Y-117752517D01*
X139188825Y-117782975D01*
X139188810Y-117850712D01*
X139188730Y-117907029D01*
X139188526Y-117953205D01*
X139188141Y-117990519D01*
X139187519Y-118020250D01*
X139186603Y-118043678D01*
X139185334Y-118062083D01*
X139183657Y-118076742D01*
X139181515Y-118088937D01*
X139178849Y-118099945D01*
X139175604Y-118111048D01*
X139173960Y-118116350D01*
X139149303Y-118179334D01*
X139117415Y-118234665D01*
X139079241Y-118281126D01*
X139035725Y-118317501D01*
X139003406Y-118335929D01*
X138983610Y-118346342D01*
X138969367Y-118355905D01*
X138963722Y-118362570D01*
X138963718Y-118362630D01*
X138965529Y-118369986D01*
X138970859Y-118388381D01*
X138979378Y-118416750D01*
X138990760Y-118454030D01*
X139004676Y-118499156D01*
X139020796Y-118551063D01*
X139038794Y-118608687D01*
X139058341Y-118670965D01*
X139079108Y-118736831D01*
X139080875Y-118742421D01*
X139101722Y-118808469D01*
X139121387Y-118870959D01*
X139139542Y-118928833D01*
X139155857Y-118981036D01*
X139170003Y-119026510D01*
X139181653Y-119064199D01*
X139190477Y-119093046D01*
X139196148Y-119111993D01*
X139198335Y-119119985D01*
X139198350Y-119120129D01*
X139192145Y-119121931D01*
X139174098Y-119123317D01*
X139145063Y-119124265D01*
X139105890Y-119124753D01*
X139057434Y-119124760D01*
X139022917Y-119124512D01*
X138847484Y-119122825D01*
X138713354Y-118746720D01*
X138579225Y-118370615D01*
X137644187Y-118370482D01*
X136709150Y-118370350D01*
X136709150Y-119126000D01*
X136359900Y-119126000D01*
X136359900Y-117944900D01*
X136709150Y-117944900D01*
X137714758Y-117944900D01*
X137862100Y-117944858D01*
X137998898Y-117944734D01*
X138124969Y-117944530D01*
X138240129Y-117944245D01*
X138344195Y-117943882D01*
X138436984Y-117943441D01*
X138518315Y-117942923D01*
X138588003Y-117942330D01*
X138645865Y-117941663D01*
X138691720Y-117940923D01*
X138725383Y-117940110D01*
X138746672Y-117939227D01*
X138754570Y-117938489D01*
X138788248Y-117928735D01*
X138813131Y-117912744D01*
X138832431Y-117888418D01*
X138833225Y-117887086D01*
X138838806Y-117875806D01*
X138842504Y-117862665D01*
X138844681Y-117844868D01*
X138845700Y-117819624D01*
X138845925Y-117789151D01*
X138845689Y-117755743D01*
X138844668Y-117731881D01*
X138842387Y-117714417D01*
X138838371Y-117700202D01*
X138832148Y-117686087D01*
X138829677Y-117681201D01*
X138809029Y-117651522D01*
X138788402Y-117635441D01*
X138763375Y-117621258D01*
X137736262Y-117621154D01*
X136709150Y-117621050D01*
X136709150Y-117944900D01*
X136359900Y-117944900D01*
X136359900Y-117189250D01*
X137618787Y-117189286D01*
G36*
X128870721Y-117828241D02*
G01*
X128894938Y-117695923D01*
X128929621Y-117566805D01*
X128975221Y-117439006D01*
X129032187Y-117310645D01*
X129053154Y-117268630D01*
X129126639Y-117138947D01*
X129210914Y-117015425D01*
X129305273Y-116898828D01*
X129409010Y-116789921D01*
X129521419Y-116689467D01*
X129641793Y-116598231D01*
X129720680Y-116546278D01*
X129843014Y-116477036D01*
X129972827Y-116416565D01*
X130107502Y-116365930D01*
X130244423Y-116326196D01*
X130284429Y-116316809D01*
X130305625Y-116312045D01*
X130324778Y-116307693D01*
X130342513Y-116303733D01*
X130359454Y-116300144D01*
X130376228Y-116296906D01*
X130393458Y-116293999D01*
X130411769Y-116291404D01*
X130431787Y-116289099D01*
X130454136Y-116287065D01*
X130479442Y-116285281D01*
X130508328Y-116283727D01*
X130541420Y-116282384D01*
X130579344Y-116281231D01*
X130622723Y-116280247D01*
X130672182Y-116279413D01*
X130728348Y-116278708D01*
X130791843Y-116278113D01*
X130863294Y-116277606D01*
X130943326Y-116277169D01*
X131032562Y-116276780D01*
X131131629Y-116276420D01*
X131241150Y-116276069D01*
X131361751Y-116275706D01*
X131494057Y-116275310D01*
X131578216Y-116275053D01*
X132667107Y-116271675D01*
X132800895Y-115858925D01*
X132934684Y-115446175D01*
X133577317Y-115444557D01*
X133666481Y-115444366D01*
X133751977Y-115444250D01*
X133832962Y-115444204D01*
X133908589Y-115444228D01*
X133978013Y-115444319D01*
X134040390Y-115444473D01*
X134094875Y-115444689D01*
X134140621Y-115444963D01*
X134176785Y-115445295D01*
X134202521Y-115445680D01*
X134216984Y-115446117D01*
X134219950Y-115446447D01*
X134218055Y-115452762D01*
X134212631Y-115469954D01*
X134204066Y-115496819D01*
X134192749Y-115532154D01*
X134179070Y-115574754D01*
X134163416Y-115623418D01*
X134146176Y-115676940D01*
X134127740Y-115734118D01*
X134108497Y-115793747D01*
X134088835Y-115854625D01*
X134069143Y-115915548D01*
X134049810Y-115975311D01*
X134031224Y-116032712D01*
X134013776Y-116086548D01*
X133997853Y-116135613D01*
X133983844Y-116178706D01*
X133972138Y-116214621D01*
X133963125Y-116242157D01*
X133957193Y-116260108D01*
X133954841Y-116266992D01*
X133956374Y-116269140D01*
X133963437Y-116270846D01*
X133977047Y-116272136D01*
X133998221Y-116273041D01*
X134027976Y-116273588D01*
X134067329Y-116273805D01*
X134117296Y-116273722D01*
X134178893Y-116273366D01*
X134182230Y-116273342D01*
X134412631Y-116271675D01*
X134896225Y-114776387D01*
X135698600Y-114776318D01*
X136500976Y-114776250D01*
X136497309Y-114790537D01*
X136495056Y-114797776D01*
X136489184Y-114816195D01*
X136479984Y-114844889D01*
X136467749Y-114882955D01*
X136452771Y-114929490D01*
X136435341Y-114983590D01*
X136415752Y-115044352D01*
X136394295Y-115110873D01*
X136371262Y-115182248D01*
X136346946Y-115257574D01*
X136321639Y-115335948D01*
X136295632Y-115416466D01*
X136269217Y-115498225D01*
X136242686Y-115580321D01*
X136216332Y-115661851D01*
X136190446Y-115741912D01*
X136165320Y-115819599D01*
X136141246Y-115894009D01*
X136118516Y-115964239D01*
X136097422Y-116029385D01*
X136078257Y-116088544D01*
X136061311Y-116140813D01*
X136046878Y-116185287D01*
X136035248Y-116221063D01*
X136026714Y-116247239D01*
X136021568Y-116262909D01*
X136020194Y-116266991D01*
X136021774Y-116269142D01*
X136028892Y-116270848D01*
X136042566Y-116272140D01*
X136063813Y-116273044D01*
X136093651Y-116273589D01*
X136133098Y-116273804D01*
X136183172Y-116273718D01*
X136244891Y-116273358D01*
X136247223Y-116273341D01*
X136477108Y-116271675D01*
X136744684Y-115446175D01*
X137387317Y-115444557D01*
X137476481Y-115444366D01*
X137561977Y-115444250D01*
X137642962Y-115444204D01*
X137718589Y-115444228D01*
X137788013Y-115444319D01*
X137850390Y-115444473D01*
X137904875Y-115444689D01*
X137950621Y-115444963D01*
X137986785Y-115445295D01*
X138012521Y-115445680D01*
X138026984Y-115446117D01*
X138029950Y-115446447D01*
X138028055Y-115452761D01*
X138022631Y-115469951D01*
X138014067Y-115496814D01*
X138002750Y-115532148D01*
X137989071Y-115574747D01*
X137973418Y-115623408D01*
X137956179Y-115676928D01*
X137937744Y-115734104D01*
X137918502Y-115793730D01*
X137898841Y-115854605D01*
X137879151Y-115915524D01*
X137859819Y-115975284D01*
X137841236Y-116032681D01*
X137823789Y-116086511D01*
X137807869Y-116135571D01*
X137793862Y-116178657D01*
X137782160Y-116214566D01*
X137773149Y-116242094D01*
X137767220Y-116260037D01*
X137764872Y-116266912D01*
X137766621Y-116268476D01*
X137773606Y-116269834D01*
X137786550Y-116270998D01*
X137806177Y-116271981D01*
X137833211Y-116272795D01*
X137868375Y-116273453D01*
X137912392Y-116273968D01*
X137965987Y-116274352D01*
X138029882Y-116274618D01*
X138104801Y-116274778D01*
X138191468Y-116274846D01*
X138221397Y-116274849D01*
X138314544Y-116274898D01*
X138395957Y-116275053D01*
X138466602Y-116275333D01*
X138527446Y-116275755D01*
X138579454Y-116276335D01*
X138623592Y-116277092D01*
X138660826Y-116278042D01*
X138692122Y-116279202D01*
X138718446Y-116280589D01*
X138740764Y-116282221D01*
X138760042Y-116284114D01*
X138763008Y-116284454D01*
X138915728Y-116308534D01*
X139063907Y-116344434D01*
X139207221Y-116391995D01*
X139345353Y-116451060D01*
X139477979Y-116521469D01*
X139604781Y-116603066D01*
X139725438Y-116695691D01*
X139839628Y-116799187D01*
X139871632Y-116831360D01*
X139971607Y-116942388D01*
X140060326Y-117058395D01*
X140138659Y-117180590D01*
X140186845Y-117268630D01*
X140247590Y-117397575D01*
X140296823Y-117525351D01*
X140334993Y-117653836D01*
X140362552Y-117784911D01*
X140379948Y-117920458D01*
X140387631Y-118062357D01*
X140388112Y-118110000D01*
X140383479Y-118254359D01*
X140369278Y-118391758D01*
X140345061Y-118524076D01*
X140310378Y-118653194D01*
X140264778Y-118780993D01*
X140207812Y-118909354D01*
X140186845Y-118951369D01*
X140113360Y-119081052D01*
X140029085Y-119204574D01*
X139934726Y-119321171D01*
X139830989Y-119430078D01*
X139718580Y-119530532D01*
X139598206Y-119621768D01*
X139519319Y-119673721D01*
X139396985Y-119742963D01*
X139267172Y-119803434D01*
X139132497Y-119854069D01*
X138995576Y-119893803D01*
X138955570Y-119903190D01*
X138934373Y-119907954D01*
X138915219Y-119912306D01*
X138897484Y-119916267D01*
X138880542Y-119919856D01*
X138863768Y-119923094D01*
X138846537Y-119926000D01*
X138828225Y-119928596D01*
X138808206Y-119930901D01*
X138785856Y-119932935D01*
X138760549Y-119934719D01*
X138731661Y-119936272D01*
X138698567Y-119937616D01*
X138660642Y-119938769D01*
X138617261Y-119939753D01*
X138567799Y-119940587D01*
X138511631Y-119941291D01*
X138448132Y-119941887D01*
X138376677Y-119942393D01*
X138296641Y-119942830D01*
X138207400Y-119943219D01*
X138108329Y-119943579D01*
X137998801Y-119943930D01*
X137878194Y-119944294D01*
X137745881Y-119944689D01*
X137661874Y-119944946D01*
X136573073Y-119948325D01*
X136305523Y-120773825D01*
X135662786Y-120775442D01*
X135573615Y-120775633D01*
X135488111Y-120775749D01*
X135407119Y-120775795D01*
X135331484Y-120775771D01*
X135262051Y-120775681D01*
X135199666Y-120775526D01*
X135145173Y-120775311D01*
X135099417Y-120775036D01*
X135063243Y-120774704D01*
X135037497Y-120774319D01*
X135023023Y-120773882D01*
X135020050Y-120773552D01*
X135021944Y-120767237D01*
X135027368Y-120750045D01*
X135035933Y-120723180D01*
X135047250Y-120687845D01*
X135060929Y-120645245D01*
X135076583Y-120596581D01*
X135093823Y-120543059D01*
X135112259Y-120485881D01*
X135131502Y-120426252D01*
X135151164Y-120365374D01*
X135170856Y-120304451D01*
X135190189Y-120244688D01*
X135208775Y-120187287D01*
X135226223Y-120133451D01*
X135242146Y-120084386D01*
X135256155Y-120041293D01*
X135267861Y-120005378D01*
X135276874Y-119977842D01*
X135282806Y-119959891D01*
X135285158Y-119953007D01*
X135283626Y-119950858D01*
X135276562Y-119949152D01*
X135262950Y-119947861D01*
X135241772Y-119946957D01*
X135212012Y-119946410D01*
X135172653Y-119946193D01*
X135122676Y-119946278D01*
X135061066Y-119946635D01*
X135057948Y-119946657D01*
X134827727Y-119948325D01*
X134343775Y-121443717D01*
X133541399Y-121443733D01*
X132739023Y-121443750D01*
X132742676Y-121429462D01*
X132744912Y-121422286D01*
X132750768Y-121403930D01*
X132759951Y-121375298D01*
X132772171Y-121337291D01*
X132787135Y-121290814D01*
X132804551Y-121236768D01*
X132824128Y-121176058D01*
X132845574Y-121109585D01*
X132868598Y-121038253D01*
X132892906Y-120962964D01*
X132918207Y-120884622D01*
X132944211Y-120804129D01*
X132970624Y-120722389D01*
X132997155Y-120640304D01*
X133023512Y-120558777D01*
X133049403Y-120478711D01*
X133074537Y-120401009D01*
X133098622Y-120326575D01*
X133121365Y-120256309D01*
X133142476Y-120191117D01*
X133161661Y-120131900D01*
X133178630Y-120079562D01*
X133193091Y-120035005D01*
X133204752Y-119999132D01*
X133213320Y-119972847D01*
X133218504Y-119957052D01*
X133219862Y-119953008D01*
X133218264Y-119950857D01*
X133211127Y-119949150D01*
X133197434Y-119947859D01*
X133176165Y-119946955D01*
X133146302Y-119946410D01*
X133106829Y-119946195D01*
X133056725Y-119946282D01*
X132994974Y-119946643D01*
X132992853Y-119946658D01*
X132763045Y-119948325D01*
X132495647Y-120773825D01*
X131852848Y-120775442D01*
X131763673Y-120775633D01*
X131678164Y-120775749D01*
X131597167Y-120775795D01*
X131521528Y-120775771D01*
X131452091Y-120775681D01*
X131389700Y-120775526D01*
X131335202Y-120775311D01*
X131289441Y-120775036D01*
X131253261Y-120774705D01*
X131227508Y-120774319D01*
X131213028Y-120773882D01*
X131210050Y-120773552D01*
X131211944Y-120767238D01*
X131217368Y-120750048D01*
X131225932Y-120723185D01*
X131237249Y-120687851D01*
X131250928Y-120645252D01*
X131266581Y-120596591D01*
X131283820Y-120543071D01*
X131302255Y-120485895D01*
X131321497Y-120426269D01*
X131341158Y-120365394D01*
X131360848Y-120304475D01*
X131380180Y-120244715D01*
X131398763Y-120187318D01*
X131416210Y-120133488D01*
X131432130Y-120084428D01*
X131446137Y-120041342D01*
X131457839Y-120005433D01*
X131466850Y-119977905D01*
X131472779Y-119959962D01*
X131475127Y-119953087D01*
X131473378Y-119951523D01*
X131466393Y-119950165D01*
X131453449Y-119949001D01*
X131433822Y-119948018D01*
X131406788Y-119947204D01*
X131371624Y-119946546D01*
X131327607Y-119946031D01*
X131274012Y-119945647D01*
X131210117Y-119945381D01*
X131135198Y-119945221D01*
X131048531Y-119945153D01*
X131018602Y-119945150D01*
X130925455Y-119945101D01*
X130844042Y-119944946D01*
X130773397Y-119944666D01*
X130712553Y-119944244D01*
X130660545Y-119943664D01*
X130616407Y-119942907D01*
X130579173Y-119941957D01*
X130547877Y-119940797D01*
X130521553Y-119939410D01*
X130499235Y-119937778D01*
X130479957Y-119935885D01*
X130476991Y-119935545D01*
X130324271Y-119911465D01*
X130176092Y-119875565D01*
X130032778Y-119828004D01*
X129894646Y-119768939D01*
X129762020Y-119698530D01*
X129635218Y-119616933D01*
X129514561Y-119524308D01*
X129400371Y-119420812D01*
X129368367Y-119388639D01*
X129268392Y-119277611D01*
X129179673Y-119161604D01*
X129101340Y-119039409D01*
X129053154Y-118951369D01*
X128992409Y-118822424D01*
X128943176Y-118694648D01*
X128905006Y-118566163D01*
X128877447Y-118435088D01*
X128860051Y-118299541D01*
X128852368Y-118157642D01*
X128851887Y-118110000D01*
X128962150Y-118110000D01*
X128967836Y-118254292D01*
X128985064Y-118394548D01*
X129014081Y-118531823D01*
X129055139Y-118667177D01*
X129108487Y-118801666D01*
X129142922Y-118875175D01*
X129213264Y-119003466D01*
X129294096Y-119124872D01*
X129384917Y-119238871D01*
X129485227Y-119344939D01*
X129594523Y-119442554D01*
X129712305Y-119531193D01*
X129838073Y-119610333D01*
X129858781Y-119622011D01*
X129978689Y-119681912D01*
X130105979Y-119732956D01*
X130238298Y-119774439D01*
X130373291Y-119805660D01*
X130508604Y-119825916D01*
X130556579Y-119830360D01*
X130566600Y-119830645D01*
X130588977Y-119830922D01*
X130623365Y-119831193D01*
X130669419Y-119831456D01*
X130726795Y-119831711D01*
X130795149Y-119831958D01*
X130874136Y-119832197D01*
X130963411Y-119832426D01*
X131062630Y-119832647D01*
X131171449Y-119832857D01*
X131289523Y-119833058D01*
X131416507Y-119833249D01*
X131552057Y-119833429D01*
X131695829Y-119833598D01*
X131847478Y-119833755D01*
X132006659Y-119833901D01*
X132173029Y-119834035D01*
X132346242Y-119834156D01*
X132525954Y-119834265D01*
X132711820Y-119834360D01*
X132903497Y-119834442D01*
X133100639Y-119834510D01*
X133302902Y-119834564D01*
X133509942Y-119834604D01*
X133721413Y-119834628D01*
X133936972Y-119834638D01*
X134156275Y-119834631D01*
X134378975Y-119834609D01*
X134604730Y-119834571D01*
X134661275Y-119834559D01*
X134932960Y-119834497D01*
X135192241Y-119834435D01*
X135439412Y-119834372D01*
X135674767Y-119834307D01*
X135898602Y-119834239D01*
X136111212Y-119834168D01*
X136312891Y-119834092D01*
X136503934Y-119834011D01*
X136684636Y-119833923D01*
X136855293Y-119833828D01*
X137016198Y-119833726D01*
X137167647Y-119833615D01*
X137309935Y-119833494D01*
X137443357Y-119833362D01*
X137568207Y-119833219D01*
X137684781Y-119833064D01*
X137793373Y-119832895D01*
X137894278Y-119832713D01*
X137987792Y-119832515D01*
X138074208Y-119832302D01*
X138153823Y-119832072D01*
X138226930Y-119831825D01*
X138293825Y-119831559D01*
X138354803Y-119831275D01*
X138410158Y-119830970D01*
X138460186Y-119830644D01*
X138505181Y-119830296D01*
X138545439Y-119829926D01*
X138581253Y-119829532D01*
X138612920Y-119829114D01*
X138640733Y-119828671D01*
X138664988Y-119828201D01*
X138685981Y-119827704D01*
X138704004Y-119827180D01*
X138719354Y-119826627D01*
X138732326Y-119826044D01*
X138743214Y-119825430D01*
X138752313Y-119824786D01*
X138759918Y-119824109D01*
X138766324Y-119823399D01*
X138771827Y-119822655D01*
X138772900Y-119822494D01*
X138890880Y-119801102D01*
X139004645Y-119773852D01*
X139111276Y-119741505D01*
X139180975Y-119715895D01*
X139316602Y-119655207D01*
X139445401Y-119584099D01*
X139566890Y-119503104D01*
X139680583Y-119412752D01*
X139785998Y-119313576D01*
X139882651Y-119206105D01*
X139970058Y-119090873D01*
X140047736Y-118968410D01*
X140115200Y-118839247D01*
X140171967Y-118703916D01*
X140211666Y-118583677D01*
X140245075Y-118446391D01*
X140266831Y-118305555D01*
X140276934Y-118162667D01*
X140275385Y-118019230D01*
X140262184Y-117876741D01*
X140237330Y-117736702D01*
X140211666Y-117636322D01*
X140166119Y-117501143D01*
X140109388Y-117369651D01*
X140042238Y-117243075D01*
X139965434Y-117122643D01*
X139879741Y-117009583D01*
X139785922Y-116905123D01*
X139712700Y-116834964D01*
X139596009Y-116738492D01*
X139473636Y-116653374D01*
X139345665Y-116579647D01*
X139212180Y-116517351D01*
X139073266Y-116466522D01*
X138929005Y-116427200D01*
X138779484Y-116399422D01*
X138741150Y-116394269D01*
X138730038Y-116393678D01*
X138706641Y-116393106D01*
X138671373Y-116392554D01*
X138624648Y-116392022D01*
X138566882Y-116391509D01*
X138498489Y-116391016D01*
X138419883Y-116390543D01*
X138331479Y-116390089D01*
X138233691Y-116389655D01*
X138126934Y-116389240D01*
X138011623Y-116388845D01*
X137888171Y-116388470D01*
X137756995Y-116388114D01*
X137618507Y-116387778D01*
X137473123Y-116387461D01*
X137321258Y-116387164D01*
X137163325Y-116386887D01*
X136999740Y-116386630D01*
X136830916Y-116386392D01*
X136657269Y-116386173D01*
X136479213Y-116385974D01*
X136297163Y-116385795D01*
X136111533Y-116385635D01*
X135922737Y-116385496D01*
X135731191Y-116385375D01*
X135537308Y-116385274D01*
X135341503Y-116385193D01*
X135144192Y-116385132D01*
X134945788Y-116385090D01*
X134746705Y-116385068D01*
X134547360Y-116385065D01*
X134348165Y-116385082D01*
X134149536Y-116385118D01*
X133951887Y-116385175D01*
X133755633Y-116385250D01*
X133561188Y-116385346D01*
X133368967Y-116385461D01*
X133179384Y-116385596D01*
X132992854Y-116385750D01*
X132809791Y-116385924D01*
X132630611Y-116386117D01*
X132455727Y-116386330D01*
X132285554Y-116386563D01*
X132120507Y-116386815D01*
X131961000Y-116387087D01*
X131807447Y-116387379D01*
X131660264Y-116387690D01*
X131519865Y-116388021D01*
X131386665Y-116388371D01*
X131261077Y-116388741D01*
X131143516Y-116389131D01*
X131034398Y-116389540D01*
X130934136Y-116389969D01*
X130843146Y-116390418D01*
X130761841Y-116390886D01*
X130690636Y-116391373D01*
X130629946Y-116391881D01*
X130580186Y-116392408D01*
X130541769Y-116392954D01*
X130515111Y-116393521D01*
X130500626Y-116394106D01*
X130498850Y-116394269D01*
X130348845Y-116419078D01*
X130203688Y-116455439D01*
X130063817Y-116503081D01*
X129929670Y-116561731D01*
X129801685Y-116631120D01*
X129680300Y-116710976D01*
X129565954Y-116801028D01*
X129459084Y-116901004D01*
X129360128Y-117010634D01*
X129269525Y-117129646D01*
X129239929Y-117173375D01*
X129166631Y-117296559D01*
X129104023Y-117426011D01*
X129052418Y-117560675D01*
X129012127Y-117699499D01*
X128983464Y-117841427D01*
X128966742Y-117985406D01*
X128962150Y-118110000D01*
X128851887Y-118110000D01*
X128856520Y-117965640D01*
X128870721Y-117828241D01*
G37*
X128870721Y-117828241D02*
X128894938Y-117695923D01*
X128929621Y-117566805D01*
X128975221Y-117439006D01*
X129032187Y-117310645D01*
X129053154Y-117268630D01*
X129126639Y-117138947D01*
X129210914Y-117015425D01*
X129305273Y-116898828D01*
X129409010Y-116789921D01*
X129521419Y-116689467D01*
X129641793Y-116598231D01*
X129720680Y-116546278D01*
X129843014Y-116477036D01*
X129972827Y-116416565D01*
X130107502Y-116365930D01*
X130244423Y-116326196D01*
X130284429Y-116316809D01*
X130305625Y-116312045D01*
X130324778Y-116307693D01*
X130342513Y-116303733D01*
X130359454Y-116300144D01*
X130376228Y-116296906D01*
X130393458Y-116293999D01*
X130411769Y-116291404D01*
X130431787Y-116289099D01*
X130454136Y-116287065D01*
X130479442Y-116285281D01*
X130508328Y-116283727D01*
X130541420Y-116282384D01*
X130579344Y-116281231D01*
X130622723Y-116280247D01*
X130672182Y-116279413D01*
X130728348Y-116278708D01*
X130791843Y-116278113D01*
X130863294Y-116277606D01*
X130943326Y-116277169D01*
X131032562Y-116276780D01*
X131131629Y-116276420D01*
X131241150Y-116276069D01*
X131361751Y-116275706D01*
X131494057Y-116275310D01*
X131578216Y-116275053D01*
X132667107Y-116271675D01*
X132800895Y-115858925D01*
X132934684Y-115446175D01*
X133577317Y-115444557D01*
X133666481Y-115444366D01*
X133751977Y-115444250D01*
X133832962Y-115444204D01*
X133908589Y-115444228D01*
X133978013Y-115444319D01*
X134040390Y-115444473D01*
X134094875Y-115444689D01*
X134140621Y-115444963D01*
X134176785Y-115445295D01*
X134202521Y-115445680D01*
X134216984Y-115446117D01*
X134219950Y-115446447D01*
X134218055Y-115452762D01*
X134212631Y-115469954D01*
X134204066Y-115496819D01*
X134192749Y-115532154D01*
X134179070Y-115574754D01*
X134163416Y-115623418D01*
X134146176Y-115676940D01*
X134127740Y-115734118D01*
X134108497Y-115793747D01*
X134088835Y-115854625D01*
X134069143Y-115915548D01*
X134049810Y-115975311D01*
X134031224Y-116032712D01*
X134013776Y-116086548D01*
X133997853Y-116135613D01*
X133983844Y-116178706D01*
X133972138Y-116214621D01*
X133963125Y-116242157D01*
X133957193Y-116260108D01*
X133954841Y-116266992D01*
X133956374Y-116269140D01*
X133963437Y-116270846D01*
X133977047Y-116272136D01*
X133998221Y-116273041D01*
X134027976Y-116273588D01*
X134067329Y-116273805D01*
X134117296Y-116273722D01*
X134178893Y-116273366D01*
X134182230Y-116273342D01*
X134412631Y-116271675D01*
X134896225Y-114776387D01*
X135698600Y-114776318D01*
X136500976Y-114776250D01*
X136497309Y-114790537D01*
X136495056Y-114797776D01*
X136489184Y-114816195D01*
X136479984Y-114844889D01*
X136467749Y-114882955D01*
X136452771Y-114929490D01*
X136435341Y-114983590D01*
X136415752Y-115044352D01*
X136394295Y-115110873D01*
X136371262Y-115182248D01*
X136346946Y-115257574D01*
X136321639Y-115335948D01*
X136295632Y-115416466D01*
X136269217Y-115498225D01*
X136242686Y-115580321D01*
X136216332Y-115661851D01*
X136190446Y-115741912D01*
X136165320Y-115819599D01*
X136141246Y-115894009D01*
X136118516Y-115964239D01*
X136097422Y-116029385D01*
X136078257Y-116088544D01*
X136061311Y-116140813D01*
X136046878Y-116185287D01*
X136035248Y-116221063D01*
X136026714Y-116247239D01*
X136021568Y-116262909D01*
X136020194Y-116266991D01*
X136021774Y-116269142D01*
X136028892Y-116270848D01*
X136042566Y-116272140D01*
X136063813Y-116273044D01*
X136093651Y-116273589D01*
X136133098Y-116273804D01*
X136183172Y-116273718D01*
X136244891Y-116273358D01*
X136247223Y-116273341D01*
X136477108Y-116271675D01*
X136744684Y-115446175D01*
X137387317Y-115444557D01*
X137476481Y-115444366D01*
X137561977Y-115444250D01*
X137642962Y-115444204D01*
X137718589Y-115444228D01*
X137788013Y-115444319D01*
X137850390Y-115444473D01*
X137904875Y-115444689D01*
X137950621Y-115444963D01*
X137986785Y-115445295D01*
X138012521Y-115445680D01*
X138026984Y-115446117D01*
X138029950Y-115446447D01*
X138028055Y-115452761D01*
X138022631Y-115469951D01*
X138014067Y-115496814D01*
X138002750Y-115532148D01*
X137989071Y-115574747D01*
X137973418Y-115623408D01*
X137956179Y-115676928D01*
X137937744Y-115734104D01*
X137918502Y-115793730D01*
X137898841Y-115854605D01*
X137879151Y-115915524D01*
X137859819Y-115975284D01*
X137841236Y-116032681D01*
X137823789Y-116086511D01*
X137807869Y-116135571D01*
X137793862Y-116178657D01*
X137782160Y-116214566D01*
X137773149Y-116242094D01*
X137767220Y-116260037D01*
X137764872Y-116266912D01*
X137766621Y-116268476D01*
X137773606Y-116269834D01*
X137786550Y-116270998D01*
X137806177Y-116271981D01*
X137833211Y-116272795D01*
X137868375Y-116273453D01*
X137912392Y-116273968D01*
X137965987Y-116274352D01*
X138029882Y-116274618D01*
X138104801Y-116274778D01*
X138191468Y-116274846D01*
X138221397Y-116274849D01*
X138314544Y-116274898D01*
X138395957Y-116275053D01*
X138466602Y-116275333D01*
X138527446Y-116275755D01*
X138579454Y-116276335D01*
X138623592Y-116277092D01*
X138660826Y-116278042D01*
X138692122Y-116279202D01*
X138718446Y-116280589D01*
X138740764Y-116282221D01*
X138760042Y-116284114D01*
X138763008Y-116284454D01*
X138915728Y-116308534D01*
X139063907Y-116344434D01*
X139207221Y-116391995D01*
X139345353Y-116451060D01*
X139477979Y-116521469D01*
X139604781Y-116603066D01*
X139725438Y-116695691D01*
X139839628Y-116799187D01*
X139871632Y-116831360D01*
X139971607Y-116942388D01*
X140060326Y-117058395D01*
X140138659Y-117180590D01*
X140186845Y-117268630D01*
X140247590Y-117397575D01*
X140296823Y-117525351D01*
X140334993Y-117653836D01*
X140362552Y-117784911D01*
X140379948Y-117920458D01*
X140387631Y-118062357D01*
X140388112Y-118110000D01*
X140383479Y-118254359D01*
X140369278Y-118391758D01*
X140345061Y-118524076D01*
X140310378Y-118653194D01*
X140264778Y-118780993D01*
X140207812Y-118909354D01*
X140186845Y-118951369D01*
X140113360Y-119081052D01*
X140029085Y-119204574D01*
X139934726Y-119321171D01*
X139830989Y-119430078D01*
X139718580Y-119530532D01*
X139598206Y-119621768D01*
X139519319Y-119673721D01*
X139396985Y-119742963D01*
X139267172Y-119803434D01*
X139132497Y-119854069D01*
X138995576Y-119893803D01*
X138955570Y-119903190D01*
X138934373Y-119907954D01*
X138915219Y-119912306D01*
X138897484Y-119916267D01*
X138880542Y-119919856D01*
X138863768Y-119923094D01*
X138846537Y-119926000D01*
X138828225Y-119928596D01*
X138808206Y-119930901D01*
X138785856Y-119932935D01*
X138760549Y-119934719D01*
X138731661Y-119936272D01*
X138698567Y-119937616D01*
X138660642Y-119938769D01*
X138617261Y-119939753D01*
X138567799Y-119940587D01*
X138511631Y-119941291D01*
X138448132Y-119941887D01*
X138376677Y-119942393D01*
X138296641Y-119942830D01*
X138207400Y-119943219D01*
X138108329Y-119943579D01*
X137998801Y-119943930D01*
X137878194Y-119944294D01*
X137745881Y-119944689D01*
X137661874Y-119944946D01*
X136573073Y-119948325D01*
X136305523Y-120773825D01*
X135662786Y-120775442D01*
X135573615Y-120775633D01*
X135488111Y-120775749D01*
X135407119Y-120775795D01*
X135331484Y-120775771D01*
X135262051Y-120775681D01*
X135199666Y-120775526D01*
X135145173Y-120775311D01*
X135099417Y-120775036D01*
X135063243Y-120774704D01*
X135037497Y-120774319D01*
X135023023Y-120773882D01*
X135020050Y-120773552D01*
X135021944Y-120767237D01*
X135027368Y-120750045D01*
X135035933Y-120723180D01*
X135047250Y-120687845D01*
X135060929Y-120645245D01*
X135076583Y-120596581D01*
X135093823Y-120543059D01*
X135112259Y-120485881D01*
X135131502Y-120426252D01*
X135151164Y-120365374D01*
X135170856Y-120304451D01*
X135190189Y-120244688D01*
X135208775Y-120187287D01*
X135226223Y-120133451D01*
X135242146Y-120084386D01*
X135256155Y-120041293D01*
X135267861Y-120005378D01*
X135276874Y-119977842D01*
X135282806Y-119959891D01*
X135285158Y-119953007D01*
X135283626Y-119950858D01*
X135276562Y-119949152D01*
X135262950Y-119947861D01*
X135241772Y-119946957D01*
X135212012Y-119946410D01*
X135172653Y-119946193D01*
X135122676Y-119946278D01*
X135061066Y-119946635D01*
X135057948Y-119946657D01*
X134827727Y-119948325D01*
X134343775Y-121443717D01*
X133541399Y-121443733D01*
X132739023Y-121443750D01*
X132742676Y-121429462D01*
X132744912Y-121422286D01*
X132750768Y-121403930D01*
X132759951Y-121375298D01*
X132772171Y-121337291D01*
X132787135Y-121290814D01*
X132804551Y-121236768D01*
X132824128Y-121176058D01*
X132845574Y-121109585D01*
X132868598Y-121038253D01*
X132892906Y-120962964D01*
X132918207Y-120884622D01*
X132944211Y-120804129D01*
X132970624Y-120722389D01*
X132997155Y-120640304D01*
X133023512Y-120558777D01*
X133049403Y-120478711D01*
X133074537Y-120401009D01*
X133098622Y-120326575D01*
X133121365Y-120256309D01*
X133142476Y-120191117D01*
X133161661Y-120131900D01*
X133178630Y-120079562D01*
X133193091Y-120035005D01*
X133204752Y-119999132D01*
X133213320Y-119972847D01*
X133218504Y-119957052D01*
X133219862Y-119953008D01*
X133218264Y-119950857D01*
X133211127Y-119949150D01*
X133197434Y-119947859D01*
X133176165Y-119946955D01*
X133146302Y-119946410D01*
X133106829Y-119946195D01*
X133056725Y-119946282D01*
X132994974Y-119946643D01*
X132992853Y-119946658D01*
X132763045Y-119948325D01*
X132495647Y-120773825D01*
X131852848Y-120775442D01*
X131763673Y-120775633D01*
X131678164Y-120775749D01*
X131597167Y-120775795D01*
X131521528Y-120775771D01*
X131452091Y-120775681D01*
X131389700Y-120775526D01*
X131335202Y-120775311D01*
X131289441Y-120775036D01*
X131253261Y-120774705D01*
X131227508Y-120774319D01*
X131213028Y-120773882D01*
X131210050Y-120773552D01*
X131211944Y-120767238D01*
X131217368Y-120750048D01*
X131225932Y-120723185D01*
X131237249Y-120687851D01*
X131250928Y-120645252D01*
X131266581Y-120596591D01*
X131283820Y-120543071D01*
X131302255Y-120485895D01*
X131321497Y-120426269D01*
X131341158Y-120365394D01*
X131360848Y-120304475D01*
X131380180Y-120244715D01*
X131398763Y-120187318D01*
X131416210Y-120133488D01*
X131432130Y-120084428D01*
X131446137Y-120041342D01*
X131457839Y-120005433D01*
X131466850Y-119977905D01*
X131472779Y-119959962D01*
X131475127Y-119953087D01*
X131473378Y-119951523D01*
X131466393Y-119950165D01*
X131453449Y-119949001D01*
X131433822Y-119948018D01*
X131406788Y-119947204D01*
X131371624Y-119946546D01*
X131327607Y-119946031D01*
X131274012Y-119945647D01*
X131210117Y-119945381D01*
X131135198Y-119945221D01*
X131048531Y-119945153D01*
X131018602Y-119945150D01*
X130925455Y-119945101D01*
X130844042Y-119944946D01*
X130773397Y-119944666D01*
X130712553Y-119944244D01*
X130660545Y-119943664D01*
X130616407Y-119942907D01*
X130579173Y-119941957D01*
X130547877Y-119940797D01*
X130521553Y-119939410D01*
X130499235Y-119937778D01*
X130479957Y-119935885D01*
X130476991Y-119935545D01*
X130324271Y-119911465D01*
X130176092Y-119875565D01*
X130032778Y-119828004D01*
X129894646Y-119768939D01*
X129762020Y-119698530D01*
X129635218Y-119616933D01*
X129514561Y-119524308D01*
X129400371Y-119420812D01*
X129368367Y-119388639D01*
X129268392Y-119277611D01*
X129179673Y-119161604D01*
X129101340Y-119039409D01*
X129053154Y-118951369D01*
X128992409Y-118822424D01*
X128943176Y-118694648D01*
X128905006Y-118566163D01*
X128877447Y-118435088D01*
X128860051Y-118299541D01*
X128852368Y-118157642D01*
X128851887Y-118110000D01*
X128962150Y-118110000D01*
X128967836Y-118254292D01*
X128985064Y-118394548D01*
X129014081Y-118531823D01*
X129055139Y-118667177D01*
X129108487Y-118801666D01*
X129142922Y-118875175D01*
X129213264Y-119003466D01*
X129294096Y-119124872D01*
X129384917Y-119238871D01*
X129485227Y-119344939D01*
X129594523Y-119442554D01*
X129712305Y-119531193D01*
X129838073Y-119610333D01*
X129858781Y-119622011D01*
X129978689Y-119681912D01*
X130105979Y-119732956D01*
X130238298Y-119774439D01*
X130373291Y-119805660D01*
X130508604Y-119825916D01*
X130556579Y-119830360D01*
X130566600Y-119830645D01*
X130588977Y-119830922D01*
X130623365Y-119831193D01*
X130669419Y-119831456D01*
X130726795Y-119831711D01*
X130795149Y-119831958D01*
X130874136Y-119832197D01*
X130963411Y-119832426D01*
X131062630Y-119832647D01*
X131171449Y-119832857D01*
X131289523Y-119833058D01*
X131416507Y-119833249D01*
X131552057Y-119833429D01*
X131695829Y-119833598D01*
X131847478Y-119833755D01*
X132006659Y-119833901D01*
X132173029Y-119834035D01*
X132346242Y-119834156D01*
X132525954Y-119834265D01*
X132711820Y-119834360D01*
X132903497Y-119834442D01*
X133100639Y-119834510D01*
X133302902Y-119834564D01*
X133509942Y-119834604D01*
X133721413Y-119834628D01*
X133936972Y-119834638D01*
X134156275Y-119834631D01*
X134378975Y-119834609D01*
X134604730Y-119834571D01*
X134661275Y-119834559D01*
X134932960Y-119834497D01*
X135192241Y-119834435D01*
X135439412Y-119834372D01*
X135674767Y-119834307D01*
X135898602Y-119834239D01*
X136111212Y-119834168D01*
X136312891Y-119834092D01*
X136503934Y-119834011D01*
X136684636Y-119833923D01*
X136855293Y-119833828D01*
X137016198Y-119833726D01*
X137167647Y-119833615D01*
X137309935Y-119833494D01*
X137443357Y-119833362D01*
X137568207Y-119833219D01*
X137684781Y-119833064D01*
X137793373Y-119832895D01*
X137894278Y-119832713D01*
X137987792Y-119832515D01*
X138074208Y-119832302D01*
X138153823Y-119832072D01*
X138226930Y-119831825D01*
X138293825Y-119831559D01*
X138354803Y-119831275D01*
X138410158Y-119830970D01*
X138460186Y-119830644D01*
X138505181Y-119830296D01*
X138545439Y-119829926D01*
X138581253Y-119829532D01*
X138612920Y-119829114D01*
X138640733Y-119828671D01*
X138664988Y-119828201D01*
X138685981Y-119827704D01*
X138704004Y-119827180D01*
X138719354Y-119826627D01*
X138732326Y-119826044D01*
X138743214Y-119825430D01*
X138752313Y-119824786D01*
X138759918Y-119824109D01*
X138766324Y-119823399D01*
X138771827Y-119822655D01*
X138772900Y-119822494D01*
X138890880Y-119801102D01*
X139004645Y-119773852D01*
X139111276Y-119741505D01*
X139180975Y-119715895D01*
X139316602Y-119655207D01*
X139445401Y-119584099D01*
X139566890Y-119503104D01*
X139680583Y-119412752D01*
X139785998Y-119313576D01*
X139882651Y-119206105D01*
X139970058Y-119090873D01*
X140047736Y-118968410D01*
X140115200Y-118839247D01*
X140171967Y-118703916D01*
X140211666Y-118583677D01*
X140245075Y-118446391D01*
X140266831Y-118305555D01*
X140276934Y-118162667D01*
X140275385Y-118019230D01*
X140262184Y-117876741D01*
X140237330Y-117736702D01*
X140211666Y-117636322D01*
X140166119Y-117501143D01*
X140109388Y-117369651D01*
X140042238Y-117243075D01*
X139965434Y-117122643D01*
X139879741Y-117009583D01*
X139785922Y-116905123D01*
X139712700Y-116834964D01*
X139596009Y-116738492D01*
X139473636Y-116653374D01*
X139345665Y-116579647D01*
X139212180Y-116517351D01*
X139073266Y-116466522D01*
X138929005Y-116427200D01*
X138779484Y-116399422D01*
X138741150Y-116394269D01*
X138730038Y-116393678D01*
X138706641Y-116393106D01*
X138671373Y-116392554D01*
X138624648Y-116392022D01*
X138566882Y-116391509D01*
X138498489Y-116391016D01*
X138419883Y-116390543D01*
X138331479Y-116390089D01*
X138233691Y-116389655D01*
X138126934Y-116389240D01*
X138011623Y-116388845D01*
X137888171Y-116388470D01*
X137756995Y-116388114D01*
X137618507Y-116387778D01*
X137473123Y-116387461D01*
X137321258Y-116387164D01*
X137163325Y-116386887D01*
X136999740Y-116386630D01*
X136830916Y-116386392D01*
X136657269Y-116386173D01*
X136479213Y-116385974D01*
X136297163Y-116385795D01*
X136111533Y-116385635D01*
X135922737Y-116385496D01*
X135731191Y-116385375D01*
X135537308Y-116385274D01*
X135341503Y-116385193D01*
X135144192Y-116385132D01*
X134945788Y-116385090D01*
X134746705Y-116385068D01*
X134547360Y-116385065D01*
X134348165Y-116385082D01*
X134149536Y-116385118D01*
X133951887Y-116385175D01*
X133755633Y-116385250D01*
X133561188Y-116385346D01*
X133368967Y-116385461D01*
X133179384Y-116385596D01*
X132992854Y-116385750D01*
X132809791Y-116385924D01*
X132630611Y-116386117D01*
X132455727Y-116386330D01*
X132285554Y-116386563D01*
X132120507Y-116386815D01*
X131961000Y-116387087D01*
X131807447Y-116387379D01*
X131660264Y-116387690D01*
X131519865Y-116388021D01*
X131386665Y-116388371D01*
X131261077Y-116388741D01*
X131143516Y-116389131D01*
X131034398Y-116389540D01*
X130934136Y-116389969D01*
X130843146Y-116390418D01*
X130761841Y-116390886D01*
X130690636Y-116391373D01*
X130629946Y-116391881D01*
X130580186Y-116392408D01*
X130541769Y-116392954D01*
X130515111Y-116393521D01*
X130500626Y-116394106D01*
X130498850Y-116394269D01*
X130348845Y-116419078D01*
X130203688Y-116455439D01*
X130063817Y-116503081D01*
X129929670Y-116561731D01*
X129801685Y-116631120D01*
X129680300Y-116710976D01*
X129565954Y-116801028D01*
X129459084Y-116901004D01*
X129360128Y-117010634D01*
X129269525Y-117129646D01*
X129239929Y-117173375D01*
X129166631Y-117296559D01*
X129104023Y-117426011D01*
X129052418Y-117560675D01*
X129012127Y-117699499D01*
X128983464Y-117841427D01*
X128966742Y-117985406D01*
X128962150Y-118110000D01*
X128851887Y-118110000D01*
X128856520Y-117965640D01*
X128870721Y-117828241D01*
G36*
X130392325Y-117882987D02*
G01*
X130394075Y-118576725D01*
X130410593Y-118611650D01*
X130429598Y-118644468D01*
X130451584Y-118670343D01*
X130474295Y-118686722D01*
X130478625Y-118688596D01*
X130486473Y-118689194D01*
X130506442Y-118689772D01*
X130537953Y-118690326D01*
X130580428Y-118690855D01*
X130633287Y-118691355D01*
X130695953Y-118691823D01*
X130767846Y-118692258D01*
X130848387Y-118692655D01*
X130936998Y-118693014D01*
X131033100Y-118693330D01*
X131136114Y-118693602D01*
X131245462Y-118693826D01*
X131360563Y-118694000D01*
X131480841Y-118694122D01*
X131605715Y-118694188D01*
X131686713Y-118694200D01*
X132880100Y-118694200D01*
X132880100Y-119126000D01*
X131621212Y-119125225D01*
X131495154Y-119125120D01*
X131372183Y-119124965D01*
X131252928Y-119124761D01*
X131138017Y-119124513D01*
X131028077Y-119124222D01*
X130923736Y-119123893D01*
X130825623Y-119123529D01*
X130734366Y-119123131D01*
X130650593Y-119122704D01*
X130574931Y-119122250D01*
X130508010Y-119121773D01*
X130450456Y-119121275D01*
X130402899Y-119120759D01*
X130365965Y-119120229D01*
X130340284Y-119119688D01*
X130326483Y-119119138D01*
X130324733Y-119118969D01*
X130270719Y-119104834D01*
X130219811Y-119079277D01*
X130173156Y-119043422D01*
X130131906Y-118998394D01*
X130097207Y-118945319D01*
X130070210Y-118885321D01*
X130062601Y-118862255D01*
X130060947Y-118856149D01*
X130059457Y-118848994D01*
X130058122Y-118840117D01*
X130056930Y-118828843D01*
X130055873Y-118814498D01*
X130054938Y-118796408D01*
X130054116Y-118773900D01*
X130053397Y-118746298D01*
X130052771Y-118712928D01*
X130052226Y-118673117D01*
X130051753Y-118626191D01*
X130051342Y-118571474D01*
X130050981Y-118508294D01*
X130050662Y-118435975D01*
X130050372Y-118353844D01*
X130050103Y-118261227D01*
X130049844Y-118157449D01*
X130049584Y-118041836D01*
X130049509Y-118006812D01*
X130047766Y-117189250D01*
X130390575Y-117189250D01*
X130392325Y-117882987D01*
G37*
X130392325Y-117882987D02*
X130394075Y-118576725D01*
X130410593Y-118611650D01*
X130429598Y-118644468D01*
X130451584Y-118670343D01*
X130474295Y-118686722D01*
X130478625Y-118688596D01*
X130486473Y-118689194D01*
X130506442Y-118689772D01*
X130537953Y-118690326D01*
X130580428Y-118690855D01*
X130633287Y-118691355D01*
X130695953Y-118691823D01*
X130767846Y-118692258D01*
X130848387Y-118692655D01*
X130936998Y-118693014D01*
X131033100Y-118693330D01*
X131136114Y-118693602D01*
X131245462Y-118693826D01*
X131360563Y-118694000D01*
X131480841Y-118694122D01*
X131605715Y-118694188D01*
X131686713Y-118694200D01*
X132880100Y-118694200D01*
X132880100Y-119126000D01*
X131621212Y-119125225D01*
X131495154Y-119125120D01*
X131372183Y-119124965D01*
X131252928Y-119124761D01*
X131138017Y-119124513D01*
X131028077Y-119124222D01*
X130923736Y-119123893D01*
X130825623Y-119123529D01*
X130734366Y-119123131D01*
X130650593Y-119122704D01*
X130574931Y-119122250D01*
X130508010Y-119121773D01*
X130450456Y-119121275D01*
X130402899Y-119120759D01*
X130365965Y-119120229D01*
X130340284Y-119119688D01*
X130326483Y-119119138D01*
X130324733Y-119118969D01*
X130270719Y-119104834D01*
X130219811Y-119079277D01*
X130173156Y-119043422D01*
X130131906Y-118998394D01*
X130097207Y-118945319D01*
X130070210Y-118885321D01*
X130062601Y-118862255D01*
X130060947Y-118856149D01*
X130059457Y-118848994D01*
X130058122Y-118840117D01*
X130056930Y-118828843D01*
X130055873Y-118814498D01*
X130054938Y-118796408D01*
X130054116Y-118773900D01*
X130053397Y-118746298D01*
X130052771Y-118712928D01*
X130052226Y-118673117D01*
X130051753Y-118626191D01*
X130051342Y-118571474D01*
X130050981Y-118508294D01*
X130050662Y-118435975D01*
X130050372Y-118353844D01*
X130050103Y-118261227D01*
X130049844Y-118157449D01*
X130049584Y-118041836D01*
X130049509Y-118006812D01*
X130047766Y-117189250D01*
X130390575Y-117189250D01*
X130392325Y-117882987D01*
D13*
%TO.C,U2*%
X169883000Y-108600000D02*
X168483000Y-108600000D01*
X169883000Y-108550000D02*
X169883000Y-108600000D01*
X169883000Y-113700000D02*
X169883000Y-113555000D01*
X169883000Y-113700000D02*
X174033000Y-113700000D01*
X174033000Y-113700000D02*
X174033000Y-113555000D01*
X169883000Y-108550000D02*
X174033000Y-108550000D01*
X174033000Y-108550000D02*
X174033000Y-108695000D01*
D10*
%TO.C,SW2*%
X157920000Y-95145000D02*
X154550000Y-95145000D01*
X152010000Y-91545000D02*
X155330000Y-91545000D01*
X149420000Y-95145000D02*
X149420000Y-91545000D01*
X152790000Y-95145000D02*
X149420000Y-95145000D01*
X157920000Y-91545000D02*
X157920000Y-95145000D01*
D14*
%TO.C,R7*%
X173307742Y-114920500D02*
X173782258Y-114920500D01*
X173307742Y-115965500D02*
X173782258Y-115965500D01*
%TO.C,C7*%
X139825000Y-95109420D02*
X139825000Y-95390580D01*
X140845000Y-95109420D02*
X140845000Y-95390580D01*
%TO.C,U1*%
X157607000Y-109391000D02*
X154007000Y-109391000D01*
X157607000Y-116161000D02*
X159807000Y-116161000D01*
X157607000Y-109391000D02*
X159807000Y-109391000D01*
X157607000Y-116161000D02*
X155407000Y-116161000D01*
%TO.C,R6*%
X165591258Y-119621500D02*
X165116742Y-119621500D01*
X165591258Y-118576500D02*
X165116742Y-118576500D01*
%TO.C,C14*%
X149619580Y-112651000D02*
X149338420Y-112651000D01*
X149619580Y-111631000D02*
X149338420Y-111631000D01*
%TO.C,R11*%
X149292742Y-115457500D02*
X149767258Y-115457500D01*
X149292742Y-114412500D02*
X149767258Y-114412500D01*
%TO.C,R15*%
X147903500Y-97298742D02*
X147903500Y-97773258D01*
X146858500Y-97298742D02*
X146858500Y-97773258D01*
%TO.C,TP1*%
X145980000Y-93345000D02*
G75*
G03*
X145980000Y-93345000I-1200000J0D01*
G01*
%TO.C,R14*%
X145998500Y-97773258D02*
X145998500Y-97298742D01*
X144953500Y-97773258D02*
X144953500Y-97298742D01*
%TO.C,R10*%
X165591258Y-116925500D02*
X165116742Y-116925500D01*
X165591258Y-117970500D02*
X165116742Y-117970500D01*
%TO.C,R2*%
X165591258Y-110858500D02*
X165116742Y-110858500D01*
X165591258Y-109813500D02*
X165116742Y-109813500D01*
%TO.C,C6*%
X133363580Y-96217200D02*
X133082420Y-96217200D01*
X133363580Y-95197200D02*
X133082420Y-95197200D01*
%TO.C,G\u002A\u002A\u002A*%
G36*
X138259315Y-106929705D02*
G01*
X138262407Y-106951710D01*
X138261836Y-106981627D01*
X138257057Y-107021988D01*
X138247525Y-107075325D01*
X138232694Y-107144167D01*
X138212019Y-107231046D01*
X138184954Y-107338494D01*
X138150956Y-107469041D01*
X138109537Y-107624997D01*
X138073736Y-107757788D01*
X138044010Y-107864970D01*
X138019365Y-107949348D01*
X137998808Y-108013728D01*
X137981345Y-108060916D01*
X137965983Y-108093715D01*
X137951728Y-108114931D01*
X137937586Y-108127370D01*
X137930265Y-108131167D01*
X137906004Y-108135197D01*
X137853186Y-108139017D01*
X137772534Y-108142617D01*
X137664770Y-108145990D01*
X137530618Y-108149127D01*
X137370799Y-108152019D01*
X137186035Y-108154659D01*
X136977050Y-108157037D01*
X136744566Y-108159147D01*
X136489305Y-108160978D01*
X136211989Y-108162523D01*
X135913342Y-108163774D01*
X135594085Y-108164722D01*
X135254941Y-108165359D01*
X134946299Y-108165653D01*
X133083953Y-108166669D01*
X133067812Y-108228888D01*
X133053887Y-108282252D01*
X133040234Y-108334114D01*
X133038050Y-108342346D01*
X133028399Y-108391970D01*
X133024347Y-108439170D01*
X133024265Y-108484754D01*
X133167003Y-108494064D01*
X133199221Y-108495271D01*
X133258827Y-108496549D01*
X133343931Y-108497881D01*
X133452642Y-108499253D01*
X133583070Y-108500649D01*
X133733323Y-108502052D01*
X133901510Y-108503448D01*
X134085741Y-108504821D01*
X134284126Y-108506156D01*
X134494773Y-108507436D01*
X134715791Y-108508647D01*
X134945290Y-108509773D01*
X135181379Y-108510797D01*
X135220231Y-108510953D01*
X135461870Y-108511969D01*
X135700231Y-108513082D01*
X135933145Y-108514276D01*
X136158445Y-108515535D01*
X136373964Y-108516844D01*
X136577534Y-108518188D01*
X136766989Y-108519551D01*
X136940160Y-108520916D01*
X137094880Y-108522270D01*
X137228983Y-108523595D01*
X137340299Y-108524877D01*
X137426663Y-108526100D01*
X137485735Y-108527244D01*
X137840750Y-108535955D01*
X137840750Y-108570504D01*
X137836983Y-108593225D01*
X137826062Y-108642044D01*
X137808552Y-108714816D01*
X137785022Y-108809396D01*
X137756037Y-108923640D01*
X137722164Y-109055402D01*
X137683971Y-109202537D01*
X137642025Y-109362902D01*
X137596891Y-109534350D01*
X137549138Y-109714737D01*
X137499332Y-109901918D01*
X137448040Y-110093748D01*
X137395828Y-110288082D01*
X137343264Y-110482776D01*
X137290915Y-110675684D01*
X137239347Y-110864662D01*
X137189128Y-111047564D01*
X137140823Y-111222245D01*
X137122370Y-111288600D01*
X137090761Y-111402058D01*
X130987543Y-111402058D01*
X130997875Y-111332519D01*
X131005145Y-111295390D01*
X131018871Y-111236301D01*
X131038024Y-111159004D01*
X131061575Y-111067254D01*
X131088494Y-110964804D01*
X131117752Y-110855408D01*
X131148320Y-110742819D01*
X131179169Y-110630792D01*
X131209269Y-110523079D01*
X131237591Y-110423435D01*
X131263105Y-110335613D01*
X131284783Y-110263367D01*
X131301595Y-110210451D01*
X131312512Y-110180617D01*
X131315006Y-110175977D01*
X131322920Y-110173041D01*
X131342608Y-110170414D01*
X131375419Y-110168083D01*
X131422697Y-110166031D01*
X131485790Y-110164245D01*
X131566045Y-110162709D01*
X131664808Y-110161409D01*
X131783426Y-110160331D01*
X131923245Y-110159458D01*
X132085612Y-110158778D01*
X132271875Y-110158274D01*
X132483378Y-110157933D01*
X132721470Y-110157739D01*
X132987050Y-110157678D01*
X133224031Y-110157584D01*
X133465720Y-110157313D01*
X133708944Y-110156876D01*
X133950529Y-110156287D01*
X134187300Y-110155558D01*
X134416085Y-110154701D01*
X134633708Y-110153729D01*
X134836997Y-110152656D01*
X135022777Y-110151493D01*
X135187873Y-110150253D01*
X135329113Y-110148950D01*
X135413006Y-110147994D01*
X136181550Y-110138311D01*
X136222423Y-110002260D01*
X136239230Y-109941454D01*
X136250837Y-109889753D01*
X136255738Y-109854455D01*
X136254965Y-109844498D01*
X136248087Y-109833299D01*
X136235551Y-109823157D01*
X136215983Y-109814019D01*
X136188009Y-109805832D01*
X136150254Y-109798544D01*
X136101345Y-109792103D01*
X136039908Y-109786456D01*
X135964568Y-109781550D01*
X135873952Y-109777334D01*
X135766685Y-109773754D01*
X135641394Y-109770759D01*
X135496704Y-109768296D01*
X135331242Y-109766311D01*
X135143633Y-109764754D01*
X134932503Y-109763572D01*
X134696479Y-109762711D01*
X134434186Y-109762120D01*
X134144250Y-109761746D01*
X134085649Y-109761695D01*
X133782148Y-109761293D01*
X133491712Y-109760598D01*
X133215508Y-109759625D01*
X132954704Y-109758386D01*
X132710469Y-109756896D01*
X132483972Y-109755166D01*
X132276380Y-109753212D01*
X132088861Y-109751045D01*
X131922585Y-109748680D01*
X131778720Y-109746129D01*
X131658433Y-109743406D01*
X131562894Y-109740525D01*
X131493270Y-109737498D01*
X131450730Y-109734339D01*
X131436630Y-109731464D01*
X131437758Y-109715655D01*
X131445327Y-109676240D01*
X131458299Y-109617920D01*
X131475635Y-109545398D01*
X131493007Y-109476175D01*
X131560969Y-109211504D01*
X131625203Y-108962785D01*
X131685002Y-108732721D01*
X131739665Y-108524013D01*
X131788486Y-108339364D01*
X131815504Y-108238183D01*
X131839267Y-108149615D01*
X131868979Y-108038895D01*
X131902998Y-107912148D01*
X131939678Y-107775501D01*
X131977375Y-107635079D01*
X132014446Y-107497008D01*
X132033147Y-107427361D01*
X132170738Y-106914969D01*
X132242487Y-106905271D01*
X132264066Y-106904307D01*
X132313502Y-106903356D01*
X132389376Y-106902424D01*
X132490265Y-106901516D01*
X132614749Y-106900637D01*
X132761406Y-106899793D01*
X132928814Y-106898988D01*
X133115554Y-106898228D01*
X133320203Y-106897517D01*
X133541340Y-106896862D01*
X133777544Y-106896266D01*
X134027393Y-106895735D01*
X134289467Y-106895275D01*
X134562344Y-106894890D01*
X134844602Y-106894586D01*
X135134822Y-106894367D01*
X135282171Y-106894291D01*
X138250105Y-106893009D01*
X138259315Y-106929705D01*
G37*
G36*
X134616340Y-112913594D02*
G01*
X139795159Y-112917274D01*
X139795159Y-113122231D01*
X134616340Y-113125911D01*
X129437522Y-113129592D01*
X129437522Y-112909913D01*
X134616340Y-112913594D01*
G37*
%TO.C,C10*%
X146230748Y-99722000D02*
X146753252Y-99722000D01*
X146230748Y-101192000D02*
X146753252Y-101192000D01*
%TO.C,TP4*%
X156902000Y-118491000D02*
G75*
G03*
X156902000Y-118491000I-1200000J0D01*
G01*
%TO.C,C3*%
X133484252Y-93143400D02*
X132961748Y-93143400D01*
X133484252Y-94613400D02*
X132961748Y-94613400D01*
%TO.C,J2*%
X149775000Y-102230000D02*
X149775000Y-96470000D01*
X149775000Y-96470000D02*
X151195000Y-96470000D01*
X161225000Y-96970000D02*
X161225000Y-96470000D01*
X149775000Y-103750000D02*
X149775000Y-104060000D01*
X161225000Y-96470000D02*
X162645000Y-96470000D01*
X151195000Y-96970000D02*
X161225000Y-96970000D01*
X151195000Y-96470000D02*
X151195000Y-96970000D01*
X162645000Y-96470000D02*
X162645000Y-102230000D01*
X149775000Y-104060000D02*
X162645000Y-104060000D01*
X162645000Y-104060000D02*
X162645000Y-103750000D01*
%TD*%
M02*
