G04 #@! TF.GenerationSoftware,KiCad,Pcbnew,8.0.5*
G04 #@! TF.CreationDate,2024-11-22T22:00:15-06:00*
G04 #@! TF.ProjectId,PDM v3.2,50444d20-7633-42e3-922e-6b696361645f,rev?*
G04 #@! TF.SameCoordinates,Original*
G04 #@! TF.FileFunction,Paste,Bot*
G04 #@! TF.FilePolarity,Positive*
%FSLAX46Y46*%
G04 Gerber Fmt 4.6, Leading zero omitted, Abs format (unit mm)*
G04 Created by KiCad (PCBNEW 8.0.5) date 2024-11-22 22:00:15*
%MOMM*%
%LPD*%
G01*
G04 APERTURE LIST*
G04 Aperture macros list*
%AMRoundRect*
0 Rectangle with rounded corners*
0 $1 Rounding radius*
0 $2 $3 $4 $5 $6 $7 $8 $9 X,Y pos of 4 corners*
0 Add a 4 corners polygon primitive as box body*
4,1,4,$2,$3,$4,$5,$6,$7,$8,$9,$2,$3,0*
0 Add four circle primitives for the rounded corners*
1,1,$1+$1,$2,$3*
1,1,$1+$1,$4,$5*
1,1,$1+$1,$6,$7*
1,1,$1+$1,$8,$9*
0 Add four rect primitives between the rounded corners*
20,1,$1+$1,$2,$3,$4,$5,0*
20,1,$1+$1,$4,$5,$6,$7,0*
20,1,$1+$1,$6,$7,$8,$9,0*
20,1,$1+$1,$8,$9,$2,$3,0*%
G04 Aperture macros list end*
%ADD10RoundRect,0.100000X-0.100000X0.225000X-0.100000X-0.225000X0.100000X-0.225000X0.100000X0.225000X0*%
%ADD11RoundRect,0.200000X0.200000X0.275000X-0.200000X0.275000X-0.200000X-0.275000X0.200000X-0.275000X0*%
%ADD12RoundRect,0.200000X-0.275000X0.200000X-0.275000X-0.200000X0.275000X-0.200000X0.275000X0.200000X0*%
%ADD13RoundRect,0.200000X0.275000X-0.200000X0.275000X0.200000X-0.275000X0.200000X-0.275000X-0.200000X0*%
%ADD14RoundRect,0.225000X-0.225000X-0.250000X0.225000X-0.250000X0.225000X0.250000X-0.225000X0.250000X0*%
%ADD15RoundRect,0.225000X0.250000X-0.225000X0.250000X0.225000X-0.250000X0.225000X-0.250000X-0.225000X0*%
%ADD16RoundRect,0.225000X0.225000X0.250000X-0.225000X0.250000X-0.225000X-0.250000X0.225000X-0.250000X0*%
%ADD17RoundRect,0.200000X-0.200000X-0.275000X0.200000X-0.275000X0.200000X0.275000X-0.200000X0.275000X0*%
%ADD18RoundRect,0.225000X-0.250000X0.225000X-0.250000X-0.225000X0.250000X-0.225000X0.250000X0.225000X0*%
%ADD19RoundRect,0.150000X0.825000X0.150000X-0.825000X0.150000X-0.825000X-0.150000X0.825000X-0.150000X0*%
%ADD20RoundRect,0.150000X-0.150000X-0.200000X0.150000X-0.200000X0.150000X0.200000X-0.150000X0.200000X0*%
%ADD21R,1.450000X0.450000*%
%ADD22RoundRect,0.150000X0.587500X0.150000X-0.587500X0.150000X-0.587500X-0.150000X0.587500X-0.150000X0*%
%ADD23RoundRect,0.100000X0.225000X0.100000X-0.225000X0.100000X-0.225000X-0.100000X0.225000X-0.100000X0*%
%ADD24R,1.200000X1.400000*%
%ADD25RoundRect,0.100000X0.100000X-0.225000X0.100000X0.225000X-0.100000X0.225000X-0.100000X-0.225000X0*%
%ADD26RoundRect,0.140000X-0.140000X-0.170000X0.140000X-0.170000X0.140000X0.170000X-0.140000X0.170000X0*%
%ADD27RoundRect,0.375000X0.625000X0.375000X-0.625000X0.375000X-0.625000X-0.375000X0.625000X-0.375000X0*%
%ADD28RoundRect,0.500000X0.500000X1.400000X-0.500000X1.400000X-0.500000X-1.400000X0.500000X-1.400000X0*%
%ADD29RoundRect,0.150000X0.150000X-0.512500X0.150000X0.512500X-0.150000X0.512500X-0.150000X-0.512500X0*%
%ADD30RoundRect,0.140000X0.140000X0.170000X-0.140000X0.170000X-0.140000X-0.170000X0.140000X-0.170000X0*%
%ADD31RoundRect,0.150000X-0.587500X-0.150000X0.587500X-0.150000X0.587500X0.150000X-0.587500X0.150000X0*%
%ADD32RoundRect,0.250000X-0.250000X-0.475000X0.250000X-0.475000X0.250000X0.475000X-0.250000X0.475000X0*%
%ADD33RoundRect,0.150000X-0.825000X-0.150000X0.825000X-0.150000X0.825000X0.150000X-0.825000X0.150000X0*%
%ADD34RoundRect,0.075000X-0.075000X0.725000X-0.075000X-0.725000X0.075000X-0.725000X0.075000X0.725000X0*%
%ADD35RoundRect,0.075000X-0.725000X0.075000X-0.725000X-0.075000X0.725000X-0.075000X0.725000X0.075000X0*%
G04 APERTURE END LIST*
D10*
X196817500Y-87350000D03*
X197467500Y-87350000D03*
X198117500Y-87350000D03*
X198117500Y-89250000D03*
X197467500Y-89250000D03*
X196817500Y-89250000D03*
D11*
X82908495Y-113775276D03*
X81258495Y-113775276D03*
D12*
X186655637Y-48215991D03*
X186655637Y-49865991D03*
D13*
X122325637Y-66260991D03*
X122325637Y-64610991D03*
D14*
X140005637Y-45680991D03*
X141555637Y-45680991D03*
D15*
X128181164Y-95575757D03*
X128181164Y-94025757D03*
D12*
X119783164Y-74143757D03*
X119783164Y-75793757D03*
X123849637Y-64610991D03*
X123849637Y-66260991D03*
D16*
X118125637Y-52310991D03*
X116575637Y-52310991D03*
D17*
X105685637Y-51670991D03*
X107335637Y-51670991D03*
D18*
X126681164Y-94035757D03*
X126681164Y-95585757D03*
D16*
X107260637Y-49680991D03*
X105710637Y-49680991D03*
D19*
X150330000Y-106290000D03*
X150330000Y-107560000D03*
X150330000Y-108830000D03*
X150330000Y-110100000D03*
X145380000Y-110100000D03*
X145380000Y-108830000D03*
X145380000Y-107560000D03*
X145380000Y-106290000D03*
D20*
X150940000Y-111870000D03*
X149540000Y-111870000D03*
D21*
X212075637Y-81126991D03*
X212075637Y-81776991D03*
X212075637Y-82426991D03*
X212075637Y-83076991D03*
X207675637Y-83076991D03*
X207675637Y-82426991D03*
X207675637Y-81776991D03*
X207675637Y-81126991D03*
D22*
X118725637Y-48730991D03*
X118725637Y-50630991D03*
X116850637Y-49680991D03*
D10*
X196800000Y-95740000D03*
X197450000Y-95740000D03*
X198100000Y-95740000D03*
X198100000Y-97640000D03*
X197450000Y-97640000D03*
X196800000Y-97640000D03*
D11*
X82908495Y-103710991D03*
X81258495Y-103710991D03*
D13*
X120575637Y-50425991D03*
X120575637Y-48775991D03*
D12*
X198460000Y-83485000D03*
X198460000Y-85135000D03*
D13*
X158910000Y-97145000D03*
X158910000Y-95495000D03*
D14*
X87248091Y-104460991D03*
X88798091Y-104460991D03*
D23*
X97020000Y-117547500D03*
X97020000Y-118197500D03*
X97020000Y-118847500D03*
X95120000Y-118847500D03*
X95120000Y-118197500D03*
X95120000Y-117547500D03*
D24*
X116143164Y-74437757D03*
X116143164Y-72237757D03*
X117843164Y-72237757D03*
X117843164Y-74437757D03*
D11*
X102343591Y-100107991D03*
X100693591Y-100107991D03*
X91503133Y-75937415D03*
X89853133Y-75937415D03*
D10*
X197000000Y-104150000D03*
X197650000Y-104150000D03*
X198300000Y-104150000D03*
X198300000Y-106050000D03*
X197650000Y-106050000D03*
X197000000Y-106050000D03*
D12*
X122710000Y-103305000D03*
X122710000Y-104955000D03*
X125450000Y-100125000D03*
X125450000Y-101775000D03*
D25*
X160650000Y-101840000D03*
X160000000Y-101840000D03*
X159350000Y-101840000D03*
X159350000Y-99940000D03*
X160000000Y-99940000D03*
X160650000Y-99940000D03*
D10*
X196477500Y-78880000D03*
X197127500Y-78880000D03*
X197777500Y-78880000D03*
X197777500Y-80780000D03*
X197127500Y-80780000D03*
X196477500Y-80780000D03*
D12*
X98691198Y-112085430D03*
X98691198Y-113735430D03*
X188635637Y-48225991D03*
X188635637Y-49875991D03*
D11*
X82908495Y-117800991D03*
X81258495Y-117800991D03*
D21*
X139005164Y-77975757D03*
X139005164Y-77325757D03*
X139005164Y-76675757D03*
X139005164Y-76025757D03*
X143405164Y-76025757D03*
X143405164Y-76675757D03*
X143405164Y-77325757D03*
X143405164Y-77975757D03*
D26*
X116510164Y-70459757D03*
X117470164Y-70459757D03*
D12*
X198540000Y-100285000D03*
X198540000Y-101935000D03*
X90991091Y-101160991D03*
X90991091Y-102810991D03*
D19*
X212581637Y-85422991D03*
X212581637Y-86692991D03*
X212581637Y-87962991D03*
X212581637Y-89232991D03*
X212581637Y-90502991D03*
X212581637Y-91772991D03*
X212581637Y-93042991D03*
X212581637Y-94312991D03*
X207631637Y-94312991D03*
X207631637Y-93042991D03*
X207631637Y-91772991D03*
X207631637Y-90502991D03*
X207631637Y-89232991D03*
X207631637Y-87962991D03*
X207631637Y-86692991D03*
X207631637Y-85422991D03*
D13*
X158910000Y-80415000D03*
X158910000Y-78765000D03*
D16*
X145145637Y-52530991D03*
X143595637Y-52530991D03*
D10*
X159280000Y-91450000D03*
X159930000Y-91450000D03*
X160580000Y-91450000D03*
X160580000Y-93350000D03*
X159930000Y-93350000D03*
X159280000Y-93350000D03*
D11*
X82908495Y-109749562D03*
X81258495Y-109749562D03*
D12*
X98728294Y-117453755D03*
X98728294Y-119103755D03*
D27*
X141375637Y-47880991D03*
X141375637Y-50180991D03*
D28*
X135075637Y-50180991D03*
D27*
X141375637Y-52480991D03*
D12*
X93420000Y-116335000D03*
X93420000Y-117985000D03*
D11*
X82908495Y-111762419D03*
X81258495Y-111762419D03*
X102333591Y-104067991D03*
X100683591Y-104067991D03*
D21*
X139005164Y-93955757D03*
X139005164Y-93305757D03*
X139005164Y-92655757D03*
X139005164Y-92005757D03*
X143405164Y-92005757D03*
X143405164Y-92655757D03*
X143405164Y-93305757D03*
X143405164Y-93955757D03*
D12*
X124400000Y-103295000D03*
X124400000Y-104945000D03*
D16*
X118085637Y-47040991D03*
X116535637Y-47040991D03*
X110510637Y-94750991D03*
X108960637Y-94750991D03*
D14*
X100813591Y-102137991D03*
X102363591Y-102137991D03*
D29*
X97138294Y-113828255D03*
X96188294Y-113828255D03*
X95238294Y-113828255D03*
X95238294Y-111553255D03*
X96188294Y-111553255D03*
X97138294Y-111553255D03*
D25*
X160610000Y-84940000D03*
X159960000Y-84940000D03*
X159310000Y-84940000D03*
X159310000Y-83040000D03*
X159960000Y-83040000D03*
X160610000Y-83040000D03*
D14*
X108960637Y-96330991D03*
X110510637Y-96330991D03*
D23*
X130470000Y-105740000D03*
X130470000Y-106390000D03*
X130470000Y-107040000D03*
X128570000Y-107040000D03*
X128570000Y-106390000D03*
X128570000Y-105740000D03*
D30*
X118231164Y-76302757D03*
X117271164Y-76302757D03*
D17*
X106505000Y-83730000D03*
X108155000Y-83730000D03*
D31*
X87113591Y-102862991D03*
X87113591Y-100962991D03*
X88988591Y-101912991D03*
D32*
X89600133Y-73840991D03*
X91500133Y-73840991D03*
D11*
X82908495Y-107736705D03*
X81258495Y-107736705D03*
D17*
X105680637Y-47710991D03*
X107330637Y-47710991D03*
D19*
X143680164Y-80345757D03*
X143680164Y-81615757D03*
X143680164Y-82885757D03*
X143680164Y-84155757D03*
X143680164Y-85425757D03*
X143680164Y-86695757D03*
X143680164Y-87965757D03*
X143680164Y-89235757D03*
X138730164Y-89235757D03*
X138730164Y-87965757D03*
X138730164Y-86695757D03*
X138730164Y-85425757D03*
X138730164Y-84155757D03*
X138730164Y-82885757D03*
X138730164Y-81615757D03*
X138730164Y-80345757D03*
D33*
X109345637Y-51600991D03*
X109345637Y-50330991D03*
X109345637Y-49060991D03*
X109345637Y-47790991D03*
X114295637Y-47790991D03*
X114295637Y-49060991D03*
X114295637Y-50330991D03*
X114295637Y-51600991D03*
D25*
X160620000Y-75560000D03*
X159970000Y-75560000D03*
X159320000Y-75560000D03*
X159320000Y-73660000D03*
X159970000Y-73660000D03*
X160620000Y-73660000D03*
D34*
X112649164Y-79184757D03*
X113149164Y-79184757D03*
X113649164Y-79184757D03*
X114149164Y-79184757D03*
X114649164Y-79184757D03*
X115149164Y-79184757D03*
X115649164Y-79184757D03*
X116149164Y-79184757D03*
X116649164Y-79184757D03*
X117149164Y-79184757D03*
X117649164Y-79184757D03*
X118149164Y-79184757D03*
X118649164Y-79184757D03*
X119149164Y-79184757D03*
X119649164Y-79184757D03*
X120149164Y-79184757D03*
X120649164Y-79184757D03*
X121149164Y-79184757D03*
X121649164Y-79184757D03*
X122149164Y-79184757D03*
X122649164Y-79184757D03*
X123149164Y-79184757D03*
X123649164Y-79184757D03*
X124149164Y-79184757D03*
X124649164Y-79184757D03*
D35*
X126324164Y-80859757D03*
X126324164Y-81359757D03*
X126324164Y-81859757D03*
X126324164Y-82359757D03*
X126324164Y-82859757D03*
X126324164Y-83359757D03*
X126324164Y-83859757D03*
X126324164Y-84359757D03*
X126324164Y-84859757D03*
X126324164Y-85359757D03*
X126324164Y-85859757D03*
X126324164Y-86359757D03*
X126324164Y-86859757D03*
X126324164Y-87359757D03*
X126324164Y-87859757D03*
X126324164Y-88359757D03*
X126324164Y-88859757D03*
X126324164Y-89359757D03*
X126324164Y-89859757D03*
X126324164Y-90359757D03*
X126324164Y-90859757D03*
X126324164Y-91359757D03*
X126324164Y-91859757D03*
X126324164Y-92359757D03*
X126324164Y-92859757D03*
D34*
X124649164Y-94534757D03*
X124149164Y-94534757D03*
X123649164Y-94534757D03*
X123149164Y-94534757D03*
X122649164Y-94534757D03*
X122149164Y-94534757D03*
X121649164Y-94534757D03*
X121149164Y-94534757D03*
X120649164Y-94534757D03*
X120149164Y-94534757D03*
X119649164Y-94534757D03*
X119149164Y-94534757D03*
X118649164Y-94534757D03*
X118149164Y-94534757D03*
X117649164Y-94534757D03*
X117149164Y-94534757D03*
X116649164Y-94534757D03*
X116149164Y-94534757D03*
X115649164Y-94534757D03*
X115149164Y-94534757D03*
X114649164Y-94534757D03*
X114149164Y-94534757D03*
X113649164Y-94534757D03*
X113149164Y-94534757D03*
X112649164Y-94534757D03*
D35*
X110974164Y-92859757D03*
X110974164Y-92359757D03*
X110974164Y-91859757D03*
X110974164Y-91359757D03*
X110974164Y-90859757D03*
X110974164Y-90359757D03*
X110974164Y-89859757D03*
X110974164Y-89359757D03*
X110974164Y-88859757D03*
X110974164Y-88359757D03*
X110974164Y-87859757D03*
X110974164Y-87359757D03*
X110974164Y-86859757D03*
X110974164Y-86359757D03*
X110974164Y-85859757D03*
X110974164Y-85359757D03*
X110974164Y-84859757D03*
X110974164Y-84359757D03*
X110974164Y-83859757D03*
X110974164Y-83359757D03*
X110974164Y-82859757D03*
X110974164Y-82359757D03*
X110974164Y-81859757D03*
X110974164Y-81359757D03*
X110974164Y-80859757D03*
D21*
X212480686Y-96366991D03*
X212480686Y-97016991D03*
X212480686Y-97666991D03*
X212480686Y-98316991D03*
X208080686Y-98316991D03*
X208080686Y-97666991D03*
X208080686Y-97016991D03*
X208080686Y-96366991D03*
D13*
X158910000Y-88815000D03*
X158910000Y-87165000D03*
D12*
X190735637Y-48225991D03*
X190735637Y-49875991D03*
X198540000Y-91905000D03*
X198540000Y-93555000D03*
D11*
X82908495Y-115788133D03*
X81258495Y-115788133D03*
X82908495Y-105723848D03*
X81258495Y-105723848D03*
D12*
X198260000Y-75155000D03*
X198260000Y-76805000D03*
D14*
X82280637Y-46900991D03*
X83830637Y-46900991D03*
D12*
X128470000Y-100140000D03*
X128470000Y-101790000D03*
D14*
X87203091Y-99390991D03*
X88753091Y-99390991D03*
D19*
X98638591Y-100182991D03*
X98638591Y-101452991D03*
X98638591Y-102722991D03*
X98638591Y-103992991D03*
X93688591Y-103992991D03*
X93688591Y-102722991D03*
X93688591Y-101452991D03*
X93688591Y-100182991D03*
D12*
X184725637Y-48185991D03*
X184725637Y-49835991D03*
D13*
X158900000Y-105615000D03*
X158900000Y-103965000D03*
M02*
