M48
; DRILL file {KiCad (6.0.2)} date Sun Jan 15 00:33:12 2023
; FORMAT={-:-/ absolute / inch / decimal}
; #@! TF.CreationDate,2023-01-15T00:33:12-06:00
; #@! TF.GenerationSoftware,Kicad,Pcbnew,(6.0.2)
; #@! TF.FileFunction,Plated,1,4,PTH
FMAT,2
INCH
; #@! TA.AperFunction,Plated,PTH,ViaDrill
T1C0.0100
; #@! TA.AperFunction,Plated,PTH,ViaDrill
T2C0.0157
; #@! TA.AperFunction,Plated,PTH,ViaDrill
T3C0.0315
; #@! TA.AperFunction,Plated,PTH,ComponentDrill
T4C0.0394
; #@! TA.AperFunction,Plated,PTH,ComponentDrill
T5C0.0512
; #@! TA.AperFunction,Plated,PTH,ComponentDrill
T6C0.2520
%
G90
G05
T1
X3.3442Y-1.4992
X3.345Y-1.215
X3.345Y-1.285
X3.345Y-1.355
X3.3454Y-1.4261
X3.3455Y-1.6355
X3.3459Y-1.5659
X3.398Y-1.061
X3.433Y-3.654
X3.505Y-3.615
X3.505Y-3.645
X3.5565Y-3.285
X3.5598Y-3.6473
X3.585Y-3.285
X3.61Y-3.615
X3.61Y-3.645
X3.6135Y-3.285
X3.6144Y-2.7181
X3.62Y-2.58
X3.665Y-2.415
X3.6744Y-2.7181
X3.7394Y-2.7181
X3.83Y-2.53
X3.86Y-3.65
X3.91Y-1.455
X3.91Y-1.68
X3.9375Y-1.4477
X3.9644Y-1.4385
X3.9894Y-1.4248
X3.99Y-3.615
X3.99Y-3.645
X4.0Y-1.21
X4.0125Y-1.4082
X4.0385Y-3.285
X4.04Y-1.3994
X4.0408Y-3.6389
X4.067Y-3.285
X4.0679Y-1.3938
X4.0892Y-1.3724
X4.095Y-3.615
X4.095Y-3.645
X4.0955Y-3.285
X4.0974Y-2.7181
X4.105Y-2.585
X4.135Y-2.435
X4.1574Y-2.7181
X4.165Y-2.22
X4.2224Y-2.7181
X4.275Y-1.885
X4.31Y-2.54
X4.34Y-3.65
X4.47Y-3.615
X4.47Y-3.645
X4.5225Y-3.285
X4.5248Y-3.6339
X4.551Y-3.285
X4.555Y-1.51
X4.5795Y-3.285
X4.58Y-3.615
X4.58Y-3.645
X4.5804Y-2.7181
X4.585Y-2.58
X4.625Y-1.57
X4.6404Y-2.7181
X4.6787Y-1.6363
X4.68Y-2.025
X4.7054Y-2.7181
X4.755Y-2.44
X4.78Y-1.36
X4.78Y-2.725
X4.8158Y-1.4646
X4.82Y-1.805
X4.825Y-1.575
X4.83Y-1.955
X4.83Y-3.65
X4.8485Y-1.7992
X4.85Y-1.9309
X4.8621Y-1.751
X4.87Y-1.7796
X4.8729Y-1.9064
X4.8834Y-1.7317
X4.925Y-2.535
X4.955Y-3.615
X4.955Y-3.645
X4.97Y-1.31
X5.0055Y-3.285
X5.0078Y-3.6339
X5.034Y-3.285
X5.035Y-1.725
X5.04Y-1.09
X5.0504Y-2.15
X5.06Y-3.615
X5.06Y-3.645
X5.0625Y-3.285
X5.0634Y-2.7181
X5.07Y-2.58
X5.1234Y-2.7181
X5.18Y-1.528
X5.18Y-2.38
X5.1884Y-2.7181
X5.2Y-1.105
X5.2Y-1.504
X5.265Y-2.335
X5.27Y-1.504
X5.305Y-3.65
X5.44Y-3.615
X5.44Y-3.645
X5.47Y-1.93
X5.4885Y-3.285
X5.4928Y-3.6359
X5.517Y-3.285
X5.54Y-2.47
X5.545Y-3.615
X5.545Y-3.645
X5.5455Y-3.285
X5.5464Y-2.7182
X5.55Y-2.58
X5.6064Y-2.7182
X5.63Y-1.8
X5.645Y-2.135
X5.66Y-2.185
X5.6714Y-2.7182
X5.69Y-1.5361
X5.76Y-1.8
X5.79Y-3.65
X5.92Y-3.615
X5.92Y-3.645
X5.9715Y-3.285
X5.9728Y-3.6329
X6.0Y-3.285
X6.0001Y-1.95
X6.025Y-3.615
X6.025Y-3.645
X6.0285Y-3.285
X6.0294Y-2.7182
X6.035Y-2.58
X6.05Y-2.435
X6.0894Y-2.7182
X6.1544Y-2.7182
X6.275Y-3.65
X6.36Y-1.965
X6.3601Y-2.025
X6.405Y-3.615
X6.405Y-3.645
X6.4545Y-3.285
X6.4578Y-3.6369
X6.483Y-3.285
X6.51Y-3.615
X6.51Y-3.645
X6.5115Y-3.285
X6.5124Y-2.7182
X6.515Y-2.58
X6.545Y-2.43
X6.5551Y-1.99
X6.5724Y-2.7182
X6.6374Y-2.7182
X6.72Y-3.65
X6.885Y-3.615
X6.885Y-3.645
X6.92Y-1.255
X6.935Y-3.285
X6.942Y-3.633
X6.965Y-3.285
X6.9935Y-3.285
X6.995Y-3.615
X6.995Y-3.645
X6.9954Y-2.7186
X7.0Y-2.58
X7.03Y-2.425
X7.0554Y-2.7186
X7.1204Y-2.7186
X7.21Y-3.65
X7.37Y-3.615
X7.37Y-3.645
X7.4205Y-3.2849
X7.422Y-3.638
X7.449Y-3.285
X7.475Y-3.615
X7.475Y-3.645
X7.4774Y-2.7188
X7.4775Y-3.2849
X7.485Y-2.58
X7.51Y-2.425
X7.5374Y-2.7188
X7.6024Y-2.7188
X7.725Y-3.65
X7.855Y-3.615
X7.855Y-3.645
X7.9035Y-3.285
X7.905Y-3.639
X7.932Y-3.285
X7.96Y-3.615
X7.96Y-3.645
X7.9605Y-3.285
X7.9614Y-2.7188
X7.965Y-2.58
X7.985Y-2.425
X8.0214Y-2.7188
X8.0864Y-2.7188
X8.205Y-3.65
X8.335Y-3.615
X8.335Y-3.645
X8.385Y-3.285
X8.388Y-3.6333
X8.415Y-3.285
X8.4435Y-3.285
X8.444Y-2.7196
X8.445Y-3.615
X8.445Y-3.645
X8.45Y-2.58
X8.455Y-2.425
X8.504Y-2.7196
X8.569Y-2.7196
X8.685Y-3.65
X8.82Y-3.615
X8.82Y-3.645
X8.8687Y-3.285
X8.872Y-3.634
X8.8972Y-3.285
X8.925Y-3.615
X8.925Y-3.645
X8.9256Y-3.285
X8.927Y-2.7201
X8.935Y-2.42
X8.935Y-2.58
X8.987Y-2.7201
X9.052Y-2.7201
X9.17Y-3.65
X9.254Y-2.349
X9.3Y-3.615
X9.3Y-3.645
X9.3526Y-3.285
X9.357Y-3.6333
X9.381Y-3.285
X9.41Y-3.285
X9.41Y-3.615
X9.41Y-3.645
X9.411Y-2.71
X9.42Y-2.58
X9.47Y-2.71
X9.48Y-3.59
X9.535Y-2.71
T2
X3.2279Y-1.209
X3.267Y-1.213
X3.39Y-1.925
X6.8901Y-1.905
X7.0351Y-1.9
T3
X4.04Y-2.2
X8.258Y-4.495
X9.905Y-2.46
T4
X4.2669Y-1.2046
X4.2669Y-1.3227
X4.385Y-1.2046
X4.385Y-1.3227
X4.5031Y-1.2046
X4.5031Y-1.3227
T5
X3.8197Y-4.1191
X3.8197Y-4.4341
X3.8787Y-4.2176
X3.8787Y-4.3357
X3.9378Y-4.1191
X3.9378Y-4.4341
X3.9969Y-4.2176
X3.9969Y-4.3357
X4.0559Y-4.1191
X4.0559Y-4.4341
X4.115Y-4.2176
X4.115Y-4.3357
X4.174Y-4.1191
X4.174Y-4.4341
X4.2331Y-4.2176
X4.2331Y-4.3357
X4.2921Y-4.1191
X4.2921Y-4.4341
X4.3512Y-4.2176
X4.3512Y-4.3357
X4.4102Y-4.1191
X4.4102Y-4.4341
X4.4693Y-4.2176
X4.4693Y-4.3357
X4.5283Y-4.1191
X4.5283Y-4.4341
X4.5874Y-4.2176
X4.5874Y-4.3357
X4.6465Y-4.1191
X4.6465Y-4.4341
X4.7055Y-4.2176
X4.7055Y-4.3357
X4.7646Y-4.1191
X4.7646Y-4.4341
X5.3354Y-4.1191
X5.3354Y-4.4341
X5.3945Y-4.2176
X5.3945Y-4.3357
X5.4535Y-4.1191
X5.4535Y-4.4341
X5.5126Y-4.2176
X5.5126Y-4.3357
X5.5717Y-4.1191
X5.5717Y-4.4341
X5.6307Y-4.2176
X5.6307Y-4.3357
X5.6898Y-4.1191
X5.6898Y-4.4341
X5.7488Y-4.2176
X5.7488Y-4.3357
X5.8079Y-4.1191
X5.8079Y-4.4341
X5.8669Y-4.2176
X5.8669Y-4.3357
X5.926Y-4.1191
X5.926Y-4.4341
X5.985Y-4.2176
X5.985Y-4.3357
X6.0441Y-4.1191
X6.0441Y-4.4341
T6
X7.625Y-4.32
X9.06Y-4.32
T0
M30
