%TF.GenerationSoftware,KiCad,Pcbnew,(6.0.2)*%
%TF.CreationDate,2023-01-15T00:33:07-06:00*%
%TF.ProjectId,PowerDistribution,506f7765-7244-4697-9374-726962757469,rev?*%
%TF.SameCoordinates,Original*%
%TF.FileFunction,Legend,Bot*%
%TF.FilePolarity,Positive*%
%FSLAX46Y46*%
G04 Gerber Fmt 4.6, Leading zero omitted, Abs format (unit mm)*
G04 Created by KiCad (PCBNEW (6.0.2)) date 2023-01-15 00:33:07*
%MOMM*%
%LPD*%
G01*
G04 APERTURE LIST*
%ADD10C,0.250000*%
%ADD11C,0.010000*%
G04 APERTURE END LIST*
D10*
X247649785Y-42626019D02*
X247602166Y-42578400D01*
X247506928Y-42530780D01*
X247268833Y-42530780D01*
X247173595Y-42578400D01*
X247125976Y-42626019D01*
X247078357Y-42721257D01*
X247078357Y-42816495D01*
X247125976Y-42959352D01*
X247697404Y-43530780D01*
X247078357Y-43530780D01*
X246459309Y-42530780D02*
X246364071Y-42530780D01*
X246268833Y-42578400D01*
X246221214Y-42626019D01*
X246173595Y-42721257D01*
X246125976Y-42911733D01*
X246125976Y-43149828D01*
X246173595Y-43340304D01*
X246221214Y-43435542D01*
X246268833Y-43483161D01*
X246364071Y-43530780D01*
X246459309Y-43530780D01*
X246554547Y-43483161D01*
X246602166Y-43435542D01*
X246649785Y-43340304D01*
X246697404Y-43149828D01*
X246697404Y-42911733D01*
X246649785Y-42721257D01*
X246602166Y-42626019D01*
X246554547Y-42578400D01*
X246459309Y-42530780D01*
X245745023Y-42626019D02*
X245697404Y-42578400D01*
X245602166Y-42530780D01*
X245364071Y-42530780D01*
X245268833Y-42578400D01*
X245221214Y-42626019D01*
X245173595Y-42721257D01*
X245173595Y-42816495D01*
X245221214Y-42959352D01*
X245792642Y-43530780D01*
X245173595Y-43530780D01*
X244840261Y-42530780D02*
X244221214Y-42530780D01*
X244554547Y-42911733D01*
X244411690Y-42911733D01*
X244316452Y-42959352D01*
X244268833Y-43006971D01*
X244221214Y-43102209D01*
X244221214Y-43340304D01*
X244268833Y-43435542D01*
X244316452Y-43483161D01*
X244411690Y-43530780D01*
X244697404Y-43530780D01*
X244792642Y-43483161D01*
X244840261Y-43435542D01*
X252652966Y-40771771D02*
X252986300Y-40771771D01*
X252986300Y-41295580D02*
X252986300Y-40295580D01*
X252510109Y-40295580D01*
X252129157Y-41295580D02*
X252129157Y-40628914D01*
X252129157Y-40819390D02*
X252081538Y-40724152D01*
X252033919Y-40676533D01*
X251938680Y-40628914D01*
X251843442Y-40628914D01*
X251081538Y-41295580D02*
X251081538Y-40771771D01*
X251129157Y-40676533D01*
X251224395Y-40628914D01*
X251414871Y-40628914D01*
X251510109Y-40676533D01*
X251081538Y-41247961D02*
X251176776Y-41295580D01*
X251414871Y-41295580D01*
X251510109Y-41247961D01*
X251557728Y-41152723D01*
X251557728Y-41057485D01*
X251510109Y-40962247D01*
X251414871Y-40914628D01*
X251176776Y-40914628D01*
X251081538Y-40867009D01*
X250605347Y-40628914D02*
X250605347Y-41295580D01*
X250605347Y-40724152D02*
X250557728Y-40676533D01*
X250462490Y-40628914D01*
X250319633Y-40628914D01*
X250224395Y-40676533D01*
X250176776Y-40771771D01*
X250176776Y-41295580D01*
X249272014Y-41247961D02*
X249367252Y-41295580D01*
X249557728Y-41295580D01*
X249652966Y-41247961D01*
X249700585Y-41200342D01*
X249748204Y-41105104D01*
X249748204Y-40819390D01*
X249700585Y-40724152D01*
X249652966Y-40676533D01*
X249557728Y-40628914D01*
X249367252Y-40628914D01*
X249272014Y-40676533D01*
X248843442Y-41295580D02*
X248843442Y-40628914D01*
X248843442Y-40295580D02*
X248891061Y-40343200D01*
X248843442Y-40390819D01*
X248795823Y-40343200D01*
X248843442Y-40295580D01*
X248843442Y-40390819D01*
X248414871Y-41247961D02*
X248319633Y-41295580D01*
X248129157Y-41295580D01*
X248033919Y-41247961D01*
X247986300Y-41152723D01*
X247986300Y-41105104D01*
X248033919Y-41009866D01*
X248129157Y-40962247D01*
X248272014Y-40962247D01*
X248367252Y-40914628D01*
X248414871Y-40819390D01*
X248414871Y-40771771D01*
X248367252Y-40676533D01*
X248272014Y-40628914D01*
X248129157Y-40628914D01*
X248033919Y-40676533D01*
X247129157Y-41247961D02*
X247224395Y-41295580D01*
X247414871Y-41295580D01*
X247510109Y-41247961D01*
X247557728Y-41200342D01*
X247605347Y-41105104D01*
X247605347Y-40819390D01*
X247557728Y-40724152D01*
X247510109Y-40676533D01*
X247414871Y-40628914D01*
X247224395Y-40628914D01*
X247129157Y-40676533D01*
X246557728Y-41295580D02*
X246652966Y-41247961D01*
X246700585Y-41200342D01*
X246748204Y-41105104D01*
X246748204Y-40819390D01*
X246700585Y-40724152D01*
X246652966Y-40676533D01*
X246557728Y-40628914D01*
X246414871Y-40628914D01*
X246319633Y-40676533D01*
X246272014Y-40724152D01*
X246224395Y-40819390D01*
X246224395Y-41105104D01*
X246272014Y-41200342D01*
X246319633Y-41247961D01*
X246414871Y-41295580D01*
X246557728Y-41295580D01*
X244700585Y-40771771D02*
X245033919Y-40771771D01*
X245033919Y-41295580D02*
X245033919Y-40295580D01*
X244557728Y-40295580D01*
X243748204Y-41295580D02*
X243748204Y-40771771D01*
X243795823Y-40676533D01*
X243891061Y-40628914D01*
X244081538Y-40628914D01*
X244176776Y-40676533D01*
X243748204Y-41247961D02*
X243843442Y-41295580D01*
X244081538Y-41295580D01*
X244176776Y-41247961D01*
X244224395Y-41152723D01*
X244224395Y-41057485D01*
X244176776Y-40962247D01*
X244081538Y-40914628D01*
X243843442Y-40914628D01*
X243748204Y-40867009D01*
X243272014Y-41295580D02*
X243272014Y-40295580D01*
X243272014Y-40676533D02*
X243176776Y-40628914D01*
X242986300Y-40628914D01*
X242891061Y-40676533D01*
X242843442Y-40724152D01*
X242795823Y-40819390D01*
X242795823Y-41105104D01*
X242843442Y-41200342D01*
X242891061Y-41247961D01*
X242986300Y-41295580D01*
X243176776Y-41295580D01*
X243272014Y-41247961D01*
X242367252Y-41295580D02*
X242367252Y-40628914D01*
X242367252Y-40819390D02*
X242319633Y-40724152D01*
X242272014Y-40676533D01*
X242176776Y-40628914D01*
X242081538Y-40628914D01*
X241367252Y-41247961D02*
X241462490Y-41295580D01*
X241652966Y-41295580D01*
X241748204Y-41247961D01*
X241795823Y-41152723D01*
X241795823Y-40771771D01*
X241748204Y-40676533D01*
X241652966Y-40628914D01*
X241462490Y-40628914D01*
X241367252Y-40676533D01*
X241319633Y-40771771D01*
X241319633Y-40867009D01*
X241795823Y-40962247D01*
X240462490Y-40628914D02*
X240462490Y-41438438D01*
X240510109Y-41533676D01*
X240557728Y-41581295D01*
X240652966Y-41628914D01*
X240795823Y-41628914D01*
X240891061Y-41581295D01*
X240462490Y-41247961D02*
X240557728Y-41295580D01*
X240748204Y-41295580D01*
X240843442Y-41247961D01*
X240891061Y-41200342D01*
X240938680Y-41105104D01*
X240938680Y-40819390D01*
X240891061Y-40724152D01*
X240843442Y-40676533D01*
X240748204Y-40628914D01*
X240557728Y-40628914D01*
X240462490Y-40676533D01*
X239557728Y-41295580D02*
X239557728Y-40771771D01*
X239605347Y-40676533D01*
X239700585Y-40628914D01*
X239891061Y-40628914D01*
X239986300Y-40676533D01*
X239557728Y-41247961D02*
X239652966Y-41295580D01*
X239891061Y-41295580D01*
X239986300Y-41247961D01*
X240033919Y-41152723D01*
X240033919Y-41057485D01*
X239986300Y-40962247D01*
X239891061Y-40914628D01*
X239652966Y-40914628D01*
X239557728Y-40867009D01*
X239224395Y-40628914D02*
X238843442Y-40628914D01*
X239081538Y-40295580D02*
X239081538Y-41152723D01*
X239033919Y-41247961D01*
X238938680Y-41295580D01*
X238843442Y-41295580D01*
D11*
%TO.C,G\u002A\u002A\u002A*%
X239811197Y-30767978D02*
X239800796Y-30776941D01*
X239800796Y-30776941D02*
X239795076Y-30783814D01*
X239795076Y-30783814D02*
X239781247Y-30804989D01*
X239781247Y-30804989D02*
X239776001Y-30820466D01*
X239776001Y-30820466D02*
X239784086Y-30836160D01*
X239784086Y-30836160D02*
X239806611Y-30860694D01*
X239806611Y-30860694D02*
X239840972Y-30891835D01*
X239840972Y-30891835D02*
X239884571Y-30927353D01*
X239884571Y-30927353D02*
X239934805Y-30965015D01*
X239934805Y-30965015D02*
X239985267Y-31000054D01*
X239985267Y-31000054D02*
X240020671Y-31022848D01*
X240020671Y-31022848D02*
X240070375Y-31053642D01*
X240070375Y-31053642D02*
X240131006Y-31090409D01*
X240131006Y-31090409D02*
X240199190Y-31131122D01*
X240199190Y-31131122D02*
X240271554Y-31173754D01*
X240271554Y-31173754D02*
X240344724Y-31216278D01*
X240344724Y-31216278D02*
X240353345Y-31221246D01*
X240353345Y-31221246D02*
X241061683Y-31640704D01*
X241061683Y-31640704D02*
X241759024Y-32077072D01*
X241759024Y-32077072D02*
X242445476Y-32530431D01*
X242445476Y-32530431D02*
X243121146Y-33000864D01*
X243121146Y-33000864D02*
X243786140Y-33488453D01*
X243786140Y-33488453D02*
X244440566Y-33993281D01*
X244440566Y-33993281D02*
X245084530Y-34515429D01*
X245084530Y-34515429D02*
X245718139Y-35054981D01*
X245718139Y-35054981D02*
X246341501Y-35612017D01*
X246341501Y-35612017D02*
X246954721Y-36186622D01*
X246954721Y-36186622D02*
X247502680Y-36723498D01*
X247502680Y-36723498D02*
X247616157Y-36837411D01*
X247616157Y-36837411D02*
X247719618Y-36942146D01*
X247719618Y-36942146D02*
X247815897Y-37040686D01*
X247815897Y-37040686D02*
X247907829Y-37136018D01*
X247907829Y-37136018D02*
X247998246Y-37231129D01*
X247998246Y-37231129D02*
X248089984Y-37329002D01*
X248089984Y-37329002D02*
X248185875Y-37432625D01*
X248185875Y-37432625D02*
X248288753Y-37544982D01*
X248288753Y-37544982D02*
X248401453Y-37669059D01*
X248401453Y-37669059D02*
X248428256Y-37698680D01*
X248428256Y-37698680D02*
X248584746Y-37868046D01*
X248584746Y-37868046D02*
X248733848Y-38021960D01*
X248733848Y-38021960D02*
X248875072Y-38159956D01*
X248875072Y-38159956D02*
X249007924Y-38281568D01*
X249007924Y-38281568D02*
X249131913Y-38386329D01*
X249131913Y-38386329D02*
X249245120Y-38472750D01*
X249245120Y-38472750D02*
X249319173Y-38524432D01*
X249319173Y-38524432D02*
X249382234Y-38564571D01*
X249382234Y-38564571D02*
X249438553Y-38595065D01*
X249438553Y-38595065D02*
X249492377Y-38617813D01*
X249492377Y-38617813D02*
X249547955Y-38634714D01*
X249547955Y-38634714D02*
X249609535Y-38647666D01*
X249609535Y-38647666D02*
X249651520Y-38654389D01*
X249651520Y-38654389D02*
X249709843Y-38662504D01*
X249709843Y-38662504D02*
X249751776Y-38666885D01*
X249751776Y-38666885D02*
X249780926Y-38667428D01*
X249780926Y-38667428D02*
X249800899Y-38664025D01*
X249800899Y-38664025D02*
X249815298Y-38656571D01*
X249815298Y-38656571D02*
X249823561Y-38649319D01*
X249823561Y-38649319D02*
X249846149Y-38624713D01*
X249846149Y-38624713D02*
X249861870Y-38600791D01*
X249861870Y-38600791D02*
X249872147Y-38572908D01*
X249872147Y-38572908D02*
X249878404Y-38536418D01*
X249878404Y-38536418D02*
X249882064Y-38486675D01*
X249882064Y-38486675D02*
X249883415Y-38454011D01*
X249883415Y-38454011D02*
X249882466Y-38312929D01*
X249882466Y-38312929D02*
X249870288Y-38156386D01*
X249870288Y-38156386D02*
X249847095Y-37985708D01*
X249847095Y-37985708D02*
X249813102Y-37802223D01*
X249813102Y-37802223D02*
X249768526Y-37607259D01*
X249768526Y-37607259D02*
X249713581Y-37402144D01*
X249713581Y-37402144D02*
X249711520Y-37394962D01*
X249711520Y-37394962D02*
X249699140Y-37353395D01*
X249699140Y-37353395D02*
X249681289Y-37295556D01*
X249681289Y-37295556D02*
X249658927Y-37224450D01*
X249658927Y-37224450D02*
X249633012Y-37143082D01*
X249633012Y-37143082D02*
X249604502Y-37054457D01*
X249604502Y-37054457D02*
X249574356Y-36961579D01*
X249574356Y-36961579D02*
X249543532Y-36867453D01*
X249543532Y-36867453D02*
X249534540Y-36840160D01*
X249534540Y-36840160D02*
X249490047Y-36704846D01*
X249490047Y-36704846D02*
X249449425Y-36580368D01*
X249449425Y-36580368D02*
X249412983Y-36467710D01*
X249412983Y-36467710D02*
X249381031Y-36367858D01*
X249381031Y-36367858D02*
X249353878Y-36281799D01*
X249353878Y-36281799D02*
X249331834Y-36210518D01*
X249331834Y-36210518D02*
X249315208Y-36155001D01*
X249315208Y-36155001D02*
X249304311Y-36116234D01*
X249304311Y-36116234D02*
X249299451Y-36095203D01*
X249299451Y-36095203D02*
X249299436Y-36091577D01*
X249299436Y-36091577D02*
X249302650Y-36092527D01*
X249302650Y-36092527D02*
X249311184Y-36097972D01*
X249311184Y-36097972D02*
X249326295Y-36108888D01*
X249326295Y-36108888D02*
X249349240Y-36126249D01*
X249349240Y-36126249D02*
X249381275Y-36151031D01*
X249381275Y-36151031D02*
X249423657Y-36184209D01*
X249423657Y-36184209D02*
X249477644Y-36226758D01*
X249477644Y-36226758D02*
X249544491Y-36279652D01*
X249544491Y-36279652D02*
X249625455Y-36343867D01*
X249625455Y-36343867D02*
X249661912Y-36372812D01*
X249661912Y-36372812D02*
X249705715Y-36408716D01*
X249705715Y-36408716D02*
X249750984Y-36447665D01*
X249750984Y-36447665D02*
X249790686Y-36483538D01*
X249790686Y-36483538D02*
X249806474Y-36498628D01*
X249806474Y-36498628D02*
X249841648Y-36530834D01*
X249841648Y-36530834D02*
X249868272Y-36549036D01*
X249868272Y-36549036D02*
X249889882Y-36555563D01*
X249889882Y-36555563D02*
X249893111Y-36555680D01*
X249893111Y-36555680D02*
X249925072Y-36548941D01*
X249925072Y-36548941D02*
X249942364Y-36528227D01*
X249942364Y-36528227D02*
X249946160Y-36503108D01*
X249946160Y-36503108D02*
X249937882Y-36475626D01*
X249937882Y-36475626D02*
X249913499Y-36437345D01*
X249913499Y-36437345D02*
X249873691Y-36388923D01*
X249873691Y-36388923D02*
X249819138Y-36331015D01*
X249819138Y-36331015D02*
X249750519Y-36264279D01*
X249750519Y-36264279D02*
X249668515Y-36189371D01*
X249668515Y-36189371D02*
X249573803Y-36106947D01*
X249573803Y-36106947D02*
X249467064Y-36017664D01*
X249467064Y-36017664D02*
X249348978Y-35922177D01*
X249348978Y-35922177D02*
X249325586Y-35903603D01*
X249325586Y-35903603D02*
X249228251Y-35826527D01*
X249228251Y-35826527D02*
X249211385Y-35746603D01*
X249211385Y-35746603D02*
X249195946Y-35669771D01*
X249195946Y-35669771D02*
X249182876Y-35597449D01*
X249182876Y-35597449D02*
X249172770Y-35533427D01*
X249172770Y-35533427D02*
X249166226Y-35481494D01*
X249166226Y-35481494D02*
X249163842Y-35445440D01*
X249163842Y-35445440D02*
X249163840Y-35444847D01*
X249163840Y-35444847D02*
X249163840Y-35403476D01*
X249163840Y-35403476D02*
X249202369Y-35441098D01*
X249202369Y-35441098D02*
X249238013Y-35468327D01*
X249238013Y-35468327D02*
X249270682Y-35478753D01*
X249270682Y-35478753D02*
X249297790Y-35471728D01*
X249297790Y-35471728D02*
X249304048Y-35466528D01*
X249304048Y-35466528D02*
X249314400Y-35449024D01*
X249314400Y-35449024D02*
X249313043Y-35426654D01*
X249313043Y-35426654D02*
X249299004Y-35396980D01*
X249299004Y-35396980D02*
X249271310Y-35357568D01*
X249271310Y-35357568D02*
X249249750Y-35330669D01*
X249249750Y-35330669D02*
X249216908Y-35290880D01*
X249216908Y-35290880D02*
X249184480Y-35251585D01*
X249184480Y-35251585D02*
X249157481Y-35218864D01*
X249157481Y-35218864D02*
X249147644Y-35206940D01*
X249147644Y-35206940D02*
X249114850Y-35175414D01*
X249114850Y-35175414D02*
X249084577Y-35163818D01*
X249084577Y-35163818D02*
X249056206Y-35172007D01*
X249056206Y-35172007D02*
X249043555Y-35182445D01*
X249043555Y-35182445D02*
X249031986Y-35205099D01*
X249031986Y-35205099D02*
X249023622Y-35244537D01*
X249023622Y-35244537D02*
X249018478Y-35297477D01*
X249018478Y-35297477D02*
X249016569Y-35360635D01*
X249016569Y-35360635D02*
X249017911Y-35430729D01*
X249017911Y-35430729D02*
X249022517Y-35504475D01*
X249022517Y-35504475D02*
X249030404Y-35578589D01*
X249030404Y-35578589D02*
X249041420Y-35648900D01*
X249041420Y-35648900D02*
X249045650Y-35675067D01*
X249045650Y-35675067D02*
X249046891Y-35690406D01*
X249046891Y-35690406D02*
X249046346Y-35692080D01*
X249046346Y-35692080D02*
X249037386Y-35686591D01*
X249037386Y-35686591D02*
X249014633Y-35671423D01*
X249014633Y-35671423D02*
X248980959Y-35648523D01*
X248980959Y-35648523D02*
X248939235Y-35619840D01*
X248939235Y-35619840D02*
X248909503Y-35599258D01*
X248909503Y-35599258D02*
X248838168Y-35550702D01*
X248838168Y-35550702D02*
X248765884Y-35503243D01*
X248765884Y-35503243D02*
X248694969Y-35458255D01*
X248694969Y-35458255D02*
X248627739Y-35417107D01*
X248627739Y-35417107D02*
X248566512Y-35381172D01*
X248566512Y-35381172D02*
X248513602Y-35351821D01*
X248513602Y-35351821D02*
X248471328Y-35330426D01*
X248471328Y-35330426D02*
X248442006Y-35318357D01*
X248442006Y-35318357D02*
X248431292Y-35316160D01*
X248431292Y-35316160D02*
X248396271Y-35324875D01*
X248396271Y-35324875D02*
X248372452Y-35348661D01*
X248372452Y-35348661D02*
X248362880Y-35383977D01*
X248362880Y-35383977D02*
X248363162Y-35395386D01*
X248363162Y-35395386D02*
X248364039Y-35406779D01*
X248364039Y-35406779D02*
X248365768Y-35416422D01*
X248365768Y-35416422D02*
X248370182Y-35425774D01*
X248370182Y-35425774D02*
X248379117Y-35436293D01*
X248379117Y-35436293D02*
X248394405Y-35449438D01*
X248394405Y-35449438D02*
X248417881Y-35466666D01*
X248417881Y-35466666D02*
X248451380Y-35489438D01*
X248451380Y-35489438D02*
X248496736Y-35519210D01*
X248496736Y-35519210D02*
X248555781Y-35557442D01*
X248555781Y-35557442D02*
X248615200Y-35595804D01*
X248615200Y-35595804D02*
X248669488Y-35631369D01*
X248669488Y-35631369D02*
X248734520Y-35674766D01*
X248734520Y-35674766D02*
X248804476Y-35722063D01*
X248804476Y-35722063D02*
X248873530Y-35769328D01*
X248873530Y-35769328D02*
X248925273Y-35805215D01*
X248925273Y-35805215D02*
X249098185Y-35926042D01*
X249098185Y-35926042D02*
X249122069Y-36019881D01*
X249122069Y-36019881D02*
X249141643Y-36092972D01*
X249141643Y-36092972D02*
X249167369Y-36182543D01*
X249167369Y-36182543D02*
X249199385Y-36289037D01*
X249199385Y-36289037D02*
X249237828Y-36412896D01*
X249237828Y-36412896D02*
X249282835Y-36554563D01*
X249282835Y-36554563D02*
X249334543Y-36714479D01*
X249334543Y-36714479D02*
X249386848Y-36874144D01*
X249386848Y-36874144D02*
X249416605Y-36964847D01*
X249416605Y-36964847D02*
X249445547Y-37053697D01*
X249445547Y-37053697D02*
X249472777Y-37137900D01*
X249472777Y-37137900D02*
X249497400Y-37214660D01*
X249497400Y-37214660D02*
X249518521Y-37281182D01*
X249518521Y-37281182D02*
X249535243Y-37334672D01*
X249535243Y-37334672D02*
X249546671Y-37372335D01*
X249546671Y-37372335D02*
X249548507Y-37378640D01*
X249548507Y-37378640D02*
X249603324Y-37581628D01*
X249603324Y-37581628D02*
X249646692Y-37769715D01*
X249646692Y-37769715D02*
X249678899Y-37944586D01*
X249678899Y-37944586D02*
X249700232Y-38107929D01*
X249700232Y-38107929D02*
X249710978Y-38261431D01*
X249710978Y-38261431D02*
X249712480Y-38341237D01*
X249712480Y-38341237D02*
X249712480Y-38475920D01*
X249712480Y-38475920D02*
X249676730Y-38475920D01*
X249676730Y-38475920D02*
X249629599Y-38469405D01*
X249629599Y-38469405D02*
X249571987Y-38451126D01*
X249571987Y-38451126D02*
X249508455Y-38422977D01*
X249508455Y-38422977D02*
X249443563Y-38386853D01*
X249443563Y-38386853D02*
X249410401Y-38365274D01*
X249410401Y-38365274D02*
X249329553Y-38307577D01*
X249329553Y-38307577D02*
X249248515Y-38245210D01*
X249248515Y-38245210D02*
X249165850Y-38176811D01*
X249165850Y-38176811D02*
X249080120Y-38101016D01*
X249080120Y-38101016D02*
X248989889Y-38016464D01*
X248989889Y-38016464D02*
X248893719Y-37921793D01*
X248893719Y-37921793D02*
X248790172Y-37815640D01*
X248790172Y-37815640D02*
X248677812Y-37696642D01*
X248677812Y-37696642D02*
X248555201Y-37563437D01*
X248555201Y-37563437D02*
X248498163Y-37500560D01*
X248498163Y-37500560D02*
X248374460Y-37365315D01*
X248374460Y-37365315D02*
X248237948Y-37219052D01*
X248237948Y-37219052D02*
X248091034Y-37064216D01*
X248091034Y-37064216D02*
X247936123Y-36903253D01*
X247936123Y-36903253D02*
X247775625Y-36738612D01*
X247775625Y-36738612D02*
X247611946Y-36572738D01*
X247611946Y-36572738D02*
X247447494Y-36408077D01*
X247447494Y-36408077D02*
X247284676Y-36247078D01*
X247284676Y-36247078D02*
X247125899Y-36092186D01*
X247125899Y-36092186D02*
X246973570Y-35945849D01*
X246973570Y-35945849D02*
X246898160Y-35874374D01*
X246898160Y-35874374D02*
X246302811Y-35324350D01*
X246302811Y-35324350D02*
X245702540Y-34792455D01*
X245702540Y-34792455D02*
X245097641Y-34278910D01*
X245097641Y-34278910D02*
X244488411Y-33783937D01*
X244488411Y-33783937D02*
X243875145Y-33307760D01*
X243875145Y-33307760D02*
X243258139Y-32850601D01*
X243258139Y-32850601D02*
X242637688Y-32412682D01*
X242637688Y-32412682D02*
X242014088Y-31994225D01*
X242014088Y-31994225D02*
X241387634Y-31595453D01*
X241387634Y-31595453D02*
X240758622Y-31216589D01*
X240758622Y-31216589D02*
X240547349Y-31094141D01*
X240547349Y-31094141D02*
X240429062Y-31026740D01*
X240429062Y-31026740D02*
X240326276Y-30969305D01*
X240326276Y-30969305D02*
X240237278Y-30921006D01*
X240237278Y-30921006D02*
X240160350Y-30881016D01*
X240160350Y-30881016D02*
X240093779Y-30848508D01*
X240093779Y-30848508D02*
X240035847Y-30822654D01*
X240035847Y-30822654D02*
X239984841Y-30802626D01*
X239984841Y-30802626D02*
X239939045Y-30787598D01*
X239939045Y-30787598D02*
X239896744Y-30776740D01*
X239896744Y-30776740D02*
X239883976Y-30774073D01*
X239883976Y-30774073D02*
X239847225Y-30767154D01*
X239847225Y-30767154D02*
X239824820Y-30764919D01*
X239824820Y-30764919D02*
X239811197Y-30767978D01*
X239811197Y-30767978D02*
X239811197Y-30767978D01*
G36*
X239847225Y-30767154D02*
G01*
X239883976Y-30774073D01*
X239896744Y-30776740D01*
X239939045Y-30787598D01*
X239984841Y-30802626D01*
X240035847Y-30822654D01*
X240093779Y-30848508D01*
X240160350Y-30881016D01*
X240237278Y-30921006D01*
X240326276Y-30969305D01*
X240429062Y-31026740D01*
X240547349Y-31094141D01*
X240758622Y-31216589D01*
X241387634Y-31595453D01*
X242014088Y-31994225D01*
X242637688Y-32412682D01*
X243258139Y-32850601D01*
X243875145Y-33307760D01*
X244488411Y-33783937D01*
X245097641Y-34278910D01*
X245702540Y-34792455D01*
X246302811Y-35324350D01*
X246898160Y-35874374D01*
X246973570Y-35945849D01*
X247125899Y-36092186D01*
X247284676Y-36247078D01*
X247447494Y-36408077D01*
X247611946Y-36572738D01*
X247775625Y-36738612D01*
X247936123Y-36903253D01*
X248091034Y-37064216D01*
X248237948Y-37219052D01*
X248374460Y-37365315D01*
X248498163Y-37500560D01*
X248555201Y-37563437D01*
X248677812Y-37696642D01*
X248790172Y-37815640D01*
X248893719Y-37921793D01*
X248989889Y-38016464D01*
X249080120Y-38101016D01*
X249165850Y-38176811D01*
X249248515Y-38245210D01*
X249329553Y-38307577D01*
X249410401Y-38365274D01*
X249443563Y-38386853D01*
X249508455Y-38422977D01*
X249571987Y-38451126D01*
X249629599Y-38469405D01*
X249676730Y-38475920D01*
X249712480Y-38475920D01*
X249712480Y-38341237D01*
X249710978Y-38261431D01*
X249700232Y-38107929D01*
X249678899Y-37944586D01*
X249646692Y-37769715D01*
X249603324Y-37581628D01*
X249548507Y-37378640D01*
X249546671Y-37372335D01*
X249535243Y-37334672D01*
X249518521Y-37281182D01*
X249497400Y-37214660D01*
X249472777Y-37137900D01*
X249445547Y-37053697D01*
X249416605Y-36964847D01*
X249386848Y-36874144D01*
X249334543Y-36714479D01*
X249282835Y-36554563D01*
X249237828Y-36412896D01*
X249199385Y-36289037D01*
X249167369Y-36182543D01*
X249141643Y-36092972D01*
X249122069Y-36019881D01*
X249098185Y-35926042D01*
X248925273Y-35805215D01*
X248873530Y-35769328D01*
X248804476Y-35722063D01*
X248734520Y-35674766D01*
X248669488Y-35631369D01*
X248615200Y-35595804D01*
X248555781Y-35557442D01*
X248496736Y-35519210D01*
X248451380Y-35489438D01*
X248417881Y-35466666D01*
X248394405Y-35449438D01*
X248379117Y-35436293D01*
X248370182Y-35425774D01*
X248365768Y-35416422D01*
X248364039Y-35406779D01*
X248363162Y-35395386D01*
X248362880Y-35383977D01*
X248372452Y-35348661D01*
X248396271Y-35324875D01*
X248431292Y-35316160D01*
X248442006Y-35318357D01*
X248471328Y-35330426D01*
X248513602Y-35351821D01*
X248566512Y-35381172D01*
X248627739Y-35417107D01*
X248694969Y-35458255D01*
X248765884Y-35503243D01*
X248838168Y-35550702D01*
X248909503Y-35599258D01*
X248939235Y-35619840D01*
X248980959Y-35648523D01*
X249014633Y-35671423D01*
X249037386Y-35686591D01*
X249046346Y-35692080D01*
X249046891Y-35690406D01*
X249045650Y-35675067D01*
X249041420Y-35648900D01*
X249030404Y-35578589D01*
X249022517Y-35504475D01*
X249017911Y-35430729D01*
X249016569Y-35360635D01*
X249018478Y-35297477D01*
X249023622Y-35244537D01*
X249031986Y-35205099D01*
X249043555Y-35182445D01*
X249056206Y-35172007D01*
X249084577Y-35163818D01*
X249114850Y-35175414D01*
X249147644Y-35206940D01*
X249157481Y-35218864D01*
X249184480Y-35251585D01*
X249216908Y-35290880D01*
X249249750Y-35330669D01*
X249271310Y-35357568D01*
X249299004Y-35396980D01*
X249313043Y-35426654D01*
X249314400Y-35449024D01*
X249304048Y-35466528D01*
X249297790Y-35471728D01*
X249270682Y-35478753D01*
X249238013Y-35468327D01*
X249202369Y-35441098D01*
X249163840Y-35403476D01*
X249163840Y-35444847D01*
X249163842Y-35445440D01*
X249166226Y-35481494D01*
X249172770Y-35533427D01*
X249182876Y-35597449D01*
X249195946Y-35669771D01*
X249211385Y-35746603D01*
X249228251Y-35826527D01*
X249325586Y-35903603D01*
X249348978Y-35922177D01*
X249467064Y-36017664D01*
X249573803Y-36106947D01*
X249668515Y-36189371D01*
X249750519Y-36264279D01*
X249819138Y-36331015D01*
X249873691Y-36388923D01*
X249913499Y-36437345D01*
X249937882Y-36475626D01*
X249946160Y-36503108D01*
X249942364Y-36528227D01*
X249925072Y-36548941D01*
X249893111Y-36555680D01*
X249889882Y-36555563D01*
X249868272Y-36549036D01*
X249841648Y-36530834D01*
X249806474Y-36498628D01*
X249790686Y-36483538D01*
X249750984Y-36447665D01*
X249705715Y-36408716D01*
X249661912Y-36372812D01*
X249625455Y-36343867D01*
X249544491Y-36279652D01*
X249477644Y-36226758D01*
X249423657Y-36184209D01*
X249381275Y-36151031D01*
X249349240Y-36126249D01*
X249326295Y-36108888D01*
X249311184Y-36097972D01*
X249302650Y-36092527D01*
X249299436Y-36091577D01*
X249299451Y-36095203D01*
X249304311Y-36116234D01*
X249315208Y-36155001D01*
X249331834Y-36210518D01*
X249353878Y-36281799D01*
X249381031Y-36367858D01*
X249412983Y-36467710D01*
X249449425Y-36580368D01*
X249490047Y-36704846D01*
X249534540Y-36840160D01*
X249543532Y-36867453D01*
X249574356Y-36961579D01*
X249604502Y-37054457D01*
X249633012Y-37143082D01*
X249658927Y-37224450D01*
X249681289Y-37295556D01*
X249699140Y-37353395D01*
X249711520Y-37394962D01*
X249713581Y-37402144D01*
X249768526Y-37607259D01*
X249813102Y-37802223D01*
X249847095Y-37985708D01*
X249870288Y-38156386D01*
X249882466Y-38312929D01*
X249883415Y-38454011D01*
X249882064Y-38486675D01*
X249878404Y-38536418D01*
X249872147Y-38572908D01*
X249861870Y-38600791D01*
X249846149Y-38624713D01*
X249823561Y-38649319D01*
X249815298Y-38656571D01*
X249800899Y-38664025D01*
X249780926Y-38667428D01*
X249751776Y-38666885D01*
X249709843Y-38662504D01*
X249651520Y-38654389D01*
X249609535Y-38647666D01*
X249547955Y-38634714D01*
X249492377Y-38617813D01*
X249438553Y-38595065D01*
X249382234Y-38564571D01*
X249319173Y-38524432D01*
X249245120Y-38472750D01*
X249131913Y-38386329D01*
X249007924Y-38281568D01*
X248875072Y-38159956D01*
X248733848Y-38021960D01*
X248584746Y-37868046D01*
X248428256Y-37698680D01*
X248401453Y-37669059D01*
X248288753Y-37544982D01*
X248185875Y-37432625D01*
X248089984Y-37329002D01*
X247998246Y-37231129D01*
X247907829Y-37136018D01*
X247815897Y-37040686D01*
X247719618Y-36942146D01*
X247616157Y-36837411D01*
X247502680Y-36723498D01*
X246954721Y-36186622D01*
X246341501Y-35612017D01*
X245718139Y-35054981D01*
X245084530Y-34515429D01*
X244440566Y-33993281D01*
X243786140Y-33488453D01*
X243121146Y-33000864D01*
X242445476Y-32530431D01*
X241759024Y-32077072D01*
X241061683Y-31640704D01*
X240353345Y-31221246D01*
X240344724Y-31216278D01*
X240271554Y-31173754D01*
X240199190Y-31131122D01*
X240131006Y-31090409D01*
X240070375Y-31053642D01*
X240020671Y-31022848D01*
X239985267Y-31000054D01*
X239934805Y-30965015D01*
X239884571Y-30927353D01*
X239840972Y-30891835D01*
X239806611Y-30860694D01*
X239784086Y-30836160D01*
X239776001Y-30820466D01*
X239781247Y-30804989D01*
X239795076Y-30783814D01*
X239800796Y-30776941D01*
X239811197Y-30767978D01*
X239824820Y-30764919D01*
X239847225Y-30767154D01*
G37*
X239847225Y-30767154D02*
X239883976Y-30774073D01*
X239896744Y-30776740D01*
X239939045Y-30787598D01*
X239984841Y-30802626D01*
X240035847Y-30822654D01*
X240093779Y-30848508D01*
X240160350Y-30881016D01*
X240237278Y-30921006D01*
X240326276Y-30969305D01*
X240429062Y-31026740D01*
X240547349Y-31094141D01*
X240758622Y-31216589D01*
X241387634Y-31595453D01*
X242014088Y-31994225D01*
X242637688Y-32412682D01*
X243258139Y-32850601D01*
X243875145Y-33307760D01*
X244488411Y-33783937D01*
X245097641Y-34278910D01*
X245702540Y-34792455D01*
X246302811Y-35324350D01*
X246898160Y-35874374D01*
X246973570Y-35945849D01*
X247125899Y-36092186D01*
X247284676Y-36247078D01*
X247447494Y-36408077D01*
X247611946Y-36572738D01*
X247775625Y-36738612D01*
X247936123Y-36903253D01*
X248091034Y-37064216D01*
X248237948Y-37219052D01*
X248374460Y-37365315D01*
X248498163Y-37500560D01*
X248555201Y-37563437D01*
X248677812Y-37696642D01*
X248790172Y-37815640D01*
X248893719Y-37921793D01*
X248989889Y-38016464D01*
X249080120Y-38101016D01*
X249165850Y-38176811D01*
X249248515Y-38245210D01*
X249329553Y-38307577D01*
X249410401Y-38365274D01*
X249443563Y-38386853D01*
X249508455Y-38422977D01*
X249571987Y-38451126D01*
X249629599Y-38469405D01*
X249676730Y-38475920D01*
X249712480Y-38475920D01*
X249712480Y-38341237D01*
X249710978Y-38261431D01*
X249700232Y-38107929D01*
X249678899Y-37944586D01*
X249646692Y-37769715D01*
X249603324Y-37581628D01*
X249548507Y-37378640D01*
X249546671Y-37372335D01*
X249535243Y-37334672D01*
X249518521Y-37281182D01*
X249497400Y-37214660D01*
X249472777Y-37137900D01*
X249445547Y-37053697D01*
X249416605Y-36964847D01*
X249386848Y-36874144D01*
X249334543Y-36714479D01*
X249282835Y-36554563D01*
X249237828Y-36412896D01*
X249199385Y-36289037D01*
X249167369Y-36182543D01*
X249141643Y-36092972D01*
X249122069Y-36019881D01*
X249098185Y-35926042D01*
X248925273Y-35805215D01*
X248873530Y-35769328D01*
X248804476Y-35722063D01*
X248734520Y-35674766D01*
X248669488Y-35631369D01*
X248615200Y-35595804D01*
X248555781Y-35557442D01*
X248496736Y-35519210D01*
X248451380Y-35489438D01*
X248417881Y-35466666D01*
X248394405Y-35449438D01*
X248379117Y-35436293D01*
X248370182Y-35425774D01*
X248365768Y-35416422D01*
X248364039Y-35406779D01*
X248363162Y-35395386D01*
X248362880Y-35383977D01*
X248372452Y-35348661D01*
X248396271Y-35324875D01*
X248431292Y-35316160D01*
X248442006Y-35318357D01*
X248471328Y-35330426D01*
X248513602Y-35351821D01*
X248566512Y-35381172D01*
X248627739Y-35417107D01*
X248694969Y-35458255D01*
X248765884Y-35503243D01*
X248838168Y-35550702D01*
X248909503Y-35599258D01*
X248939235Y-35619840D01*
X248980959Y-35648523D01*
X249014633Y-35671423D01*
X249037386Y-35686591D01*
X249046346Y-35692080D01*
X249046891Y-35690406D01*
X249045650Y-35675067D01*
X249041420Y-35648900D01*
X249030404Y-35578589D01*
X249022517Y-35504475D01*
X249017911Y-35430729D01*
X249016569Y-35360635D01*
X249018478Y-35297477D01*
X249023622Y-35244537D01*
X249031986Y-35205099D01*
X249043555Y-35182445D01*
X249056206Y-35172007D01*
X249084577Y-35163818D01*
X249114850Y-35175414D01*
X249147644Y-35206940D01*
X249157481Y-35218864D01*
X249184480Y-35251585D01*
X249216908Y-35290880D01*
X249249750Y-35330669D01*
X249271310Y-35357568D01*
X249299004Y-35396980D01*
X249313043Y-35426654D01*
X249314400Y-35449024D01*
X249304048Y-35466528D01*
X249297790Y-35471728D01*
X249270682Y-35478753D01*
X249238013Y-35468327D01*
X249202369Y-35441098D01*
X249163840Y-35403476D01*
X249163840Y-35444847D01*
X249163842Y-35445440D01*
X249166226Y-35481494D01*
X249172770Y-35533427D01*
X249182876Y-35597449D01*
X249195946Y-35669771D01*
X249211385Y-35746603D01*
X249228251Y-35826527D01*
X249325586Y-35903603D01*
X249348978Y-35922177D01*
X249467064Y-36017664D01*
X249573803Y-36106947D01*
X249668515Y-36189371D01*
X249750519Y-36264279D01*
X249819138Y-36331015D01*
X249873691Y-36388923D01*
X249913499Y-36437345D01*
X249937882Y-36475626D01*
X249946160Y-36503108D01*
X249942364Y-36528227D01*
X249925072Y-36548941D01*
X249893111Y-36555680D01*
X249889882Y-36555563D01*
X249868272Y-36549036D01*
X249841648Y-36530834D01*
X249806474Y-36498628D01*
X249790686Y-36483538D01*
X249750984Y-36447665D01*
X249705715Y-36408716D01*
X249661912Y-36372812D01*
X249625455Y-36343867D01*
X249544491Y-36279652D01*
X249477644Y-36226758D01*
X249423657Y-36184209D01*
X249381275Y-36151031D01*
X249349240Y-36126249D01*
X249326295Y-36108888D01*
X249311184Y-36097972D01*
X249302650Y-36092527D01*
X249299436Y-36091577D01*
X249299451Y-36095203D01*
X249304311Y-36116234D01*
X249315208Y-36155001D01*
X249331834Y-36210518D01*
X249353878Y-36281799D01*
X249381031Y-36367858D01*
X249412983Y-36467710D01*
X249449425Y-36580368D01*
X249490047Y-36704846D01*
X249534540Y-36840160D01*
X249543532Y-36867453D01*
X249574356Y-36961579D01*
X249604502Y-37054457D01*
X249633012Y-37143082D01*
X249658927Y-37224450D01*
X249681289Y-37295556D01*
X249699140Y-37353395D01*
X249711520Y-37394962D01*
X249713581Y-37402144D01*
X249768526Y-37607259D01*
X249813102Y-37802223D01*
X249847095Y-37985708D01*
X249870288Y-38156386D01*
X249882466Y-38312929D01*
X249883415Y-38454011D01*
X249882064Y-38486675D01*
X249878404Y-38536418D01*
X249872147Y-38572908D01*
X249861870Y-38600791D01*
X249846149Y-38624713D01*
X249823561Y-38649319D01*
X249815298Y-38656571D01*
X249800899Y-38664025D01*
X249780926Y-38667428D01*
X249751776Y-38666885D01*
X249709843Y-38662504D01*
X249651520Y-38654389D01*
X249609535Y-38647666D01*
X249547955Y-38634714D01*
X249492377Y-38617813D01*
X249438553Y-38595065D01*
X249382234Y-38564571D01*
X249319173Y-38524432D01*
X249245120Y-38472750D01*
X249131913Y-38386329D01*
X249007924Y-38281568D01*
X248875072Y-38159956D01*
X248733848Y-38021960D01*
X248584746Y-37868046D01*
X248428256Y-37698680D01*
X248401453Y-37669059D01*
X248288753Y-37544982D01*
X248185875Y-37432625D01*
X248089984Y-37329002D01*
X247998246Y-37231129D01*
X247907829Y-37136018D01*
X247815897Y-37040686D01*
X247719618Y-36942146D01*
X247616157Y-36837411D01*
X247502680Y-36723498D01*
X246954721Y-36186622D01*
X246341501Y-35612017D01*
X245718139Y-35054981D01*
X245084530Y-34515429D01*
X244440566Y-33993281D01*
X243786140Y-33488453D01*
X243121146Y-33000864D01*
X242445476Y-32530431D01*
X241759024Y-32077072D01*
X241061683Y-31640704D01*
X240353345Y-31221246D01*
X240344724Y-31216278D01*
X240271554Y-31173754D01*
X240199190Y-31131122D01*
X240131006Y-31090409D01*
X240070375Y-31053642D01*
X240020671Y-31022848D01*
X239985267Y-31000054D01*
X239934805Y-30965015D01*
X239884571Y-30927353D01*
X239840972Y-30891835D01*
X239806611Y-30860694D01*
X239784086Y-30836160D01*
X239776001Y-30820466D01*
X239781247Y-30804989D01*
X239795076Y-30783814D01*
X239800796Y-30776941D01*
X239811197Y-30767978D01*
X239824820Y-30764919D01*
X239847225Y-30767154D01*
X242073735Y-30153649D02*
X242050903Y-30176030D01*
X242050903Y-30176030D02*
X242038887Y-30205317D01*
X242038887Y-30205317D02*
X242038294Y-30213133D01*
X242038294Y-30213133D02*
X242041517Y-30233217D01*
X242041517Y-30233217D02*
X242051822Y-30257671D01*
X242051822Y-30257671D02*
X242070160Y-30287611D01*
X242070160Y-30287611D02*
X242097485Y-30324149D01*
X242097485Y-30324149D02*
X242134748Y-30368398D01*
X242134748Y-30368398D02*
X242182903Y-30421472D01*
X242182903Y-30421472D02*
X242242901Y-30484485D01*
X242242901Y-30484485D02*
X242315695Y-30558550D01*
X242315695Y-30558550D02*
X242402238Y-30644780D01*
X242402238Y-30644780D02*
X242436032Y-30678120D01*
X242436032Y-30678120D02*
X242513816Y-30755380D01*
X242513816Y-30755380D02*
X242598150Y-30840350D01*
X242598150Y-30840350D02*
X242685343Y-30929233D01*
X242685343Y-30929233D02*
X242771703Y-31018227D01*
X242771703Y-31018227D02*
X242853537Y-31103534D01*
X242853537Y-31103534D02*
X242927154Y-31181356D01*
X242927154Y-31181356D02*
X242974123Y-31231840D01*
X242974123Y-31231840D02*
X243055026Y-31318865D01*
X243055026Y-31318865D02*
X243138094Y-31406827D01*
X243138094Y-31406827D02*
X243221811Y-31494215D01*
X243221811Y-31494215D02*
X243304660Y-31579518D01*
X243304660Y-31579518D02*
X243385126Y-31661226D01*
X243385126Y-31661226D02*
X243461692Y-31737829D01*
X243461692Y-31737829D02*
X243532843Y-31807815D01*
X243532843Y-31807815D02*
X243597061Y-31869673D01*
X243597061Y-31869673D02*
X243652832Y-31921895D01*
X243652832Y-31921895D02*
X243698638Y-31962967D01*
X243698638Y-31962967D02*
X243732965Y-31991381D01*
X243732965Y-31991381D02*
X243745588Y-32000528D01*
X243745588Y-32000528D02*
X243786203Y-32024702D01*
X243786203Y-32024702D02*
X243836379Y-32050522D01*
X243836379Y-32050522D02*
X243886447Y-32073072D01*
X243886447Y-32073072D02*
X243895191Y-32076597D01*
X243895191Y-32076597D02*
X243936142Y-32093091D01*
X243936142Y-32093091D02*
X243962825Y-32105985D01*
X243962825Y-32105985D02*
X243979912Y-32119053D01*
X243979912Y-32119053D02*
X243992070Y-32136067D01*
X243992070Y-32136067D02*
X244003969Y-32160800D01*
X244003969Y-32160800D02*
X244006530Y-32166560D01*
X244006530Y-32166560D02*
X244017766Y-32191932D01*
X244017766Y-32191932D02*
X244035675Y-32232441D01*
X244035675Y-32232441D02*
X244058728Y-32284628D01*
X244058728Y-32284628D02*
X244085401Y-32345038D01*
X244085401Y-32345038D02*
X244114165Y-32410213D01*
X244114165Y-32410213D02*
X244129936Y-32445960D01*
X244129936Y-32445960D02*
X244194823Y-32590289D01*
X244194823Y-32590289D02*
X244256923Y-32722918D01*
X244256923Y-32722918D02*
X244315309Y-32841955D01*
X244315309Y-32841955D02*
X244369052Y-32945510D01*
X244369052Y-32945510D02*
X244417057Y-33031403D01*
X244417057Y-33031403D02*
X244445856Y-33081728D01*
X244445856Y-33081728D02*
X244477134Y-33138260D01*
X244477134Y-33138260D02*
X244505021Y-33190356D01*
X244505021Y-33190356D02*
X244510027Y-33199987D01*
X244510027Y-33199987D02*
X244557536Y-33280890D01*
X244557536Y-33280890D02*
X244606803Y-33342227D01*
X244606803Y-33342227D02*
X244658706Y-33384732D01*
X244658706Y-33384732D02*
X244714124Y-33409138D01*
X244714124Y-33409138D02*
X244768741Y-33416240D01*
X244768741Y-33416240D02*
X244820436Y-33409453D01*
X244820436Y-33409453D02*
X244860147Y-33387725D01*
X244860147Y-33387725D02*
X244891019Y-33349000D01*
X244891019Y-33349000D02*
X244900817Y-33329984D01*
X244900817Y-33329984D02*
X244914931Y-33298741D01*
X244914931Y-33298741D02*
X244925602Y-33273518D01*
X244925602Y-33273518D02*
X244929154Y-33263947D01*
X244929154Y-33263947D02*
X244934111Y-33267693D01*
X244934111Y-33267693D02*
X244944846Y-33287713D01*
X244944846Y-33287713D02*
X244960072Y-33321225D01*
X244960072Y-33321225D02*
X244978505Y-33365449D01*
X244978505Y-33365449D02*
X244992558Y-33401107D01*
X244992558Y-33401107D02*
X245035442Y-33510799D01*
X245035442Y-33510799D02*
X245073353Y-33604279D01*
X245073353Y-33604279D02*
X245107664Y-33684639D01*
X245107664Y-33684639D02*
X245139746Y-33754971D01*
X245139746Y-33754971D02*
X245170973Y-33818367D01*
X245170973Y-33818367D02*
X245202718Y-33877918D01*
X245202718Y-33877918D02*
X245210311Y-33891528D01*
X245210311Y-33891528D02*
X245247152Y-33952998D01*
X245247152Y-33952998D02*
X245279387Y-33996671D01*
X245279387Y-33996671D02*
X245309085Y-34023939D01*
X245309085Y-34023939D02*
X245338319Y-34036197D01*
X245338319Y-34036197D02*
X245369159Y-34034839D01*
X245369159Y-34034839D02*
X245403345Y-34021429D01*
X245403345Y-34021429D02*
X245436178Y-33999065D01*
X245436178Y-33999065D02*
X245455334Y-33970167D01*
X245455334Y-33970167D02*
X245464937Y-33928353D01*
X245464937Y-33928353D02*
X245465261Y-33925627D01*
X245465261Y-33925627D02*
X245470680Y-33878520D01*
X245470680Y-33878520D02*
X245523446Y-33971409D01*
X245523446Y-33971409D02*
X245551840Y-34025259D01*
X245551840Y-34025259D02*
X245581342Y-34087488D01*
X245581342Y-34087488D02*
X245606838Y-34147132D01*
X245606838Y-34147132D02*
X245613526Y-34164449D01*
X245613526Y-34164449D02*
X245653833Y-34263658D01*
X245653833Y-34263658D02*
X245703014Y-34370190D01*
X245703014Y-34370190D02*
X245758552Y-34479462D01*
X245758552Y-34479462D02*
X245817929Y-34586892D01*
X245817929Y-34586892D02*
X245878630Y-34687897D01*
X245878630Y-34687897D02*
X245938137Y-34777895D01*
X245938137Y-34777895D02*
X245985645Y-34841994D01*
X245985645Y-34841994D02*
X246014232Y-34874638D01*
X246014232Y-34874638D02*
X246053160Y-34914409D01*
X246053160Y-34914409D02*
X246098711Y-34957973D01*
X246098711Y-34957973D02*
X246147165Y-35001996D01*
X246147165Y-35001996D02*
X246194805Y-35043146D01*
X246194805Y-35043146D02*
X246237911Y-35078089D01*
X246237911Y-35078089D02*
X246272765Y-35103492D01*
X246272765Y-35103492D02*
X246287090Y-35112201D01*
X246287090Y-35112201D02*
X246321833Y-35120324D01*
X246321833Y-35120324D02*
X246358801Y-35112832D01*
X246358801Y-35112832D02*
X246392736Y-35093003D01*
X246392736Y-35093003D02*
X246418379Y-35064113D01*
X246418379Y-35064113D02*
X246430469Y-35029438D01*
X246430469Y-35029438D02*
X246430800Y-35022666D01*
X246430800Y-35022666D02*
X246424864Y-34986484D01*
X246424864Y-34986484D02*
X246408410Y-34938959D01*
X246408410Y-34938959D02*
X246383470Y-34884729D01*
X246383470Y-34884729D02*
X246352075Y-34828432D01*
X246352075Y-34828432D02*
X246331962Y-34797034D01*
X246331962Y-34797034D02*
X246314014Y-34770960D01*
X246314014Y-34770960D02*
X246285973Y-34730886D01*
X246285973Y-34730886D02*
X246249609Y-34679309D01*
X246249609Y-34679309D02*
X246206691Y-34618729D01*
X246206691Y-34618729D02*
X246158988Y-34551643D01*
X246158988Y-34551643D02*
X246108270Y-34480551D01*
X246108270Y-34480551D02*
X246066433Y-34422080D01*
X246066433Y-34422080D02*
X246017251Y-34353224D01*
X246017251Y-34353224D02*
X245972033Y-34289508D01*
X245972033Y-34289508D02*
X245932100Y-34232825D01*
X245932100Y-34232825D02*
X245898776Y-34185072D01*
X245898776Y-34185072D02*
X245873383Y-34148144D01*
X245873383Y-34148144D02*
X245857245Y-34123936D01*
X245857245Y-34123936D02*
X245851683Y-34114369D01*
X245851683Y-34114369D02*
X245858773Y-34116556D01*
X245858773Y-34116556D02*
X245877614Y-34129441D01*
X245877614Y-34129441D02*
X245904558Y-34150463D01*
X245904558Y-34150463D02*
X245913168Y-34157549D01*
X245913168Y-34157549D02*
X245947727Y-34184784D01*
X245947727Y-34184784D02*
X245973570Y-34200478D01*
X245973570Y-34200478D02*
X245996338Y-34207473D01*
X245996338Y-34207473D02*
X246014768Y-34208720D01*
X246014768Y-34208720D02*
X246040028Y-34210498D01*
X246040028Y-34210498D02*
X246053940Y-34214935D01*
X246053940Y-34214935D02*
X246054880Y-34216638D01*
X246054880Y-34216638D02*
X246062201Y-34229540D01*
X246062201Y-34229540D02*
X246082087Y-34252389D01*
X246082087Y-34252389D02*
X246111427Y-34282209D01*
X246111427Y-34282209D02*
X246147110Y-34316021D01*
X246147110Y-34316021D02*
X246186024Y-34350845D01*
X246186024Y-34350845D02*
X246225057Y-34383702D01*
X246225057Y-34383702D02*
X246249599Y-34403037D01*
X246249599Y-34403037D02*
X246325090Y-34456008D01*
X246325090Y-34456008D02*
X246391651Y-34492593D01*
X246391651Y-34492593D02*
X246451364Y-34513483D01*
X246451364Y-34513483D02*
X246506312Y-34519371D01*
X246506312Y-34519371D02*
X246558577Y-34510946D01*
X246558577Y-34510946D02*
X246566819Y-34508320D01*
X246566819Y-34508320D02*
X246597447Y-34499041D01*
X246597447Y-34499041D02*
X246614760Y-34497553D01*
X246614760Y-34497553D02*
X246624078Y-34503554D01*
X246624078Y-34503554D02*
X246625078Y-34505022D01*
X246625078Y-34505022D02*
X246635788Y-34527956D01*
X246635788Y-34527956D02*
X246649882Y-34566814D01*
X246649882Y-34566814D02*
X246666289Y-34617692D01*
X246666289Y-34617692D02*
X246683938Y-34676689D01*
X246683938Y-34676689D02*
X246701756Y-34739903D01*
X246701756Y-34739903D02*
X246718674Y-34803430D01*
X246718674Y-34803430D02*
X246733620Y-34863369D01*
X246733620Y-34863369D02*
X246745522Y-34915817D01*
X246745522Y-34915817D02*
X246753309Y-34956873D01*
X246753309Y-34956873D02*
X246755920Y-34981662D01*
X246755920Y-34981662D02*
X246764594Y-35017207D01*
X246764594Y-35017207D02*
X246786834Y-35051821D01*
X246786834Y-35051821D02*
X246816968Y-35078033D01*
X246816968Y-35078033D02*
X246835384Y-35086316D01*
X246835384Y-35086316D02*
X246877442Y-35089336D01*
X246877442Y-35089336D02*
X246914076Y-35075025D01*
X246914076Y-35075025D02*
X246942854Y-35046151D01*
X246942854Y-35046151D02*
X246961345Y-35005483D01*
X246961345Y-35005483D02*
X246967116Y-34955788D01*
X246967116Y-34955788D02*
X246965812Y-34937855D01*
X246965812Y-34937855D02*
X246964061Y-34909800D01*
X246964061Y-34909800D02*
X246965994Y-34892325D01*
X246965994Y-34892325D02*
X246968515Y-34889440D01*
X246968515Y-34889440D02*
X246985363Y-34899061D01*
X246985363Y-34899061D02*
X246997472Y-34928045D01*
X246997472Y-34928045D02*
X247004899Y-34976567D01*
X247004899Y-34976567D02*
X247006697Y-35004108D01*
X247006697Y-35004108D02*
X247013638Y-35088758D01*
X247013638Y-35088758D02*
X247026372Y-35179830D01*
X247026372Y-35179830D02*
X247043739Y-35271761D01*
X247043739Y-35271761D02*
X247064579Y-35358990D01*
X247064579Y-35358990D02*
X247087733Y-35435953D01*
X247087733Y-35435953D02*
X247107326Y-35486811D01*
X247107326Y-35486811D02*
X247138017Y-35548819D01*
X247138017Y-35548819D02*
X247174367Y-35610534D01*
X247174367Y-35610534D02*
X247212865Y-35666659D01*
X247212865Y-35666659D02*
X247249999Y-35711897D01*
X247249999Y-35711897D02*
X247268806Y-35730426D01*
X247268806Y-35730426D02*
X247320920Y-35766530D01*
X247320920Y-35766530D02*
X247376806Y-35788320D01*
X247376806Y-35788320D02*
X247418229Y-35793680D01*
X247418229Y-35793680D02*
X247455341Y-35788281D01*
X247455341Y-35788281D02*
X247497324Y-35774410D01*
X247497324Y-35774410D02*
X247535409Y-35755554D01*
X247535409Y-35755554D02*
X247558482Y-35737884D01*
X247558482Y-35737884D02*
X247581293Y-35713602D01*
X247581293Y-35713602D02*
X247649884Y-35806981D01*
X247649884Y-35806981D02*
X247681031Y-35850466D01*
X247681031Y-35850466D02*
X247702065Y-35883526D01*
X247702065Y-35883526D02*
X247715649Y-35911536D01*
X247715649Y-35911536D02*
X247724442Y-35939876D01*
X247724442Y-35939876D02*
X247730390Y-35969713D01*
X247730390Y-35969713D02*
X247740148Y-36016086D01*
X247740148Y-36016086D02*
X247753041Y-36064167D01*
X247753041Y-36064167D02*
X247763002Y-36094385D01*
X247763002Y-36094385D02*
X247778214Y-36126800D01*
X247778214Y-36126800D02*
X247801415Y-36166715D01*
X247801415Y-36166715D02*
X247829465Y-36209677D01*
X247829465Y-36209677D02*
X247859220Y-36251232D01*
X247859220Y-36251232D02*
X247887539Y-36286927D01*
X247887539Y-36286927D02*
X247911280Y-36312307D01*
X247911280Y-36312307D02*
X247923143Y-36321369D01*
X247923143Y-36321369D02*
X247953698Y-36329804D01*
X247953698Y-36329804D02*
X247993618Y-36331045D01*
X247993618Y-36331045D02*
X248033403Y-36325448D01*
X248033403Y-36325448D02*
X248058813Y-36316255D01*
X248058813Y-36316255D02*
X248086543Y-36295638D01*
X248086543Y-36295638D02*
X248105300Y-36266944D01*
X248105300Y-36266944D02*
X248116250Y-36226831D01*
X248116250Y-36226831D02*
X248120557Y-36171958D01*
X248120557Y-36171958D02*
X248120603Y-36139120D01*
X248120603Y-36139120D02*
X248118213Y-36110548D01*
X248118213Y-36110548D02*
X247964960Y-36110548D01*
X247964960Y-36110548D02*
X247963635Y-36130946D01*
X247963635Y-36130946D02*
X247957678Y-36134397D01*
X247957678Y-36134397D02*
X247948978Y-36128343D01*
X247948978Y-36128343D02*
X247934017Y-36110719D01*
X247934017Y-36110719D02*
X247917629Y-36084279D01*
X247917629Y-36084279D02*
X247914797Y-36078839D01*
X247914797Y-36078839D02*
X247892808Y-36020467D01*
X247892808Y-36020467D02*
X247877809Y-35950169D01*
X247877809Y-35950169D02*
X247871112Y-35875526D01*
X247871112Y-35875526D02*
X247871742Y-35829748D01*
X247871742Y-35829748D02*
X247875402Y-35810943D01*
X247875402Y-35810943D02*
X247882159Y-35809150D01*
X247882159Y-35809150D02*
X247882426Y-35809428D01*
X247882426Y-35809428D02*
X247894851Y-35830514D01*
X247894851Y-35830514D02*
X247909297Y-35866731D01*
X247909297Y-35866731D02*
X247924420Y-35913170D01*
X247924420Y-35913170D02*
X247938873Y-35964921D01*
X247938873Y-35964921D02*
X247951311Y-36017077D01*
X247951311Y-36017077D02*
X247960389Y-36064728D01*
X247960389Y-36064728D02*
X247964760Y-36102965D01*
X247964760Y-36102965D02*
X247964960Y-36110548D01*
X247964960Y-36110548D02*
X248118213Y-36110548D01*
X248118213Y-36110548D02*
X248112397Y-36041038D01*
X248112397Y-36041038D02*
X248092062Y-35938864D01*
X248092062Y-35938864D02*
X248061642Y-35841145D01*
X248061642Y-35841145D02*
X248034284Y-35777625D01*
X248034284Y-35777625D02*
X248009129Y-35733421D01*
X248009129Y-35733421D02*
X247979391Y-35691156D01*
X247979391Y-35691156D02*
X247948273Y-35654458D01*
X247948273Y-35654458D02*
X247918980Y-35626955D01*
X247918980Y-35626955D02*
X247894713Y-35612272D01*
X247894713Y-35612272D02*
X247886947Y-35610800D01*
X247886947Y-35610800D02*
X247863618Y-35603982D01*
X247863618Y-35603982D02*
X247853424Y-35595828D01*
X247853424Y-35595828D02*
X247830176Y-35580908D01*
X247830176Y-35580908D02*
X247797284Y-35573736D01*
X247797284Y-35573736D02*
X247764416Y-35575742D01*
X247764416Y-35575742D02*
X247750935Y-35580676D01*
X247750935Y-35580676D02*
X247735919Y-35586356D01*
X247735919Y-35586356D02*
X247723573Y-35583566D01*
X247723573Y-35583566D02*
X247712105Y-35569769D01*
X247712105Y-35569769D02*
X247699728Y-35542427D01*
X247699728Y-35542427D02*
X247684650Y-35499002D01*
X247684650Y-35499002D02*
X247677420Y-35476427D01*
X247677420Y-35476427D02*
X247673398Y-35462099D01*
X247673398Y-35462099D02*
X247441654Y-35462099D01*
X247441654Y-35462099D02*
X247439589Y-35513593D01*
X247439589Y-35513593D02*
X247434963Y-35554214D01*
X247434963Y-35554214D02*
X247427750Y-35580872D01*
X247427750Y-35580872D02*
X247417927Y-35590479D01*
X247417927Y-35590479D02*
X247417898Y-35590480D01*
X247417898Y-35590480D02*
X247405867Y-35583714D01*
X247405867Y-35583714D02*
X247388669Y-35567620D01*
X247388669Y-35567620D02*
X247358501Y-35528811D01*
X247358501Y-35528811D02*
X247326999Y-35478403D01*
X247326999Y-35478403D02*
X247298757Y-35424232D01*
X247298757Y-35424232D02*
X247283202Y-35387776D01*
X247283202Y-35387776D02*
X247274680Y-35361670D01*
X247274680Y-35361670D02*
X247264194Y-35324373D01*
X247264194Y-35324373D02*
X247252756Y-35280187D01*
X247252756Y-35280187D02*
X247241375Y-35233410D01*
X247241375Y-35233410D02*
X247231063Y-35188342D01*
X247231063Y-35188342D02*
X247222829Y-35149284D01*
X247222829Y-35149284D02*
X247217684Y-35120534D01*
X247217684Y-35120534D02*
X247216639Y-35106394D01*
X247216639Y-35106394D02*
X247216933Y-35105760D01*
X247216933Y-35105760D02*
X247227405Y-35106336D01*
X247227405Y-35106336D02*
X247248992Y-35111365D01*
X247248992Y-35111365D02*
X247249353Y-35111466D01*
X247249353Y-35111466D02*
X247294855Y-35114840D01*
X247294855Y-35114840D02*
X247335153Y-35099952D01*
X247335153Y-35099952D02*
X247366112Y-35068409D01*
X247366112Y-35068409D02*
X247367961Y-35065385D01*
X247367961Y-35065385D02*
X247389507Y-35028867D01*
X247389507Y-35028867D02*
X247414410Y-35149653D01*
X247414410Y-35149653D02*
X247424786Y-35209175D01*
X247424786Y-35209175D02*
X247432724Y-35273270D01*
X247432724Y-35273270D02*
X247438197Y-35338848D01*
X247438197Y-35338848D02*
X247441182Y-35402821D01*
X247441182Y-35402821D02*
X247441654Y-35462099D01*
X247441654Y-35462099D02*
X247673398Y-35462099D01*
X247673398Y-35462099D02*
X247666391Y-35437141D01*
X247666391Y-35437141D02*
X247657192Y-35393473D01*
X247657192Y-35393473D02*
X247649221Y-35341467D01*
X247649221Y-35341467D02*
X247641874Y-35277166D01*
X247641874Y-35277166D02*
X247634547Y-35196614D01*
X247634547Y-35196614D02*
X247634349Y-35194240D01*
X247634349Y-35194240D02*
X247619812Y-35041962D01*
X247619812Y-35041962D02*
X247601476Y-34891610D01*
X247601476Y-34891610D02*
X247578531Y-34737654D01*
X247578531Y-34737654D02*
X247550167Y-34574563D01*
X247550167Y-34574563D02*
X247522841Y-34432849D01*
X247522841Y-34432849D02*
X247508778Y-34365491D01*
X247508778Y-34365491D02*
X247492274Y-34291298D01*
X247492274Y-34291298D02*
X247474090Y-34213251D01*
X247474090Y-34213251D02*
X247454987Y-34134332D01*
X247454987Y-34134332D02*
X247435724Y-34057522D01*
X247435724Y-34057522D02*
X247417062Y-33985800D01*
X247417062Y-33985800D02*
X247399762Y-33922148D01*
X247399762Y-33922148D02*
X247384583Y-33869548D01*
X247384583Y-33869548D02*
X247372288Y-33830979D01*
X247372288Y-33830979D02*
X247363966Y-33810045D01*
X247363966Y-33810045D02*
X247340774Y-33785096D01*
X247340774Y-33785096D02*
X247306654Y-33770158D01*
X247306654Y-33770158D02*
X247268449Y-33766134D01*
X247268449Y-33766134D02*
X247232999Y-33773927D01*
X247232999Y-33773927D02*
X247210741Y-33789818D01*
X247210741Y-33789818D02*
X247196525Y-33807150D01*
X247196525Y-33807150D02*
X247186636Y-33823677D01*
X247186636Y-33823677D02*
X247180957Y-33842686D01*
X247180957Y-33842686D02*
X247179371Y-33867466D01*
X247179371Y-33867466D02*
X247181762Y-33901304D01*
X247181762Y-33901304D02*
X247188013Y-33947489D01*
X247188013Y-33947489D02*
X247198007Y-34009307D01*
X247198007Y-34009307D02*
X247202081Y-34033547D01*
X247202081Y-34033547D02*
X247210651Y-34082970D01*
X247210651Y-34082970D02*
X247222093Y-34146932D01*
X247222093Y-34146932D02*
X247235737Y-34221858D01*
X247235737Y-34221858D02*
X247250911Y-34304172D01*
X247250911Y-34304172D02*
X247266947Y-34390301D01*
X247266947Y-34390301D02*
X247283172Y-34476669D01*
X247283172Y-34476669D02*
X247298916Y-34559701D01*
X247298916Y-34559701D02*
X247313510Y-34635824D01*
X247313510Y-34635824D02*
X247326282Y-34701462D01*
X247326282Y-34701462D02*
X247336562Y-34753041D01*
X247336562Y-34753041D02*
X247341663Y-34777680D01*
X247341663Y-34777680D02*
X247344038Y-34792275D01*
X247344038Y-34792275D02*
X247340388Y-34793281D01*
X247340388Y-34793281D02*
X247327979Y-34779719D01*
X247327979Y-34779719D02*
X247319838Y-34769858D01*
X247319838Y-34769858D02*
X247294207Y-34744000D01*
X247294207Y-34744000D02*
X247266203Y-34723164D01*
X247266203Y-34723164D02*
X247261666Y-34720633D01*
X247261666Y-34720633D02*
X247228280Y-34710067D01*
X247228280Y-34710067D02*
X247186422Y-34705574D01*
X247186422Y-34705574D02*
X247145103Y-34707398D01*
X247145103Y-34707398D02*
X247113332Y-34715785D01*
X247113332Y-34715785D02*
X247111823Y-34716558D01*
X247111823Y-34716558D02*
X247094553Y-34721615D01*
X247094553Y-34721615D02*
X247075783Y-34715197D01*
X247075783Y-34715197D02*
X247058058Y-34703102D01*
X247058058Y-34703102D02*
X246989264Y-34660825D01*
X246989264Y-34660825D02*
X246922664Y-34637707D01*
X246922664Y-34637707D02*
X246905524Y-34633390D01*
X246905524Y-34633390D02*
X246893090Y-34626359D01*
X246893090Y-34626359D02*
X246882790Y-34612809D01*
X246882790Y-34612809D02*
X246872052Y-34588935D01*
X246872052Y-34588935D02*
X246858305Y-34550933D01*
X246858305Y-34550933D02*
X246852329Y-34533658D01*
X246852329Y-34533658D02*
X246810322Y-34422377D01*
X246810322Y-34422377D02*
X246765137Y-34325337D01*
X246765137Y-34325337D02*
X246713454Y-34236459D01*
X246713454Y-34236459D02*
X246651956Y-34149663D01*
X246651956Y-34149663D02*
X246622265Y-34112200D01*
X246622265Y-34112200D02*
X246593250Y-34076552D01*
X246593250Y-34076552D02*
X246564778Y-34041502D01*
X246564778Y-34041502D02*
X246542975Y-34014592D01*
X246542975Y-34014592D02*
X246542836Y-34014420D01*
X246542836Y-34014420D02*
X246517532Y-33989709D01*
X246517532Y-33989709D02*
X246491338Y-33974109D01*
X246491338Y-33974109D02*
X246484644Y-33972164D01*
X246484644Y-33972164D02*
X246443532Y-33973368D01*
X246443532Y-33973368D02*
X246407134Y-33990411D01*
X246407134Y-33990411D02*
X246379509Y-34019286D01*
X246379509Y-34019286D02*
X246364715Y-34055985D01*
X246364715Y-34055985D02*
X246365207Y-34090081D01*
X246365207Y-34090081D02*
X246374408Y-34113106D01*
X246374408Y-34113106D02*
X246392878Y-34145926D01*
X246392878Y-34145926D02*
X246417128Y-34182522D01*
X246417128Y-34182522D02*
X246425116Y-34193480D01*
X246425116Y-34193480D02*
X246461860Y-34244088D01*
X246461860Y-34244088D02*
X246485923Y-34280657D01*
X246485923Y-34280657D02*
X246498032Y-34304414D01*
X246498032Y-34304414D02*
X246498912Y-34316588D01*
X246498912Y-34316588D02*
X246498350Y-34317277D01*
X246498350Y-34317277D02*
X246485104Y-34317032D01*
X246485104Y-34317032D02*
X246459934Y-34305188D01*
X246459934Y-34305188D02*
X246425919Y-34283846D01*
X246425919Y-34283846D02*
X246386142Y-34255108D01*
X246386142Y-34255108D02*
X246343682Y-34221074D01*
X246343682Y-34221074D02*
X246301621Y-34183847D01*
X246301621Y-34183847D02*
X246298693Y-34181102D01*
X246298693Y-34181102D02*
X246244878Y-34126866D01*
X246244878Y-34126866D02*
X246197142Y-34070277D01*
X246197142Y-34070277D02*
X246153079Y-34007685D01*
X246153079Y-34007685D02*
X246110283Y-33935442D01*
X246110283Y-33935442D02*
X246066346Y-33849898D01*
X246066346Y-33849898D02*
X246032153Y-33776920D01*
X246032153Y-33776920D02*
X246007079Y-33723780D01*
X246007079Y-33723780D02*
X245982730Y-33675774D01*
X245982730Y-33675774D02*
X245961130Y-33636638D01*
X245961130Y-33636638D02*
X245944306Y-33610112D01*
X245944306Y-33610112D02*
X245937185Y-33601660D01*
X245937185Y-33601660D02*
X245901775Y-33582582D01*
X245901775Y-33582582D02*
X245860113Y-33578229D01*
X245860113Y-33578229D02*
X245819853Y-33588510D01*
X245819853Y-33588510D02*
X245797695Y-33603334D01*
X245797695Y-33603334D02*
X245770717Y-33639187D01*
X245770717Y-33639187D02*
X245762561Y-33680406D01*
X245762561Y-33680406D02*
X245772481Y-33728120D01*
X245772481Y-33728120D02*
X245788041Y-33771391D01*
X245788041Y-33771391D02*
X245756702Y-33745021D01*
X245756702Y-33745021D02*
X245734484Y-33729052D01*
X245734484Y-33729052D02*
X245712750Y-33722544D01*
X245712750Y-33722544D02*
X245682281Y-33723150D01*
X245682281Y-33723150D02*
X245674012Y-33723950D01*
X245674012Y-33723950D02*
X245622662Y-33729250D01*
X245622662Y-33729250D02*
X245577381Y-33651485D01*
X245577381Y-33651485D02*
X245548111Y-33602649D01*
X245548111Y-33602649D02*
X245514733Y-33549288D01*
X245514733Y-33549288D02*
X245479454Y-33494685D01*
X245479454Y-33494685D02*
X245444480Y-33442122D01*
X245444480Y-33442122D02*
X245412017Y-33394883D01*
X245412017Y-33394883D02*
X245384272Y-33356249D01*
X245384272Y-33356249D02*
X245363451Y-33329505D01*
X245363451Y-33329505D02*
X245354562Y-33319950D01*
X245354562Y-33319950D02*
X245320483Y-33302230D01*
X245320483Y-33302230D02*
X245280832Y-33300368D01*
X245280832Y-33300368D02*
X245242229Y-33313963D01*
X245242229Y-33313963D02*
X245223895Y-33327834D01*
X245223895Y-33327834D02*
X245194698Y-33355807D01*
X245194698Y-33355807D02*
X245166180Y-33281883D01*
X245166180Y-33281883D02*
X245150346Y-33243426D01*
X245150346Y-33243426D02*
X245128291Y-33193299D01*
X245128291Y-33193299D02*
X245102930Y-33137985D01*
X245102930Y-33137985D02*
X245077178Y-33083963D01*
X245077178Y-33083963D02*
X245077076Y-33083754D01*
X245077076Y-33083754D02*
X245031609Y-32997717D01*
X245031609Y-32997717D02*
X244988307Y-32930964D01*
X244988307Y-32930964D02*
X244946406Y-32882669D01*
X244946406Y-32882669D02*
X244905143Y-32852006D01*
X244905143Y-32852006D02*
X244863752Y-32838151D01*
X244863752Y-32838151D02*
X244848606Y-32837120D01*
X244848606Y-32837120D02*
X244808053Y-32846101D01*
X244808053Y-32846101D02*
X244776981Y-32872604D01*
X244776981Y-32872604D02*
X244755798Y-32915970D01*
X244755798Y-32915970D02*
X244744912Y-32975538D01*
X244744912Y-32975538D02*
X244743487Y-33006973D01*
X244743487Y-33006973D02*
X244741927Y-33051084D01*
X244741927Y-33051084D02*
X244738656Y-33094676D01*
X244738656Y-33094676D02*
X244735361Y-33121600D01*
X244735361Y-33121600D02*
X244727987Y-33167320D01*
X244727987Y-33167320D02*
X244680323Y-33075880D01*
X244680323Y-33075880D02*
X244655513Y-33029118D01*
X244655513Y-33029118D02*
X244624781Y-32972426D01*
X244624781Y-32972426D02*
X244592326Y-32913493D01*
X244592326Y-32913493D02*
X244566640Y-32867600D01*
X244566640Y-32867600D02*
X244523494Y-32787833D01*
X244523494Y-32787833D02*
X244476920Y-32695025D01*
X244476920Y-32695025D02*
X244426293Y-32587831D01*
X244426293Y-32587831D02*
X244370991Y-32464908D01*
X244370991Y-32464908D02*
X244310388Y-32324910D01*
X244310388Y-32324910D02*
X244267156Y-32222440D01*
X244267156Y-32222440D02*
X244231486Y-32138610D01*
X244231486Y-32138610D02*
X244194274Y-32053810D01*
X244194274Y-32053810D02*
X244156614Y-31970313D01*
X244156614Y-31970313D02*
X244119600Y-31890392D01*
X244119600Y-31890392D02*
X244084326Y-31816323D01*
X244084326Y-31816323D02*
X244051885Y-31750379D01*
X244051885Y-31750379D02*
X244023371Y-31694835D01*
X244023371Y-31694835D02*
X243999879Y-31651964D01*
X243999879Y-31651964D02*
X243982502Y-31624041D01*
X243982502Y-31624041D02*
X243974961Y-31614945D01*
X243974961Y-31614945D02*
X243938358Y-31593800D01*
X243938358Y-31593800D02*
X243900295Y-31589861D01*
X243900295Y-31589861D02*
X243864217Y-31600613D01*
X243864217Y-31600613D02*
X243833565Y-31623542D01*
X243833565Y-31623542D02*
X243811781Y-31656133D01*
X243811781Y-31656133D02*
X243802309Y-31695873D01*
X243802309Y-31695873D02*
X243807607Y-31737178D01*
X243807607Y-31737178D02*
X243814156Y-31761789D01*
X243814156Y-31761789D02*
X243816148Y-31776399D01*
X243816148Y-31776399D02*
X243815737Y-31777649D01*
X243815737Y-31777649D02*
X243807119Y-31772451D01*
X243807119Y-31772451D02*
X243786224Y-31754072D01*
X243786224Y-31754072D02*
X243754668Y-31724162D01*
X243754668Y-31724162D02*
X243714067Y-31684369D01*
X243714067Y-31684369D02*
X243666038Y-31636342D01*
X243666038Y-31636342D02*
X243612195Y-31581728D01*
X243612195Y-31581728D02*
X243554157Y-31522177D01*
X243554157Y-31522177D02*
X243493538Y-31459337D01*
X243493538Y-31459337D02*
X243431954Y-31394857D01*
X243431954Y-31394857D02*
X243371022Y-31330384D01*
X243371022Y-31330384D02*
X243312359Y-31267568D01*
X243312359Y-31267568D02*
X243260740Y-31211520D01*
X243260740Y-31211520D02*
X243095584Y-31032524D01*
X243095584Y-31032524D02*
X242941989Y-30869752D01*
X242941989Y-30869752D02*
X242799668Y-30722918D01*
X242799668Y-30722918D02*
X242668336Y-30591734D01*
X242668336Y-30591734D02*
X242547706Y-30475915D01*
X242547706Y-30475915D02*
X242437493Y-30375174D01*
X242437493Y-30375174D02*
X242356640Y-30305253D01*
X242356640Y-30305253D02*
X242307457Y-30266029D01*
X242307457Y-30266029D02*
X242256388Y-30228916D01*
X242256388Y-30228916D02*
X242206881Y-30196079D01*
X242206881Y-30196079D02*
X242162384Y-30169685D01*
X242162384Y-30169685D02*
X242126345Y-30151898D01*
X242126345Y-30151898D02*
X242102214Y-30144885D01*
X242102214Y-30144885D02*
X242101226Y-30144854D01*
X242101226Y-30144854D02*
X242073735Y-30153649D01*
X242073735Y-30153649D02*
X242073735Y-30153649D01*
G36*
X248120557Y-36171958D02*
G01*
X248116250Y-36226831D01*
X248105300Y-36266944D01*
X248086543Y-36295638D01*
X248058813Y-36316255D01*
X248033403Y-36325448D01*
X247993618Y-36331045D01*
X247953698Y-36329804D01*
X247923143Y-36321369D01*
X247911280Y-36312307D01*
X247887539Y-36286927D01*
X247859220Y-36251232D01*
X247829465Y-36209677D01*
X247801415Y-36166715D01*
X247778214Y-36126800D01*
X247763002Y-36094385D01*
X247753041Y-36064167D01*
X247740148Y-36016086D01*
X247730390Y-35969713D01*
X247724442Y-35939876D01*
X247715649Y-35911536D01*
X247702065Y-35883526D01*
X247696975Y-35875526D01*
X247871112Y-35875526D01*
X247877809Y-35950169D01*
X247892808Y-36020467D01*
X247914797Y-36078839D01*
X247917629Y-36084279D01*
X247934017Y-36110719D01*
X247948978Y-36128343D01*
X247957678Y-36134397D01*
X247963635Y-36130946D01*
X247964960Y-36110548D01*
X247964760Y-36102965D01*
X247960389Y-36064728D01*
X247951311Y-36017077D01*
X247938873Y-35964921D01*
X247924420Y-35913170D01*
X247909297Y-35866731D01*
X247894851Y-35830514D01*
X247882426Y-35809428D01*
X247882159Y-35809150D01*
X247875402Y-35810943D01*
X247871742Y-35829748D01*
X247871112Y-35875526D01*
X247696975Y-35875526D01*
X247681031Y-35850466D01*
X247649884Y-35806981D01*
X247581293Y-35713602D01*
X247558482Y-35737884D01*
X247535409Y-35755554D01*
X247497324Y-35774410D01*
X247455341Y-35788281D01*
X247418229Y-35793680D01*
X247376806Y-35788320D01*
X247320920Y-35766530D01*
X247268806Y-35730426D01*
X247249999Y-35711897D01*
X247212865Y-35666659D01*
X247174367Y-35610534D01*
X247138017Y-35548819D01*
X247107326Y-35486811D01*
X247087733Y-35435953D01*
X247064579Y-35358990D01*
X247043739Y-35271761D01*
X247026372Y-35179830D01*
X247016104Y-35106394D01*
X247216639Y-35106394D01*
X247217684Y-35120534D01*
X247222829Y-35149284D01*
X247231063Y-35188342D01*
X247241375Y-35233410D01*
X247252756Y-35280187D01*
X247264194Y-35324373D01*
X247274680Y-35361670D01*
X247283202Y-35387776D01*
X247298757Y-35424232D01*
X247326999Y-35478403D01*
X247358501Y-35528811D01*
X247388669Y-35567620D01*
X247405867Y-35583714D01*
X247417898Y-35590480D01*
X247417927Y-35590479D01*
X247427750Y-35580872D01*
X247434963Y-35554214D01*
X247439589Y-35513593D01*
X247441654Y-35462099D01*
X247441182Y-35402821D01*
X247438197Y-35338848D01*
X247432724Y-35273270D01*
X247424786Y-35209175D01*
X247414410Y-35149653D01*
X247389507Y-35028867D01*
X247367961Y-35065385D01*
X247366112Y-35068409D01*
X247335153Y-35099952D01*
X247294855Y-35114840D01*
X247249353Y-35111466D01*
X247248992Y-35111365D01*
X247227405Y-35106336D01*
X247216933Y-35105760D01*
X247216639Y-35106394D01*
X247016104Y-35106394D01*
X247013638Y-35088758D01*
X247006697Y-35004108D01*
X247004899Y-34976567D01*
X246997472Y-34928045D01*
X246985363Y-34899061D01*
X246968515Y-34889440D01*
X246965994Y-34892325D01*
X246964061Y-34909800D01*
X246965812Y-34937855D01*
X246967116Y-34955788D01*
X246961345Y-35005483D01*
X246942854Y-35046151D01*
X246914076Y-35075025D01*
X246877442Y-35089336D01*
X246835384Y-35086316D01*
X246816968Y-35078033D01*
X246786834Y-35051821D01*
X246764594Y-35017207D01*
X246755920Y-34981662D01*
X246753309Y-34956873D01*
X246745522Y-34915817D01*
X246733620Y-34863369D01*
X246718674Y-34803430D01*
X246701756Y-34739903D01*
X246683938Y-34676689D01*
X246666289Y-34617692D01*
X246649882Y-34566814D01*
X246635788Y-34527956D01*
X246625078Y-34505022D01*
X246624078Y-34503554D01*
X246614760Y-34497553D01*
X246597447Y-34499041D01*
X246566819Y-34508320D01*
X246558577Y-34510946D01*
X246506312Y-34519371D01*
X246451364Y-34513483D01*
X246391651Y-34492593D01*
X246325090Y-34456008D01*
X246249599Y-34403037D01*
X246225057Y-34383702D01*
X246186024Y-34350845D01*
X246147110Y-34316021D01*
X246111427Y-34282209D01*
X246082087Y-34252389D01*
X246062201Y-34229540D01*
X246054880Y-34216638D01*
X246053940Y-34214935D01*
X246040028Y-34210498D01*
X246014768Y-34208720D01*
X245996338Y-34207473D01*
X245973570Y-34200478D01*
X245947727Y-34184784D01*
X245913168Y-34157549D01*
X245904558Y-34150463D01*
X245877614Y-34129441D01*
X245858773Y-34116556D01*
X245851683Y-34114369D01*
X245857245Y-34123936D01*
X245873383Y-34148144D01*
X245898776Y-34185072D01*
X245932100Y-34232825D01*
X245972033Y-34289508D01*
X246017251Y-34353224D01*
X246066433Y-34422080D01*
X246108270Y-34480551D01*
X246158988Y-34551643D01*
X246206691Y-34618729D01*
X246249609Y-34679309D01*
X246285973Y-34730886D01*
X246314014Y-34770960D01*
X246331962Y-34797034D01*
X246352075Y-34828432D01*
X246383470Y-34884729D01*
X246408410Y-34938959D01*
X246424864Y-34986484D01*
X246430800Y-35022666D01*
X246430469Y-35029438D01*
X246418379Y-35064113D01*
X246392736Y-35093003D01*
X246358801Y-35112832D01*
X246321833Y-35120324D01*
X246287090Y-35112201D01*
X246272765Y-35103492D01*
X246237911Y-35078089D01*
X246194805Y-35043146D01*
X246147165Y-35001996D01*
X246098711Y-34957973D01*
X246053160Y-34914409D01*
X246014232Y-34874638D01*
X245985645Y-34841994D01*
X245938137Y-34777895D01*
X245878630Y-34687897D01*
X245817929Y-34586892D01*
X245758552Y-34479462D01*
X245703014Y-34370190D01*
X245653833Y-34263658D01*
X245613526Y-34164449D01*
X245606838Y-34147132D01*
X245581342Y-34087488D01*
X245551840Y-34025259D01*
X245523446Y-33971409D01*
X245470680Y-33878520D01*
X245465261Y-33925627D01*
X245464937Y-33928353D01*
X245455334Y-33970167D01*
X245436178Y-33999065D01*
X245403345Y-34021429D01*
X245369159Y-34034839D01*
X245338319Y-34036197D01*
X245309085Y-34023939D01*
X245279387Y-33996671D01*
X245247152Y-33952998D01*
X245210311Y-33891528D01*
X245202718Y-33877918D01*
X245170973Y-33818367D01*
X245139746Y-33754971D01*
X245107664Y-33684639D01*
X245073353Y-33604279D01*
X245035442Y-33510799D01*
X244992558Y-33401107D01*
X244978505Y-33365449D01*
X244960072Y-33321225D01*
X244944846Y-33287713D01*
X244934111Y-33267693D01*
X244929154Y-33263947D01*
X244925602Y-33273518D01*
X244914931Y-33298741D01*
X244900817Y-33329984D01*
X244891019Y-33349000D01*
X244860147Y-33387725D01*
X244820436Y-33409453D01*
X244768741Y-33416240D01*
X244714124Y-33409138D01*
X244658706Y-33384732D01*
X244606803Y-33342227D01*
X244557536Y-33280890D01*
X244510027Y-33199987D01*
X244505021Y-33190356D01*
X244477134Y-33138260D01*
X244445856Y-33081728D01*
X244417057Y-33031403D01*
X244369052Y-32945510D01*
X244315309Y-32841955D01*
X244256923Y-32722918D01*
X244194823Y-32590289D01*
X244129936Y-32445960D01*
X244114165Y-32410213D01*
X244085401Y-32345038D01*
X244058728Y-32284628D01*
X244035675Y-32232441D01*
X244017766Y-32191932D01*
X244006530Y-32166560D01*
X244003969Y-32160800D01*
X243992070Y-32136067D01*
X243979912Y-32119053D01*
X243962825Y-32105985D01*
X243936142Y-32093091D01*
X243895191Y-32076597D01*
X243886447Y-32073072D01*
X243836379Y-32050522D01*
X243786203Y-32024702D01*
X243745588Y-32000528D01*
X243732965Y-31991381D01*
X243698638Y-31962967D01*
X243652832Y-31921895D01*
X243597061Y-31869673D01*
X243532843Y-31807815D01*
X243461692Y-31737829D01*
X243385126Y-31661226D01*
X243304660Y-31579518D01*
X243221811Y-31494215D01*
X243138094Y-31406827D01*
X243055026Y-31318865D01*
X242974123Y-31231840D01*
X242927154Y-31181356D01*
X242853537Y-31103534D01*
X242771703Y-31018227D01*
X242685343Y-30929233D01*
X242598150Y-30840350D01*
X242513816Y-30755380D01*
X242436032Y-30678120D01*
X242402238Y-30644780D01*
X242315695Y-30558550D01*
X242242901Y-30484485D01*
X242182903Y-30421472D01*
X242134748Y-30368398D01*
X242097485Y-30324149D01*
X242070160Y-30287611D01*
X242051822Y-30257671D01*
X242041517Y-30233217D01*
X242038294Y-30213133D01*
X242038887Y-30205317D01*
X242050903Y-30176030D01*
X242073735Y-30153649D01*
X242101226Y-30144854D01*
X242102214Y-30144885D01*
X242126345Y-30151898D01*
X242162384Y-30169685D01*
X242206881Y-30196079D01*
X242256388Y-30228916D01*
X242307457Y-30266029D01*
X242356640Y-30305253D01*
X242437493Y-30375174D01*
X242547706Y-30475915D01*
X242668336Y-30591734D01*
X242799668Y-30722918D01*
X242941989Y-30869752D01*
X243095584Y-31032524D01*
X243260740Y-31211520D01*
X243312359Y-31267568D01*
X243371022Y-31330384D01*
X243431954Y-31394857D01*
X243493538Y-31459337D01*
X243554157Y-31522177D01*
X243612195Y-31581728D01*
X243666038Y-31636342D01*
X243714067Y-31684369D01*
X243754668Y-31724162D01*
X243786224Y-31754072D01*
X243807119Y-31772451D01*
X243815737Y-31777649D01*
X243816148Y-31776399D01*
X243814156Y-31761789D01*
X243807607Y-31737178D01*
X243802309Y-31695873D01*
X243811781Y-31656133D01*
X243833565Y-31623542D01*
X243864217Y-31600613D01*
X243900295Y-31589861D01*
X243938358Y-31593800D01*
X243974961Y-31614945D01*
X243982502Y-31624041D01*
X243999879Y-31651964D01*
X244023371Y-31694835D01*
X244051885Y-31750379D01*
X244084326Y-31816323D01*
X244119600Y-31890392D01*
X244156614Y-31970313D01*
X244194274Y-32053810D01*
X244231486Y-32138610D01*
X244267156Y-32222440D01*
X244310388Y-32324910D01*
X244370991Y-32464908D01*
X244426293Y-32587831D01*
X244476920Y-32695025D01*
X244523494Y-32787833D01*
X244566640Y-32867600D01*
X244592326Y-32913493D01*
X244624781Y-32972426D01*
X244655513Y-33029118D01*
X244680323Y-33075880D01*
X244727987Y-33167320D01*
X244735361Y-33121600D01*
X244738656Y-33094676D01*
X244741927Y-33051084D01*
X244743487Y-33006973D01*
X244744912Y-32975538D01*
X244755798Y-32915970D01*
X244776981Y-32872604D01*
X244808053Y-32846101D01*
X244848606Y-32837120D01*
X244863752Y-32838151D01*
X244905143Y-32852006D01*
X244946406Y-32882669D01*
X244988307Y-32930964D01*
X245031609Y-32997717D01*
X245077076Y-33083754D01*
X245077178Y-33083963D01*
X245102930Y-33137985D01*
X245128291Y-33193299D01*
X245150346Y-33243426D01*
X245166180Y-33281883D01*
X245194698Y-33355807D01*
X245223895Y-33327834D01*
X245242229Y-33313963D01*
X245280832Y-33300368D01*
X245320483Y-33302230D01*
X245354562Y-33319950D01*
X245363451Y-33329505D01*
X245384272Y-33356249D01*
X245412017Y-33394883D01*
X245444480Y-33442122D01*
X245479454Y-33494685D01*
X245514733Y-33549288D01*
X245548111Y-33602649D01*
X245577381Y-33651485D01*
X245622662Y-33729250D01*
X245674012Y-33723950D01*
X245682281Y-33723150D01*
X245712750Y-33722544D01*
X245734484Y-33729052D01*
X245756702Y-33745021D01*
X245788041Y-33771391D01*
X245772481Y-33728120D01*
X245762561Y-33680406D01*
X245770717Y-33639187D01*
X245797695Y-33603334D01*
X245819853Y-33588510D01*
X245860113Y-33578229D01*
X245901775Y-33582582D01*
X245937185Y-33601660D01*
X245944306Y-33610112D01*
X245961130Y-33636638D01*
X245982730Y-33675774D01*
X246007079Y-33723780D01*
X246032153Y-33776920D01*
X246066346Y-33849898D01*
X246110283Y-33935442D01*
X246153079Y-34007685D01*
X246197142Y-34070277D01*
X246244878Y-34126866D01*
X246298693Y-34181102D01*
X246301621Y-34183847D01*
X246343682Y-34221074D01*
X246386142Y-34255108D01*
X246425919Y-34283846D01*
X246459934Y-34305188D01*
X246485104Y-34317032D01*
X246498350Y-34317277D01*
X246498912Y-34316588D01*
X246498032Y-34304414D01*
X246485923Y-34280657D01*
X246461860Y-34244088D01*
X246425116Y-34193480D01*
X246417128Y-34182522D01*
X246392878Y-34145926D01*
X246374408Y-34113106D01*
X246365207Y-34090081D01*
X246364715Y-34055985D01*
X246379509Y-34019286D01*
X246407134Y-33990411D01*
X246443532Y-33973368D01*
X246484644Y-33972164D01*
X246491338Y-33974109D01*
X246517532Y-33989709D01*
X246542836Y-34014420D01*
X246542975Y-34014592D01*
X246564778Y-34041502D01*
X246593250Y-34076552D01*
X246622265Y-34112200D01*
X246651956Y-34149663D01*
X246713454Y-34236459D01*
X246765137Y-34325337D01*
X246810322Y-34422377D01*
X246852329Y-34533658D01*
X246858305Y-34550933D01*
X246872052Y-34588935D01*
X246882790Y-34612809D01*
X246893090Y-34626359D01*
X246905524Y-34633390D01*
X246922664Y-34637707D01*
X246989264Y-34660825D01*
X247058058Y-34703102D01*
X247075783Y-34715197D01*
X247094553Y-34721615D01*
X247111823Y-34716558D01*
X247113332Y-34715785D01*
X247145103Y-34707398D01*
X247186422Y-34705574D01*
X247228280Y-34710067D01*
X247261666Y-34720633D01*
X247266203Y-34723164D01*
X247294207Y-34744000D01*
X247319838Y-34769858D01*
X247327979Y-34779719D01*
X247340388Y-34793281D01*
X247344038Y-34792275D01*
X247341663Y-34777680D01*
X247336562Y-34753041D01*
X247326282Y-34701462D01*
X247313510Y-34635824D01*
X247298916Y-34559701D01*
X247283172Y-34476669D01*
X247266947Y-34390301D01*
X247250911Y-34304172D01*
X247235737Y-34221858D01*
X247222093Y-34146932D01*
X247210651Y-34082970D01*
X247202081Y-34033547D01*
X247198007Y-34009307D01*
X247188013Y-33947489D01*
X247181762Y-33901304D01*
X247179371Y-33867466D01*
X247180957Y-33842686D01*
X247186636Y-33823677D01*
X247196525Y-33807150D01*
X247210741Y-33789818D01*
X247232999Y-33773927D01*
X247268449Y-33766134D01*
X247306654Y-33770158D01*
X247340774Y-33785096D01*
X247363966Y-33810045D01*
X247372288Y-33830979D01*
X247384583Y-33869548D01*
X247399762Y-33922148D01*
X247417062Y-33985800D01*
X247435724Y-34057522D01*
X247454987Y-34134332D01*
X247474090Y-34213251D01*
X247492274Y-34291298D01*
X247508778Y-34365491D01*
X247522841Y-34432849D01*
X247550167Y-34574563D01*
X247578531Y-34737654D01*
X247601476Y-34891610D01*
X247619812Y-35041962D01*
X247634349Y-35194240D01*
X247634547Y-35196614D01*
X247641874Y-35277166D01*
X247649221Y-35341467D01*
X247657192Y-35393473D01*
X247666391Y-35437141D01*
X247673398Y-35462099D01*
X247677420Y-35476427D01*
X247684650Y-35499002D01*
X247699728Y-35542427D01*
X247712105Y-35569769D01*
X247723573Y-35583566D01*
X247735919Y-35586356D01*
X247750935Y-35580676D01*
X247764416Y-35575742D01*
X247797284Y-35573736D01*
X247830176Y-35580908D01*
X247853424Y-35595828D01*
X247863618Y-35603982D01*
X247886947Y-35610800D01*
X247894713Y-35612272D01*
X247918980Y-35626955D01*
X247948273Y-35654458D01*
X247979391Y-35691156D01*
X248009129Y-35733421D01*
X248034284Y-35777625D01*
X248061642Y-35841145D01*
X248092062Y-35938864D01*
X248112397Y-36041038D01*
X248118213Y-36110548D01*
X248120603Y-36139120D01*
X248120557Y-36171958D01*
G37*
X248120557Y-36171958D02*
X248116250Y-36226831D01*
X248105300Y-36266944D01*
X248086543Y-36295638D01*
X248058813Y-36316255D01*
X248033403Y-36325448D01*
X247993618Y-36331045D01*
X247953698Y-36329804D01*
X247923143Y-36321369D01*
X247911280Y-36312307D01*
X247887539Y-36286927D01*
X247859220Y-36251232D01*
X247829465Y-36209677D01*
X247801415Y-36166715D01*
X247778214Y-36126800D01*
X247763002Y-36094385D01*
X247753041Y-36064167D01*
X247740148Y-36016086D01*
X247730390Y-35969713D01*
X247724442Y-35939876D01*
X247715649Y-35911536D01*
X247702065Y-35883526D01*
X247696975Y-35875526D01*
X247871112Y-35875526D01*
X247877809Y-35950169D01*
X247892808Y-36020467D01*
X247914797Y-36078839D01*
X247917629Y-36084279D01*
X247934017Y-36110719D01*
X247948978Y-36128343D01*
X247957678Y-36134397D01*
X247963635Y-36130946D01*
X247964960Y-36110548D01*
X247964760Y-36102965D01*
X247960389Y-36064728D01*
X247951311Y-36017077D01*
X247938873Y-35964921D01*
X247924420Y-35913170D01*
X247909297Y-35866731D01*
X247894851Y-35830514D01*
X247882426Y-35809428D01*
X247882159Y-35809150D01*
X247875402Y-35810943D01*
X247871742Y-35829748D01*
X247871112Y-35875526D01*
X247696975Y-35875526D01*
X247681031Y-35850466D01*
X247649884Y-35806981D01*
X247581293Y-35713602D01*
X247558482Y-35737884D01*
X247535409Y-35755554D01*
X247497324Y-35774410D01*
X247455341Y-35788281D01*
X247418229Y-35793680D01*
X247376806Y-35788320D01*
X247320920Y-35766530D01*
X247268806Y-35730426D01*
X247249999Y-35711897D01*
X247212865Y-35666659D01*
X247174367Y-35610534D01*
X247138017Y-35548819D01*
X247107326Y-35486811D01*
X247087733Y-35435953D01*
X247064579Y-35358990D01*
X247043739Y-35271761D01*
X247026372Y-35179830D01*
X247016104Y-35106394D01*
X247216639Y-35106394D01*
X247217684Y-35120534D01*
X247222829Y-35149284D01*
X247231063Y-35188342D01*
X247241375Y-35233410D01*
X247252756Y-35280187D01*
X247264194Y-35324373D01*
X247274680Y-35361670D01*
X247283202Y-35387776D01*
X247298757Y-35424232D01*
X247326999Y-35478403D01*
X247358501Y-35528811D01*
X247388669Y-35567620D01*
X247405867Y-35583714D01*
X247417898Y-35590480D01*
X247417927Y-35590479D01*
X247427750Y-35580872D01*
X247434963Y-35554214D01*
X247439589Y-35513593D01*
X247441654Y-35462099D01*
X247441182Y-35402821D01*
X247438197Y-35338848D01*
X247432724Y-35273270D01*
X247424786Y-35209175D01*
X247414410Y-35149653D01*
X247389507Y-35028867D01*
X247367961Y-35065385D01*
X247366112Y-35068409D01*
X247335153Y-35099952D01*
X247294855Y-35114840D01*
X247249353Y-35111466D01*
X247248992Y-35111365D01*
X247227405Y-35106336D01*
X247216933Y-35105760D01*
X247216639Y-35106394D01*
X247016104Y-35106394D01*
X247013638Y-35088758D01*
X247006697Y-35004108D01*
X247004899Y-34976567D01*
X246997472Y-34928045D01*
X246985363Y-34899061D01*
X246968515Y-34889440D01*
X246965994Y-34892325D01*
X246964061Y-34909800D01*
X246965812Y-34937855D01*
X246967116Y-34955788D01*
X246961345Y-35005483D01*
X246942854Y-35046151D01*
X246914076Y-35075025D01*
X246877442Y-35089336D01*
X246835384Y-35086316D01*
X246816968Y-35078033D01*
X246786834Y-35051821D01*
X246764594Y-35017207D01*
X246755920Y-34981662D01*
X246753309Y-34956873D01*
X246745522Y-34915817D01*
X246733620Y-34863369D01*
X246718674Y-34803430D01*
X246701756Y-34739903D01*
X246683938Y-34676689D01*
X246666289Y-34617692D01*
X246649882Y-34566814D01*
X246635788Y-34527956D01*
X246625078Y-34505022D01*
X246624078Y-34503554D01*
X246614760Y-34497553D01*
X246597447Y-34499041D01*
X246566819Y-34508320D01*
X246558577Y-34510946D01*
X246506312Y-34519371D01*
X246451364Y-34513483D01*
X246391651Y-34492593D01*
X246325090Y-34456008D01*
X246249599Y-34403037D01*
X246225057Y-34383702D01*
X246186024Y-34350845D01*
X246147110Y-34316021D01*
X246111427Y-34282209D01*
X246082087Y-34252389D01*
X246062201Y-34229540D01*
X246054880Y-34216638D01*
X246053940Y-34214935D01*
X246040028Y-34210498D01*
X246014768Y-34208720D01*
X245996338Y-34207473D01*
X245973570Y-34200478D01*
X245947727Y-34184784D01*
X245913168Y-34157549D01*
X245904558Y-34150463D01*
X245877614Y-34129441D01*
X245858773Y-34116556D01*
X245851683Y-34114369D01*
X245857245Y-34123936D01*
X245873383Y-34148144D01*
X245898776Y-34185072D01*
X245932100Y-34232825D01*
X245972033Y-34289508D01*
X246017251Y-34353224D01*
X246066433Y-34422080D01*
X246108270Y-34480551D01*
X246158988Y-34551643D01*
X246206691Y-34618729D01*
X246249609Y-34679309D01*
X246285973Y-34730886D01*
X246314014Y-34770960D01*
X246331962Y-34797034D01*
X246352075Y-34828432D01*
X246383470Y-34884729D01*
X246408410Y-34938959D01*
X246424864Y-34986484D01*
X246430800Y-35022666D01*
X246430469Y-35029438D01*
X246418379Y-35064113D01*
X246392736Y-35093003D01*
X246358801Y-35112832D01*
X246321833Y-35120324D01*
X246287090Y-35112201D01*
X246272765Y-35103492D01*
X246237911Y-35078089D01*
X246194805Y-35043146D01*
X246147165Y-35001996D01*
X246098711Y-34957973D01*
X246053160Y-34914409D01*
X246014232Y-34874638D01*
X245985645Y-34841994D01*
X245938137Y-34777895D01*
X245878630Y-34687897D01*
X245817929Y-34586892D01*
X245758552Y-34479462D01*
X245703014Y-34370190D01*
X245653833Y-34263658D01*
X245613526Y-34164449D01*
X245606838Y-34147132D01*
X245581342Y-34087488D01*
X245551840Y-34025259D01*
X245523446Y-33971409D01*
X245470680Y-33878520D01*
X245465261Y-33925627D01*
X245464937Y-33928353D01*
X245455334Y-33970167D01*
X245436178Y-33999065D01*
X245403345Y-34021429D01*
X245369159Y-34034839D01*
X245338319Y-34036197D01*
X245309085Y-34023939D01*
X245279387Y-33996671D01*
X245247152Y-33952998D01*
X245210311Y-33891528D01*
X245202718Y-33877918D01*
X245170973Y-33818367D01*
X245139746Y-33754971D01*
X245107664Y-33684639D01*
X245073353Y-33604279D01*
X245035442Y-33510799D01*
X244992558Y-33401107D01*
X244978505Y-33365449D01*
X244960072Y-33321225D01*
X244944846Y-33287713D01*
X244934111Y-33267693D01*
X244929154Y-33263947D01*
X244925602Y-33273518D01*
X244914931Y-33298741D01*
X244900817Y-33329984D01*
X244891019Y-33349000D01*
X244860147Y-33387725D01*
X244820436Y-33409453D01*
X244768741Y-33416240D01*
X244714124Y-33409138D01*
X244658706Y-33384732D01*
X244606803Y-33342227D01*
X244557536Y-33280890D01*
X244510027Y-33199987D01*
X244505021Y-33190356D01*
X244477134Y-33138260D01*
X244445856Y-33081728D01*
X244417057Y-33031403D01*
X244369052Y-32945510D01*
X244315309Y-32841955D01*
X244256923Y-32722918D01*
X244194823Y-32590289D01*
X244129936Y-32445960D01*
X244114165Y-32410213D01*
X244085401Y-32345038D01*
X244058728Y-32284628D01*
X244035675Y-32232441D01*
X244017766Y-32191932D01*
X244006530Y-32166560D01*
X244003969Y-32160800D01*
X243992070Y-32136067D01*
X243979912Y-32119053D01*
X243962825Y-32105985D01*
X243936142Y-32093091D01*
X243895191Y-32076597D01*
X243886447Y-32073072D01*
X243836379Y-32050522D01*
X243786203Y-32024702D01*
X243745588Y-32000528D01*
X243732965Y-31991381D01*
X243698638Y-31962967D01*
X243652832Y-31921895D01*
X243597061Y-31869673D01*
X243532843Y-31807815D01*
X243461692Y-31737829D01*
X243385126Y-31661226D01*
X243304660Y-31579518D01*
X243221811Y-31494215D01*
X243138094Y-31406827D01*
X243055026Y-31318865D01*
X242974123Y-31231840D01*
X242927154Y-31181356D01*
X242853537Y-31103534D01*
X242771703Y-31018227D01*
X242685343Y-30929233D01*
X242598150Y-30840350D01*
X242513816Y-30755380D01*
X242436032Y-30678120D01*
X242402238Y-30644780D01*
X242315695Y-30558550D01*
X242242901Y-30484485D01*
X242182903Y-30421472D01*
X242134748Y-30368398D01*
X242097485Y-30324149D01*
X242070160Y-30287611D01*
X242051822Y-30257671D01*
X242041517Y-30233217D01*
X242038294Y-30213133D01*
X242038887Y-30205317D01*
X242050903Y-30176030D01*
X242073735Y-30153649D01*
X242101226Y-30144854D01*
X242102214Y-30144885D01*
X242126345Y-30151898D01*
X242162384Y-30169685D01*
X242206881Y-30196079D01*
X242256388Y-30228916D01*
X242307457Y-30266029D01*
X242356640Y-30305253D01*
X242437493Y-30375174D01*
X242547706Y-30475915D01*
X242668336Y-30591734D01*
X242799668Y-30722918D01*
X242941989Y-30869752D01*
X243095584Y-31032524D01*
X243260740Y-31211520D01*
X243312359Y-31267568D01*
X243371022Y-31330384D01*
X243431954Y-31394857D01*
X243493538Y-31459337D01*
X243554157Y-31522177D01*
X243612195Y-31581728D01*
X243666038Y-31636342D01*
X243714067Y-31684369D01*
X243754668Y-31724162D01*
X243786224Y-31754072D01*
X243807119Y-31772451D01*
X243815737Y-31777649D01*
X243816148Y-31776399D01*
X243814156Y-31761789D01*
X243807607Y-31737178D01*
X243802309Y-31695873D01*
X243811781Y-31656133D01*
X243833565Y-31623542D01*
X243864217Y-31600613D01*
X243900295Y-31589861D01*
X243938358Y-31593800D01*
X243974961Y-31614945D01*
X243982502Y-31624041D01*
X243999879Y-31651964D01*
X244023371Y-31694835D01*
X244051885Y-31750379D01*
X244084326Y-31816323D01*
X244119600Y-31890392D01*
X244156614Y-31970313D01*
X244194274Y-32053810D01*
X244231486Y-32138610D01*
X244267156Y-32222440D01*
X244310388Y-32324910D01*
X244370991Y-32464908D01*
X244426293Y-32587831D01*
X244476920Y-32695025D01*
X244523494Y-32787833D01*
X244566640Y-32867600D01*
X244592326Y-32913493D01*
X244624781Y-32972426D01*
X244655513Y-33029118D01*
X244680323Y-33075880D01*
X244727987Y-33167320D01*
X244735361Y-33121600D01*
X244738656Y-33094676D01*
X244741927Y-33051084D01*
X244743487Y-33006973D01*
X244744912Y-32975538D01*
X244755798Y-32915970D01*
X244776981Y-32872604D01*
X244808053Y-32846101D01*
X244848606Y-32837120D01*
X244863752Y-32838151D01*
X244905143Y-32852006D01*
X244946406Y-32882669D01*
X244988307Y-32930964D01*
X245031609Y-32997717D01*
X245077076Y-33083754D01*
X245077178Y-33083963D01*
X245102930Y-33137985D01*
X245128291Y-33193299D01*
X245150346Y-33243426D01*
X245166180Y-33281883D01*
X245194698Y-33355807D01*
X245223895Y-33327834D01*
X245242229Y-33313963D01*
X245280832Y-33300368D01*
X245320483Y-33302230D01*
X245354562Y-33319950D01*
X245363451Y-33329505D01*
X245384272Y-33356249D01*
X245412017Y-33394883D01*
X245444480Y-33442122D01*
X245479454Y-33494685D01*
X245514733Y-33549288D01*
X245548111Y-33602649D01*
X245577381Y-33651485D01*
X245622662Y-33729250D01*
X245674012Y-33723950D01*
X245682281Y-33723150D01*
X245712750Y-33722544D01*
X245734484Y-33729052D01*
X245756702Y-33745021D01*
X245788041Y-33771391D01*
X245772481Y-33728120D01*
X245762561Y-33680406D01*
X245770717Y-33639187D01*
X245797695Y-33603334D01*
X245819853Y-33588510D01*
X245860113Y-33578229D01*
X245901775Y-33582582D01*
X245937185Y-33601660D01*
X245944306Y-33610112D01*
X245961130Y-33636638D01*
X245982730Y-33675774D01*
X246007079Y-33723780D01*
X246032153Y-33776920D01*
X246066346Y-33849898D01*
X246110283Y-33935442D01*
X246153079Y-34007685D01*
X246197142Y-34070277D01*
X246244878Y-34126866D01*
X246298693Y-34181102D01*
X246301621Y-34183847D01*
X246343682Y-34221074D01*
X246386142Y-34255108D01*
X246425919Y-34283846D01*
X246459934Y-34305188D01*
X246485104Y-34317032D01*
X246498350Y-34317277D01*
X246498912Y-34316588D01*
X246498032Y-34304414D01*
X246485923Y-34280657D01*
X246461860Y-34244088D01*
X246425116Y-34193480D01*
X246417128Y-34182522D01*
X246392878Y-34145926D01*
X246374408Y-34113106D01*
X246365207Y-34090081D01*
X246364715Y-34055985D01*
X246379509Y-34019286D01*
X246407134Y-33990411D01*
X246443532Y-33973368D01*
X246484644Y-33972164D01*
X246491338Y-33974109D01*
X246517532Y-33989709D01*
X246542836Y-34014420D01*
X246542975Y-34014592D01*
X246564778Y-34041502D01*
X246593250Y-34076552D01*
X246622265Y-34112200D01*
X246651956Y-34149663D01*
X246713454Y-34236459D01*
X246765137Y-34325337D01*
X246810322Y-34422377D01*
X246852329Y-34533658D01*
X246858305Y-34550933D01*
X246872052Y-34588935D01*
X246882790Y-34612809D01*
X246893090Y-34626359D01*
X246905524Y-34633390D01*
X246922664Y-34637707D01*
X246989264Y-34660825D01*
X247058058Y-34703102D01*
X247075783Y-34715197D01*
X247094553Y-34721615D01*
X247111823Y-34716558D01*
X247113332Y-34715785D01*
X247145103Y-34707398D01*
X247186422Y-34705574D01*
X247228280Y-34710067D01*
X247261666Y-34720633D01*
X247266203Y-34723164D01*
X247294207Y-34744000D01*
X247319838Y-34769858D01*
X247327979Y-34779719D01*
X247340388Y-34793281D01*
X247344038Y-34792275D01*
X247341663Y-34777680D01*
X247336562Y-34753041D01*
X247326282Y-34701462D01*
X247313510Y-34635824D01*
X247298916Y-34559701D01*
X247283172Y-34476669D01*
X247266947Y-34390301D01*
X247250911Y-34304172D01*
X247235737Y-34221858D01*
X247222093Y-34146932D01*
X247210651Y-34082970D01*
X247202081Y-34033547D01*
X247198007Y-34009307D01*
X247188013Y-33947489D01*
X247181762Y-33901304D01*
X247179371Y-33867466D01*
X247180957Y-33842686D01*
X247186636Y-33823677D01*
X247196525Y-33807150D01*
X247210741Y-33789818D01*
X247232999Y-33773927D01*
X247268449Y-33766134D01*
X247306654Y-33770158D01*
X247340774Y-33785096D01*
X247363966Y-33810045D01*
X247372288Y-33830979D01*
X247384583Y-33869548D01*
X247399762Y-33922148D01*
X247417062Y-33985800D01*
X247435724Y-34057522D01*
X247454987Y-34134332D01*
X247474090Y-34213251D01*
X247492274Y-34291298D01*
X247508778Y-34365491D01*
X247522841Y-34432849D01*
X247550167Y-34574563D01*
X247578531Y-34737654D01*
X247601476Y-34891610D01*
X247619812Y-35041962D01*
X247634349Y-35194240D01*
X247634547Y-35196614D01*
X247641874Y-35277166D01*
X247649221Y-35341467D01*
X247657192Y-35393473D01*
X247666391Y-35437141D01*
X247673398Y-35462099D01*
X247677420Y-35476427D01*
X247684650Y-35499002D01*
X247699728Y-35542427D01*
X247712105Y-35569769D01*
X247723573Y-35583566D01*
X247735919Y-35586356D01*
X247750935Y-35580676D01*
X247764416Y-35575742D01*
X247797284Y-35573736D01*
X247830176Y-35580908D01*
X247853424Y-35595828D01*
X247863618Y-35603982D01*
X247886947Y-35610800D01*
X247894713Y-35612272D01*
X247918980Y-35626955D01*
X247948273Y-35654458D01*
X247979391Y-35691156D01*
X248009129Y-35733421D01*
X248034284Y-35777625D01*
X248061642Y-35841145D01*
X248092062Y-35938864D01*
X248112397Y-36041038D01*
X248118213Y-36110548D01*
X248120603Y-36139120D01*
X248120557Y-36171958D01*
X241279896Y-28782103D02*
X241259682Y-28804618D01*
X241259682Y-28804618D02*
X241251464Y-28834008D01*
X241251464Y-28834008D02*
X241252999Y-28847831D01*
X241252999Y-28847831D02*
X241264378Y-28864469D01*
X241264378Y-28864469D02*
X241292652Y-28891660D01*
X241292652Y-28891660D02*
X241337517Y-28929140D01*
X241337517Y-28929140D02*
X241398669Y-28976642D01*
X241398669Y-28976642D02*
X241414139Y-28988308D01*
X241414139Y-28988308D02*
X241454428Y-29018419D01*
X241454428Y-29018419D02*
X241493804Y-29047528D01*
X241493804Y-29047528D02*
X241533326Y-29076334D01*
X241533326Y-29076334D02*
X241574053Y-29105540D01*
X241574053Y-29105540D02*
X241617042Y-29135848D01*
X241617042Y-29135848D02*
X241663352Y-29167960D01*
X241663352Y-29167960D02*
X241714040Y-29202576D01*
X241714040Y-29202576D02*
X241770166Y-29240400D01*
X241770166Y-29240400D02*
X241832788Y-29282132D01*
X241832788Y-29282132D02*
X241902963Y-29328475D01*
X241902963Y-29328475D02*
X241981750Y-29380129D01*
X241981750Y-29380129D02*
X242070207Y-29437798D01*
X242070207Y-29437798D02*
X242169393Y-29502182D01*
X242169393Y-29502182D02*
X242280365Y-29573984D01*
X242280365Y-29573984D02*
X242404182Y-29653904D01*
X242404182Y-29653904D02*
X242541902Y-29742646D01*
X242541902Y-29742646D02*
X242694584Y-29840910D01*
X242694584Y-29840910D02*
X242863285Y-29949399D01*
X242863285Y-29949399D02*
X242869720Y-29953536D01*
X242869720Y-29953536D02*
X243085740Y-30092483D01*
X243085740Y-30092483D02*
X243286263Y-30221618D01*
X243286263Y-30221618D02*
X243472946Y-30342023D01*
X243472946Y-30342023D02*
X243647444Y-30454779D01*
X243647444Y-30454779D02*
X243811413Y-30560969D01*
X243811413Y-30560969D02*
X243966511Y-30661673D01*
X243966511Y-30661673D02*
X244114394Y-30757973D01*
X244114394Y-30757973D02*
X244256717Y-30850951D01*
X244256717Y-30850951D02*
X244395137Y-30941689D01*
X244395137Y-30941689D02*
X244531310Y-31031267D01*
X244531310Y-31031267D02*
X244666893Y-31120769D01*
X244666893Y-31120769D02*
X244803542Y-31211274D01*
X244803542Y-31211274D02*
X244942913Y-31303866D01*
X244942913Y-31303866D02*
X245086662Y-31399625D01*
X245086662Y-31399625D02*
X245201558Y-31476321D01*
X245201558Y-31476321D02*
X245669617Y-31791204D01*
X245669617Y-31791204D02*
X246119410Y-32098285D01*
X246119410Y-32098285D02*
X246551314Y-32397842D01*
X246551314Y-32397842D02*
X246965707Y-32690152D01*
X246965707Y-32690152D02*
X247362966Y-32975491D01*
X247362966Y-32975491D02*
X247743471Y-33254138D01*
X247743471Y-33254138D02*
X248107599Y-33526370D01*
X248107599Y-33526370D02*
X248455728Y-33792464D01*
X248455728Y-33792464D02*
X248788236Y-34052696D01*
X248788236Y-34052696D02*
X249105500Y-34307346D01*
X249105500Y-34307346D02*
X249407900Y-34556689D01*
X249407900Y-34556689D02*
X249458480Y-34599093D01*
X249458480Y-34599093D02*
X249617204Y-34732362D01*
X249617204Y-34732362D02*
X249761600Y-34853289D01*
X249761600Y-34853289D02*
X249892775Y-34962749D01*
X249892775Y-34962749D02*
X250011839Y-35061615D01*
X250011839Y-35061615D02*
X250119899Y-35150762D01*
X250119899Y-35150762D02*
X250218061Y-35231064D01*
X250218061Y-35231064D02*
X250307435Y-35303395D01*
X250307435Y-35303395D02*
X250389128Y-35368630D01*
X250389128Y-35368630D02*
X250464247Y-35427642D01*
X250464247Y-35427642D02*
X250533900Y-35481305D01*
X250533900Y-35481305D02*
X250599196Y-35530494D01*
X250599196Y-35530494D02*
X250661241Y-35576082D01*
X250661241Y-35576082D02*
X250721143Y-35618944D01*
X250721143Y-35618944D02*
X250780011Y-35659955D01*
X250780011Y-35659955D02*
X250838951Y-35699987D01*
X250838951Y-35699987D02*
X250899072Y-35739916D01*
X250899072Y-35739916D02*
X250929081Y-35759566D01*
X250929081Y-35759566D02*
X251064729Y-35845714D01*
X251064729Y-35845714D02*
X251197009Y-35925202D01*
X251197009Y-35925202D02*
X251324198Y-35997162D01*
X251324198Y-35997162D02*
X251444572Y-36060724D01*
X251444572Y-36060724D02*
X251556407Y-36115019D01*
X251556407Y-36115019D02*
X251657978Y-36159178D01*
X251657978Y-36159178D02*
X251747562Y-36192332D01*
X251747562Y-36192332D02*
X251823435Y-36213612D01*
X251823435Y-36213612D02*
X251834274Y-36215875D01*
X251834274Y-36215875D02*
X251879946Y-36224247D01*
X251879946Y-36224247D02*
X251913757Y-36228167D01*
X251913757Y-36228167D02*
X251943615Y-36227891D01*
X251943615Y-36227891D02*
X251977425Y-36223673D01*
X251977425Y-36223673D02*
X251993400Y-36221013D01*
X251993400Y-36221013D02*
X252061663Y-36200298D01*
X252061663Y-36200298D02*
X252118278Y-36163305D01*
X252118278Y-36163305D02*
X252164221Y-36109298D01*
X252164221Y-36109298D02*
X252182235Y-36078160D01*
X252182235Y-36078160D02*
X252200050Y-36024655D01*
X252200050Y-36024655D02*
X252206832Y-35954882D01*
X252206832Y-35954882D02*
X252202562Y-35868737D01*
X252202562Y-35868737D02*
X252187222Y-35766115D01*
X252187222Y-35766115D02*
X252160792Y-35646913D01*
X252160792Y-35646913D02*
X252123253Y-35511028D01*
X252123253Y-35511028D02*
X252074586Y-35358356D01*
X252074586Y-35358356D02*
X252024216Y-35214646D01*
X252024216Y-35214646D02*
X251995660Y-35137349D01*
X251995660Y-35137349D02*
X251965466Y-35058417D01*
X251965466Y-35058417D02*
X251932730Y-34975683D01*
X251932730Y-34975683D02*
X251896547Y-34886976D01*
X251896547Y-34886976D02*
X251856011Y-34790128D01*
X251856011Y-34790128D02*
X251810218Y-34682970D01*
X251810218Y-34682970D02*
X251758262Y-34563332D01*
X251758262Y-34563332D02*
X251699240Y-34429046D01*
X251699240Y-34429046D02*
X251651330Y-34320879D01*
X251651330Y-34320879D02*
X251595690Y-34195365D01*
X251595690Y-34195365D02*
X251547565Y-34086282D01*
X251547565Y-34086282D02*
X251506064Y-33991557D01*
X251506064Y-33991557D02*
X251470297Y-33909121D01*
X251470297Y-33909121D02*
X251439372Y-33836903D01*
X251439372Y-33836903D02*
X251412400Y-33772834D01*
X251412400Y-33772834D02*
X251388490Y-33714842D01*
X251388490Y-33714842D02*
X251366752Y-33660857D01*
X251366752Y-33660857D02*
X251358968Y-33641200D01*
X251358968Y-33641200D02*
X251338548Y-33589392D01*
X251338548Y-33589392D02*
X251406894Y-33632967D01*
X251406894Y-33632967D02*
X251440480Y-33654035D01*
X251440480Y-33654035D02*
X251486346Y-33682329D01*
X251486346Y-33682329D02*
X251539316Y-33714678D01*
X251539316Y-33714678D02*
X251594210Y-33747910D01*
X251594210Y-33747910D02*
X251614744Y-33760258D01*
X251614744Y-33760258D02*
X251669845Y-33794113D01*
X251669845Y-33794113D02*
X251725615Y-33829747D01*
X251725615Y-33829747D02*
X251776601Y-33863586D01*
X251776601Y-33863586D02*
X251817348Y-33892059D01*
X251817348Y-33892059D02*
X251828104Y-33900037D01*
X251828104Y-33900037D02*
X251865324Y-33927326D01*
X251865324Y-33927326D02*
X251891512Y-33943501D01*
X251891512Y-33943501D02*
X251911060Y-33950679D01*
X251911060Y-33950679D02*
X251928359Y-33950974D01*
X251928359Y-33950974D02*
X251932440Y-33950299D01*
X251932440Y-33950299D02*
X251968388Y-33935009D01*
X251968388Y-33935009D02*
X251990455Y-33908435D01*
X251990455Y-33908435D02*
X251997288Y-33875294D01*
X251997288Y-33875294D02*
X251987531Y-33840305D01*
X251987531Y-33840305D02*
X251970540Y-33817676D01*
X251970540Y-33817676D02*
X251954724Y-33802331D01*
X251954724Y-33802331D02*
X251937287Y-33786743D01*
X251937287Y-33786743D02*
X251916844Y-33769980D01*
X251916844Y-33769980D02*
X251892006Y-33751114D01*
X251892006Y-33751114D02*
X251861386Y-33729216D01*
X251861386Y-33729216D02*
X251823599Y-33703355D01*
X251823599Y-33703355D02*
X251777256Y-33672602D01*
X251777256Y-33672602D02*
X251720970Y-33636027D01*
X251720970Y-33636027D02*
X251653355Y-33592701D01*
X251653355Y-33592701D02*
X251573024Y-33541694D01*
X251573024Y-33541694D02*
X251478589Y-33482078D01*
X251478589Y-33482078D02*
X251368663Y-33412921D01*
X251368663Y-33412921D02*
X251335533Y-33392106D01*
X251335533Y-33392106D02*
X251236466Y-33329880D01*
X251236466Y-33329880D02*
X251164144Y-33147000D01*
X251164144Y-33147000D02*
X251137003Y-33077785D01*
X251137003Y-33077785D02*
X251108252Y-33003465D01*
X251108252Y-33003465D02*
X251080385Y-32930553D01*
X251080385Y-32930553D02*
X251055897Y-32865564D01*
X251055897Y-32865564D02*
X251042466Y-32829270D01*
X251042466Y-32829270D02*
X251020150Y-32768754D01*
X251020150Y-32768754D02*
X251003186Y-32724265D01*
X251003186Y-32724265D02*
X250990155Y-32692673D01*
X250990155Y-32692673D02*
X250979640Y-32670844D01*
X250979640Y-32670844D02*
X250970221Y-32655647D01*
X250970221Y-32655647D02*
X250960481Y-32643951D01*
X250960481Y-32643951D02*
X250956853Y-32640223D01*
X250956853Y-32640223D02*
X250937438Y-32630179D01*
X250937438Y-32630179D02*
X250919694Y-32634102D01*
X250919694Y-32634102D02*
X250911389Y-32650096D01*
X250911389Y-32650096D02*
X250911360Y-32651334D01*
X250911360Y-32651334D02*
X250904806Y-32661855D01*
X250904806Y-32661855D02*
X250895736Y-32660578D01*
X250895736Y-32660578D02*
X250879769Y-32661943D01*
X250879769Y-32661943D02*
X250875036Y-32667808D01*
X250875036Y-32667808D02*
X250875973Y-32683156D01*
X250875973Y-32683156D02*
X250882989Y-32714645D01*
X250882989Y-32714645D02*
X250895142Y-32759349D01*
X250895142Y-32759349D02*
X250911487Y-32814343D01*
X250911487Y-32814343D02*
X250931082Y-32876700D01*
X250931082Y-32876700D02*
X250952981Y-32943493D01*
X250952981Y-32943493D02*
X250976243Y-33011798D01*
X250976243Y-33011798D02*
X250999922Y-33078687D01*
X250999922Y-33078687D02*
X251023075Y-33141234D01*
X251023075Y-33141234D02*
X251044759Y-33196514D01*
X251044759Y-33196514D02*
X251048446Y-33205500D01*
X251048446Y-33205500D02*
X251047899Y-33212397D01*
X251047899Y-33212397D02*
X251035386Y-33209568D01*
X251035386Y-33209568D02*
X251008928Y-33196353D01*
X251008928Y-33196353D02*
X250991218Y-33186426D01*
X250991218Y-33186426D02*
X250949775Y-33163714D01*
X250949775Y-33163714D02*
X250893217Y-33134125D01*
X250893217Y-33134125D02*
X250824884Y-33099289D01*
X250824884Y-33099289D02*
X250748113Y-33060838D01*
X250748113Y-33060838D02*
X250666244Y-33020400D01*
X250666244Y-33020400D02*
X250582617Y-32979605D01*
X250582617Y-32979605D02*
X250500570Y-32940083D01*
X250500570Y-32940083D02*
X250423442Y-32903464D01*
X250423442Y-32903464D02*
X250354573Y-32871378D01*
X250354573Y-32871378D02*
X250297301Y-32845454D01*
X250297301Y-32845454D02*
X250258381Y-32828718D01*
X250258381Y-32828718D02*
X250197355Y-32804889D01*
X250197355Y-32804889D02*
X250133415Y-32782101D01*
X250133415Y-32782101D02*
X250070590Y-32761585D01*
X250070590Y-32761585D02*
X250012912Y-32744571D01*
X250012912Y-32744571D02*
X249964413Y-32732288D01*
X249964413Y-32732288D02*
X249929123Y-32725968D01*
X249929123Y-32725968D02*
X249919795Y-32725385D01*
X249919795Y-32725385D02*
X249893846Y-32734243D01*
X249893846Y-32734243D02*
X249873186Y-32755955D01*
X249873186Y-32755955D02*
X249864880Y-32782808D01*
X249864880Y-32782808D02*
X249872001Y-32804065D01*
X249872001Y-32804065D02*
X249887740Y-32824212D01*
X249887740Y-32824212D02*
X249912450Y-32842367D01*
X249912450Y-32842367D02*
X249953659Y-32867052D01*
X249953659Y-32867052D02*
X250009073Y-32897075D01*
X250009073Y-32897075D02*
X250076393Y-32931250D01*
X250076393Y-32931250D02*
X250153325Y-32968386D01*
X250153325Y-32968386D02*
X250237570Y-33007294D01*
X250237570Y-33007294D02*
X250266200Y-33020149D01*
X250266200Y-33020149D02*
X250356450Y-33061292D01*
X250356450Y-33061292D02*
X250455939Y-33108216D01*
X250455939Y-33108216D02*
X250560621Y-33158897D01*
X250560621Y-33158897D02*
X250666448Y-33211311D01*
X250666448Y-33211311D02*
X250769374Y-33263434D01*
X250769374Y-33263434D02*
X250865351Y-33313241D01*
X250865351Y-33313241D02*
X250950332Y-33358710D01*
X250950332Y-33358710D02*
X251012960Y-33393614D01*
X251012960Y-33393614D02*
X251150120Y-33472120D01*
X251150120Y-33472120D02*
X251204180Y-33609280D01*
X251204180Y-33609280D02*
X251237333Y-33692742D01*
X251237333Y-33692742D02*
X251270763Y-33775466D01*
X251270763Y-33775466D02*
X251305641Y-33860228D01*
X251305641Y-33860228D02*
X251343137Y-33949806D01*
X251343137Y-33949806D02*
X251384421Y-34046976D01*
X251384421Y-34046976D02*
X251430666Y-34154515D01*
X251430666Y-34154515D02*
X251483041Y-34275200D01*
X251483041Y-34275200D02*
X251538318Y-34401760D01*
X251538318Y-34401760D02*
X251615328Y-34579058D01*
X251615328Y-34579058D02*
X251683906Y-34740066D01*
X251683906Y-34740066D02*
X251744751Y-34886648D01*
X251744751Y-34886648D02*
X251798563Y-35020665D01*
X251798563Y-35020665D02*
X251846041Y-35143980D01*
X251846041Y-35143980D02*
X251887885Y-35258456D01*
X251887885Y-35258456D02*
X251924794Y-35365956D01*
X251924794Y-35365956D02*
X251957468Y-35468342D01*
X251957468Y-35468342D02*
X251986605Y-35567478D01*
X251986605Y-35567478D02*
X252012906Y-35665225D01*
X252012906Y-35665225D02*
X252013280Y-35666680D01*
X252013280Y-35666680D02*
X252036647Y-35765852D01*
X252036647Y-35765852D02*
X252051214Y-35848209D01*
X252051214Y-35848209D02*
X252056944Y-35915271D01*
X252056944Y-35915271D02*
X252053801Y-35968555D01*
X252053801Y-35968555D02*
X252041748Y-36009580D01*
X252041748Y-36009580D02*
X252020749Y-36039864D01*
X252020749Y-36039864D02*
X252004001Y-36053405D01*
X252004001Y-36053405D02*
X251973180Y-36063981D01*
X251973180Y-36063981D02*
X251928522Y-36066725D01*
X251928522Y-36066725D02*
X251874765Y-36062042D01*
X251874765Y-36062042D02*
X251816649Y-36050335D01*
X251816649Y-36050335D02*
X251760510Y-36032621D01*
X251760510Y-36032621D02*
X251714849Y-36013580D01*
X251714849Y-36013580D02*
X251655594Y-35986334D01*
X251655594Y-35986334D02*
X251586709Y-35952905D01*
X251586709Y-35952905D02*
X251512160Y-35915312D01*
X251512160Y-35915312D02*
X251435912Y-35875577D01*
X251435912Y-35875577D02*
X251361930Y-35835720D01*
X251361930Y-35835720D02*
X251294180Y-35797763D01*
X251294180Y-35797763D02*
X251256800Y-35775924D01*
X251256800Y-35775924D02*
X251158238Y-35715946D01*
X251158238Y-35715946D02*
X251060471Y-35653868D01*
X251060471Y-35653868D02*
X250962095Y-35588619D01*
X250962095Y-35588619D02*
X250861702Y-35519130D01*
X250861702Y-35519130D02*
X250757887Y-35444333D01*
X250757887Y-35444333D02*
X250649244Y-35363157D01*
X250649244Y-35363157D02*
X250534366Y-35274532D01*
X250534366Y-35274532D02*
X250411848Y-35177391D01*
X250411848Y-35177391D02*
X250280283Y-35070662D01*
X250280283Y-35070662D02*
X250138265Y-34953277D01*
X250138265Y-34953277D02*
X249984389Y-34824165D01*
X249984389Y-34824165D02*
X249817247Y-34682259D01*
X249817247Y-34682259D02*
X249803920Y-34670885D01*
X249803920Y-34670885D02*
X249487802Y-34403851D01*
X249487802Y-34403851D02*
X249167387Y-34138951D01*
X249167387Y-34138951D02*
X248841442Y-33875264D01*
X248841442Y-33875264D02*
X248508738Y-33611869D01*
X248508738Y-33611869D02*
X248168043Y-33347848D01*
X248168043Y-33347848D02*
X247818126Y-33082279D01*
X247818126Y-33082279D02*
X247457756Y-32814243D01*
X247457756Y-32814243D02*
X247085702Y-32542820D01*
X247085702Y-32542820D02*
X246700734Y-32267089D01*
X246700734Y-32267089D02*
X246301618Y-31986131D01*
X246301618Y-31986131D02*
X245887126Y-31699025D01*
X245887126Y-31699025D02*
X245456025Y-31404852D01*
X245456025Y-31404852D02*
X245226840Y-31250101D01*
X245226840Y-31250101D02*
X245105635Y-31168849D01*
X245105635Y-31168849D02*
X244972564Y-31080202D01*
X244972564Y-31080202D02*
X244828943Y-30985012D01*
X244828943Y-30985012D02*
X244676089Y-30884130D01*
X244676089Y-30884130D02*
X244515319Y-30778404D01*
X244515319Y-30778404D02*
X244347948Y-30668686D01*
X244347948Y-30668686D02*
X244175293Y-30555825D01*
X244175293Y-30555825D02*
X243998670Y-30440673D01*
X243998670Y-30440673D02*
X243819396Y-30324078D01*
X243819396Y-30324078D02*
X243638786Y-30206892D01*
X243638786Y-30206892D02*
X243458157Y-30089964D01*
X243458157Y-30089964D02*
X243278826Y-29974145D01*
X243278826Y-29974145D02*
X243102109Y-29860285D01*
X243102109Y-29860285D02*
X242929322Y-29749235D01*
X242929322Y-29749235D02*
X242761780Y-29641844D01*
X242761780Y-29641844D02*
X242600802Y-29538962D01*
X242600802Y-29538962D02*
X242447702Y-29441441D01*
X242447702Y-29441441D02*
X242303798Y-29350130D01*
X242303798Y-29350130D02*
X242170405Y-29265879D01*
X242170405Y-29265879D02*
X242048840Y-29189539D01*
X242048840Y-29189539D02*
X241940419Y-29121959D01*
X241940419Y-29121959D02*
X241846458Y-29063991D01*
X241846458Y-29063991D02*
X241776270Y-29021297D01*
X241776270Y-29021297D02*
X241697551Y-28974558D01*
X241697551Y-28974558D02*
X241620232Y-28929973D01*
X241620232Y-28929973D02*
X241546529Y-28888713D01*
X241546529Y-28888713D02*
X241478655Y-28851951D01*
X241478655Y-28851951D02*
X241418826Y-28820859D01*
X241418826Y-28820859D02*
X241369258Y-28796609D01*
X241369258Y-28796609D02*
X241332166Y-28780373D01*
X241332166Y-28780373D02*
X241309763Y-28773324D01*
X241309763Y-28773324D02*
X241307271Y-28773120D01*
X241307271Y-28773120D02*
X241279896Y-28782103D01*
X241279896Y-28782103D02*
X241279896Y-28782103D01*
G36*
X241309763Y-28773324D02*
G01*
X241332166Y-28780373D01*
X241369258Y-28796609D01*
X241418826Y-28820859D01*
X241478655Y-28851951D01*
X241546529Y-28888713D01*
X241620232Y-28929973D01*
X241697551Y-28974558D01*
X241776270Y-29021297D01*
X241846458Y-29063991D01*
X241940419Y-29121959D01*
X242048840Y-29189539D01*
X242170405Y-29265879D01*
X242303798Y-29350130D01*
X242447702Y-29441441D01*
X242600802Y-29538962D01*
X242761780Y-29641844D01*
X242929322Y-29749235D01*
X243102109Y-29860285D01*
X243278826Y-29974145D01*
X243458157Y-30089964D01*
X243638786Y-30206892D01*
X243819396Y-30324078D01*
X243998670Y-30440673D01*
X244175293Y-30555825D01*
X244347948Y-30668686D01*
X244515319Y-30778404D01*
X244676089Y-30884130D01*
X244828943Y-30985012D01*
X244972564Y-31080202D01*
X245105635Y-31168849D01*
X245226840Y-31250101D01*
X245456025Y-31404852D01*
X245887126Y-31699025D01*
X246301618Y-31986131D01*
X246700734Y-32267089D01*
X247085702Y-32542820D01*
X247457756Y-32814243D01*
X247818126Y-33082279D01*
X248168043Y-33347848D01*
X248508738Y-33611869D01*
X248841442Y-33875264D01*
X249167387Y-34138951D01*
X249487802Y-34403851D01*
X249803920Y-34670885D01*
X249817247Y-34682259D01*
X249984389Y-34824165D01*
X250138265Y-34953277D01*
X250280283Y-35070662D01*
X250411848Y-35177391D01*
X250534366Y-35274532D01*
X250649244Y-35363157D01*
X250757887Y-35444333D01*
X250861702Y-35519130D01*
X250962095Y-35588619D01*
X251060471Y-35653868D01*
X251158238Y-35715946D01*
X251256800Y-35775924D01*
X251294180Y-35797763D01*
X251361930Y-35835720D01*
X251435912Y-35875577D01*
X251512160Y-35915312D01*
X251586709Y-35952905D01*
X251655594Y-35986334D01*
X251714849Y-36013580D01*
X251760510Y-36032621D01*
X251816649Y-36050335D01*
X251874765Y-36062042D01*
X251928522Y-36066725D01*
X251973180Y-36063981D01*
X252004001Y-36053405D01*
X252020749Y-36039864D01*
X252041748Y-36009580D01*
X252053801Y-35968555D01*
X252056944Y-35915271D01*
X252051214Y-35848209D01*
X252036647Y-35765852D01*
X252013280Y-35666680D01*
X252012906Y-35665225D01*
X251986605Y-35567478D01*
X251957468Y-35468342D01*
X251924794Y-35365956D01*
X251887885Y-35258456D01*
X251846041Y-35143980D01*
X251798563Y-35020665D01*
X251744751Y-34886648D01*
X251683906Y-34740066D01*
X251615328Y-34579058D01*
X251538318Y-34401760D01*
X251483041Y-34275200D01*
X251430666Y-34154515D01*
X251384421Y-34046976D01*
X251343137Y-33949806D01*
X251305641Y-33860228D01*
X251270763Y-33775466D01*
X251237333Y-33692742D01*
X251204180Y-33609280D01*
X251150120Y-33472120D01*
X251012960Y-33393614D01*
X250950332Y-33358710D01*
X250865351Y-33313241D01*
X250769374Y-33263434D01*
X250666448Y-33211311D01*
X250560621Y-33158897D01*
X250455939Y-33108216D01*
X250356450Y-33061292D01*
X250266200Y-33020149D01*
X250237570Y-33007294D01*
X250153325Y-32968386D01*
X250076393Y-32931250D01*
X250009073Y-32897075D01*
X249953659Y-32867052D01*
X249912450Y-32842367D01*
X249887740Y-32824212D01*
X249872001Y-32804065D01*
X249864880Y-32782808D01*
X249873186Y-32755955D01*
X249893846Y-32734243D01*
X249919795Y-32725385D01*
X249929123Y-32725968D01*
X249964413Y-32732288D01*
X250012912Y-32744571D01*
X250070590Y-32761585D01*
X250133415Y-32782101D01*
X250197355Y-32804889D01*
X250258381Y-32828718D01*
X250297301Y-32845454D01*
X250354573Y-32871378D01*
X250423442Y-32903464D01*
X250500570Y-32940083D01*
X250582617Y-32979605D01*
X250666244Y-33020400D01*
X250748113Y-33060838D01*
X250824884Y-33099289D01*
X250893217Y-33134125D01*
X250949775Y-33163714D01*
X250991218Y-33186426D01*
X251008928Y-33196353D01*
X251035386Y-33209568D01*
X251047899Y-33212397D01*
X251048446Y-33205500D01*
X251044759Y-33196514D01*
X251023075Y-33141234D01*
X250999922Y-33078687D01*
X250976243Y-33011798D01*
X250952981Y-32943493D01*
X250931082Y-32876700D01*
X250911487Y-32814343D01*
X250895142Y-32759349D01*
X250882989Y-32714645D01*
X250875973Y-32683156D01*
X250875036Y-32667808D01*
X250879769Y-32661943D01*
X250895736Y-32660578D01*
X250904806Y-32661855D01*
X250911360Y-32651334D01*
X250911389Y-32650096D01*
X250919694Y-32634102D01*
X250937438Y-32630179D01*
X250956853Y-32640223D01*
X250960481Y-32643951D01*
X250970221Y-32655647D01*
X250979640Y-32670844D01*
X250990155Y-32692673D01*
X251003186Y-32724265D01*
X251020150Y-32768754D01*
X251042466Y-32829270D01*
X251055897Y-32865564D01*
X251080385Y-32930553D01*
X251108252Y-33003465D01*
X251137003Y-33077785D01*
X251164144Y-33147000D01*
X251236466Y-33329880D01*
X251335533Y-33392106D01*
X251368663Y-33412921D01*
X251478589Y-33482078D01*
X251573024Y-33541694D01*
X251653355Y-33592701D01*
X251720970Y-33636027D01*
X251777256Y-33672602D01*
X251823599Y-33703355D01*
X251861386Y-33729216D01*
X251892006Y-33751114D01*
X251916844Y-33769980D01*
X251937287Y-33786743D01*
X251954724Y-33802331D01*
X251970540Y-33817676D01*
X251987531Y-33840305D01*
X251997288Y-33875294D01*
X251990455Y-33908435D01*
X251968388Y-33935009D01*
X251932440Y-33950299D01*
X251928359Y-33950974D01*
X251911060Y-33950679D01*
X251891512Y-33943501D01*
X251865324Y-33927326D01*
X251828104Y-33900037D01*
X251817348Y-33892059D01*
X251776601Y-33863586D01*
X251725615Y-33829747D01*
X251669845Y-33794113D01*
X251614744Y-33760258D01*
X251594210Y-33747910D01*
X251539316Y-33714678D01*
X251486346Y-33682329D01*
X251440480Y-33654035D01*
X251406894Y-33632967D01*
X251338548Y-33589392D01*
X251358968Y-33641200D01*
X251366752Y-33660857D01*
X251388490Y-33714842D01*
X251412400Y-33772834D01*
X251439372Y-33836903D01*
X251470297Y-33909121D01*
X251506064Y-33991557D01*
X251547565Y-34086282D01*
X251595690Y-34195365D01*
X251651330Y-34320879D01*
X251699240Y-34429046D01*
X251758262Y-34563332D01*
X251810218Y-34682970D01*
X251856011Y-34790128D01*
X251896547Y-34886976D01*
X251932730Y-34975683D01*
X251965466Y-35058417D01*
X251995660Y-35137349D01*
X252024216Y-35214646D01*
X252074586Y-35358356D01*
X252123253Y-35511028D01*
X252160792Y-35646913D01*
X252187222Y-35766115D01*
X252202562Y-35868737D01*
X252206832Y-35954882D01*
X252200050Y-36024655D01*
X252182235Y-36078160D01*
X252164221Y-36109298D01*
X252118278Y-36163305D01*
X252061663Y-36200298D01*
X251993400Y-36221013D01*
X251977425Y-36223673D01*
X251943615Y-36227891D01*
X251913757Y-36228167D01*
X251879946Y-36224247D01*
X251834274Y-36215875D01*
X251823435Y-36213612D01*
X251747562Y-36192332D01*
X251657978Y-36159178D01*
X251556407Y-36115019D01*
X251444572Y-36060724D01*
X251324198Y-35997162D01*
X251197009Y-35925202D01*
X251064729Y-35845714D01*
X250929081Y-35759566D01*
X250899072Y-35739916D01*
X250838951Y-35699987D01*
X250780011Y-35659955D01*
X250721143Y-35618944D01*
X250661241Y-35576082D01*
X250599196Y-35530494D01*
X250533900Y-35481305D01*
X250464247Y-35427642D01*
X250389128Y-35368630D01*
X250307435Y-35303395D01*
X250218061Y-35231064D01*
X250119899Y-35150762D01*
X250011839Y-35061615D01*
X249892775Y-34962749D01*
X249761600Y-34853289D01*
X249617204Y-34732362D01*
X249458480Y-34599093D01*
X249407900Y-34556689D01*
X249105500Y-34307346D01*
X248788236Y-34052696D01*
X248455728Y-33792464D01*
X248107599Y-33526370D01*
X247743471Y-33254138D01*
X247362966Y-32975491D01*
X246965707Y-32690152D01*
X246551314Y-32397842D01*
X246119410Y-32098285D01*
X245669617Y-31791204D01*
X245201558Y-31476321D01*
X245086662Y-31399625D01*
X244942913Y-31303866D01*
X244803542Y-31211274D01*
X244666893Y-31120769D01*
X244531310Y-31031267D01*
X244395137Y-30941689D01*
X244256717Y-30850951D01*
X244114394Y-30757973D01*
X243966511Y-30661673D01*
X243811413Y-30560969D01*
X243647444Y-30454779D01*
X243472946Y-30342023D01*
X243286263Y-30221618D01*
X243085740Y-30092483D01*
X242869720Y-29953536D01*
X242863285Y-29949399D01*
X242694584Y-29840910D01*
X242541902Y-29742646D01*
X242404182Y-29653904D01*
X242280365Y-29573984D01*
X242169393Y-29502182D01*
X242070207Y-29437798D01*
X241981750Y-29380129D01*
X241902963Y-29328475D01*
X241832788Y-29282132D01*
X241770166Y-29240400D01*
X241714040Y-29202576D01*
X241663352Y-29167960D01*
X241617042Y-29135848D01*
X241574053Y-29105540D01*
X241533326Y-29076334D01*
X241493804Y-29047528D01*
X241454428Y-29018419D01*
X241414139Y-28988308D01*
X241398669Y-28976642D01*
X241337517Y-28929140D01*
X241292652Y-28891660D01*
X241264378Y-28864469D01*
X241252999Y-28847831D01*
X241251464Y-28834008D01*
X241259682Y-28804618D01*
X241279896Y-28782103D01*
X241307271Y-28773120D01*
X241309763Y-28773324D01*
G37*
X241309763Y-28773324D02*
X241332166Y-28780373D01*
X241369258Y-28796609D01*
X241418826Y-28820859D01*
X241478655Y-28851951D01*
X241546529Y-28888713D01*
X241620232Y-28929973D01*
X241697551Y-28974558D01*
X241776270Y-29021297D01*
X241846458Y-29063991D01*
X241940419Y-29121959D01*
X242048840Y-29189539D01*
X242170405Y-29265879D01*
X242303798Y-29350130D01*
X242447702Y-29441441D01*
X242600802Y-29538962D01*
X242761780Y-29641844D01*
X242929322Y-29749235D01*
X243102109Y-29860285D01*
X243278826Y-29974145D01*
X243458157Y-30089964D01*
X243638786Y-30206892D01*
X243819396Y-30324078D01*
X243998670Y-30440673D01*
X244175293Y-30555825D01*
X244347948Y-30668686D01*
X244515319Y-30778404D01*
X244676089Y-30884130D01*
X244828943Y-30985012D01*
X244972564Y-31080202D01*
X245105635Y-31168849D01*
X245226840Y-31250101D01*
X245456025Y-31404852D01*
X245887126Y-31699025D01*
X246301618Y-31986131D01*
X246700734Y-32267089D01*
X247085702Y-32542820D01*
X247457756Y-32814243D01*
X247818126Y-33082279D01*
X248168043Y-33347848D01*
X248508738Y-33611869D01*
X248841442Y-33875264D01*
X249167387Y-34138951D01*
X249487802Y-34403851D01*
X249803920Y-34670885D01*
X249817247Y-34682259D01*
X249984389Y-34824165D01*
X250138265Y-34953277D01*
X250280283Y-35070662D01*
X250411848Y-35177391D01*
X250534366Y-35274532D01*
X250649244Y-35363157D01*
X250757887Y-35444333D01*
X250861702Y-35519130D01*
X250962095Y-35588619D01*
X251060471Y-35653868D01*
X251158238Y-35715946D01*
X251256800Y-35775924D01*
X251294180Y-35797763D01*
X251361930Y-35835720D01*
X251435912Y-35875577D01*
X251512160Y-35915312D01*
X251586709Y-35952905D01*
X251655594Y-35986334D01*
X251714849Y-36013580D01*
X251760510Y-36032621D01*
X251816649Y-36050335D01*
X251874765Y-36062042D01*
X251928522Y-36066725D01*
X251973180Y-36063981D01*
X252004001Y-36053405D01*
X252020749Y-36039864D01*
X252041748Y-36009580D01*
X252053801Y-35968555D01*
X252056944Y-35915271D01*
X252051214Y-35848209D01*
X252036647Y-35765852D01*
X252013280Y-35666680D01*
X252012906Y-35665225D01*
X251986605Y-35567478D01*
X251957468Y-35468342D01*
X251924794Y-35365956D01*
X251887885Y-35258456D01*
X251846041Y-35143980D01*
X251798563Y-35020665D01*
X251744751Y-34886648D01*
X251683906Y-34740066D01*
X251615328Y-34579058D01*
X251538318Y-34401760D01*
X251483041Y-34275200D01*
X251430666Y-34154515D01*
X251384421Y-34046976D01*
X251343137Y-33949806D01*
X251305641Y-33860228D01*
X251270763Y-33775466D01*
X251237333Y-33692742D01*
X251204180Y-33609280D01*
X251150120Y-33472120D01*
X251012960Y-33393614D01*
X250950332Y-33358710D01*
X250865351Y-33313241D01*
X250769374Y-33263434D01*
X250666448Y-33211311D01*
X250560621Y-33158897D01*
X250455939Y-33108216D01*
X250356450Y-33061292D01*
X250266200Y-33020149D01*
X250237570Y-33007294D01*
X250153325Y-32968386D01*
X250076393Y-32931250D01*
X250009073Y-32897075D01*
X249953659Y-32867052D01*
X249912450Y-32842367D01*
X249887740Y-32824212D01*
X249872001Y-32804065D01*
X249864880Y-32782808D01*
X249873186Y-32755955D01*
X249893846Y-32734243D01*
X249919795Y-32725385D01*
X249929123Y-32725968D01*
X249964413Y-32732288D01*
X250012912Y-32744571D01*
X250070590Y-32761585D01*
X250133415Y-32782101D01*
X250197355Y-32804889D01*
X250258381Y-32828718D01*
X250297301Y-32845454D01*
X250354573Y-32871378D01*
X250423442Y-32903464D01*
X250500570Y-32940083D01*
X250582617Y-32979605D01*
X250666244Y-33020400D01*
X250748113Y-33060838D01*
X250824884Y-33099289D01*
X250893217Y-33134125D01*
X250949775Y-33163714D01*
X250991218Y-33186426D01*
X251008928Y-33196353D01*
X251035386Y-33209568D01*
X251047899Y-33212397D01*
X251048446Y-33205500D01*
X251044759Y-33196514D01*
X251023075Y-33141234D01*
X250999922Y-33078687D01*
X250976243Y-33011798D01*
X250952981Y-32943493D01*
X250931082Y-32876700D01*
X250911487Y-32814343D01*
X250895142Y-32759349D01*
X250882989Y-32714645D01*
X250875973Y-32683156D01*
X250875036Y-32667808D01*
X250879769Y-32661943D01*
X250895736Y-32660578D01*
X250904806Y-32661855D01*
X250911360Y-32651334D01*
X250911389Y-32650096D01*
X250919694Y-32634102D01*
X250937438Y-32630179D01*
X250956853Y-32640223D01*
X250960481Y-32643951D01*
X250970221Y-32655647D01*
X250979640Y-32670844D01*
X250990155Y-32692673D01*
X251003186Y-32724265D01*
X251020150Y-32768754D01*
X251042466Y-32829270D01*
X251055897Y-32865564D01*
X251080385Y-32930553D01*
X251108252Y-33003465D01*
X251137003Y-33077785D01*
X251164144Y-33147000D01*
X251236466Y-33329880D01*
X251335533Y-33392106D01*
X251368663Y-33412921D01*
X251478589Y-33482078D01*
X251573024Y-33541694D01*
X251653355Y-33592701D01*
X251720970Y-33636027D01*
X251777256Y-33672602D01*
X251823599Y-33703355D01*
X251861386Y-33729216D01*
X251892006Y-33751114D01*
X251916844Y-33769980D01*
X251937287Y-33786743D01*
X251954724Y-33802331D01*
X251970540Y-33817676D01*
X251987531Y-33840305D01*
X251997288Y-33875294D01*
X251990455Y-33908435D01*
X251968388Y-33935009D01*
X251932440Y-33950299D01*
X251928359Y-33950974D01*
X251911060Y-33950679D01*
X251891512Y-33943501D01*
X251865324Y-33927326D01*
X251828104Y-33900037D01*
X251817348Y-33892059D01*
X251776601Y-33863586D01*
X251725615Y-33829747D01*
X251669845Y-33794113D01*
X251614744Y-33760258D01*
X251594210Y-33747910D01*
X251539316Y-33714678D01*
X251486346Y-33682329D01*
X251440480Y-33654035D01*
X251406894Y-33632967D01*
X251338548Y-33589392D01*
X251358968Y-33641200D01*
X251366752Y-33660857D01*
X251388490Y-33714842D01*
X251412400Y-33772834D01*
X251439372Y-33836903D01*
X251470297Y-33909121D01*
X251506064Y-33991557D01*
X251547565Y-34086282D01*
X251595690Y-34195365D01*
X251651330Y-34320879D01*
X251699240Y-34429046D01*
X251758262Y-34563332D01*
X251810218Y-34682970D01*
X251856011Y-34790128D01*
X251896547Y-34886976D01*
X251932730Y-34975683D01*
X251965466Y-35058417D01*
X251995660Y-35137349D01*
X252024216Y-35214646D01*
X252074586Y-35358356D01*
X252123253Y-35511028D01*
X252160792Y-35646913D01*
X252187222Y-35766115D01*
X252202562Y-35868737D01*
X252206832Y-35954882D01*
X252200050Y-36024655D01*
X252182235Y-36078160D01*
X252164221Y-36109298D01*
X252118278Y-36163305D01*
X252061663Y-36200298D01*
X251993400Y-36221013D01*
X251977425Y-36223673D01*
X251943615Y-36227891D01*
X251913757Y-36228167D01*
X251879946Y-36224247D01*
X251834274Y-36215875D01*
X251823435Y-36213612D01*
X251747562Y-36192332D01*
X251657978Y-36159178D01*
X251556407Y-36115019D01*
X251444572Y-36060724D01*
X251324198Y-35997162D01*
X251197009Y-35925202D01*
X251064729Y-35845714D01*
X250929081Y-35759566D01*
X250899072Y-35739916D01*
X250838951Y-35699987D01*
X250780011Y-35659955D01*
X250721143Y-35618944D01*
X250661241Y-35576082D01*
X250599196Y-35530494D01*
X250533900Y-35481305D01*
X250464247Y-35427642D01*
X250389128Y-35368630D01*
X250307435Y-35303395D01*
X250218061Y-35231064D01*
X250119899Y-35150762D01*
X250011839Y-35061615D01*
X249892775Y-34962749D01*
X249761600Y-34853289D01*
X249617204Y-34732362D01*
X249458480Y-34599093D01*
X249407900Y-34556689D01*
X249105500Y-34307346D01*
X248788236Y-34052696D01*
X248455728Y-33792464D01*
X248107599Y-33526370D01*
X247743471Y-33254138D01*
X247362966Y-32975491D01*
X246965707Y-32690152D01*
X246551314Y-32397842D01*
X246119410Y-32098285D01*
X245669617Y-31791204D01*
X245201558Y-31476321D01*
X245086662Y-31399625D01*
X244942913Y-31303866D01*
X244803542Y-31211274D01*
X244666893Y-31120769D01*
X244531310Y-31031267D01*
X244395137Y-30941689D01*
X244256717Y-30850951D01*
X244114394Y-30757973D01*
X243966511Y-30661673D01*
X243811413Y-30560969D01*
X243647444Y-30454779D01*
X243472946Y-30342023D01*
X243286263Y-30221618D01*
X243085740Y-30092483D01*
X242869720Y-29953536D01*
X242863285Y-29949399D01*
X242694584Y-29840910D01*
X242541902Y-29742646D01*
X242404182Y-29653904D01*
X242280365Y-29573984D01*
X242169393Y-29502182D01*
X242070207Y-29437798D01*
X241981750Y-29380129D01*
X241902963Y-29328475D01*
X241832788Y-29282132D01*
X241770166Y-29240400D01*
X241714040Y-29202576D01*
X241663352Y-29167960D01*
X241617042Y-29135848D01*
X241574053Y-29105540D01*
X241533326Y-29076334D01*
X241493804Y-29047528D01*
X241454428Y-29018419D01*
X241414139Y-28988308D01*
X241398669Y-28976642D01*
X241337517Y-28929140D01*
X241292652Y-28891660D01*
X241264378Y-28864469D01*
X241252999Y-28847831D01*
X241251464Y-28834008D01*
X241259682Y-28804618D01*
X241279896Y-28782103D01*
X241307271Y-28773120D01*
X241309763Y-28773324D01*
X247863477Y-34059046D02*
X247847934Y-34065576D01*
X247847934Y-34065576D02*
X247845724Y-34066804D01*
X247845724Y-34066804D02*
X247818674Y-34091585D01*
X247818674Y-34091585D02*
X247807874Y-34122615D01*
X247807874Y-34122615D02*
X247812755Y-34154745D01*
X247812755Y-34154745D02*
X247832744Y-34182824D01*
X247832744Y-34182824D02*
X247860435Y-34199378D01*
X247860435Y-34199378D02*
X247928748Y-34228778D01*
X247928748Y-34228778D02*
X248011686Y-34270411D01*
X248011686Y-34270411D02*
X248108179Y-34323606D01*
X248108179Y-34323606D02*
X248217157Y-34387689D01*
X248217157Y-34387689D02*
X248337550Y-34461986D01*
X248337550Y-34461986D02*
X248468290Y-34545825D01*
X248468290Y-34545825D02*
X248608306Y-34638531D01*
X248608306Y-34638531D02*
X248756530Y-34739432D01*
X248756530Y-34739432D02*
X248911891Y-34847854D01*
X248911891Y-34847854D02*
X249072400Y-34962459D01*
X249072400Y-34962459D02*
X249147380Y-35016411D01*
X249147380Y-35016411D02*
X249227124Y-35073494D01*
X249227124Y-35073494D02*
X249307397Y-35130698D01*
X249307397Y-35130698D02*
X249383962Y-35185009D01*
X249383962Y-35185009D02*
X249452583Y-35233416D01*
X249452583Y-35233416D02*
X249509024Y-35272906D01*
X249509024Y-35272906D02*
X249509280Y-35273084D01*
X249509280Y-35273084D02*
X249619824Y-35351154D01*
X249619824Y-35351154D02*
X249713737Y-35420201D01*
X249713737Y-35420201D02*
X249792107Y-35481150D01*
X249792107Y-35481150D02*
X249856021Y-35534928D01*
X249856021Y-35534928D02*
X249906568Y-35582462D01*
X249906568Y-35582462D02*
X249944833Y-35624677D01*
X249944833Y-35624677D02*
X249971905Y-35662501D01*
X249971905Y-35662501D02*
X249977261Y-35671760D01*
X249977261Y-35671760D02*
X250001088Y-35705149D01*
X250001088Y-35705149D02*
X250025210Y-35720422D01*
X250025210Y-35720422D02*
X250048009Y-35716775D01*
X250048009Y-35716775D02*
X250055499Y-35710757D01*
X250055499Y-35710757D02*
X250066838Y-35688873D01*
X250066838Y-35688873D02*
X250064128Y-35659144D01*
X250064128Y-35659144D02*
X250046909Y-35620818D01*
X250046909Y-35620818D02*
X250014722Y-35573144D01*
X250014722Y-35573144D02*
X249967108Y-35515372D01*
X249967108Y-35515372D02*
X249903609Y-35446750D01*
X249903609Y-35446750D02*
X249878182Y-35420675D01*
X249878182Y-35420675D02*
X249843685Y-35386246D01*
X249843685Y-35386246D02*
X249809709Y-35353727D01*
X249809709Y-35353727D02*
X249774235Y-35321469D01*
X249774235Y-35321469D02*
X249735244Y-35287820D01*
X249735244Y-35287820D02*
X249690717Y-35251130D01*
X249690717Y-35251130D02*
X249638634Y-35209749D01*
X249638634Y-35209749D02*
X249576977Y-35162026D01*
X249576977Y-35162026D02*
X249503726Y-35106312D01*
X249503726Y-35106312D02*
X249416862Y-35040955D01*
X249416862Y-35040955D02*
X249378084Y-35011916D01*
X249378084Y-35011916D02*
X249255975Y-34920704D01*
X249255975Y-34920704D02*
X249148185Y-34840511D01*
X249148185Y-34840511D02*
X249052889Y-34770019D01*
X249052889Y-34770019D02*
X248968262Y-34707907D01*
X248968262Y-34707907D02*
X248892478Y-34652857D01*
X248892478Y-34652857D02*
X248823712Y-34603548D01*
X248823712Y-34603548D02*
X248760138Y-34558662D01*
X248760138Y-34558662D02*
X248699933Y-34516878D01*
X248699933Y-34516878D02*
X248641269Y-34476877D01*
X248641269Y-34476877D02*
X248594880Y-34445713D01*
X248594880Y-34445713D02*
X248463457Y-34359148D01*
X248463457Y-34359148D02*
X248346666Y-34284824D01*
X248346666Y-34284824D02*
X248243412Y-34222115D01*
X248243412Y-34222115D02*
X248152598Y-34170399D01*
X248152598Y-34170399D02*
X248073128Y-34129052D01*
X248073128Y-34129052D02*
X248003906Y-34097449D01*
X248003906Y-34097449D02*
X247943835Y-34074968D01*
X247943835Y-34074968D02*
X247942531Y-34074546D01*
X247942531Y-34074546D02*
X247904908Y-34063062D01*
X247904908Y-34063062D02*
X247880512Y-34058052D01*
X247880512Y-34058052D02*
X247863477Y-34059046D01*
X247863477Y-34059046D02*
X247863477Y-34059046D01*
G36*
X247904908Y-34063062D02*
G01*
X247942531Y-34074546D01*
X247943835Y-34074968D01*
X248003906Y-34097449D01*
X248073128Y-34129052D01*
X248152598Y-34170399D01*
X248243412Y-34222115D01*
X248346666Y-34284824D01*
X248463457Y-34359148D01*
X248594880Y-34445713D01*
X248641269Y-34476877D01*
X248699933Y-34516878D01*
X248760138Y-34558662D01*
X248823712Y-34603548D01*
X248892478Y-34652857D01*
X248968262Y-34707907D01*
X249052889Y-34770019D01*
X249148185Y-34840511D01*
X249255975Y-34920704D01*
X249378084Y-35011916D01*
X249416862Y-35040955D01*
X249503726Y-35106312D01*
X249576977Y-35162026D01*
X249638634Y-35209749D01*
X249690717Y-35251130D01*
X249735244Y-35287820D01*
X249774235Y-35321469D01*
X249809709Y-35353727D01*
X249843685Y-35386246D01*
X249878182Y-35420675D01*
X249903609Y-35446750D01*
X249967108Y-35515372D01*
X250014722Y-35573144D01*
X250046909Y-35620818D01*
X250064128Y-35659144D01*
X250066838Y-35688873D01*
X250055499Y-35710757D01*
X250048009Y-35716775D01*
X250025210Y-35720422D01*
X250001088Y-35705149D01*
X249977261Y-35671760D01*
X249971905Y-35662501D01*
X249944833Y-35624677D01*
X249906568Y-35582462D01*
X249856021Y-35534928D01*
X249792107Y-35481150D01*
X249713737Y-35420201D01*
X249619824Y-35351154D01*
X249509280Y-35273084D01*
X249509024Y-35272906D01*
X249452583Y-35233416D01*
X249383962Y-35185009D01*
X249307397Y-35130698D01*
X249227124Y-35073494D01*
X249147380Y-35016411D01*
X249072400Y-34962459D01*
X248911891Y-34847854D01*
X248756530Y-34739432D01*
X248608306Y-34638531D01*
X248468290Y-34545825D01*
X248337550Y-34461986D01*
X248217157Y-34387689D01*
X248108179Y-34323606D01*
X248011686Y-34270411D01*
X247928748Y-34228778D01*
X247860435Y-34199378D01*
X247832744Y-34182824D01*
X247812755Y-34154745D01*
X247807874Y-34122615D01*
X247818674Y-34091585D01*
X247845724Y-34066804D01*
X247847934Y-34065576D01*
X247863477Y-34059046D01*
X247880512Y-34058052D01*
X247904908Y-34063062D01*
G37*
X247904908Y-34063062D02*
X247942531Y-34074546D01*
X247943835Y-34074968D01*
X248003906Y-34097449D01*
X248073128Y-34129052D01*
X248152598Y-34170399D01*
X248243412Y-34222115D01*
X248346666Y-34284824D01*
X248463457Y-34359148D01*
X248594880Y-34445713D01*
X248641269Y-34476877D01*
X248699933Y-34516878D01*
X248760138Y-34558662D01*
X248823712Y-34603548D01*
X248892478Y-34652857D01*
X248968262Y-34707907D01*
X249052889Y-34770019D01*
X249148185Y-34840511D01*
X249255975Y-34920704D01*
X249378084Y-35011916D01*
X249416862Y-35040955D01*
X249503726Y-35106312D01*
X249576977Y-35162026D01*
X249638634Y-35209749D01*
X249690717Y-35251130D01*
X249735244Y-35287820D01*
X249774235Y-35321469D01*
X249809709Y-35353727D01*
X249843685Y-35386246D01*
X249878182Y-35420675D01*
X249903609Y-35446750D01*
X249967108Y-35515372D01*
X250014722Y-35573144D01*
X250046909Y-35620818D01*
X250064128Y-35659144D01*
X250066838Y-35688873D01*
X250055499Y-35710757D01*
X250048009Y-35716775D01*
X250025210Y-35720422D01*
X250001088Y-35705149D01*
X249977261Y-35671760D01*
X249971905Y-35662501D01*
X249944833Y-35624677D01*
X249906568Y-35582462D01*
X249856021Y-35534928D01*
X249792107Y-35481150D01*
X249713737Y-35420201D01*
X249619824Y-35351154D01*
X249509280Y-35273084D01*
X249509024Y-35272906D01*
X249452583Y-35233416D01*
X249383962Y-35185009D01*
X249307397Y-35130698D01*
X249227124Y-35073494D01*
X249147380Y-35016411D01*
X249072400Y-34962459D01*
X248911891Y-34847854D01*
X248756530Y-34739432D01*
X248608306Y-34638531D01*
X248468290Y-34545825D01*
X248337550Y-34461986D01*
X248217157Y-34387689D01*
X248108179Y-34323606D01*
X248011686Y-34270411D01*
X247928748Y-34228778D01*
X247860435Y-34199378D01*
X247832744Y-34182824D01*
X247812755Y-34154745D01*
X247807874Y-34122615D01*
X247818674Y-34091585D01*
X247845724Y-34066804D01*
X247847934Y-34065576D01*
X247863477Y-34059046D01*
X247880512Y-34058052D01*
X247904908Y-34063062D01*
X245492808Y-30768326D02*
X245467935Y-30794822D01*
X245467935Y-30794822D02*
X245455960Y-30833325D01*
X245455960Y-30833325D02*
X245455440Y-30844352D01*
X245455440Y-30844352D02*
X245455957Y-30857796D01*
X245455957Y-30857796D02*
X245458740Y-30870116D01*
X245458740Y-30870116D02*
X245465643Y-30883405D01*
X245465643Y-30883405D02*
X245478519Y-30899755D01*
X245478519Y-30899755D02*
X245499220Y-30921259D01*
X245499220Y-30921259D02*
X245529599Y-30950008D01*
X245529599Y-30950008D02*
X245571509Y-30988097D01*
X245571509Y-30988097D02*
X245625620Y-31036561D01*
X245625620Y-31036561D02*
X245688597Y-31093313D01*
X245688597Y-31093313D02*
X245758992Y-31157552D01*
X245758992Y-31157552D02*
X245830986Y-31223917D01*
X245830986Y-31223917D02*
X245898760Y-31287046D01*
X245898760Y-31287046D02*
X245951238Y-31336569D01*
X245951238Y-31336569D02*
X246030029Y-31410094D01*
X246030029Y-31410094D02*
X246097451Y-31469138D01*
X246097451Y-31469138D02*
X246155497Y-31514529D01*
X246155497Y-31514529D02*
X246206162Y-31547094D01*
X246206162Y-31547094D02*
X246251439Y-31567660D01*
X246251439Y-31567660D02*
X246293321Y-31577056D01*
X246293321Y-31577056D02*
X246333803Y-31576108D01*
X246333803Y-31576108D02*
X246374877Y-31565644D01*
X246374877Y-31565644D02*
X246418538Y-31546491D01*
X246418538Y-31546491D02*
X246435429Y-31537543D01*
X246435429Y-31537543D02*
X246507831Y-31497807D01*
X246507831Y-31497807D02*
X246605056Y-31524989D01*
X246605056Y-31524989D02*
X246702282Y-31552170D01*
X246702282Y-31552170D02*
X246797310Y-31668535D01*
X246797310Y-31668535D02*
X246866377Y-31750253D01*
X246866377Y-31750253D02*
X246939895Y-31832100D01*
X246939895Y-31832100D02*
X247015791Y-31912126D01*
X247015791Y-31912126D02*
X247091993Y-31988381D01*
X247091993Y-31988381D02*
X247166427Y-32058911D01*
X247166427Y-32058911D02*
X247237021Y-32121768D01*
X247237021Y-32121768D02*
X247301701Y-32174999D01*
X247301701Y-32174999D02*
X247358395Y-32216653D01*
X247358395Y-32216653D02*
X247405029Y-32244779D01*
X247405029Y-32244779D02*
X247414188Y-32249162D01*
X247414188Y-32249162D02*
X247451463Y-32264069D01*
X247451463Y-32264069D02*
X247485478Y-32274580D01*
X247485478Y-32274580D02*
X247507789Y-32278320D01*
X247507789Y-32278320D02*
X247522922Y-32280353D01*
X247522922Y-32280353D02*
X247536113Y-32288782D01*
X247536113Y-32288782D02*
X247550568Y-32307095D01*
X247550568Y-32307095D02*
X247569491Y-32338783D01*
X247569491Y-32338783D02*
X247578919Y-32355785D01*
X247578919Y-32355785D02*
X247604555Y-32398673D01*
X247604555Y-32398673D02*
X247633321Y-32440987D01*
X247633321Y-32440987D02*
X247659607Y-32474556D01*
X247659607Y-32474556D02*
X247663205Y-32478566D01*
X247663205Y-32478566D02*
X247694953Y-32509861D01*
X247694953Y-32509861D02*
X247735016Y-32544966D01*
X247735016Y-32544966D02*
X247777465Y-32579079D01*
X247777465Y-32579079D02*
X247816373Y-32607396D01*
X247816373Y-32607396D02*
X247841169Y-32622758D01*
X247841169Y-32622758D02*
X247881935Y-32633968D01*
X247881935Y-32633968D02*
X247927290Y-32629904D01*
X247927290Y-32629904D02*
X247970703Y-32612304D01*
X247970703Y-32612304D02*
X248005648Y-32582904D01*
X248005648Y-32582904D02*
X248009451Y-32578003D01*
X248009451Y-32578003D02*
X248015197Y-32570175D01*
X248015197Y-32570175D02*
X248020272Y-32566391D01*
X248020272Y-32566391D02*
X248026425Y-32568855D01*
X248026425Y-32568855D02*
X248035406Y-32579772D01*
X248035406Y-32579772D02*
X248048963Y-32601346D01*
X248048963Y-32601346D02*
X248068847Y-32635780D01*
X248068847Y-32635780D02*
X248096807Y-32685280D01*
X248096807Y-32685280D02*
X248102223Y-32694880D01*
X248102223Y-32694880D02*
X248132299Y-32746449D01*
X248132299Y-32746449D02*
X248166004Y-32801400D01*
X248166004Y-32801400D02*
X248201235Y-32856597D01*
X248201235Y-32856597D02*
X248235889Y-32908907D01*
X248235889Y-32908907D02*
X248267863Y-32955194D01*
X248267863Y-32955194D02*
X248295054Y-32992325D01*
X248295054Y-32992325D02*
X248315358Y-33017165D01*
X248315358Y-33017165D02*
X248323911Y-33025267D01*
X248323911Y-33025267D02*
X248360131Y-33039585D01*
X248360131Y-33039585D02*
X248397628Y-33034578D01*
X248397628Y-33034578D02*
X248433025Y-33010698D01*
X248433025Y-33010698D02*
X248433102Y-33010621D01*
X248433102Y-33010621D02*
X248449620Y-32991831D01*
X248449620Y-32991831D02*
X248458889Y-32972806D01*
X248458889Y-32972806D02*
X248461619Y-32948423D01*
X248461619Y-32948423D02*
X248458522Y-32913558D01*
X248458522Y-32913558D02*
X248452125Y-32873512D01*
X248452125Y-32873512D02*
X248447438Y-32833296D01*
X248447438Y-32833296D02*
X248444647Y-32782473D01*
X248444647Y-32782473D02*
X248444234Y-32730706D01*
X248444234Y-32730706D02*
X248444505Y-32720280D01*
X248444505Y-32720280D02*
X248447560Y-32628840D01*
X248447560Y-32628840D02*
X248530232Y-32791526D01*
X248530232Y-32791526D02*
X248564820Y-32858743D01*
X248564820Y-32858743D02*
X248602685Y-32930875D01*
X248602685Y-32930875D02*
X248641984Y-33004542D01*
X248641984Y-33004542D02*
X248680877Y-33076364D01*
X248680877Y-33076364D02*
X248717522Y-33142962D01*
X248717522Y-33142962D02*
X248750078Y-33200956D01*
X248750078Y-33200956D02*
X248776703Y-33246967D01*
X248776703Y-33246967D02*
X248792602Y-33273046D01*
X248792602Y-33273046D02*
X248816368Y-33304958D01*
X248816368Y-33304958D02*
X248847674Y-33339643D01*
X248847674Y-33339643D02*
X248882625Y-33373597D01*
X248882625Y-33373597D02*
X248917324Y-33403318D01*
X248917324Y-33403318D02*
X248947875Y-33425300D01*
X248947875Y-33425300D02*
X248970381Y-33436041D01*
X248970381Y-33436041D02*
X248974435Y-33436560D01*
X248974435Y-33436560D02*
X249010136Y-33427222D01*
X249010136Y-33427222D02*
X249037977Y-33400754D01*
X249037977Y-33400754D02*
X249055985Y-33359473D01*
X249055985Y-33359473D02*
X249060523Y-33335357D01*
X249060523Y-33335357D02*
X249067320Y-33280241D01*
X249067320Y-33280241D02*
X249125067Y-33371100D01*
X249125067Y-33371100D02*
X249182236Y-33455508D01*
X249182236Y-33455508D02*
X249235417Y-33521755D01*
X249235417Y-33521755D02*
X249286246Y-33571207D01*
X249286246Y-33571207D02*
X249336358Y-33605230D01*
X249336358Y-33605230D02*
X249387387Y-33625190D01*
X249387387Y-33625190D02*
X249437739Y-33632353D01*
X249437739Y-33632353D02*
X249473954Y-33632718D01*
X249473954Y-33632718D02*
X249496316Y-33629362D01*
X249496316Y-33629362D02*
X249511186Y-33620616D01*
X249511186Y-33620616D02*
X249520302Y-33610694D01*
X249520302Y-33610694D02*
X249534135Y-33586788D01*
X249534135Y-33586788D02*
X249538382Y-33558513D01*
X249538382Y-33558513D02*
X249532543Y-33522775D01*
X249532543Y-33522775D02*
X249516119Y-33476477D01*
X249516119Y-33476477D02*
X249489149Y-33417622D01*
X249489149Y-33417622D02*
X249466616Y-33369772D01*
X249466616Y-33369772D02*
X249454164Y-33338879D01*
X249454164Y-33338879D02*
X249451590Y-33324373D01*
X249451590Y-33324373D02*
X249456129Y-33323964D01*
X249456129Y-33323964D02*
X249476079Y-33338287D01*
X249476079Y-33338287D02*
X249507081Y-33364341D01*
X249507081Y-33364341D02*
X249546067Y-33399238D01*
X249546067Y-33399238D02*
X249589971Y-33440094D01*
X249589971Y-33440094D02*
X249635729Y-33484023D01*
X249635729Y-33484023D02*
X249680273Y-33528139D01*
X249680273Y-33528139D02*
X249720538Y-33569556D01*
X249720538Y-33569556D02*
X249744691Y-33595568D01*
X249744691Y-33595568D02*
X249789858Y-33647312D01*
X249789858Y-33647312D02*
X249837840Y-33705371D01*
X249837840Y-33705371D02*
X249885190Y-33765303D01*
X249885190Y-33765303D02*
X249928459Y-33822665D01*
X249928459Y-33822665D02*
X249964199Y-33873016D01*
X249964199Y-33873016D02*
X249984963Y-33905115D01*
X249984963Y-33905115D02*
X249997176Y-33932653D01*
X249997176Y-33932653D02*
X250009698Y-33972721D01*
X250009698Y-33972721D02*
X250020227Y-34017697D01*
X250020227Y-34017697D02*
X250022182Y-34028266D01*
X250022182Y-34028266D02*
X250043034Y-34119637D01*
X250043034Y-34119637D02*
X250073688Y-34216930D01*
X250073688Y-34216930D02*
X250110864Y-34310517D01*
X250110864Y-34310517D02*
X250136600Y-34364090D01*
X250136600Y-34364090D02*
X250169507Y-34419087D01*
X250169507Y-34419087D02*
X250201067Y-34454467D01*
X250201067Y-34454467D02*
X250232385Y-34470784D01*
X250232385Y-34470784D02*
X250264566Y-34468595D01*
X250264566Y-34468595D02*
X250298715Y-34448453D01*
X250298715Y-34448453D02*
X250300981Y-34446576D01*
X250300981Y-34446576D02*
X250318232Y-34429113D01*
X250318232Y-34429113D02*
X250328323Y-34409346D01*
X250328323Y-34409346D02*
X250331486Y-34383428D01*
X250331486Y-34383428D02*
X250327956Y-34347508D01*
X250327956Y-34347508D02*
X250317966Y-34297740D01*
X250317966Y-34297740D02*
X250311647Y-34270729D01*
X250311647Y-34270729D02*
X250302864Y-34231894D01*
X250302864Y-34231894D02*
X250296942Y-34201324D01*
X250296942Y-34201324D02*
X250294762Y-34183781D01*
X250294762Y-34183781D02*
X250295138Y-34181475D01*
X250295138Y-34181475D02*
X250301563Y-34188434D01*
X250301563Y-34188434D02*
X250317388Y-34210107D01*
X250317388Y-34210107D02*
X250340992Y-34244139D01*
X250340992Y-34244139D02*
X250370752Y-34288174D01*
X250370752Y-34288174D02*
X250405048Y-34339855D01*
X250405048Y-34339855D02*
X250423125Y-34367423D01*
X250423125Y-34367423D02*
X250484097Y-34458446D01*
X250484097Y-34458446D02*
X250537942Y-34533527D01*
X250537942Y-34533527D02*
X250586543Y-34594940D01*
X250586543Y-34594940D02*
X250631783Y-34644958D01*
X250631783Y-34644958D02*
X250675543Y-34685853D01*
X250675543Y-34685853D02*
X250708140Y-34711624D01*
X250708140Y-34711624D02*
X250748720Y-34736422D01*
X250748720Y-34736422D02*
X250786975Y-34750905D01*
X250786975Y-34750905D02*
X250818534Y-34753921D01*
X250818534Y-34753921D02*
X250837700Y-34745772D01*
X250837700Y-34745772D02*
X250851065Y-34721066D01*
X250851065Y-34721066D02*
X250845462Y-34695708D01*
X250845462Y-34695708D02*
X250821905Y-34672759D01*
X250821905Y-34672759D02*
X250811607Y-34666862D01*
X250811607Y-34666862D02*
X250784272Y-34650508D01*
X250784272Y-34650508D02*
X250757380Y-34628769D01*
X250757380Y-34628769D02*
X250729437Y-34599691D01*
X250729437Y-34599691D02*
X250698949Y-34561323D01*
X250698949Y-34561323D02*
X250664423Y-34511709D01*
X250664423Y-34511709D02*
X250624365Y-34448898D01*
X250624365Y-34448898D02*
X250577280Y-34370935D01*
X250577280Y-34370935D02*
X250550576Y-34325560D01*
X250550576Y-34325560D02*
X250482552Y-34211054D01*
X250482552Y-34211054D02*
X250417583Y-34105278D01*
X250417583Y-34105278D02*
X250356522Y-34009467D01*
X250356522Y-34009467D02*
X250300224Y-33924855D01*
X250300224Y-33924855D02*
X250249542Y-33852677D01*
X250249542Y-33852677D02*
X250205331Y-33794167D01*
X250205331Y-33794167D02*
X250168445Y-33750560D01*
X250168445Y-33750560D02*
X250139737Y-33723090D01*
X250139737Y-33723090D02*
X250128783Y-33715826D01*
X250128783Y-33715826D02*
X250098268Y-33704615D01*
X250098268Y-33704615D02*
X250071125Y-33700256D01*
X250071125Y-33700256D02*
X250054066Y-33696834D01*
X250054066Y-33696834D02*
X250036616Y-33685053D01*
X250036616Y-33685053D02*
X250015120Y-33661753D01*
X250015120Y-33661753D02*
X249991880Y-33631800D01*
X249991880Y-33631800D02*
X249920704Y-33544405D01*
X249920704Y-33544405D02*
X249832473Y-33449555D01*
X249832473Y-33449555D02*
X249728509Y-33348469D01*
X249728509Y-33348469D02*
X249610132Y-33242365D01*
X249610132Y-33242365D02*
X249478664Y-33132464D01*
X249478664Y-33132464D02*
X249335427Y-33019983D01*
X249335427Y-33019983D02*
X249298253Y-32991843D01*
X249298253Y-32991843D02*
X249239798Y-32948309D01*
X249239798Y-32948309D02*
X249194819Y-32915919D01*
X249194819Y-32915919D02*
X249160889Y-32893167D01*
X249160889Y-32893167D02*
X249135579Y-32878548D01*
X249135579Y-32878548D02*
X249116461Y-32870558D01*
X249116461Y-32870558D02*
X249101109Y-32867692D01*
X249101109Y-32867692D02*
X249097799Y-32867600D01*
X249097799Y-32867600D02*
X249073911Y-32865051D01*
X249073911Y-32865051D02*
X249058073Y-32853922D01*
X249058073Y-32853922D02*
X249042954Y-32828984D01*
X249042954Y-32828984D02*
X249042560Y-32828213D01*
X249042560Y-32828213D02*
X249022175Y-32796477D01*
X249022175Y-32796477D02*
X248998720Y-32780546D01*
X248998720Y-32780546D02*
X248965908Y-32776160D01*
X248965908Y-32776160D02*
X248965721Y-32776160D01*
X248965721Y-32776160D02*
X248927671Y-32782180D01*
X248927671Y-32782180D02*
X248902096Y-32801133D01*
X248902096Y-32801133D02*
X248888283Y-32834354D01*
X248888283Y-32834354D02*
X248885520Y-32883177D01*
X248885520Y-32883177D02*
X248888854Y-32920386D01*
X248888854Y-32920386D02*
X248895642Y-32977308D01*
X248895642Y-32977308D02*
X248901212Y-33030910D01*
X248901212Y-33030910D02*
X248905282Y-33077650D01*
X248905282Y-33077650D02*
X248907572Y-33113992D01*
X248907572Y-33113992D02*
X248907802Y-33136394D01*
X248907802Y-33136394D02*
X248906432Y-33141920D01*
X248906432Y-33141920D02*
X248899387Y-33133349D01*
X248899387Y-33133349D02*
X248884663Y-33109562D01*
X248884663Y-33109562D02*
X248863812Y-33073441D01*
X248863812Y-33073441D02*
X248838386Y-33027872D01*
X248838386Y-33027872D02*
X248809939Y-32975738D01*
X248809939Y-32975738D02*
X248780023Y-32919925D01*
X248780023Y-32919925D02*
X248750189Y-32863317D01*
X248750189Y-32863317D02*
X248721991Y-32808798D01*
X248721991Y-32808798D02*
X248696981Y-32759253D01*
X248696981Y-32759253D02*
X248676712Y-32717566D01*
X248676712Y-32717566D02*
X248668564Y-32699960D01*
X248668564Y-32699960D02*
X248627259Y-32611423D01*
X248627259Y-32611423D02*
X248590906Y-32540759D01*
X248590906Y-32540759D02*
X248558287Y-32486483D01*
X248558287Y-32486483D02*
X248528187Y-32447105D01*
X248528187Y-32447105D02*
X248499390Y-32421137D01*
X248499390Y-32421137D02*
X248470678Y-32407094D01*
X248470678Y-32407094D02*
X248440836Y-32403486D01*
X248440836Y-32403486D02*
X248427240Y-32404790D01*
X248427240Y-32404790D02*
X248374234Y-32422484D01*
X248374234Y-32422484D02*
X248331176Y-32457357D01*
X248331176Y-32457357D02*
X248298983Y-32508387D01*
X248298983Y-32508387D02*
X248279521Y-32569804D01*
X248279521Y-32569804D02*
X248267781Y-32626355D01*
X248267781Y-32626355D02*
X248242228Y-32581877D01*
X248242228Y-32581877D02*
X248228746Y-32557734D01*
X248228746Y-32557734D02*
X248208022Y-32519799D01*
X248208022Y-32519799D02*
X248182315Y-32472240D01*
X248182315Y-32472240D02*
X248153882Y-32419228D01*
X248153882Y-32419228D02*
X248135634Y-32385000D01*
X248135634Y-32385000D02*
X248107433Y-32333165D01*
X248107433Y-32333165D02*
X248080964Y-32286707D01*
X248080964Y-32286707D02*
X248058270Y-32249046D01*
X248058270Y-32249046D02*
X248041390Y-32223599D01*
X248041390Y-32223599D02*
X248034051Y-32214820D01*
X248034051Y-32214820D02*
X248003929Y-32200414D01*
X248003929Y-32200414D02*
X247966736Y-32198039D01*
X247966736Y-32198039D02*
X247933799Y-32207564D01*
X247933799Y-32207564D02*
X247911884Y-32228212D01*
X247911884Y-32228212D02*
X247891242Y-32262766D01*
X247891242Y-32262766D02*
X247874640Y-32304867D01*
X247874640Y-32304867D02*
X247864845Y-32348155D01*
X247864845Y-32348155D02*
X247863360Y-32369422D01*
X247863360Y-32369422D02*
X247861542Y-32398511D01*
X247861542Y-32398511D02*
X247856891Y-32417034D01*
X247856891Y-32417034D02*
X247853189Y-32420560D01*
X247853189Y-32420560D02*
X247836938Y-32412428D01*
X247836938Y-32412428D02*
X247813713Y-32390635D01*
X247813713Y-32390635D02*
X247786756Y-32359083D01*
X247786756Y-32359083D02*
X247759312Y-32321674D01*
X247759312Y-32321674D02*
X247734626Y-32282308D01*
X247734626Y-32282308D02*
X247727629Y-32269538D01*
X247727629Y-32269538D02*
X247708944Y-32231108D01*
X247708944Y-32231108D02*
X247686472Y-32180557D01*
X247686472Y-32180557D02*
X247663249Y-32124907D01*
X247663249Y-32124907D02*
X247645202Y-32078881D01*
X247645202Y-32078881D02*
X247625610Y-32030152D01*
X247625610Y-32030152D02*
X247606497Y-31988031D01*
X247606497Y-31988031D02*
X247589910Y-31956729D01*
X247589910Y-31956729D02*
X247577948Y-31940500D01*
X247577948Y-31940500D02*
X247544595Y-31924216D01*
X247544595Y-31924216D02*
X247509876Y-31925410D01*
X247509876Y-31925410D02*
X247477904Y-31941990D01*
X247477904Y-31941990D02*
X247452789Y-31971866D01*
X247452789Y-31971866D02*
X247438928Y-32011211D01*
X247438928Y-32011211D02*
X247431560Y-32053983D01*
X247431560Y-32053983D02*
X247307474Y-31947401D01*
X247307474Y-31947401D02*
X247189796Y-31839095D01*
X247189796Y-31839095D02*
X247069445Y-31714549D01*
X247069445Y-31714549D02*
X246949361Y-31577056D01*
X246949361Y-31577056D02*
X246832482Y-31429905D01*
X246832482Y-31429905D02*
X246770943Y-31346486D01*
X246770943Y-31346486D02*
X246740723Y-31307161D01*
X246740723Y-31307161D02*
X246712623Y-31275564D01*
X246712623Y-31275564D02*
X246690229Y-31255575D01*
X246690229Y-31255575D02*
X246683176Y-31251487D01*
X246683176Y-31251487D02*
X246645118Y-31245813D01*
X246645118Y-31245813D02*
X246608595Y-31258645D01*
X246608595Y-31258645D02*
X246578132Y-31288388D01*
X246578132Y-31288388D02*
X246578053Y-31288503D01*
X246578053Y-31288503D02*
X246564056Y-31305703D01*
X246564056Y-31305703D02*
X246547864Y-31314807D01*
X246547864Y-31314807D02*
X246522543Y-31318545D01*
X246522543Y-31318545D02*
X246499641Y-31319356D01*
X246499641Y-31319356D02*
X246462816Y-31322232D01*
X246462816Y-31322232D02*
X246430823Y-31331037D01*
X246430823Y-31331037D02*
X246394984Y-31348558D01*
X246394984Y-31348558D02*
X246377909Y-31358464D01*
X246377909Y-31358464D02*
X246314202Y-31396414D01*
X246314202Y-31396414D02*
X246279161Y-31377627D01*
X246279161Y-31377627D02*
X246261413Y-31365063D01*
X246261413Y-31365063D02*
X246231882Y-31340712D01*
X246231882Y-31340712D02*
X246193314Y-31306993D01*
X246193314Y-31306993D02*
X246148458Y-31266320D01*
X246148458Y-31266320D02*
X246100061Y-31221112D01*
X246100061Y-31221112D02*
X246086001Y-31207732D01*
X246086001Y-31207732D02*
X246030157Y-31154932D01*
X246030157Y-31154932D02*
X245969112Y-31098192D01*
X245969112Y-31098192D02*
X245905361Y-31039744D01*
X245905361Y-31039744D02*
X245841400Y-30981822D01*
X245841400Y-30981822D02*
X245779727Y-30926658D01*
X245779727Y-30926658D02*
X245722837Y-30876484D01*
X245722837Y-30876484D02*
X245673227Y-30833534D01*
X245673227Y-30833534D02*
X245633392Y-30800041D01*
X245633392Y-30800041D02*
X245605830Y-30778236D01*
X245605830Y-30778236D02*
X245605681Y-30778126D01*
X245605681Y-30778126D02*
X245565595Y-30758253D01*
X245565595Y-30758253D02*
X245526666Y-30755561D01*
X245526666Y-30755561D02*
X245492808Y-30768326D01*
X245492808Y-30768326D02*
X245492808Y-30768326D01*
G36*
X245565595Y-30758253D02*
G01*
X245605681Y-30778126D01*
X245605830Y-30778236D01*
X245633392Y-30800041D01*
X245673227Y-30833534D01*
X245722837Y-30876484D01*
X245779727Y-30926658D01*
X245841400Y-30981822D01*
X245905361Y-31039744D01*
X245969112Y-31098192D01*
X246030157Y-31154932D01*
X246086001Y-31207732D01*
X246100061Y-31221112D01*
X246148458Y-31266320D01*
X246193314Y-31306993D01*
X246231882Y-31340712D01*
X246261413Y-31365063D01*
X246279161Y-31377627D01*
X246314202Y-31396414D01*
X246377909Y-31358464D01*
X246394984Y-31348558D01*
X246430823Y-31331037D01*
X246462816Y-31322232D01*
X246499641Y-31319356D01*
X246522543Y-31318545D01*
X246547864Y-31314807D01*
X246564056Y-31305703D01*
X246578053Y-31288503D01*
X246578132Y-31288388D01*
X246608595Y-31258645D01*
X246645118Y-31245813D01*
X246683176Y-31251487D01*
X246690229Y-31255575D01*
X246712623Y-31275564D01*
X246740723Y-31307161D01*
X246770943Y-31346486D01*
X246832482Y-31429905D01*
X246949361Y-31577056D01*
X247069445Y-31714549D01*
X247189796Y-31839095D01*
X247307474Y-31947401D01*
X247431560Y-32053983D01*
X247438928Y-32011211D01*
X247452789Y-31971866D01*
X247477904Y-31941990D01*
X247509876Y-31925410D01*
X247544595Y-31924216D01*
X247577948Y-31940500D01*
X247589910Y-31956729D01*
X247606497Y-31988031D01*
X247625610Y-32030152D01*
X247645202Y-32078881D01*
X247663249Y-32124907D01*
X247686472Y-32180557D01*
X247708944Y-32231108D01*
X247727629Y-32269538D01*
X247734626Y-32282308D01*
X247759312Y-32321674D01*
X247786756Y-32359083D01*
X247813713Y-32390635D01*
X247836938Y-32412428D01*
X247853189Y-32420560D01*
X247856891Y-32417034D01*
X247861542Y-32398511D01*
X247863360Y-32369422D01*
X247864845Y-32348155D01*
X247874640Y-32304867D01*
X247891242Y-32262766D01*
X247911884Y-32228212D01*
X247933799Y-32207564D01*
X247966736Y-32198039D01*
X248003929Y-32200414D01*
X248034051Y-32214820D01*
X248041390Y-32223599D01*
X248058270Y-32249046D01*
X248080964Y-32286707D01*
X248107433Y-32333165D01*
X248135634Y-32385000D01*
X248153882Y-32419228D01*
X248182315Y-32472240D01*
X248208022Y-32519799D01*
X248228746Y-32557734D01*
X248242228Y-32581877D01*
X248267781Y-32626355D01*
X248279521Y-32569804D01*
X248298983Y-32508387D01*
X248331176Y-32457357D01*
X248374234Y-32422484D01*
X248427240Y-32404790D01*
X248440836Y-32403486D01*
X248470678Y-32407094D01*
X248499390Y-32421137D01*
X248528187Y-32447105D01*
X248558287Y-32486483D01*
X248590906Y-32540759D01*
X248627259Y-32611423D01*
X248668564Y-32699960D01*
X248676712Y-32717566D01*
X248696981Y-32759253D01*
X248721991Y-32808798D01*
X248750189Y-32863317D01*
X248780023Y-32919925D01*
X248809939Y-32975738D01*
X248838386Y-33027872D01*
X248863812Y-33073441D01*
X248884663Y-33109562D01*
X248899387Y-33133349D01*
X248906432Y-33141920D01*
X248907802Y-33136394D01*
X248907572Y-33113992D01*
X248905282Y-33077650D01*
X248901212Y-33030910D01*
X248895642Y-32977308D01*
X248888854Y-32920386D01*
X248885520Y-32883177D01*
X248888283Y-32834354D01*
X248902096Y-32801133D01*
X248927671Y-32782180D01*
X248965721Y-32776160D01*
X248965908Y-32776160D01*
X248998720Y-32780546D01*
X249022175Y-32796477D01*
X249042560Y-32828213D01*
X249042954Y-32828984D01*
X249058073Y-32853922D01*
X249073911Y-32865051D01*
X249097799Y-32867600D01*
X249101109Y-32867692D01*
X249116461Y-32870558D01*
X249135579Y-32878548D01*
X249160889Y-32893167D01*
X249194819Y-32915919D01*
X249239798Y-32948309D01*
X249298253Y-32991843D01*
X249335427Y-33019983D01*
X249478664Y-33132464D01*
X249610132Y-33242365D01*
X249728509Y-33348469D01*
X249832473Y-33449555D01*
X249920704Y-33544405D01*
X249991880Y-33631800D01*
X250015120Y-33661753D01*
X250036616Y-33685053D01*
X250054066Y-33696834D01*
X250071125Y-33700256D01*
X250098268Y-33704615D01*
X250128783Y-33715826D01*
X250139737Y-33723090D01*
X250168445Y-33750560D01*
X250205331Y-33794167D01*
X250249542Y-33852677D01*
X250300224Y-33924855D01*
X250356522Y-34009467D01*
X250417583Y-34105278D01*
X250482552Y-34211054D01*
X250550576Y-34325560D01*
X250577280Y-34370935D01*
X250624365Y-34448898D01*
X250664423Y-34511709D01*
X250698949Y-34561323D01*
X250729437Y-34599691D01*
X250757380Y-34628769D01*
X250784272Y-34650508D01*
X250811607Y-34666862D01*
X250821905Y-34672759D01*
X250845462Y-34695708D01*
X250851065Y-34721066D01*
X250837700Y-34745772D01*
X250818534Y-34753921D01*
X250786975Y-34750905D01*
X250748720Y-34736422D01*
X250708140Y-34711624D01*
X250675543Y-34685853D01*
X250631783Y-34644958D01*
X250586543Y-34594940D01*
X250537942Y-34533527D01*
X250484097Y-34458446D01*
X250423125Y-34367423D01*
X250405048Y-34339855D01*
X250370752Y-34288174D01*
X250340992Y-34244139D01*
X250317388Y-34210107D01*
X250301563Y-34188434D01*
X250295138Y-34181475D01*
X250294762Y-34183781D01*
X250296942Y-34201324D01*
X250302864Y-34231894D01*
X250311647Y-34270729D01*
X250317966Y-34297740D01*
X250327956Y-34347508D01*
X250331486Y-34383428D01*
X250328323Y-34409346D01*
X250318232Y-34429113D01*
X250300981Y-34446576D01*
X250298715Y-34448453D01*
X250264566Y-34468595D01*
X250232385Y-34470784D01*
X250201067Y-34454467D01*
X250169507Y-34419087D01*
X250136600Y-34364090D01*
X250110864Y-34310517D01*
X250073688Y-34216930D01*
X250043034Y-34119637D01*
X250022182Y-34028266D01*
X250020227Y-34017697D01*
X250009698Y-33972721D01*
X249997176Y-33932653D01*
X249984963Y-33905115D01*
X249964199Y-33873016D01*
X249928459Y-33822665D01*
X249885190Y-33765303D01*
X249837840Y-33705371D01*
X249789858Y-33647312D01*
X249744691Y-33595568D01*
X249720538Y-33569556D01*
X249680273Y-33528139D01*
X249635729Y-33484023D01*
X249589971Y-33440094D01*
X249546067Y-33399238D01*
X249507081Y-33364341D01*
X249476079Y-33338287D01*
X249456129Y-33323964D01*
X249451590Y-33324373D01*
X249454164Y-33338879D01*
X249466616Y-33369772D01*
X249489149Y-33417622D01*
X249516119Y-33476477D01*
X249532543Y-33522775D01*
X249538382Y-33558513D01*
X249534135Y-33586788D01*
X249520302Y-33610694D01*
X249511186Y-33620616D01*
X249496316Y-33629362D01*
X249473954Y-33632718D01*
X249437739Y-33632353D01*
X249387387Y-33625190D01*
X249336358Y-33605230D01*
X249286246Y-33571207D01*
X249235417Y-33521755D01*
X249182236Y-33455508D01*
X249125067Y-33371100D01*
X249067320Y-33280241D01*
X249060523Y-33335357D01*
X249055985Y-33359473D01*
X249037977Y-33400754D01*
X249010136Y-33427222D01*
X248974435Y-33436560D01*
X248970381Y-33436041D01*
X248947875Y-33425300D01*
X248917324Y-33403318D01*
X248882625Y-33373597D01*
X248847674Y-33339643D01*
X248816368Y-33304958D01*
X248792602Y-33273046D01*
X248776703Y-33246967D01*
X248750078Y-33200956D01*
X248717522Y-33142962D01*
X248680877Y-33076364D01*
X248641984Y-33004542D01*
X248602685Y-32930875D01*
X248564820Y-32858743D01*
X248530232Y-32791526D01*
X248447560Y-32628840D01*
X248444505Y-32720280D01*
X248444234Y-32730706D01*
X248444647Y-32782473D01*
X248447438Y-32833296D01*
X248452125Y-32873512D01*
X248458522Y-32913558D01*
X248461619Y-32948423D01*
X248458889Y-32972806D01*
X248449620Y-32991831D01*
X248433102Y-33010621D01*
X248433025Y-33010698D01*
X248397628Y-33034578D01*
X248360131Y-33039585D01*
X248323911Y-33025267D01*
X248315358Y-33017165D01*
X248295054Y-32992325D01*
X248267863Y-32955194D01*
X248235889Y-32908907D01*
X248201235Y-32856597D01*
X248166004Y-32801400D01*
X248132299Y-32746449D01*
X248102223Y-32694880D01*
X248096807Y-32685280D01*
X248068847Y-32635780D01*
X248048963Y-32601346D01*
X248035406Y-32579772D01*
X248026425Y-32568855D01*
X248020272Y-32566391D01*
X248015197Y-32570175D01*
X248009451Y-32578003D01*
X248005648Y-32582904D01*
X247970703Y-32612304D01*
X247927290Y-32629904D01*
X247881935Y-32633968D01*
X247841169Y-32622758D01*
X247816373Y-32607396D01*
X247777465Y-32579079D01*
X247735016Y-32544966D01*
X247694953Y-32509861D01*
X247663205Y-32478566D01*
X247659607Y-32474556D01*
X247633321Y-32440987D01*
X247604555Y-32398673D01*
X247578919Y-32355785D01*
X247569491Y-32338783D01*
X247550568Y-32307095D01*
X247536113Y-32288782D01*
X247522922Y-32280353D01*
X247507789Y-32278320D01*
X247485478Y-32274580D01*
X247451463Y-32264069D01*
X247414188Y-32249162D01*
X247405029Y-32244779D01*
X247358395Y-32216653D01*
X247301701Y-32174999D01*
X247237021Y-32121768D01*
X247166427Y-32058911D01*
X247091993Y-31988381D01*
X247015791Y-31912126D01*
X246939895Y-31832100D01*
X246866377Y-31750253D01*
X246797310Y-31668535D01*
X246702282Y-31552170D01*
X246605056Y-31524989D01*
X246507831Y-31497807D01*
X246435429Y-31537543D01*
X246418538Y-31546491D01*
X246374877Y-31565644D01*
X246333803Y-31576108D01*
X246293321Y-31577056D01*
X246251439Y-31567660D01*
X246206162Y-31547094D01*
X246155497Y-31514529D01*
X246097451Y-31469138D01*
X246030029Y-31410094D01*
X245951238Y-31336569D01*
X245898760Y-31287046D01*
X245830986Y-31223917D01*
X245758992Y-31157552D01*
X245688597Y-31093313D01*
X245625620Y-31036561D01*
X245571509Y-30988097D01*
X245529599Y-30950008D01*
X245499220Y-30921259D01*
X245478519Y-30899755D01*
X245465643Y-30883405D01*
X245458740Y-30870116D01*
X245455957Y-30857796D01*
X245455440Y-30844352D01*
X245455960Y-30833325D01*
X245467935Y-30794822D01*
X245492808Y-30768326D01*
X245526666Y-30755561D01*
X245565595Y-30758253D01*
G37*
X245565595Y-30758253D02*
X245605681Y-30778126D01*
X245605830Y-30778236D01*
X245633392Y-30800041D01*
X245673227Y-30833534D01*
X245722837Y-30876484D01*
X245779727Y-30926658D01*
X245841400Y-30981822D01*
X245905361Y-31039744D01*
X245969112Y-31098192D01*
X246030157Y-31154932D01*
X246086001Y-31207732D01*
X246100061Y-31221112D01*
X246148458Y-31266320D01*
X246193314Y-31306993D01*
X246231882Y-31340712D01*
X246261413Y-31365063D01*
X246279161Y-31377627D01*
X246314202Y-31396414D01*
X246377909Y-31358464D01*
X246394984Y-31348558D01*
X246430823Y-31331037D01*
X246462816Y-31322232D01*
X246499641Y-31319356D01*
X246522543Y-31318545D01*
X246547864Y-31314807D01*
X246564056Y-31305703D01*
X246578053Y-31288503D01*
X246578132Y-31288388D01*
X246608595Y-31258645D01*
X246645118Y-31245813D01*
X246683176Y-31251487D01*
X246690229Y-31255575D01*
X246712623Y-31275564D01*
X246740723Y-31307161D01*
X246770943Y-31346486D01*
X246832482Y-31429905D01*
X246949361Y-31577056D01*
X247069445Y-31714549D01*
X247189796Y-31839095D01*
X247307474Y-31947401D01*
X247431560Y-32053983D01*
X247438928Y-32011211D01*
X247452789Y-31971866D01*
X247477904Y-31941990D01*
X247509876Y-31925410D01*
X247544595Y-31924216D01*
X247577948Y-31940500D01*
X247589910Y-31956729D01*
X247606497Y-31988031D01*
X247625610Y-32030152D01*
X247645202Y-32078881D01*
X247663249Y-32124907D01*
X247686472Y-32180557D01*
X247708944Y-32231108D01*
X247727629Y-32269538D01*
X247734626Y-32282308D01*
X247759312Y-32321674D01*
X247786756Y-32359083D01*
X247813713Y-32390635D01*
X247836938Y-32412428D01*
X247853189Y-32420560D01*
X247856891Y-32417034D01*
X247861542Y-32398511D01*
X247863360Y-32369422D01*
X247864845Y-32348155D01*
X247874640Y-32304867D01*
X247891242Y-32262766D01*
X247911884Y-32228212D01*
X247933799Y-32207564D01*
X247966736Y-32198039D01*
X248003929Y-32200414D01*
X248034051Y-32214820D01*
X248041390Y-32223599D01*
X248058270Y-32249046D01*
X248080964Y-32286707D01*
X248107433Y-32333165D01*
X248135634Y-32385000D01*
X248153882Y-32419228D01*
X248182315Y-32472240D01*
X248208022Y-32519799D01*
X248228746Y-32557734D01*
X248242228Y-32581877D01*
X248267781Y-32626355D01*
X248279521Y-32569804D01*
X248298983Y-32508387D01*
X248331176Y-32457357D01*
X248374234Y-32422484D01*
X248427240Y-32404790D01*
X248440836Y-32403486D01*
X248470678Y-32407094D01*
X248499390Y-32421137D01*
X248528187Y-32447105D01*
X248558287Y-32486483D01*
X248590906Y-32540759D01*
X248627259Y-32611423D01*
X248668564Y-32699960D01*
X248676712Y-32717566D01*
X248696981Y-32759253D01*
X248721991Y-32808798D01*
X248750189Y-32863317D01*
X248780023Y-32919925D01*
X248809939Y-32975738D01*
X248838386Y-33027872D01*
X248863812Y-33073441D01*
X248884663Y-33109562D01*
X248899387Y-33133349D01*
X248906432Y-33141920D01*
X248907802Y-33136394D01*
X248907572Y-33113992D01*
X248905282Y-33077650D01*
X248901212Y-33030910D01*
X248895642Y-32977308D01*
X248888854Y-32920386D01*
X248885520Y-32883177D01*
X248888283Y-32834354D01*
X248902096Y-32801133D01*
X248927671Y-32782180D01*
X248965721Y-32776160D01*
X248965908Y-32776160D01*
X248998720Y-32780546D01*
X249022175Y-32796477D01*
X249042560Y-32828213D01*
X249042954Y-32828984D01*
X249058073Y-32853922D01*
X249073911Y-32865051D01*
X249097799Y-32867600D01*
X249101109Y-32867692D01*
X249116461Y-32870558D01*
X249135579Y-32878548D01*
X249160889Y-32893167D01*
X249194819Y-32915919D01*
X249239798Y-32948309D01*
X249298253Y-32991843D01*
X249335427Y-33019983D01*
X249478664Y-33132464D01*
X249610132Y-33242365D01*
X249728509Y-33348469D01*
X249832473Y-33449555D01*
X249920704Y-33544405D01*
X249991880Y-33631800D01*
X250015120Y-33661753D01*
X250036616Y-33685053D01*
X250054066Y-33696834D01*
X250071125Y-33700256D01*
X250098268Y-33704615D01*
X250128783Y-33715826D01*
X250139737Y-33723090D01*
X250168445Y-33750560D01*
X250205331Y-33794167D01*
X250249542Y-33852677D01*
X250300224Y-33924855D01*
X250356522Y-34009467D01*
X250417583Y-34105278D01*
X250482552Y-34211054D01*
X250550576Y-34325560D01*
X250577280Y-34370935D01*
X250624365Y-34448898D01*
X250664423Y-34511709D01*
X250698949Y-34561323D01*
X250729437Y-34599691D01*
X250757380Y-34628769D01*
X250784272Y-34650508D01*
X250811607Y-34666862D01*
X250821905Y-34672759D01*
X250845462Y-34695708D01*
X250851065Y-34721066D01*
X250837700Y-34745772D01*
X250818534Y-34753921D01*
X250786975Y-34750905D01*
X250748720Y-34736422D01*
X250708140Y-34711624D01*
X250675543Y-34685853D01*
X250631783Y-34644958D01*
X250586543Y-34594940D01*
X250537942Y-34533527D01*
X250484097Y-34458446D01*
X250423125Y-34367423D01*
X250405048Y-34339855D01*
X250370752Y-34288174D01*
X250340992Y-34244139D01*
X250317388Y-34210107D01*
X250301563Y-34188434D01*
X250295138Y-34181475D01*
X250294762Y-34183781D01*
X250296942Y-34201324D01*
X250302864Y-34231894D01*
X250311647Y-34270729D01*
X250317966Y-34297740D01*
X250327956Y-34347508D01*
X250331486Y-34383428D01*
X250328323Y-34409346D01*
X250318232Y-34429113D01*
X250300981Y-34446576D01*
X250298715Y-34448453D01*
X250264566Y-34468595D01*
X250232385Y-34470784D01*
X250201067Y-34454467D01*
X250169507Y-34419087D01*
X250136600Y-34364090D01*
X250110864Y-34310517D01*
X250073688Y-34216930D01*
X250043034Y-34119637D01*
X250022182Y-34028266D01*
X250020227Y-34017697D01*
X250009698Y-33972721D01*
X249997176Y-33932653D01*
X249984963Y-33905115D01*
X249964199Y-33873016D01*
X249928459Y-33822665D01*
X249885190Y-33765303D01*
X249837840Y-33705371D01*
X249789858Y-33647312D01*
X249744691Y-33595568D01*
X249720538Y-33569556D01*
X249680273Y-33528139D01*
X249635729Y-33484023D01*
X249589971Y-33440094D01*
X249546067Y-33399238D01*
X249507081Y-33364341D01*
X249476079Y-33338287D01*
X249456129Y-33323964D01*
X249451590Y-33324373D01*
X249454164Y-33338879D01*
X249466616Y-33369772D01*
X249489149Y-33417622D01*
X249516119Y-33476477D01*
X249532543Y-33522775D01*
X249538382Y-33558513D01*
X249534135Y-33586788D01*
X249520302Y-33610694D01*
X249511186Y-33620616D01*
X249496316Y-33629362D01*
X249473954Y-33632718D01*
X249437739Y-33632353D01*
X249387387Y-33625190D01*
X249336358Y-33605230D01*
X249286246Y-33571207D01*
X249235417Y-33521755D01*
X249182236Y-33455508D01*
X249125067Y-33371100D01*
X249067320Y-33280241D01*
X249060523Y-33335357D01*
X249055985Y-33359473D01*
X249037977Y-33400754D01*
X249010136Y-33427222D01*
X248974435Y-33436560D01*
X248970381Y-33436041D01*
X248947875Y-33425300D01*
X248917324Y-33403318D01*
X248882625Y-33373597D01*
X248847674Y-33339643D01*
X248816368Y-33304958D01*
X248792602Y-33273046D01*
X248776703Y-33246967D01*
X248750078Y-33200956D01*
X248717522Y-33142962D01*
X248680877Y-33076364D01*
X248641984Y-33004542D01*
X248602685Y-32930875D01*
X248564820Y-32858743D01*
X248530232Y-32791526D01*
X248447560Y-32628840D01*
X248444505Y-32720280D01*
X248444234Y-32730706D01*
X248444647Y-32782473D01*
X248447438Y-32833296D01*
X248452125Y-32873512D01*
X248458522Y-32913558D01*
X248461619Y-32948423D01*
X248458889Y-32972806D01*
X248449620Y-32991831D01*
X248433102Y-33010621D01*
X248433025Y-33010698D01*
X248397628Y-33034578D01*
X248360131Y-33039585D01*
X248323911Y-33025267D01*
X248315358Y-33017165D01*
X248295054Y-32992325D01*
X248267863Y-32955194D01*
X248235889Y-32908907D01*
X248201235Y-32856597D01*
X248166004Y-32801400D01*
X248132299Y-32746449D01*
X248102223Y-32694880D01*
X248096807Y-32685280D01*
X248068847Y-32635780D01*
X248048963Y-32601346D01*
X248035406Y-32579772D01*
X248026425Y-32568855D01*
X248020272Y-32566391D01*
X248015197Y-32570175D01*
X248009451Y-32578003D01*
X248005648Y-32582904D01*
X247970703Y-32612304D01*
X247927290Y-32629904D01*
X247881935Y-32633968D01*
X247841169Y-32622758D01*
X247816373Y-32607396D01*
X247777465Y-32579079D01*
X247735016Y-32544966D01*
X247694953Y-32509861D01*
X247663205Y-32478566D01*
X247659607Y-32474556D01*
X247633321Y-32440987D01*
X247604555Y-32398673D01*
X247578919Y-32355785D01*
X247569491Y-32338783D01*
X247550568Y-32307095D01*
X247536113Y-32288782D01*
X247522922Y-32280353D01*
X247507789Y-32278320D01*
X247485478Y-32274580D01*
X247451463Y-32264069D01*
X247414188Y-32249162D01*
X247405029Y-32244779D01*
X247358395Y-32216653D01*
X247301701Y-32174999D01*
X247237021Y-32121768D01*
X247166427Y-32058911D01*
X247091993Y-31988381D01*
X247015791Y-31912126D01*
X246939895Y-31832100D01*
X246866377Y-31750253D01*
X246797310Y-31668535D01*
X246702282Y-31552170D01*
X246605056Y-31524989D01*
X246507831Y-31497807D01*
X246435429Y-31537543D01*
X246418538Y-31546491D01*
X246374877Y-31565644D01*
X246333803Y-31576108D01*
X246293321Y-31577056D01*
X246251439Y-31567660D01*
X246206162Y-31547094D01*
X246155497Y-31514529D01*
X246097451Y-31469138D01*
X246030029Y-31410094D01*
X245951238Y-31336569D01*
X245898760Y-31287046D01*
X245830986Y-31223917D01*
X245758992Y-31157552D01*
X245688597Y-31093313D01*
X245625620Y-31036561D01*
X245571509Y-30988097D01*
X245529599Y-30950008D01*
X245499220Y-30921259D01*
X245478519Y-30899755D01*
X245465643Y-30883405D01*
X245458740Y-30870116D01*
X245455957Y-30857796D01*
X245455440Y-30844352D01*
X245455960Y-30833325D01*
X245467935Y-30794822D01*
X245492808Y-30768326D01*
X245526666Y-30755561D01*
X245565595Y-30758253D01*
X248714975Y-30912795D02*
X248695974Y-30927986D01*
X248695974Y-30927986D02*
X248689272Y-30957750D01*
X248689272Y-30957750D02*
X248701301Y-30987713D01*
X248701301Y-30987713D02*
X248732442Y-31018246D01*
X248732442Y-31018246D02*
X248783072Y-31049721D01*
X248783072Y-31049721D02*
X248853572Y-31082508D01*
X248853572Y-31082508D02*
X248853960Y-31082670D01*
X248853960Y-31082670D02*
X248932943Y-31116768D01*
X248932943Y-31116768D02*
X249025731Y-31158857D01*
X249025731Y-31158857D02*
X249128399Y-31207001D01*
X249128399Y-31207001D02*
X249237020Y-31259266D01*
X249237020Y-31259266D02*
X249347669Y-31313719D01*
X249347669Y-31313719D02*
X249456420Y-31368426D01*
X249456420Y-31368426D02*
X249559345Y-31421453D01*
X249559345Y-31421453D02*
X249652520Y-31470866D01*
X249652520Y-31470866D02*
X249732017Y-31514731D01*
X249732017Y-31514731D02*
X249737880Y-31518063D01*
X249737880Y-31518063D02*
X249822626Y-31567239D01*
X249822626Y-31567239D02*
X249905813Y-31617454D01*
X249905813Y-31617454D02*
X249990231Y-31670542D01*
X249990231Y-31670542D02*
X250078671Y-31728336D01*
X250078671Y-31728336D02*
X250173926Y-31792669D01*
X250173926Y-31792669D02*
X250278787Y-31865375D01*
X250278787Y-31865375D02*
X250396045Y-31948286D01*
X250396045Y-31948286D02*
X250431771Y-31973789D01*
X250431771Y-31973789D02*
X250547754Y-32056964D01*
X250547754Y-32056964D02*
X250650500Y-32131239D01*
X250650500Y-32131239D02*
X250743495Y-32199251D01*
X250743495Y-32199251D02*
X250830227Y-32263641D01*
X250830227Y-32263641D02*
X250914182Y-32327047D01*
X250914182Y-32327047D02*
X250998848Y-32392109D01*
X250998848Y-32392109D02*
X251087712Y-32461466D01*
X251087712Y-32461466D02*
X251184261Y-32537757D01*
X251184261Y-32537757D02*
X251291982Y-32623622D01*
X251291982Y-32623622D02*
X251320430Y-32646384D01*
X251320430Y-32646384D02*
X251446832Y-32748052D01*
X251446832Y-32748052D02*
X251558020Y-32838551D01*
X251558020Y-32838551D02*
X251655072Y-32918856D01*
X251655072Y-32918856D02*
X251739068Y-32989941D01*
X251739068Y-32989941D02*
X251811088Y-33052777D01*
X251811088Y-33052777D02*
X251872210Y-33108340D01*
X251872210Y-33108340D02*
X251923516Y-33157601D01*
X251923516Y-33157601D02*
X251966083Y-33201534D01*
X251966083Y-33201534D02*
X252000992Y-33241114D01*
X252000992Y-33241114D02*
X252029321Y-33277312D01*
X252029321Y-33277312D02*
X252044660Y-33299400D01*
X252044660Y-33299400D02*
X252068052Y-33332696D01*
X252068052Y-33332696D02*
X252086322Y-33351963D01*
X252086322Y-33351963D02*
X252103893Y-33361109D01*
X252103893Y-33361109D02*
X252117235Y-33363497D01*
X252117235Y-33363497D02*
X252144036Y-33361652D01*
X252144036Y-33361652D02*
X252162708Y-33346218D01*
X252162708Y-33346218D02*
X252167491Y-33339373D01*
X252167491Y-33339373D02*
X252176197Y-33324639D01*
X252176197Y-33324639D02*
X252178959Y-33311511D01*
X252178959Y-33311511D02*
X252174821Y-33294588D01*
X252174821Y-33294588D02*
X252162829Y-33268469D01*
X252162829Y-33268469D02*
X252150778Y-33244796D01*
X252150778Y-33244796D02*
X252128663Y-33207334D01*
X252128663Y-33207334D02*
X252098160Y-33165282D01*
X252098160Y-33165282D02*
X252058436Y-33117845D01*
X252058436Y-33117845D02*
X252008659Y-33064225D01*
X252008659Y-33064225D02*
X251947996Y-33003626D01*
X251947996Y-33003626D02*
X251875616Y-32935252D01*
X251875616Y-32935252D02*
X251790686Y-32858307D01*
X251790686Y-32858307D02*
X251692374Y-32771993D01*
X251692374Y-32771993D02*
X251579847Y-32675516D01*
X251579847Y-32675516D02*
X251452272Y-32568078D01*
X251452272Y-32568078D02*
X251383800Y-32511012D01*
X251383800Y-32511012D02*
X251292417Y-32435175D01*
X251292417Y-32435175D02*
X251213930Y-32370316D01*
X251213930Y-32370316D02*
X251145684Y-32314333D01*
X251145684Y-32314333D02*
X251085026Y-32265124D01*
X251085026Y-32265124D02*
X251029301Y-32220586D01*
X251029301Y-32220586D02*
X250975855Y-32178617D01*
X250975855Y-32178617D02*
X250922034Y-32137114D01*
X250922034Y-32137114D02*
X250865184Y-32093976D01*
X250865184Y-32093976D02*
X250802650Y-32047100D01*
X250802650Y-32047100D02*
X250731779Y-31994383D01*
X250731779Y-31994383D02*
X250728480Y-31991935D01*
X250728480Y-31991935D02*
X250586542Y-31887270D01*
X250586542Y-31887270D02*
X250458269Y-31794109D01*
X250458269Y-31794109D02*
X250341619Y-31711067D01*
X250341619Y-31711067D02*
X250234550Y-31636761D01*
X250234550Y-31636761D02*
X250135019Y-31569803D01*
X250135019Y-31569803D02*
X250040982Y-31508811D01*
X250040982Y-31508811D02*
X249950398Y-31452398D01*
X249950398Y-31452398D02*
X249861224Y-31399179D01*
X249861224Y-31399179D02*
X249814080Y-31371936D01*
X249814080Y-31371936D02*
X249724668Y-31321939D01*
X249724668Y-31321939D02*
X249627755Y-31269737D01*
X249627755Y-31269737D02*
X249526140Y-31216693D01*
X249526140Y-31216693D02*
X249422621Y-31164167D01*
X249422621Y-31164167D02*
X249319996Y-31113521D01*
X249319996Y-31113521D02*
X249221064Y-31066116D01*
X249221064Y-31066116D02*
X249128622Y-31023313D01*
X249128622Y-31023313D02*
X249045469Y-30986473D01*
X249045469Y-30986473D02*
X248974402Y-30956959D01*
X248974402Y-30956959D02*
X248918502Y-30936226D01*
X248918502Y-30936226D02*
X248854206Y-30917864D01*
X248854206Y-30917864D02*
X248796964Y-30907768D01*
X248796964Y-30907768D02*
X248749609Y-30906044D01*
X248749609Y-30906044D02*
X248714975Y-30912795D01*
X248714975Y-30912795D02*
X248714975Y-30912795D01*
G36*
X248796964Y-30907768D02*
G01*
X248854206Y-30917864D01*
X248918502Y-30936226D01*
X248974402Y-30956959D01*
X249045469Y-30986473D01*
X249128622Y-31023313D01*
X249221064Y-31066116D01*
X249319996Y-31113521D01*
X249422621Y-31164167D01*
X249526140Y-31216693D01*
X249627755Y-31269737D01*
X249724668Y-31321939D01*
X249814080Y-31371936D01*
X249861224Y-31399179D01*
X249950398Y-31452398D01*
X250040982Y-31508811D01*
X250135019Y-31569803D01*
X250234550Y-31636761D01*
X250341619Y-31711067D01*
X250458269Y-31794109D01*
X250586542Y-31887270D01*
X250728480Y-31991935D01*
X250731779Y-31994383D01*
X250802650Y-32047100D01*
X250865184Y-32093976D01*
X250922034Y-32137114D01*
X250975855Y-32178617D01*
X251029301Y-32220586D01*
X251085026Y-32265124D01*
X251145684Y-32314333D01*
X251213930Y-32370316D01*
X251292417Y-32435175D01*
X251383800Y-32511012D01*
X251452272Y-32568078D01*
X251579847Y-32675516D01*
X251692374Y-32771993D01*
X251790686Y-32858307D01*
X251875616Y-32935252D01*
X251947996Y-33003626D01*
X252008659Y-33064225D01*
X252058436Y-33117845D01*
X252098160Y-33165282D01*
X252128663Y-33207334D01*
X252150778Y-33244796D01*
X252162829Y-33268469D01*
X252174821Y-33294588D01*
X252178959Y-33311511D01*
X252176197Y-33324639D01*
X252167491Y-33339373D01*
X252162708Y-33346218D01*
X252144036Y-33361652D01*
X252117235Y-33363497D01*
X252103893Y-33361109D01*
X252086322Y-33351963D01*
X252068052Y-33332696D01*
X252044660Y-33299400D01*
X252029321Y-33277312D01*
X252000992Y-33241114D01*
X251966083Y-33201534D01*
X251923516Y-33157601D01*
X251872210Y-33108340D01*
X251811088Y-33052777D01*
X251739068Y-32989941D01*
X251655072Y-32918856D01*
X251558020Y-32838551D01*
X251446832Y-32748052D01*
X251320430Y-32646384D01*
X251291982Y-32623622D01*
X251184261Y-32537757D01*
X251087712Y-32461466D01*
X250998848Y-32392109D01*
X250914182Y-32327047D01*
X250830227Y-32263641D01*
X250743495Y-32199251D01*
X250650500Y-32131239D01*
X250547754Y-32056964D01*
X250431771Y-31973789D01*
X250396045Y-31948286D01*
X250278787Y-31865375D01*
X250173926Y-31792669D01*
X250078671Y-31728336D01*
X249990231Y-31670542D01*
X249905813Y-31617454D01*
X249822626Y-31567239D01*
X249737880Y-31518063D01*
X249732017Y-31514731D01*
X249652520Y-31470866D01*
X249559345Y-31421453D01*
X249456420Y-31368426D01*
X249347669Y-31313719D01*
X249237020Y-31259266D01*
X249128399Y-31207001D01*
X249025731Y-31158857D01*
X248932943Y-31116768D01*
X248853960Y-31082670D01*
X248853572Y-31082508D01*
X248783072Y-31049721D01*
X248732442Y-31018246D01*
X248701301Y-30987713D01*
X248689272Y-30957750D01*
X248695974Y-30927986D01*
X248714975Y-30912795D01*
X248749609Y-30906044D01*
X248796964Y-30907768D01*
G37*
X248796964Y-30907768D02*
X248854206Y-30917864D01*
X248918502Y-30936226D01*
X248974402Y-30956959D01*
X249045469Y-30986473D01*
X249128622Y-31023313D01*
X249221064Y-31066116D01*
X249319996Y-31113521D01*
X249422621Y-31164167D01*
X249526140Y-31216693D01*
X249627755Y-31269737D01*
X249724668Y-31321939D01*
X249814080Y-31371936D01*
X249861224Y-31399179D01*
X249950398Y-31452398D01*
X250040982Y-31508811D01*
X250135019Y-31569803D01*
X250234550Y-31636761D01*
X250341619Y-31711067D01*
X250458269Y-31794109D01*
X250586542Y-31887270D01*
X250728480Y-31991935D01*
X250731779Y-31994383D01*
X250802650Y-32047100D01*
X250865184Y-32093976D01*
X250922034Y-32137114D01*
X250975855Y-32178617D01*
X251029301Y-32220586D01*
X251085026Y-32265124D01*
X251145684Y-32314333D01*
X251213930Y-32370316D01*
X251292417Y-32435175D01*
X251383800Y-32511012D01*
X251452272Y-32568078D01*
X251579847Y-32675516D01*
X251692374Y-32771993D01*
X251790686Y-32858307D01*
X251875616Y-32935252D01*
X251947996Y-33003626D01*
X252008659Y-33064225D01*
X252058436Y-33117845D01*
X252098160Y-33165282D01*
X252128663Y-33207334D01*
X252150778Y-33244796D01*
X252162829Y-33268469D01*
X252174821Y-33294588D01*
X252178959Y-33311511D01*
X252176197Y-33324639D01*
X252167491Y-33339373D01*
X252162708Y-33346218D01*
X252144036Y-33361652D01*
X252117235Y-33363497D01*
X252103893Y-33361109D01*
X252086322Y-33351963D01*
X252068052Y-33332696D01*
X252044660Y-33299400D01*
X252029321Y-33277312D01*
X252000992Y-33241114D01*
X251966083Y-33201534D01*
X251923516Y-33157601D01*
X251872210Y-33108340D01*
X251811088Y-33052777D01*
X251739068Y-32989941D01*
X251655072Y-32918856D01*
X251558020Y-32838551D01*
X251446832Y-32748052D01*
X251320430Y-32646384D01*
X251291982Y-32623622D01*
X251184261Y-32537757D01*
X251087712Y-32461466D01*
X250998848Y-32392109D01*
X250914182Y-32327047D01*
X250830227Y-32263641D01*
X250743495Y-32199251D01*
X250650500Y-32131239D01*
X250547754Y-32056964D01*
X250431771Y-31973789D01*
X250396045Y-31948286D01*
X250278787Y-31865375D01*
X250173926Y-31792669D01*
X250078671Y-31728336D01*
X249990231Y-31670542D01*
X249905813Y-31617454D01*
X249822626Y-31567239D01*
X249737880Y-31518063D01*
X249732017Y-31514731D01*
X249652520Y-31470866D01*
X249559345Y-31421453D01*
X249456420Y-31368426D01*
X249347669Y-31313719D01*
X249237020Y-31259266D01*
X249128399Y-31207001D01*
X249025731Y-31158857D01*
X248932943Y-31116768D01*
X248853960Y-31082670D01*
X248853572Y-31082508D01*
X248783072Y-31049721D01*
X248732442Y-31018246D01*
X248701301Y-30987713D01*
X248689272Y-30957750D01*
X248695974Y-30927986D01*
X248714975Y-30912795D01*
X248749609Y-30906044D01*
X248796964Y-30907768D01*
%TD*%
M02*
