%TF.GenerationSoftware,KiCad,Pcbnew,(6.0.2)*%
%TF.CreationDate,2023-01-15T00:33:07-06:00*%
%TF.ProjectId,PowerDistribution,506f7765-7244-4697-9374-726962757469,rev?*%
%TF.SameCoordinates,Original*%
%TF.FileFunction,Soldermask,Bot*%
%TF.FilePolarity,Negative*%
%FSLAX46Y46*%
G04 Gerber Fmt 4.6, Leading zero omitted, Abs format (unit mm)*
G04 Created by KiCad (PCBNEW (6.0.2)) date 2023-01-15 00:33:07*
%MOMM*%
%LPD*%
G01*
G04 APERTURE LIST*
G04 Aperture macros list*
%AMRoundRect*
0 Rectangle with rounded corners*
0 $1 Rounding radius*
0 $2 $3 $4 $5 $6 $7 $8 $9 X,Y pos of 4 corners*
0 Add a 4 corners polygon primitive as box body*
4,1,4,$2,$3,$4,$5,$6,$7,$8,$9,$2,$3,0*
0 Add four circle primitives for the rounded corners*
1,1,$1+$1,$2,$3*
1,1,$1+$1,$4,$5*
1,1,$1+$1,$6,$7*
1,1,$1+$1,$8,$9*
0 Add four rect primitives between the rounded corners*
20,1,$1+$1,$2,$3,$4,$5,0*
20,1,$1+$1,$4,$5,$6,$7,0*
20,1,$1+$1,$6,$7,$8,$9,0*
20,1,$1+$1,$8,$9,$2,$3,0*%
G04 Aperture macros list end*
%ADD10C,3.300000*%
%ADD11R,1.950000X1.950000*%
%ADD12C,1.950000*%
%ADD13C,1.000000*%
%ADD14RoundRect,0.250001X-0.499999X-0.499999X0.499999X-0.499999X0.499999X0.499999X-0.499999X0.499999X0*%
%ADD15C,1.500000*%
%ADD16C,3.200000*%
%ADD17C,12.800000*%
G04 APERTURE END LIST*
D10*
%TO.C,J1*%
X89770000Y-119126000D03*
X160770000Y-119126000D03*
X128270000Y-119126000D03*
D11*
X97020000Y-112626000D03*
D12*
X100020000Y-112626000D03*
X103020000Y-112626000D03*
X106020000Y-112626000D03*
X109020000Y-112626000D03*
X112020000Y-112626000D03*
X115020000Y-112626000D03*
X118020000Y-112626000D03*
X121020000Y-112626000D03*
X98520000Y-110126000D03*
X101520000Y-110126000D03*
X104520000Y-110126000D03*
X107520000Y-110126000D03*
X110520000Y-110126000D03*
X113520000Y-110126000D03*
X116520000Y-110126000D03*
X119520000Y-110126000D03*
X98520000Y-107126000D03*
X101520000Y-107126000D03*
X104520000Y-107126000D03*
X107520000Y-107126000D03*
X110520000Y-107126000D03*
X113520000Y-107126000D03*
X116520000Y-107126000D03*
X119520000Y-107126000D03*
X97020000Y-104626000D03*
X100020000Y-104626000D03*
X103020000Y-104626000D03*
X106020000Y-104626000D03*
X109020000Y-104626000D03*
X112020000Y-104626000D03*
X115020000Y-104626000D03*
X118020000Y-104626000D03*
X121020000Y-104626000D03*
X135520000Y-112626000D03*
X138520000Y-112626000D03*
X141520000Y-112626000D03*
X144520000Y-112626000D03*
X147520000Y-112626000D03*
X150520000Y-112626000D03*
X153520000Y-112626000D03*
X137020000Y-110126000D03*
X140020000Y-110126000D03*
X143020000Y-110126000D03*
X146020000Y-110126000D03*
X149020000Y-110126000D03*
X152020000Y-110126000D03*
X137020000Y-107126000D03*
X140020000Y-107126000D03*
X143020000Y-107126000D03*
X146020000Y-107126000D03*
X149020000Y-107126000D03*
X152020000Y-107126000D03*
X135520000Y-104626000D03*
X138520000Y-104626000D03*
X141520000Y-104626000D03*
X144520000Y-104626000D03*
X147520000Y-104626000D03*
X150520000Y-104626000D03*
X153520000Y-104626000D03*
%TD*%
D13*
%TO.C,J2*%
X117379000Y-34537000D03*
X105379000Y-34537000D03*
D14*
X108379000Y-30597000D03*
D15*
X111379000Y-30597000D03*
X114379000Y-30597000D03*
X108379000Y-33597000D03*
X111379000Y-33597000D03*
X114379000Y-33597000D03*
%TD*%
D16*
%TO.C,H6*%
X256235200Y-24765000D03*
%TD*%
%TO.C,H4*%
X81661000Y-24765000D03*
%TD*%
D17*
%TO.C,H1*%
X230124000Y-109728000D03*
%TD*%
D16*
%TO.C,H5*%
X81661000Y-121869200D03*
%TD*%
D17*
%TO.C,H2*%
X193675000Y-109728000D03*
%TD*%
D16*
%TO.C,H3*%
X256235200Y-121869200D03*
%TD*%
M02*
