%TF.GenerationSoftware,KiCad,Pcbnew,(6.0.2)*%
%TF.CreationDate,2023-01-15T00:33:07-06:00*%
%TF.ProjectId,PowerDistribution,506f7765-7244-4697-9374-726962757469,rev?*%
%TF.SameCoordinates,Original*%
%TF.FileFunction,Paste,Top*%
%TF.FilePolarity,Positive*%
%FSLAX46Y46*%
G04 Gerber Fmt 4.6, Leading zero omitted, Abs format (unit mm)*
G04 Created by KiCad (PCBNEW (6.0.2)) date 2023-01-15 00:33:07*
%MOMM*%
%LPD*%
G01*
G04 APERTURE LIST*
G04 Aperture macros list*
%AMRoundRect*
0 Rectangle with rounded corners*
0 $1 Rounding radius*
0 $2 $3 $4 $5 $6 $7 $8 $9 X,Y pos of 4 corners*
0 Add a 4 corners polygon primitive as box body*
4,1,4,$2,$3,$4,$5,$6,$7,$8,$9,$2,$3,0*
0 Add four circle primitives for the rounded corners*
1,1,$1+$1,$2,$3*
1,1,$1+$1,$4,$5*
1,1,$1+$1,$6,$7*
1,1,$1+$1,$8,$9*
0 Add four rect primitives between the rounded corners*
20,1,$1+$1,$2,$3,$4,$5,0*
20,1,$1+$1,$4,$5,$6,$7,0*
20,1,$1+$1,$6,$7,$8,$9,0*
20,1,$1+$1,$8,$9,$2,$3,0*%
G04 Aperture macros list end*
%ADD10RoundRect,0.200000X-0.200000X-0.275000X0.200000X-0.275000X0.200000X0.275000X-0.200000X0.275000X0*%
%ADD11RoundRect,0.225000X0.250000X-0.225000X0.250000X0.225000X-0.250000X0.225000X-0.250000X-0.225000X0*%
%ADD12RoundRect,0.218750X-0.256250X0.218750X-0.256250X-0.218750X0.256250X-0.218750X0.256250X0.218750X0*%
%ADD13RoundRect,0.200000X0.275000X-0.200000X0.275000X0.200000X-0.275000X0.200000X-0.275000X-0.200000X0*%
%ADD14RoundRect,0.250000X-0.475000X0.250000X-0.475000X-0.250000X0.475000X-0.250000X0.475000X0.250000X0*%
%ADD15RoundRect,0.225000X0.225000X0.250000X-0.225000X0.250000X-0.225000X-0.250000X0.225000X-0.250000X0*%
%ADD16RoundRect,0.140000X-0.140000X-0.170000X0.140000X-0.170000X0.140000X0.170000X-0.140000X0.170000X0*%
%ADD17R,1.200000X0.900000*%
%ADD18RoundRect,0.225000X-0.225000X-0.250000X0.225000X-0.250000X0.225000X0.250000X-0.225000X0.250000X0*%
%ADD19RoundRect,0.200000X-0.275000X0.200000X-0.275000X-0.200000X0.275000X-0.200000X0.275000X0.200000X0*%
%ADD20RoundRect,0.140000X-0.170000X0.140000X-0.170000X-0.140000X0.170000X-0.140000X0.170000X0.140000X0*%
%ADD21R,1.850000X2.650000*%
%ADD22R,0.450000X1.310000*%
%ADD23RoundRect,0.150000X-0.825000X-0.150000X0.825000X-0.150000X0.825000X0.150000X-0.825000X0.150000X0*%
%ADD24R,2.500000X2.300000*%
%ADD25R,0.670000X0.300000*%
%ADD26RoundRect,0.250000X0.250000X0.475000X-0.250000X0.475000X-0.250000X-0.475000X0.250000X-0.475000X0*%
%ADD27RoundRect,0.200000X0.200000X0.275000X-0.200000X0.275000X-0.200000X-0.275000X0.200000X-0.275000X0*%
%ADD28RoundRect,0.225000X-0.250000X0.225000X-0.250000X-0.225000X0.250000X-0.225000X0.250000X0.225000X0*%
%ADD29RoundRect,0.500000X-0.500000X-1.100000X0.500000X-1.100000X0.500000X1.100000X-0.500000X1.100000X0*%
%ADD30RoundRect,0.150000X0.587500X0.150000X-0.587500X0.150000X-0.587500X-0.150000X0.587500X-0.150000X0*%
%ADD31RoundRect,0.075000X-0.725000X-0.075000X0.725000X-0.075000X0.725000X0.075000X-0.725000X0.075000X0*%
%ADD32RoundRect,0.075000X-0.075000X-0.725000X0.075000X-0.725000X0.075000X0.725000X-0.075000X0.725000X0*%
%ADD33RoundRect,0.125000X-0.825000X-0.125000X0.825000X-0.125000X0.825000X0.125000X-0.825000X0.125000X0*%
%ADD34R,1.400000X1.200000*%
G04 APERTURE END LIST*
D10*
%TO.C,R105*%
X208598000Y-67818000D03*
X210248000Y-67818000D03*
%TD*%
D11*
%TO.C,C46*%
X159918400Y-66129200D03*
X159918400Y-64579200D03*
%TD*%
D12*
%TO.C,D28*%
X209042000Y-26644500D03*
X209042000Y-28219500D03*
%TD*%
D13*
%TO.C,R148*%
X247269000Y-31305000D03*
X247269000Y-29655000D03*
%TD*%
D14*
%TO.C,C14*%
X104140000Y-51694000D03*
X104140000Y-53594000D03*
%TD*%
D15*
%TO.C,C63*%
X193815000Y-85344000D03*
X192265000Y-85344000D03*
%TD*%
D14*
%TO.C,C1*%
X94234000Y-44770000D03*
X94234000Y-46670000D03*
%TD*%
D10*
%TO.C,R55*%
X147333200Y-67767200D03*
X148983200Y-67767200D03*
%TD*%
D15*
%TO.C,C24*%
X121466600Y-47756800D03*
X119916600Y-47756800D03*
%TD*%
D10*
%TO.C,R25*%
X110528600Y-67767200D03*
X112178600Y-67767200D03*
%TD*%
%TO.C,R106*%
X220917000Y-67818000D03*
X222567000Y-67818000D03*
%TD*%
%TO.C,R65*%
X162776400Y-67767200D03*
X164426400Y-67767200D03*
%TD*%
D16*
%TO.C,FB1*%
X120211600Y-50550800D03*
X121171600Y-50550800D03*
%TD*%
D17*
%TO.C,D9*%
X149720300Y-66115200D03*
X149720300Y-62815200D03*
%TD*%
D15*
%TO.C,C60*%
X193815000Y-89916000D03*
X192265000Y-89916000D03*
%TD*%
D18*
%TO.C,C23*%
X175631700Y-51435000D03*
X177181700Y-51435000D03*
%TD*%
D17*
%TO.C,D10*%
X161988500Y-66115200D03*
X161988500Y-62815200D03*
%TD*%
D19*
%TO.C,R22*%
X131699000Y-63183000D03*
X131699000Y-64833000D03*
%TD*%
D10*
%TO.C,R15*%
X86157096Y-38989000D03*
X87807096Y-38989000D03*
%TD*%
D11*
%TO.C,C31*%
X123113800Y-66129200D03*
X123113800Y-64579200D03*
%TD*%
D13*
%TO.C,R92*%
X204520800Y-88404200D03*
X204520800Y-86754200D03*
%TD*%
D15*
%TO.C,C75*%
X230645000Y-85344000D03*
X229095000Y-85344000D03*
%TD*%
%TO.C,C42*%
X111366600Y-90678000D03*
X109816600Y-90678000D03*
%TD*%
D13*
%TO.C,R140*%
X225425000Y-31305000D03*
X225425000Y-29655000D03*
%TD*%
D20*
%TO.C,C11*%
X111125000Y-43970000D03*
X111125000Y-44930000D03*
%TD*%
D12*
%TO.C,D15*%
X181737000Y-26644500D03*
X181737000Y-28219500D03*
%TD*%
D21*
%TO.C,U6*%
X103741800Y-87579200D03*
X101591800Y-87579200D03*
D22*
X104616800Y-84729200D03*
X103966800Y-84729200D03*
X103316800Y-84729200D03*
X102666800Y-84734200D03*
X102016800Y-84729200D03*
X101366800Y-84729200D03*
X100716800Y-84729200D03*
X100716800Y-90429200D03*
X101366800Y-90429200D03*
X102016800Y-90429200D03*
X102666800Y-90429200D03*
X103316800Y-90429200D03*
X103966800Y-90429200D03*
X104616800Y-90429200D03*
%TD*%
D12*
%TO.C,D14*%
X183388000Y-26644500D03*
X183388000Y-28219500D03*
%TD*%
D17*
%TO.C,D5*%
X100647500Y-66115200D03*
X100647500Y-62815200D03*
%TD*%
D16*
%TO.C,C8*%
X113312000Y-42164000D03*
X114272000Y-42164000D03*
%TD*%
D11*
%TO.C,C45*%
X147650200Y-66129200D03*
X147650200Y-64579200D03*
%TD*%
D23*
%TO.C,U3*%
X159199700Y-48641000D03*
X159199700Y-49911000D03*
X159199700Y-51181000D03*
X159199700Y-52451000D03*
X164149700Y-52451000D03*
X164149700Y-51181000D03*
X164149700Y-49911000D03*
X164149700Y-48641000D03*
%TD*%
D10*
%TO.C,R24*%
X98260400Y-67767200D03*
X99910400Y-67767200D03*
%TD*%
D13*
%TO.C,R123*%
X225425000Y-66230000D03*
X225425000Y-64580000D03*
%TD*%
D19*
%TO.C,R77*%
X205232000Y-63132200D03*
X205232000Y-64782200D03*
%TD*%
D13*
%TO.C,R141*%
X232537000Y-31305000D03*
X232537000Y-29655000D03*
%TD*%
%TO.C,R144*%
X236347000Y-31305000D03*
X236347000Y-29655000D03*
%TD*%
D15*
%TO.C,C53*%
X135903000Y-90678000D03*
X134353000Y-90678000D03*
%TD*%
D17*
%TO.C,D19*%
X223329500Y-66166000D03*
X223329500Y-62866000D03*
%TD*%
D13*
%TO.C,R49*%
X117729000Y-67881000D03*
X117729000Y-66231000D03*
%TD*%
%TO.C,R39*%
X94120000Y-88455000D03*
X94120000Y-86805000D03*
%TD*%
D24*
%TO.C,D1*%
X209749500Y-109728000D03*
X214049500Y-109728000D03*
%TD*%
D11*
%TO.C,C70*%
X233553000Y-66180000D03*
X233553000Y-64630000D03*
%TD*%
D21*
%TO.C,U13*%
X187469200Y-87579200D03*
X189619200Y-87579200D03*
D22*
X190494200Y-84729200D03*
X189844200Y-84729200D03*
X189194200Y-84729200D03*
X188544200Y-84734200D03*
X187894200Y-84729200D03*
X187244200Y-84729200D03*
X186594200Y-84729200D03*
X186594200Y-90429200D03*
X187244200Y-90429200D03*
X187894200Y-90429200D03*
X188544200Y-90429200D03*
X189194200Y-90429200D03*
X189844200Y-90429200D03*
X190494200Y-90429200D03*
%TD*%
D13*
%TO.C,R127*%
X240538000Y-67881000D03*
X240538000Y-66231000D03*
%TD*%
%TO.C,R29*%
X119380000Y-67881000D03*
X119380000Y-66231000D03*
%TD*%
D12*
%TO.C,D29*%
X216154000Y-26644500D03*
X216154000Y-28219500D03*
%TD*%
D13*
%TO.C,R90*%
X179959000Y-88455000D03*
X179959000Y-86805000D03*
%TD*%
D15*
%TO.C,C77*%
X209512200Y-90678000D03*
X207962200Y-90678000D03*
%TD*%
D13*
%TO.C,R81*%
X180721000Y-67881000D03*
X180721000Y-66231000D03*
%TD*%
D12*
%TO.C,D31*%
X221615000Y-26644500D03*
X221615000Y-28219500D03*
%TD*%
D25*
%TO.C,U2*%
X96796000Y-44970000D03*
X96796000Y-45470000D03*
X96796000Y-45970000D03*
X96796000Y-46470000D03*
X98276000Y-46470000D03*
X98276000Y-45970000D03*
X98276000Y-45470000D03*
X98276000Y-44970000D03*
%TD*%
D13*
%TO.C,R17*%
X176784000Y-31305000D03*
X176784000Y-29655000D03*
%TD*%
%TO.C,R146*%
X241808000Y-31305000D03*
X241808000Y-29655000D03*
%TD*%
D12*
%TO.C,D32*%
X219964000Y-26644500D03*
X219964000Y-28219500D03*
%TD*%
D13*
%TO.C,R94*%
X188645800Y-66179200D03*
X188645800Y-64529200D03*
%TD*%
D12*
%TO.C,D37*%
X237998000Y-26644500D03*
X237998000Y-28219500D03*
%TD*%
D19*
%TO.C,R84*%
X179070000Y-63183000D03*
X179070000Y-64833000D03*
%TD*%
D13*
%TO.C,R67*%
X155448000Y-88455000D03*
X155448000Y-86805000D03*
%TD*%
D15*
%TO.C,C64*%
X206057800Y-85293200D03*
X204507800Y-85293200D03*
%TD*%
D13*
%TO.C,R66*%
X143129000Y-88455000D03*
X143129000Y-86805000D03*
%TD*%
D19*
%TO.C,R33*%
X105537000Y-63183000D03*
X105537000Y-64833000D03*
%TD*%
%TO.C,R88*%
X203581000Y-63132200D03*
X203581000Y-64782200D03*
%TD*%
D11*
%TO.C,C5*%
X99695000Y-31255000D03*
X99695000Y-29705000D03*
%TD*%
D10*
%TO.C,R32*%
X89167200Y-67767200D03*
X90817200Y-67767200D03*
%TD*%
D19*
%TO.C,R117*%
X240538000Y-63183000D03*
X240538000Y-64833000D03*
%TD*%
D13*
%TO.C,R138*%
X219964000Y-31305000D03*
X219964000Y-29655000D03*
%TD*%
%TO.C,R120*%
X229108000Y-88455000D03*
X229108000Y-86805000D03*
%TD*%
D19*
%TO.C,R86*%
X191389000Y-63183000D03*
X191389000Y-64833000D03*
%TD*%
D15*
%TO.C,C39*%
X132474000Y-85344000D03*
X130924000Y-85344000D03*
%TD*%
%TO.C,C66*%
X184975800Y-90678000D03*
X183425800Y-90678000D03*
%TD*%
D14*
%TO.C,C2*%
X92202000Y-44770000D03*
X92202000Y-46670000D03*
%TD*%
D15*
%TO.C,C55*%
X160439400Y-90678000D03*
X158889400Y-90678000D03*
%TD*%
%TO.C,C10*%
X121466600Y-42545000D03*
X119916600Y-42545000D03*
%TD*%
D10*
%TO.C,R63*%
X150508200Y-67767200D03*
X152158200Y-67767200D03*
%TD*%
D21*
%TO.C,U5*%
X89323600Y-87579200D03*
X91473600Y-87579200D03*
D22*
X92348600Y-84729200D03*
X91698600Y-84729200D03*
X91048600Y-84729200D03*
X90398600Y-84734200D03*
X89748600Y-84729200D03*
X89098600Y-84729200D03*
X88448600Y-84729200D03*
X88448600Y-90429200D03*
X89098600Y-90429200D03*
X89748600Y-90429200D03*
X90398600Y-90429200D03*
X91048600Y-90429200D03*
X91698600Y-90429200D03*
X92348600Y-90429200D03*
%TD*%
D19*
%TO.C,R51*%
X143891000Y-63183000D03*
X143891000Y-64833000D03*
%TD*%
D15*
%TO.C,C79*%
X234074000Y-90678000D03*
X232524000Y-90678000D03*
%TD*%
D21*
%TO.C,U10*%
X150664600Y-87579200D03*
X152814600Y-87579200D03*
D22*
X153689600Y-84729200D03*
X153039600Y-84729200D03*
X152389600Y-84729200D03*
X151739600Y-84734200D03*
X151089600Y-84729200D03*
X150439600Y-84729200D03*
X149789600Y-84729200D03*
X149789600Y-90429200D03*
X150439600Y-90429200D03*
X151089600Y-90429200D03*
X151739600Y-90429200D03*
X152389600Y-90429200D03*
X153039600Y-90429200D03*
X153689600Y-90429200D03*
%TD*%
D13*
%TO.C,R132*%
X203581000Y-31305000D03*
X203581000Y-29655000D03*
%TD*%
D15*
%TO.C,C49*%
X169177000Y-89916000D03*
X167627000Y-89916000D03*
%TD*%
D19*
%TO.C,R21*%
X119380000Y-63183000D03*
X119380000Y-64833000D03*
%TD*%
D21*
%TO.C,U14*%
X201887400Y-87579200D03*
X199737400Y-87579200D03*
D22*
X202762400Y-84729200D03*
X202112400Y-84729200D03*
X201462400Y-84729200D03*
X200812400Y-84734200D03*
X200162400Y-84729200D03*
X199512400Y-84729200D03*
X198862400Y-84729200D03*
X198862400Y-90429200D03*
X199512400Y-90429200D03*
X200162400Y-90429200D03*
X200812400Y-90429200D03*
X201462400Y-90429200D03*
X202112400Y-90429200D03*
X202762400Y-90429200D03*
%TD*%
D15*
%TO.C,C59*%
X181496000Y-89916000D03*
X179946000Y-89916000D03*
%TD*%
%TO.C,C43*%
X123634800Y-90678000D03*
X122084800Y-90678000D03*
%TD*%
D19*
%TO.C,R64*%
X166751000Y-63183000D03*
X166751000Y-64833000D03*
%TD*%
D13*
%TO.C,R119*%
X216789000Y-88455000D03*
X216789000Y-86805000D03*
%TD*%
%TO.C,R122*%
X213156800Y-66230000D03*
X213156800Y-64580000D03*
%TD*%
D10*
%TO.C,R5*%
X153525300Y-52451000D03*
X155175300Y-52451000D03*
%TD*%
D17*
%TO.C,D12*%
X186524900Y-66115200D03*
X186524900Y-62815200D03*
%TD*%
D10*
%TO.C,R14*%
X86157096Y-37211000D03*
X87807096Y-37211000D03*
%TD*%
D13*
%TO.C,R44*%
X102768400Y-66179200D03*
X102768400Y-64529200D03*
%TD*%
D10*
%TO.C,R116*%
X224092000Y-67818000D03*
X225742000Y-67818000D03*
%TD*%
D15*
%TO.C,C21*%
X121466600Y-45720000D03*
X119916600Y-45720000D03*
%TD*%
D14*
%TO.C,C18*%
X108204000Y-51694000D03*
X108204000Y-53594000D03*
%TD*%
D15*
%TO.C,C52*%
X169177000Y-85344000D03*
X167627000Y-85344000D03*
%TD*%
D11*
%TO.C,C29*%
X98577400Y-66129200D03*
X98577400Y-64579200D03*
%TD*%
D26*
%TO.C,C6*%
X121600000Y-35941000D03*
X119700000Y-35941000D03*
%TD*%
D13*
%TO.C,R125*%
X215900000Y-67881000D03*
X215900000Y-66231000D03*
%TD*%
D19*
%TO.C,R19*%
X94869000Y-63183000D03*
X94869000Y-64833000D03*
%TD*%
D11*
%TO.C,C26*%
X140462000Y-55766000D03*
X140462000Y-54216000D03*
%TD*%
D19*
%TO.C,R102*%
X217551000Y-63183000D03*
X217551000Y-64833000D03*
%TD*%
D15*
%TO.C,C78*%
X221755000Y-90678000D03*
X220205000Y-90678000D03*
%TD*%
D19*
%TO.C,R31*%
X93218000Y-63183000D03*
X93218000Y-64833000D03*
%TD*%
D13*
%TO.C,R28*%
X107188000Y-67881000D03*
X107188000Y-66231000D03*
%TD*%
%TO.C,R99*%
X183388000Y-31305000D03*
X183388000Y-29655000D03*
%TD*%
%TO.C,R136*%
X214503000Y-31305000D03*
X214503000Y-29655000D03*
%TD*%
%TO.C,R41*%
X118618000Y-88455000D03*
X118618000Y-86805000D03*
%TD*%
%TO.C,R7*%
X102108000Y-47942000D03*
X102108000Y-46292000D03*
%TD*%
D15*
%TO.C,C34*%
X120155000Y-89916000D03*
X118605000Y-89916000D03*
%TD*%
D12*
%TO.C,D34*%
X225425000Y-26644500D03*
X225425000Y-28219500D03*
%TD*%
D19*
%TO.C,R113*%
X215900000Y-63183000D03*
X215900000Y-64833000D03*
%TD*%
D15*
%TO.C,C48*%
X156985000Y-89916000D03*
X155435000Y-89916000D03*
%TD*%
D10*
%TO.C,R78*%
X171869600Y-67767200D03*
X173519600Y-67767200D03*
%TD*%
D13*
%TO.C,R96*%
X179070000Y-67881000D03*
X179070000Y-66231000D03*
%TD*%
D15*
%TO.C,C37*%
X107836000Y-85344000D03*
X106286000Y-85344000D03*
%TD*%
D21*
%TO.C,U16*%
X226423800Y-87630000D03*
X224273800Y-87630000D03*
D22*
X227298800Y-84780000D03*
X226648800Y-84780000D03*
X225998800Y-84780000D03*
X225348800Y-84785000D03*
X224698800Y-84780000D03*
X224048800Y-84780000D03*
X223398800Y-84780000D03*
X223398800Y-90480000D03*
X224048800Y-90480000D03*
X224698800Y-90480000D03*
X225348800Y-90480000D03*
X225998800Y-90480000D03*
X226648800Y-90480000D03*
X227298800Y-90480000D03*
%TD*%
D13*
%TO.C,R69*%
X139573000Y-66179200D03*
X139573000Y-64529200D03*
%TD*%
D19*
%TO.C,R115*%
X228219000Y-63183000D03*
X228219000Y-64833000D03*
%TD*%
D13*
%TO.C,R72*%
X142240000Y-67881000D03*
X142240000Y-66231000D03*
%TD*%
D10*
%TO.C,R38*%
X125971800Y-67767200D03*
X127621800Y-67767200D03*
%TD*%
D12*
%TO.C,D26*%
X203581000Y-26644500D03*
X203581000Y-28219500D03*
%TD*%
D11*
%TO.C,C56*%
X172186600Y-66129200D03*
X172186600Y-64579200D03*
%TD*%
D15*
%TO.C,C71*%
X218326000Y-89916000D03*
X216776000Y-89916000D03*
%TD*%
D27*
%TO.C,R2*%
X121516600Y-40771800D03*
X119866600Y-40771800D03*
%TD*%
D17*
%TO.C,D20*%
X235648500Y-66166000D03*
X235648500Y-62866000D03*
%TD*%
D13*
%TO.C,R134*%
X209042000Y-31305000D03*
X209042000Y-29655000D03*
%TD*%
D11*
%TO.C,C4*%
X100584000Y-44844000D03*
X100584000Y-43294000D03*
%TD*%
D15*
%TO.C,C62*%
X181496000Y-85344000D03*
X179946000Y-85344000D03*
%TD*%
D12*
%TO.C,D25*%
X205232000Y-26644500D03*
X205232000Y-28219500D03*
%TD*%
D13*
%TO.C,R139*%
X227076000Y-31305000D03*
X227076000Y-29655000D03*
%TD*%
D21*
%TO.C,U9*%
X138396400Y-87579200D03*
X140546400Y-87579200D03*
D22*
X141421400Y-84729200D03*
X140771400Y-84729200D03*
X140121400Y-84729200D03*
X139471400Y-84734200D03*
X138821400Y-84729200D03*
X138171400Y-84729200D03*
X137521400Y-84729200D03*
X137521400Y-90429200D03*
X138171400Y-90429200D03*
X138821400Y-90429200D03*
X139471400Y-90429200D03*
X140121400Y-90429200D03*
X140771400Y-90429200D03*
X141421400Y-90429200D03*
%TD*%
D10*
%TO.C,R114*%
X211773000Y-67818000D03*
X213423000Y-67818000D03*
%TD*%
D13*
%TO.C,R133*%
X210693000Y-31305000D03*
X210693000Y-29655000D03*
%TD*%
%TO.C,R30*%
X131699000Y-67881000D03*
X131699000Y-66231000D03*
%TD*%
D15*
%TO.C,C38*%
X120155000Y-85344000D03*
X118605000Y-85344000D03*
%TD*%
D11*
%TO.C,C7*%
X100584000Y-47892000D03*
X100584000Y-46342000D03*
%TD*%
D10*
%TO.C,R1*%
X119866600Y-39247800D03*
X121516600Y-39247800D03*
%TD*%
D20*
%TO.C,C20*%
X172088700Y-50066000D03*
X172088700Y-51026000D03*
%TD*%
D10*
%TO.C,R80*%
X196406000Y-67767200D03*
X198056000Y-67767200D03*
%TD*%
D13*
%TO.C,R50*%
X130048000Y-67881000D03*
X130048000Y-66231000D03*
%TD*%
D10*
%TO.C,R34*%
X101435400Y-67767200D03*
X103085400Y-67767200D03*
%TD*%
%TO.C,R16*%
X86157096Y-40767000D03*
X87807096Y-40767000D03*
%TD*%
D13*
%TO.C,R68*%
X167640000Y-88455000D03*
X167640000Y-86805000D03*
%TD*%
D21*
%TO.C,U17*%
X238692000Y-87630000D03*
X236542000Y-87630000D03*
D22*
X239567000Y-84780000D03*
X238917000Y-84780000D03*
X238267000Y-84780000D03*
X237617000Y-84785000D03*
X236967000Y-84780000D03*
X236317000Y-84780000D03*
X235667000Y-84780000D03*
X235667000Y-90480000D03*
X236317000Y-90480000D03*
X236967000Y-90480000D03*
X237617000Y-90480000D03*
X238267000Y-90480000D03*
X238917000Y-90480000D03*
X239567000Y-90480000D03*
%TD*%
D13*
%TO.C,R70*%
X151841200Y-66179200D03*
X151841200Y-64529200D03*
%TD*%
D10*
%TO.C,R9*%
X86157096Y-31877000D03*
X87807096Y-31877000D03*
%TD*%
D13*
%TO.C,R58*%
X156210000Y-67881000D03*
X156210000Y-66231000D03*
%TD*%
D18*
%TO.C,C15*%
X145316600Y-39912200D03*
X146866600Y-39912200D03*
%TD*%
D13*
%TO.C,R48*%
X105537000Y-67881000D03*
X105537000Y-66231000D03*
%TD*%
D10*
%TO.C,R6*%
X86157096Y-30099000D03*
X87807096Y-30099000D03*
%TD*%
D12*
%TO.C,D23*%
X199771000Y-26644500D03*
X199771000Y-28219500D03*
%TD*%
D28*
%TO.C,C3*%
X90424000Y-44945000D03*
X90424000Y-46495000D03*
%TD*%
D29*
%TO.C,L1*%
X93636000Y-52705000D03*
X101436000Y-52705000D03*
%TD*%
D17*
%TO.C,D6*%
X112915700Y-66115200D03*
X112915700Y-62815200D03*
%TD*%
D13*
%TO.C,R128*%
X192659000Y-31305000D03*
X192659000Y-29655000D03*
%TD*%
D10*
%TO.C,R79*%
X184137800Y-67767200D03*
X185787800Y-67767200D03*
%TD*%
D13*
%TO.C,R101*%
X188849000Y-31305000D03*
X188849000Y-29655000D03*
%TD*%
D15*
%TO.C,C40*%
X86830200Y-90678000D03*
X85280200Y-90678000D03*
%TD*%
D12*
%TO.C,D40*%
X241808000Y-26644500D03*
X241808000Y-28219500D03*
%TD*%
D19*
%TO.C,R76*%
X193040000Y-63183000D03*
X193040000Y-64833000D03*
%TD*%
D17*
%TO.C,D18*%
X211061300Y-66166000D03*
X211061300Y-62866000D03*
%TD*%
D15*
%TO.C,C32*%
X95657000Y-89916000D03*
X94107000Y-89916000D03*
%TD*%
D13*
%TO.C,R57*%
X143891000Y-67881000D03*
X143891000Y-66231000D03*
%TD*%
%TO.C,R42*%
X130937000Y-88455000D03*
X130937000Y-86805000D03*
%TD*%
%TO.C,R46*%
X127304800Y-66179200D03*
X127304800Y-64529200D03*
%TD*%
D12*
%TO.C,D35*%
X232537000Y-26644500D03*
X232537000Y-28219500D03*
%TD*%
D11*
%TO.C,C30*%
X110845600Y-66129200D03*
X110845600Y-64579200D03*
%TD*%
D10*
%TO.C,R85*%
X175044600Y-67767200D03*
X176694600Y-67767200D03*
%TD*%
D11*
%TO.C,C44*%
X135382000Y-66129200D03*
X135382000Y-64579200D03*
%TD*%
D21*
%TO.C,U12*%
X177351000Y-87579200D03*
X175201000Y-87579200D03*
D22*
X178226000Y-84729200D03*
X177576000Y-84729200D03*
X176926000Y-84729200D03*
X176276000Y-84734200D03*
X175626000Y-84729200D03*
X174976000Y-84729200D03*
X174326000Y-84729200D03*
X174326000Y-90429200D03*
X174976000Y-90429200D03*
X175626000Y-90429200D03*
X176276000Y-90429200D03*
X176926000Y-90429200D03*
X177576000Y-90429200D03*
X178226000Y-90429200D03*
%TD*%
D13*
%TO.C,R147*%
X248920000Y-31305000D03*
X248920000Y-29655000D03*
%TD*%
%TO.C,R82*%
X193040000Y-67881000D03*
X193040000Y-66231000D03*
%TD*%
D15*
%TO.C,C74*%
X218326000Y-85344000D03*
X216776000Y-85344000D03*
%TD*%
D12*
%TO.C,D3*%
X176784000Y-26644500D03*
X176784000Y-28219500D03*
%TD*%
D19*
%TO.C,R53*%
X168402000Y-63183000D03*
X168402000Y-64833000D03*
%TD*%
D30*
%TO.C,D2*%
X170232200Y-51496000D03*
X170232200Y-49596000D03*
X168357200Y-50546000D03*
%TD*%
D17*
%TO.C,D8*%
X137452100Y-66115200D03*
X137452100Y-62815200D03*
%TD*%
D10*
%TO.C,R61*%
X138240000Y-67767200D03*
X139890000Y-67767200D03*
%TD*%
%TO.C,R118*%
X236411000Y-67818000D03*
X238061000Y-67818000D03*
%TD*%
D13*
%TO.C,R100*%
X181737000Y-31305000D03*
X181737000Y-29655000D03*
%TD*%
D15*
%TO.C,C27*%
X146866600Y-41695000D03*
X145316600Y-41695000D03*
%TD*%
D12*
%TO.C,D33*%
X227076000Y-26644500D03*
X227076000Y-28219500D03*
%TD*%
%TO.C,D21*%
X194310000Y-26644500D03*
X194310000Y-28219500D03*
%TD*%
D19*
%TO.C,R104*%
X242189000Y-63183000D03*
X242189000Y-64833000D03*
%TD*%
D31*
%TO.C,U4*%
X125716600Y-37311800D03*
X125716600Y-37811800D03*
X125716600Y-38311800D03*
X125716600Y-38811800D03*
X125716600Y-39311800D03*
X125716600Y-39811800D03*
X125716600Y-40311800D03*
X125716600Y-40811800D03*
X125716600Y-41311800D03*
X125716600Y-41811800D03*
X125716600Y-42311800D03*
X125716600Y-42811800D03*
X125716600Y-43311800D03*
X125716600Y-43811800D03*
X125716600Y-44311800D03*
X125716600Y-44811800D03*
X125716600Y-45311800D03*
X125716600Y-45811800D03*
X125716600Y-46311800D03*
X125716600Y-46811800D03*
X125716600Y-47311800D03*
X125716600Y-47811800D03*
X125716600Y-48311800D03*
X125716600Y-48811800D03*
X125716600Y-49311800D03*
D32*
X127391600Y-50986800D03*
X127891600Y-50986800D03*
X128391600Y-50986800D03*
X128891600Y-50986800D03*
X129391600Y-50986800D03*
X129891600Y-50986800D03*
X130391600Y-50986800D03*
X130891600Y-50986800D03*
X131391600Y-50986800D03*
X131891600Y-50986800D03*
X132391600Y-50986800D03*
X132891600Y-50986800D03*
X133391600Y-50986800D03*
X133891600Y-50986800D03*
X134391600Y-50986800D03*
X134891600Y-50986800D03*
X135391600Y-50986800D03*
X135891600Y-50986800D03*
X136391600Y-50986800D03*
X136891600Y-50986800D03*
X137391600Y-50986800D03*
X137891600Y-50986800D03*
X138391600Y-50986800D03*
X138891600Y-50986800D03*
X139391600Y-50986800D03*
D31*
X141066600Y-49311800D03*
X141066600Y-48811800D03*
X141066600Y-48311800D03*
X141066600Y-47811800D03*
X141066600Y-47311800D03*
X141066600Y-46811800D03*
X141066600Y-46311800D03*
X141066600Y-45811800D03*
X141066600Y-45311800D03*
X141066600Y-44811800D03*
X141066600Y-44311800D03*
X141066600Y-43811800D03*
X141066600Y-43311800D03*
X141066600Y-42811800D03*
X141066600Y-42311800D03*
X141066600Y-41811800D03*
X141066600Y-41311800D03*
X141066600Y-40811800D03*
X141066600Y-40311800D03*
X141066600Y-39811800D03*
X141066600Y-39311800D03*
X141066600Y-38811800D03*
X141066600Y-38311800D03*
X141066600Y-37811800D03*
X141066600Y-37311800D03*
D32*
X139391600Y-35636800D03*
X138891600Y-35636800D03*
X138391600Y-35636800D03*
X137891600Y-35636800D03*
X137391600Y-35636800D03*
X136891600Y-35636800D03*
X136391600Y-35636800D03*
X135891600Y-35636800D03*
X135391600Y-35636800D03*
X134891600Y-35636800D03*
X134391600Y-35636800D03*
X133891600Y-35636800D03*
X133391600Y-35636800D03*
X132891600Y-35636800D03*
X132391600Y-35636800D03*
X131891600Y-35636800D03*
X131391600Y-35636800D03*
X130891600Y-35636800D03*
X130391600Y-35636800D03*
X129891600Y-35636800D03*
X129391600Y-35636800D03*
X128891600Y-35636800D03*
X128391600Y-35636800D03*
X127891600Y-35636800D03*
X127391600Y-35636800D03*
%TD*%
D13*
%TO.C,R131*%
X205232000Y-31305000D03*
X205232000Y-29655000D03*
%TD*%
D19*
%TO.C,R20*%
X107188000Y-63183000D03*
X107188000Y-64833000D03*
%TD*%
D21*
%TO.C,U8*%
X128278200Y-87579200D03*
X126128200Y-87579200D03*
D22*
X129153200Y-84729200D03*
X128503200Y-84729200D03*
X127853200Y-84729200D03*
X127203200Y-84734200D03*
X126553200Y-84729200D03*
X125903200Y-84729200D03*
X125253200Y-84729200D03*
X125253200Y-90429200D03*
X125903200Y-90429200D03*
X126553200Y-90429200D03*
X127203200Y-90429200D03*
X127853200Y-90429200D03*
X128503200Y-90429200D03*
X129153200Y-90429200D03*
%TD*%
D13*
%TO.C,R111*%
X242189000Y-67881000D03*
X242189000Y-66231000D03*
%TD*%
%TO.C,R59*%
X168402000Y-67881000D03*
X168402000Y-66231000D03*
%TD*%
D10*
%TO.C,R89*%
X199581000Y-67767200D03*
X201231000Y-67767200D03*
%TD*%
D17*
%TO.C,D7*%
X125183900Y-66115200D03*
X125183900Y-62815200D03*
%TD*%
D33*
%TO.C,U1*%
X90594096Y-31619000D03*
X90594096Y-32269000D03*
X90594096Y-32919000D03*
X90594096Y-33569000D03*
X90594096Y-34219000D03*
X90594096Y-34869000D03*
X90594096Y-35519000D03*
X90594096Y-36169000D03*
X90594096Y-36819000D03*
X90594096Y-37469000D03*
X97594096Y-37469000D03*
X97594096Y-36819000D03*
X97594096Y-36169000D03*
X97594096Y-35519000D03*
X97594096Y-34869000D03*
X97594096Y-34219000D03*
X97594096Y-33569000D03*
X97594096Y-32919000D03*
X97594096Y-32269000D03*
X97594096Y-31619000D03*
%TD*%
D13*
%TO.C,R97*%
X191389000Y-67881000D03*
X191389000Y-66231000D03*
%TD*%
D15*
%TO.C,C73*%
X242964000Y-89916000D03*
X241414000Y-89916000D03*
%TD*%
%TO.C,C61*%
X206057800Y-89865200D03*
X204507800Y-89865200D03*
%TD*%
D13*
%TO.C,R121*%
X241427000Y-88455000D03*
X241427000Y-86805000D03*
%TD*%
D10*
%TO.C,R54*%
X135065000Y-67767200D03*
X136715000Y-67767200D03*
%TD*%
%TO.C,R87*%
X187312800Y-67767200D03*
X188962800Y-67767200D03*
%TD*%
D12*
%TO.C,D17*%
X187198000Y-26644500D03*
X187198000Y-28219500D03*
%TD*%
D13*
%TO.C,R142*%
X230886000Y-31305000D03*
X230886000Y-29655000D03*
%TD*%
%TO.C,R130*%
X198120000Y-31305000D03*
X198120000Y-29655000D03*
%TD*%
D15*
%TO.C,C51*%
X156985000Y-85344000D03*
X155435000Y-85344000D03*
%TD*%
D13*
%TO.C,R71*%
X164109400Y-66179200D03*
X164109400Y-64529200D03*
%TD*%
D12*
%TO.C,D22*%
X192659000Y-26644500D03*
X192659000Y-28219500D03*
%TD*%
D17*
%TO.C,D4*%
X88379300Y-66115200D03*
X88379300Y-62815200D03*
%TD*%
D15*
%TO.C,C9*%
X121466600Y-37723800D03*
X119916600Y-37723800D03*
%TD*%
D13*
%TO.C,R135*%
X216154000Y-31305000D03*
X216154000Y-29655000D03*
%TD*%
D19*
%TO.C,R18*%
X130343600Y-29786800D03*
X130343600Y-31436800D03*
%TD*%
D11*
%TO.C,C28*%
X86309200Y-66129200D03*
X86309200Y-64579200D03*
%TD*%
D15*
%TO.C,C54*%
X148171200Y-90678000D03*
X146621200Y-90678000D03*
%TD*%
D10*
%TO.C,R10*%
X112967000Y-46863000D03*
X114617000Y-46863000D03*
%TD*%
%TO.C,R12*%
X86157096Y-35433000D03*
X87807096Y-35433000D03*
%TD*%
D13*
%TO.C,R47*%
X93218000Y-67881000D03*
X93218000Y-66231000D03*
%TD*%
%TO.C,R129*%
X199771000Y-31305000D03*
X199771000Y-29655000D03*
%TD*%
D15*
%TO.C,C41*%
X99098400Y-90678000D03*
X97548400Y-90678000D03*
%TD*%
D19*
%TO.C,R62*%
X154559000Y-63183000D03*
X154559000Y-64833000D03*
%TD*%
%TO.C,R37*%
X130048000Y-63183000D03*
X130048000Y-64833000D03*
%TD*%
D12*
%TO.C,D42*%
X247269000Y-26644500D03*
X247269000Y-28219500D03*
%TD*%
%TO.C,D24*%
X198120000Y-26644500D03*
X198120000Y-28219500D03*
%TD*%
D17*
%TO.C,D11*%
X174256700Y-66115200D03*
X174256700Y-62815200D03*
%TD*%
D10*
%TO.C,R36*%
X113703600Y-67767200D03*
X115353600Y-67767200D03*
%TD*%
D12*
%TO.C,D41*%
X248920000Y-26644500D03*
X248920000Y-28219500D03*
%TD*%
D14*
%TO.C,C16*%
X106172000Y-51694000D03*
X106172000Y-53594000D03*
%TD*%
D13*
%TO.C,R112*%
X194310000Y-31305000D03*
X194310000Y-29655000D03*
%TD*%
%TO.C,R108*%
X187198000Y-31305000D03*
X187198000Y-29655000D03*
%TD*%
%TO.C,R73*%
X154559000Y-67881000D03*
X154559000Y-66231000D03*
%TD*%
%TO.C,R27*%
X94869000Y-67881000D03*
X94869000Y-66231000D03*
%TD*%
%TO.C,R43*%
X90500200Y-66179200D03*
X90500200Y-64529200D03*
%TD*%
D19*
%TO.C,R60*%
X142240000Y-63183000D03*
X142240000Y-64833000D03*
%TD*%
D15*
%TO.C,C65*%
X172707600Y-90678000D03*
X171157600Y-90678000D03*
%TD*%
D10*
%TO.C,R56*%
X159601400Y-67767200D03*
X161251400Y-67767200D03*
%TD*%
%TO.C,R107*%
X233236000Y-67818000D03*
X234886000Y-67818000D03*
%TD*%
D11*
%TO.C,C13*%
X126238000Y-31386800D03*
X126238000Y-29836800D03*
%TD*%
D12*
%TO.C,D36*%
X230886000Y-26644500D03*
X230886000Y-28219500D03*
%TD*%
D21*
%TO.C,U7*%
X116010000Y-87579200D03*
X113860000Y-87579200D03*
D22*
X116885000Y-84729200D03*
X116235000Y-84729200D03*
X115585000Y-84729200D03*
X114935000Y-84734200D03*
X114285000Y-84729200D03*
X113635000Y-84729200D03*
X112985000Y-84729200D03*
X112985000Y-90429200D03*
X113635000Y-90429200D03*
X114285000Y-90429200D03*
X114935000Y-90429200D03*
X115585000Y-90429200D03*
X116235000Y-90429200D03*
X116885000Y-90429200D03*
%TD*%
D15*
%TO.C,C47*%
X144666000Y-89916000D03*
X143116000Y-89916000D03*
%TD*%
D12*
%TO.C,D30*%
X214503000Y-26644500D03*
X214503000Y-28219500D03*
%TD*%
D13*
%TO.C,R8*%
X102108000Y-44894000D03*
X102108000Y-43244000D03*
%TD*%
D15*
%TO.C,C36*%
X95657000Y-85344000D03*
X94107000Y-85344000D03*
%TD*%
D13*
%TO.C,R124*%
X237744000Y-66230000D03*
X237744000Y-64580000D03*
%TD*%
%TO.C,R91*%
X192278000Y-88455000D03*
X192278000Y-86805000D03*
%TD*%
%TO.C,R126*%
X228219000Y-67881000D03*
X228219000Y-66231000D03*
%TD*%
%TO.C,R145*%
X243459000Y-31305000D03*
X243459000Y-29655000D03*
%TD*%
D11*
%TO.C,C68*%
X208965800Y-66180000D03*
X208965800Y-64630000D03*
%TD*%
D10*
%TO.C,R23*%
X85992200Y-67767200D03*
X87642200Y-67767200D03*
%TD*%
D12*
%TO.C,D27*%
X210693000Y-26644500D03*
X210693000Y-28219500D03*
%TD*%
%TO.C,D16*%
X188849000Y-26644500D03*
X188849000Y-28219500D03*
%TD*%
D13*
%TO.C,R40*%
X106299000Y-88455000D03*
X106299000Y-86805000D03*
%TD*%
D15*
%TO.C,C33*%
X107836000Y-89916000D03*
X106286000Y-89916000D03*
%TD*%
%TO.C,C76*%
X242964000Y-85344000D03*
X241414000Y-85344000D03*
%TD*%
%TO.C,C12*%
X155125300Y-50546000D03*
X153575300Y-50546000D03*
%TD*%
%TO.C,C25*%
X121466600Y-49280800D03*
X119916600Y-49280800D03*
%TD*%
D10*
%TO.C,R26*%
X122796800Y-67767200D03*
X124446800Y-67767200D03*
%TD*%
D34*
%TO.C,Y1*%
X114890600Y-43565800D03*
X112690600Y-43565800D03*
X112690600Y-45265800D03*
X114890600Y-45265800D03*
%TD*%
D12*
%TO.C,D39*%
X243459000Y-26644500D03*
X243459000Y-28219500D03*
%TD*%
D21*
%TO.C,U11*%
X162932800Y-87579200D03*
X165082800Y-87579200D03*
D22*
X165957800Y-84729200D03*
X165307800Y-84729200D03*
X164657800Y-84729200D03*
X164007800Y-84734200D03*
X163357800Y-84729200D03*
X162707800Y-84729200D03*
X162057800Y-84729200D03*
X162057800Y-90429200D03*
X162707800Y-90429200D03*
X163357800Y-90429200D03*
X164007800Y-90429200D03*
X164657800Y-90429200D03*
X165307800Y-90429200D03*
X165957800Y-90429200D03*
%TD*%
D13*
%TO.C,R110*%
X229870000Y-67881000D03*
X229870000Y-66231000D03*
%TD*%
D15*
%TO.C,C67*%
X197244000Y-90627200D03*
X195694000Y-90627200D03*
%TD*%
D13*
%TO.C,R93*%
X176377600Y-66179200D03*
X176377600Y-64529200D03*
%TD*%
D19*
%TO.C,R13*%
X173739700Y-49721000D03*
X173739700Y-51371000D03*
%TD*%
%TO.C,R75*%
X180721000Y-63183000D03*
X180721000Y-64833000D03*
%TD*%
D13*
%TO.C,R137*%
X221615000Y-31305000D03*
X221615000Y-29655000D03*
%TD*%
D15*
%TO.C,C72*%
X230645000Y-89916000D03*
X229095000Y-89916000D03*
%TD*%
D13*
%TO.C,R98*%
X203581000Y-67830200D03*
X203581000Y-66180200D03*
%TD*%
%TO.C,R74*%
X166751000Y-67881000D03*
X166751000Y-66231000D03*
%TD*%
D15*
%TO.C,C50*%
X144666000Y-85344000D03*
X143116000Y-85344000D03*
%TD*%
D21*
%TO.C,U15*%
X212005600Y-87630000D03*
X214155600Y-87630000D03*
D22*
X215030600Y-84780000D03*
X214380600Y-84780000D03*
X213730600Y-84780000D03*
X213080600Y-84785000D03*
X212430600Y-84780000D03*
X211780600Y-84780000D03*
X211130600Y-84780000D03*
X211130600Y-90480000D03*
X211780600Y-90480000D03*
X212430600Y-90480000D03*
X213080600Y-90480000D03*
X213730600Y-90480000D03*
X214380600Y-90480000D03*
X215030600Y-90480000D03*
%TD*%
D13*
%TO.C,R95*%
X200914000Y-66179200D03*
X200914000Y-64529200D03*
%TD*%
%TO.C,R83*%
X205232000Y-67830200D03*
X205232000Y-66180200D03*
%TD*%
D11*
%TO.C,C69*%
X221234000Y-66180000D03*
X221234000Y-64630000D03*
%TD*%
D18*
%TO.C,C22*%
X175631700Y-49657000D03*
X177181700Y-49657000D03*
%TD*%
D10*
%TO.C,R4*%
X153525300Y-48641000D03*
X155175300Y-48641000D03*
%TD*%
D13*
%TO.C,R45*%
X115036600Y-66179200D03*
X115036600Y-64529200D03*
%TD*%
D15*
%TO.C,C35*%
X132474000Y-89916000D03*
X130924000Y-89916000D03*
%TD*%
D28*
%TO.C,C17*%
X141986000Y-54203000D03*
X141986000Y-55753000D03*
%TD*%
D13*
%TO.C,R109*%
X217551000Y-67881000D03*
X217551000Y-66231000D03*
%TD*%
D17*
%TO.C,D13*%
X198793100Y-66115200D03*
X198793100Y-62815200D03*
%TD*%
D19*
%TO.C,R35*%
X117729000Y-63183000D03*
X117729000Y-64833000D03*
%TD*%
D10*
%TO.C,R11*%
X86157096Y-33655000D03*
X87807096Y-33655000D03*
%TD*%
D11*
%TO.C,C58*%
X196723000Y-66129200D03*
X196723000Y-64579200D03*
%TD*%
D19*
%TO.C,R52*%
X156210000Y-63183000D03*
X156210000Y-64833000D03*
%TD*%
D11*
%TO.C,C57*%
X184454800Y-66129200D03*
X184454800Y-64579200D03*
%TD*%
D13*
%TO.C,R143*%
X237998000Y-31305000D03*
X237998000Y-29655000D03*
%TD*%
D12*
%TO.C,D38*%
X236347000Y-26644500D03*
X236347000Y-28219500D03*
%TD*%
D10*
%TO.C,R3*%
X86170000Y-28320176D03*
X87820000Y-28320176D03*
%TD*%
D19*
%TO.C,R103*%
X229870000Y-63183000D03*
X229870000Y-64833000D03*
%TD*%
D28*
%TO.C,C19*%
X127254000Y-54216000D03*
X127254000Y-55766000D03*
%TD*%
M02*
