G04 #@! TF.GenerationSoftware,KiCad,Pcbnew,8.0.5*
G04 #@! TF.CreationDate,2024-09-26T22:39:59-05:00*
G04 #@! TF.ProjectId,PDM v3.1,50444d20-7633-42e3-912e-6b696361645f,rev?*
G04 #@! TF.SameCoordinates,Original*
G04 #@! TF.FileFunction,Soldermask,Top*
G04 #@! TF.FilePolarity,Negative*
%FSLAX46Y46*%
G04 Gerber Fmt 4.6, Leading zero omitted, Abs format (unit mm)*
G04 Created by KiCad (PCBNEW 8.0.5) date 2024-09-26 22:39:59*
%MOMM*%
%LPD*%
G01*
G04 APERTURE LIST*
G04 Aperture macros list*
%AMRoundRect*
0 Rectangle with rounded corners*
0 $1 Rounding radius*
0 $2 $3 $4 $5 $6 $7 $8 $9 X,Y pos of 4 corners*
0 Add a 4 corners polygon primitive as box body*
4,1,4,$2,$3,$4,$5,$6,$7,$8,$9,$2,$3,0*
0 Add four circle primitives for the rounded corners*
1,1,$1+$1,$2,$3*
1,1,$1+$1,$4,$5*
1,1,$1+$1,$6,$7*
1,1,$1+$1,$8,$9*
0 Add four rect primitives between the rounded corners*
20,1,$1+$1,$2,$3,$4,$5,0*
20,1,$1+$1,$4,$5,$6,$7,0*
20,1,$1+$1,$6,$7,$8,$9,0*
20,1,$1+$1,$8,$9,$2,$3,0*%
%AMFreePoly0*
4,1,21,1.372500,0.787500,0.862500,0.787500,0.862500,0.532500,1.372500,0.532500,1.372500,0.127500,0.862500,0.127500,0.862500,-0.127500,1.372500,-0.127500,1.372500,-0.532500,0.862500,-0.532500,0.862500,-0.787500,1.372500,-0.787500,1.372500,-1.195000,0.612500,-1.195000,0.612500,-1.117500,-0.862500,-1.117500,-0.862500,1.117500,0.612500,1.117500,0.612500,1.195000,1.372500,1.195000,
1.372500,0.787500,1.372500,0.787500,$1*%
G04 Aperture macros list end*
%ADD10C,0.751000*%
%ADD11C,0.010000*%
%ADD12RoundRect,0.218750X0.218750X0.256250X-0.218750X0.256250X-0.218750X-0.256250X0.218750X-0.256250X0*%
%ADD13RoundRect,0.200000X0.200000X0.275000X-0.200000X0.275000X-0.200000X-0.275000X0.200000X-0.275000X0*%
%ADD14RoundRect,0.250000X-0.475000X0.250000X-0.475000X-0.250000X0.475000X-0.250000X0.475000X0.250000X0*%
%ADD15C,12.800000*%
%ADD16RoundRect,0.140000X-0.170000X0.140000X-0.170000X-0.140000X0.170000X-0.140000X0.170000X0.140000X0*%
%ADD17RoundRect,0.140000X0.170000X-0.140000X0.170000X0.140000X-0.170000X0.140000X-0.170000X-0.140000X0*%
%ADD18RoundRect,0.150000X-0.200000X0.150000X-0.200000X-0.150000X0.200000X-0.150000X0.200000X0.150000X0*%
%ADD19RoundRect,0.150000X-0.150000X0.825000X-0.150000X-0.825000X0.150000X-0.825000X0.150000X0.825000X0*%
%ADD20C,2.374900*%
%ADD21C,0.990600*%
%ADD22C,0.991400*%
%ADD23RoundRect,0.250000X-0.375000X-0.625000X0.375000X-0.625000X0.375000X0.625000X-0.375000X0.625000X0*%
%ADD24C,1.020000*%
%ADD25RoundRect,0.250001X0.499999X-0.499999X0.499999X0.499999X-0.499999X0.499999X-0.499999X-0.499999X0*%
%ADD26C,1.500000*%
%ADD27RoundRect,0.200000X-0.275000X0.200000X-0.275000X-0.200000X0.275000X-0.200000X0.275000X0.200000X0*%
%ADD28RoundRect,0.250000X-0.250000X-0.475000X0.250000X-0.475000X0.250000X0.475000X-0.250000X0.475000X0*%
%ADD29RoundRect,0.150000X0.150000X-0.825000X0.150000X0.825000X-0.150000X0.825000X-0.150000X-0.825000X0*%
%ADD30C,3.200000*%
%ADD31RoundRect,0.225000X-0.225000X-0.250000X0.225000X-0.250000X0.225000X0.250000X-0.225000X0.250000X0*%
%ADD32RoundRect,0.200000X-0.200000X-0.275000X0.200000X-0.275000X0.200000X0.275000X-0.200000X0.275000X0*%
%ADD33RoundRect,0.225000X-0.250000X0.225000X-0.250000X-0.225000X0.250000X-0.225000X0.250000X0.225000X0*%
%ADD34C,3.700000*%
%ADD35R,0.990000X0.405000*%
%ADD36FreePoly0,0.000000*%
%ADD37RoundRect,0.200000X0.275000X-0.200000X0.275000X0.200000X-0.275000X0.200000X-0.275000X-0.200000X0*%
%ADD38RoundRect,0.500000X-1.100000X0.500000X-1.100000X-0.500000X1.100000X-0.500000X1.100000X0.500000X0*%
%ADD39FreePoly0,180.000000*%
%ADD40C,1.400000*%
%ADD41RoundRect,0.225000X0.225000X0.250000X-0.225000X0.250000X-0.225000X-0.250000X0.225000X-0.250000X0*%
%ADD42C,3.300000*%
%ADD43RoundRect,0.102000X-0.975000X-0.975000X0.975000X-0.975000X0.975000X0.975000X-0.975000X0.975000X0*%
%ADD44C,2.154000*%
%ADD45O,1.700000X1.700000*%
%ADD46O,1.350000X1.350000*%
%ADD47R,0.300000X0.670000*%
%ADD48R,0.650000X0.400000*%
%ADD49RoundRect,0.250000X0.475000X-0.250000X0.475000X0.250000X-0.475000X0.250000X-0.475000X-0.250000X0*%
%ADD50C,1.420000*%
%ADD51RoundRect,0.102000X0.370000X1.110000X-0.370000X1.110000X-0.370000X-1.110000X0.370000X-1.110000X0*%
%ADD52RoundRect,0.218750X0.256250X-0.218750X0.256250X0.218750X-0.256250X0.218750X-0.256250X-0.218750X0*%
%ADD53RoundRect,0.250000X1.000000X0.900000X-1.000000X0.900000X-1.000000X-0.900000X1.000000X-0.900000X0*%
G04 APERTURE END LIST*
D10*
X82136633Y-75641991D02*
G75*
G02*
X81385633Y-75641991I-375500J0D01*
G01*
X81385633Y-75641991D02*
G75*
G02*
X82136633Y-75641991I375500J0D01*
G01*
X82136633Y-82625991D02*
G75*
G02*
X81385633Y-82625991I-375500J0D01*
G01*
X81385633Y-82625991D02*
G75*
G02*
X82136633Y-82625991I375500J0D01*
G01*
D11*
X81557133Y-77649991D02*
X79235133Y-77649991D01*
X79235133Y-76807991D01*
X81557133Y-76807991D01*
X81557133Y-77649991D01*
G36*
X81557133Y-77649991D02*
G01*
X79235133Y-77649991D01*
X79235133Y-76807991D01*
X81557133Y-76807991D01*
X81557133Y-77649991D01*
G37*
X81557133Y-78919991D02*
X79235133Y-78919991D01*
X79235133Y-78077991D01*
X81557133Y-78077991D01*
X81557133Y-78919991D01*
G36*
X81557133Y-78919991D02*
G01*
X79235133Y-78919991D01*
X79235133Y-78077991D01*
X81557133Y-78077991D01*
X81557133Y-78919991D01*
G37*
X81557133Y-80189991D02*
X79235133Y-80189991D01*
X79235133Y-79347991D01*
X81557133Y-79347991D01*
X81557133Y-80189991D01*
G36*
X81557133Y-80189991D02*
G01*
X79235133Y-80189991D01*
X79235133Y-79347991D01*
X81557133Y-79347991D01*
X81557133Y-80189991D01*
G37*
X81557133Y-81459991D02*
X79235133Y-81459991D01*
X79235133Y-80617991D01*
X81557133Y-80617991D01*
X81557133Y-81459991D01*
G36*
X81557133Y-81459991D02*
G01*
X79235133Y-81459991D01*
X79235133Y-80617991D01*
X81557133Y-80617991D01*
X81557133Y-81459991D01*
G37*
X84287133Y-77649991D02*
X81965133Y-77649991D01*
X81965133Y-76807991D01*
X84287133Y-76807991D01*
X84287133Y-77649991D01*
G36*
X84287133Y-77649991D02*
G01*
X81965133Y-77649991D01*
X81965133Y-76807991D01*
X84287133Y-76807991D01*
X84287133Y-77649991D01*
G37*
X84287133Y-78919991D02*
X81965133Y-78919991D01*
X81965133Y-78077991D01*
X84287133Y-78077991D01*
X84287133Y-78919991D01*
G36*
X84287133Y-78919991D02*
G01*
X81965133Y-78919991D01*
X81965133Y-78077991D01*
X84287133Y-78077991D01*
X84287133Y-78919991D01*
G37*
X84287133Y-80189991D02*
X81965133Y-80189991D01*
X81965133Y-79347991D01*
X84287133Y-79347991D01*
X84287133Y-80189991D01*
G36*
X84287133Y-80189991D02*
G01*
X81965133Y-80189991D01*
X81965133Y-79347991D01*
X84287133Y-79347991D01*
X84287133Y-80189991D01*
G37*
X84287133Y-81459991D02*
X81965133Y-81459991D01*
X81965133Y-80617991D01*
X84287133Y-80617991D01*
X84287133Y-81459991D01*
G36*
X84287133Y-81459991D02*
G01*
X81965133Y-81459991D01*
X81965133Y-80617991D01*
X84287133Y-80617991D01*
X84287133Y-81459991D01*
G37*
D12*
X82850995Y-113775276D03*
X81275995Y-113775276D03*
D13*
X143729164Y-75107757D03*
X142079164Y-75107757D03*
D14*
X163510637Y-48235991D03*
X163510637Y-50135991D03*
D15*
X208000000Y-109380000D03*
D16*
X162085637Y-75120991D03*
X162085637Y-76080991D03*
D17*
X195309637Y-88978991D03*
X195309637Y-88018991D03*
X126591164Y-80095757D03*
X126591164Y-79135757D03*
D14*
X161370637Y-48235991D03*
X161370637Y-50135991D03*
D18*
X169070000Y-77507500D03*
X169070000Y-76107500D03*
D12*
X82850995Y-107736705D03*
X81275995Y-107736705D03*
D19*
X193883588Y-84108491D03*
X192613588Y-84108491D03*
X191343588Y-84108491D03*
X190073588Y-84108491D03*
X190073588Y-89058491D03*
X191343588Y-89058491D03*
X192613588Y-89058491D03*
X193883588Y-89058491D03*
D20*
X86390000Y-84035000D03*
D21*
X86390000Y-86575000D03*
D20*
X86390000Y-89115000D03*
X89565000Y-84035000D03*
X89565000Y-89115000D03*
D21*
X91470000Y-85559000D03*
X91470000Y-87591000D03*
D22*
X87660000Y-87210000D03*
X87660000Y-85940000D03*
X88930000Y-87210000D03*
X88930000Y-85940000D03*
X90200000Y-87210000D03*
X90200000Y-85940000D03*
D23*
X145525637Y-46590991D03*
X148325637Y-46590991D03*
D24*
X99150000Y-87500000D03*
X99150000Y-75500000D03*
D25*
X95210000Y-84500000D03*
D26*
X95210000Y-81500000D03*
X95210000Y-78500000D03*
X98210000Y-84500000D03*
X98210000Y-81500000D03*
X98210000Y-78500000D03*
D27*
X138499588Y-94165757D03*
X138499588Y-95815757D03*
D13*
X209442686Y-79311991D03*
X207792686Y-79311991D03*
D18*
X169070000Y-105625991D03*
X169070000Y-104225991D03*
D28*
X175450637Y-46710991D03*
X177350637Y-46710991D03*
D29*
X163503588Y-79761491D03*
X164773588Y-79761491D03*
X166043588Y-79761491D03*
X167313588Y-79761491D03*
X167313588Y-74811491D03*
X166043588Y-74811491D03*
X164773588Y-74811491D03*
X163503588Y-74811491D03*
D30*
X219750000Y-126210000D03*
X76940000Y-44570000D03*
D31*
X206980637Y-81104991D03*
X208530637Y-81104991D03*
D28*
X175450637Y-43700991D03*
X177350637Y-43700991D03*
D32*
X131950637Y-103120991D03*
X133600637Y-103120991D03*
D33*
X115159164Y-78824757D03*
X115159164Y-80374757D03*
D34*
X109431588Y-70247757D03*
D33*
X162400637Y-41715991D03*
X162400637Y-43265991D03*
D16*
X162045637Y-83230991D03*
X162045637Y-84190991D03*
D35*
X158921088Y-95016491D03*
X158921088Y-95676491D03*
X158921088Y-96336491D03*
X158921088Y-96996491D03*
D36*
X160913588Y-96006491D03*
D37*
X135735637Y-76265991D03*
X135735637Y-74615991D03*
D30*
X219750000Y-44570000D03*
D38*
X170340637Y-41680991D03*
X170340637Y-49480991D03*
D33*
X117699164Y-78874757D03*
X117699164Y-80424757D03*
D13*
X162305637Y-46550991D03*
X160655637Y-46550991D03*
D32*
X160650637Y-44910991D03*
X162300637Y-44910991D03*
D34*
X109431588Y-101235757D03*
D37*
X137325637Y-76265991D03*
X137325637Y-74615991D03*
D35*
X198466088Y-85653491D03*
X198466088Y-84993491D03*
X198466088Y-84333491D03*
X198466088Y-83673491D03*
D39*
X196473588Y-84663491D03*
D32*
X210421637Y-83644991D03*
X212071637Y-83644991D03*
D34*
X99173133Y-69620991D03*
D33*
X123339164Y-78791757D03*
X123339164Y-80341757D03*
D32*
X212581637Y-96344991D03*
X214231637Y-96344991D03*
D34*
X140419588Y-101235757D03*
D31*
X138299164Y-80239757D03*
X139849164Y-80239757D03*
D12*
X82850995Y-111762419D03*
X81275995Y-111762419D03*
D40*
X81761133Y-82625991D03*
X81761133Y-75641991D03*
D16*
X162075637Y-91760991D03*
X162075637Y-92720991D03*
D41*
X165955637Y-41460991D03*
X164405637Y-41460991D03*
D42*
X104915637Y-126000991D03*
X143415637Y-126000991D03*
D43*
X112165637Y-111500991D03*
D44*
X115165637Y-111500991D03*
X118165637Y-111500991D03*
X121165637Y-111500991D03*
X124165637Y-111500991D03*
X127165637Y-111500991D03*
X130165637Y-111500991D03*
X133165637Y-111500991D03*
X136165637Y-111500991D03*
X113665637Y-114000991D03*
X116665637Y-114000991D03*
X119665637Y-114000991D03*
X122665637Y-114000991D03*
X125665637Y-114000991D03*
X128665637Y-114000991D03*
X131665637Y-114000991D03*
X134665637Y-114000991D03*
X113665637Y-117000991D03*
X116665637Y-117000991D03*
X119665637Y-117000991D03*
X122665637Y-117000991D03*
X125665637Y-117000991D03*
X128665637Y-117000991D03*
X131665637Y-117000991D03*
X134665637Y-117000991D03*
X112165637Y-119500991D03*
X115165637Y-119500991D03*
X118165637Y-119500991D03*
X121165637Y-119500991D03*
X124165637Y-119500991D03*
X127165637Y-119500991D03*
X130165637Y-119500991D03*
X133165637Y-119500991D03*
X136165637Y-119500991D03*
D13*
X208897637Y-83644991D03*
X207247637Y-83644991D03*
D33*
X207501637Y-96585991D03*
X207501637Y-98135991D03*
D13*
X143961164Y-91139757D03*
X142311164Y-91139757D03*
D45*
X86625637Y-58710991D03*
X89165637Y-58710991D03*
X91705637Y-58710991D03*
X94245637Y-58710991D03*
X96785637Y-58710991D03*
X99325637Y-58710991D03*
X101865637Y-58710991D03*
X104405637Y-58710991D03*
X106945637Y-58710991D03*
X109485637Y-58710991D03*
X112025637Y-58710991D03*
X114565637Y-58710991D03*
X117105637Y-58710991D03*
X117105637Y-43470991D03*
X114565637Y-43470991D03*
X112025637Y-43470991D03*
X109485637Y-43470991D03*
X106945637Y-43470991D03*
X104405637Y-43470991D03*
X101865637Y-43470991D03*
X99325637Y-43470991D03*
X96785637Y-43470991D03*
X94245637Y-43470991D03*
X91705637Y-43470991D03*
X122185637Y-58710991D03*
X124725637Y-58710991D03*
X127265637Y-58710991D03*
X129805637Y-58710991D03*
X132345637Y-58710991D03*
X134885637Y-58710991D03*
X137425637Y-58710991D03*
X139965637Y-58710991D03*
X142505637Y-58710991D03*
X142505637Y-43470991D03*
X139965637Y-43470991D03*
X137425637Y-43470991D03*
X134885637Y-43470991D03*
X132345637Y-43470991D03*
X129805637Y-43470991D03*
X127265637Y-43470991D03*
X124725637Y-43470991D03*
X122185637Y-43470991D03*
X119645637Y-43470991D03*
X86625637Y-43470991D03*
X84085637Y-58710991D03*
X84085637Y-43470991D03*
X89165637Y-43470991D03*
X119645637Y-58710991D03*
D46*
X97055637Y-45925991D03*
X97055637Y-47925991D03*
X97055637Y-49925991D03*
X99055637Y-49925991D03*
X99055637Y-47925991D03*
X99055637Y-45925991D03*
D45*
X86625637Y-46010991D03*
X90435637Y-55670991D03*
X92975637Y-55670991D03*
X95515637Y-55670991D03*
X98055637Y-55670991D03*
X100595637Y-55670991D03*
X129805637Y-56170991D03*
X129805637Y-53630991D03*
X129805637Y-51090991D03*
X129805637Y-48550991D03*
X129805637Y-46010991D03*
D12*
X82850995Y-105723848D03*
X81275995Y-105723848D03*
D13*
X143739588Y-76675757D03*
X142089588Y-76675757D03*
D28*
X175450637Y-49720991D03*
X177350637Y-49720991D03*
D23*
X145825637Y-103150991D03*
X148625637Y-103150991D03*
D34*
X140419588Y-70247757D03*
D35*
X198531088Y-102463491D03*
X198531088Y-101803491D03*
X198531088Y-101143491D03*
X198531088Y-100483491D03*
D39*
X196538588Y-101473491D03*
D34*
X81087133Y-69620991D03*
D30*
X76940000Y-126210000D03*
D19*
X193948588Y-100918491D03*
X192678588Y-100918491D03*
X191408588Y-100918491D03*
X190138588Y-100918491D03*
X190138588Y-105868491D03*
X191408588Y-105868491D03*
X192678588Y-105868491D03*
X193948588Y-105868491D03*
D13*
X211183637Y-96344991D03*
X209533637Y-96344991D03*
D31*
X207234637Y-85422991D03*
X208784637Y-85422991D03*
D12*
X82850995Y-115788133D03*
X81275995Y-115788133D03*
X82850995Y-109749562D03*
X81275995Y-109749562D03*
D41*
X126649164Y-81925757D03*
X125099164Y-81925757D03*
D12*
X82890995Y-117800991D03*
X81315995Y-117800991D03*
D42*
X152115637Y-126000991D03*
X190615637Y-126000991D03*
D43*
X159365637Y-111500991D03*
D44*
X162365637Y-111500991D03*
X165365637Y-111500991D03*
X168365637Y-111500991D03*
X171365637Y-111500991D03*
X174365637Y-111500991D03*
X177365637Y-111500991D03*
X180365637Y-111500991D03*
X183365637Y-111500991D03*
X160865637Y-114000991D03*
X163865637Y-114000991D03*
X166865637Y-114000991D03*
X169865637Y-114000991D03*
X172865637Y-114000991D03*
X175865637Y-114000991D03*
X178865637Y-114000991D03*
X181865637Y-114000991D03*
X160865637Y-117000991D03*
X163865637Y-117000991D03*
X166865637Y-117000991D03*
X169865637Y-117000991D03*
X172865637Y-117000991D03*
X175865637Y-117000991D03*
X178865637Y-117000991D03*
X181865637Y-117000991D03*
X159365637Y-119500991D03*
X162365637Y-119500991D03*
X165365637Y-119500991D03*
X168365637Y-119500991D03*
X171365637Y-119500991D03*
X174365637Y-119500991D03*
X177365637Y-119500991D03*
X180365637Y-119500991D03*
X183365637Y-119500991D03*
D47*
X163820637Y-46940991D03*
X164320637Y-46940991D03*
X164820637Y-46940991D03*
X165320637Y-46940991D03*
X165320637Y-45460991D03*
X164820637Y-45460991D03*
X164320637Y-45460991D03*
X163820637Y-45460991D03*
D15*
X208046686Y-65341991D03*
D32*
X101825637Y-117050991D03*
X103475637Y-117050991D03*
D37*
X138549588Y-92780757D03*
X138549588Y-91130757D03*
D31*
X110639164Y-81194757D03*
X112189164Y-81194757D03*
D19*
X193703588Y-75793491D03*
X192433588Y-75793491D03*
X191163588Y-75793491D03*
X189893588Y-75793491D03*
X189893588Y-80743491D03*
X191163588Y-80743491D03*
X192433588Y-80743491D03*
X193703588Y-80743491D03*
D29*
X163503588Y-104995991D03*
X164773588Y-104995991D03*
X166043588Y-104995991D03*
X167313588Y-104995991D03*
X167313588Y-100045991D03*
X166043588Y-100045991D03*
X164773588Y-100045991D03*
X163503588Y-100045991D03*
D17*
X195055637Y-80596991D03*
X195055637Y-79636991D03*
D16*
X162048588Y-99960991D03*
X162048588Y-100920991D03*
D41*
X143685164Y-78207757D03*
X142135164Y-78207757D03*
D48*
X101585637Y-118730991D03*
X101585637Y-119380991D03*
X101585637Y-120030991D03*
X103485637Y-120030991D03*
X103485637Y-119380991D03*
X103485637Y-118730991D03*
D35*
X158921088Y-103450991D03*
X158921088Y-104110991D03*
X158921088Y-104770991D03*
X158921088Y-105430991D03*
D36*
X160913588Y-104440991D03*
D32*
X210994637Y-79326991D03*
X212644637Y-79326991D03*
D27*
X211565637Y-98378991D03*
X211565637Y-100028991D03*
D12*
X82850995Y-103710991D03*
X81275995Y-103710991D03*
D29*
X163503588Y-96561491D03*
X164773588Y-96561491D03*
X166043588Y-96561491D03*
X167313588Y-96561491D03*
X167313588Y-91611491D03*
X166043588Y-91611491D03*
X164773588Y-91611491D03*
X163503588Y-91611491D03*
D35*
X198531088Y-94086491D03*
X198531088Y-93426491D03*
X198531088Y-92766491D03*
X198531088Y-92106491D03*
D39*
X196538588Y-93096491D03*
D49*
X113301164Y-79565757D03*
X113301164Y-77665757D03*
D37*
X145170000Y-108465000D03*
X145170000Y-106815000D03*
D50*
X132511588Y-99220757D03*
X117901588Y-99220757D03*
D51*
X119491588Y-97855757D03*
X119491588Y-100585757D03*
X120761588Y-97855757D03*
X120761588Y-100585757D03*
X122031588Y-97855757D03*
X122031588Y-100585757D03*
X123301588Y-97855757D03*
X123301588Y-100585757D03*
X124571588Y-97855757D03*
X124571588Y-100585757D03*
X125841588Y-97855757D03*
X125841588Y-100585757D03*
X127111588Y-97855757D03*
X127111588Y-100585757D03*
X128381588Y-97855757D03*
X128381588Y-100585757D03*
X129651588Y-97855757D03*
X129651588Y-100585757D03*
X130921588Y-97855757D03*
X130921588Y-100585757D03*
D52*
X88675637Y-118805991D03*
X88675637Y-117230991D03*
D37*
X135525637Y-103365991D03*
X135525637Y-101715991D03*
D19*
X193948588Y-92564491D03*
X192678588Y-92564491D03*
X191408588Y-92564491D03*
X190138588Y-92564491D03*
X190138588Y-97514491D03*
X191408588Y-97514491D03*
X192678588Y-97514491D03*
X193948588Y-97514491D03*
D13*
X136154588Y-97625757D03*
X134504588Y-97625757D03*
D17*
X195309637Y-97304991D03*
X195309637Y-96344991D03*
D41*
X143926164Y-94209757D03*
X142376164Y-94209757D03*
D35*
X146885000Y-111730000D03*
X146885000Y-112390000D03*
X146885000Y-113050000D03*
X146885000Y-113710000D03*
D36*
X148877500Y-112720000D03*
D13*
X143969588Y-92685757D03*
X142319588Y-92685757D03*
D33*
X159450637Y-48460991D03*
X159450637Y-50010991D03*
D35*
X198286088Y-77338491D03*
X198286088Y-76678491D03*
X198286088Y-76018491D03*
X198286088Y-75358491D03*
D39*
X196293588Y-76348491D03*
D33*
X96121198Y-111320430D03*
X96121198Y-112870430D03*
D34*
X99173133Y-93770991D03*
D29*
X163503588Y-88149991D03*
X164773588Y-88149991D03*
X166043588Y-88149991D03*
X167313588Y-88149991D03*
X167313588Y-83199991D03*
X166043588Y-83199991D03*
X164773588Y-83199991D03*
X163503588Y-83199991D03*
D37*
X90465637Y-118880991D03*
X90465637Y-117230991D03*
D13*
X136134588Y-96075757D03*
X134484588Y-96075757D03*
D17*
X195309637Y-105714991D03*
X195309637Y-104754991D03*
D33*
X125117164Y-78817757D03*
X125117164Y-80367757D03*
D18*
X169070000Y-86120000D03*
X169070000Y-84720000D03*
D33*
X121709164Y-78854757D03*
X121709164Y-80404757D03*
D35*
X146780000Y-106710000D03*
X146780000Y-107370000D03*
X146780000Y-108030000D03*
X146780000Y-108690000D03*
D36*
X148772500Y-107700000D03*
D18*
X169070000Y-94090000D03*
X169070000Y-92690000D03*
D27*
X210041637Y-98376991D03*
X210041637Y-100026991D03*
D34*
X81087133Y-93770991D03*
D35*
X158921088Y-86627991D03*
X158921088Y-87287991D03*
X158921088Y-87947991D03*
X158921088Y-88607991D03*
D36*
X160913588Y-87617991D03*
D53*
X207445637Y-75110991D03*
X203145637Y-75110991D03*
D35*
X158921088Y-78239491D03*
X158921088Y-78899491D03*
X158921088Y-79559491D03*
X158921088Y-80219491D03*
D36*
X160913588Y-79229491D03*
D37*
X145265000Y-113435000D03*
X145265000Y-111785000D03*
G36*
X210747738Y-57993894D02*
G01*
X210768380Y-58010528D01*
X215239818Y-62481966D01*
X215273303Y-62543289D01*
X215276137Y-62569647D01*
X215276137Y-72076991D01*
X215256452Y-72144030D01*
X215203648Y-72189785D01*
X215152137Y-72200991D01*
X204379308Y-72200991D01*
X204359796Y-72197082D01*
X204354137Y-72200853D01*
X204354137Y-102596012D01*
X204334452Y-102663051D01*
X204281648Y-102708806D01*
X204277415Y-102710645D01*
X203916337Y-102859564D01*
X203869051Y-102868931D01*
X197943390Y-102868554D01*
X197876352Y-102848865D01*
X197830600Y-102796058D01*
X197819398Y-102744530D01*
X197819739Y-101012185D01*
X197839437Y-100945149D01*
X197892250Y-100899404D01*
X197943739Y-100888209D01*
X200035137Y-100888209D01*
X200035137Y-94497222D01*
X197953408Y-94497137D01*
X197886369Y-94477450D01*
X197840617Y-94424644D01*
X197829413Y-94373120D01*
X197829659Y-92610192D01*
X197849353Y-92543155D01*
X197902163Y-92497407D01*
X197953659Y-92486209D01*
X200035137Y-92486209D01*
X200035137Y-86055130D01*
X197883201Y-86055043D01*
X197816162Y-86035356D01*
X197770410Y-85982550D01*
X197759206Y-85931026D01*
X197759450Y-84188192D01*
X197779144Y-84121155D01*
X197831954Y-84075407D01*
X197883450Y-84064209D01*
X200035137Y-84064209D01*
X200035137Y-77743208D01*
X197723266Y-77743114D01*
X197656227Y-77723427D01*
X197610475Y-77670621D01*
X197599271Y-77619097D01*
X197599513Y-75886192D01*
X197619207Y-75819155D01*
X197672017Y-75773407D01*
X197723513Y-75762209D01*
X200035137Y-75762209D01*
X200035137Y-72199535D01*
X200034810Y-72199209D01*
X157364137Y-72199209D01*
X157364137Y-77850285D01*
X159495435Y-77840567D01*
X159562563Y-77859946D01*
X159608558Y-77912541D01*
X159620000Y-77964566D01*
X159620000Y-79696000D01*
X159600315Y-79763039D01*
X159547511Y-79808794D01*
X159496000Y-79820000D01*
X157364137Y-79820000D01*
X157364137Y-86232209D01*
X159486028Y-86232681D01*
X159553063Y-86252380D01*
X159598806Y-86305195D01*
X159610000Y-86356681D01*
X159610000Y-88069209D01*
X159590315Y-88136248D01*
X159537511Y-88182003D01*
X159486000Y-88193209D01*
X157364137Y-88193209D01*
X157364137Y-94624063D01*
X159483139Y-94624385D01*
X159550175Y-94644080D01*
X159595922Y-94696891D01*
X159607120Y-94748116D01*
X159610837Y-96460940D01*
X159591298Y-96528022D01*
X159538593Y-96573891D01*
X159486837Y-96585209D01*
X157364137Y-96585209D01*
X157364137Y-103186209D01*
X157364136Y-103186209D01*
X159501487Y-103186303D01*
X159568526Y-103205991D01*
X159614279Y-103258796D01*
X159625482Y-103310320D01*
X159625261Y-104902958D01*
X159605567Y-104969995D01*
X159552757Y-105015743D01*
X159501257Y-105026941D01*
X154241648Y-105026761D01*
X154174609Y-105007074D01*
X154149890Y-104986162D01*
X147237094Y-97380371D01*
X147206571Y-97317521D01*
X147204856Y-97296970D01*
X147204856Y-72180139D01*
X147203637Y-72174013D01*
X147203637Y-72138484D01*
X147193008Y-72106544D01*
X147192929Y-72102124D01*
X147192929Y-71894251D01*
X147193155Y-71886764D01*
X147201677Y-71745871D01*
X147209329Y-71619360D01*
X147209464Y-71617114D01*
X147210352Y-71587746D01*
X147210804Y-71580266D01*
X147213479Y-71550834D01*
X147213520Y-71550056D01*
X147229788Y-71281131D01*
X147230418Y-71274072D01*
X147265767Y-70974810D01*
X147266322Y-70970700D01*
X147271176Y-70938800D01*
X147271335Y-70937189D01*
X147303563Y-70671781D01*
X147304697Y-70664341D01*
X147305110Y-70662091D01*
X147310326Y-70633625D01*
X147319756Y-70614912D01*
X147403149Y-70150285D01*
X147402616Y-70130017D01*
X147414011Y-70067838D01*
X147415577Y-70060539D01*
X147416351Y-70057396D01*
X147430023Y-70033903D01*
X147534127Y-69586234D01*
X147534374Y-69578551D01*
X147560735Y-69471602D01*
X147562747Y-69464387D01*
X147643109Y-69206497D01*
X147650999Y-69178192D01*
X147653229Y-69171037D01*
X147664723Y-69137727D01*
X147665328Y-69135190D01*
X147743191Y-68885323D01*
X147745634Y-68878242D01*
X147758021Y-68845581D01*
X147761092Y-68841524D01*
X148161668Y-67881723D01*
X148166578Y-67871340D01*
X148671081Y-66920985D01*
X148680648Y-66905747D01*
X149659662Y-65572139D01*
X149669018Y-65560859D01*
X150231057Y-64959378D01*
X150237327Y-64953130D01*
X150788056Y-64442242D01*
X150793090Y-64435389D01*
X150842596Y-64391532D01*
X150848349Y-64386738D01*
X150912506Y-64336474D01*
X150918231Y-64334194D01*
X151535667Y-63869167D01*
X151539559Y-63864857D01*
X151574886Y-63840472D01*
X151577084Y-63837912D01*
X151577723Y-63837441D01*
X151583968Y-63833127D01*
X151594389Y-63826389D01*
X151597195Y-63825075D01*
X151623254Y-63807088D01*
X151628280Y-63805430D01*
X151628185Y-63805279D01*
X152280338Y-63393874D01*
X152286512Y-63388062D01*
X152356299Y-63345875D01*
X152362821Y-63342196D01*
X152435009Y-63304308D01*
X152441057Y-63303096D01*
X153132137Y-62957019D01*
X153136767Y-62953464D01*
X153152958Y-62946177D01*
X153179339Y-62933333D01*
X153186166Y-62930260D01*
X153213336Y-62919004D01*
X153229451Y-62911752D01*
X153234693Y-62911027D01*
X153234627Y-62910862D01*
X153950338Y-62623715D01*
X153957460Y-62619110D01*
X154031842Y-62590900D01*
X154042724Y-62587339D01*
X154048544Y-62585727D01*
X154051422Y-62584437D01*
X154081196Y-62575159D01*
X154086696Y-62575068D01*
X155168002Y-62273632D01*
X155174814Y-62270290D01*
X155215916Y-62260159D01*
X155223240Y-62258587D01*
X155264875Y-62250957D01*
X155270350Y-62251530D01*
X156380139Y-62082623D01*
X156387310Y-62080126D01*
X156428109Y-62075173D01*
X156438041Y-62074370D01*
X156444554Y-62074106D01*
X156446638Y-62073750D01*
X156519964Y-62069314D01*
X156525956Y-62070686D01*
X157265794Y-62039757D01*
X157275333Y-62037501D01*
X157287716Y-62037501D01*
X157290127Y-62038209D01*
X201559429Y-62038209D01*
X201559429Y-62038208D01*
X205587110Y-58010528D01*
X205648433Y-57977043D01*
X205674791Y-57974209D01*
X210680699Y-57974209D01*
X210747738Y-57993894D01*
G37*
M02*
