%TF.GenerationSoftware,KiCad,Pcbnew,8.0.5*%
%TF.CreationDate,2024-09-26T22:40:01-05:00*%
%TF.ProjectId,PDM v3.1,50444d20-7633-42e3-912e-6b696361645f,rev?*%
%TF.SameCoordinates,Original*%
%TF.FileFunction,Drillmap*%
%TF.FilePolarity,Positive*%
%FSLAX45Y45*%
G04 Gerber Fmt 4.5, Leading zero omitted, Abs format (unit mm)*
G04 Created by KiCad (PCBNEW 8.0.5) date 2024-09-26 22:40:01*
%MOMM*%
%LPD*%
G01*
G04 APERTURE LIST*
%ADD10C,0.100000*%
%ADD11C,0.200000*%
%ADD12C,0.102000*%
%ADD13C,0.130000*%
%ADD14C,0.640000*%
G04 APERTURE END LIST*
D10*
X22023836Y-4007099D02*
X7645000Y-4007099D01*
X22023836Y-4007099D02*
G75*
G02*
X22424991Y-4408263I-6J-401161D01*
G01*
X22425000Y-12669935D02*
X22425000Y-4408263D01*
X7243836Y-4408263D02*
G75*
G02*
X7645000Y-4007099I401164J0D01*
G01*
X22425000Y-12669935D02*
G75*
G02*
X22023836Y-13071100I-401160J-5D01*
G01*
X7243836Y-4408263D02*
X7243836Y-12669935D01*
X7645000Y-13071099D02*
X22023836Y-13071099D01*
X7645000Y-13071099D02*
G75*
G02*
X7243841Y-12669935I0J401159D01*
G01*
D11*
D10*
X7791313Y-8113099D02*
X7831313Y-8153099D01*
X7831313Y-8113099D02*
X7791313Y-8153099D01*
X7985849Y-11140813D02*
X8025849Y-11180813D01*
X8025849Y-11140813D02*
X7985849Y-11180813D01*
X7989705Y-10548155D02*
X8029705Y-10588155D01*
X8029705Y-10548155D02*
X7989705Y-10588155D01*
X7990540Y-10350008D02*
X8030540Y-10390008D01*
X8030540Y-10350008D02*
X7990540Y-10390008D01*
X7990557Y-11340770D02*
X8030557Y-11380770D01*
X8030557Y-11340770D02*
X7990557Y-11380770D01*
X7992666Y-11540823D02*
X8032666Y-11580823D01*
X8032666Y-11540823D02*
X7992666Y-11580823D01*
X7992849Y-10745813D02*
X8032849Y-10785813D01*
X8032849Y-10745813D02*
X7992849Y-10785813D01*
X7997573Y-10953536D02*
X8037573Y-10993536D01*
X8037573Y-10953536D02*
X7997573Y-10993536D01*
X8006056Y-11728607D02*
X8046056Y-11768607D01*
X8046056Y-11728607D02*
X8006056Y-11768607D01*
X8055564Y-4778099D02*
X8095564Y-4818099D01*
X8095564Y-4778099D02*
X8055564Y-4818099D01*
X8161000Y-8588000D02*
X8201000Y-8628000D01*
X8201000Y-8588000D02*
X8161000Y-8628000D01*
X8189888Y-8849112D02*
X8229888Y-8889112D01*
X8229888Y-8849112D02*
X8189888Y-8889112D01*
X8363064Y-4839099D02*
X8403064Y-4879099D01*
X8403064Y-4839099D02*
X8363064Y-4879099D01*
X8421850Y-10350813D02*
X8461850Y-10390813D01*
X8461850Y-10350813D02*
X8421850Y-10390813D01*
X8424850Y-11536813D02*
X8464850Y-11576813D01*
X8464850Y-11536813D02*
X8424850Y-11576813D01*
X8437850Y-11754813D02*
X8477850Y-11794813D01*
X8477850Y-11754813D02*
X8437850Y-11794813D01*
X8439850Y-11354813D02*
X8479850Y-11394813D01*
X8479850Y-11354813D02*
X8439850Y-11394813D01*
X8443850Y-11146813D02*
X8483850Y-11186813D01*
X8483850Y-11146813D02*
X8443850Y-11186813D01*
X8448850Y-10956813D02*
X8488850Y-10996813D01*
X8488850Y-10956813D02*
X8448850Y-10996813D01*
X8449850Y-10553813D02*
X8489850Y-10593813D01*
X8489850Y-10553813D02*
X8449850Y-10593813D01*
X8454850Y-10744813D02*
X8494850Y-10784813D01*
X8494850Y-10744813D02*
X8454850Y-10784813D01*
X8496000Y-8568000D02*
X8536000Y-8608000D01*
X8536000Y-8568000D02*
X8496000Y-8608000D01*
X8556313Y-7751099D02*
X8596313Y-7791099D01*
X8596313Y-7751099D02*
X8556313Y-7791099D01*
X8611658Y-10179337D02*
X8651658Y-10219337D01*
X8651658Y-10179337D02*
X8611658Y-10219337D01*
X8614000Y-9819000D02*
X8654000Y-9859000D01*
X8654000Y-9819000D02*
X8614000Y-9859000D01*
X8649101Y-8083899D02*
X8689101Y-8123899D01*
X8689101Y-8083899D02*
X8649101Y-8123899D01*
X8663263Y-7893099D02*
X8703263Y-7933099D01*
X8703263Y-7893099D02*
X8663263Y-7933099D01*
X8666388Y-9325612D02*
X8706388Y-9365612D01*
X8706388Y-9325612D02*
X8666388Y-9365612D01*
X8703806Y-9730806D02*
X8743806Y-9770806D01*
X8743806Y-9730806D02*
X8703806Y-9770806D01*
X8725564Y-11887099D02*
X8765564Y-11927099D01*
X8765564Y-11887099D02*
X8725564Y-11927099D01*
X8792000Y-8230000D02*
X8832000Y-8270000D01*
X8832000Y-8230000D02*
X8792000Y-8270000D01*
X8835146Y-9811599D02*
X8875146Y-9851599D01*
X8875146Y-9811599D02*
X8835146Y-9851599D01*
X8926313Y-7735099D02*
X8966313Y-7775099D01*
X8966313Y-7735099D02*
X8926313Y-7775099D01*
X8942208Y-9814208D02*
X8982208Y-9854208D01*
X8982208Y-9814208D02*
X8942208Y-9854208D01*
X8998564Y-10447099D02*
X9038564Y-10487099D01*
X9038564Y-10447099D02*
X8998564Y-10487099D01*
X9027564Y-9892099D02*
X9067564Y-9932099D01*
X9067564Y-9892099D02*
X9027564Y-9932099D01*
X9135000Y-9900000D02*
X9175000Y-9940000D01*
X9175000Y-9900000D02*
X9135000Y-9940000D01*
X9138000Y-8865000D02*
X9178000Y-8905000D01*
X9178000Y-8865000D02*
X9138000Y-8905000D01*
X9169564Y-11840099D02*
X9209564Y-11880099D01*
X9209564Y-11840099D02*
X9169564Y-11880099D01*
X9201313Y-6917099D02*
X9241313Y-6957099D01*
X9241313Y-6917099D02*
X9201313Y-6957099D01*
X9209564Y-9156099D02*
X9249564Y-9196099D01*
X9249564Y-9156099D02*
X9209564Y-9196099D01*
X9289599Y-9843000D02*
X9329599Y-9883000D01*
X9329599Y-9843000D02*
X9289599Y-9883000D01*
X9300509Y-9197559D02*
X9340509Y-9237559D01*
X9340509Y-9197559D02*
X9300509Y-9237559D01*
X9339886Y-9289426D02*
X9379886Y-9329426D01*
X9379886Y-9289426D02*
X9339886Y-9329426D01*
X9344829Y-11467166D02*
X9384829Y-11507166D01*
X9384829Y-11467166D02*
X9344829Y-11507166D01*
X9395629Y-11249075D02*
X9435629Y-11289075D01*
X9435629Y-11249075D02*
X9395629Y-11289075D01*
X9410561Y-9360101D02*
X9450561Y-9400101D01*
X9450561Y-9360101D02*
X9410561Y-9400101D01*
X9504819Y-9968428D02*
X9544819Y-10008428D01*
X9544819Y-9968428D02*
X9504819Y-10008428D01*
X9511564Y-10109099D02*
X9551564Y-10149099D01*
X9551564Y-10109099D02*
X9511564Y-10149099D01*
X9522288Y-9548630D02*
X9562288Y-9588630D01*
X9562288Y-9548630D02*
X9522288Y-9588630D01*
X9589620Y-11006543D02*
X9629620Y-11046543D01*
X9629620Y-11006543D02*
X9589620Y-11046543D01*
X9603564Y-10187099D02*
X9643564Y-10227099D01*
X9643564Y-10187099D02*
X9603564Y-10227099D01*
X9673033Y-8364033D02*
X9713033Y-8404033D01*
X9713033Y-8364033D02*
X9673033Y-8404033D01*
X9684564Y-10305099D02*
X9724564Y-10345099D01*
X9724564Y-10305099D02*
X9684564Y-10345099D01*
X9701231Y-9727502D02*
X9741231Y-9767502D01*
X9741231Y-9727502D02*
X9701231Y-9767502D01*
X9868564Y-11014099D02*
X9908564Y-11054099D01*
X9908564Y-11014099D02*
X9868564Y-11054099D01*
X9883564Y-9802452D02*
X9923564Y-9842452D01*
X9923564Y-9802452D02*
X9883564Y-9842452D01*
X9967564Y-11135099D02*
X10007564Y-11175099D01*
X10007564Y-11135099D02*
X9967564Y-11175099D01*
X10003950Y-10094104D02*
X10043950Y-10134104D01*
X10043950Y-10094104D02*
X10003950Y-10134104D01*
X10040564Y-11725099D02*
X10080564Y-11765099D01*
X10080564Y-11725099D02*
X10040564Y-11765099D01*
X10099564Y-9877402D02*
X10139564Y-9917402D01*
X10139564Y-9877402D02*
X10099564Y-9917402D01*
X10129514Y-8329059D02*
X10169514Y-8369059D01*
X10169514Y-8329059D02*
X10129514Y-8369059D01*
X10136061Y-10085601D02*
X10176061Y-10125601D01*
X10176061Y-10085601D02*
X10136061Y-10125601D01*
X10173564Y-10598099D02*
X10213564Y-10638099D01*
X10213564Y-10598099D02*
X10173564Y-10638099D01*
X10191023Y-8137640D02*
X10231023Y-8177640D01*
X10231023Y-8137640D02*
X10191023Y-8177640D01*
X10193439Y-8252224D02*
X10233439Y-8292224D01*
X10233439Y-8252224D02*
X10193439Y-8292224D01*
X10241564Y-11544099D02*
X10281564Y-11584099D01*
X10281564Y-11544099D02*
X10241564Y-11584099D01*
X10243564Y-8487099D02*
X10283564Y-8527099D01*
X10283564Y-8487099D02*
X10243564Y-8527099D01*
X10261564Y-9854099D02*
X10301564Y-9894099D01*
X10301564Y-9854099D02*
X10261564Y-9894099D01*
X10295564Y-10691099D02*
X10335564Y-10731099D01*
X10335564Y-10691099D02*
X10295564Y-10731099D01*
X10313564Y-10095099D02*
X10353564Y-10135099D01*
X10353564Y-10095099D02*
X10313564Y-10135099D01*
X10374564Y-9947099D02*
X10414564Y-9987099D01*
X10414564Y-9947099D02*
X10374564Y-9987099D01*
X10391064Y-4896599D02*
X10431064Y-4936599D01*
X10431064Y-4896599D02*
X10391064Y-4936599D01*
X10461014Y-5047599D02*
X10501014Y-5087599D01*
X10501014Y-5047599D02*
X10461014Y-5087599D01*
X10475548Y-8309099D02*
X10515548Y-8349099D01*
X10515548Y-8309099D02*
X10475548Y-8349099D01*
X10503564Y-12025099D02*
X10543564Y-12065099D01*
X10543564Y-12025099D02*
X10503564Y-12065099D01*
X10581564Y-12137149D02*
X10621564Y-12177149D01*
X10621564Y-12137149D02*
X10581564Y-12177149D01*
X10629564Y-5040099D02*
X10669564Y-5080099D01*
X10669564Y-5040099D02*
X10629564Y-5080099D01*
X10701064Y-9177604D02*
X10741064Y-9217604D01*
X10741064Y-9177604D02*
X10701064Y-9217604D01*
X10704112Y-9023149D02*
X10744112Y-9063149D01*
X10744112Y-9023149D02*
X10704112Y-9063149D01*
X10728564Y-8861099D02*
X10768564Y-8901099D01*
X10768564Y-8861099D02*
X10728564Y-8901099D01*
X10746564Y-9572099D02*
X10786564Y-9612099D01*
X10786564Y-9572099D02*
X10746564Y-9612099D01*
X10803561Y-9191026D02*
X10843561Y-9231026D01*
X10843561Y-9191026D02*
X10803561Y-9231026D01*
X10803766Y-8991026D02*
X10843766Y-9031026D01*
X10843766Y-8991026D02*
X10803766Y-9031026D01*
X10925232Y-8891026D02*
X10965232Y-8931026D01*
X10965232Y-8891026D02*
X10925232Y-8931026D01*
X10936564Y-9340926D02*
X10976564Y-9380926D01*
X10976564Y-9340926D02*
X10936564Y-9380926D01*
X10980564Y-6209099D02*
X11020564Y-6249099D01*
X11020564Y-6209099D02*
X10980564Y-6249099D01*
X11007116Y-7976576D02*
X11047116Y-8016576D01*
X11047116Y-7976576D02*
X11007116Y-8016576D01*
X11118064Y-5042599D02*
X11158064Y-5082599D01*
X11158064Y-5042599D02*
X11118064Y-5082599D01*
X11148116Y-7747576D02*
X11188116Y-7787576D01*
X11188116Y-7747576D02*
X11148116Y-7787576D01*
X11151116Y-7890576D02*
X11191116Y-7930576D01*
X11191116Y-7890576D02*
X11151116Y-7930576D01*
X11209272Y-9120391D02*
X11249272Y-9160391D01*
X11249272Y-9120391D02*
X11209272Y-9160391D01*
X11235564Y-8907099D02*
X11275564Y-8947099D01*
X11275564Y-8907099D02*
X11235564Y-8947099D01*
X11241564Y-10721099D02*
X11281564Y-10761099D01*
X11281564Y-10721099D02*
X11241564Y-10761099D01*
X11249564Y-9692099D02*
X11289564Y-9732099D01*
X11289564Y-9692099D02*
X11249564Y-9732099D01*
X11258009Y-9792099D02*
X11298009Y-9832099D01*
X11298009Y-9792099D02*
X11258009Y-9832099D01*
X11273116Y-9288576D02*
X11313116Y-9328576D01*
X11313116Y-9288576D02*
X11273116Y-9328576D01*
X11332564Y-6247099D02*
X11372564Y-6287099D01*
X11372564Y-6247099D02*
X11332564Y-6287099D01*
X11356116Y-8090576D02*
X11396116Y-8130576D01*
X11396116Y-8090576D02*
X11356116Y-8130576D01*
X11385959Y-10608576D02*
X11425959Y-10648576D01*
X11425959Y-10608576D02*
X11385959Y-10648576D01*
X11394916Y-9203576D02*
X11434916Y-9243576D01*
X11434916Y-9203576D02*
X11394916Y-9243576D01*
X11417066Y-8331049D02*
X11457066Y-8371049D01*
X11457066Y-8331049D02*
X11417066Y-8371049D01*
X11499564Y-4597099D02*
X11539564Y-4637099D01*
X11539564Y-4597099D02*
X11499564Y-4637099D01*
X11506116Y-7734576D02*
X11546116Y-7774576D01*
X11546116Y-7734576D02*
X11506116Y-7774576D01*
X11555564Y-7056099D02*
X11595564Y-7096099D01*
X11595564Y-7056099D02*
X11555564Y-7096099D01*
X11610752Y-8404454D02*
X11650752Y-8444454D01*
X11650752Y-8404454D02*
X11610752Y-8444454D01*
X11638064Y-5333599D02*
X11678064Y-5373599D01*
X11678064Y-5333599D02*
X11638064Y-5373599D01*
X11656074Y-10329609D02*
X11696074Y-10369609D01*
X11696074Y-10329609D02*
X11656074Y-10369609D01*
X11689116Y-8122576D02*
X11729116Y-8162576D01*
X11729116Y-8122576D02*
X11689116Y-8162576D01*
X11690079Y-8342580D02*
X11730079Y-8382580D01*
X11730079Y-8342580D02*
X11690079Y-8382580D01*
X11719966Y-7760849D02*
X11759966Y-7800849D01*
X11759966Y-7760849D02*
X11719966Y-7800849D01*
X11753116Y-9040576D02*
X11793116Y-9080576D01*
X11793116Y-9040576D02*
X11753116Y-9080576D01*
X11754119Y-8933578D02*
X11794119Y-8973578D01*
X11794119Y-8933578D02*
X11754119Y-8973578D01*
X11758634Y-8823067D02*
X11798634Y-8863067D01*
X11798634Y-8823067D02*
X11758634Y-8863067D01*
X11788116Y-8717626D02*
X11828116Y-8757626D01*
X11828116Y-8717626D02*
X11788116Y-8757626D01*
X11827564Y-10383999D02*
X11867564Y-10423999D01*
X11867564Y-10383999D02*
X11827564Y-10423999D01*
X11908564Y-8230099D02*
X11948564Y-8270099D01*
X11948564Y-8230099D02*
X11908564Y-8270099D01*
X11957564Y-4942099D02*
X11997564Y-4982099D01*
X11997564Y-4942099D02*
X11957564Y-4982099D01*
X11986564Y-9213099D02*
X12026564Y-9253099D01*
X12026564Y-9213099D02*
X11986564Y-9253099D01*
X12093564Y-6458099D02*
X12133564Y-6498099D01*
X12133564Y-6458099D02*
X12093564Y-6498099D01*
X12157564Y-9288049D02*
X12197564Y-9328049D01*
X12197564Y-9288049D02*
X12157564Y-9328049D01*
X12161116Y-7730576D02*
X12201116Y-7770576D01*
X12201116Y-7730576D02*
X12161116Y-7770576D01*
X12200116Y-8113576D02*
X12240116Y-8153576D01*
X12240116Y-8113576D02*
X12200116Y-8153576D01*
X12218564Y-12159099D02*
X12258564Y-12199099D01*
X12258564Y-12159099D02*
X12218564Y-12199099D01*
X12280116Y-7749576D02*
X12320116Y-7789576D01*
X12320116Y-7749576D02*
X12280116Y-7789576D01*
X12327959Y-10327576D02*
X12367959Y-10367576D01*
X12367959Y-10327576D02*
X12327959Y-10367576D01*
X12343116Y-8166576D02*
X12383116Y-8206576D01*
X12383116Y-8166576D02*
X12343116Y-8206576D01*
X12388564Y-10240099D02*
X12428564Y-10280099D01*
X12428564Y-10240099D02*
X12388564Y-10280099D01*
X12426564Y-10452099D02*
X12466564Y-10492099D01*
X12466564Y-10452099D02*
X12426564Y-10492099D01*
X12532871Y-9536501D02*
X12572871Y-9576501D01*
X12572871Y-9536501D02*
X12532871Y-9576501D01*
X12535116Y-9436576D02*
X12575116Y-9476576D01*
X12575116Y-9436576D02*
X12535116Y-9476576D01*
X12679564Y-6441099D02*
X12719564Y-6481099D01*
X12719564Y-6441099D02*
X12679564Y-6481099D01*
X12732116Y-7964576D02*
X12772116Y-8004576D01*
X12772116Y-7964576D02*
X12732116Y-8004576D01*
X12758116Y-8113576D02*
X12798116Y-8153576D01*
X12798116Y-8113576D02*
X12758116Y-8153576D01*
X12783466Y-8541026D02*
X12823466Y-8581026D01*
X12823466Y-8541026D02*
X12783466Y-8581026D01*
X12863564Y-10242099D02*
X12903564Y-10282099D01*
X12903564Y-10242099D02*
X12863564Y-10282099D01*
X12912023Y-8441081D02*
X12952023Y-8481081D01*
X12952023Y-8441081D02*
X12912023Y-8481081D01*
X12925825Y-8541026D02*
X12965825Y-8581026D01*
X12965825Y-8541026D02*
X12925825Y-8581026D01*
X12948166Y-8347719D02*
X12988166Y-8387719D01*
X12988166Y-8347719D02*
X12948166Y-8387719D01*
X12960959Y-10310576D02*
X13000959Y-10350576D01*
X13000959Y-10310576D02*
X12960959Y-10350576D01*
X13052146Y-10351502D02*
X13092146Y-10391502D01*
X13092146Y-10351502D02*
X13052146Y-10391502D01*
X13176934Y-9683576D02*
X13216934Y-9723576D01*
X13216934Y-9683576D02*
X13176934Y-9723576D01*
X13258564Y-5015099D02*
X13298564Y-5055099D01*
X13298564Y-5015099D02*
X13258564Y-5055099D01*
X13262564Y-5457099D02*
X13302564Y-5497099D01*
X13302564Y-5457099D02*
X13262564Y-5497099D01*
X13265380Y-9550835D02*
X13305380Y-9590835D01*
X13305380Y-9550835D02*
X13265380Y-9590835D01*
X13403959Y-10028201D02*
X13443959Y-10068201D01*
X13443959Y-10028201D02*
X13403959Y-10068201D01*
X13438909Y-7187597D02*
X13478909Y-7227597D01*
X13478909Y-7187597D02*
X13438909Y-7227597D01*
X13456956Y-8245573D02*
X13496956Y-8285573D01*
X13496956Y-8245573D02*
X13456956Y-8285573D01*
X13457381Y-7926983D02*
X13497381Y-7966983D01*
X13497381Y-7926983D02*
X13457381Y-7966983D01*
X13460589Y-9355626D02*
X13500589Y-9395626D01*
X13500589Y-9355626D02*
X13460589Y-9395626D01*
X13471564Y-9947576D02*
X13511564Y-9987576D01*
X13511564Y-9947576D02*
X13471564Y-9987576D01*
X13488909Y-7323531D02*
X13528909Y-7363531D01*
X13528909Y-7323531D02*
X13488909Y-7363531D01*
X13494982Y-9261779D02*
X13534982Y-9301779D01*
X13534982Y-9261779D02*
X13494982Y-9301779D01*
X13528561Y-7231783D02*
X13568561Y-7271783D01*
X13568561Y-7231783D02*
X13528561Y-7271783D01*
X13617959Y-8202576D02*
X13657959Y-8242576D01*
X13657959Y-8202576D02*
X13617959Y-8242576D01*
X13618884Y-8355501D02*
X13658884Y-8395501D01*
X13658884Y-8355501D02*
X13618884Y-8395501D01*
X13629394Y-7230672D02*
X13669394Y-7270672D01*
X13669394Y-7230672D02*
X13629394Y-7270672D01*
X13647646Y-7719149D02*
X13687646Y-7759149D01*
X13687646Y-7719149D02*
X13647646Y-7759149D01*
X13664959Y-8040576D02*
X13704959Y-8080576D01*
X13704959Y-8040576D02*
X13664959Y-8080576D01*
X13668909Y-8753499D02*
X13708909Y-8793499D01*
X13708909Y-8753499D02*
X13668909Y-8793499D01*
X13689542Y-9672997D02*
X13729542Y-9712997D01*
X13729542Y-9672997D02*
X13689542Y-9712997D01*
X13692380Y-8493997D02*
X13732380Y-8533997D01*
X13732380Y-8493997D02*
X13692380Y-8533997D01*
X13695828Y-9253828D02*
X13735828Y-9293828D01*
X13735828Y-9253828D02*
X13695828Y-9293828D01*
X13706959Y-9574576D02*
X13746959Y-9614576D01*
X13746959Y-9574576D02*
X13706959Y-9614576D01*
X13728749Y-9361000D02*
X13768749Y-9401000D01*
X13768749Y-9361000D02*
X13728749Y-9401000D01*
X13729959Y-9131576D02*
X13769959Y-9171576D01*
X13769959Y-9131576D02*
X13729959Y-9171576D01*
X13830564Y-4552099D02*
X13870564Y-4592099D01*
X13870564Y-4552099D02*
X13830564Y-4592099D01*
X13907316Y-9479076D02*
X13947316Y-9519076D01*
X13947316Y-9479076D02*
X13907316Y-9519076D01*
X13987275Y-8701626D02*
X14027275Y-8741626D01*
X14027275Y-8701626D02*
X13987275Y-8741626D01*
X13994901Y-7452444D02*
X14034901Y-7492444D01*
X14034901Y-7452444D02*
X13994901Y-7492444D01*
X14014959Y-8325576D02*
X14054959Y-8365576D01*
X14054959Y-8325576D02*
X14014959Y-8365576D01*
X14020959Y-8428576D02*
X14060959Y-8468576D01*
X14060959Y-8428576D02*
X14020959Y-8468576D01*
X14049033Y-8524502D02*
X14089033Y-8564502D01*
X14089033Y-8524502D02*
X14049033Y-8564502D01*
X14053959Y-7866576D02*
X14093959Y-7906576D01*
X14093959Y-7866576D02*
X14053959Y-7906576D01*
X14071819Y-8648219D02*
X14111819Y-8688219D01*
X14111819Y-8648219D02*
X14071819Y-8688219D01*
X14084894Y-7574511D02*
X14124894Y-7614511D01*
X14124894Y-7574511D02*
X14084894Y-7614511D01*
X14090635Y-9569314D02*
X14130635Y-9609314D01*
X14130635Y-9569314D02*
X14090635Y-9609314D01*
X14171000Y-8628000D02*
X14211000Y-8668000D01*
X14211000Y-8628000D02*
X14171000Y-8668000D01*
X14201959Y-8306576D02*
X14241959Y-8346576D01*
X14241959Y-8306576D02*
X14201959Y-8346576D01*
X14225564Y-8977099D02*
X14265564Y-9017099D01*
X14265564Y-8977099D02*
X14225564Y-9017099D01*
X14240959Y-9507576D02*
X14280959Y-9547576D01*
X14280959Y-9507576D02*
X14240959Y-9547576D01*
X14279959Y-7891576D02*
X14319959Y-7931576D01*
X14319959Y-7891576D02*
X14279959Y-7931576D01*
X14289959Y-7367576D02*
X14329959Y-7407576D01*
X14329959Y-7367576D02*
X14289959Y-7407576D01*
X14332564Y-5032099D02*
X14372564Y-5072099D01*
X14372564Y-5032099D02*
X14332564Y-5072099D01*
X14345265Y-10691735D02*
X14385265Y-10731735D01*
X14385265Y-10691735D02*
X14345265Y-10731735D01*
X14346564Y-9601099D02*
X14386564Y-9641099D01*
X14386564Y-9601099D02*
X14346564Y-9641099D01*
X14390990Y-9770526D02*
X14430990Y-9810526D01*
X14430990Y-9770526D02*
X14390990Y-9810526D01*
X14414500Y-11231500D02*
X14454500Y-11271500D01*
X14454500Y-11231500D02*
X14414500Y-11271500D01*
X14422009Y-7911576D02*
X14462009Y-7951576D01*
X14462009Y-7911576D02*
X14422009Y-7951576D01*
X14481257Y-9296578D02*
X14521257Y-9336578D01*
X14521257Y-9296578D02*
X14481257Y-9336578D01*
X14481959Y-7659576D02*
X14521959Y-7699576D01*
X14521959Y-7659576D02*
X14481959Y-7699576D01*
X14481959Y-9396576D02*
X14521959Y-9436576D01*
X14521959Y-9396576D02*
X14481959Y-9436576D01*
X14498564Y-8531099D02*
X14538564Y-8571099D01*
X14538564Y-8531099D02*
X14498564Y-8571099D01*
X14516564Y-5097099D02*
X14556564Y-5137099D01*
X14556564Y-5097099D02*
X14516564Y-5137099D01*
X14558061Y-8995597D02*
X14598061Y-9035597D01*
X14598061Y-8995597D02*
X14558061Y-9035597D01*
X14570061Y-9133531D02*
X14610061Y-9173531D01*
X14610061Y-9133531D02*
X14570061Y-9173531D01*
X14572564Y-7989099D02*
X14612564Y-8029099D01*
X14612564Y-7989099D02*
X14572564Y-8029099D01*
X14579564Y-7788099D02*
X14619564Y-7828099D01*
X14619564Y-7788099D02*
X14579564Y-7828099D01*
X14605564Y-8290099D02*
X14645564Y-8330099D01*
X14645564Y-8290099D02*
X14605564Y-8330099D01*
X14688331Y-10449331D02*
X14728331Y-10489331D01*
X14728331Y-10449331D02*
X14688331Y-10489331D01*
X14738000Y-11002000D02*
X14778000Y-11042000D01*
X14778000Y-11002000D02*
X14738000Y-11042000D01*
X15550564Y-5031099D02*
X15590564Y-5071099D01*
X15590564Y-5031099D02*
X15550564Y-5071099D01*
X15551564Y-5346049D02*
X15591564Y-5386049D01*
X15591564Y-5346049D02*
X15551564Y-5386049D01*
X15754448Y-9188804D02*
X15794448Y-9228804D01*
X15794448Y-9188804D02*
X15754448Y-9228804D01*
X15757481Y-7514138D02*
X15797481Y-7554138D01*
X15797481Y-7514138D02*
X15757481Y-7554138D01*
X15764064Y-4977099D02*
X15804064Y-5017099D01*
X15804064Y-4977099D02*
X15764064Y-5017099D01*
X15766924Y-8361376D02*
X15806924Y-8401376D01*
X15806924Y-8361376D02*
X15766924Y-8401376D01*
X15772000Y-9367000D02*
X15812000Y-9407000D01*
X15812000Y-9367000D02*
X15772000Y-9407000D01*
X15773000Y-8520000D02*
X15813000Y-8560000D01*
X15813000Y-8520000D02*
X15773000Y-8560000D01*
X15774263Y-10054818D02*
X15814263Y-10094818D01*
X15814263Y-10054818D02*
X15774263Y-10094818D01*
X15777449Y-7686449D02*
X15817449Y-7726449D01*
X15817449Y-7686449D02*
X15777449Y-7726449D01*
X15783000Y-10214000D02*
X15823000Y-10254000D01*
X15823000Y-10214000D02*
X15783000Y-10254000D01*
X15810000Y-8921000D02*
X15850000Y-8961000D01*
X15850000Y-8921000D02*
X15810000Y-8961000D01*
X15877000Y-10623000D02*
X15917000Y-10663000D01*
X15917000Y-10623000D02*
X15877000Y-10663000D01*
X15878000Y-8070000D02*
X15918000Y-8110000D01*
X15918000Y-8070000D02*
X15878000Y-8110000D01*
X15905000Y-9745000D02*
X15945000Y-9785000D01*
X15945000Y-9745000D02*
X15905000Y-9785000D01*
X15946064Y-4619099D02*
X15986064Y-4659099D01*
X15986064Y-4619099D02*
X15946064Y-4659099D01*
X16056064Y-4334099D02*
X16096064Y-4374099D01*
X16096064Y-4334099D02*
X16056064Y-4374099D01*
X16103064Y-4229099D02*
X16143064Y-4269099D01*
X16143064Y-4229099D02*
X16103064Y-4269099D01*
X16175564Y-12643099D02*
X16215564Y-12683099D01*
X16215564Y-12643099D02*
X16175564Y-12683099D01*
X16177000Y-9338000D02*
X16217000Y-9378000D01*
X16217000Y-9338000D02*
X16177000Y-9378000D01*
X16182000Y-8493000D02*
X16222000Y-8533000D01*
X16222000Y-8493000D02*
X16182000Y-8533000D01*
X16182000Y-9071000D02*
X16222000Y-9111000D01*
X16222000Y-9071000D02*
X16182000Y-9111000D01*
X16182000Y-10174000D02*
X16222000Y-10214000D01*
X16222000Y-10174000D02*
X16182000Y-10214000D01*
X16183000Y-9895000D02*
X16223000Y-9935000D01*
X16223000Y-9895000D02*
X16183000Y-9935000D01*
X16186000Y-7669000D02*
X16226000Y-7709000D01*
X16226000Y-7669000D02*
X16186000Y-7709000D01*
X16196000Y-8220000D02*
X16236000Y-8260000D01*
X16236000Y-8220000D02*
X16196000Y-8260000D01*
X16204000Y-7374000D02*
X16244000Y-7414000D01*
X16244000Y-7374000D02*
X16204000Y-7414000D01*
X16396000Y-8145000D02*
X16436000Y-8185000D01*
X16436000Y-8145000D02*
X16396000Y-8185000D01*
X16396000Y-9842000D02*
X16436000Y-9882000D01*
X16436000Y-9842000D02*
X16396000Y-9882000D01*
X16399000Y-8993000D02*
X16439000Y-9033000D01*
X16439000Y-8993000D02*
X16399000Y-9033000D01*
X16444000Y-7286000D02*
X16484000Y-7326000D01*
X16484000Y-7286000D02*
X16444000Y-7326000D01*
X16584359Y-7898649D02*
X16624359Y-7938649D01*
X16624359Y-7898649D02*
X16584359Y-7938649D01*
X16584359Y-8013649D02*
X16624359Y-8053649D01*
X16624359Y-8013649D02*
X16584359Y-8053649D01*
X16584359Y-8737499D02*
X16624359Y-8777499D01*
X16624359Y-8737499D02*
X16584359Y-8777499D01*
X16584359Y-8852499D02*
X16624359Y-8892499D01*
X16624359Y-8852499D02*
X16584359Y-8892499D01*
X16584359Y-9578649D02*
X16624359Y-9618649D01*
X16624359Y-9578649D02*
X16584359Y-9618649D01*
X16584359Y-9693649D02*
X16624359Y-9733649D01*
X16624359Y-9693649D02*
X16584359Y-9733649D01*
X16584359Y-10422099D02*
X16624359Y-10462099D01*
X16624359Y-10422099D02*
X16584359Y-10462099D01*
X16584359Y-10537099D02*
X16624359Y-10577099D01*
X16624359Y-10537099D02*
X16584359Y-10577099D01*
X16646564Y-8131099D02*
X16686564Y-8171099D01*
X16686564Y-8131099D02*
X16646564Y-8171099D01*
X16652564Y-9843099D02*
X16692564Y-9883099D01*
X16692564Y-9843099D02*
X16652564Y-9883099D01*
X16669564Y-8971099D02*
X16709564Y-9011099D01*
X16709564Y-8971099D02*
X16669564Y-9011099D01*
X16686564Y-7269099D02*
X16726564Y-7309099D01*
X16726564Y-7269099D02*
X16686564Y-7309099D01*
X16711359Y-7898649D02*
X16751359Y-7938649D01*
X16751359Y-7898649D02*
X16711359Y-7938649D01*
X16711359Y-8013649D02*
X16751359Y-8053649D01*
X16751359Y-8013649D02*
X16711359Y-8053649D01*
X16711359Y-8737499D02*
X16751359Y-8777499D01*
X16751359Y-8737499D02*
X16711359Y-8777499D01*
X16711359Y-8852499D02*
X16751359Y-8892499D01*
X16751359Y-8852499D02*
X16711359Y-8892499D01*
X16711359Y-9578649D02*
X16751359Y-9618649D01*
X16751359Y-9578649D02*
X16711359Y-9618649D01*
X16711359Y-9693649D02*
X16751359Y-9733649D01*
X16751359Y-9693649D02*
X16711359Y-9733649D01*
X16711359Y-10422099D02*
X16751359Y-10462099D01*
X16751359Y-10422099D02*
X16711359Y-10462099D01*
X16711359Y-10537099D02*
X16751359Y-10577099D01*
X16751359Y-10537099D02*
X16711359Y-10577099D01*
X16784156Y-5644049D02*
X16824156Y-5684049D01*
X16824156Y-5644049D02*
X16784156Y-5684049D01*
X16874000Y-7481000D02*
X16914000Y-7521000D01*
X16914000Y-7481000D02*
X16874000Y-7521000D01*
X16879021Y-5594049D02*
X16919021Y-5634049D01*
X16919021Y-5594049D02*
X16879021Y-5634049D01*
X16881000Y-8348000D02*
X16921000Y-8388000D01*
X16921000Y-8348000D02*
X16881000Y-8388000D01*
X16882000Y-9148000D02*
X16922000Y-9188000D01*
X16922000Y-9148000D02*
X16882000Y-9188000D01*
X16888000Y-10254000D02*
X16928000Y-10294000D01*
X16928000Y-10254000D02*
X16888000Y-10294000D01*
X16975564Y-5544049D02*
X17015564Y-5584049D01*
X17015564Y-5544049D02*
X16975564Y-5584049D01*
X17102662Y-5699723D02*
X17142662Y-5739723D01*
X17142662Y-5699723D02*
X17102662Y-5739723D01*
X17203603Y-5743999D02*
X17243603Y-5783999D01*
X17243603Y-5743999D02*
X17203603Y-5783999D01*
X17266042Y-5822047D02*
X17306042Y-5862047D01*
X17306042Y-5822047D02*
X17266042Y-5862047D01*
X17296510Y-5971997D02*
X17336510Y-6011997D01*
X17336510Y-5971997D02*
X17296510Y-6011997D01*
X17319064Y-4943099D02*
X17359064Y-4983099D01*
X17359064Y-4943099D02*
X17319064Y-4983099D01*
X17349564Y-5885049D02*
X17389564Y-5925049D01*
X17389564Y-5885049D02*
X17349564Y-5925049D01*
X17416564Y-12623099D02*
X17456564Y-12663099D01*
X17456564Y-12623099D02*
X17416564Y-12663099D01*
X17846064Y-4649099D02*
X17886064Y-4689099D01*
X17886064Y-4649099D02*
X17846064Y-4689099D01*
X18032061Y-5744099D02*
X18072061Y-5784099D01*
X18072061Y-5744099D02*
X18032061Y-5784099D01*
X18093224Y-5573002D02*
X18133224Y-5613001D01*
X18133224Y-5573002D02*
X18093224Y-5613001D01*
X18182677Y-5528412D02*
X18222677Y-5568412D01*
X18222677Y-5528412D02*
X18182677Y-5568412D01*
X18259564Y-5394099D02*
X18299564Y-5434099D01*
X18299564Y-5394099D02*
X18259564Y-5434099D01*
X18271564Y-5847149D02*
X18311564Y-5887149D01*
X18311564Y-5847149D02*
X18271564Y-5887149D01*
X18309564Y-4788099D02*
X18349564Y-4828099D01*
X18349564Y-4788099D02*
X18309564Y-4828099D01*
X18348564Y-5931149D02*
X18388564Y-5971149D01*
X18388564Y-5931149D02*
X18348564Y-5971149D01*
X18351564Y-5751099D02*
X18391564Y-5791099D01*
X18391564Y-5751099D02*
X18351564Y-5791099D01*
X18446564Y-5231099D02*
X18486564Y-5271099D01*
X18486564Y-5231099D02*
X18446564Y-5271099D01*
X18456564Y-12631099D02*
X18496564Y-12671099D01*
X18496564Y-12631099D02*
X18456564Y-12671099D01*
X18638614Y-5494049D02*
X18678614Y-5534049D01*
X18678614Y-5494049D02*
X18638614Y-5534049D01*
X18646564Y-5194149D02*
X18686564Y-5234149D01*
X18686564Y-5194149D02*
X18646564Y-5234149D01*
X18760564Y-5494049D02*
X18800564Y-5534049D01*
X18800564Y-5494049D02*
X18760564Y-5534049D01*
X18849564Y-5180099D02*
X18889564Y-5220099D01*
X18889564Y-5180099D02*
X18849564Y-5220099D01*
X18967564Y-7616099D02*
X19007564Y-7656099D01*
X19007564Y-7616099D02*
X18967564Y-7656099D01*
X18968269Y-7500849D02*
X19008269Y-7540849D01*
X19008269Y-7500849D02*
X18968269Y-7540849D01*
X18987564Y-8448099D02*
X19027564Y-8488099D01*
X19027564Y-8448099D02*
X18987564Y-8488099D01*
X18988269Y-8332849D02*
X19028269Y-8372849D01*
X19028269Y-8332849D02*
X18988269Y-8372849D01*
X18992564Y-9294099D02*
X19032564Y-9334099D01*
X19032564Y-9294099D02*
X18992564Y-9334099D01*
X18993269Y-9178849D02*
X19033269Y-9218849D01*
X19033269Y-9178849D02*
X18993269Y-9218849D01*
X18993859Y-10129349D02*
X19033859Y-10169349D01*
X19033859Y-10129349D02*
X18993859Y-10169349D01*
X18994564Y-10014099D02*
X19034564Y-10054099D01*
X19034564Y-10014099D02*
X18994564Y-10054099D01*
X19002964Y-8217499D02*
X19042964Y-8257499D01*
X19042964Y-8217499D02*
X19002964Y-8257499D01*
X19028364Y-9055699D02*
X19068364Y-9095699D01*
X19068364Y-9055699D02*
X19028364Y-9095699D01*
X19049564Y-5176099D02*
X19089564Y-5216099D01*
X19089564Y-5176099D02*
X19049564Y-5216099D01*
X19053764Y-9893899D02*
X19093764Y-9933899D01*
X19093764Y-9893899D02*
X19053764Y-9933899D01*
X19053764Y-10757499D02*
X19093764Y-10797499D01*
X19093764Y-10757499D02*
X19053764Y-10797499D01*
X19069564Y-5744049D02*
X19109564Y-5784049D01*
X19109564Y-5744049D02*
X19069564Y-5784049D01*
X19095564Y-7617099D02*
X19135564Y-7657099D01*
X19135564Y-7617099D02*
X19095564Y-7657099D01*
X19096269Y-7501849D02*
X19136269Y-7541849D01*
X19136269Y-7501849D02*
X19096269Y-7541849D01*
X19115564Y-8448099D02*
X19155564Y-8488099D01*
X19155564Y-8448099D02*
X19115564Y-8488099D01*
X19116269Y-8332849D02*
X19156269Y-8372849D01*
X19156269Y-8332849D02*
X19116269Y-8372849D01*
X19120859Y-10014099D02*
X19160859Y-10054099D01*
X19160859Y-10014099D02*
X19120859Y-10054099D01*
X19120859Y-10129349D02*
X19160859Y-10169349D01*
X19160859Y-10129349D02*
X19120859Y-10169349D01*
X19121564Y-9294099D02*
X19161564Y-9334099D01*
X19161564Y-9294099D02*
X19121564Y-9334099D01*
X19122269Y-9178849D02*
X19162269Y-9218849D01*
X19162269Y-9178849D02*
X19122269Y-9218849D01*
X19291564Y-11929099D02*
X19331564Y-11969099D01*
X19331564Y-11929099D02*
X19291564Y-11969099D01*
X19298564Y-6044049D02*
X19338564Y-6084049D01*
X19338564Y-6044049D02*
X19298564Y-6084049D01*
X19325564Y-11223099D02*
X19365564Y-11263099D01*
X19365564Y-11223099D02*
X19325564Y-11263099D01*
X19358564Y-10732099D02*
X19398564Y-10772099D01*
X19398564Y-10732099D02*
X19358564Y-10772099D01*
X19383964Y-7887299D02*
X19423964Y-7927299D01*
X19423964Y-7887299D02*
X19383964Y-7927299D01*
X19409364Y-8725499D02*
X19449364Y-8765499D01*
X19449364Y-8725499D02*
X19409364Y-8765499D01*
X19409364Y-9563699D02*
X19449364Y-9603699D01*
X19449364Y-9563699D02*
X19409364Y-9603699D01*
X19409364Y-10401899D02*
X19449364Y-10441899D01*
X19449364Y-10401899D02*
X19409364Y-10441899D01*
X19485564Y-8142549D02*
X19525564Y-8182549D01*
X19525564Y-8142549D02*
X19485564Y-8182549D01*
X19510964Y-8980749D02*
X19550964Y-9020749D01*
X19550964Y-8980749D02*
X19510964Y-9020749D01*
X19510964Y-9818949D02*
X19550964Y-9858949D01*
X19550964Y-9818949D02*
X19510964Y-9858949D01*
X19510964Y-10657149D02*
X19550964Y-10697149D01*
X19550964Y-10657149D02*
X19510964Y-10697149D01*
X19659000Y-9893899D02*
X19699000Y-9933899D01*
X19699000Y-9893899D02*
X19659000Y-9933899D01*
X19730000Y-8217499D02*
X19770000Y-8257499D01*
X19770000Y-8217499D02*
X19730000Y-8257499D01*
X19750000Y-9055699D02*
X19790000Y-9095699D01*
X19790000Y-9055699D02*
X19750000Y-9095699D01*
X19814000Y-7378000D02*
X19854000Y-7418000D01*
X19854000Y-7378000D02*
X19814000Y-7418000D01*
X19847000Y-8256000D02*
X19887000Y-8296000D01*
X19887000Y-8256000D02*
X19847000Y-8296000D01*
X19853000Y-9091000D02*
X19893000Y-9131000D01*
X19893000Y-9091000D02*
X19853000Y-9131000D01*
X19868000Y-9948000D02*
X19908000Y-9988000D01*
X19908000Y-9948000D02*
X19868000Y-9988000D01*
X19919564Y-8675949D02*
X19959564Y-8715949D01*
X19959564Y-8675949D02*
X19919564Y-8715949D01*
X19921564Y-9514099D02*
X19961564Y-9554099D01*
X19961564Y-9514099D02*
X19921564Y-9554099D01*
X19932441Y-7812349D02*
X19972441Y-7852349D01*
X19972441Y-7812349D02*
X19932441Y-7852349D01*
X19935054Y-7979399D02*
X19975054Y-8019399D01*
X19975054Y-7979399D02*
X19935054Y-8019399D01*
X19936514Y-8825849D02*
X19976514Y-8865849D01*
X19976514Y-8825849D02*
X19936514Y-8865849D01*
X19942764Y-9664942D02*
X19982764Y-9704942D01*
X19982764Y-9664942D02*
X19942764Y-9704942D01*
X19942764Y-10503499D02*
X19982764Y-10543499D01*
X19982764Y-10503499D02*
X19942764Y-10543499D01*
X19945564Y-10352099D02*
X19985564Y-10392099D01*
X19985564Y-10352099D02*
X19945564Y-10392099D01*
X20476164Y-9741499D02*
X20516164Y-9781499D01*
X20516164Y-9741499D02*
X20476164Y-9781499D01*
X20476164Y-9893899D02*
X20516164Y-9933899D01*
X20516164Y-9893899D02*
X20476164Y-9933899D01*
X20546157Y-8173478D02*
X20586157Y-8213478D01*
X20586157Y-8173478D02*
X20546157Y-8213478D01*
X20547898Y-7963499D02*
X20587898Y-8003499D01*
X20587898Y-7963499D02*
X20547898Y-8003499D01*
X20552364Y-8065099D02*
X20592364Y-8105099D01*
X20592364Y-8065099D02*
X20552364Y-8105099D01*
X20552364Y-10071699D02*
X20592364Y-10111699D01*
X20592364Y-10071699D02*
X20552364Y-10111699D01*
X20558895Y-8308101D02*
X20598895Y-8348101D01*
X20598895Y-8308101D02*
X20558895Y-8348101D01*
X20577764Y-8496899D02*
X20617764Y-8536899D01*
X20617764Y-8496899D02*
X20577764Y-8536899D01*
X20577764Y-8852499D02*
X20617764Y-8892499D01*
X20617764Y-8852499D02*
X20577764Y-8892499D01*
X20577764Y-8979499D02*
X20617764Y-9019499D01*
X20617764Y-8979499D02*
X20577764Y-9019499D01*
X20602585Y-10158174D02*
X20642585Y-10198174D01*
X20642585Y-10158174D02*
X20602585Y-10198174D01*
X20627314Y-9869099D02*
X20667314Y-9909099D01*
X20667314Y-9869099D02*
X20627314Y-9909099D01*
X20630761Y-9692897D02*
X20670761Y-9732897D01*
X20670761Y-9692897D02*
X20630761Y-9732897D01*
X20653964Y-7963499D02*
X20693964Y-8003499D01*
X20693964Y-7963499D02*
X20653964Y-8003499D01*
X20788069Y-10146649D02*
X20828069Y-10186649D01*
X20828069Y-10146649D02*
X20788069Y-10186649D01*
X20863019Y-9970099D02*
X20903019Y-10010099D01*
X20903019Y-9970099D02*
X20863019Y-10010099D01*
X20893000Y-8273000D02*
X20933000Y-8313000D01*
X20933000Y-8273000D02*
X20893000Y-8313000D01*
X20907964Y-8776299D02*
X20947964Y-8816299D01*
X20947964Y-8776299D02*
X20907964Y-8816299D01*
X20907964Y-9081099D02*
X20947964Y-9121099D01*
X20947964Y-9081099D02*
X20907964Y-9121099D01*
X20907964Y-9309699D02*
X20947964Y-9349699D01*
X20947964Y-9309699D02*
X20907964Y-9349699D01*
X20909294Y-9754272D02*
X20949294Y-9794272D01*
X20949294Y-9754272D02*
X20909294Y-9794272D01*
X20938736Y-8065475D02*
X20978736Y-8105475D01*
X20978736Y-8065475D02*
X20938736Y-8105475D01*
X20958764Y-8674699D02*
X20998764Y-8714699D01*
X20998764Y-8674699D02*
X20958764Y-8714699D01*
X20968156Y-8563088D02*
X21008156Y-8603088D01*
X21008156Y-8563088D02*
X20968156Y-8603088D01*
X21009564Y-9716099D02*
X21049564Y-9756099D01*
X21049564Y-9716099D02*
X21009564Y-9756099D01*
X21038669Y-8063599D02*
X21078669Y-8103599D01*
X21078669Y-8063599D02*
X21038669Y-8103599D01*
X21049564Y-8505099D02*
X21089564Y-8545099D01*
X21089564Y-8505099D02*
X21049564Y-8545099D01*
X21085764Y-9233499D02*
X21125764Y-9273499D01*
X21125764Y-9233499D02*
X21085764Y-9273499D01*
X21258845Y-8445776D02*
X21298845Y-8485776D01*
X21298845Y-8445776D02*
X21258845Y-8485776D01*
X21263564Y-9919299D02*
X21303564Y-9959299D01*
X21303564Y-9919299D02*
X21263564Y-9959299D01*
X21332330Y-8214461D02*
X21372330Y-8254461D01*
X21372330Y-8214461D02*
X21332330Y-8254461D01*
X21365164Y-7963499D02*
X21405164Y-8003499D01*
X21405164Y-7963499D02*
X21365164Y-8003499D01*
X21365164Y-8319099D02*
X21405164Y-8359099D01*
X21405164Y-8319099D02*
X21365164Y-8359099D01*
X21366414Y-9411299D02*
X21406414Y-9451299D01*
X21406414Y-9411299D02*
X21366414Y-9451299D01*
X21441364Y-9233499D02*
X21481364Y-9273499D01*
X21481364Y-9233499D02*
X21441364Y-9273499D01*
X21466764Y-7938099D02*
X21506764Y-7978099D01*
X21506764Y-7938099D02*
X21466764Y-7978099D01*
X21466764Y-8649299D02*
X21506764Y-8689299D01*
X21506764Y-8649299D02*
X21466764Y-8689299D01*
X21466764Y-9006149D02*
X21506764Y-9046149D01*
X21506764Y-9006149D02*
X21466764Y-9046149D01*
X21517564Y-8039699D02*
X21557564Y-8079699D01*
X21557564Y-8039699D02*
X21517564Y-8079699D01*
X21541714Y-8369899D02*
X21581714Y-8409899D01*
X21581714Y-8369899D02*
X21541714Y-8409899D01*
X21593764Y-8166699D02*
X21633764Y-8206699D01*
X21633764Y-8166699D02*
X21593764Y-8206699D01*
X21669964Y-8395299D02*
X21709964Y-8435299D01*
X21709964Y-8395299D02*
X21669964Y-8435299D01*
X21722961Y-8499097D02*
X21762961Y-8539097D01*
X21762961Y-8499097D02*
X21722961Y-8539097D01*
X21796964Y-8674699D02*
X21836964Y-8714699D01*
X21836964Y-8674699D02*
X21796964Y-8714699D01*
X21875361Y-9032497D02*
X21915361Y-9072497D01*
X21915361Y-9032497D02*
X21875361Y-9072497D01*
X21877559Y-8806095D02*
X21917559Y-8846095D01*
X21917559Y-8806095D02*
X21877559Y-8846095D01*
X21890710Y-9347349D02*
X21930710Y-9387349D01*
X21930710Y-9347349D02*
X21890710Y-9387349D01*
X21898564Y-9614499D02*
X21938564Y-9654499D01*
X21938564Y-9614499D02*
X21898564Y-9654499D01*
X21900761Y-8676897D02*
X21940761Y-8716897D01*
X21940761Y-8676897D02*
X21900761Y-8716897D01*
X21991859Y-9021995D02*
X22031859Y-9061995D01*
X22031859Y-9021995D02*
X21991859Y-9061995D01*
X22144259Y-9199795D02*
X22184259Y-9239795D01*
X22184259Y-9199795D02*
X22144259Y-9239795D01*
X9745564Y-4592599D02*
G75*
G02*
X9665564Y-4592599I-40000J0D01*
G01*
X9665564Y-4592599D02*
G75*
G02*
X9745564Y-4592599I40000J0D01*
G01*
X9745564Y-4792599D02*
G75*
G02*
X9665564Y-4792599I-40000J0D01*
G01*
X9665564Y-4792599D02*
G75*
G02*
X9745564Y-4792599I40000J0D01*
G01*
X9745564Y-4992599D02*
G75*
G02*
X9665564Y-4992599I-40000J0D01*
G01*
X9665564Y-4992599D02*
G75*
G02*
X9745564Y-4992599I40000J0D01*
G01*
X9945564Y-4592599D02*
G75*
G02*
X9865564Y-4592599I-40000J0D01*
G01*
X9865564Y-4592599D02*
G75*
G02*
X9945564Y-4592599I40000J0D01*
G01*
X9945564Y-4792599D02*
G75*
G02*
X9865564Y-4792599I-40000J0D01*
G01*
X9865564Y-4792599D02*
G75*
G02*
X9945564Y-4792599I40000J0D01*
G01*
X9945564Y-4992599D02*
G75*
G02*
X9865564Y-4992599I-40000J0D01*
G01*
X9865564Y-4992599D02*
G75*
G02*
X9945564Y-4992599I40000J0D01*
G01*
X8408564Y-4297099D02*
X8408564Y-4397099D01*
X8358564Y-4347099D02*
X8458564Y-4347099D01*
X8408564Y-5821099D02*
X8408564Y-5921099D01*
X8358564Y-5871099D02*
X8458564Y-5871099D01*
X8662564Y-4297099D02*
X8662564Y-4397099D01*
X8612564Y-4347099D02*
X8712564Y-4347099D01*
X8662564Y-4551099D02*
X8662564Y-4651099D01*
X8612564Y-4601099D02*
X8712564Y-4601099D01*
X8662564Y-5821099D02*
X8662564Y-5921099D01*
X8612564Y-5871099D02*
X8712564Y-5871099D01*
X8916564Y-4297099D02*
X8916564Y-4397099D01*
X8866564Y-4347099D02*
X8966564Y-4347099D01*
X8916564Y-5821099D02*
X8916564Y-5921099D01*
X8866564Y-5871099D02*
X8966564Y-5871099D01*
X9043564Y-5517099D02*
X9043564Y-5617099D01*
X8993564Y-5567099D02*
X9093564Y-5567099D01*
X9170564Y-4297099D02*
X9170564Y-4397099D01*
X9120564Y-4347099D02*
X9220564Y-4347099D01*
X9170564Y-5821099D02*
X9170564Y-5921099D01*
X9120564Y-5871099D02*
X9220564Y-5871099D01*
X9297564Y-5517099D02*
X9297564Y-5617099D01*
X9247564Y-5567099D02*
X9347564Y-5567099D01*
X9424564Y-4297099D02*
X9424564Y-4397099D01*
X9374564Y-4347099D02*
X9474564Y-4347099D01*
X9424564Y-5821099D02*
X9424564Y-5921099D01*
X9374564Y-5871099D02*
X9474564Y-5871099D01*
X9551564Y-5517099D02*
X9551564Y-5617099D01*
X9501564Y-5567099D02*
X9601564Y-5567099D01*
X9678564Y-4297099D02*
X9678564Y-4397099D01*
X9628564Y-4347099D02*
X9728564Y-4347099D01*
X9678564Y-5821099D02*
X9678564Y-5921099D01*
X9628564Y-5871099D02*
X9728564Y-5871099D01*
X9805564Y-5517099D02*
X9805564Y-5617099D01*
X9755564Y-5567099D02*
X9855564Y-5567099D01*
X9932564Y-4297099D02*
X9932564Y-4397099D01*
X9882564Y-4347099D02*
X9982564Y-4347099D01*
X9932564Y-5821099D02*
X9932564Y-5921099D01*
X9882564Y-5871099D02*
X9982564Y-5871099D01*
X10059564Y-5517099D02*
X10059564Y-5617099D01*
X10009564Y-5567099D02*
X10109564Y-5567099D01*
X10186564Y-4297099D02*
X10186564Y-4397099D01*
X10136564Y-4347099D02*
X10236564Y-4347099D01*
X10186564Y-5821099D02*
X10186564Y-5921099D01*
X10136564Y-5871099D02*
X10236564Y-5871099D01*
X10440564Y-4297099D02*
X10440564Y-4397099D01*
X10390564Y-4347099D02*
X10490564Y-4347099D01*
X10440564Y-5821099D02*
X10440564Y-5921099D01*
X10390564Y-5871099D02*
X10490564Y-5871099D01*
X10694564Y-4297099D02*
X10694564Y-4397099D01*
X10644564Y-4347099D02*
X10744564Y-4347099D01*
X10694564Y-5821099D02*
X10694564Y-5921099D01*
X10644564Y-5871099D02*
X10744564Y-5871099D01*
X10948564Y-4297099D02*
X10948564Y-4397099D01*
X10898564Y-4347099D02*
X10998564Y-4347099D01*
X10948564Y-5821099D02*
X10948564Y-5921099D01*
X10898564Y-5871099D02*
X10998564Y-5871099D01*
X11202564Y-4297099D02*
X11202564Y-4397099D01*
X11152564Y-4347099D02*
X11252564Y-4347099D01*
X11202564Y-5821099D02*
X11202564Y-5921099D01*
X11152564Y-5871099D02*
X11252564Y-5871099D01*
X11456564Y-4297099D02*
X11456564Y-4397099D01*
X11406564Y-4347099D02*
X11506564Y-4347099D01*
X11456564Y-5821099D02*
X11456564Y-5921099D01*
X11406564Y-5871099D02*
X11506564Y-5871099D01*
X11710564Y-4297099D02*
X11710564Y-4397099D01*
X11660564Y-4347099D02*
X11760564Y-4347099D01*
X11710564Y-5821099D02*
X11710564Y-5921099D01*
X11660564Y-5871099D02*
X11760564Y-5871099D01*
X11964564Y-4297099D02*
X11964564Y-4397099D01*
X11914564Y-4347099D02*
X12014564Y-4347099D01*
X11964564Y-5821099D02*
X11964564Y-5921099D01*
X11914564Y-5871099D02*
X12014564Y-5871099D01*
X12218564Y-4297099D02*
X12218564Y-4397099D01*
X12168564Y-4347099D02*
X12268564Y-4347099D01*
X12218564Y-5821099D02*
X12218564Y-5921099D01*
X12168564Y-5871099D02*
X12268564Y-5871099D01*
X12472564Y-4297099D02*
X12472564Y-4397099D01*
X12422564Y-4347099D02*
X12522564Y-4347099D01*
X12472564Y-5821099D02*
X12472564Y-5921099D01*
X12422564Y-5871099D02*
X12522564Y-5871099D01*
X12726564Y-4297099D02*
X12726564Y-4397099D01*
X12676564Y-4347099D02*
X12776564Y-4347099D01*
X12726564Y-5821099D02*
X12726564Y-5921099D01*
X12676564Y-5871099D02*
X12776564Y-5871099D01*
X12980564Y-4297099D02*
X12980564Y-4397099D01*
X12930564Y-4347099D02*
X13030564Y-4347099D01*
X12980564Y-4551099D02*
X12980564Y-4651099D01*
X12930564Y-4601099D02*
X13030564Y-4601099D01*
X12980564Y-4805099D02*
X12980564Y-4905099D01*
X12930564Y-4855099D02*
X13030564Y-4855099D01*
X12980564Y-5059099D02*
X12980564Y-5159099D01*
X12930564Y-5109099D02*
X13030564Y-5109099D01*
X12980564Y-5313099D02*
X12980564Y-5413099D01*
X12930564Y-5363099D02*
X13030564Y-5363099D01*
X12980564Y-5567099D02*
X12980564Y-5667099D01*
X12930564Y-5617099D02*
X13030564Y-5617099D01*
X12980564Y-5821099D02*
X12980564Y-5921099D01*
X12930564Y-5871099D02*
X13030564Y-5871099D01*
X13234564Y-4297099D02*
X13234564Y-4397099D01*
X13184564Y-4347099D02*
X13284564Y-4347099D01*
X13234564Y-5821099D02*
X13234564Y-5921099D01*
X13184564Y-5871099D02*
X13284564Y-5871099D01*
X13488564Y-4297099D02*
X13488564Y-4397099D01*
X13438564Y-4347099D02*
X13538564Y-4347099D01*
X13488564Y-5821099D02*
X13488564Y-5921099D01*
X13438564Y-5871099D02*
X13538564Y-5871099D01*
X13742564Y-4297099D02*
X13742564Y-4397099D01*
X13692564Y-4347099D02*
X13792564Y-4347099D01*
X13742564Y-5821099D02*
X13742564Y-5921099D01*
X13692564Y-5871099D02*
X13792564Y-5871099D01*
X13996564Y-4297099D02*
X13996564Y-4397099D01*
X13946564Y-4347099D02*
X14046564Y-4347099D01*
X13996564Y-5821099D02*
X13996564Y-5921099D01*
X13946564Y-5871099D02*
X14046564Y-5871099D01*
X14250564Y-4297099D02*
X14250564Y-4397099D01*
X14200564Y-4347099D02*
X14300564Y-4347099D01*
X14250564Y-5821099D02*
X14250564Y-5921099D01*
X14200564Y-5871099D02*
X14300564Y-5871099D01*
D12*
X9557063Y-7886063D02*
X9557063Y-7813937D01*
X9484937Y-7813937D01*
X9484937Y-7886063D01*
X9557063Y-7886063D01*
X9557063Y-8186063D02*
X9557063Y-8113937D01*
X9484937Y-8113937D01*
X9484937Y-8186063D01*
X9557063Y-8186063D01*
X9557063Y-8486063D02*
X9557063Y-8413937D01*
X9484937Y-8413937D01*
X9484937Y-8486063D01*
X9557063Y-8486063D01*
X9857063Y-7886063D02*
X9857063Y-7813937D01*
X9784937Y-7813937D01*
X9784937Y-7886063D01*
X9857063Y-7886063D01*
X9857063Y-8186063D02*
X9857063Y-8113937D01*
X9784937Y-8113937D01*
X9784937Y-8186063D01*
X9857063Y-8186063D01*
X9857063Y-8486063D02*
X9857063Y-8413937D01*
X9784937Y-8413937D01*
X9784937Y-8486063D01*
X9857063Y-8486063D01*
D13*
X11216564Y-11215099D02*
X11281564Y-11150099D01*
X11216564Y-11085099D01*
X11151564Y-11150099D01*
X11216564Y-11215099D01*
X11216564Y-12015099D02*
X11281564Y-11950099D01*
X11216564Y-11885099D01*
X11151564Y-11950099D01*
X11216564Y-12015099D01*
X11366564Y-11465099D02*
X11431564Y-11400099D01*
X11366564Y-11335099D01*
X11301564Y-11400099D01*
X11366564Y-11465099D01*
X11366564Y-11765099D02*
X11431564Y-11700099D01*
X11366564Y-11635099D01*
X11301564Y-11700099D01*
X11366564Y-11765099D01*
X11516564Y-11215099D02*
X11581564Y-11150099D01*
X11516564Y-11085099D01*
X11451564Y-11150099D01*
X11516564Y-11215099D01*
X11516564Y-12015099D02*
X11581564Y-11950099D01*
X11516564Y-11885099D01*
X11451564Y-11950099D01*
X11516564Y-12015099D01*
X11666564Y-11465099D02*
X11731564Y-11400099D01*
X11666564Y-11335099D01*
X11601564Y-11400099D01*
X11666564Y-11465099D01*
X11666564Y-11765099D02*
X11731564Y-11700099D01*
X11666564Y-11635099D01*
X11601564Y-11700099D01*
X11666564Y-11765099D01*
X11816564Y-11215099D02*
X11881564Y-11150099D01*
X11816564Y-11085099D01*
X11751564Y-11150099D01*
X11816564Y-11215099D01*
X11816564Y-12015099D02*
X11881564Y-11950099D01*
X11816564Y-11885099D01*
X11751564Y-11950099D01*
X11816564Y-12015099D01*
X11966564Y-11465099D02*
X12031564Y-11400099D01*
X11966564Y-11335099D01*
X11901564Y-11400099D01*
X11966564Y-11465099D01*
X11966564Y-11765099D02*
X12031564Y-11700099D01*
X11966564Y-11635099D01*
X11901564Y-11700099D01*
X11966564Y-11765099D01*
X12116564Y-11215099D02*
X12181564Y-11150099D01*
X12116564Y-11085099D01*
X12051564Y-11150099D01*
X12116564Y-11215099D01*
X12116564Y-12015099D02*
X12181564Y-11950099D01*
X12116564Y-11885099D01*
X12051564Y-11950099D01*
X12116564Y-12015099D01*
X12266564Y-11465099D02*
X12331564Y-11400099D01*
X12266564Y-11335099D01*
X12201564Y-11400099D01*
X12266564Y-11465099D01*
X12266564Y-11765099D02*
X12331564Y-11700099D01*
X12266564Y-11635099D01*
X12201564Y-11700099D01*
X12266564Y-11765099D01*
X12416564Y-11215099D02*
X12481564Y-11150099D01*
X12416564Y-11085099D01*
X12351564Y-11150099D01*
X12416564Y-11215099D01*
X12416564Y-12015099D02*
X12481564Y-11950099D01*
X12416564Y-11885099D01*
X12351564Y-11950099D01*
X12416564Y-12015099D01*
X12566564Y-11465099D02*
X12631564Y-11400099D01*
X12566564Y-11335099D01*
X12501564Y-11400099D01*
X12566564Y-11465099D01*
X12566564Y-11765099D02*
X12631564Y-11700099D01*
X12566564Y-11635099D01*
X12501564Y-11700099D01*
X12566564Y-11765099D01*
X12716564Y-11215099D02*
X12781564Y-11150099D01*
X12716564Y-11085099D01*
X12651564Y-11150099D01*
X12716564Y-11215099D01*
X12716564Y-12015099D02*
X12781564Y-11950099D01*
X12716564Y-11885099D01*
X12651564Y-11950099D01*
X12716564Y-12015099D01*
X12866564Y-11465099D02*
X12931564Y-11400099D01*
X12866564Y-11335099D01*
X12801564Y-11400099D01*
X12866564Y-11465099D01*
X12866564Y-11765099D02*
X12931564Y-11700099D01*
X12866564Y-11635099D01*
X12801564Y-11700099D01*
X12866564Y-11765099D01*
X13016564Y-11215099D02*
X13081564Y-11150099D01*
X13016564Y-11085099D01*
X12951564Y-11150099D01*
X13016564Y-11215099D01*
X13016564Y-12015099D02*
X13081564Y-11950099D01*
X13016564Y-11885099D01*
X12951564Y-11950099D01*
X13016564Y-12015099D01*
X13166564Y-11465099D02*
X13231564Y-11400099D01*
X13166564Y-11335099D01*
X13101564Y-11400099D01*
X13166564Y-11465099D01*
X13166564Y-11765099D02*
X13231564Y-11700099D01*
X13166564Y-11635099D01*
X13101564Y-11700099D01*
X13166564Y-11765099D01*
X13316564Y-11215099D02*
X13381564Y-11150099D01*
X13316564Y-11085099D01*
X13251564Y-11150099D01*
X13316564Y-11215099D01*
X13316564Y-12015099D02*
X13381564Y-11950099D01*
X13316564Y-11885099D01*
X13251564Y-11950099D01*
X13316564Y-12015099D01*
X13466564Y-11465099D02*
X13531564Y-11400099D01*
X13466564Y-11335099D01*
X13401564Y-11400099D01*
X13466564Y-11465099D01*
X13466564Y-11765099D02*
X13531564Y-11700099D01*
X13466564Y-11635099D01*
X13401564Y-11700099D01*
X13466564Y-11765099D01*
X13616564Y-11215099D02*
X13681564Y-11150099D01*
X13616564Y-11085099D01*
X13551564Y-11150099D01*
X13616564Y-11215099D01*
X13616564Y-12015099D02*
X13681564Y-11950099D01*
X13616564Y-11885099D01*
X13551564Y-11950099D01*
X13616564Y-12015099D01*
X15936564Y-11215099D02*
X16001564Y-11150099D01*
X15936564Y-11085099D01*
X15871564Y-11150099D01*
X15936564Y-11215099D01*
X15936564Y-12015099D02*
X16001564Y-11950099D01*
X15936564Y-11885099D01*
X15871564Y-11950099D01*
X15936564Y-12015099D01*
X16086564Y-11465099D02*
X16151564Y-11400099D01*
X16086564Y-11335099D01*
X16021564Y-11400099D01*
X16086564Y-11465099D01*
X16086564Y-11765099D02*
X16151564Y-11700099D01*
X16086564Y-11635099D01*
X16021564Y-11700099D01*
X16086564Y-11765099D01*
X16236564Y-11215099D02*
X16301564Y-11150099D01*
X16236564Y-11085099D01*
X16171564Y-11150099D01*
X16236564Y-11215099D01*
X16236564Y-12015099D02*
X16301564Y-11950099D01*
X16236564Y-11885099D01*
X16171564Y-11950099D01*
X16236564Y-12015099D01*
X16386564Y-11465099D02*
X16451564Y-11400099D01*
X16386564Y-11335099D01*
X16321564Y-11400099D01*
X16386564Y-11465099D01*
X16386564Y-11765099D02*
X16451564Y-11700099D01*
X16386564Y-11635099D01*
X16321564Y-11700099D01*
X16386564Y-11765099D01*
X16536564Y-11215099D02*
X16601564Y-11150099D01*
X16536564Y-11085099D01*
X16471564Y-11150099D01*
X16536564Y-11215099D01*
X16536564Y-12015099D02*
X16601564Y-11950099D01*
X16536564Y-11885099D01*
X16471564Y-11950099D01*
X16536564Y-12015099D01*
X16686564Y-11465099D02*
X16751564Y-11400099D01*
X16686564Y-11335099D01*
X16621564Y-11400099D01*
X16686564Y-11465099D01*
X16686564Y-11765099D02*
X16751564Y-11700099D01*
X16686564Y-11635099D01*
X16621564Y-11700099D01*
X16686564Y-11765099D01*
X16836564Y-11215099D02*
X16901564Y-11150099D01*
X16836564Y-11085099D01*
X16771564Y-11150099D01*
X16836564Y-11215099D01*
X16836564Y-12015099D02*
X16901564Y-11950099D01*
X16836564Y-11885099D01*
X16771564Y-11950099D01*
X16836564Y-12015099D01*
X16986564Y-11465099D02*
X17051564Y-11400099D01*
X16986564Y-11335099D01*
X16921564Y-11400099D01*
X16986564Y-11465099D01*
X16986564Y-11765099D02*
X17051564Y-11700099D01*
X16986564Y-11635099D01*
X16921564Y-11700099D01*
X16986564Y-11765099D01*
X17136564Y-11215099D02*
X17201564Y-11150099D01*
X17136564Y-11085099D01*
X17071564Y-11150099D01*
X17136564Y-11215099D01*
X17136564Y-12015099D02*
X17201564Y-11950099D01*
X17136564Y-11885099D01*
X17071564Y-11950099D01*
X17136564Y-12015099D01*
X17286564Y-11465099D02*
X17351564Y-11400099D01*
X17286564Y-11335099D01*
X17221564Y-11400099D01*
X17286564Y-11465099D01*
X17286564Y-11765099D02*
X17351564Y-11700099D01*
X17286564Y-11635099D01*
X17221564Y-11700099D01*
X17286564Y-11765099D01*
X17436564Y-11215099D02*
X17501564Y-11150099D01*
X17436564Y-11085099D01*
X17371564Y-11150099D01*
X17436564Y-11215099D01*
X17436564Y-12015099D02*
X17501564Y-11950099D01*
X17436564Y-11885099D01*
X17371564Y-11950099D01*
X17436564Y-12015099D01*
X17586564Y-11465099D02*
X17651564Y-11400099D01*
X17586564Y-11335099D01*
X17521564Y-11400099D01*
X17586564Y-11465099D01*
X17586564Y-11765099D02*
X17651564Y-11700099D01*
X17586564Y-11635099D01*
X17521564Y-11700099D01*
X17586564Y-11765099D01*
X17736564Y-11215099D02*
X17801564Y-11150099D01*
X17736564Y-11085099D01*
X17671564Y-11150099D01*
X17736564Y-11215099D01*
X17736564Y-12015099D02*
X17801564Y-11950099D01*
X17736564Y-11885099D01*
X17671564Y-11950099D01*
X17736564Y-12015099D01*
X17886564Y-11465099D02*
X17951564Y-11400099D01*
X17886564Y-11335099D01*
X17821564Y-11400099D01*
X17886564Y-11465099D01*
X17886564Y-11765099D02*
X17951564Y-11700099D01*
X17886564Y-11635099D01*
X17821564Y-11700099D01*
X17886564Y-11765099D01*
X18036564Y-11215099D02*
X18101564Y-11150099D01*
X18036564Y-11085099D01*
X17971564Y-11150099D01*
X18036564Y-11215099D01*
X18036564Y-12015099D02*
X18101564Y-11950099D01*
X18036564Y-11885099D01*
X17971564Y-11950099D01*
X18036564Y-12015099D01*
X18186564Y-11465099D02*
X18251564Y-11400099D01*
X18186564Y-11335099D01*
X18121564Y-11400099D01*
X18186564Y-11465099D01*
X18186564Y-11765099D02*
X18251564Y-11700099D01*
X18186564Y-11635099D01*
X18121564Y-11700099D01*
X18186564Y-11765099D01*
X18336564Y-11215099D02*
X18401564Y-11150099D01*
X18336564Y-11085099D01*
X18271564Y-11150099D01*
X18336564Y-11215099D01*
X18336564Y-12015099D02*
X18401564Y-11950099D01*
X18336564Y-11885099D01*
X18271564Y-11950099D01*
X18336564Y-12015099D01*
D14*
X20480000Y-10618000D02*
X21120000Y-11258000D01*
X21120000Y-10618000D02*
X20480000Y-11258000D01*
X21120000Y-10938000D02*
G75*
G02*
X20480000Y-10938000I-320000J0D01*
G01*
X20480000Y-10938000D02*
G75*
G02*
X21120000Y-10938000I320000J0D01*
G01*
X20484669Y-6214199D02*
X21124669Y-6854199D01*
X21124669Y-6214199D02*
X20484669Y-6854199D01*
X21124669Y-6534199D02*
G75*
G02*
X20484669Y-6534199I-320000J0D01*
G01*
X20484669Y-6534199D02*
G75*
G02*
X21124669Y-6534199I320000J0D01*
G01*
D11*
X7499613Y-13387584D02*
X7499613Y-13187584D01*
X7499613Y-13187584D02*
X7547232Y-13187584D01*
X7547232Y-13187584D02*
X7575804Y-13197108D01*
X7575804Y-13197108D02*
X7594851Y-13216155D01*
X7594851Y-13216155D02*
X7604375Y-13235203D01*
X7604375Y-13235203D02*
X7613899Y-13273298D01*
X7613899Y-13273298D02*
X7613899Y-13301869D01*
X7613899Y-13301869D02*
X7604375Y-13339965D01*
X7604375Y-13339965D02*
X7594851Y-13359012D01*
X7594851Y-13359012D02*
X7575804Y-13378060D01*
X7575804Y-13378060D02*
X7547232Y-13387584D01*
X7547232Y-13387584D02*
X7499613Y-13387584D01*
X7699613Y-13387584D02*
X7699613Y-13254250D01*
X7699613Y-13292346D02*
X7709137Y-13273298D01*
X7709137Y-13273298D02*
X7718661Y-13263774D01*
X7718661Y-13263774D02*
X7737708Y-13254250D01*
X7737708Y-13254250D02*
X7756756Y-13254250D01*
X7823423Y-13387584D02*
X7823423Y-13254250D01*
X7823423Y-13187584D02*
X7813899Y-13197108D01*
X7813899Y-13197108D02*
X7823423Y-13206631D01*
X7823423Y-13206631D02*
X7832946Y-13197108D01*
X7832946Y-13197108D02*
X7823423Y-13187584D01*
X7823423Y-13187584D02*
X7823423Y-13206631D01*
X7947232Y-13387584D02*
X7928184Y-13378060D01*
X7928184Y-13378060D02*
X7918661Y-13359012D01*
X7918661Y-13359012D02*
X7918661Y-13187584D01*
X8051994Y-13387584D02*
X8032946Y-13378060D01*
X8032946Y-13378060D02*
X8023423Y-13359012D01*
X8023423Y-13359012D02*
X8023423Y-13187584D01*
X8280565Y-13387584D02*
X8280565Y-13187584D01*
X8280565Y-13187584D02*
X8347232Y-13330441D01*
X8347232Y-13330441D02*
X8413899Y-13187584D01*
X8413899Y-13187584D02*
X8413899Y-13387584D01*
X8594851Y-13387584D02*
X8594851Y-13282822D01*
X8594851Y-13282822D02*
X8585327Y-13263774D01*
X8585327Y-13263774D02*
X8566280Y-13254250D01*
X8566280Y-13254250D02*
X8528185Y-13254250D01*
X8528185Y-13254250D02*
X8509137Y-13263774D01*
X8594851Y-13378060D02*
X8575804Y-13387584D01*
X8575804Y-13387584D02*
X8528185Y-13387584D01*
X8528185Y-13387584D02*
X8509137Y-13378060D01*
X8509137Y-13378060D02*
X8499613Y-13359012D01*
X8499613Y-13359012D02*
X8499613Y-13339965D01*
X8499613Y-13339965D02*
X8509137Y-13320917D01*
X8509137Y-13320917D02*
X8528185Y-13311393D01*
X8528185Y-13311393D02*
X8575804Y-13311393D01*
X8575804Y-13311393D02*
X8594851Y-13301869D01*
X8690089Y-13254250D02*
X8690089Y-13454250D01*
X8690089Y-13263774D02*
X8709137Y-13254250D01*
X8709137Y-13254250D02*
X8747232Y-13254250D01*
X8747232Y-13254250D02*
X8766280Y-13263774D01*
X8766280Y-13263774D02*
X8775804Y-13273298D01*
X8775804Y-13273298D02*
X8785327Y-13292346D01*
X8785327Y-13292346D02*
X8785327Y-13349488D01*
X8785327Y-13349488D02*
X8775804Y-13368536D01*
X8775804Y-13368536D02*
X8766280Y-13378060D01*
X8766280Y-13378060D02*
X8747232Y-13387584D01*
X8747232Y-13387584D02*
X8709137Y-13387584D01*
X8709137Y-13387584D02*
X8690089Y-13378060D01*
X8871042Y-13368536D02*
X8880566Y-13378060D01*
X8880566Y-13378060D02*
X8871042Y-13387584D01*
X8871042Y-13387584D02*
X8861518Y-13378060D01*
X8861518Y-13378060D02*
X8871042Y-13368536D01*
X8871042Y-13368536D02*
X8871042Y-13387584D01*
X8871042Y-13263774D02*
X8880566Y-13273298D01*
X8880566Y-13273298D02*
X8871042Y-13282822D01*
X8871042Y-13282822D02*
X8861518Y-13273298D01*
X8861518Y-13273298D02*
X8871042Y-13263774D01*
X8871042Y-13263774D02*
X8871042Y-13282822D01*
D10*
X7198836Y-13696100D02*
X7238836Y-13736100D01*
X7238836Y-13696100D02*
X7198836Y-13736100D01*
D11*
X7537708Y-13607584D02*
X7556756Y-13607584D01*
X7556756Y-13607584D02*
X7575804Y-13617108D01*
X7575804Y-13617108D02*
X7585327Y-13626631D01*
X7585327Y-13626631D02*
X7594851Y-13645679D01*
X7594851Y-13645679D02*
X7604375Y-13683774D01*
X7604375Y-13683774D02*
X7604375Y-13731393D01*
X7604375Y-13731393D02*
X7594851Y-13769488D01*
X7594851Y-13769488D02*
X7585327Y-13788536D01*
X7585327Y-13788536D02*
X7575804Y-13798060D01*
X7575804Y-13798060D02*
X7556756Y-13807584D01*
X7556756Y-13807584D02*
X7537708Y-13807584D01*
X7537708Y-13807584D02*
X7518661Y-13798060D01*
X7518661Y-13798060D02*
X7509137Y-13788536D01*
X7509137Y-13788536D02*
X7499613Y-13769488D01*
X7499613Y-13769488D02*
X7490089Y-13731393D01*
X7490089Y-13731393D02*
X7490089Y-13683774D01*
X7490089Y-13683774D02*
X7499613Y-13645679D01*
X7499613Y-13645679D02*
X7509137Y-13626631D01*
X7509137Y-13626631D02*
X7518661Y-13617108D01*
X7518661Y-13617108D02*
X7537708Y-13607584D01*
X7690089Y-13788536D02*
X7699613Y-13798060D01*
X7699613Y-13798060D02*
X7690089Y-13807584D01*
X7690089Y-13807584D02*
X7680565Y-13798060D01*
X7680565Y-13798060D02*
X7690089Y-13788536D01*
X7690089Y-13788536D02*
X7690089Y-13807584D01*
X7871042Y-13674250D02*
X7871042Y-13807584D01*
X7823423Y-13598060D02*
X7775804Y-13740917D01*
X7775804Y-13740917D02*
X7899613Y-13740917D01*
X8013899Y-13607584D02*
X8032946Y-13607584D01*
X8032946Y-13607584D02*
X8051994Y-13617108D01*
X8051994Y-13617108D02*
X8061518Y-13626631D01*
X8061518Y-13626631D02*
X8071042Y-13645679D01*
X8071042Y-13645679D02*
X8080565Y-13683774D01*
X8080565Y-13683774D02*
X8080565Y-13731393D01*
X8080565Y-13731393D02*
X8071042Y-13769488D01*
X8071042Y-13769488D02*
X8061518Y-13788536D01*
X8061518Y-13788536D02*
X8051994Y-13798060D01*
X8051994Y-13798060D02*
X8032946Y-13807584D01*
X8032946Y-13807584D02*
X8013899Y-13807584D01*
X8013899Y-13807584D02*
X7994851Y-13798060D01*
X7994851Y-13798060D02*
X7985327Y-13788536D01*
X7985327Y-13788536D02*
X7975804Y-13769488D01*
X7975804Y-13769488D02*
X7966280Y-13731393D01*
X7966280Y-13731393D02*
X7966280Y-13683774D01*
X7966280Y-13683774D02*
X7975804Y-13645679D01*
X7975804Y-13645679D02*
X7985327Y-13626631D01*
X7985327Y-13626631D02*
X7994851Y-13617108D01*
X7994851Y-13617108D02*
X8013899Y-13607584D01*
X8204375Y-13607584D02*
X8223423Y-13607584D01*
X8223423Y-13607584D02*
X8242470Y-13617108D01*
X8242470Y-13617108D02*
X8251994Y-13626631D01*
X8251994Y-13626631D02*
X8261518Y-13645679D01*
X8261518Y-13645679D02*
X8271042Y-13683774D01*
X8271042Y-13683774D02*
X8271042Y-13731393D01*
X8271042Y-13731393D02*
X8261518Y-13769488D01*
X8261518Y-13769488D02*
X8251994Y-13788536D01*
X8251994Y-13788536D02*
X8242470Y-13798060D01*
X8242470Y-13798060D02*
X8223423Y-13807584D01*
X8223423Y-13807584D02*
X8204375Y-13807584D01*
X8204375Y-13807584D02*
X8185327Y-13798060D01*
X8185327Y-13798060D02*
X8175804Y-13788536D01*
X8175804Y-13788536D02*
X8166280Y-13769488D01*
X8166280Y-13769488D02*
X8156756Y-13731393D01*
X8156756Y-13731393D02*
X8156756Y-13683774D01*
X8156756Y-13683774D02*
X8166280Y-13645679D01*
X8166280Y-13645679D02*
X8175804Y-13626631D01*
X8175804Y-13626631D02*
X8185327Y-13617108D01*
X8185327Y-13617108D02*
X8204375Y-13607584D01*
X8356756Y-13807584D02*
X8356756Y-13674250D01*
X8356756Y-13693298D02*
X8366280Y-13683774D01*
X8366280Y-13683774D02*
X8385327Y-13674250D01*
X8385327Y-13674250D02*
X8413899Y-13674250D01*
X8413899Y-13674250D02*
X8432947Y-13683774D01*
X8432947Y-13683774D02*
X8442470Y-13702822D01*
X8442470Y-13702822D02*
X8442470Y-13807584D01*
X8442470Y-13702822D02*
X8451994Y-13683774D01*
X8451994Y-13683774D02*
X8471042Y-13674250D01*
X8471042Y-13674250D02*
X8499613Y-13674250D01*
X8499613Y-13674250D02*
X8518661Y-13683774D01*
X8518661Y-13683774D02*
X8528185Y-13702822D01*
X8528185Y-13702822D02*
X8528185Y-13807584D01*
X8623423Y-13807584D02*
X8623423Y-13674250D01*
X8623423Y-13693298D02*
X8632947Y-13683774D01*
X8632947Y-13683774D02*
X8651994Y-13674250D01*
X8651994Y-13674250D02*
X8680566Y-13674250D01*
X8680566Y-13674250D02*
X8699613Y-13683774D01*
X8699613Y-13683774D02*
X8709137Y-13702822D01*
X8709137Y-13702822D02*
X8709137Y-13807584D01*
X8709137Y-13702822D02*
X8718661Y-13683774D01*
X8718661Y-13683774D02*
X8737708Y-13674250D01*
X8737708Y-13674250D02*
X8766280Y-13674250D01*
X8766280Y-13674250D02*
X8785328Y-13683774D01*
X8785328Y-13683774D02*
X8794851Y-13702822D01*
X8794851Y-13702822D02*
X8794851Y-13807584D01*
X9185328Y-13598060D02*
X9013899Y-13855203D01*
X9442470Y-13607584D02*
X9461518Y-13607584D01*
X9461518Y-13607584D02*
X9480566Y-13617108D01*
X9480566Y-13617108D02*
X9490090Y-13626631D01*
X9490090Y-13626631D02*
X9499613Y-13645679D01*
X9499613Y-13645679D02*
X9509137Y-13683774D01*
X9509137Y-13683774D02*
X9509137Y-13731393D01*
X9509137Y-13731393D02*
X9499613Y-13769488D01*
X9499613Y-13769488D02*
X9490090Y-13788536D01*
X9490090Y-13788536D02*
X9480566Y-13798060D01*
X9480566Y-13798060D02*
X9461518Y-13807584D01*
X9461518Y-13807584D02*
X9442470Y-13807584D01*
X9442470Y-13807584D02*
X9423423Y-13798060D01*
X9423423Y-13798060D02*
X9413899Y-13788536D01*
X9413899Y-13788536D02*
X9404375Y-13769488D01*
X9404375Y-13769488D02*
X9394851Y-13731393D01*
X9394851Y-13731393D02*
X9394851Y-13683774D01*
X9394851Y-13683774D02*
X9404375Y-13645679D01*
X9404375Y-13645679D02*
X9413899Y-13626631D01*
X9413899Y-13626631D02*
X9423423Y-13617108D01*
X9423423Y-13617108D02*
X9442470Y-13607584D01*
X9594851Y-13788536D02*
X9604375Y-13798060D01*
X9604375Y-13798060D02*
X9594851Y-13807584D01*
X9594851Y-13807584D02*
X9585328Y-13798060D01*
X9585328Y-13798060D02*
X9594851Y-13788536D01*
X9594851Y-13788536D02*
X9594851Y-13807584D01*
X9728185Y-13607584D02*
X9747232Y-13607584D01*
X9747232Y-13607584D02*
X9766280Y-13617108D01*
X9766280Y-13617108D02*
X9775804Y-13626631D01*
X9775804Y-13626631D02*
X9785328Y-13645679D01*
X9785328Y-13645679D02*
X9794851Y-13683774D01*
X9794851Y-13683774D02*
X9794851Y-13731393D01*
X9794851Y-13731393D02*
X9785328Y-13769488D01*
X9785328Y-13769488D02*
X9775804Y-13788536D01*
X9775804Y-13788536D02*
X9766280Y-13798060D01*
X9766280Y-13798060D02*
X9747232Y-13807584D01*
X9747232Y-13807584D02*
X9728185Y-13807584D01*
X9728185Y-13807584D02*
X9709137Y-13798060D01*
X9709137Y-13798060D02*
X9699613Y-13788536D01*
X9699613Y-13788536D02*
X9690090Y-13769488D01*
X9690090Y-13769488D02*
X9680566Y-13731393D01*
X9680566Y-13731393D02*
X9680566Y-13683774D01*
X9680566Y-13683774D02*
X9690090Y-13645679D01*
X9690090Y-13645679D02*
X9699613Y-13626631D01*
X9699613Y-13626631D02*
X9709137Y-13617108D01*
X9709137Y-13617108D02*
X9728185Y-13607584D01*
X9985328Y-13807584D02*
X9871042Y-13807584D01*
X9928185Y-13807584D02*
X9928185Y-13607584D01*
X9928185Y-13607584D02*
X9909137Y-13636155D01*
X9909137Y-13636155D02*
X9890090Y-13655203D01*
X9890090Y-13655203D02*
X9871042Y-13664727D01*
X10166280Y-13607584D02*
X10071042Y-13607584D01*
X10071042Y-13607584D02*
X10061518Y-13702822D01*
X10061518Y-13702822D02*
X10071042Y-13693298D01*
X10071042Y-13693298D02*
X10090090Y-13683774D01*
X10090090Y-13683774D02*
X10137709Y-13683774D01*
X10137709Y-13683774D02*
X10156756Y-13693298D01*
X10156756Y-13693298D02*
X10166280Y-13702822D01*
X10166280Y-13702822D02*
X10175804Y-13721869D01*
X10175804Y-13721869D02*
X10175804Y-13769488D01*
X10175804Y-13769488D02*
X10166280Y-13788536D01*
X10166280Y-13788536D02*
X10156756Y-13798060D01*
X10156756Y-13798060D02*
X10137709Y-13807584D01*
X10137709Y-13807584D02*
X10090090Y-13807584D01*
X10090090Y-13807584D02*
X10071042Y-13798060D01*
X10071042Y-13798060D02*
X10061518Y-13788536D01*
X10242471Y-13607584D02*
X10375804Y-13607584D01*
X10375804Y-13607584D02*
X10290090Y-13807584D01*
X10442471Y-13607584D02*
X10442471Y-13645679D01*
X10518661Y-13607584D02*
X10518661Y-13645679D01*
X10813899Y-13883774D02*
X10804375Y-13874250D01*
X10804375Y-13874250D02*
X10785328Y-13845679D01*
X10785328Y-13845679D02*
X10775804Y-13826631D01*
X10775804Y-13826631D02*
X10766280Y-13798060D01*
X10766280Y-13798060D02*
X10756756Y-13750441D01*
X10756756Y-13750441D02*
X10756756Y-13712346D01*
X10756756Y-13712346D02*
X10766280Y-13664727D01*
X10766280Y-13664727D02*
X10775804Y-13636155D01*
X10775804Y-13636155D02*
X10785328Y-13617108D01*
X10785328Y-13617108D02*
X10804375Y-13588536D01*
X10804375Y-13588536D02*
X10813899Y-13579012D01*
X10871042Y-13607584D02*
X10994852Y-13607584D01*
X10994852Y-13607584D02*
X10928185Y-13683774D01*
X10928185Y-13683774D02*
X10956756Y-13683774D01*
X10956756Y-13683774D02*
X10975804Y-13693298D01*
X10975804Y-13693298D02*
X10985328Y-13702822D01*
X10985328Y-13702822D02*
X10994852Y-13721869D01*
X10994852Y-13721869D02*
X10994852Y-13769488D01*
X10994852Y-13769488D02*
X10985328Y-13788536D01*
X10985328Y-13788536D02*
X10975804Y-13798060D01*
X10975804Y-13798060D02*
X10956756Y-13807584D01*
X10956756Y-13807584D02*
X10899613Y-13807584D01*
X10899613Y-13807584D02*
X10880566Y-13798060D01*
X10880566Y-13798060D02*
X10871042Y-13788536D01*
X11109137Y-13693298D02*
X11090090Y-13683774D01*
X11090090Y-13683774D02*
X11080566Y-13674250D01*
X11080566Y-13674250D02*
X11071042Y-13655203D01*
X11071042Y-13655203D02*
X11071042Y-13645679D01*
X11071042Y-13645679D02*
X11080566Y-13626631D01*
X11080566Y-13626631D02*
X11090090Y-13617108D01*
X11090090Y-13617108D02*
X11109137Y-13607584D01*
X11109137Y-13607584D02*
X11147233Y-13607584D01*
X11147233Y-13607584D02*
X11166280Y-13617108D01*
X11166280Y-13617108D02*
X11175804Y-13626631D01*
X11175804Y-13626631D02*
X11185328Y-13645679D01*
X11185328Y-13645679D02*
X11185328Y-13655203D01*
X11185328Y-13655203D02*
X11175804Y-13674250D01*
X11175804Y-13674250D02*
X11166280Y-13683774D01*
X11166280Y-13683774D02*
X11147233Y-13693298D01*
X11147233Y-13693298D02*
X11109137Y-13693298D01*
X11109137Y-13693298D02*
X11090090Y-13702822D01*
X11090090Y-13702822D02*
X11080566Y-13712346D01*
X11080566Y-13712346D02*
X11071042Y-13731393D01*
X11071042Y-13731393D02*
X11071042Y-13769488D01*
X11071042Y-13769488D02*
X11080566Y-13788536D01*
X11080566Y-13788536D02*
X11090090Y-13798060D01*
X11090090Y-13798060D02*
X11109137Y-13807584D01*
X11109137Y-13807584D02*
X11147233Y-13807584D01*
X11147233Y-13807584D02*
X11166280Y-13798060D01*
X11166280Y-13798060D02*
X11175804Y-13788536D01*
X11175804Y-13788536D02*
X11185328Y-13769488D01*
X11185328Y-13769488D02*
X11185328Y-13731393D01*
X11185328Y-13731393D02*
X11175804Y-13712346D01*
X11175804Y-13712346D02*
X11166280Y-13702822D01*
X11166280Y-13702822D02*
X11147233Y-13693298D01*
X11375804Y-13807584D02*
X11261518Y-13807584D01*
X11318661Y-13807584D02*
X11318661Y-13607584D01*
X11318661Y-13607584D02*
X11299613Y-13636155D01*
X11299613Y-13636155D02*
X11280566Y-13655203D01*
X11280566Y-13655203D02*
X11261518Y-13664727D01*
X11613899Y-13807584D02*
X11613899Y-13607584D01*
X11699613Y-13807584D02*
X11699613Y-13702822D01*
X11699613Y-13702822D02*
X11690090Y-13683774D01*
X11690090Y-13683774D02*
X11671042Y-13674250D01*
X11671042Y-13674250D02*
X11642471Y-13674250D01*
X11642471Y-13674250D02*
X11623423Y-13683774D01*
X11623423Y-13683774D02*
X11613899Y-13693298D01*
X11823423Y-13807584D02*
X11804375Y-13798060D01*
X11804375Y-13798060D02*
X11794852Y-13788536D01*
X11794852Y-13788536D02*
X11785328Y-13769488D01*
X11785328Y-13769488D02*
X11785328Y-13712346D01*
X11785328Y-13712346D02*
X11794852Y-13693298D01*
X11794852Y-13693298D02*
X11804375Y-13683774D01*
X11804375Y-13683774D02*
X11823423Y-13674250D01*
X11823423Y-13674250D02*
X11851994Y-13674250D01*
X11851994Y-13674250D02*
X11871042Y-13683774D01*
X11871042Y-13683774D02*
X11880566Y-13693298D01*
X11880566Y-13693298D02*
X11890090Y-13712346D01*
X11890090Y-13712346D02*
X11890090Y-13769488D01*
X11890090Y-13769488D02*
X11880566Y-13788536D01*
X11880566Y-13788536D02*
X11871042Y-13798060D01*
X11871042Y-13798060D02*
X11851994Y-13807584D01*
X11851994Y-13807584D02*
X11823423Y-13807584D01*
X12004375Y-13807584D02*
X11985328Y-13798060D01*
X11985328Y-13798060D02*
X11975804Y-13779012D01*
X11975804Y-13779012D02*
X11975804Y-13607584D01*
X12156756Y-13798060D02*
X12137709Y-13807584D01*
X12137709Y-13807584D02*
X12099613Y-13807584D01*
X12099613Y-13807584D02*
X12080566Y-13798060D01*
X12080566Y-13798060D02*
X12071042Y-13779012D01*
X12071042Y-13779012D02*
X12071042Y-13702822D01*
X12071042Y-13702822D02*
X12080566Y-13683774D01*
X12080566Y-13683774D02*
X12099613Y-13674250D01*
X12099613Y-13674250D02*
X12137709Y-13674250D01*
X12137709Y-13674250D02*
X12156756Y-13683774D01*
X12156756Y-13683774D02*
X12166280Y-13702822D01*
X12166280Y-13702822D02*
X12166280Y-13721869D01*
X12166280Y-13721869D02*
X12071042Y-13740917D01*
X12242471Y-13798060D02*
X12261518Y-13807584D01*
X12261518Y-13807584D02*
X12299613Y-13807584D01*
X12299613Y-13807584D02*
X12318661Y-13798060D01*
X12318661Y-13798060D02*
X12328185Y-13779012D01*
X12328185Y-13779012D02*
X12328185Y-13769488D01*
X12328185Y-13769488D02*
X12318661Y-13750441D01*
X12318661Y-13750441D02*
X12299613Y-13740917D01*
X12299613Y-13740917D02*
X12271042Y-13740917D01*
X12271042Y-13740917D02*
X12251994Y-13731393D01*
X12251994Y-13731393D02*
X12242471Y-13712346D01*
X12242471Y-13712346D02*
X12242471Y-13702822D01*
X12242471Y-13702822D02*
X12251994Y-13683774D01*
X12251994Y-13683774D02*
X12271042Y-13674250D01*
X12271042Y-13674250D02*
X12299613Y-13674250D01*
X12299613Y-13674250D02*
X12318661Y-13683774D01*
X12394852Y-13883774D02*
X12404375Y-13874250D01*
X12404375Y-13874250D02*
X12423423Y-13845679D01*
X12423423Y-13845679D02*
X12432947Y-13826631D01*
X12432947Y-13826631D02*
X12442471Y-13798060D01*
X12442471Y-13798060D02*
X12451994Y-13750441D01*
X12451994Y-13750441D02*
X12451994Y-13712346D01*
X12451994Y-13712346D02*
X12442471Y-13664727D01*
X12442471Y-13664727D02*
X12432947Y-13636155D01*
X12432947Y-13636155D02*
X12423423Y-13617108D01*
X12423423Y-13617108D02*
X12404375Y-13588536D01*
X12404375Y-13588536D02*
X12394852Y-13579012D01*
D10*
X7238836Y-13980100D02*
G75*
G02*
X7158836Y-13980100I-40000J0D01*
G01*
X7158836Y-13980100D02*
G75*
G02*
X7238836Y-13980100I40000J0D01*
G01*
D11*
X7537708Y-13871584D02*
X7556756Y-13871584D01*
X7556756Y-13871584D02*
X7575804Y-13881108D01*
X7575804Y-13881108D02*
X7585327Y-13890631D01*
X7585327Y-13890631D02*
X7594851Y-13909679D01*
X7594851Y-13909679D02*
X7604375Y-13947774D01*
X7604375Y-13947774D02*
X7604375Y-13995393D01*
X7604375Y-13995393D02*
X7594851Y-14033488D01*
X7594851Y-14033488D02*
X7585327Y-14052536D01*
X7585327Y-14052536D02*
X7575804Y-14062060D01*
X7575804Y-14062060D02*
X7556756Y-14071584D01*
X7556756Y-14071584D02*
X7537708Y-14071584D01*
X7537708Y-14071584D02*
X7518661Y-14062060D01*
X7518661Y-14062060D02*
X7509137Y-14052536D01*
X7509137Y-14052536D02*
X7499613Y-14033488D01*
X7499613Y-14033488D02*
X7490089Y-13995393D01*
X7490089Y-13995393D02*
X7490089Y-13947774D01*
X7490089Y-13947774D02*
X7499613Y-13909679D01*
X7499613Y-13909679D02*
X7509137Y-13890631D01*
X7509137Y-13890631D02*
X7518661Y-13881108D01*
X7518661Y-13881108D02*
X7537708Y-13871584D01*
X7690089Y-14052536D02*
X7699613Y-14062060D01*
X7699613Y-14062060D02*
X7690089Y-14071584D01*
X7690089Y-14071584D02*
X7680565Y-14062060D01*
X7680565Y-14062060D02*
X7690089Y-14052536D01*
X7690089Y-14052536D02*
X7690089Y-14071584D01*
X7813899Y-13957298D02*
X7794851Y-13947774D01*
X7794851Y-13947774D02*
X7785327Y-13938250D01*
X7785327Y-13938250D02*
X7775804Y-13919203D01*
X7775804Y-13919203D02*
X7775804Y-13909679D01*
X7775804Y-13909679D02*
X7785327Y-13890631D01*
X7785327Y-13890631D02*
X7794851Y-13881108D01*
X7794851Y-13881108D02*
X7813899Y-13871584D01*
X7813899Y-13871584D02*
X7851994Y-13871584D01*
X7851994Y-13871584D02*
X7871042Y-13881108D01*
X7871042Y-13881108D02*
X7880565Y-13890631D01*
X7880565Y-13890631D02*
X7890089Y-13909679D01*
X7890089Y-13909679D02*
X7890089Y-13919203D01*
X7890089Y-13919203D02*
X7880565Y-13938250D01*
X7880565Y-13938250D02*
X7871042Y-13947774D01*
X7871042Y-13947774D02*
X7851994Y-13957298D01*
X7851994Y-13957298D02*
X7813899Y-13957298D01*
X7813899Y-13957298D02*
X7794851Y-13966822D01*
X7794851Y-13966822D02*
X7785327Y-13976346D01*
X7785327Y-13976346D02*
X7775804Y-13995393D01*
X7775804Y-13995393D02*
X7775804Y-14033488D01*
X7775804Y-14033488D02*
X7785327Y-14052536D01*
X7785327Y-14052536D02*
X7794851Y-14062060D01*
X7794851Y-14062060D02*
X7813899Y-14071584D01*
X7813899Y-14071584D02*
X7851994Y-14071584D01*
X7851994Y-14071584D02*
X7871042Y-14062060D01*
X7871042Y-14062060D02*
X7880565Y-14052536D01*
X7880565Y-14052536D02*
X7890089Y-14033488D01*
X7890089Y-14033488D02*
X7890089Y-13995393D01*
X7890089Y-13995393D02*
X7880565Y-13976346D01*
X7880565Y-13976346D02*
X7871042Y-13966822D01*
X7871042Y-13966822D02*
X7851994Y-13957298D01*
X8013899Y-13871584D02*
X8032946Y-13871584D01*
X8032946Y-13871584D02*
X8051994Y-13881108D01*
X8051994Y-13881108D02*
X8061518Y-13890631D01*
X8061518Y-13890631D02*
X8071042Y-13909679D01*
X8071042Y-13909679D02*
X8080565Y-13947774D01*
X8080565Y-13947774D02*
X8080565Y-13995393D01*
X8080565Y-13995393D02*
X8071042Y-14033488D01*
X8071042Y-14033488D02*
X8061518Y-14052536D01*
X8061518Y-14052536D02*
X8051994Y-14062060D01*
X8051994Y-14062060D02*
X8032946Y-14071584D01*
X8032946Y-14071584D02*
X8013899Y-14071584D01*
X8013899Y-14071584D02*
X7994851Y-14062060D01*
X7994851Y-14062060D02*
X7985327Y-14052536D01*
X7985327Y-14052536D02*
X7975804Y-14033488D01*
X7975804Y-14033488D02*
X7966280Y-13995393D01*
X7966280Y-13995393D02*
X7966280Y-13947774D01*
X7966280Y-13947774D02*
X7975804Y-13909679D01*
X7975804Y-13909679D02*
X7985327Y-13890631D01*
X7985327Y-13890631D02*
X7994851Y-13881108D01*
X7994851Y-13881108D02*
X8013899Y-13871584D01*
X8204375Y-13871584D02*
X8223423Y-13871584D01*
X8223423Y-13871584D02*
X8242470Y-13881108D01*
X8242470Y-13881108D02*
X8251994Y-13890631D01*
X8251994Y-13890631D02*
X8261518Y-13909679D01*
X8261518Y-13909679D02*
X8271042Y-13947774D01*
X8271042Y-13947774D02*
X8271042Y-13995393D01*
X8271042Y-13995393D02*
X8261518Y-14033488D01*
X8261518Y-14033488D02*
X8251994Y-14052536D01*
X8251994Y-14052536D02*
X8242470Y-14062060D01*
X8242470Y-14062060D02*
X8223423Y-14071584D01*
X8223423Y-14071584D02*
X8204375Y-14071584D01*
X8204375Y-14071584D02*
X8185327Y-14062060D01*
X8185327Y-14062060D02*
X8175804Y-14052536D01*
X8175804Y-14052536D02*
X8166280Y-14033488D01*
X8166280Y-14033488D02*
X8156756Y-13995393D01*
X8156756Y-13995393D02*
X8156756Y-13947774D01*
X8156756Y-13947774D02*
X8166280Y-13909679D01*
X8166280Y-13909679D02*
X8175804Y-13890631D01*
X8175804Y-13890631D02*
X8185327Y-13881108D01*
X8185327Y-13881108D02*
X8204375Y-13871584D01*
X8356756Y-14071584D02*
X8356756Y-13938250D01*
X8356756Y-13957298D02*
X8366280Y-13947774D01*
X8366280Y-13947774D02*
X8385327Y-13938250D01*
X8385327Y-13938250D02*
X8413899Y-13938250D01*
X8413899Y-13938250D02*
X8432947Y-13947774D01*
X8432947Y-13947774D02*
X8442470Y-13966822D01*
X8442470Y-13966822D02*
X8442470Y-14071584D01*
X8442470Y-13966822D02*
X8451994Y-13947774D01*
X8451994Y-13947774D02*
X8471042Y-13938250D01*
X8471042Y-13938250D02*
X8499613Y-13938250D01*
X8499613Y-13938250D02*
X8518661Y-13947774D01*
X8518661Y-13947774D02*
X8528185Y-13966822D01*
X8528185Y-13966822D02*
X8528185Y-14071584D01*
X8623423Y-14071584D02*
X8623423Y-13938250D01*
X8623423Y-13957298D02*
X8632947Y-13947774D01*
X8632947Y-13947774D02*
X8651994Y-13938250D01*
X8651994Y-13938250D02*
X8680566Y-13938250D01*
X8680566Y-13938250D02*
X8699613Y-13947774D01*
X8699613Y-13947774D02*
X8709137Y-13966822D01*
X8709137Y-13966822D02*
X8709137Y-14071584D01*
X8709137Y-13966822D02*
X8718661Y-13947774D01*
X8718661Y-13947774D02*
X8737708Y-13938250D01*
X8737708Y-13938250D02*
X8766280Y-13938250D01*
X8766280Y-13938250D02*
X8785328Y-13947774D01*
X8785328Y-13947774D02*
X8794851Y-13966822D01*
X8794851Y-13966822D02*
X8794851Y-14071584D01*
X9185328Y-13862060D02*
X9013899Y-14119203D01*
X9442470Y-13871584D02*
X9461518Y-13871584D01*
X9461518Y-13871584D02*
X9480566Y-13881108D01*
X9480566Y-13881108D02*
X9490090Y-13890631D01*
X9490090Y-13890631D02*
X9499613Y-13909679D01*
X9499613Y-13909679D02*
X9509137Y-13947774D01*
X9509137Y-13947774D02*
X9509137Y-13995393D01*
X9509137Y-13995393D02*
X9499613Y-14033488D01*
X9499613Y-14033488D02*
X9490090Y-14052536D01*
X9490090Y-14052536D02*
X9480566Y-14062060D01*
X9480566Y-14062060D02*
X9461518Y-14071584D01*
X9461518Y-14071584D02*
X9442470Y-14071584D01*
X9442470Y-14071584D02*
X9423423Y-14062060D01*
X9423423Y-14062060D02*
X9413899Y-14052536D01*
X9413899Y-14052536D02*
X9404375Y-14033488D01*
X9404375Y-14033488D02*
X9394851Y-13995393D01*
X9394851Y-13995393D02*
X9394851Y-13947774D01*
X9394851Y-13947774D02*
X9404375Y-13909679D01*
X9404375Y-13909679D02*
X9413899Y-13890631D01*
X9413899Y-13890631D02*
X9423423Y-13881108D01*
X9423423Y-13881108D02*
X9442470Y-13871584D01*
X9594851Y-14052536D02*
X9604375Y-14062060D01*
X9604375Y-14062060D02*
X9594851Y-14071584D01*
X9594851Y-14071584D02*
X9585328Y-14062060D01*
X9585328Y-14062060D02*
X9594851Y-14052536D01*
X9594851Y-14052536D02*
X9594851Y-14071584D01*
X9728185Y-13871584D02*
X9747232Y-13871584D01*
X9747232Y-13871584D02*
X9766280Y-13881108D01*
X9766280Y-13881108D02*
X9775804Y-13890631D01*
X9775804Y-13890631D02*
X9785328Y-13909679D01*
X9785328Y-13909679D02*
X9794851Y-13947774D01*
X9794851Y-13947774D02*
X9794851Y-13995393D01*
X9794851Y-13995393D02*
X9785328Y-14033488D01*
X9785328Y-14033488D02*
X9775804Y-14052536D01*
X9775804Y-14052536D02*
X9766280Y-14062060D01*
X9766280Y-14062060D02*
X9747232Y-14071584D01*
X9747232Y-14071584D02*
X9728185Y-14071584D01*
X9728185Y-14071584D02*
X9709137Y-14062060D01*
X9709137Y-14062060D02*
X9699613Y-14052536D01*
X9699613Y-14052536D02*
X9690090Y-14033488D01*
X9690090Y-14033488D02*
X9680566Y-13995393D01*
X9680566Y-13995393D02*
X9680566Y-13947774D01*
X9680566Y-13947774D02*
X9690090Y-13909679D01*
X9690090Y-13909679D02*
X9699613Y-13890631D01*
X9699613Y-13890631D02*
X9709137Y-13881108D01*
X9709137Y-13881108D02*
X9728185Y-13871584D01*
X9861518Y-13871584D02*
X9985328Y-13871584D01*
X9985328Y-13871584D02*
X9918661Y-13947774D01*
X9918661Y-13947774D02*
X9947232Y-13947774D01*
X9947232Y-13947774D02*
X9966280Y-13957298D01*
X9966280Y-13957298D02*
X9975804Y-13966822D01*
X9975804Y-13966822D02*
X9985328Y-13985869D01*
X9985328Y-13985869D02*
X9985328Y-14033488D01*
X9985328Y-14033488D02*
X9975804Y-14052536D01*
X9975804Y-14052536D02*
X9966280Y-14062060D01*
X9966280Y-14062060D02*
X9947232Y-14071584D01*
X9947232Y-14071584D02*
X9890090Y-14071584D01*
X9890090Y-14071584D02*
X9871042Y-14062060D01*
X9871042Y-14062060D02*
X9861518Y-14052536D01*
X10175804Y-14071584D02*
X10061518Y-14071584D01*
X10118661Y-14071584D02*
X10118661Y-13871584D01*
X10118661Y-13871584D02*
X10099613Y-13900155D01*
X10099613Y-13900155D02*
X10080566Y-13919203D01*
X10080566Y-13919203D02*
X10061518Y-13928727D01*
X10356756Y-13871584D02*
X10261518Y-13871584D01*
X10261518Y-13871584D02*
X10251994Y-13966822D01*
X10251994Y-13966822D02*
X10261518Y-13957298D01*
X10261518Y-13957298D02*
X10280566Y-13947774D01*
X10280566Y-13947774D02*
X10328185Y-13947774D01*
X10328185Y-13947774D02*
X10347232Y-13957298D01*
X10347232Y-13957298D02*
X10356756Y-13966822D01*
X10356756Y-13966822D02*
X10366280Y-13985869D01*
X10366280Y-13985869D02*
X10366280Y-14033488D01*
X10366280Y-14033488D02*
X10356756Y-14052536D01*
X10356756Y-14052536D02*
X10347232Y-14062060D01*
X10347232Y-14062060D02*
X10328185Y-14071584D01*
X10328185Y-14071584D02*
X10280566Y-14071584D01*
X10280566Y-14071584D02*
X10261518Y-14062060D01*
X10261518Y-14062060D02*
X10251994Y-14052536D01*
X10442471Y-13871584D02*
X10442471Y-13909679D01*
X10518661Y-13871584D02*
X10518661Y-13909679D01*
X10813899Y-14147774D02*
X10804375Y-14138250D01*
X10804375Y-14138250D02*
X10785328Y-14109679D01*
X10785328Y-14109679D02*
X10775804Y-14090631D01*
X10775804Y-14090631D02*
X10766280Y-14062060D01*
X10766280Y-14062060D02*
X10756756Y-14014441D01*
X10756756Y-14014441D02*
X10756756Y-13976346D01*
X10756756Y-13976346D02*
X10766280Y-13928727D01*
X10766280Y-13928727D02*
X10775804Y-13900155D01*
X10775804Y-13900155D02*
X10785328Y-13881108D01*
X10785328Y-13881108D02*
X10804375Y-13852536D01*
X10804375Y-13852536D02*
X10813899Y-13843012D01*
X10975804Y-13871584D02*
X10937709Y-13871584D01*
X10937709Y-13871584D02*
X10918661Y-13881108D01*
X10918661Y-13881108D02*
X10909137Y-13890631D01*
X10909137Y-13890631D02*
X10890090Y-13919203D01*
X10890090Y-13919203D02*
X10880566Y-13957298D01*
X10880566Y-13957298D02*
X10880566Y-14033488D01*
X10880566Y-14033488D02*
X10890090Y-14052536D01*
X10890090Y-14052536D02*
X10899613Y-14062060D01*
X10899613Y-14062060D02*
X10918661Y-14071584D01*
X10918661Y-14071584D02*
X10956756Y-14071584D01*
X10956756Y-14071584D02*
X10975804Y-14062060D01*
X10975804Y-14062060D02*
X10985328Y-14052536D01*
X10985328Y-14052536D02*
X10994852Y-14033488D01*
X10994852Y-14033488D02*
X10994852Y-13985869D01*
X10994852Y-13985869D02*
X10985328Y-13966822D01*
X10985328Y-13966822D02*
X10975804Y-13957298D01*
X10975804Y-13957298D02*
X10956756Y-13947774D01*
X10956756Y-13947774D02*
X10918661Y-13947774D01*
X10918661Y-13947774D02*
X10899613Y-13957298D01*
X10899613Y-13957298D02*
X10890090Y-13966822D01*
X10890090Y-13966822D02*
X10880566Y-13985869D01*
X11232947Y-14071584D02*
X11232947Y-13871584D01*
X11318661Y-14071584D02*
X11318661Y-13966822D01*
X11318661Y-13966822D02*
X11309137Y-13947774D01*
X11309137Y-13947774D02*
X11290090Y-13938250D01*
X11290090Y-13938250D02*
X11261518Y-13938250D01*
X11261518Y-13938250D02*
X11242471Y-13947774D01*
X11242471Y-13947774D02*
X11232947Y-13957298D01*
X11442471Y-14071584D02*
X11423423Y-14062060D01*
X11423423Y-14062060D02*
X11413899Y-14052536D01*
X11413899Y-14052536D02*
X11404375Y-14033488D01*
X11404375Y-14033488D02*
X11404375Y-13976346D01*
X11404375Y-13976346D02*
X11413899Y-13957298D01*
X11413899Y-13957298D02*
X11423423Y-13947774D01*
X11423423Y-13947774D02*
X11442471Y-13938250D01*
X11442471Y-13938250D02*
X11471042Y-13938250D01*
X11471042Y-13938250D02*
X11490090Y-13947774D01*
X11490090Y-13947774D02*
X11499613Y-13957298D01*
X11499613Y-13957298D02*
X11509137Y-13976346D01*
X11509137Y-13976346D02*
X11509137Y-14033488D01*
X11509137Y-14033488D02*
X11499613Y-14052536D01*
X11499613Y-14052536D02*
X11490090Y-14062060D01*
X11490090Y-14062060D02*
X11471042Y-14071584D01*
X11471042Y-14071584D02*
X11442471Y-14071584D01*
X11623423Y-14071584D02*
X11604375Y-14062060D01*
X11604375Y-14062060D02*
X11594852Y-14043012D01*
X11594852Y-14043012D02*
X11594852Y-13871584D01*
X11775804Y-14062060D02*
X11756756Y-14071584D01*
X11756756Y-14071584D02*
X11718661Y-14071584D01*
X11718661Y-14071584D02*
X11699613Y-14062060D01*
X11699613Y-14062060D02*
X11690090Y-14043012D01*
X11690090Y-14043012D02*
X11690090Y-13966822D01*
X11690090Y-13966822D02*
X11699613Y-13947774D01*
X11699613Y-13947774D02*
X11718661Y-13938250D01*
X11718661Y-13938250D02*
X11756756Y-13938250D01*
X11756756Y-13938250D02*
X11775804Y-13947774D01*
X11775804Y-13947774D02*
X11785328Y-13966822D01*
X11785328Y-13966822D02*
X11785328Y-13985869D01*
X11785328Y-13985869D02*
X11690090Y-14004917D01*
X11861518Y-14062060D02*
X11880566Y-14071584D01*
X11880566Y-14071584D02*
X11918661Y-14071584D01*
X11918661Y-14071584D02*
X11937709Y-14062060D01*
X11937709Y-14062060D02*
X11947233Y-14043012D01*
X11947233Y-14043012D02*
X11947233Y-14033488D01*
X11947233Y-14033488D02*
X11937709Y-14014441D01*
X11937709Y-14014441D02*
X11918661Y-14004917D01*
X11918661Y-14004917D02*
X11890090Y-14004917D01*
X11890090Y-14004917D02*
X11871042Y-13995393D01*
X11871042Y-13995393D02*
X11861518Y-13976346D01*
X11861518Y-13976346D02*
X11861518Y-13966822D01*
X11861518Y-13966822D02*
X11871042Y-13947774D01*
X11871042Y-13947774D02*
X11890090Y-13938250D01*
X11890090Y-13938250D02*
X11918661Y-13938250D01*
X11918661Y-13938250D02*
X11937709Y-13947774D01*
X12013899Y-14147774D02*
X12023423Y-14138250D01*
X12023423Y-14138250D02*
X12042471Y-14109679D01*
X12042471Y-14109679D02*
X12051994Y-14090631D01*
X12051994Y-14090631D02*
X12061518Y-14062060D01*
X12061518Y-14062060D02*
X12071042Y-14014441D01*
X12071042Y-14014441D02*
X12071042Y-13976346D01*
X12071042Y-13976346D02*
X12061518Y-13928727D01*
X12061518Y-13928727D02*
X12051994Y-13900155D01*
X12051994Y-13900155D02*
X12042471Y-13881108D01*
X12042471Y-13881108D02*
X12023423Y-13852536D01*
X12023423Y-13852536D02*
X12013899Y-13843012D01*
D10*
X7188836Y-14194100D02*
X7188836Y-14294100D01*
X7138836Y-14244100D02*
X7238836Y-14244100D01*
D11*
X7604375Y-14335584D02*
X7490089Y-14335584D01*
X7547232Y-14335584D02*
X7547232Y-14135584D01*
X7547232Y-14135584D02*
X7528184Y-14164155D01*
X7528184Y-14164155D02*
X7509137Y-14183203D01*
X7509137Y-14183203D02*
X7490089Y-14192727D01*
X7690089Y-14316536D02*
X7699613Y-14326060D01*
X7699613Y-14326060D02*
X7690089Y-14335584D01*
X7690089Y-14335584D02*
X7680565Y-14326060D01*
X7680565Y-14326060D02*
X7690089Y-14316536D01*
X7690089Y-14316536D02*
X7690089Y-14335584D01*
X7823423Y-14135584D02*
X7842470Y-14135584D01*
X7842470Y-14135584D02*
X7861518Y-14145108D01*
X7861518Y-14145108D02*
X7871042Y-14154631D01*
X7871042Y-14154631D02*
X7880565Y-14173679D01*
X7880565Y-14173679D02*
X7890089Y-14211774D01*
X7890089Y-14211774D02*
X7890089Y-14259393D01*
X7890089Y-14259393D02*
X7880565Y-14297488D01*
X7880565Y-14297488D02*
X7871042Y-14316536D01*
X7871042Y-14316536D02*
X7861518Y-14326060D01*
X7861518Y-14326060D02*
X7842470Y-14335584D01*
X7842470Y-14335584D02*
X7823423Y-14335584D01*
X7823423Y-14335584D02*
X7804375Y-14326060D01*
X7804375Y-14326060D02*
X7794851Y-14316536D01*
X7794851Y-14316536D02*
X7785327Y-14297488D01*
X7785327Y-14297488D02*
X7775804Y-14259393D01*
X7775804Y-14259393D02*
X7775804Y-14211774D01*
X7775804Y-14211774D02*
X7785327Y-14173679D01*
X7785327Y-14173679D02*
X7794851Y-14154631D01*
X7794851Y-14154631D02*
X7804375Y-14145108D01*
X7804375Y-14145108D02*
X7823423Y-14135584D01*
X8013899Y-14135584D02*
X8032946Y-14135584D01*
X8032946Y-14135584D02*
X8051994Y-14145108D01*
X8051994Y-14145108D02*
X8061518Y-14154631D01*
X8061518Y-14154631D02*
X8071042Y-14173679D01*
X8071042Y-14173679D02*
X8080565Y-14211774D01*
X8080565Y-14211774D02*
X8080565Y-14259393D01*
X8080565Y-14259393D02*
X8071042Y-14297488D01*
X8071042Y-14297488D02*
X8061518Y-14316536D01*
X8061518Y-14316536D02*
X8051994Y-14326060D01*
X8051994Y-14326060D02*
X8032946Y-14335584D01*
X8032946Y-14335584D02*
X8013899Y-14335584D01*
X8013899Y-14335584D02*
X7994851Y-14326060D01*
X7994851Y-14326060D02*
X7985327Y-14316536D01*
X7985327Y-14316536D02*
X7975804Y-14297488D01*
X7975804Y-14297488D02*
X7966280Y-14259393D01*
X7966280Y-14259393D02*
X7966280Y-14211774D01*
X7966280Y-14211774D02*
X7975804Y-14173679D01*
X7975804Y-14173679D02*
X7985327Y-14154631D01*
X7985327Y-14154631D02*
X7994851Y-14145108D01*
X7994851Y-14145108D02*
X8013899Y-14135584D01*
X8204375Y-14135584D02*
X8223423Y-14135584D01*
X8223423Y-14135584D02*
X8242470Y-14145108D01*
X8242470Y-14145108D02*
X8251994Y-14154631D01*
X8251994Y-14154631D02*
X8261518Y-14173679D01*
X8261518Y-14173679D02*
X8271042Y-14211774D01*
X8271042Y-14211774D02*
X8271042Y-14259393D01*
X8271042Y-14259393D02*
X8261518Y-14297488D01*
X8261518Y-14297488D02*
X8251994Y-14316536D01*
X8251994Y-14316536D02*
X8242470Y-14326060D01*
X8242470Y-14326060D02*
X8223423Y-14335584D01*
X8223423Y-14335584D02*
X8204375Y-14335584D01*
X8204375Y-14335584D02*
X8185327Y-14326060D01*
X8185327Y-14326060D02*
X8175804Y-14316536D01*
X8175804Y-14316536D02*
X8166280Y-14297488D01*
X8166280Y-14297488D02*
X8156756Y-14259393D01*
X8156756Y-14259393D02*
X8156756Y-14211774D01*
X8156756Y-14211774D02*
X8166280Y-14173679D01*
X8166280Y-14173679D02*
X8175804Y-14154631D01*
X8175804Y-14154631D02*
X8185327Y-14145108D01*
X8185327Y-14145108D02*
X8204375Y-14135584D01*
X8356756Y-14335584D02*
X8356756Y-14202250D01*
X8356756Y-14221298D02*
X8366280Y-14211774D01*
X8366280Y-14211774D02*
X8385327Y-14202250D01*
X8385327Y-14202250D02*
X8413899Y-14202250D01*
X8413899Y-14202250D02*
X8432947Y-14211774D01*
X8432947Y-14211774D02*
X8442470Y-14230822D01*
X8442470Y-14230822D02*
X8442470Y-14335584D01*
X8442470Y-14230822D02*
X8451994Y-14211774D01*
X8451994Y-14211774D02*
X8471042Y-14202250D01*
X8471042Y-14202250D02*
X8499613Y-14202250D01*
X8499613Y-14202250D02*
X8518661Y-14211774D01*
X8518661Y-14211774D02*
X8528185Y-14230822D01*
X8528185Y-14230822D02*
X8528185Y-14335584D01*
X8623423Y-14335584D02*
X8623423Y-14202250D01*
X8623423Y-14221298D02*
X8632947Y-14211774D01*
X8632947Y-14211774D02*
X8651994Y-14202250D01*
X8651994Y-14202250D02*
X8680566Y-14202250D01*
X8680566Y-14202250D02*
X8699613Y-14211774D01*
X8699613Y-14211774D02*
X8709137Y-14230822D01*
X8709137Y-14230822D02*
X8709137Y-14335584D01*
X8709137Y-14230822D02*
X8718661Y-14211774D01*
X8718661Y-14211774D02*
X8737708Y-14202250D01*
X8737708Y-14202250D02*
X8766280Y-14202250D01*
X8766280Y-14202250D02*
X8785328Y-14211774D01*
X8785328Y-14211774D02*
X8794851Y-14230822D01*
X8794851Y-14230822D02*
X8794851Y-14335584D01*
X9185328Y-14126060D02*
X9013899Y-14383203D01*
X9442470Y-14135584D02*
X9461518Y-14135584D01*
X9461518Y-14135584D02*
X9480566Y-14145108D01*
X9480566Y-14145108D02*
X9490090Y-14154631D01*
X9490090Y-14154631D02*
X9499613Y-14173679D01*
X9499613Y-14173679D02*
X9509137Y-14211774D01*
X9509137Y-14211774D02*
X9509137Y-14259393D01*
X9509137Y-14259393D02*
X9499613Y-14297488D01*
X9499613Y-14297488D02*
X9490090Y-14316536D01*
X9490090Y-14316536D02*
X9480566Y-14326060D01*
X9480566Y-14326060D02*
X9461518Y-14335584D01*
X9461518Y-14335584D02*
X9442470Y-14335584D01*
X9442470Y-14335584D02*
X9423423Y-14326060D01*
X9423423Y-14326060D02*
X9413899Y-14316536D01*
X9413899Y-14316536D02*
X9404375Y-14297488D01*
X9404375Y-14297488D02*
X9394851Y-14259393D01*
X9394851Y-14259393D02*
X9394851Y-14211774D01*
X9394851Y-14211774D02*
X9404375Y-14173679D01*
X9404375Y-14173679D02*
X9413899Y-14154631D01*
X9413899Y-14154631D02*
X9423423Y-14145108D01*
X9423423Y-14145108D02*
X9442470Y-14135584D01*
X9594851Y-14316536D02*
X9604375Y-14326060D01*
X9604375Y-14326060D02*
X9594851Y-14335584D01*
X9594851Y-14335584D02*
X9585328Y-14326060D01*
X9585328Y-14326060D02*
X9594851Y-14316536D01*
X9594851Y-14316536D02*
X9594851Y-14335584D01*
X9728185Y-14135584D02*
X9747232Y-14135584D01*
X9747232Y-14135584D02*
X9766280Y-14145108D01*
X9766280Y-14145108D02*
X9775804Y-14154631D01*
X9775804Y-14154631D02*
X9785328Y-14173679D01*
X9785328Y-14173679D02*
X9794851Y-14211774D01*
X9794851Y-14211774D02*
X9794851Y-14259393D01*
X9794851Y-14259393D02*
X9785328Y-14297488D01*
X9785328Y-14297488D02*
X9775804Y-14316536D01*
X9775804Y-14316536D02*
X9766280Y-14326060D01*
X9766280Y-14326060D02*
X9747232Y-14335584D01*
X9747232Y-14335584D02*
X9728185Y-14335584D01*
X9728185Y-14335584D02*
X9709137Y-14326060D01*
X9709137Y-14326060D02*
X9699613Y-14316536D01*
X9699613Y-14316536D02*
X9690090Y-14297488D01*
X9690090Y-14297488D02*
X9680566Y-14259393D01*
X9680566Y-14259393D02*
X9680566Y-14211774D01*
X9680566Y-14211774D02*
X9690090Y-14173679D01*
X9690090Y-14173679D02*
X9699613Y-14154631D01*
X9699613Y-14154631D02*
X9709137Y-14145108D01*
X9709137Y-14145108D02*
X9728185Y-14135584D01*
X9861518Y-14135584D02*
X9985328Y-14135584D01*
X9985328Y-14135584D02*
X9918661Y-14211774D01*
X9918661Y-14211774D02*
X9947232Y-14211774D01*
X9947232Y-14211774D02*
X9966280Y-14221298D01*
X9966280Y-14221298D02*
X9975804Y-14230822D01*
X9975804Y-14230822D02*
X9985328Y-14249869D01*
X9985328Y-14249869D02*
X9985328Y-14297488D01*
X9985328Y-14297488D02*
X9975804Y-14316536D01*
X9975804Y-14316536D02*
X9966280Y-14326060D01*
X9966280Y-14326060D02*
X9947232Y-14335584D01*
X9947232Y-14335584D02*
X9890090Y-14335584D01*
X9890090Y-14335584D02*
X9871042Y-14326060D01*
X9871042Y-14326060D02*
X9861518Y-14316536D01*
X10080566Y-14335584D02*
X10118661Y-14335584D01*
X10118661Y-14335584D02*
X10137709Y-14326060D01*
X10137709Y-14326060D02*
X10147232Y-14316536D01*
X10147232Y-14316536D02*
X10166280Y-14287965D01*
X10166280Y-14287965D02*
X10175804Y-14249869D01*
X10175804Y-14249869D02*
X10175804Y-14173679D01*
X10175804Y-14173679D02*
X10166280Y-14154631D01*
X10166280Y-14154631D02*
X10156756Y-14145108D01*
X10156756Y-14145108D02*
X10137709Y-14135584D01*
X10137709Y-14135584D02*
X10099613Y-14135584D01*
X10099613Y-14135584D02*
X10080566Y-14145108D01*
X10080566Y-14145108D02*
X10071042Y-14154631D01*
X10071042Y-14154631D02*
X10061518Y-14173679D01*
X10061518Y-14173679D02*
X10061518Y-14221298D01*
X10061518Y-14221298D02*
X10071042Y-14240346D01*
X10071042Y-14240346D02*
X10080566Y-14249869D01*
X10080566Y-14249869D02*
X10099613Y-14259393D01*
X10099613Y-14259393D02*
X10137709Y-14259393D01*
X10137709Y-14259393D02*
X10156756Y-14249869D01*
X10156756Y-14249869D02*
X10166280Y-14240346D01*
X10166280Y-14240346D02*
X10175804Y-14221298D01*
X10347232Y-14202250D02*
X10347232Y-14335584D01*
X10299613Y-14126060D02*
X10251994Y-14268917D01*
X10251994Y-14268917D02*
X10375804Y-14268917D01*
X10442471Y-14135584D02*
X10442471Y-14173679D01*
X10518661Y-14135584D02*
X10518661Y-14173679D01*
X10813899Y-14411774D02*
X10804375Y-14402250D01*
X10804375Y-14402250D02*
X10785328Y-14373679D01*
X10785328Y-14373679D02*
X10775804Y-14354631D01*
X10775804Y-14354631D02*
X10766280Y-14326060D01*
X10766280Y-14326060D02*
X10756756Y-14278441D01*
X10756756Y-14278441D02*
X10756756Y-14240346D01*
X10756756Y-14240346D02*
X10766280Y-14192727D01*
X10766280Y-14192727D02*
X10775804Y-14164155D01*
X10775804Y-14164155D02*
X10785328Y-14145108D01*
X10785328Y-14145108D02*
X10804375Y-14116536D01*
X10804375Y-14116536D02*
X10813899Y-14107012D01*
X10985328Y-14135584D02*
X10890090Y-14135584D01*
X10890090Y-14135584D02*
X10880566Y-14230822D01*
X10880566Y-14230822D02*
X10890090Y-14221298D01*
X10890090Y-14221298D02*
X10909137Y-14211774D01*
X10909137Y-14211774D02*
X10956756Y-14211774D01*
X10956756Y-14211774D02*
X10975804Y-14221298D01*
X10975804Y-14221298D02*
X10985328Y-14230822D01*
X10985328Y-14230822D02*
X10994852Y-14249869D01*
X10994852Y-14249869D02*
X10994852Y-14297488D01*
X10994852Y-14297488D02*
X10985328Y-14316536D01*
X10985328Y-14316536D02*
X10975804Y-14326060D01*
X10975804Y-14326060D02*
X10956756Y-14335584D01*
X10956756Y-14335584D02*
X10909137Y-14335584D01*
X10909137Y-14335584D02*
X10890090Y-14326060D01*
X10890090Y-14326060D02*
X10880566Y-14316536D01*
X11090090Y-14335584D02*
X11128185Y-14335584D01*
X11128185Y-14335584D02*
X11147233Y-14326060D01*
X11147233Y-14326060D02*
X11156756Y-14316536D01*
X11156756Y-14316536D02*
X11175804Y-14287965D01*
X11175804Y-14287965D02*
X11185328Y-14249869D01*
X11185328Y-14249869D02*
X11185328Y-14173679D01*
X11185328Y-14173679D02*
X11175804Y-14154631D01*
X11175804Y-14154631D02*
X11166280Y-14145108D01*
X11166280Y-14145108D02*
X11147233Y-14135584D01*
X11147233Y-14135584D02*
X11109137Y-14135584D01*
X11109137Y-14135584D02*
X11090090Y-14145108D01*
X11090090Y-14145108D02*
X11080566Y-14154631D01*
X11080566Y-14154631D02*
X11071042Y-14173679D01*
X11071042Y-14173679D02*
X11071042Y-14221298D01*
X11071042Y-14221298D02*
X11080566Y-14240346D01*
X11080566Y-14240346D02*
X11090090Y-14249869D01*
X11090090Y-14249869D02*
X11109137Y-14259393D01*
X11109137Y-14259393D02*
X11147233Y-14259393D01*
X11147233Y-14259393D02*
X11166280Y-14249869D01*
X11166280Y-14249869D02*
X11175804Y-14240346D01*
X11175804Y-14240346D02*
X11185328Y-14221298D01*
X11423423Y-14335584D02*
X11423423Y-14135584D01*
X11509137Y-14335584D02*
X11509137Y-14230822D01*
X11509137Y-14230822D02*
X11499613Y-14211774D01*
X11499613Y-14211774D02*
X11480566Y-14202250D01*
X11480566Y-14202250D02*
X11451994Y-14202250D01*
X11451994Y-14202250D02*
X11432947Y-14211774D01*
X11432947Y-14211774D02*
X11423423Y-14221298D01*
X11632947Y-14335584D02*
X11613899Y-14326060D01*
X11613899Y-14326060D02*
X11604375Y-14316536D01*
X11604375Y-14316536D02*
X11594852Y-14297488D01*
X11594852Y-14297488D02*
X11594852Y-14240346D01*
X11594852Y-14240346D02*
X11604375Y-14221298D01*
X11604375Y-14221298D02*
X11613899Y-14211774D01*
X11613899Y-14211774D02*
X11632947Y-14202250D01*
X11632947Y-14202250D02*
X11661518Y-14202250D01*
X11661518Y-14202250D02*
X11680566Y-14211774D01*
X11680566Y-14211774D02*
X11690090Y-14221298D01*
X11690090Y-14221298D02*
X11699613Y-14240346D01*
X11699613Y-14240346D02*
X11699613Y-14297488D01*
X11699613Y-14297488D02*
X11690090Y-14316536D01*
X11690090Y-14316536D02*
X11680566Y-14326060D01*
X11680566Y-14326060D02*
X11661518Y-14335584D01*
X11661518Y-14335584D02*
X11632947Y-14335584D01*
X11813899Y-14335584D02*
X11794852Y-14326060D01*
X11794852Y-14326060D02*
X11785328Y-14307012D01*
X11785328Y-14307012D02*
X11785328Y-14135584D01*
X11966280Y-14326060D02*
X11947233Y-14335584D01*
X11947233Y-14335584D02*
X11909137Y-14335584D01*
X11909137Y-14335584D02*
X11890090Y-14326060D01*
X11890090Y-14326060D02*
X11880566Y-14307012D01*
X11880566Y-14307012D02*
X11880566Y-14230822D01*
X11880566Y-14230822D02*
X11890090Y-14211774D01*
X11890090Y-14211774D02*
X11909137Y-14202250D01*
X11909137Y-14202250D02*
X11947233Y-14202250D01*
X11947233Y-14202250D02*
X11966280Y-14211774D01*
X11966280Y-14211774D02*
X11975804Y-14230822D01*
X11975804Y-14230822D02*
X11975804Y-14249869D01*
X11975804Y-14249869D02*
X11880566Y-14268917D01*
X12051994Y-14326060D02*
X12071042Y-14335584D01*
X12071042Y-14335584D02*
X12109137Y-14335584D01*
X12109137Y-14335584D02*
X12128185Y-14326060D01*
X12128185Y-14326060D02*
X12137709Y-14307012D01*
X12137709Y-14307012D02*
X12137709Y-14297488D01*
X12137709Y-14297488D02*
X12128185Y-14278441D01*
X12128185Y-14278441D02*
X12109137Y-14268917D01*
X12109137Y-14268917D02*
X12080566Y-14268917D01*
X12080566Y-14268917D02*
X12061518Y-14259393D01*
X12061518Y-14259393D02*
X12051994Y-14240346D01*
X12051994Y-14240346D02*
X12051994Y-14230822D01*
X12051994Y-14230822D02*
X12061518Y-14211774D01*
X12061518Y-14211774D02*
X12080566Y-14202250D01*
X12080566Y-14202250D02*
X12109137Y-14202250D01*
X12109137Y-14202250D02*
X12128185Y-14211774D01*
X12204375Y-14411774D02*
X12213899Y-14402250D01*
X12213899Y-14402250D02*
X12232947Y-14373679D01*
X12232947Y-14373679D02*
X12242471Y-14354631D01*
X12242471Y-14354631D02*
X12251994Y-14326060D01*
X12251994Y-14326060D02*
X12261518Y-14278441D01*
X12261518Y-14278441D02*
X12261518Y-14240346D01*
X12261518Y-14240346D02*
X12251994Y-14192727D01*
X12251994Y-14192727D02*
X12242471Y-14164155D01*
X12242471Y-14164155D02*
X12232947Y-14145108D01*
X12232947Y-14145108D02*
X12213899Y-14116536D01*
X12213899Y-14116536D02*
X12204375Y-14107012D01*
D12*
X7223899Y-14544163D02*
X7223899Y-14472037D01*
X7151773Y-14472037D01*
X7151773Y-14544163D01*
X7223899Y-14544163D01*
D11*
X7604375Y-14599584D02*
X7490089Y-14599584D01*
X7547232Y-14599584D02*
X7547232Y-14399584D01*
X7547232Y-14399584D02*
X7528184Y-14428155D01*
X7528184Y-14428155D02*
X7509137Y-14447203D01*
X7509137Y-14447203D02*
X7490089Y-14456727D01*
X7690089Y-14580536D02*
X7699613Y-14590060D01*
X7699613Y-14590060D02*
X7690089Y-14599584D01*
X7690089Y-14599584D02*
X7680565Y-14590060D01*
X7680565Y-14590060D02*
X7690089Y-14580536D01*
X7690089Y-14580536D02*
X7690089Y-14599584D01*
X7823423Y-14399584D02*
X7842470Y-14399584D01*
X7842470Y-14399584D02*
X7861518Y-14409108D01*
X7861518Y-14409108D02*
X7871042Y-14418631D01*
X7871042Y-14418631D02*
X7880565Y-14437679D01*
X7880565Y-14437679D02*
X7890089Y-14475774D01*
X7890089Y-14475774D02*
X7890089Y-14523393D01*
X7890089Y-14523393D02*
X7880565Y-14561488D01*
X7880565Y-14561488D02*
X7871042Y-14580536D01*
X7871042Y-14580536D02*
X7861518Y-14590060D01*
X7861518Y-14590060D02*
X7842470Y-14599584D01*
X7842470Y-14599584D02*
X7823423Y-14599584D01*
X7823423Y-14599584D02*
X7804375Y-14590060D01*
X7804375Y-14590060D02*
X7794851Y-14580536D01*
X7794851Y-14580536D02*
X7785327Y-14561488D01*
X7785327Y-14561488D02*
X7775804Y-14523393D01*
X7775804Y-14523393D02*
X7775804Y-14475774D01*
X7775804Y-14475774D02*
X7785327Y-14437679D01*
X7785327Y-14437679D02*
X7794851Y-14418631D01*
X7794851Y-14418631D02*
X7804375Y-14409108D01*
X7804375Y-14409108D02*
X7823423Y-14399584D01*
X7966280Y-14418631D02*
X7975804Y-14409108D01*
X7975804Y-14409108D02*
X7994851Y-14399584D01*
X7994851Y-14399584D02*
X8042470Y-14399584D01*
X8042470Y-14399584D02*
X8061518Y-14409108D01*
X8061518Y-14409108D02*
X8071042Y-14418631D01*
X8071042Y-14418631D02*
X8080565Y-14437679D01*
X8080565Y-14437679D02*
X8080565Y-14456727D01*
X8080565Y-14456727D02*
X8071042Y-14485298D01*
X8071042Y-14485298D02*
X7956756Y-14599584D01*
X7956756Y-14599584D02*
X8080565Y-14599584D01*
X8204375Y-14399584D02*
X8223423Y-14399584D01*
X8223423Y-14399584D02*
X8242470Y-14409108D01*
X8242470Y-14409108D02*
X8251994Y-14418631D01*
X8251994Y-14418631D02*
X8261518Y-14437679D01*
X8261518Y-14437679D02*
X8271042Y-14475774D01*
X8271042Y-14475774D02*
X8271042Y-14523393D01*
X8271042Y-14523393D02*
X8261518Y-14561488D01*
X8261518Y-14561488D02*
X8251994Y-14580536D01*
X8251994Y-14580536D02*
X8242470Y-14590060D01*
X8242470Y-14590060D02*
X8223423Y-14599584D01*
X8223423Y-14599584D02*
X8204375Y-14599584D01*
X8204375Y-14599584D02*
X8185327Y-14590060D01*
X8185327Y-14590060D02*
X8175804Y-14580536D01*
X8175804Y-14580536D02*
X8166280Y-14561488D01*
X8166280Y-14561488D02*
X8156756Y-14523393D01*
X8156756Y-14523393D02*
X8156756Y-14475774D01*
X8156756Y-14475774D02*
X8166280Y-14437679D01*
X8166280Y-14437679D02*
X8175804Y-14418631D01*
X8175804Y-14418631D02*
X8185327Y-14409108D01*
X8185327Y-14409108D02*
X8204375Y-14399584D01*
X8356756Y-14599584D02*
X8356756Y-14466250D01*
X8356756Y-14485298D02*
X8366280Y-14475774D01*
X8366280Y-14475774D02*
X8385327Y-14466250D01*
X8385327Y-14466250D02*
X8413899Y-14466250D01*
X8413899Y-14466250D02*
X8432947Y-14475774D01*
X8432947Y-14475774D02*
X8442470Y-14494822D01*
X8442470Y-14494822D02*
X8442470Y-14599584D01*
X8442470Y-14494822D02*
X8451994Y-14475774D01*
X8451994Y-14475774D02*
X8471042Y-14466250D01*
X8471042Y-14466250D02*
X8499613Y-14466250D01*
X8499613Y-14466250D02*
X8518661Y-14475774D01*
X8518661Y-14475774D02*
X8528185Y-14494822D01*
X8528185Y-14494822D02*
X8528185Y-14599584D01*
X8623423Y-14599584D02*
X8623423Y-14466250D01*
X8623423Y-14485298D02*
X8632947Y-14475774D01*
X8632947Y-14475774D02*
X8651994Y-14466250D01*
X8651994Y-14466250D02*
X8680566Y-14466250D01*
X8680566Y-14466250D02*
X8699613Y-14475774D01*
X8699613Y-14475774D02*
X8709137Y-14494822D01*
X8709137Y-14494822D02*
X8709137Y-14599584D01*
X8709137Y-14494822D02*
X8718661Y-14475774D01*
X8718661Y-14475774D02*
X8737708Y-14466250D01*
X8737708Y-14466250D02*
X8766280Y-14466250D01*
X8766280Y-14466250D02*
X8785328Y-14475774D01*
X8785328Y-14475774D02*
X8794851Y-14494822D01*
X8794851Y-14494822D02*
X8794851Y-14599584D01*
X9185328Y-14390060D02*
X9013899Y-14647203D01*
X9442470Y-14399584D02*
X9461518Y-14399584D01*
X9461518Y-14399584D02*
X9480566Y-14409108D01*
X9480566Y-14409108D02*
X9490090Y-14418631D01*
X9490090Y-14418631D02*
X9499613Y-14437679D01*
X9499613Y-14437679D02*
X9509137Y-14475774D01*
X9509137Y-14475774D02*
X9509137Y-14523393D01*
X9509137Y-14523393D02*
X9499613Y-14561488D01*
X9499613Y-14561488D02*
X9490090Y-14580536D01*
X9490090Y-14580536D02*
X9480566Y-14590060D01*
X9480566Y-14590060D02*
X9461518Y-14599584D01*
X9461518Y-14599584D02*
X9442470Y-14599584D01*
X9442470Y-14599584D02*
X9423423Y-14590060D01*
X9423423Y-14590060D02*
X9413899Y-14580536D01*
X9413899Y-14580536D02*
X9404375Y-14561488D01*
X9404375Y-14561488D02*
X9394851Y-14523393D01*
X9394851Y-14523393D02*
X9394851Y-14475774D01*
X9394851Y-14475774D02*
X9404375Y-14437679D01*
X9404375Y-14437679D02*
X9413899Y-14418631D01*
X9413899Y-14418631D02*
X9423423Y-14409108D01*
X9423423Y-14409108D02*
X9442470Y-14399584D01*
X9594851Y-14580536D02*
X9604375Y-14590060D01*
X9604375Y-14590060D02*
X9594851Y-14599584D01*
X9594851Y-14599584D02*
X9585328Y-14590060D01*
X9585328Y-14590060D02*
X9594851Y-14580536D01*
X9594851Y-14580536D02*
X9594851Y-14599584D01*
X9728185Y-14399584D02*
X9747232Y-14399584D01*
X9747232Y-14399584D02*
X9766280Y-14409108D01*
X9766280Y-14409108D02*
X9775804Y-14418631D01*
X9775804Y-14418631D02*
X9785328Y-14437679D01*
X9785328Y-14437679D02*
X9794851Y-14475774D01*
X9794851Y-14475774D02*
X9794851Y-14523393D01*
X9794851Y-14523393D02*
X9785328Y-14561488D01*
X9785328Y-14561488D02*
X9775804Y-14580536D01*
X9775804Y-14580536D02*
X9766280Y-14590060D01*
X9766280Y-14590060D02*
X9747232Y-14599584D01*
X9747232Y-14599584D02*
X9728185Y-14599584D01*
X9728185Y-14599584D02*
X9709137Y-14590060D01*
X9709137Y-14590060D02*
X9699613Y-14580536D01*
X9699613Y-14580536D02*
X9690090Y-14561488D01*
X9690090Y-14561488D02*
X9680566Y-14523393D01*
X9680566Y-14523393D02*
X9680566Y-14475774D01*
X9680566Y-14475774D02*
X9690090Y-14437679D01*
X9690090Y-14437679D02*
X9699613Y-14418631D01*
X9699613Y-14418631D02*
X9709137Y-14409108D01*
X9709137Y-14409108D02*
X9728185Y-14399584D01*
X9966280Y-14466250D02*
X9966280Y-14599584D01*
X9918661Y-14390060D02*
X9871042Y-14532917D01*
X9871042Y-14532917D02*
X9994851Y-14532917D01*
X10109137Y-14399584D02*
X10128185Y-14399584D01*
X10128185Y-14399584D02*
X10147232Y-14409108D01*
X10147232Y-14409108D02*
X10156756Y-14418631D01*
X10156756Y-14418631D02*
X10166280Y-14437679D01*
X10166280Y-14437679D02*
X10175804Y-14475774D01*
X10175804Y-14475774D02*
X10175804Y-14523393D01*
X10175804Y-14523393D02*
X10166280Y-14561488D01*
X10166280Y-14561488D02*
X10156756Y-14580536D01*
X10156756Y-14580536D02*
X10147232Y-14590060D01*
X10147232Y-14590060D02*
X10128185Y-14599584D01*
X10128185Y-14599584D02*
X10109137Y-14599584D01*
X10109137Y-14599584D02*
X10090090Y-14590060D01*
X10090090Y-14590060D02*
X10080566Y-14580536D01*
X10080566Y-14580536D02*
X10071042Y-14561488D01*
X10071042Y-14561488D02*
X10061518Y-14523393D01*
X10061518Y-14523393D02*
X10061518Y-14475774D01*
X10061518Y-14475774D02*
X10071042Y-14437679D01*
X10071042Y-14437679D02*
X10080566Y-14418631D01*
X10080566Y-14418631D02*
X10090090Y-14409108D01*
X10090090Y-14409108D02*
X10109137Y-14399584D01*
X10251994Y-14418631D02*
X10261518Y-14409108D01*
X10261518Y-14409108D02*
X10280566Y-14399584D01*
X10280566Y-14399584D02*
X10328185Y-14399584D01*
X10328185Y-14399584D02*
X10347232Y-14409108D01*
X10347232Y-14409108D02*
X10356756Y-14418631D01*
X10356756Y-14418631D02*
X10366280Y-14437679D01*
X10366280Y-14437679D02*
X10366280Y-14456727D01*
X10366280Y-14456727D02*
X10356756Y-14485298D01*
X10356756Y-14485298D02*
X10242471Y-14599584D01*
X10242471Y-14599584D02*
X10366280Y-14599584D01*
X10442471Y-14399584D02*
X10442471Y-14437679D01*
X10518661Y-14399584D02*
X10518661Y-14437679D01*
X10813899Y-14675774D02*
X10804375Y-14666250D01*
X10804375Y-14666250D02*
X10785328Y-14637679D01*
X10785328Y-14637679D02*
X10775804Y-14618631D01*
X10775804Y-14618631D02*
X10766280Y-14590060D01*
X10766280Y-14590060D02*
X10756756Y-14542441D01*
X10756756Y-14542441D02*
X10756756Y-14504346D01*
X10756756Y-14504346D02*
X10766280Y-14456727D01*
X10766280Y-14456727D02*
X10775804Y-14428155D01*
X10775804Y-14428155D02*
X10785328Y-14409108D01*
X10785328Y-14409108D02*
X10804375Y-14380536D01*
X10804375Y-14380536D02*
X10813899Y-14371012D01*
X10975804Y-14399584D02*
X10937709Y-14399584D01*
X10937709Y-14399584D02*
X10918661Y-14409108D01*
X10918661Y-14409108D02*
X10909137Y-14418631D01*
X10909137Y-14418631D02*
X10890090Y-14447203D01*
X10890090Y-14447203D02*
X10880566Y-14485298D01*
X10880566Y-14485298D02*
X10880566Y-14561488D01*
X10880566Y-14561488D02*
X10890090Y-14580536D01*
X10890090Y-14580536D02*
X10899613Y-14590060D01*
X10899613Y-14590060D02*
X10918661Y-14599584D01*
X10918661Y-14599584D02*
X10956756Y-14599584D01*
X10956756Y-14599584D02*
X10975804Y-14590060D01*
X10975804Y-14590060D02*
X10985328Y-14580536D01*
X10985328Y-14580536D02*
X10994852Y-14561488D01*
X10994852Y-14561488D02*
X10994852Y-14513869D01*
X10994852Y-14513869D02*
X10985328Y-14494822D01*
X10985328Y-14494822D02*
X10975804Y-14485298D01*
X10975804Y-14485298D02*
X10956756Y-14475774D01*
X10956756Y-14475774D02*
X10918661Y-14475774D01*
X10918661Y-14475774D02*
X10899613Y-14485298D01*
X10899613Y-14485298D02*
X10890090Y-14494822D01*
X10890090Y-14494822D02*
X10880566Y-14513869D01*
X11232947Y-14599584D02*
X11232947Y-14399584D01*
X11318661Y-14599584D02*
X11318661Y-14494822D01*
X11318661Y-14494822D02*
X11309137Y-14475774D01*
X11309137Y-14475774D02*
X11290090Y-14466250D01*
X11290090Y-14466250D02*
X11261518Y-14466250D01*
X11261518Y-14466250D02*
X11242471Y-14475774D01*
X11242471Y-14475774D02*
X11232947Y-14485298D01*
X11442471Y-14599584D02*
X11423423Y-14590060D01*
X11423423Y-14590060D02*
X11413899Y-14580536D01*
X11413899Y-14580536D02*
X11404375Y-14561488D01*
X11404375Y-14561488D02*
X11404375Y-14504346D01*
X11404375Y-14504346D02*
X11413899Y-14485298D01*
X11413899Y-14485298D02*
X11423423Y-14475774D01*
X11423423Y-14475774D02*
X11442471Y-14466250D01*
X11442471Y-14466250D02*
X11471042Y-14466250D01*
X11471042Y-14466250D02*
X11490090Y-14475774D01*
X11490090Y-14475774D02*
X11499613Y-14485298D01*
X11499613Y-14485298D02*
X11509137Y-14504346D01*
X11509137Y-14504346D02*
X11509137Y-14561488D01*
X11509137Y-14561488D02*
X11499613Y-14580536D01*
X11499613Y-14580536D02*
X11490090Y-14590060D01*
X11490090Y-14590060D02*
X11471042Y-14599584D01*
X11471042Y-14599584D02*
X11442471Y-14599584D01*
X11623423Y-14599584D02*
X11604375Y-14590060D01*
X11604375Y-14590060D02*
X11594852Y-14571012D01*
X11594852Y-14571012D02*
X11594852Y-14399584D01*
X11775804Y-14590060D02*
X11756756Y-14599584D01*
X11756756Y-14599584D02*
X11718661Y-14599584D01*
X11718661Y-14599584D02*
X11699613Y-14590060D01*
X11699613Y-14590060D02*
X11690090Y-14571012D01*
X11690090Y-14571012D02*
X11690090Y-14494822D01*
X11690090Y-14494822D02*
X11699613Y-14475774D01*
X11699613Y-14475774D02*
X11718661Y-14466250D01*
X11718661Y-14466250D02*
X11756756Y-14466250D01*
X11756756Y-14466250D02*
X11775804Y-14475774D01*
X11775804Y-14475774D02*
X11785328Y-14494822D01*
X11785328Y-14494822D02*
X11785328Y-14513869D01*
X11785328Y-14513869D02*
X11690090Y-14532917D01*
X11861518Y-14590060D02*
X11880566Y-14599584D01*
X11880566Y-14599584D02*
X11918661Y-14599584D01*
X11918661Y-14599584D02*
X11937709Y-14590060D01*
X11937709Y-14590060D02*
X11947233Y-14571012D01*
X11947233Y-14571012D02*
X11947233Y-14561488D01*
X11947233Y-14561488D02*
X11937709Y-14542441D01*
X11937709Y-14542441D02*
X11918661Y-14532917D01*
X11918661Y-14532917D02*
X11890090Y-14532917D01*
X11890090Y-14532917D02*
X11871042Y-14523393D01*
X11871042Y-14523393D02*
X11861518Y-14504346D01*
X11861518Y-14504346D02*
X11861518Y-14494822D01*
X11861518Y-14494822D02*
X11871042Y-14475774D01*
X11871042Y-14475774D02*
X11890090Y-14466250D01*
X11890090Y-14466250D02*
X11918661Y-14466250D01*
X11918661Y-14466250D02*
X11937709Y-14475774D01*
X12013899Y-14675774D02*
X12023423Y-14666250D01*
X12023423Y-14666250D02*
X12042471Y-14637679D01*
X12042471Y-14637679D02*
X12051994Y-14618631D01*
X12051994Y-14618631D02*
X12061518Y-14590060D01*
X12061518Y-14590060D02*
X12071042Y-14542441D01*
X12071042Y-14542441D02*
X12071042Y-14504346D01*
X12071042Y-14504346D02*
X12061518Y-14456727D01*
X12061518Y-14456727D02*
X12051994Y-14428155D01*
X12051994Y-14428155D02*
X12042471Y-14409108D01*
X12042471Y-14409108D02*
X12023423Y-14380536D01*
X12023423Y-14380536D02*
X12013899Y-14371012D01*
D13*
X7173836Y-14837100D02*
X7238836Y-14772100D01*
X7173836Y-14707100D01*
X7108836Y-14772100D01*
X7173836Y-14837100D01*
D11*
X7604375Y-14863584D02*
X7490089Y-14863584D01*
X7547232Y-14863584D02*
X7547232Y-14663584D01*
X7547232Y-14663584D02*
X7528184Y-14692155D01*
X7528184Y-14692155D02*
X7509137Y-14711203D01*
X7509137Y-14711203D02*
X7490089Y-14720727D01*
X7690089Y-14844536D02*
X7699613Y-14854060D01*
X7699613Y-14854060D02*
X7690089Y-14863584D01*
X7690089Y-14863584D02*
X7680565Y-14854060D01*
X7680565Y-14854060D02*
X7690089Y-14844536D01*
X7690089Y-14844536D02*
X7690089Y-14863584D01*
X7766280Y-14663584D02*
X7890089Y-14663584D01*
X7890089Y-14663584D02*
X7823423Y-14739774D01*
X7823423Y-14739774D02*
X7851994Y-14739774D01*
X7851994Y-14739774D02*
X7871042Y-14749298D01*
X7871042Y-14749298D02*
X7880565Y-14758822D01*
X7880565Y-14758822D02*
X7890089Y-14777869D01*
X7890089Y-14777869D02*
X7890089Y-14825488D01*
X7890089Y-14825488D02*
X7880565Y-14844536D01*
X7880565Y-14844536D02*
X7871042Y-14854060D01*
X7871042Y-14854060D02*
X7851994Y-14863584D01*
X7851994Y-14863584D02*
X7794851Y-14863584D01*
X7794851Y-14863584D02*
X7775804Y-14854060D01*
X7775804Y-14854060D02*
X7766280Y-14844536D01*
X8013899Y-14663584D02*
X8032946Y-14663584D01*
X8032946Y-14663584D02*
X8051994Y-14673108D01*
X8051994Y-14673108D02*
X8061518Y-14682631D01*
X8061518Y-14682631D02*
X8071042Y-14701679D01*
X8071042Y-14701679D02*
X8080565Y-14739774D01*
X8080565Y-14739774D02*
X8080565Y-14787393D01*
X8080565Y-14787393D02*
X8071042Y-14825488D01*
X8071042Y-14825488D02*
X8061518Y-14844536D01*
X8061518Y-14844536D02*
X8051994Y-14854060D01*
X8051994Y-14854060D02*
X8032946Y-14863584D01*
X8032946Y-14863584D02*
X8013899Y-14863584D01*
X8013899Y-14863584D02*
X7994851Y-14854060D01*
X7994851Y-14854060D02*
X7985327Y-14844536D01*
X7985327Y-14844536D02*
X7975804Y-14825488D01*
X7975804Y-14825488D02*
X7966280Y-14787393D01*
X7966280Y-14787393D02*
X7966280Y-14739774D01*
X7966280Y-14739774D02*
X7975804Y-14701679D01*
X7975804Y-14701679D02*
X7985327Y-14682631D01*
X7985327Y-14682631D02*
X7994851Y-14673108D01*
X7994851Y-14673108D02*
X8013899Y-14663584D01*
X8204375Y-14663584D02*
X8223423Y-14663584D01*
X8223423Y-14663584D02*
X8242470Y-14673108D01*
X8242470Y-14673108D02*
X8251994Y-14682631D01*
X8251994Y-14682631D02*
X8261518Y-14701679D01*
X8261518Y-14701679D02*
X8271042Y-14739774D01*
X8271042Y-14739774D02*
X8271042Y-14787393D01*
X8271042Y-14787393D02*
X8261518Y-14825488D01*
X8261518Y-14825488D02*
X8251994Y-14844536D01*
X8251994Y-14844536D02*
X8242470Y-14854060D01*
X8242470Y-14854060D02*
X8223423Y-14863584D01*
X8223423Y-14863584D02*
X8204375Y-14863584D01*
X8204375Y-14863584D02*
X8185327Y-14854060D01*
X8185327Y-14854060D02*
X8175804Y-14844536D01*
X8175804Y-14844536D02*
X8166280Y-14825488D01*
X8166280Y-14825488D02*
X8156756Y-14787393D01*
X8156756Y-14787393D02*
X8156756Y-14739774D01*
X8156756Y-14739774D02*
X8166280Y-14701679D01*
X8166280Y-14701679D02*
X8175804Y-14682631D01*
X8175804Y-14682631D02*
X8185327Y-14673108D01*
X8185327Y-14673108D02*
X8204375Y-14663584D01*
X8356756Y-14863584D02*
X8356756Y-14730250D01*
X8356756Y-14749298D02*
X8366280Y-14739774D01*
X8366280Y-14739774D02*
X8385327Y-14730250D01*
X8385327Y-14730250D02*
X8413899Y-14730250D01*
X8413899Y-14730250D02*
X8432947Y-14739774D01*
X8432947Y-14739774D02*
X8442470Y-14758822D01*
X8442470Y-14758822D02*
X8442470Y-14863584D01*
X8442470Y-14758822D02*
X8451994Y-14739774D01*
X8451994Y-14739774D02*
X8471042Y-14730250D01*
X8471042Y-14730250D02*
X8499613Y-14730250D01*
X8499613Y-14730250D02*
X8518661Y-14739774D01*
X8518661Y-14739774D02*
X8528185Y-14758822D01*
X8528185Y-14758822D02*
X8528185Y-14863584D01*
X8623423Y-14863584D02*
X8623423Y-14730250D01*
X8623423Y-14749298D02*
X8632947Y-14739774D01*
X8632947Y-14739774D02*
X8651994Y-14730250D01*
X8651994Y-14730250D02*
X8680566Y-14730250D01*
X8680566Y-14730250D02*
X8699613Y-14739774D01*
X8699613Y-14739774D02*
X8709137Y-14758822D01*
X8709137Y-14758822D02*
X8709137Y-14863584D01*
X8709137Y-14758822D02*
X8718661Y-14739774D01*
X8718661Y-14739774D02*
X8737708Y-14730250D01*
X8737708Y-14730250D02*
X8766280Y-14730250D01*
X8766280Y-14730250D02*
X8785328Y-14739774D01*
X8785328Y-14739774D02*
X8794851Y-14758822D01*
X8794851Y-14758822D02*
X8794851Y-14863584D01*
X9185328Y-14654060D02*
X9013899Y-14911203D01*
X9442470Y-14663584D02*
X9461518Y-14663584D01*
X9461518Y-14663584D02*
X9480566Y-14673108D01*
X9480566Y-14673108D02*
X9490090Y-14682631D01*
X9490090Y-14682631D02*
X9499613Y-14701679D01*
X9499613Y-14701679D02*
X9509137Y-14739774D01*
X9509137Y-14739774D02*
X9509137Y-14787393D01*
X9509137Y-14787393D02*
X9499613Y-14825488D01*
X9499613Y-14825488D02*
X9490090Y-14844536D01*
X9490090Y-14844536D02*
X9480566Y-14854060D01*
X9480566Y-14854060D02*
X9461518Y-14863584D01*
X9461518Y-14863584D02*
X9442470Y-14863584D01*
X9442470Y-14863584D02*
X9423423Y-14854060D01*
X9423423Y-14854060D02*
X9413899Y-14844536D01*
X9413899Y-14844536D02*
X9404375Y-14825488D01*
X9404375Y-14825488D02*
X9394851Y-14787393D01*
X9394851Y-14787393D02*
X9394851Y-14739774D01*
X9394851Y-14739774D02*
X9404375Y-14701679D01*
X9404375Y-14701679D02*
X9413899Y-14682631D01*
X9413899Y-14682631D02*
X9423423Y-14673108D01*
X9423423Y-14673108D02*
X9442470Y-14663584D01*
X9594851Y-14844536D02*
X9604375Y-14854060D01*
X9604375Y-14854060D02*
X9594851Y-14863584D01*
X9594851Y-14863584D02*
X9585328Y-14854060D01*
X9585328Y-14854060D02*
X9594851Y-14844536D01*
X9594851Y-14844536D02*
X9594851Y-14863584D01*
X9728185Y-14663584D02*
X9747232Y-14663584D01*
X9747232Y-14663584D02*
X9766280Y-14673108D01*
X9766280Y-14673108D02*
X9775804Y-14682631D01*
X9775804Y-14682631D02*
X9785328Y-14701679D01*
X9785328Y-14701679D02*
X9794851Y-14739774D01*
X9794851Y-14739774D02*
X9794851Y-14787393D01*
X9794851Y-14787393D02*
X9785328Y-14825488D01*
X9785328Y-14825488D02*
X9775804Y-14844536D01*
X9775804Y-14844536D02*
X9766280Y-14854060D01*
X9766280Y-14854060D02*
X9747232Y-14863584D01*
X9747232Y-14863584D02*
X9728185Y-14863584D01*
X9728185Y-14863584D02*
X9709137Y-14854060D01*
X9709137Y-14854060D02*
X9699613Y-14844536D01*
X9699613Y-14844536D02*
X9690090Y-14825488D01*
X9690090Y-14825488D02*
X9680566Y-14787393D01*
X9680566Y-14787393D02*
X9680566Y-14739774D01*
X9680566Y-14739774D02*
X9690090Y-14701679D01*
X9690090Y-14701679D02*
X9699613Y-14682631D01*
X9699613Y-14682631D02*
X9709137Y-14673108D01*
X9709137Y-14673108D02*
X9728185Y-14663584D01*
X9975804Y-14663584D02*
X9880566Y-14663584D01*
X9880566Y-14663584D02*
X9871042Y-14758822D01*
X9871042Y-14758822D02*
X9880566Y-14749298D01*
X9880566Y-14749298D02*
X9899613Y-14739774D01*
X9899613Y-14739774D02*
X9947232Y-14739774D01*
X9947232Y-14739774D02*
X9966280Y-14749298D01*
X9966280Y-14749298D02*
X9975804Y-14758822D01*
X9975804Y-14758822D02*
X9985328Y-14777869D01*
X9985328Y-14777869D02*
X9985328Y-14825488D01*
X9985328Y-14825488D02*
X9975804Y-14844536D01*
X9975804Y-14844536D02*
X9966280Y-14854060D01*
X9966280Y-14854060D02*
X9947232Y-14863584D01*
X9947232Y-14863584D02*
X9899613Y-14863584D01*
X9899613Y-14863584D02*
X9880566Y-14854060D01*
X9880566Y-14854060D02*
X9871042Y-14844536D01*
X10175804Y-14863584D02*
X10061518Y-14863584D01*
X10118661Y-14863584D02*
X10118661Y-14663584D01*
X10118661Y-14663584D02*
X10099613Y-14692155D01*
X10099613Y-14692155D02*
X10080566Y-14711203D01*
X10080566Y-14711203D02*
X10061518Y-14720727D01*
X10251994Y-14682631D02*
X10261518Y-14673108D01*
X10261518Y-14673108D02*
X10280566Y-14663584D01*
X10280566Y-14663584D02*
X10328185Y-14663584D01*
X10328185Y-14663584D02*
X10347232Y-14673108D01*
X10347232Y-14673108D02*
X10356756Y-14682631D01*
X10356756Y-14682631D02*
X10366280Y-14701679D01*
X10366280Y-14701679D02*
X10366280Y-14720727D01*
X10366280Y-14720727D02*
X10356756Y-14749298D01*
X10356756Y-14749298D02*
X10242471Y-14863584D01*
X10242471Y-14863584D02*
X10366280Y-14863584D01*
X10442471Y-14663584D02*
X10442471Y-14701679D01*
X10518661Y-14663584D02*
X10518661Y-14701679D01*
X10813899Y-14939774D02*
X10804375Y-14930250D01*
X10804375Y-14930250D02*
X10785328Y-14901679D01*
X10785328Y-14901679D02*
X10775804Y-14882631D01*
X10775804Y-14882631D02*
X10766280Y-14854060D01*
X10766280Y-14854060D02*
X10756756Y-14806441D01*
X10756756Y-14806441D02*
X10756756Y-14768346D01*
X10756756Y-14768346D02*
X10766280Y-14720727D01*
X10766280Y-14720727D02*
X10775804Y-14692155D01*
X10775804Y-14692155D02*
X10785328Y-14673108D01*
X10785328Y-14673108D02*
X10804375Y-14644536D01*
X10804375Y-14644536D02*
X10813899Y-14635012D01*
X10975804Y-14663584D02*
X10937709Y-14663584D01*
X10937709Y-14663584D02*
X10918661Y-14673108D01*
X10918661Y-14673108D02*
X10909137Y-14682631D01*
X10909137Y-14682631D02*
X10890090Y-14711203D01*
X10890090Y-14711203D02*
X10880566Y-14749298D01*
X10880566Y-14749298D02*
X10880566Y-14825488D01*
X10880566Y-14825488D02*
X10890090Y-14844536D01*
X10890090Y-14844536D02*
X10899613Y-14854060D01*
X10899613Y-14854060D02*
X10918661Y-14863584D01*
X10918661Y-14863584D02*
X10956756Y-14863584D01*
X10956756Y-14863584D02*
X10975804Y-14854060D01*
X10975804Y-14854060D02*
X10985328Y-14844536D01*
X10985328Y-14844536D02*
X10994852Y-14825488D01*
X10994852Y-14825488D02*
X10994852Y-14777869D01*
X10994852Y-14777869D02*
X10985328Y-14758822D01*
X10985328Y-14758822D02*
X10975804Y-14749298D01*
X10975804Y-14749298D02*
X10956756Y-14739774D01*
X10956756Y-14739774D02*
X10918661Y-14739774D01*
X10918661Y-14739774D02*
X10899613Y-14749298D01*
X10899613Y-14749298D02*
X10890090Y-14758822D01*
X10890090Y-14758822D02*
X10880566Y-14777869D01*
X11109137Y-14749298D02*
X11090090Y-14739774D01*
X11090090Y-14739774D02*
X11080566Y-14730250D01*
X11080566Y-14730250D02*
X11071042Y-14711203D01*
X11071042Y-14711203D02*
X11071042Y-14701679D01*
X11071042Y-14701679D02*
X11080566Y-14682631D01*
X11080566Y-14682631D02*
X11090090Y-14673108D01*
X11090090Y-14673108D02*
X11109137Y-14663584D01*
X11109137Y-14663584D02*
X11147233Y-14663584D01*
X11147233Y-14663584D02*
X11166280Y-14673108D01*
X11166280Y-14673108D02*
X11175804Y-14682631D01*
X11175804Y-14682631D02*
X11185328Y-14701679D01*
X11185328Y-14701679D02*
X11185328Y-14711203D01*
X11185328Y-14711203D02*
X11175804Y-14730250D01*
X11175804Y-14730250D02*
X11166280Y-14739774D01*
X11166280Y-14739774D02*
X11147233Y-14749298D01*
X11147233Y-14749298D02*
X11109137Y-14749298D01*
X11109137Y-14749298D02*
X11090090Y-14758822D01*
X11090090Y-14758822D02*
X11080566Y-14768346D01*
X11080566Y-14768346D02*
X11071042Y-14787393D01*
X11071042Y-14787393D02*
X11071042Y-14825488D01*
X11071042Y-14825488D02*
X11080566Y-14844536D01*
X11080566Y-14844536D02*
X11090090Y-14854060D01*
X11090090Y-14854060D02*
X11109137Y-14863584D01*
X11109137Y-14863584D02*
X11147233Y-14863584D01*
X11147233Y-14863584D02*
X11166280Y-14854060D01*
X11166280Y-14854060D02*
X11175804Y-14844536D01*
X11175804Y-14844536D02*
X11185328Y-14825488D01*
X11185328Y-14825488D02*
X11185328Y-14787393D01*
X11185328Y-14787393D02*
X11175804Y-14768346D01*
X11175804Y-14768346D02*
X11166280Y-14758822D01*
X11166280Y-14758822D02*
X11147233Y-14749298D01*
X11423423Y-14863584D02*
X11423423Y-14663584D01*
X11509137Y-14863584D02*
X11509137Y-14758822D01*
X11509137Y-14758822D02*
X11499613Y-14739774D01*
X11499613Y-14739774D02*
X11480566Y-14730250D01*
X11480566Y-14730250D02*
X11451994Y-14730250D01*
X11451994Y-14730250D02*
X11432947Y-14739774D01*
X11432947Y-14739774D02*
X11423423Y-14749298D01*
X11632947Y-14863584D02*
X11613899Y-14854060D01*
X11613899Y-14854060D02*
X11604375Y-14844536D01*
X11604375Y-14844536D02*
X11594852Y-14825488D01*
X11594852Y-14825488D02*
X11594852Y-14768346D01*
X11594852Y-14768346D02*
X11604375Y-14749298D01*
X11604375Y-14749298D02*
X11613899Y-14739774D01*
X11613899Y-14739774D02*
X11632947Y-14730250D01*
X11632947Y-14730250D02*
X11661518Y-14730250D01*
X11661518Y-14730250D02*
X11680566Y-14739774D01*
X11680566Y-14739774D02*
X11690090Y-14749298D01*
X11690090Y-14749298D02*
X11699613Y-14768346D01*
X11699613Y-14768346D02*
X11699613Y-14825488D01*
X11699613Y-14825488D02*
X11690090Y-14844536D01*
X11690090Y-14844536D02*
X11680566Y-14854060D01*
X11680566Y-14854060D02*
X11661518Y-14863584D01*
X11661518Y-14863584D02*
X11632947Y-14863584D01*
X11813899Y-14863584D02*
X11794852Y-14854060D01*
X11794852Y-14854060D02*
X11785328Y-14835012D01*
X11785328Y-14835012D02*
X11785328Y-14663584D01*
X11966280Y-14854060D02*
X11947233Y-14863584D01*
X11947233Y-14863584D02*
X11909137Y-14863584D01*
X11909137Y-14863584D02*
X11890090Y-14854060D01*
X11890090Y-14854060D02*
X11880566Y-14835012D01*
X11880566Y-14835012D02*
X11880566Y-14758822D01*
X11880566Y-14758822D02*
X11890090Y-14739774D01*
X11890090Y-14739774D02*
X11909137Y-14730250D01*
X11909137Y-14730250D02*
X11947233Y-14730250D01*
X11947233Y-14730250D02*
X11966280Y-14739774D01*
X11966280Y-14739774D02*
X11975804Y-14758822D01*
X11975804Y-14758822D02*
X11975804Y-14777869D01*
X11975804Y-14777869D02*
X11880566Y-14796917D01*
X12051994Y-14854060D02*
X12071042Y-14863584D01*
X12071042Y-14863584D02*
X12109137Y-14863584D01*
X12109137Y-14863584D02*
X12128185Y-14854060D01*
X12128185Y-14854060D02*
X12137709Y-14835012D01*
X12137709Y-14835012D02*
X12137709Y-14825488D01*
X12137709Y-14825488D02*
X12128185Y-14806441D01*
X12128185Y-14806441D02*
X12109137Y-14796917D01*
X12109137Y-14796917D02*
X12080566Y-14796917D01*
X12080566Y-14796917D02*
X12061518Y-14787393D01*
X12061518Y-14787393D02*
X12051994Y-14768346D01*
X12051994Y-14768346D02*
X12051994Y-14758822D01*
X12051994Y-14758822D02*
X12061518Y-14739774D01*
X12061518Y-14739774D02*
X12080566Y-14730250D01*
X12080566Y-14730250D02*
X12109137Y-14730250D01*
X12109137Y-14730250D02*
X12128185Y-14739774D01*
X12204375Y-14939774D02*
X12213899Y-14930250D01*
X12213899Y-14930250D02*
X12232947Y-14901679D01*
X12232947Y-14901679D02*
X12242471Y-14882631D01*
X12242471Y-14882631D02*
X12251994Y-14854060D01*
X12251994Y-14854060D02*
X12261518Y-14806441D01*
X12261518Y-14806441D02*
X12261518Y-14768346D01*
X12261518Y-14768346D02*
X12251994Y-14720727D01*
X12251994Y-14720727D02*
X12242471Y-14692155D01*
X12242471Y-14692155D02*
X12232947Y-14673108D01*
X12232947Y-14673108D02*
X12213899Y-14644536D01*
X12213899Y-14644536D02*
X12204375Y-14635012D01*
X7038836Y-14936100D02*
X7238836Y-15136100D01*
X7238836Y-14936100D02*
X7038836Y-15136100D01*
X7238836Y-15036100D02*
G75*
G02*
X7038836Y-15036100I-100000J0D01*
G01*
X7038836Y-15036100D02*
G75*
G02*
X7238836Y-15036100I100000J0D01*
G01*
X7585327Y-14927584D02*
X7547232Y-14927584D01*
X7547232Y-14927584D02*
X7528184Y-14937108D01*
X7528184Y-14937108D02*
X7518661Y-14946631D01*
X7518661Y-14946631D02*
X7499613Y-14975203D01*
X7499613Y-14975203D02*
X7490089Y-15013298D01*
X7490089Y-15013298D02*
X7490089Y-15089488D01*
X7490089Y-15089488D02*
X7499613Y-15108536D01*
X7499613Y-15108536D02*
X7509137Y-15118060D01*
X7509137Y-15118060D02*
X7528184Y-15127584D01*
X7528184Y-15127584D02*
X7566280Y-15127584D01*
X7566280Y-15127584D02*
X7585327Y-15118060D01*
X7585327Y-15118060D02*
X7594851Y-15108536D01*
X7594851Y-15108536D02*
X7604375Y-15089488D01*
X7604375Y-15089488D02*
X7604375Y-15041869D01*
X7604375Y-15041869D02*
X7594851Y-15022822D01*
X7594851Y-15022822D02*
X7585327Y-15013298D01*
X7585327Y-15013298D02*
X7566280Y-15003774D01*
X7566280Y-15003774D02*
X7528184Y-15003774D01*
X7528184Y-15003774D02*
X7509137Y-15013298D01*
X7509137Y-15013298D02*
X7499613Y-15022822D01*
X7499613Y-15022822D02*
X7490089Y-15041869D01*
X7690089Y-15108536D02*
X7699613Y-15118060D01*
X7699613Y-15118060D02*
X7690089Y-15127584D01*
X7690089Y-15127584D02*
X7680565Y-15118060D01*
X7680565Y-15118060D02*
X7690089Y-15108536D01*
X7690089Y-15108536D02*
X7690089Y-15127584D01*
X7871042Y-14994250D02*
X7871042Y-15127584D01*
X7823423Y-14918060D02*
X7775804Y-15060917D01*
X7775804Y-15060917D02*
X7899613Y-15060917D01*
X8013899Y-14927584D02*
X8032946Y-14927584D01*
X8032946Y-14927584D02*
X8051994Y-14937108D01*
X8051994Y-14937108D02*
X8061518Y-14946631D01*
X8061518Y-14946631D02*
X8071042Y-14965679D01*
X8071042Y-14965679D02*
X8080565Y-15003774D01*
X8080565Y-15003774D02*
X8080565Y-15051393D01*
X8080565Y-15051393D02*
X8071042Y-15089488D01*
X8071042Y-15089488D02*
X8061518Y-15108536D01*
X8061518Y-15108536D02*
X8051994Y-15118060D01*
X8051994Y-15118060D02*
X8032946Y-15127584D01*
X8032946Y-15127584D02*
X8013899Y-15127584D01*
X8013899Y-15127584D02*
X7994851Y-15118060D01*
X7994851Y-15118060D02*
X7985327Y-15108536D01*
X7985327Y-15108536D02*
X7975804Y-15089488D01*
X7975804Y-15089488D02*
X7966280Y-15051393D01*
X7966280Y-15051393D02*
X7966280Y-15003774D01*
X7966280Y-15003774D02*
X7975804Y-14965679D01*
X7975804Y-14965679D02*
X7985327Y-14946631D01*
X7985327Y-14946631D02*
X7994851Y-14937108D01*
X7994851Y-14937108D02*
X8013899Y-14927584D01*
X8204375Y-14927584D02*
X8223423Y-14927584D01*
X8223423Y-14927584D02*
X8242470Y-14937108D01*
X8242470Y-14937108D02*
X8251994Y-14946631D01*
X8251994Y-14946631D02*
X8261518Y-14965679D01*
X8261518Y-14965679D02*
X8271042Y-15003774D01*
X8271042Y-15003774D02*
X8271042Y-15051393D01*
X8271042Y-15051393D02*
X8261518Y-15089488D01*
X8261518Y-15089488D02*
X8251994Y-15108536D01*
X8251994Y-15108536D02*
X8242470Y-15118060D01*
X8242470Y-15118060D02*
X8223423Y-15127584D01*
X8223423Y-15127584D02*
X8204375Y-15127584D01*
X8204375Y-15127584D02*
X8185327Y-15118060D01*
X8185327Y-15118060D02*
X8175804Y-15108536D01*
X8175804Y-15108536D02*
X8166280Y-15089488D01*
X8166280Y-15089488D02*
X8156756Y-15051393D01*
X8156756Y-15051393D02*
X8156756Y-15003774D01*
X8156756Y-15003774D02*
X8166280Y-14965679D01*
X8166280Y-14965679D02*
X8175804Y-14946631D01*
X8175804Y-14946631D02*
X8185327Y-14937108D01*
X8185327Y-14937108D02*
X8204375Y-14927584D01*
X8356756Y-15127584D02*
X8356756Y-14994250D01*
X8356756Y-15013298D02*
X8366280Y-15003774D01*
X8366280Y-15003774D02*
X8385327Y-14994250D01*
X8385327Y-14994250D02*
X8413899Y-14994250D01*
X8413899Y-14994250D02*
X8432947Y-15003774D01*
X8432947Y-15003774D02*
X8442470Y-15022822D01*
X8442470Y-15022822D02*
X8442470Y-15127584D01*
X8442470Y-15022822D02*
X8451994Y-15003774D01*
X8451994Y-15003774D02*
X8471042Y-14994250D01*
X8471042Y-14994250D02*
X8499613Y-14994250D01*
X8499613Y-14994250D02*
X8518661Y-15003774D01*
X8518661Y-15003774D02*
X8528185Y-15022822D01*
X8528185Y-15022822D02*
X8528185Y-15127584D01*
X8623423Y-15127584D02*
X8623423Y-14994250D01*
X8623423Y-15013298D02*
X8632947Y-15003774D01*
X8632947Y-15003774D02*
X8651994Y-14994250D01*
X8651994Y-14994250D02*
X8680566Y-14994250D01*
X8680566Y-14994250D02*
X8699613Y-15003774D01*
X8699613Y-15003774D02*
X8709137Y-15022822D01*
X8709137Y-15022822D02*
X8709137Y-15127584D01*
X8709137Y-15022822D02*
X8718661Y-15003774D01*
X8718661Y-15003774D02*
X8737708Y-14994250D01*
X8737708Y-14994250D02*
X8766280Y-14994250D01*
X8766280Y-14994250D02*
X8785328Y-15003774D01*
X8785328Y-15003774D02*
X8794851Y-15022822D01*
X8794851Y-15022822D02*
X8794851Y-15127584D01*
X9185328Y-14918060D02*
X9013899Y-15175203D01*
X9442470Y-14927584D02*
X9461518Y-14927584D01*
X9461518Y-14927584D02*
X9480566Y-14937108D01*
X9480566Y-14937108D02*
X9490090Y-14946631D01*
X9490090Y-14946631D02*
X9499613Y-14965679D01*
X9499613Y-14965679D02*
X9509137Y-15003774D01*
X9509137Y-15003774D02*
X9509137Y-15051393D01*
X9509137Y-15051393D02*
X9499613Y-15089488D01*
X9499613Y-15089488D02*
X9490090Y-15108536D01*
X9490090Y-15108536D02*
X9480566Y-15118060D01*
X9480566Y-15118060D02*
X9461518Y-15127584D01*
X9461518Y-15127584D02*
X9442470Y-15127584D01*
X9442470Y-15127584D02*
X9423423Y-15118060D01*
X9423423Y-15118060D02*
X9413899Y-15108536D01*
X9413899Y-15108536D02*
X9404375Y-15089488D01*
X9404375Y-15089488D02*
X9394851Y-15051393D01*
X9394851Y-15051393D02*
X9394851Y-15003774D01*
X9394851Y-15003774D02*
X9404375Y-14965679D01*
X9404375Y-14965679D02*
X9413899Y-14946631D01*
X9413899Y-14946631D02*
X9423423Y-14937108D01*
X9423423Y-14937108D02*
X9442470Y-14927584D01*
X9594851Y-15108536D02*
X9604375Y-15118060D01*
X9604375Y-15118060D02*
X9594851Y-15127584D01*
X9594851Y-15127584D02*
X9585328Y-15118060D01*
X9585328Y-15118060D02*
X9594851Y-15108536D01*
X9594851Y-15108536D02*
X9594851Y-15127584D01*
X9680566Y-14946631D02*
X9690090Y-14937108D01*
X9690090Y-14937108D02*
X9709137Y-14927584D01*
X9709137Y-14927584D02*
X9756756Y-14927584D01*
X9756756Y-14927584D02*
X9775804Y-14937108D01*
X9775804Y-14937108D02*
X9785328Y-14946631D01*
X9785328Y-14946631D02*
X9794851Y-14965679D01*
X9794851Y-14965679D02*
X9794851Y-14984727D01*
X9794851Y-14984727D02*
X9785328Y-15013298D01*
X9785328Y-15013298D02*
X9671042Y-15127584D01*
X9671042Y-15127584D02*
X9794851Y-15127584D01*
X9975804Y-14927584D02*
X9880566Y-14927584D01*
X9880566Y-14927584D02*
X9871042Y-15022822D01*
X9871042Y-15022822D02*
X9880566Y-15013298D01*
X9880566Y-15013298D02*
X9899613Y-15003774D01*
X9899613Y-15003774D02*
X9947232Y-15003774D01*
X9947232Y-15003774D02*
X9966280Y-15013298D01*
X9966280Y-15013298D02*
X9975804Y-15022822D01*
X9975804Y-15022822D02*
X9985328Y-15041869D01*
X9985328Y-15041869D02*
X9985328Y-15089488D01*
X9985328Y-15089488D02*
X9975804Y-15108536D01*
X9975804Y-15108536D02*
X9966280Y-15118060D01*
X9966280Y-15118060D02*
X9947232Y-15127584D01*
X9947232Y-15127584D02*
X9899613Y-15127584D01*
X9899613Y-15127584D02*
X9880566Y-15118060D01*
X9880566Y-15118060D02*
X9871042Y-15108536D01*
X10061518Y-14946631D02*
X10071042Y-14937108D01*
X10071042Y-14937108D02*
X10090090Y-14927584D01*
X10090090Y-14927584D02*
X10137709Y-14927584D01*
X10137709Y-14927584D02*
X10156756Y-14937108D01*
X10156756Y-14937108D02*
X10166280Y-14946631D01*
X10166280Y-14946631D02*
X10175804Y-14965679D01*
X10175804Y-14965679D02*
X10175804Y-14984727D01*
X10175804Y-14984727D02*
X10166280Y-15013298D01*
X10166280Y-15013298D02*
X10051994Y-15127584D01*
X10051994Y-15127584D02*
X10175804Y-15127584D01*
X10299613Y-14927584D02*
X10318661Y-14927584D01*
X10318661Y-14927584D02*
X10337709Y-14937108D01*
X10337709Y-14937108D02*
X10347232Y-14946631D01*
X10347232Y-14946631D02*
X10356756Y-14965679D01*
X10356756Y-14965679D02*
X10366280Y-15003774D01*
X10366280Y-15003774D02*
X10366280Y-15051393D01*
X10366280Y-15051393D02*
X10356756Y-15089488D01*
X10356756Y-15089488D02*
X10347232Y-15108536D01*
X10347232Y-15108536D02*
X10337709Y-15118060D01*
X10337709Y-15118060D02*
X10318661Y-15127584D01*
X10318661Y-15127584D02*
X10299613Y-15127584D01*
X10299613Y-15127584D02*
X10280566Y-15118060D01*
X10280566Y-15118060D02*
X10271042Y-15108536D01*
X10271042Y-15108536D02*
X10261518Y-15089488D01*
X10261518Y-15089488D02*
X10251994Y-15051393D01*
X10251994Y-15051393D02*
X10251994Y-15003774D01*
X10251994Y-15003774D02*
X10261518Y-14965679D01*
X10261518Y-14965679D02*
X10271042Y-14946631D01*
X10271042Y-14946631D02*
X10280566Y-14937108D01*
X10280566Y-14937108D02*
X10299613Y-14927584D01*
X10442471Y-14927584D02*
X10442471Y-14965679D01*
X10518661Y-14927584D02*
X10518661Y-14965679D01*
X10813899Y-15203774D02*
X10804375Y-15194250D01*
X10804375Y-15194250D02*
X10785328Y-15165679D01*
X10785328Y-15165679D02*
X10775804Y-15146631D01*
X10775804Y-15146631D02*
X10766280Y-15118060D01*
X10766280Y-15118060D02*
X10756756Y-15070441D01*
X10756756Y-15070441D02*
X10756756Y-15032346D01*
X10756756Y-15032346D02*
X10766280Y-14984727D01*
X10766280Y-14984727D02*
X10775804Y-14956155D01*
X10775804Y-14956155D02*
X10785328Y-14937108D01*
X10785328Y-14937108D02*
X10804375Y-14908536D01*
X10804375Y-14908536D02*
X10813899Y-14899012D01*
X10880566Y-14946631D02*
X10890090Y-14937108D01*
X10890090Y-14937108D02*
X10909137Y-14927584D01*
X10909137Y-14927584D02*
X10956756Y-14927584D01*
X10956756Y-14927584D02*
X10975804Y-14937108D01*
X10975804Y-14937108D02*
X10985328Y-14946631D01*
X10985328Y-14946631D02*
X10994852Y-14965679D01*
X10994852Y-14965679D02*
X10994852Y-14984727D01*
X10994852Y-14984727D02*
X10985328Y-15013298D01*
X10985328Y-15013298D02*
X10871042Y-15127584D01*
X10871042Y-15127584D02*
X10994852Y-15127584D01*
X11232947Y-15127584D02*
X11232947Y-14927584D01*
X11318661Y-15127584D02*
X11318661Y-15022822D01*
X11318661Y-15022822D02*
X11309137Y-15003774D01*
X11309137Y-15003774D02*
X11290090Y-14994250D01*
X11290090Y-14994250D02*
X11261518Y-14994250D01*
X11261518Y-14994250D02*
X11242471Y-15003774D01*
X11242471Y-15003774D02*
X11232947Y-15013298D01*
X11442471Y-15127584D02*
X11423423Y-15118060D01*
X11423423Y-15118060D02*
X11413899Y-15108536D01*
X11413899Y-15108536D02*
X11404375Y-15089488D01*
X11404375Y-15089488D02*
X11404375Y-15032346D01*
X11404375Y-15032346D02*
X11413899Y-15013298D01*
X11413899Y-15013298D02*
X11423423Y-15003774D01*
X11423423Y-15003774D02*
X11442471Y-14994250D01*
X11442471Y-14994250D02*
X11471042Y-14994250D01*
X11471042Y-14994250D02*
X11490090Y-15003774D01*
X11490090Y-15003774D02*
X11499613Y-15013298D01*
X11499613Y-15013298D02*
X11509137Y-15032346D01*
X11509137Y-15032346D02*
X11509137Y-15089488D01*
X11509137Y-15089488D02*
X11499613Y-15108536D01*
X11499613Y-15108536D02*
X11490090Y-15118060D01*
X11490090Y-15118060D02*
X11471042Y-15127584D01*
X11471042Y-15127584D02*
X11442471Y-15127584D01*
X11623423Y-15127584D02*
X11604375Y-15118060D01*
X11604375Y-15118060D02*
X11594852Y-15099012D01*
X11594852Y-15099012D02*
X11594852Y-14927584D01*
X11775804Y-15118060D02*
X11756756Y-15127584D01*
X11756756Y-15127584D02*
X11718661Y-15127584D01*
X11718661Y-15127584D02*
X11699613Y-15118060D01*
X11699613Y-15118060D02*
X11690090Y-15099012D01*
X11690090Y-15099012D02*
X11690090Y-15022822D01*
X11690090Y-15022822D02*
X11699613Y-15003774D01*
X11699613Y-15003774D02*
X11718661Y-14994250D01*
X11718661Y-14994250D02*
X11756756Y-14994250D01*
X11756756Y-14994250D02*
X11775804Y-15003774D01*
X11775804Y-15003774D02*
X11785328Y-15022822D01*
X11785328Y-15022822D02*
X11785328Y-15041869D01*
X11785328Y-15041869D02*
X11690090Y-15060917D01*
X11861518Y-15118060D02*
X11880566Y-15127584D01*
X11880566Y-15127584D02*
X11918661Y-15127584D01*
X11918661Y-15127584D02*
X11937709Y-15118060D01*
X11937709Y-15118060D02*
X11947233Y-15099012D01*
X11947233Y-15099012D02*
X11947233Y-15089488D01*
X11947233Y-15089488D02*
X11937709Y-15070441D01*
X11937709Y-15070441D02*
X11918661Y-15060917D01*
X11918661Y-15060917D02*
X11890090Y-15060917D01*
X11890090Y-15060917D02*
X11871042Y-15051393D01*
X11871042Y-15051393D02*
X11861518Y-15032346D01*
X11861518Y-15032346D02*
X11861518Y-15022822D01*
X11861518Y-15022822D02*
X11871042Y-15003774D01*
X11871042Y-15003774D02*
X11890090Y-14994250D01*
X11890090Y-14994250D02*
X11918661Y-14994250D01*
X11918661Y-14994250D02*
X11937709Y-15003774D01*
X12013899Y-15203774D02*
X12023423Y-15194250D01*
X12023423Y-15194250D02*
X12042471Y-15165679D01*
X12042471Y-15165679D02*
X12051994Y-15146631D01*
X12051994Y-15146631D02*
X12061518Y-15118060D01*
X12061518Y-15118060D02*
X12071042Y-15070441D01*
X12071042Y-15070441D02*
X12071042Y-15032346D01*
X12071042Y-15032346D02*
X12061518Y-14984727D01*
X12061518Y-14984727D02*
X12051994Y-14956155D01*
X12051994Y-14956155D02*
X12042471Y-14937108D01*
X12042471Y-14937108D02*
X12023423Y-14908536D01*
X12023423Y-14908536D02*
X12013899Y-14899012D01*
M02*
