M48
; DRILL file {KiCad 8.0.5} date 2024-09-26T22:40:00-0500
; FORMAT={-:-/ absolute / metric / decimal}
; #@! TF.CreationDate,2024-09-26T22:40:00-05:00
; #@! TF.GenerationSoftware,Kicad,Pcbnew,8.0.5
; #@! TF.FileFunction,Plated,1,4,PTH
FMAT,2
METRIC
; #@! TA.AperFunction,Plated,PTH,ViaDrill
T1C0.400
; #@! TA.AperFunction,Plated,PTH,ComponentDrill
T2C0.800
; #@! TA.AperFunction,Plated,PTH,ComponentDrill
T3C1.000
; #@! TA.AperFunction,Plated,PTH,ComponentDrill
T4C1.020
; #@! TA.AperFunction,Plated,PTH,ComponentDrill
T5C1.300
; #@! TA.AperFunction,Plated,PTH,ComponentDrill
T6C6.400
%
G90
G05
T1
X78.113Y-81.331
X80.058Y-111.608
X80.097Y-105.682
X80.105Y-103.7
X80.106Y-113.608
X80.127Y-115.608
X80.128Y-107.658
X80.176Y-109.735
X80.261Y-117.486
X80.756Y-47.981
X81.81Y-86.08
X82.099Y-88.691
X83.831Y-48.591
X84.418Y-103.708
X84.448Y-115.568
X84.578Y-117.748
X84.598Y-113.748
X84.638Y-111.668
X84.688Y-109.768
X84.698Y-105.738
X84.748Y-107.648
X85.16Y-85.88
X85.763Y-77.711
X86.317Y-101.993
X86.34Y-98.39
X86.691Y-81.039
X86.833Y-79.131
X86.864Y-93.456
X87.238Y-97.508
X87.456Y-119.071
X88.12Y-82.5
X88.551Y-98.316
X89.463Y-77.551
X89.622Y-98.342
X90.186Y-104.671
X90.476Y-99.121
X91.55Y-99.2
X91.58Y-88.85
X91.896Y-118.601
X92.213Y-69.371
X92.296Y-91.761
X93.096Y-98.63
X93.205Y-92.176
X93.599Y-93.094
X93.648Y-114.872
X94.156Y-112.691
X94.306Y-93.801
X95.248Y-99.884
X95.316Y-101.291
X95.423Y-95.686
X96.096Y-110.265
X96.236Y-102.071
X96.93Y-83.84
X97.046Y-103.251
X97.212Y-97.475
X98.886Y-110.341
X99.036Y-98.225
X99.876Y-111.551
X100.239Y-101.141
X100.606Y-117.451
X101.196Y-98.974
X101.495Y-83.491
X101.561Y-101.056
X101.936Y-106.181
X102.11Y-81.576
X102.134Y-82.722
X102.616Y-115.641
X102.636Y-85.071
X102.816Y-98.741
X103.156Y-107.111
X103.336Y-101.151
X103.946Y-99.671
X104.111Y-49.166
X104.81Y-50.676
X104.955Y-83.291
X105.236Y-120.451
X106.016Y-121.571
X106.496Y-50.601
X107.211Y-91.976
X107.241Y-90.431
X107.486Y-88.811
X107.666Y-95.921
X108.236Y-92.11
X108.238Y-90.11
X109.452Y-89.11
X109.566Y-93.609
X110.006Y-62.291
X110.271Y-79.966
X111.381Y-50.626
X111.681Y-77.676
X111.711Y-79.106
X112.293Y-91.404
X112.556Y-89.271
X112.616Y-107.411
X112.696Y-97.121
X112.78Y-98.121
X112.931Y-93.086
X113.526Y-62.671
X113.761Y-81.106
X114.06Y-106.286
X114.149Y-92.236
X114.371Y-83.51
X115.196Y-46.171
X115.261Y-77.546
X115.756Y-70.761
X116.308Y-84.245
X116.581Y-53.536
X116.761Y-103.496
X117.091Y-81.426
X117.101Y-83.626
X117.4Y-77.808
X117.731Y-90.606
X117.741Y-89.536
X117.786Y-88.431
X118.081Y-87.376
X118.476Y-104.04
X119.286Y-82.501
X119.776Y-49.621
X120.066Y-92.331
X121.136Y-64.781
X121.776Y-93.08
X121.811Y-77.506
X122.201Y-81.336
X122.386Y-121.791
X123.001Y-77.696
X123.48Y-103.476
X123.631Y-81.866
X124.086Y-102.601
X124.466Y-104.721
X125.529Y-95.565
X125.551Y-94.566
X126.996Y-64.611
X127.521Y-79.846
X127.781Y-81.336
X128.035Y-85.61
X128.836Y-102.621
X129.32Y-84.611
X129.458Y-85.61
X129.682Y-83.677
X129.81Y-103.306
X130.721Y-103.715
X131.969Y-97.036
X132.786Y-50.351
X132.826Y-54.771
X132.854Y-95.708
X134.24Y-100.482
X134.589Y-72.076
X134.77Y-82.656
X134.774Y-79.47
X134.806Y-93.756
X134.916Y-99.676
X135.089Y-73.435
X135.15Y-92.818
X135.486Y-72.518
X136.38Y-82.226
X136.389Y-83.755
X136.494Y-72.507
X136.676Y-77.391
X136.85Y-80.606
X136.889Y-87.735
X137.095Y-96.93
X137.124Y-85.14
X137.158Y-92.738
X137.27Y-95.946
X137.487Y-93.81
X137.5Y-91.516
X138.506Y-45.721
X139.273Y-94.991
X140.073Y-87.216
X140.149Y-74.724
X140.35Y-83.456
X140.41Y-84.486
X140.69Y-85.445
X140.74Y-78.866
X140.918Y-86.682
X141.049Y-75.945
X141.106Y-95.893
X141.91Y-86.48
X142.22Y-83.266
X142.456Y-89.971
X142.61Y-95.276
X143.0Y-79.116
X143.1Y-73.876
X143.526Y-50.521
X143.653Y-107.117
X143.666Y-96.211
X144.11Y-97.905
X144.345Y-112.515
X144.42Y-79.316
X145.013Y-93.166
X145.02Y-76.796
X145.02Y-94.166
X145.186Y-85.511
X145.366Y-51.171
X145.781Y-90.156
X145.901Y-91.535
X145.926Y-80.091
X145.996Y-78.081
X146.256Y-83.101
X147.083Y-104.693
X147.58Y-110.22
X155.706Y-50.511
X155.716Y-53.66
X157.744Y-92.088
X157.775Y-75.341
X157.841Y-49.971
X157.869Y-83.814
X157.92Y-93.87
X157.93Y-85.4
X157.943Y-100.748
X157.974Y-77.064
X158.03Y-102.34
X158.3Y-89.41
X158.97Y-106.43
X158.98Y-80.9
X159.25Y-97.65
X159.661Y-46.391
X160.761Y-43.541
X161.231Y-42.491
X161.956Y-126.631
X161.97Y-93.58
X162.02Y-85.13
X162.02Y-90.91
X162.02Y-101.94
X162.03Y-99.15
X162.06Y-76.89
X162.16Y-82.4
X162.24Y-73.94
X164.16Y-81.65
X164.16Y-98.62
X164.19Y-90.13
X164.64Y-73.06
X166.044Y-79.186
X166.044Y-80.336
X166.044Y-87.575
X166.044Y-88.725
X166.044Y-95.986
X166.044Y-97.136
X166.044Y-104.421
X166.044Y-105.571
X166.666Y-81.511
X166.726Y-98.631
X166.896Y-89.911
X167.066Y-72.891
X167.314Y-79.186
X167.314Y-80.336
X167.314Y-87.575
X167.314Y-88.725
X167.314Y-95.986
X167.314Y-97.136
X167.314Y-104.421
X167.314Y-105.571
X168.042Y-56.64
X168.94Y-75.01
X168.99Y-56.14
X169.01Y-83.68
X169.02Y-91.68
X169.08Y-102.74
X169.956Y-55.64
X171.227Y-57.197
X172.236Y-57.64
X172.86Y-58.42
X173.165Y-59.92
X173.391Y-49.631
X173.696Y-59.05
X174.366Y-126.431
X178.661Y-46.691
X180.521Y-57.641
X181.132Y-55.93
X182.027Y-55.484
X182.796Y-54.141
X182.916Y-58.671
X183.296Y-48.081
X183.686Y-59.511
X183.716Y-57.711
X184.666Y-52.511
X184.766Y-126.511
X186.586Y-55.14
X186.666Y-52.141
X187.806Y-55.14
X188.696Y-52.001
X189.876Y-76.361
X189.883Y-75.208
X190.076Y-84.681
X190.083Y-83.528
X190.126Y-93.141
X190.133Y-91.988
X190.139Y-101.493
X190.146Y-100.341
X190.23Y-82.375
X190.484Y-90.757
X190.696Y-51.961
X190.738Y-99.139
X190.738Y-107.775
X190.896Y-57.64
X191.156Y-76.371
X191.163Y-75.218
X191.356Y-84.681
X191.363Y-83.528
X191.409Y-100.341
X191.409Y-101.493
X191.416Y-93.141
X191.423Y-91.988
X193.116Y-119.491
X193.186Y-60.64
X193.456Y-112.431
X193.786Y-107.521
X194.04Y-79.073
X194.294Y-87.455
X194.294Y-95.837
X194.294Y-104.219
X195.056Y-81.625
X195.31Y-90.007
X195.31Y-98.389
X195.31Y-106.771
X196.79Y-99.139
X197.5Y-82.375
X197.7Y-90.757
X198.34Y-73.98
X198.67Y-82.76
X198.73Y-91.11
X198.88Y-99.68
X199.396Y-86.959
X199.416Y-95.341
X199.524Y-78.323
X199.551Y-79.994
X199.565Y-88.458
X199.628Y-96.849
X199.628Y-105.235
X199.656Y-103.721
X204.962Y-97.615
X204.962Y-99.139
X205.662Y-81.935
X205.679Y-79.835
X205.724Y-80.851
X205.724Y-100.917
X205.789Y-83.281
X205.978Y-85.169
X205.978Y-88.725
X205.978Y-89.995
X206.226Y-101.782
X206.473Y-98.891
X206.508Y-97.129
X206.74Y-79.835
X208.081Y-101.666
X208.83Y-99.901
X209.13Y-82.93
X209.28Y-87.963
X209.28Y-91.011
X209.28Y-93.297
X209.293Y-97.743
X209.587Y-80.855
X209.788Y-86.947
X209.882Y-85.831
X210.296Y-97.361
X210.587Y-80.836
X210.696Y-85.251
X211.058Y-92.535
X212.788Y-84.658
X212.836Y-99.393
X213.523Y-82.345
X213.852Y-79.835
X213.852Y-83.391
X213.864Y-94.313
X214.614Y-92.535
X214.868Y-79.581
X214.868Y-86.693
X214.868Y-90.261
X215.376Y-80.597
X215.617Y-83.899
X216.138Y-81.867
X216.9Y-84.153
X217.43Y-85.191
X218.17Y-86.947
X218.954Y-90.525
X218.976Y-88.261
X219.107Y-93.673
X219.186Y-96.345
X219.208Y-86.969
X220.119Y-90.42
X221.643Y-92.198
T2
X97.056Y-45.926
X97.056Y-47.926
X97.056Y-49.926
X99.056Y-45.926
X99.056Y-47.926
X99.056Y-49.926
T3
X84.086Y-43.471
X84.086Y-58.711
X86.626Y-43.471
X86.626Y-46.011
X86.626Y-58.711
X89.166Y-43.471
X89.166Y-58.711
X90.436Y-55.671
X91.706Y-43.471
X91.706Y-58.711
X92.976Y-55.671
X94.246Y-43.471
X94.246Y-58.711
X95.516Y-55.671
X96.786Y-43.471
X96.786Y-58.711
X98.056Y-55.671
X99.326Y-43.471
X99.326Y-58.711
X100.596Y-55.671
X101.866Y-43.471
X101.866Y-58.711
X104.406Y-43.471
X104.406Y-58.711
X106.946Y-43.471
X106.946Y-58.711
X109.486Y-43.471
X109.486Y-58.711
X112.026Y-43.471
X112.026Y-58.711
X114.566Y-43.471
X114.566Y-58.711
X117.106Y-43.471
X117.106Y-58.711
X119.646Y-43.471
X119.646Y-58.711
X122.186Y-43.471
X122.186Y-58.711
X124.726Y-43.471
X124.726Y-58.711
X127.266Y-43.471
X127.266Y-58.711
X129.806Y-43.471
X129.806Y-46.011
X129.806Y-48.551
X129.806Y-51.091
X129.806Y-53.631
X129.806Y-56.171
X129.806Y-58.711
X132.346Y-43.471
X132.346Y-58.711
X134.886Y-43.471
X134.886Y-58.711
X137.426Y-43.471
X137.426Y-58.711
X139.966Y-43.471
X139.966Y-58.711
X142.506Y-43.471
X142.506Y-58.711
T4
X95.21Y-78.5
X95.21Y-81.5
X95.21Y-84.5
X98.21Y-78.5
X98.21Y-81.5
X98.21Y-84.5
T5
X112.166Y-111.501
X112.166Y-119.501
X113.666Y-114.001
X113.666Y-117.001
X115.166Y-111.501
X115.166Y-119.501
X116.666Y-114.001
X116.666Y-117.001
X118.166Y-111.501
X118.166Y-119.501
X119.666Y-114.001
X119.666Y-117.001
X121.166Y-111.501
X121.166Y-119.501
X122.666Y-114.001
X122.666Y-117.001
X124.166Y-111.501
X124.166Y-119.501
X125.666Y-114.001
X125.666Y-117.001
X127.166Y-111.501
X127.166Y-119.501
X128.666Y-114.001
X128.666Y-117.001
X130.166Y-111.501
X130.166Y-119.501
X131.666Y-114.001
X131.666Y-117.001
X133.166Y-111.501
X133.166Y-119.501
X134.666Y-114.001
X134.666Y-117.001
X136.166Y-111.501
X136.166Y-119.501
X159.366Y-111.501
X159.366Y-119.501
X160.866Y-114.001
X160.866Y-117.001
X162.366Y-111.501
X162.366Y-119.501
X163.866Y-114.001
X163.866Y-117.001
X165.366Y-111.501
X165.366Y-119.501
X166.866Y-114.001
X166.866Y-117.001
X168.366Y-111.501
X168.366Y-119.501
X169.866Y-114.001
X169.866Y-117.001
X171.366Y-111.501
X171.366Y-119.501
X172.866Y-114.001
X172.866Y-117.001
X174.366Y-111.501
X174.366Y-119.501
X175.866Y-114.001
X175.866Y-117.001
X177.366Y-111.501
X177.366Y-119.501
X178.866Y-114.001
X178.866Y-117.001
X180.366Y-111.501
X180.366Y-119.501
X181.866Y-114.001
X181.866Y-117.001
X183.366Y-111.501
X183.366Y-119.501
T6
X208.0Y-109.38
X208.047Y-65.342
M30
