%TF.GenerationSoftware,KiCad,Pcbnew,9.0.0*%
%TF.CreationDate,2026-08-10T18:31:41-05:00*%
%TF.ProjectId,PDM Logic Test v2.0,50444d20-4c6f-4676-9963-205465737420,rev?*%
%TF.SameCoordinates,Original*%
%TF.FileFunction,Legend,Top*%
%TF.FilePolarity,Positive*%
%FSLAX46Y46*%
G04 Gerber Fmt 4.6, Leading zero omitted, Abs format (unit mm)*
G04 Created by KiCad (PCBNEW 9.0.0) date 2026-08-10 18:31:41*
%MOMM*%
%LPD*%
G01*
G04 APERTURE LIST*
%ADD10C,0.100000*%
%ADD11C,0.120000*%
%ADD12C,0.010000*%
G04 APERTURE END LIST*
D10*
X99036323Y-91404761D02*
X99036323Y-91271428D01*
X99245847Y-91214285D02*
X99245847Y-91404761D01*
X99245847Y-91404761D02*
X98845847Y-91404761D01*
X98845847Y-91404761D02*
X98845847Y-91214285D01*
X98979180Y-91042856D02*
X99245847Y-91042856D01*
X99017276Y-91042856D02*
X98998228Y-91023809D01*
X98998228Y-91023809D02*
X98979180Y-90985714D01*
X98979180Y-90985714D02*
X98979180Y-90928571D01*
X98979180Y-90928571D02*
X98998228Y-90890475D01*
X98998228Y-90890475D02*
X99036323Y-90871428D01*
X99036323Y-90871428D02*
X99245847Y-90871428D01*
X99245847Y-90509523D02*
X99036323Y-90509523D01*
X99036323Y-90509523D02*
X98998228Y-90528570D01*
X98998228Y-90528570D02*
X98979180Y-90566666D01*
X98979180Y-90566666D02*
X98979180Y-90642856D01*
X98979180Y-90642856D02*
X98998228Y-90680951D01*
X99226800Y-90509523D02*
X99245847Y-90547618D01*
X99245847Y-90547618D02*
X99245847Y-90642856D01*
X99245847Y-90642856D02*
X99226800Y-90680951D01*
X99226800Y-90680951D02*
X99188704Y-90699999D01*
X99188704Y-90699999D02*
X99150609Y-90699999D01*
X99150609Y-90699999D02*
X99112514Y-90680951D01*
X99112514Y-90680951D02*
X99093466Y-90642856D01*
X99093466Y-90642856D02*
X99093466Y-90547618D01*
X99093466Y-90547618D02*
X99074419Y-90509523D01*
X99245847Y-90319046D02*
X98845847Y-90319046D01*
X98998228Y-90319046D02*
X98979180Y-90280951D01*
X98979180Y-90280951D02*
X98979180Y-90204761D01*
X98979180Y-90204761D02*
X98998228Y-90166665D01*
X98998228Y-90166665D02*
X99017276Y-90147618D01*
X99017276Y-90147618D02*
X99055371Y-90128570D01*
X99055371Y-90128570D02*
X99169657Y-90128570D01*
X99169657Y-90128570D02*
X99207752Y-90147618D01*
X99207752Y-90147618D02*
X99226800Y-90166665D01*
X99226800Y-90166665D02*
X99245847Y-90204761D01*
X99245847Y-90204761D02*
X99245847Y-90280951D01*
X99245847Y-90280951D02*
X99226800Y-90319046D01*
X99245847Y-89899999D02*
X99226800Y-89938094D01*
X99226800Y-89938094D02*
X99188704Y-89957141D01*
X99188704Y-89957141D02*
X98845847Y-89957141D01*
X99226800Y-89595236D02*
X99245847Y-89633332D01*
X99245847Y-89633332D02*
X99245847Y-89709522D01*
X99245847Y-89709522D02*
X99226800Y-89747617D01*
X99226800Y-89747617D02*
X99188704Y-89766665D01*
X99188704Y-89766665D02*
X99036323Y-89766665D01*
X99036323Y-89766665D02*
X98998228Y-89747617D01*
X98998228Y-89747617D02*
X98979180Y-89709522D01*
X98979180Y-89709522D02*
X98979180Y-89633332D01*
X98979180Y-89633332D02*
X98998228Y-89595236D01*
X98998228Y-89595236D02*
X99036323Y-89576189D01*
X99036323Y-89576189D02*
X99074419Y-89576189D01*
X99074419Y-89576189D02*
X99112514Y-89766665D01*
X101827847Y-90814284D02*
X101637371Y-90947617D01*
X101827847Y-91042855D02*
X101427847Y-91042855D01*
X101427847Y-91042855D02*
X101427847Y-90890474D01*
X101427847Y-90890474D02*
X101446895Y-90852379D01*
X101446895Y-90852379D02*
X101465942Y-90833332D01*
X101465942Y-90833332D02*
X101504038Y-90814284D01*
X101504038Y-90814284D02*
X101561180Y-90814284D01*
X101561180Y-90814284D02*
X101599276Y-90833332D01*
X101599276Y-90833332D02*
X101618323Y-90852379D01*
X101618323Y-90852379D02*
X101637371Y-90890474D01*
X101637371Y-90890474D02*
X101637371Y-91042855D01*
X101808800Y-90490474D02*
X101827847Y-90528570D01*
X101827847Y-90528570D02*
X101827847Y-90604760D01*
X101827847Y-90604760D02*
X101808800Y-90642855D01*
X101808800Y-90642855D02*
X101770704Y-90661903D01*
X101770704Y-90661903D02*
X101618323Y-90661903D01*
X101618323Y-90661903D02*
X101580228Y-90642855D01*
X101580228Y-90642855D02*
X101561180Y-90604760D01*
X101561180Y-90604760D02*
X101561180Y-90528570D01*
X101561180Y-90528570D02*
X101580228Y-90490474D01*
X101580228Y-90490474D02*
X101618323Y-90471427D01*
X101618323Y-90471427D02*
X101656419Y-90471427D01*
X101656419Y-90471427D02*
X101694514Y-90661903D01*
X101808800Y-90319046D02*
X101827847Y-90280951D01*
X101827847Y-90280951D02*
X101827847Y-90204760D01*
X101827847Y-90204760D02*
X101808800Y-90166665D01*
X101808800Y-90166665D02*
X101770704Y-90147617D01*
X101770704Y-90147617D02*
X101751657Y-90147617D01*
X101751657Y-90147617D02*
X101713561Y-90166665D01*
X101713561Y-90166665D02*
X101694514Y-90204760D01*
X101694514Y-90204760D02*
X101694514Y-90261903D01*
X101694514Y-90261903D02*
X101675466Y-90299998D01*
X101675466Y-90299998D02*
X101637371Y-90319046D01*
X101637371Y-90319046D02*
X101618323Y-90319046D01*
X101618323Y-90319046D02*
X101580228Y-90299998D01*
X101580228Y-90299998D02*
X101561180Y-90261903D01*
X101561180Y-90261903D02*
X101561180Y-90204760D01*
X101561180Y-90204760D02*
X101580228Y-90166665D01*
X101808800Y-89823807D02*
X101827847Y-89861903D01*
X101827847Y-89861903D02*
X101827847Y-89938093D01*
X101827847Y-89938093D02*
X101808800Y-89976188D01*
X101808800Y-89976188D02*
X101770704Y-89995236D01*
X101770704Y-89995236D02*
X101618323Y-89995236D01*
X101618323Y-89995236D02*
X101580228Y-89976188D01*
X101580228Y-89976188D02*
X101561180Y-89938093D01*
X101561180Y-89938093D02*
X101561180Y-89861903D01*
X101561180Y-89861903D02*
X101580228Y-89823807D01*
X101580228Y-89823807D02*
X101618323Y-89804760D01*
X101618323Y-89804760D02*
X101656419Y-89804760D01*
X101656419Y-89804760D02*
X101694514Y-89995236D01*
X101561180Y-89690474D02*
X101561180Y-89538093D01*
X101427847Y-89633331D02*
X101770704Y-89633331D01*
X101770704Y-89633331D02*
X101808800Y-89614284D01*
X101808800Y-89614284D02*
X101827847Y-89576189D01*
X101827847Y-89576189D02*
X101827847Y-89538093D01*
X117509524Y-68715847D02*
X117757143Y-68715847D01*
X117757143Y-68715847D02*
X117623810Y-68868228D01*
X117623810Y-68868228D02*
X117680953Y-68868228D01*
X117680953Y-68868228D02*
X117719048Y-68887276D01*
X117719048Y-68887276D02*
X117738096Y-68906323D01*
X117738096Y-68906323D02*
X117757143Y-68944419D01*
X117757143Y-68944419D02*
X117757143Y-69039657D01*
X117757143Y-69039657D02*
X117738096Y-69077752D01*
X117738096Y-69077752D02*
X117719048Y-69096800D01*
X117719048Y-69096800D02*
X117680953Y-69115847D01*
X117680953Y-69115847D02*
X117566667Y-69115847D01*
X117566667Y-69115847D02*
X117528572Y-69096800D01*
X117528572Y-69096800D02*
X117509524Y-69077752D01*
X117928572Y-69077752D02*
X117947619Y-69096800D01*
X117947619Y-69096800D02*
X117928572Y-69115847D01*
X117928572Y-69115847D02*
X117909524Y-69096800D01*
X117909524Y-69096800D02*
X117928572Y-69077752D01*
X117928572Y-69077752D02*
X117928572Y-69115847D01*
X118080952Y-68715847D02*
X118328571Y-68715847D01*
X118328571Y-68715847D02*
X118195238Y-68868228D01*
X118195238Y-68868228D02*
X118252381Y-68868228D01*
X118252381Y-68868228D02*
X118290476Y-68887276D01*
X118290476Y-68887276D02*
X118309524Y-68906323D01*
X118309524Y-68906323D02*
X118328571Y-68944419D01*
X118328571Y-68944419D02*
X118328571Y-69039657D01*
X118328571Y-69039657D02*
X118309524Y-69077752D01*
X118309524Y-69077752D02*
X118290476Y-69096800D01*
X118290476Y-69096800D02*
X118252381Y-69115847D01*
X118252381Y-69115847D02*
X118138095Y-69115847D01*
X118138095Y-69115847D02*
X118100000Y-69096800D01*
X118100000Y-69096800D02*
X118080952Y-69077752D01*
X118442857Y-68715847D02*
X118576190Y-69115847D01*
X118576190Y-69115847D02*
X118709523Y-68715847D01*
X106602381Y-69115847D02*
X106373810Y-69115847D01*
X106488096Y-69115847D02*
X106488096Y-68715847D01*
X106488096Y-68715847D02*
X106450000Y-68772990D01*
X106450000Y-68772990D02*
X106411905Y-68811085D01*
X106411905Y-68811085D02*
X106373810Y-68830133D01*
X106754762Y-68753942D02*
X106773810Y-68734895D01*
X106773810Y-68734895D02*
X106811905Y-68715847D01*
X106811905Y-68715847D02*
X106907143Y-68715847D01*
X106907143Y-68715847D02*
X106945238Y-68734895D01*
X106945238Y-68734895D02*
X106964286Y-68753942D01*
X106964286Y-68753942D02*
X106983333Y-68792038D01*
X106983333Y-68792038D02*
X106983333Y-68830133D01*
X106983333Y-68830133D02*
X106964286Y-68887276D01*
X106964286Y-68887276D02*
X106735714Y-69115847D01*
X106735714Y-69115847D02*
X106983333Y-69115847D01*
X107097619Y-68715847D02*
X107230952Y-69115847D01*
X107230952Y-69115847D02*
X107364285Y-68715847D01*
X109358094Y-90965847D02*
X109358094Y-90565847D01*
X109358094Y-90565847D02*
X109510475Y-90565847D01*
X109510475Y-90565847D02*
X109548570Y-90584895D01*
X109548570Y-90584895D02*
X109567617Y-90603942D01*
X109567617Y-90603942D02*
X109586665Y-90642038D01*
X109586665Y-90642038D02*
X109586665Y-90699180D01*
X109586665Y-90699180D02*
X109567617Y-90737276D01*
X109567617Y-90737276D02*
X109548570Y-90756323D01*
X109548570Y-90756323D02*
X109510475Y-90775371D01*
X109510475Y-90775371D02*
X109358094Y-90775371D01*
X109758094Y-90965847D02*
X109758094Y-90565847D01*
X109758094Y-90565847D02*
X109853332Y-90565847D01*
X109853332Y-90565847D02*
X109910475Y-90584895D01*
X109910475Y-90584895D02*
X109948570Y-90622990D01*
X109948570Y-90622990D02*
X109967617Y-90661085D01*
X109967617Y-90661085D02*
X109986665Y-90737276D01*
X109986665Y-90737276D02*
X109986665Y-90794419D01*
X109986665Y-90794419D02*
X109967617Y-90870609D01*
X109967617Y-90870609D02*
X109948570Y-90908704D01*
X109948570Y-90908704D02*
X109910475Y-90946800D01*
X109910475Y-90946800D02*
X109853332Y-90965847D01*
X109853332Y-90965847D02*
X109758094Y-90965847D01*
X110158094Y-90965847D02*
X110158094Y-90565847D01*
X110158094Y-90565847D02*
X110291427Y-90851561D01*
X110291427Y-90851561D02*
X110424760Y-90565847D01*
X110424760Y-90565847D02*
X110424760Y-90965847D01*
X110900951Y-90946800D02*
X110958094Y-90965847D01*
X110958094Y-90965847D02*
X111053332Y-90965847D01*
X111053332Y-90965847D02*
X111091427Y-90946800D01*
X111091427Y-90946800D02*
X111110475Y-90927752D01*
X111110475Y-90927752D02*
X111129522Y-90889657D01*
X111129522Y-90889657D02*
X111129522Y-90851561D01*
X111129522Y-90851561D02*
X111110475Y-90813466D01*
X111110475Y-90813466D02*
X111091427Y-90794419D01*
X111091427Y-90794419D02*
X111053332Y-90775371D01*
X111053332Y-90775371D02*
X110977141Y-90756323D01*
X110977141Y-90756323D02*
X110939046Y-90737276D01*
X110939046Y-90737276D02*
X110919999Y-90718228D01*
X110919999Y-90718228D02*
X110900951Y-90680133D01*
X110900951Y-90680133D02*
X110900951Y-90642038D01*
X110900951Y-90642038D02*
X110919999Y-90603942D01*
X110919999Y-90603942D02*
X110939046Y-90584895D01*
X110939046Y-90584895D02*
X110977141Y-90565847D01*
X110977141Y-90565847D02*
X111072380Y-90565847D01*
X111072380Y-90565847D02*
X111129522Y-90584895D01*
X111300951Y-90965847D02*
X111300951Y-90699180D01*
X111300951Y-90565847D02*
X111281903Y-90584895D01*
X111281903Y-90584895D02*
X111300951Y-90603942D01*
X111300951Y-90603942D02*
X111319998Y-90584895D01*
X111319998Y-90584895D02*
X111300951Y-90565847D01*
X111300951Y-90565847D02*
X111300951Y-90603942D01*
X111491427Y-90699180D02*
X111491427Y-90965847D01*
X111491427Y-90737276D02*
X111510474Y-90718228D01*
X111510474Y-90718228D02*
X111548569Y-90699180D01*
X111548569Y-90699180D02*
X111605712Y-90699180D01*
X111605712Y-90699180D02*
X111643808Y-90718228D01*
X111643808Y-90718228D02*
X111662855Y-90756323D01*
X111662855Y-90756323D02*
X111662855Y-90965847D01*
X112024760Y-90699180D02*
X112024760Y-91022990D01*
X112024760Y-91022990D02*
X112005713Y-91061085D01*
X112005713Y-91061085D02*
X111986665Y-91080133D01*
X111986665Y-91080133D02*
X111948570Y-91099180D01*
X111948570Y-91099180D02*
X111891427Y-91099180D01*
X111891427Y-91099180D02*
X111853332Y-91080133D01*
X112024760Y-90946800D02*
X111986665Y-90965847D01*
X111986665Y-90965847D02*
X111910474Y-90965847D01*
X111910474Y-90965847D02*
X111872379Y-90946800D01*
X111872379Y-90946800D02*
X111853332Y-90927752D01*
X111853332Y-90927752D02*
X111834284Y-90889657D01*
X111834284Y-90889657D02*
X111834284Y-90775371D01*
X111834284Y-90775371D02*
X111853332Y-90737276D01*
X111853332Y-90737276D02*
X111872379Y-90718228D01*
X111872379Y-90718228D02*
X111910474Y-90699180D01*
X111910474Y-90699180D02*
X111986665Y-90699180D01*
X111986665Y-90699180D02*
X112024760Y-90718228D01*
X112272379Y-90965847D02*
X112234284Y-90946800D01*
X112234284Y-90946800D02*
X112215237Y-90908704D01*
X112215237Y-90908704D02*
X112215237Y-90565847D01*
X112577142Y-90946800D02*
X112539046Y-90965847D01*
X112539046Y-90965847D02*
X112462856Y-90965847D01*
X112462856Y-90965847D02*
X112424761Y-90946800D01*
X112424761Y-90946800D02*
X112405713Y-90908704D01*
X112405713Y-90908704D02*
X112405713Y-90756323D01*
X112405713Y-90756323D02*
X112424761Y-90718228D01*
X112424761Y-90718228D02*
X112462856Y-90699180D01*
X112462856Y-90699180D02*
X112539046Y-90699180D01*
X112539046Y-90699180D02*
X112577142Y-90718228D01*
X112577142Y-90718228D02*
X112596189Y-90756323D01*
X112596189Y-90756323D02*
X112596189Y-90794419D01*
X112596189Y-90794419D02*
X112405713Y-90832514D01*
X113300951Y-90927752D02*
X113281903Y-90946800D01*
X113281903Y-90946800D02*
X113224761Y-90965847D01*
X113224761Y-90965847D02*
X113186665Y-90965847D01*
X113186665Y-90965847D02*
X113129522Y-90946800D01*
X113129522Y-90946800D02*
X113091427Y-90908704D01*
X113091427Y-90908704D02*
X113072380Y-90870609D01*
X113072380Y-90870609D02*
X113053332Y-90794419D01*
X113053332Y-90794419D02*
X113053332Y-90737276D01*
X113053332Y-90737276D02*
X113072380Y-90661085D01*
X113072380Y-90661085D02*
X113091427Y-90622990D01*
X113091427Y-90622990D02*
X113129522Y-90584895D01*
X113129522Y-90584895D02*
X113186665Y-90565847D01*
X113186665Y-90565847D02*
X113224761Y-90565847D01*
X113224761Y-90565847D02*
X113281903Y-90584895D01*
X113281903Y-90584895D02*
X113300951Y-90603942D01*
X113472380Y-90965847D02*
X113472380Y-90565847D01*
X113643808Y-90965847D02*
X113643808Y-90756323D01*
X113643808Y-90756323D02*
X113624761Y-90718228D01*
X113624761Y-90718228D02*
X113586665Y-90699180D01*
X113586665Y-90699180D02*
X113529522Y-90699180D01*
X113529522Y-90699180D02*
X113491427Y-90718228D01*
X113491427Y-90718228D02*
X113472380Y-90737276D01*
X114005713Y-90965847D02*
X114005713Y-90756323D01*
X114005713Y-90756323D02*
X113986666Y-90718228D01*
X113986666Y-90718228D02*
X113948570Y-90699180D01*
X113948570Y-90699180D02*
X113872380Y-90699180D01*
X113872380Y-90699180D02*
X113834285Y-90718228D01*
X114005713Y-90946800D02*
X113967618Y-90965847D01*
X113967618Y-90965847D02*
X113872380Y-90965847D01*
X113872380Y-90965847D02*
X113834285Y-90946800D01*
X113834285Y-90946800D02*
X113815237Y-90908704D01*
X113815237Y-90908704D02*
X113815237Y-90870609D01*
X113815237Y-90870609D02*
X113834285Y-90832514D01*
X113834285Y-90832514D02*
X113872380Y-90813466D01*
X113872380Y-90813466D02*
X113967618Y-90813466D01*
X113967618Y-90813466D02*
X114005713Y-90794419D01*
X114196190Y-90699180D02*
X114196190Y-90965847D01*
X114196190Y-90737276D02*
X114215237Y-90718228D01*
X114215237Y-90718228D02*
X114253332Y-90699180D01*
X114253332Y-90699180D02*
X114310475Y-90699180D01*
X114310475Y-90699180D02*
X114348571Y-90718228D01*
X114348571Y-90718228D02*
X114367618Y-90756323D01*
X114367618Y-90756323D02*
X114367618Y-90965847D01*
X114558095Y-90699180D02*
X114558095Y-90965847D01*
X114558095Y-90737276D02*
X114577142Y-90718228D01*
X114577142Y-90718228D02*
X114615237Y-90699180D01*
X114615237Y-90699180D02*
X114672380Y-90699180D01*
X114672380Y-90699180D02*
X114710476Y-90718228D01*
X114710476Y-90718228D02*
X114729523Y-90756323D01*
X114729523Y-90756323D02*
X114729523Y-90965847D01*
X115072381Y-90946800D02*
X115034285Y-90965847D01*
X115034285Y-90965847D02*
X114958095Y-90965847D01*
X114958095Y-90965847D02*
X114920000Y-90946800D01*
X114920000Y-90946800D02*
X114900952Y-90908704D01*
X114900952Y-90908704D02*
X114900952Y-90756323D01*
X114900952Y-90756323D02*
X114920000Y-90718228D01*
X114920000Y-90718228D02*
X114958095Y-90699180D01*
X114958095Y-90699180D02*
X115034285Y-90699180D01*
X115034285Y-90699180D02*
X115072381Y-90718228D01*
X115072381Y-90718228D02*
X115091428Y-90756323D01*
X115091428Y-90756323D02*
X115091428Y-90794419D01*
X115091428Y-90794419D02*
X114900952Y-90832514D01*
X115319999Y-90965847D02*
X115281904Y-90946800D01*
X115281904Y-90946800D02*
X115262857Y-90908704D01*
X115262857Y-90908704D02*
X115262857Y-90565847D01*
X104158323Y-90776189D02*
X104158323Y-90909522D01*
X104367847Y-90909522D02*
X103967847Y-90909522D01*
X103967847Y-90909522D02*
X103967847Y-90719046D01*
X104367847Y-90395237D02*
X104158323Y-90395237D01*
X104158323Y-90395237D02*
X104120228Y-90414284D01*
X104120228Y-90414284D02*
X104101180Y-90452380D01*
X104101180Y-90452380D02*
X104101180Y-90528570D01*
X104101180Y-90528570D02*
X104120228Y-90566665D01*
X104348800Y-90395237D02*
X104367847Y-90433332D01*
X104367847Y-90433332D02*
X104367847Y-90528570D01*
X104367847Y-90528570D02*
X104348800Y-90566665D01*
X104348800Y-90566665D02*
X104310704Y-90585713D01*
X104310704Y-90585713D02*
X104272609Y-90585713D01*
X104272609Y-90585713D02*
X104234514Y-90566665D01*
X104234514Y-90566665D02*
X104215466Y-90528570D01*
X104215466Y-90528570D02*
X104215466Y-90433332D01*
X104215466Y-90433332D02*
X104196419Y-90395237D01*
X104101180Y-90033332D02*
X104367847Y-90033332D01*
X104101180Y-90204760D02*
X104310704Y-90204760D01*
X104310704Y-90204760D02*
X104348800Y-90185713D01*
X104348800Y-90185713D02*
X104367847Y-90147618D01*
X104367847Y-90147618D02*
X104367847Y-90090475D01*
X104367847Y-90090475D02*
X104348800Y-90052379D01*
X104348800Y-90052379D02*
X104329752Y-90033332D01*
X104367847Y-89785713D02*
X104348800Y-89823808D01*
X104348800Y-89823808D02*
X104310704Y-89842855D01*
X104310704Y-89842855D02*
X103967847Y-89842855D01*
X104101180Y-89690474D02*
X104101180Y-89538093D01*
X103967847Y-89633331D02*
X104310704Y-89633331D01*
X104310704Y-89633331D02*
X104348800Y-89614284D01*
X104348800Y-89614284D02*
X104367847Y-89576189D01*
X104367847Y-89576189D02*
X104367847Y-89538093D01*
X110959524Y-68715847D02*
X111207143Y-68715847D01*
X111207143Y-68715847D02*
X111073810Y-68868228D01*
X111073810Y-68868228D02*
X111130953Y-68868228D01*
X111130953Y-68868228D02*
X111169048Y-68887276D01*
X111169048Y-68887276D02*
X111188096Y-68906323D01*
X111188096Y-68906323D02*
X111207143Y-68944419D01*
X111207143Y-68944419D02*
X111207143Y-69039657D01*
X111207143Y-69039657D02*
X111188096Y-69077752D01*
X111188096Y-69077752D02*
X111169048Y-69096800D01*
X111169048Y-69096800D02*
X111130953Y-69115847D01*
X111130953Y-69115847D02*
X111016667Y-69115847D01*
X111016667Y-69115847D02*
X110978572Y-69096800D01*
X110978572Y-69096800D02*
X110959524Y-69077752D01*
X111378572Y-69077752D02*
X111397619Y-69096800D01*
X111397619Y-69096800D02*
X111378572Y-69115847D01*
X111378572Y-69115847D02*
X111359524Y-69096800D01*
X111359524Y-69096800D02*
X111378572Y-69077752D01*
X111378572Y-69077752D02*
X111378572Y-69115847D01*
X111530952Y-68715847D02*
X111778571Y-68715847D01*
X111778571Y-68715847D02*
X111645238Y-68868228D01*
X111645238Y-68868228D02*
X111702381Y-68868228D01*
X111702381Y-68868228D02*
X111740476Y-68887276D01*
X111740476Y-68887276D02*
X111759524Y-68906323D01*
X111759524Y-68906323D02*
X111778571Y-68944419D01*
X111778571Y-68944419D02*
X111778571Y-69039657D01*
X111778571Y-69039657D02*
X111759524Y-69077752D01*
X111759524Y-69077752D02*
X111740476Y-69096800D01*
X111740476Y-69096800D02*
X111702381Y-69115847D01*
X111702381Y-69115847D02*
X111588095Y-69115847D01*
X111588095Y-69115847D02*
X111550000Y-69096800D01*
X111550000Y-69096800D02*
X111530952Y-69077752D01*
X111892857Y-68715847D02*
X112026190Y-69115847D01*
X112026190Y-69115847D02*
X112159523Y-68715847D01*
X106869752Y-89957141D02*
X106888800Y-89976189D01*
X106888800Y-89976189D02*
X106907847Y-90033331D01*
X106907847Y-90033331D02*
X106907847Y-90071427D01*
X106907847Y-90071427D02*
X106888800Y-90128570D01*
X106888800Y-90128570D02*
X106850704Y-90166665D01*
X106850704Y-90166665D02*
X106812609Y-90185712D01*
X106812609Y-90185712D02*
X106736419Y-90204760D01*
X106736419Y-90204760D02*
X106679276Y-90204760D01*
X106679276Y-90204760D02*
X106603085Y-90185712D01*
X106603085Y-90185712D02*
X106564990Y-90166665D01*
X106564990Y-90166665D02*
X106526895Y-90128570D01*
X106526895Y-90128570D02*
X106507847Y-90071427D01*
X106507847Y-90071427D02*
X106507847Y-90033331D01*
X106507847Y-90033331D02*
X106526895Y-89976189D01*
X106526895Y-89976189D02*
X106545942Y-89957141D01*
X106888800Y-89804760D02*
X106907847Y-89747617D01*
X106907847Y-89747617D02*
X106907847Y-89652379D01*
X106907847Y-89652379D02*
X106888800Y-89614284D01*
X106888800Y-89614284D02*
X106869752Y-89595236D01*
X106869752Y-89595236D02*
X106831657Y-89576189D01*
X106831657Y-89576189D02*
X106793561Y-89576189D01*
X106793561Y-89576189D02*
X106755466Y-89595236D01*
X106755466Y-89595236D02*
X106736419Y-89614284D01*
X106736419Y-89614284D02*
X106717371Y-89652379D01*
X106717371Y-89652379D02*
X106698323Y-89728570D01*
X106698323Y-89728570D02*
X106679276Y-89766665D01*
X106679276Y-89766665D02*
X106660228Y-89785712D01*
X106660228Y-89785712D02*
X106622133Y-89804760D01*
X106622133Y-89804760D02*
X106584038Y-89804760D01*
X106584038Y-89804760D02*
X106545942Y-89785712D01*
X106545942Y-89785712D02*
X106526895Y-89766665D01*
X106526895Y-89766665D02*
X106507847Y-89728570D01*
X106507847Y-89728570D02*
X106507847Y-89633331D01*
X106507847Y-89633331D02*
X106526895Y-89576189D01*
X96277752Y-85173334D02*
X96296800Y-85192382D01*
X96296800Y-85192382D02*
X96315847Y-85249524D01*
X96315847Y-85249524D02*
X96315847Y-85287620D01*
X96315847Y-85287620D02*
X96296800Y-85344763D01*
X96296800Y-85344763D02*
X96258704Y-85382858D01*
X96258704Y-85382858D02*
X96220609Y-85401905D01*
X96220609Y-85401905D02*
X96144419Y-85420953D01*
X96144419Y-85420953D02*
X96087276Y-85420953D01*
X96087276Y-85420953D02*
X96011085Y-85401905D01*
X96011085Y-85401905D02*
X95972990Y-85382858D01*
X95972990Y-85382858D02*
X95934895Y-85344763D01*
X95934895Y-85344763D02*
X95915847Y-85287620D01*
X95915847Y-85287620D02*
X95915847Y-85249524D01*
X95915847Y-85249524D02*
X95934895Y-85192382D01*
X95934895Y-85192382D02*
X95953942Y-85173334D01*
X96315847Y-85001905D02*
X95915847Y-85001905D01*
X96315847Y-84830477D02*
X96106323Y-84830477D01*
X96106323Y-84830477D02*
X96068228Y-84849524D01*
X96068228Y-84849524D02*
X96049180Y-84887620D01*
X96049180Y-84887620D02*
X96049180Y-84944763D01*
X96049180Y-84944763D02*
X96068228Y-84982858D01*
X96068228Y-84982858D02*
X96087276Y-85001905D01*
X96315847Y-84468572D02*
X96106323Y-84468572D01*
X96106323Y-84468572D02*
X96068228Y-84487619D01*
X96068228Y-84487619D02*
X96049180Y-84525715D01*
X96049180Y-84525715D02*
X96049180Y-84601905D01*
X96049180Y-84601905D02*
X96068228Y-84640000D01*
X96296800Y-84468572D02*
X96315847Y-84506667D01*
X96315847Y-84506667D02*
X96315847Y-84601905D01*
X96315847Y-84601905D02*
X96296800Y-84640000D01*
X96296800Y-84640000D02*
X96258704Y-84659048D01*
X96258704Y-84659048D02*
X96220609Y-84659048D01*
X96220609Y-84659048D02*
X96182514Y-84640000D01*
X96182514Y-84640000D02*
X96163466Y-84601905D01*
X96163466Y-84601905D02*
X96163466Y-84506667D01*
X96163466Y-84506667D02*
X96144419Y-84468572D01*
X96049180Y-84278095D02*
X96315847Y-84278095D01*
X96087276Y-84278095D02*
X96068228Y-84259048D01*
X96068228Y-84259048D02*
X96049180Y-84220953D01*
X96049180Y-84220953D02*
X96049180Y-84163810D01*
X96049180Y-84163810D02*
X96068228Y-84125714D01*
X96068228Y-84125714D02*
X96106323Y-84106667D01*
X96106323Y-84106667D02*
X96315847Y-84106667D01*
X96049180Y-83916190D02*
X96315847Y-83916190D01*
X96087276Y-83916190D02*
X96068228Y-83897143D01*
X96068228Y-83897143D02*
X96049180Y-83859048D01*
X96049180Y-83859048D02*
X96049180Y-83801905D01*
X96049180Y-83801905D02*
X96068228Y-83763809D01*
X96068228Y-83763809D02*
X96106323Y-83744762D01*
X96106323Y-83744762D02*
X96315847Y-83744762D01*
X96296800Y-83401904D02*
X96315847Y-83440000D01*
X96315847Y-83440000D02*
X96315847Y-83516190D01*
X96315847Y-83516190D02*
X96296800Y-83554285D01*
X96296800Y-83554285D02*
X96258704Y-83573333D01*
X96258704Y-83573333D02*
X96106323Y-83573333D01*
X96106323Y-83573333D02*
X96068228Y-83554285D01*
X96068228Y-83554285D02*
X96049180Y-83516190D01*
X96049180Y-83516190D02*
X96049180Y-83440000D01*
X96049180Y-83440000D02*
X96068228Y-83401904D01*
X96068228Y-83401904D02*
X96106323Y-83382857D01*
X96106323Y-83382857D02*
X96144419Y-83382857D01*
X96144419Y-83382857D02*
X96182514Y-83573333D01*
X96315847Y-83154286D02*
X96296800Y-83192381D01*
X96296800Y-83192381D02*
X96258704Y-83211428D01*
X96258704Y-83211428D02*
X95915847Y-83211428D01*
X95915847Y-82620952D02*
X95915847Y-82544761D01*
X95915847Y-82544761D02*
X95934895Y-82506666D01*
X95934895Y-82506666D02*
X95972990Y-82468571D01*
X95972990Y-82468571D02*
X96049180Y-82449523D01*
X96049180Y-82449523D02*
X96182514Y-82449523D01*
X96182514Y-82449523D02*
X96258704Y-82468571D01*
X96258704Y-82468571D02*
X96296800Y-82506666D01*
X96296800Y-82506666D02*
X96315847Y-82544761D01*
X96315847Y-82544761D02*
X96315847Y-82620952D01*
X96315847Y-82620952D02*
X96296800Y-82659047D01*
X96296800Y-82659047D02*
X96258704Y-82697142D01*
X96258704Y-82697142D02*
X96182514Y-82716190D01*
X96182514Y-82716190D02*
X96049180Y-82716190D01*
X96049180Y-82716190D02*
X95972990Y-82697142D01*
X95972990Y-82697142D02*
X95934895Y-82659047D01*
X95934895Y-82659047D02*
X95915847Y-82620952D01*
X96049180Y-82106666D02*
X96315847Y-82106666D01*
X96049180Y-82278094D02*
X96258704Y-82278094D01*
X96258704Y-82278094D02*
X96296800Y-82259047D01*
X96296800Y-82259047D02*
X96315847Y-82220952D01*
X96315847Y-82220952D02*
X96315847Y-82163809D01*
X96315847Y-82163809D02*
X96296800Y-82125713D01*
X96296800Y-82125713D02*
X96277752Y-82106666D01*
X96049180Y-81973332D02*
X96049180Y-81820951D01*
X95915847Y-81916189D02*
X96258704Y-81916189D01*
X96258704Y-81916189D02*
X96296800Y-81897142D01*
X96296800Y-81897142D02*
X96315847Y-81859047D01*
X96315847Y-81859047D02*
X96315847Y-81820951D01*
X113825237Y-68734895D02*
X113787142Y-68715847D01*
X113787142Y-68715847D02*
X113729999Y-68715847D01*
X113729999Y-68715847D02*
X113672856Y-68734895D01*
X113672856Y-68734895D02*
X113634761Y-68772990D01*
X113634761Y-68772990D02*
X113615714Y-68811085D01*
X113615714Y-68811085D02*
X113596666Y-68887276D01*
X113596666Y-68887276D02*
X113596666Y-68944419D01*
X113596666Y-68944419D02*
X113615714Y-69020609D01*
X113615714Y-69020609D02*
X113634761Y-69058704D01*
X113634761Y-69058704D02*
X113672856Y-69096800D01*
X113672856Y-69096800D02*
X113729999Y-69115847D01*
X113729999Y-69115847D02*
X113768095Y-69115847D01*
X113768095Y-69115847D02*
X113825237Y-69096800D01*
X113825237Y-69096800D02*
X113844285Y-69077752D01*
X113844285Y-69077752D02*
X113844285Y-68944419D01*
X113844285Y-68944419D02*
X113768095Y-68944419D01*
X114015714Y-69115847D02*
X114015714Y-68715847D01*
X114015714Y-68715847D02*
X114244285Y-69115847D01*
X114244285Y-69115847D02*
X114244285Y-68715847D01*
X114434762Y-69115847D02*
X114434762Y-68715847D01*
X114434762Y-68715847D02*
X114530000Y-68715847D01*
X114530000Y-68715847D02*
X114587143Y-68734895D01*
X114587143Y-68734895D02*
X114625238Y-68772990D01*
X114625238Y-68772990D02*
X114644285Y-68811085D01*
X114644285Y-68811085D02*
X114663333Y-68887276D01*
X114663333Y-68887276D02*
X114663333Y-68944419D01*
X114663333Y-68944419D02*
X114644285Y-69020609D01*
X114644285Y-69020609D02*
X114625238Y-69058704D01*
X114625238Y-69058704D02*
X114587143Y-69096800D01*
X114587143Y-69096800D02*
X114530000Y-69115847D01*
X114530000Y-69115847D02*
X114434762Y-69115847D01*
X120975237Y-68734895D02*
X120937142Y-68715847D01*
X120937142Y-68715847D02*
X120879999Y-68715847D01*
X120879999Y-68715847D02*
X120822856Y-68734895D01*
X120822856Y-68734895D02*
X120784761Y-68772990D01*
X120784761Y-68772990D02*
X120765714Y-68811085D01*
X120765714Y-68811085D02*
X120746666Y-68887276D01*
X120746666Y-68887276D02*
X120746666Y-68944419D01*
X120746666Y-68944419D02*
X120765714Y-69020609D01*
X120765714Y-69020609D02*
X120784761Y-69058704D01*
X120784761Y-69058704D02*
X120822856Y-69096800D01*
X120822856Y-69096800D02*
X120879999Y-69115847D01*
X120879999Y-69115847D02*
X120918095Y-69115847D01*
X120918095Y-69115847D02*
X120975237Y-69096800D01*
X120975237Y-69096800D02*
X120994285Y-69077752D01*
X120994285Y-69077752D02*
X120994285Y-68944419D01*
X120994285Y-68944419D02*
X120918095Y-68944419D01*
X121165714Y-69115847D02*
X121165714Y-68715847D01*
X121165714Y-68715847D02*
X121394285Y-69115847D01*
X121394285Y-69115847D02*
X121394285Y-68715847D01*
X121584762Y-69115847D02*
X121584762Y-68715847D01*
X121584762Y-68715847D02*
X121680000Y-68715847D01*
X121680000Y-68715847D02*
X121737143Y-68734895D01*
X121737143Y-68734895D02*
X121775238Y-68772990D01*
X121775238Y-68772990D02*
X121794285Y-68811085D01*
X121794285Y-68811085D02*
X121813333Y-68887276D01*
X121813333Y-68887276D02*
X121813333Y-68944419D01*
X121813333Y-68944419D02*
X121794285Y-69020609D01*
X121794285Y-69020609D02*
X121775238Y-69058704D01*
X121775238Y-69058704D02*
X121737143Y-69096800D01*
X121737143Y-69096800D02*
X121680000Y-69115847D01*
X121680000Y-69115847D02*
X121584762Y-69115847D01*
X103052380Y-76853728D02*
X103004761Y-76829919D01*
X103004761Y-76829919D02*
X102957142Y-76782300D01*
X102957142Y-76782300D02*
X102885714Y-76710871D01*
X102885714Y-76710871D02*
X102838095Y-76687061D01*
X102838095Y-76687061D02*
X102790476Y-76687061D01*
X102814285Y-76806109D02*
X102766666Y-76782300D01*
X102766666Y-76782300D02*
X102719047Y-76734680D01*
X102719047Y-76734680D02*
X102695238Y-76639442D01*
X102695238Y-76639442D02*
X102695238Y-76472776D01*
X102695238Y-76472776D02*
X102719047Y-76377538D01*
X102719047Y-76377538D02*
X102766666Y-76329919D01*
X102766666Y-76329919D02*
X102814285Y-76306109D01*
X102814285Y-76306109D02*
X102909523Y-76306109D01*
X102909523Y-76306109D02*
X102957142Y-76329919D01*
X102957142Y-76329919D02*
X103004761Y-76377538D01*
X103004761Y-76377538D02*
X103028571Y-76472776D01*
X103028571Y-76472776D02*
X103028571Y-76639442D01*
X103028571Y-76639442D02*
X103004761Y-76734680D01*
X103004761Y-76734680D02*
X102957142Y-76782300D01*
X102957142Y-76782300D02*
X102909523Y-76806109D01*
X102909523Y-76806109D02*
X102814285Y-76806109D01*
X103219048Y-76353728D02*
X103242857Y-76329919D01*
X103242857Y-76329919D02*
X103290476Y-76306109D01*
X103290476Y-76306109D02*
X103409524Y-76306109D01*
X103409524Y-76306109D02*
X103457143Y-76329919D01*
X103457143Y-76329919D02*
X103480952Y-76353728D01*
X103480952Y-76353728D02*
X103504762Y-76401347D01*
X103504762Y-76401347D02*
X103504762Y-76448966D01*
X103504762Y-76448966D02*
X103480952Y-76520395D01*
X103480952Y-76520395D02*
X103195238Y-76806109D01*
X103195238Y-76806109D02*
X103504762Y-76806109D01*
X115136666Y-80486109D02*
X114970000Y-80248014D01*
X114850952Y-80486109D02*
X114850952Y-79986109D01*
X114850952Y-79986109D02*
X115041428Y-79986109D01*
X115041428Y-79986109D02*
X115089047Y-80009919D01*
X115089047Y-80009919D02*
X115112857Y-80033728D01*
X115112857Y-80033728D02*
X115136666Y-80081347D01*
X115136666Y-80081347D02*
X115136666Y-80152776D01*
X115136666Y-80152776D02*
X115112857Y-80200395D01*
X115112857Y-80200395D02*
X115089047Y-80224204D01*
X115089047Y-80224204D02*
X115041428Y-80248014D01*
X115041428Y-80248014D02*
X114850952Y-80248014D01*
X115612857Y-80486109D02*
X115327143Y-80486109D01*
X115470000Y-80486109D02*
X115470000Y-79986109D01*
X115470000Y-79986109D02*
X115422381Y-80057538D01*
X115422381Y-80057538D02*
X115374762Y-80105157D01*
X115374762Y-80105157D02*
X115327143Y-80128966D01*
X103556109Y-79180952D02*
X103960871Y-79180952D01*
X103960871Y-79180952D02*
X104008490Y-79157142D01*
X104008490Y-79157142D02*
X104032300Y-79133333D01*
X104032300Y-79133333D02*
X104056109Y-79085714D01*
X104056109Y-79085714D02*
X104056109Y-78990476D01*
X104056109Y-78990476D02*
X104032300Y-78942857D01*
X104032300Y-78942857D02*
X104008490Y-78919047D01*
X104008490Y-78919047D02*
X103960871Y-78895238D01*
X103960871Y-78895238D02*
X103556109Y-78895238D01*
X103722776Y-78442856D02*
X104056109Y-78442856D01*
X103532300Y-78561904D02*
X103889442Y-78680951D01*
X103889442Y-78680951D02*
X103889442Y-78371428D01*
X112318490Y-73993333D02*
X112342300Y-74017142D01*
X112342300Y-74017142D02*
X112366109Y-74088571D01*
X112366109Y-74088571D02*
X112366109Y-74136190D01*
X112366109Y-74136190D02*
X112342300Y-74207618D01*
X112342300Y-74207618D02*
X112294680Y-74255237D01*
X112294680Y-74255237D02*
X112247061Y-74279047D01*
X112247061Y-74279047D02*
X112151823Y-74302856D01*
X112151823Y-74302856D02*
X112080395Y-74302856D01*
X112080395Y-74302856D02*
X111985157Y-74279047D01*
X111985157Y-74279047D02*
X111937538Y-74255237D01*
X111937538Y-74255237D02*
X111889919Y-74207618D01*
X111889919Y-74207618D02*
X111866109Y-74136190D01*
X111866109Y-74136190D02*
X111866109Y-74088571D01*
X111866109Y-74088571D02*
X111889919Y-74017142D01*
X111889919Y-74017142D02*
X111913728Y-73993333D01*
X112032776Y-73564761D02*
X112366109Y-73564761D01*
X111842300Y-73683809D02*
X112199442Y-73802856D01*
X112199442Y-73802856D02*
X112199442Y-73493333D01*
X116498490Y-73993333D02*
X116522300Y-74017142D01*
X116522300Y-74017142D02*
X116546109Y-74088571D01*
X116546109Y-74088571D02*
X116546109Y-74136190D01*
X116546109Y-74136190D02*
X116522300Y-74207618D01*
X116522300Y-74207618D02*
X116474680Y-74255237D01*
X116474680Y-74255237D02*
X116427061Y-74279047D01*
X116427061Y-74279047D02*
X116331823Y-74302856D01*
X116331823Y-74302856D02*
X116260395Y-74302856D01*
X116260395Y-74302856D02*
X116165157Y-74279047D01*
X116165157Y-74279047D02*
X116117538Y-74255237D01*
X116117538Y-74255237D02*
X116069919Y-74207618D01*
X116069919Y-74207618D02*
X116046109Y-74136190D01*
X116046109Y-74136190D02*
X116046109Y-74088571D01*
X116046109Y-74088571D02*
X116069919Y-74017142D01*
X116069919Y-74017142D02*
X116093728Y-73993333D01*
X116046109Y-73826666D02*
X116046109Y-73517142D01*
X116046109Y-73517142D02*
X116236585Y-73683809D01*
X116236585Y-73683809D02*
X116236585Y-73612380D01*
X116236585Y-73612380D02*
X116260395Y-73564761D01*
X116260395Y-73564761D02*
X116284204Y-73540952D01*
X116284204Y-73540952D02*
X116331823Y-73517142D01*
X116331823Y-73517142D02*
X116450871Y-73517142D01*
X116450871Y-73517142D02*
X116498490Y-73540952D01*
X116498490Y-73540952D02*
X116522300Y-73564761D01*
X116522300Y-73564761D02*
X116546109Y-73612380D01*
X116546109Y-73612380D02*
X116546109Y-73755237D01*
X116546109Y-73755237D02*
X116522300Y-73802856D01*
X116522300Y-73802856D02*
X116498490Y-73826666D01*
X107226666Y-85716109D02*
X107060000Y-85478014D01*
X106940952Y-85716109D02*
X106940952Y-85216109D01*
X106940952Y-85216109D02*
X107131428Y-85216109D01*
X107131428Y-85216109D02*
X107179047Y-85239919D01*
X107179047Y-85239919D02*
X107202857Y-85263728D01*
X107202857Y-85263728D02*
X107226666Y-85311347D01*
X107226666Y-85311347D02*
X107226666Y-85382776D01*
X107226666Y-85382776D02*
X107202857Y-85430395D01*
X107202857Y-85430395D02*
X107179047Y-85454204D01*
X107179047Y-85454204D02*
X107131428Y-85478014D01*
X107131428Y-85478014D02*
X106940952Y-85478014D01*
X107393333Y-85216109D02*
X107702857Y-85216109D01*
X107702857Y-85216109D02*
X107536190Y-85406585D01*
X107536190Y-85406585D02*
X107607619Y-85406585D01*
X107607619Y-85406585D02*
X107655238Y-85430395D01*
X107655238Y-85430395D02*
X107679047Y-85454204D01*
X107679047Y-85454204D02*
X107702857Y-85501823D01*
X107702857Y-85501823D02*
X107702857Y-85620871D01*
X107702857Y-85620871D02*
X107679047Y-85668490D01*
X107679047Y-85668490D02*
X107655238Y-85692300D01*
X107655238Y-85692300D02*
X107607619Y-85716109D01*
X107607619Y-85716109D02*
X107464762Y-85716109D01*
X107464762Y-85716109D02*
X107417143Y-85692300D01*
X107417143Y-85692300D02*
X107393333Y-85668490D01*
X115379047Y-86556109D02*
X115379047Y-86960871D01*
X115379047Y-86960871D02*
X115402857Y-87008490D01*
X115402857Y-87008490D02*
X115426666Y-87032300D01*
X115426666Y-87032300D02*
X115474285Y-87056109D01*
X115474285Y-87056109D02*
X115569523Y-87056109D01*
X115569523Y-87056109D02*
X115617142Y-87032300D01*
X115617142Y-87032300D02*
X115640952Y-87008490D01*
X115640952Y-87008490D02*
X115664761Y-86960871D01*
X115664761Y-86960871D02*
X115664761Y-86556109D01*
X115855238Y-86556109D02*
X116164762Y-86556109D01*
X116164762Y-86556109D02*
X115998095Y-86746585D01*
X115998095Y-86746585D02*
X116069524Y-86746585D01*
X116069524Y-86746585D02*
X116117143Y-86770395D01*
X116117143Y-86770395D02*
X116140952Y-86794204D01*
X116140952Y-86794204D02*
X116164762Y-86841823D01*
X116164762Y-86841823D02*
X116164762Y-86960871D01*
X116164762Y-86960871D02*
X116140952Y-87008490D01*
X116140952Y-87008490D02*
X116117143Y-87032300D01*
X116117143Y-87032300D02*
X116069524Y-87056109D01*
X116069524Y-87056109D02*
X115926667Y-87056109D01*
X115926667Y-87056109D02*
X115879048Y-87032300D01*
X115879048Y-87032300D02*
X115855238Y-87008490D01*
X101783728Y-79117619D02*
X101759919Y-79165238D01*
X101759919Y-79165238D02*
X101712300Y-79212857D01*
X101712300Y-79212857D02*
X101640871Y-79284285D01*
X101640871Y-79284285D02*
X101617061Y-79331904D01*
X101617061Y-79331904D02*
X101617061Y-79379523D01*
X101736109Y-79355714D02*
X101712300Y-79403333D01*
X101712300Y-79403333D02*
X101664680Y-79450952D01*
X101664680Y-79450952D02*
X101569442Y-79474761D01*
X101569442Y-79474761D02*
X101402776Y-79474761D01*
X101402776Y-79474761D02*
X101307538Y-79450952D01*
X101307538Y-79450952D02*
X101259919Y-79403333D01*
X101259919Y-79403333D02*
X101236109Y-79355714D01*
X101236109Y-79355714D02*
X101236109Y-79260476D01*
X101236109Y-79260476D02*
X101259919Y-79212857D01*
X101259919Y-79212857D02*
X101307538Y-79165238D01*
X101307538Y-79165238D02*
X101402776Y-79141428D01*
X101402776Y-79141428D02*
X101569442Y-79141428D01*
X101569442Y-79141428D02*
X101664680Y-79165238D01*
X101664680Y-79165238D02*
X101712300Y-79212857D01*
X101712300Y-79212857D02*
X101736109Y-79260476D01*
X101736109Y-79260476D02*
X101736109Y-79355714D01*
X101736109Y-78665237D02*
X101736109Y-78950951D01*
X101736109Y-78808094D02*
X101236109Y-78808094D01*
X101236109Y-78808094D02*
X101307538Y-78855713D01*
X101307538Y-78855713D02*
X101355157Y-78903332D01*
X101355157Y-78903332D02*
X101378966Y-78950951D01*
X119958490Y-79263333D02*
X119982300Y-79287142D01*
X119982300Y-79287142D02*
X120006109Y-79358571D01*
X120006109Y-79358571D02*
X120006109Y-79406190D01*
X120006109Y-79406190D02*
X119982300Y-79477618D01*
X119982300Y-79477618D02*
X119934680Y-79525237D01*
X119934680Y-79525237D02*
X119887061Y-79549047D01*
X119887061Y-79549047D02*
X119791823Y-79572856D01*
X119791823Y-79572856D02*
X119720395Y-79572856D01*
X119720395Y-79572856D02*
X119625157Y-79549047D01*
X119625157Y-79549047D02*
X119577538Y-79525237D01*
X119577538Y-79525237D02*
X119529919Y-79477618D01*
X119529919Y-79477618D02*
X119506109Y-79406190D01*
X119506109Y-79406190D02*
X119506109Y-79358571D01*
X119506109Y-79358571D02*
X119529919Y-79287142D01*
X119529919Y-79287142D02*
X119553728Y-79263333D01*
X119553728Y-79072856D02*
X119529919Y-79049047D01*
X119529919Y-79049047D02*
X119506109Y-79001428D01*
X119506109Y-79001428D02*
X119506109Y-78882380D01*
X119506109Y-78882380D02*
X119529919Y-78834761D01*
X119529919Y-78834761D02*
X119553728Y-78810952D01*
X119553728Y-78810952D02*
X119601347Y-78787142D01*
X119601347Y-78787142D02*
X119648966Y-78787142D01*
X119648966Y-78787142D02*
X119720395Y-78810952D01*
X119720395Y-78810952D02*
X120006109Y-79096666D01*
X120006109Y-79096666D02*
X120006109Y-78787142D01*
X124158490Y-79263333D02*
X124182300Y-79287142D01*
X124182300Y-79287142D02*
X124206109Y-79358571D01*
X124206109Y-79358571D02*
X124206109Y-79406190D01*
X124206109Y-79406190D02*
X124182300Y-79477618D01*
X124182300Y-79477618D02*
X124134680Y-79525237D01*
X124134680Y-79525237D02*
X124087061Y-79549047D01*
X124087061Y-79549047D02*
X123991823Y-79572856D01*
X123991823Y-79572856D02*
X123920395Y-79572856D01*
X123920395Y-79572856D02*
X123825157Y-79549047D01*
X123825157Y-79549047D02*
X123777538Y-79525237D01*
X123777538Y-79525237D02*
X123729919Y-79477618D01*
X123729919Y-79477618D02*
X123706109Y-79406190D01*
X123706109Y-79406190D02*
X123706109Y-79358571D01*
X123706109Y-79358571D02*
X123729919Y-79287142D01*
X123729919Y-79287142D02*
X123753728Y-79263333D01*
X124206109Y-78787142D02*
X124206109Y-79072856D01*
X124206109Y-78929999D02*
X123706109Y-78929999D01*
X123706109Y-78929999D02*
X123777538Y-78977618D01*
X123777538Y-78977618D02*
X123825157Y-79025237D01*
X123825157Y-79025237D02*
X123848966Y-79072856D01*
X123064047Y-71756109D02*
X123064047Y-72160871D01*
X123064047Y-72160871D02*
X123087857Y-72208490D01*
X123087857Y-72208490D02*
X123111666Y-72232300D01*
X123111666Y-72232300D02*
X123159285Y-72256109D01*
X123159285Y-72256109D02*
X123254523Y-72256109D01*
X123254523Y-72256109D02*
X123302142Y-72232300D01*
X123302142Y-72232300D02*
X123325952Y-72208490D01*
X123325952Y-72208490D02*
X123349761Y-72160871D01*
X123349761Y-72160871D02*
X123349761Y-71756109D01*
X123849762Y-72256109D02*
X123564048Y-72256109D01*
X123706905Y-72256109D02*
X123706905Y-71756109D01*
X123706905Y-71756109D02*
X123659286Y-71827538D01*
X123659286Y-71827538D02*
X123611667Y-71875157D01*
X123611667Y-71875157D02*
X123564048Y-71898966D01*
X120019047Y-91166109D02*
X120019047Y-91570871D01*
X120019047Y-91570871D02*
X120042857Y-91618490D01*
X120042857Y-91618490D02*
X120066666Y-91642300D01*
X120066666Y-91642300D02*
X120114285Y-91666109D01*
X120114285Y-91666109D02*
X120209523Y-91666109D01*
X120209523Y-91666109D02*
X120257142Y-91642300D01*
X120257142Y-91642300D02*
X120280952Y-91618490D01*
X120280952Y-91618490D02*
X120304761Y-91570871D01*
X120304761Y-91570871D02*
X120304761Y-91166109D01*
X120519048Y-91213728D02*
X120542857Y-91189919D01*
X120542857Y-91189919D02*
X120590476Y-91166109D01*
X120590476Y-91166109D02*
X120709524Y-91166109D01*
X120709524Y-91166109D02*
X120757143Y-91189919D01*
X120757143Y-91189919D02*
X120780952Y-91213728D01*
X120780952Y-91213728D02*
X120804762Y-91261347D01*
X120804762Y-91261347D02*
X120804762Y-91308966D01*
X120804762Y-91308966D02*
X120780952Y-91380395D01*
X120780952Y-91380395D02*
X120495238Y-91666109D01*
X120495238Y-91666109D02*
X120804762Y-91666109D01*
X113206666Y-80486109D02*
X113040000Y-80248014D01*
X112920952Y-80486109D02*
X112920952Y-79986109D01*
X112920952Y-79986109D02*
X113111428Y-79986109D01*
X113111428Y-79986109D02*
X113159047Y-80009919D01*
X113159047Y-80009919D02*
X113182857Y-80033728D01*
X113182857Y-80033728D02*
X113206666Y-80081347D01*
X113206666Y-80081347D02*
X113206666Y-80152776D01*
X113206666Y-80152776D02*
X113182857Y-80200395D01*
X113182857Y-80200395D02*
X113159047Y-80224204D01*
X113159047Y-80224204D02*
X113111428Y-80248014D01*
X113111428Y-80248014D02*
X112920952Y-80248014D01*
X113397143Y-80033728D02*
X113420952Y-80009919D01*
X113420952Y-80009919D02*
X113468571Y-79986109D01*
X113468571Y-79986109D02*
X113587619Y-79986109D01*
X113587619Y-79986109D02*
X113635238Y-80009919D01*
X113635238Y-80009919D02*
X113659047Y-80033728D01*
X113659047Y-80033728D02*
X113682857Y-80081347D01*
X113682857Y-80081347D02*
X113682857Y-80128966D01*
X113682857Y-80128966D02*
X113659047Y-80200395D01*
X113659047Y-80200395D02*
X113373333Y-80486109D01*
X113373333Y-80486109D02*
X113682857Y-80486109D01*
X100536109Y-77223333D02*
X100298014Y-77389999D01*
X100536109Y-77509047D02*
X100036109Y-77509047D01*
X100036109Y-77509047D02*
X100036109Y-77318571D01*
X100036109Y-77318571D02*
X100059919Y-77270952D01*
X100059919Y-77270952D02*
X100083728Y-77247142D01*
X100083728Y-77247142D02*
X100131347Y-77223333D01*
X100131347Y-77223333D02*
X100202776Y-77223333D01*
X100202776Y-77223333D02*
X100250395Y-77247142D01*
X100250395Y-77247142D02*
X100274204Y-77270952D01*
X100274204Y-77270952D02*
X100298014Y-77318571D01*
X100298014Y-77318571D02*
X100298014Y-77509047D01*
X100202776Y-76794761D02*
X100536109Y-76794761D01*
X100012300Y-76913809D02*
X100369442Y-77032856D01*
X100369442Y-77032856D02*
X100369442Y-76723333D01*
X103563609Y-81499047D02*
X103063609Y-81499047D01*
X103063609Y-81499047D02*
X103063609Y-81379999D01*
X103063609Y-81379999D02*
X103087419Y-81308571D01*
X103087419Y-81308571D02*
X103135038Y-81260952D01*
X103135038Y-81260952D02*
X103182657Y-81237142D01*
X103182657Y-81237142D02*
X103277895Y-81213333D01*
X103277895Y-81213333D02*
X103349323Y-81213333D01*
X103349323Y-81213333D02*
X103444561Y-81237142D01*
X103444561Y-81237142D02*
X103492180Y-81260952D01*
X103492180Y-81260952D02*
X103539800Y-81308571D01*
X103539800Y-81308571D02*
X103563609Y-81379999D01*
X103563609Y-81379999D02*
X103563609Y-81499047D01*
X103563609Y-80737142D02*
X103563609Y-81022856D01*
X103563609Y-80879999D02*
X103063609Y-80879999D01*
X103063609Y-80879999D02*
X103135038Y-80927618D01*
X103135038Y-80927618D02*
X103182657Y-80975237D01*
X103182657Y-80975237D02*
X103206466Y-81022856D01*
D11*
%TO.C,Q2*%
X99857500Y-72605000D02*
X99857500Y-72790000D01*
X99857500Y-72605000D02*
X103127500Y-72605000D01*
X99857500Y-75690000D02*
X99857500Y-75875000D01*
X99857500Y-75875000D02*
X103127500Y-75875000D01*
X103127500Y-72605000D02*
X103127500Y-72790000D01*
X103127500Y-75690000D02*
X103127500Y-75875000D01*
X99537500Y-72780000D02*
X99137500Y-72780000D01*
X99537500Y-72380000D01*
X99537500Y-72780000D01*
G36*
X99537500Y-72780000D02*
G01*
X99137500Y-72780000D01*
X99537500Y-72380000D01*
X99537500Y-72780000D01*
G37*
%TO.C,R1*%
X114697500Y-78457258D02*
X114697500Y-77982742D01*
X115742500Y-78457258D02*
X115742500Y-77982742D01*
%TO.C,U4*%
X108203899Y-74661188D02*
X106253899Y-74661188D01*
X108203899Y-74661188D02*
X110153899Y-74661188D01*
X108203899Y-79781188D02*
X106253899Y-79781188D01*
X108203899Y-79781188D02*
X110153899Y-79781188D01*
X105503899Y-74756188D02*
X105263899Y-74426188D01*
X105743899Y-74426188D01*
X105503899Y-74756188D01*
G36*
X105503899Y-74756188D02*
G01*
X105263899Y-74426188D01*
X105743899Y-74426188D01*
X105503899Y-74756188D01*
G37*
%TO.C,C4*%
X112770000Y-74709420D02*
X112770000Y-74990580D01*
X113790000Y-74709420D02*
X113790000Y-74990580D01*
%TO.C,C3*%
X114660000Y-74719420D02*
X114660000Y-75000580D01*
X115680000Y-74719420D02*
X115680000Y-75000580D01*
%TO.C,R3*%
X106787500Y-83232742D02*
X106787500Y-83707258D01*
X107832500Y-83232742D02*
X107832500Y-83707258D01*
%TO.C,U3*%
X112570000Y-80820000D02*
X110370000Y-80820000D01*
X112570000Y-80820000D02*
X114770000Y-80820000D01*
X112570000Y-86040000D02*
X110370000Y-86040000D01*
X112570000Y-86040000D02*
X114770000Y-86040000D01*
X109670000Y-81020000D02*
X109430000Y-80690000D01*
X109910000Y-80690000D01*
X109670000Y-81020000D01*
G36*
X109670000Y-81020000D02*
G01*
X109430000Y-80690000D01*
X109910000Y-80690000D01*
X109670000Y-81020000D01*
G37*
%TO.C,TP1*%
X100510000Y-83640000D02*
G75*
G02*
X97010000Y-83640000I-1750000J0D01*
G01*
X97010000Y-83640000D02*
G75*
G02*
X100510000Y-83640000I1750000J0D01*
G01*
D12*
%TO.C,G\u002A\u002A\u002A*%
X111751040Y-88191946D02*
X112888960Y-88191946D01*
X112888960Y-87788933D01*
X113075226Y-87788933D01*
X113075226Y-88821866D01*
X112888960Y-88821866D01*
X112888960Y-88418853D01*
X111751040Y-88418853D01*
X111751040Y-88821866D01*
X111564773Y-88821866D01*
X111564773Y-87788933D01*
X111751040Y-87788933D01*
X111751040Y-88191946D01*
G36*
X111751040Y-88191946D02*
G01*
X112888960Y-88191946D01*
X112888960Y-87788933D01*
X113075226Y-87788933D01*
X113075226Y-88821866D01*
X112888960Y-88821866D01*
X112888960Y-88418853D01*
X111751040Y-88418853D01*
X111751040Y-88821866D01*
X111564773Y-88821866D01*
X111564773Y-87788933D01*
X111751040Y-87788933D01*
X111751040Y-88191946D01*
G37*
X110065240Y-88158926D02*
X110066173Y-88528920D01*
X110074983Y-88547546D01*
X110085119Y-88565050D01*
X110096845Y-88578850D01*
X110108957Y-88587585D01*
X110111267Y-88588584D01*
X110115452Y-88588903D01*
X110126102Y-88589211D01*
X110142908Y-88589507D01*
X110165561Y-88589789D01*
X110193753Y-88590056D01*
X110227175Y-88590305D01*
X110265518Y-88590537D01*
X110308473Y-88590749D01*
X110355732Y-88590940D01*
X110406987Y-88591109D01*
X110461927Y-88591254D01*
X110520246Y-88591374D01*
X110581634Y-88591467D01*
X110645782Y-88591531D01*
X110712381Y-88591567D01*
X110755580Y-88591573D01*
X111392053Y-88591573D01*
X111392053Y-88821866D01*
X110720646Y-88821453D01*
X110653415Y-88821397D01*
X110587831Y-88821314D01*
X110524228Y-88821206D01*
X110462942Y-88821073D01*
X110404307Y-88820918D01*
X110348659Y-88820743D01*
X110296332Y-88820548D01*
X110247662Y-88820336D01*
X110202983Y-88820109D01*
X110162630Y-88819867D01*
X110126938Y-88819612D01*
X110096243Y-88819346D01*
X110070879Y-88819071D01*
X110051181Y-88818789D01*
X110037485Y-88818500D01*
X110030124Y-88818207D01*
X110029191Y-88818116D01*
X110000383Y-88810578D01*
X109973232Y-88796948D01*
X109948350Y-88777825D01*
X109926349Y-88753810D01*
X109907844Y-88725503D01*
X109893445Y-88693504D01*
X109889387Y-88681203D01*
X109888505Y-88677946D01*
X109887710Y-88674130D01*
X109886998Y-88669395D01*
X109886363Y-88663383D01*
X109885798Y-88655732D01*
X109885300Y-88646084D01*
X109884862Y-88634080D01*
X109884478Y-88619359D01*
X109884144Y-88601561D01*
X109883854Y-88580329D01*
X109883602Y-88555301D01*
X109883382Y-88526119D01*
X109883190Y-88492423D01*
X109883019Y-88453853D01*
X109882865Y-88410050D01*
X109882721Y-88360654D01*
X109882583Y-88305306D01*
X109882444Y-88243646D01*
X109882404Y-88224966D01*
X109881475Y-87788933D01*
X110064306Y-87788933D01*
X110065240Y-88158926D01*
G36*
X110065240Y-88158926D02*
G01*
X110066173Y-88528920D01*
X110074983Y-88547546D01*
X110085119Y-88565050D01*
X110096845Y-88578850D01*
X110108957Y-88587585D01*
X110111267Y-88588584D01*
X110115452Y-88588903D01*
X110126102Y-88589211D01*
X110142908Y-88589507D01*
X110165561Y-88589789D01*
X110193753Y-88590056D01*
X110227175Y-88590305D01*
X110265518Y-88590537D01*
X110308473Y-88590749D01*
X110355732Y-88590940D01*
X110406987Y-88591109D01*
X110461927Y-88591254D01*
X110520246Y-88591374D01*
X110581634Y-88591467D01*
X110645782Y-88591531D01*
X110712381Y-88591567D01*
X110755580Y-88591573D01*
X111392053Y-88591573D01*
X111392053Y-88821866D01*
X110720646Y-88821453D01*
X110653415Y-88821397D01*
X110587831Y-88821314D01*
X110524228Y-88821206D01*
X110462942Y-88821073D01*
X110404307Y-88820918D01*
X110348659Y-88820743D01*
X110296332Y-88820548D01*
X110247662Y-88820336D01*
X110202983Y-88820109D01*
X110162630Y-88819867D01*
X110126938Y-88819612D01*
X110096243Y-88819346D01*
X110070879Y-88819071D01*
X110051181Y-88818789D01*
X110037485Y-88818500D01*
X110030124Y-88818207D01*
X110029191Y-88818116D01*
X110000383Y-88810578D01*
X109973232Y-88796948D01*
X109948350Y-88777825D01*
X109926349Y-88753810D01*
X109907844Y-88725503D01*
X109893445Y-88693504D01*
X109889387Y-88681203D01*
X109888505Y-88677946D01*
X109887710Y-88674130D01*
X109886998Y-88669395D01*
X109886363Y-88663383D01*
X109885798Y-88655732D01*
X109885300Y-88646084D01*
X109884862Y-88634080D01*
X109884478Y-88619359D01*
X109884144Y-88601561D01*
X109883854Y-88580329D01*
X109883602Y-88555301D01*
X109883382Y-88526119D01*
X109883190Y-88492423D01*
X109883019Y-88453853D01*
X109882865Y-88410050D01*
X109882721Y-88360654D01*
X109882583Y-88305306D01*
X109882444Y-88243646D01*
X109882404Y-88224966D01*
X109881475Y-87788933D01*
X110064306Y-87788933D01*
X110065240Y-88158926D01*
G37*
X113919353Y-87788952D02*
X114003452Y-87788972D01*
X114082756Y-87789025D01*
X114157121Y-87789110D01*
X114226402Y-87789228D01*
X114290454Y-87789377D01*
X114349133Y-87789556D01*
X114402294Y-87789766D01*
X114449792Y-87790005D01*
X114491482Y-87790272D01*
X114527221Y-87790567D01*
X114556863Y-87790889D01*
X114580263Y-87791238D01*
X114597278Y-87791612D01*
X114607762Y-87792011D01*
X114611080Y-87792296D01*
X114639982Y-87800372D01*
X114667140Y-87814535D01*
X114691953Y-87834194D01*
X114713822Y-87858759D01*
X114732147Y-87887640D01*
X114746329Y-87920247D01*
X114748810Y-87927786D01*
X114750681Y-87933954D01*
X114752230Y-87939779D01*
X114753488Y-87945942D01*
X114754485Y-87953126D01*
X114755252Y-87962014D01*
X114755818Y-87973288D01*
X114756214Y-87987631D01*
X114756471Y-88005726D01*
X114756618Y-88028254D01*
X114756686Y-88055899D01*
X114756705Y-88089342D01*
X114756706Y-88105586D01*
X114756699Y-88141713D01*
X114756656Y-88171749D01*
X114756547Y-88196376D01*
X114756342Y-88216277D01*
X114756010Y-88232133D01*
X114755521Y-88244628D01*
X114754845Y-88254444D01*
X114753950Y-88262262D01*
X114752808Y-88268766D01*
X114751386Y-88274637D01*
X114749655Y-88280558D01*
X114748778Y-88283386D01*
X114735628Y-88316978D01*
X114718621Y-88346488D01*
X114698262Y-88371267D01*
X114675053Y-88390667D01*
X114657816Y-88400495D01*
X114647258Y-88406049D01*
X114639662Y-88411149D01*
X114636651Y-88414704D01*
X114636650Y-88414736D01*
X114637615Y-88418659D01*
X114640458Y-88428470D01*
X114645002Y-88443600D01*
X114651072Y-88463482D01*
X114658493Y-88487549D01*
X114667091Y-88515233D01*
X114676690Y-88545966D01*
X114687115Y-88579181D01*
X114698190Y-88614309D01*
X114699133Y-88617291D01*
X114710251Y-88652517D01*
X114720740Y-88685844D01*
X114730422Y-88716711D01*
X114739123Y-88744552D01*
X114746668Y-88768805D01*
X114752881Y-88788906D01*
X114757588Y-88804291D01*
X114760612Y-88814396D01*
X114761778Y-88818659D01*
X114761786Y-88818735D01*
X114758477Y-88819697D01*
X114748852Y-88820436D01*
X114733367Y-88820941D01*
X114712475Y-88821201D01*
X114686631Y-88821205D01*
X114668222Y-88821073D01*
X114574658Y-88820173D01*
X114431586Y-88418995D01*
X113932900Y-88418924D01*
X113434213Y-88418853D01*
X113434213Y-88821866D01*
X113247946Y-88821866D01*
X113247946Y-88191946D01*
X113247946Y-88019226D01*
X113434213Y-88019226D01*
X113434213Y-88191946D01*
X113970537Y-88191946D01*
X114049120Y-88191924D01*
X114122079Y-88191858D01*
X114189316Y-88191749D01*
X114250735Y-88191597D01*
X114306237Y-88191403D01*
X114355725Y-88191168D01*
X114399101Y-88190892D01*
X114436268Y-88190576D01*
X114467128Y-88190220D01*
X114491584Y-88189825D01*
X114509537Y-88189392D01*
X114520891Y-88188921D01*
X114525104Y-88188527D01*
X114543066Y-88183325D01*
X114556336Y-88174797D01*
X114566630Y-88161823D01*
X114567053Y-88161112D01*
X114570030Y-88155096D01*
X114572002Y-88148088D01*
X114573163Y-88138596D01*
X114573706Y-88125132D01*
X114573826Y-88108881D01*
X114573701Y-88091062D01*
X114573156Y-88078336D01*
X114571939Y-88069022D01*
X114569798Y-88061441D01*
X114566479Y-88053913D01*
X114565161Y-88051307D01*
X114554149Y-88035478D01*
X114543147Y-88026902D01*
X114529800Y-88019338D01*
X113982006Y-88019282D01*
X113434213Y-88019226D01*
X113247946Y-88019226D01*
X113247946Y-87788933D01*
X113919353Y-87788952D01*
G36*
X113919353Y-87788952D02*
G01*
X114003452Y-87788972D01*
X114082756Y-87789025D01*
X114157121Y-87789110D01*
X114226402Y-87789228D01*
X114290454Y-87789377D01*
X114349133Y-87789556D01*
X114402294Y-87789766D01*
X114449792Y-87790005D01*
X114491482Y-87790272D01*
X114527221Y-87790567D01*
X114556863Y-87790889D01*
X114580263Y-87791238D01*
X114597278Y-87791612D01*
X114607762Y-87792011D01*
X114611080Y-87792296D01*
X114639982Y-87800372D01*
X114667140Y-87814535D01*
X114691953Y-87834194D01*
X114713822Y-87858759D01*
X114732147Y-87887640D01*
X114746329Y-87920247D01*
X114748810Y-87927786D01*
X114750681Y-87933954D01*
X114752230Y-87939779D01*
X114753488Y-87945942D01*
X114754485Y-87953126D01*
X114755252Y-87962014D01*
X114755818Y-87973288D01*
X114756214Y-87987631D01*
X114756471Y-88005726D01*
X114756618Y-88028254D01*
X114756686Y-88055899D01*
X114756705Y-88089342D01*
X114756706Y-88105586D01*
X114756699Y-88141713D01*
X114756656Y-88171749D01*
X114756547Y-88196376D01*
X114756342Y-88216277D01*
X114756010Y-88232133D01*
X114755521Y-88244628D01*
X114754845Y-88254444D01*
X114753950Y-88262262D01*
X114752808Y-88268766D01*
X114751386Y-88274637D01*
X114749655Y-88280558D01*
X114748778Y-88283386D01*
X114735628Y-88316978D01*
X114718621Y-88346488D01*
X114698262Y-88371267D01*
X114675053Y-88390667D01*
X114657816Y-88400495D01*
X114647258Y-88406049D01*
X114639662Y-88411149D01*
X114636651Y-88414704D01*
X114636650Y-88414736D01*
X114637615Y-88418659D01*
X114640458Y-88428470D01*
X114645002Y-88443600D01*
X114651072Y-88463482D01*
X114658493Y-88487549D01*
X114667091Y-88515233D01*
X114676690Y-88545966D01*
X114687115Y-88579181D01*
X114698190Y-88614309D01*
X114699133Y-88617291D01*
X114710251Y-88652517D01*
X114720740Y-88685844D01*
X114730422Y-88716711D01*
X114739123Y-88744552D01*
X114746668Y-88768805D01*
X114752881Y-88788906D01*
X114757588Y-88804291D01*
X114760612Y-88814396D01*
X114761778Y-88818659D01*
X114761786Y-88818735D01*
X114758477Y-88819697D01*
X114748852Y-88820436D01*
X114733367Y-88820941D01*
X114712475Y-88821201D01*
X114686631Y-88821205D01*
X114668222Y-88821073D01*
X114574658Y-88820173D01*
X114431586Y-88418995D01*
X113932900Y-88418924D01*
X113434213Y-88418853D01*
X113434213Y-88821866D01*
X113247946Y-88821866D01*
X113247946Y-88191946D01*
X113247946Y-88019226D01*
X113434213Y-88019226D01*
X113434213Y-88191946D01*
X113970537Y-88191946D01*
X114049120Y-88191924D01*
X114122079Y-88191858D01*
X114189316Y-88191749D01*
X114250735Y-88191597D01*
X114306237Y-88191403D01*
X114355725Y-88191168D01*
X114399101Y-88190892D01*
X114436268Y-88190576D01*
X114467128Y-88190220D01*
X114491584Y-88189825D01*
X114509537Y-88189392D01*
X114520891Y-88188921D01*
X114525104Y-88188527D01*
X114543066Y-88183325D01*
X114556336Y-88174797D01*
X114566630Y-88161823D01*
X114567053Y-88161112D01*
X114570030Y-88155096D01*
X114572002Y-88148088D01*
X114573163Y-88138596D01*
X114573706Y-88125132D01*
X114573826Y-88108881D01*
X114573701Y-88091062D01*
X114573156Y-88078336D01*
X114571939Y-88069022D01*
X114569798Y-88061441D01*
X114566479Y-88053913D01*
X114565161Y-88051307D01*
X114554149Y-88035478D01*
X114543147Y-88026902D01*
X114529800Y-88019338D01*
X113982006Y-88019282D01*
X113434213Y-88019226D01*
X113247946Y-88019226D01*
X113247946Y-87788933D01*
X113919353Y-87788952D01*
G37*
X113321231Y-86509620D02*
X113320030Y-86513480D01*
X113316898Y-86523304D01*
X113311991Y-86538607D01*
X113305466Y-86558909D01*
X113297478Y-86583728D01*
X113288182Y-86612581D01*
X113277734Y-86644988D01*
X113266290Y-86680465D01*
X113254006Y-86718532D01*
X113241038Y-86758706D01*
X113227540Y-86800505D01*
X113213670Y-86843448D01*
X113199582Y-86887053D01*
X113185432Y-86930838D01*
X113171377Y-86974321D01*
X113157571Y-87017019D01*
X113144170Y-87058452D01*
X113131331Y-87098138D01*
X113119208Y-87135594D01*
X113107958Y-87170339D01*
X113097737Y-87201890D01*
X113088699Y-87229767D01*
X113081001Y-87253486D01*
X113074799Y-87272567D01*
X113070247Y-87286527D01*
X113067503Y-87294885D01*
X113066770Y-87297062D01*
X113067613Y-87298209D01*
X113071409Y-87299119D01*
X113078702Y-87299808D01*
X113090033Y-87300290D01*
X113105947Y-87300581D01*
X113126985Y-87300695D01*
X113153692Y-87300649D01*
X113186609Y-87300457D01*
X113187852Y-87300448D01*
X113310458Y-87299560D01*
X113381811Y-87079426D01*
X113453164Y-86859293D01*
X113795902Y-86858430D01*
X113843456Y-86858328D01*
X113889054Y-86858266D01*
X113932246Y-86858242D01*
X113972581Y-86858255D01*
X114009607Y-86858303D01*
X114042875Y-86858385D01*
X114071933Y-86858500D01*
X114096331Y-86858647D01*
X114115619Y-86858824D01*
X114129344Y-86859029D01*
X114137058Y-86859262D01*
X114138640Y-86859438D01*
X114137629Y-86862805D01*
X114134736Y-86871974D01*
X114130169Y-86886301D01*
X114124133Y-86905145D01*
X114116838Y-86927865D01*
X114108489Y-86953817D01*
X114099295Y-86982362D01*
X114089463Y-87012855D01*
X114079201Y-87044656D01*
X114068715Y-87077123D01*
X114058214Y-87109613D01*
X114047903Y-87141485D01*
X114037992Y-87172096D01*
X114028687Y-87200806D01*
X114020196Y-87226971D01*
X114012726Y-87249950D01*
X114006485Y-87269102D01*
X114001679Y-87283783D01*
X113998517Y-87293353D01*
X113997265Y-87297019D01*
X113998197Y-87297854D01*
X114001923Y-87298578D01*
X114008826Y-87299199D01*
X114019294Y-87299723D01*
X114033712Y-87300157D01*
X114052466Y-87300508D01*
X114075942Y-87300783D01*
X114104526Y-87300988D01*
X114138603Y-87301130D01*
X114178560Y-87301215D01*
X114224783Y-87301251D01*
X114240745Y-87301253D01*
X114290423Y-87301278D01*
X114333843Y-87301361D01*
X114371521Y-87301511D01*
X114403971Y-87301736D01*
X114431709Y-87302045D01*
X114455249Y-87302449D01*
X114475107Y-87302955D01*
X114491798Y-87303574D01*
X114505838Y-87304314D01*
X114517740Y-87305184D01*
X114528022Y-87306194D01*
X114529604Y-87306375D01*
X114611055Y-87319218D01*
X114690083Y-87338365D01*
X114766518Y-87363731D01*
X114840188Y-87395232D01*
X114910922Y-87432783D01*
X114978550Y-87476302D01*
X115042900Y-87525702D01*
X115103802Y-87580900D01*
X115120870Y-87598058D01*
X115174190Y-87657273D01*
X115221507Y-87719144D01*
X115263284Y-87784315D01*
X115288984Y-87831269D01*
X115321381Y-87900040D01*
X115347639Y-87968187D01*
X115367996Y-88036712D01*
X115382694Y-88106619D01*
X115391972Y-88178911D01*
X115396070Y-88254590D01*
X115396326Y-88280000D01*
X115393855Y-88356991D01*
X115386282Y-88430270D01*
X115373366Y-88500840D01*
X115354868Y-88569703D01*
X115330548Y-88637863D01*
X115300166Y-88706322D01*
X115288984Y-88728730D01*
X115249792Y-88797894D01*
X115204845Y-88863773D01*
X115154520Y-88925957D01*
X115099194Y-88984041D01*
X115039243Y-89037617D01*
X114975043Y-89086276D01*
X114932970Y-89113984D01*
X114867725Y-89150913D01*
X114798491Y-89183165D01*
X114726665Y-89210170D01*
X114653640Y-89231361D01*
X114632304Y-89236368D01*
X114620999Y-89238909D01*
X114610783Y-89241230D01*
X114601325Y-89243342D01*
X114592289Y-89245256D01*
X114583342Y-89246983D01*
X114574153Y-89248533D01*
X114564386Y-89249918D01*
X114553710Y-89251147D01*
X114541789Y-89252232D01*
X114528293Y-89253183D01*
X114512886Y-89254012D01*
X114495236Y-89254728D01*
X114475009Y-89255343D01*
X114451872Y-89255868D01*
X114425492Y-89256313D01*
X114395536Y-89256688D01*
X114361670Y-89257006D01*
X114323561Y-89257276D01*
X114280875Y-89257509D01*
X114233280Y-89257716D01*
X114180442Y-89257909D01*
X114122027Y-89258096D01*
X114057703Y-89258290D01*
X113987136Y-89258501D01*
X113942333Y-89258638D01*
X113361639Y-89260440D01*
X113218945Y-89700706D01*
X112876152Y-89701569D01*
X112828594Y-89701671D01*
X112782992Y-89701733D01*
X112739796Y-89701757D01*
X112699458Y-89701744D01*
X112662427Y-89701696D01*
X112629155Y-89701614D01*
X112600092Y-89701499D01*
X112575689Y-89701352D01*
X112556396Y-89701175D01*
X112542665Y-89700970D01*
X112534945Y-89700737D01*
X112533360Y-89700561D01*
X112534370Y-89697193D01*
X112537263Y-89688024D01*
X112541831Y-89673696D01*
X112547866Y-89654851D01*
X112555162Y-89632130D01*
X112563511Y-89606176D01*
X112572705Y-89577631D01*
X112582538Y-89547136D01*
X112592801Y-89515334D01*
X112603287Y-89482866D01*
X112613790Y-89450374D01*
X112624101Y-89418500D01*
X112634013Y-89387886D01*
X112643319Y-89359174D01*
X112651811Y-89333006D01*
X112659282Y-89310023D01*
X112665525Y-89290868D01*
X112670332Y-89276182D01*
X112673496Y-89266608D01*
X112674751Y-89262937D01*
X112673933Y-89261791D01*
X112670166Y-89260881D01*
X112662906Y-89260192D01*
X112651612Y-89259710D01*
X112635740Y-89259419D01*
X112614748Y-89259303D01*
X112588094Y-89259348D01*
X112555235Y-89259538D01*
X112553572Y-89259550D01*
X112430787Y-89260440D01*
X112301733Y-89659211D01*
X112172680Y-90057982D01*
X111316812Y-90058000D01*
X111318760Y-90050380D01*
X111319953Y-90046552D01*
X111323076Y-90036762D01*
X111327974Y-90021492D01*
X111334491Y-90001222D01*
X111342472Y-89976434D01*
X111351760Y-89947609D01*
X111362202Y-89915230D01*
X111373639Y-89879778D01*
X111385918Y-89841735D01*
X111398883Y-89801581D01*
X111412377Y-89759798D01*
X111426245Y-89716869D01*
X111440332Y-89673274D01*
X111454482Y-89629495D01*
X111468539Y-89586014D01*
X111482348Y-89543312D01*
X111495753Y-89501871D01*
X111508598Y-89462173D01*
X111520728Y-89424698D01*
X111531987Y-89389929D01*
X111542219Y-89358346D01*
X111551269Y-89330433D01*
X111558982Y-89306669D01*
X111565201Y-89287537D01*
X111569770Y-89273518D01*
X111572535Y-89265094D01*
X111573259Y-89262937D01*
X111572407Y-89261790D01*
X111568601Y-89260880D01*
X111561298Y-89260191D01*
X111549954Y-89259709D01*
X111534028Y-89259418D01*
X111512975Y-89259304D01*
X111486253Y-89259350D01*
X111453319Y-89259543D01*
X111452188Y-89259551D01*
X111329624Y-89260440D01*
X111187012Y-89700706D01*
X110844186Y-89701569D01*
X110796625Y-89701671D01*
X110751021Y-89701733D01*
X110707822Y-89701757D01*
X110667481Y-89701744D01*
X110630448Y-89701696D01*
X110597173Y-89701614D01*
X110568107Y-89701499D01*
X110543701Y-89701352D01*
X110524406Y-89701176D01*
X110510671Y-89700970D01*
X110502948Y-89700737D01*
X110501360Y-89700561D01*
X110502370Y-89697194D01*
X110505263Y-89688025D01*
X110509830Y-89673698D01*
X110515866Y-89654854D01*
X110523161Y-89632134D01*
X110531510Y-89606182D01*
X110540704Y-89577637D01*
X110550536Y-89547144D01*
X110560798Y-89515343D01*
X110571284Y-89482876D01*
X110581785Y-89450386D01*
X110592096Y-89418514D01*
X110602007Y-89387903D01*
X110611312Y-89359193D01*
X110619803Y-89333028D01*
X110627273Y-89310049D01*
X110633514Y-89290897D01*
X110638320Y-89276216D01*
X110641482Y-89266646D01*
X110642734Y-89262980D01*
X110641802Y-89262145D01*
X110638076Y-89261421D01*
X110631173Y-89260800D01*
X110620705Y-89260276D01*
X110606287Y-89259842D01*
X110587533Y-89259491D01*
X110564057Y-89259216D01*
X110535473Y-89259011D01*
X110501396Y-89258869D01*
X110461439Y-89258784D01*
X110415216Y-89258748D01*
X110399254Y-89258746D01*
X110349576Y-89258721D01*
X110306156Y-89258638D01*
X110268478Y-89258488D01*
X110236028Y-89258263D01*
X110208290Y-89257954D01*
X110184750Y-89257550D01*
X110164892Y-89257044D01*
X110148201Y-89256425D01*
X110134161Y-89255685D01*
X110122259Y-89254815D01*
X110111977Y-89253805D01*
X110110395Y-89253624D01*
X110028944Y-89240781D01*
X109949916Y-89221634D01*
X109873481Y-89196268D01*
X109799811Y-89164767D01*
X109729077Y-89127216D01*
X109661449Y-89083697D01*
X109597099Y-89034297D01*
X109536197Y-88979099D01*
X109519129Y-88961941D01*
X109465809Y-88902726D01*
X109418492Y-88840855D01*
X109376715Y-88775684D01*
X109351015Y-88728730D01*
X109318618Y-88659959D01*
X109292360Y-88591812D01*
X109272003Y-88523287D01*
X109257305Y-88453380D01*
X109248027Y-88381088D01*
X109243929Y-88305409D01*
X109243673Y-88280000D01*
X109302480Y-88280000D01*
X109305513Y-88356956D01*
X109314700Y-88431759D01*
X109330176Y-88504972D01*
X109352074Y-88577161D01*
X109380526Y-88648889D01*
X109398892Y-88688093D01*
X109436407Y-88756515D01*
X109479518Y-88821265D01*
X109527956Y-88882064D01*
X109581454Y-88938634D01*
X109639745Y-88990695D01*
X109702563Y-89037969D01*
X109769638Y-89080177D01*
X109780683Y-89086406D01*
X109844634Y-89118353D01*
X109912522Y-89145576D01*
X109983092Y-89167701D01*
X110055088Y-89184352D01*
X110127255Y-89195155D01*
X110152842Y-89197525D01*
X110158186Y-89197677D01*
X110170121Y-89197825D01*
X110188461Y-89197969D01*
X110213023Y-89198110D01*
X110243624Y-89198246D01*
X110280079Y-89198377D01*
X110322205Y-89198505D01*
X110369819Y-89198627D01*
X110422736Y-89198745D01*
X110480773Y-89198857D01*
X110543745Y-89198964D01*
X110611470Y-89199066D01*
X110683764Y-89199162D01*
X110760442Y-89199252D01*
X110841321Y-89199336D01*
X110926218Y-89199414D01*
X111014949Y-89199485D01*
X111107329Y-89199550D01*
X111203175Y-89199608D01*
X111302304Y-89199658D01*
X111404531Y-89199702D01*
X111509674Y-89199739D01*
X111617547Y-89199767D01*
X111727969Y-89199788D01*
X111840753Y-89199802D01*
X111955718Y-89199806D01*
X112072680Y-89199803D01*
X112191453Y-89199791D01*
X112311856Y-89199771D01*
X112342013Y-89199764D01*
X112486912Y-89199731D01*
X112625195Y-89199698D01*
X112757020Y-89199665D01*
X112882542Y-89199630D01*
X113001921Y-89199594D01*
X113115313Y-89199556D01*
X113222875Y-89199515D01*
X113324764Y-89199472D01*
X113421139Y-89199425D01*
X113512156Y-89199375D01*
X113597972Y-89199320D01*
X113678745Y-89199261D01*
X113754632Y-89199196D01*
X113825790Y-89199126D01*
X113892377Y-89199050D01*
X113954550Y-89198967D01*
X114012465Y-89198877D01*
X114066282Y-89198780D01*
X114116155Y-89198675D01*
X114162244Y-89198561D01*
X114204705Y-89198438D01*
X114243696Y-89198306D01*
X114279373Y-89198165D01*
X114311895Y-89198013D01*
X114341418Y-89197850D01*
X114368099Y-89197677D01*
X114392096Y-89197491D01*
X114413567Y-89197294D01*
X114432668Y-89197084D01*
X114449557Y-89196861D01*
X114464391Y-89196624D01*
X114477327Y-89196374D01*
X114488523Y-89196109D01*
X114498135Y-89195829D01*
X114506322Y-89195534D01*
X114513240Y-89195223D01*
X114519047Y-89194896D01*
X114523900Y-89194552D01*
X114527956Y-89194191D01*
X114531373Y-89193813D01*
X114534307Y-89193416D01*
X114534880Y-89193330D01*
X114597803Y-89181921D01*
X114658477Y-89167387D01*
X114715347Y-89150136D01*
X114752520Y-89136477D01*
X114824854Y-89104110D01*
X114893547Y-89066186D01*
X114958341Y-89022989D01*
X115018978Y-88974801D01*
X115075199Y-88921907D01*
X115126747Y-88864589D01*
X115173364Y-88803132D01*
X115214792Y-88737818D01*
X115250773Y-88668931D01*
X115281049Y-88596755D01*
X115302222Y-88532627D01*
X115320040Y-88459408D01*
X115331643Y-88384296D01*
X115337031Y-88308089D01*
X115336205Y-88231589D01*
X115329165Y-88155595D01*
X115315909Y-88080908D01*
X115302222Y-88027372D01*
X115277930Y-87955276D01*
X115247673Y-87885147D01*
X115211860Y-87817640D01*
X115170898Y-87753410D01*
X115125195Y-87693111D01*
X115075158Y-87637399D01*
X115036106Y-87599980D01*
X114973871Y-87548529D01*
X114908606Y-87503132D01*
X114840355Y-87463812D01*
X114769163Y-87430587D01*
X114695075Y-87403478D01*
X114618136Y-87382506D01*
X114538391Y-87367692D01*
X114517946Y-87364943D01*
X114512020Y-87364628D01*
X114499541Y-87364323D01*
X114480732Y-87364029D01*
X114455812Y-87363745D01*
X114425004Y-87363471D01*
X114388527Y-87363208D01*
X114346604Y-87362956D01*
X114299455Y-87362714D01*
X114247302Y-87362482D01*
X114190365Y-87362261D01*
X114128865Y-87362050D01*
X114063025Y-87361850D01*
X113993064Y-87361661D01*
X113919204Y-87361481D01*
X113841666Y-87361313D01*
X113760671Y-87361154D01*
X113676440Y-87361006D01*
X113589194Y-87360869D01*
X113499155Y-87360742D01*
X113406543Y-87360625D01*
X113311580Y-87360519D01*
X113214487Y-87360424D01*
X113115484Y-87360339D01*
X113014793Y-87360264D01*
X112912635Y-87360200D01*
X112809231Y-87360146D01*
X112704802Y-87360103D01*
X112599569Y-87360070D01*
X112493753Y-87360048D01*
X112387576Y-87360036D01*
X112281258Y-87360034D01*
X112175021Y-87360043D01*
X112069086Y-87360063D01*
X111963673Y-87360093D01*
X111859004Y-87360133D01*
X111755300Y-87360184D01*
X111652782Y-87360246D01*
X111551671Y-87360317D01*
X111452188Y-87360400D01*
X111354555Y-87360492D01*
X111258992Y-87360596D01*
X111165721Y-87360709D01*
X111074962Y-87360833D01*
X110986937Y-87360968D01*
X110901866Y-87361113D01*
X110819972Y-87361269D01*
X110741474Y-87361434D01*
X110666595Y-87361611D01*
X110595554Y-87361798D01*
X110528574Y-87361995D01*
X110465875Y-87362203D01*
X110407679Y-87362421D01*
X110354206Y-87362650D01*
X110305678Y-87362889D01*
X110262315Y-87363139D01*
X110224339Y-87363399D01*
X110191971Y-87363670D01*
X110165432Y-87363951D01*
X110144943Y-87364242D01*
X110130726Y-87364544D01*
X110123000Y-87364856D01*
X110122053Y-87364943D01*
X110042051Y-87378175D01*
X109964634Y-87397567D01*
X109890036Y-87422976D01*
X109818491Y-87454257D01*
X109750232Y-87491264D01*
X109685493Y-87533854D01*
X109624508Y-87581881D01*
X109567511Y-87635202D01*
X109514735Y-87693671D01*
X109466413Y-87757144D01*
X109450629Y-87780466D01*
X109411536Y-87846165D01*
X109378145Y-87915205D01*
X109350622Y-87987027D01*
X109329134Y-88061066D01*
X109313847Y-88136761D01*
X109304929Y-88213550D01*
X109302480Y-88280000D01*
X109243673Y-88280000D01*
X109246144Y-88203008D01*
X109253717Y-88129729D01*
X109266633Y-88059159D01*
X109285131Y-87990296D01*
X109309451Y-87922136D01*
X109339833Y-87853677D01*
X109351015Y-87831269D01*
X109390207Y-87762105D01*
X109435154Y-87696226D01*
X109485479Y-87634042D01*
X109540805Y-87575958D01*
X109600756Y-87522382D01*
X109664956Y-87473723D01*
X109707029Y-87446015D01*
X109772274Y-87409086D01*
X109841508Y-87376834D01*
X109913334Y-87349829D01*
X109986359Y-87328638D01*
X110007695Y-87323631D01*
X110019000Y-87321090D01*
X110029215Y-87318769D01*
X110038673Y-87316657D01*
X110047709Y-87314743D01*
X110056655Y-87313016D01*
X110065844Y-87311466D01*
X110075610Y-87310082D01*
X110086286Y-87308853D01*
X110098206Y-87307768D01*
X110111702Y-87306816D01*
X110127108Y-87305988D01*
X110144757Y-87305271D01*
X110164983Y-87304656D01*
X110188119Y-87304131D01*
X110214497Y-87303687D01*
X110244452Y-87303311D01*
X110278316Y-87302993D01*
X110316423Y-87302723D01*
X110359107Y-87302490D01*
X110406700Y-87302283D01*
X110459535Y-87302091D01*
X110517946Y-87301903D01*
X110582267Y-87301709D01*
X110652830Y-87301499D01*
X110697715Y-87301361D01*
X111278457Y-87299560D01*
X111349810Y-87079426D01*
X111421164Y-86859293D01*
X111763902Y-86858430D01*
X111811456Y-86858328D01*
X111857054Y-86858266D01*
X111900246Y-86858242D01*
X111940581Y-86858255D01*
X111977607Y-86858303D01*
X112010875Y-86858385D01*
X112039933Y-86858500D01*
X112064331Y-86858647D01*
X112083619Y-86858824D01*
X112097344Y-86859029D01*
X112105058Y-86859262D01*
X112106640Y-86859438D01*
X112105629Y-86862806D01*
X112102736Y-86871975D01*
X112098168Y-86886303D01*
X112092133Y-86905148D01*
X112084837Y-86927869D01*
X112076488Y-86953823D01*
X112067294Y-86982368D01*
X112057461Y-87012863D01*
X112047198Y-87044665D01*
X112036712Y-87077133D01*
X112026209Y-87109625D01*
X112015898Y-87141499D01*
X112005986Y-87172113D01*
X111996680Y-87200825D01*
X111988188Y-87226993D01*
X111980717Y-87249976D01*
X111974474Y-87269131D01*
X111969667Y-87283817D01*
X111966503Y-87293391D01*
X111965248Y-87297062D01*
X111966066Y-87298208D01*
X111969833Y-87299117D01*
X111977091Y-87299806D01*
X111988384Y-87300288D01*
X112004254Y-87300580D01*
X112025242Y-87300696D01*
X112051891Y-87300651D01*
X112084743Y-87300462D01*
X112086523Y-87300449D01*
X112209403Y-87299560D01*
X112338361Y-86900816D01*
X112467320Y-86502073D01*
X112895253Y-86502036D01*
X113323187Y-86502000D01*
X113321231Y-86509620D01*
G36*
X113321231Y-86509620D02*
G01*
X113320030Y-86513480D01*
X113316898Y-86523304D01*
X113311991Y-86538607D01*
X113305466Y-86558909D01*
X113297478Y-86583728D01*
X113288182Y-86612581D01*
X113277734Y-86644988D01*
X113266290Y-86680465D01*
X113254006Y-86718532D01*
X113241038Y-86758706D01*
X113227540Y-86800505D01*
X113213670Y-86843448D01*
X113199582Y-86887053D01*
X113185432Y-86930838D01*
X113171377Y-86974321D01*
X113157571Y-87017019D01*
X113144170Y-87058452D01*
X113131331Y-87098138D01*
X113119208Y-87135594D01*
X113107958Y-87170339D01*
X113097737Y-87201890D01*
X113088699Y-87229767D01*
X113081001Y-87253486D01*
X113074799Y-87272567D01*
X113070247Y-87286527D01*
X113067503Y-87294885D01*
X113066770Y-87297062D01*
X113067613Y-87298209D01*
X113071409Y-87299119D01*
X113078702Y-87299808D01*
X113090033Y-87300290D01*
X113105947Y-87300581D01*
X113126985Y-87300695D01*
X113153692Y-87300649D01*
X113186609Y-87300457D01*
X113187852Y-87300448D01*
X113310458Y-87299560D01*
X113381811Y-87079426D01*
X113453164Y-86859293D01*
X113795902Y-86858430D01*
X113843456Y-86858328D01*
X113889054Y-86858266D01*
X113932246Y-86858242D01*
X113972581Y-86858255D01*
X114009607Y-86858303D01*
X114042875Y-86858385D01*
X114071933Y-86858500D01*
X114096331Y-86858647D01*
X114115619Y-86858824D01*
X114129344Y-86859029D01*
X114137058Y-86859262D01*
X114138640Y-86859438D01*
X114137629Y-86862805D01*
X114134736Y-86871974D01*
X114130169Y-86886301D01*
X114124133Y-86905145D01*
X114116838Y-86927865D01*
X114108489Y-86953817D01*
X114099295Y-86982362D01*
X114089463Y-87012855D01*
X114079201Y-87044656D01*
X114068715Y-87077123D01*
X114058214Y-87109613D01*
X114047903Y-87141485D01*
X114037992Y-87172096D01*
X114028687Y-87200806D01*
X114020196Y-87226971D01*
X114012726Y-87249950D01*
X114006485Y-87269102D01*
X114001679Y-87283783D01*
X113998517Y-87293353D01*
X113997265Y-87297019D01*
X113998197Y-87297854D01*
X114001923Y-87298578D01*
X114008826Y-87299199D01*
X114019294Y-87299723D01*
X114033712Y-87300157D01*
X114052466Y-87300508D01*
X114075942Y-87300783D01*
X114104526Y-87300988D01*
X114138603Y-87301130D01*
X114178560Y-87301215D01*
X114224783Y-87301251D01*
X114240745Y-87301253D01*
X114290423Y-87301278D01*
X114333843Y-87301361D01*
X114371521Y-87301511D01*
X114403971Y-87301736D01*
X114431709Y-87302045D01*
X114455249Y-87302449D01*
X114475107Y-87302955D01*
X114491798Y-87303574D01*
X114505838Y-87304314D01*
X114517740Y-87305184D01*
X114528022Y-87306194D01*
X114529604Y-87306375D01*
X114611055Y-87319218D01*
X114690083Y-87338365D01*
X114766518Y-87363731D01*
X114840188Y-87395232D01*
X114910922Y-87432783D01*
X114978550Y-87476302D01*
X115042900Y-87525702D01*
X115103802Y-87580900D01*
X115120870Y-87598058D01*
X115174190Y-87657273D01*
X115221507Y-87719144D01*
X115263284Y-87784315D01*
X115288984Y-87831269D01*
X115321381Y-87900040D01*
X115347639Y-87968187D01*
X115367996Y-88036712D01*
X115382694Y-88106619D01*
X115391972Y-88178911D01*
X115396070Y-88254590D01*
X115396326Y-88280000D01*
X115393855Y-88356991D01*
X115386282Y-88430270D01*
X115373366Y-88500840D01*
X115354868Y-88569703D01*
X115330548Y-88637863D01*
X115300166Y-88706322D01*
X115288984Y-88728730D01*
X115249792Y-88797894D01*
X115204845Y-88863773D01*
X115154520Y-88925957D01*
X115099194Y-88984041D01*
X115039243Y-89037617D01*
X114975043Y-89086276D01*
X114932970Y-89113984D01*
X114867725Y-89150913D01*
X114798491Y-89183165D01*
X114726665Y-89210170D01*
X114653640Y-89231361D01*
X114632304Y-89236368D01*
X114620999Y-89238909D01*
X114610783Y-89241230D01*
X114601325Y-89243342D01*
X114592289Y-89245256D01*
X114583342Y-89246983D01*
X114574153Y-89248533D01*
X114564386Y-89249918D01*
X114553710Y-89251147D01*
X114541789Y-89252232D01*
X114528293Y-89253183D01*
X114512886Y-89254012D01*
X114495236Y-89254728D01*
X114475009Y-89255343D01*
X114451872Y-89255868D01*
X114425492Y-89256313D01*
X114395536Y-89256688D01*
X114361670Y-89257006D01*
X114323561Y-89257276D01*
X114280875Y-89257509D01*
X114233280Y-89257716D01*
X114180442Y-89257909D01*
X114122027Y-89258096D01*
X114057703Y-89258290D01*
X113987136Y-89258501D01*
X113942333Y-89258638D01*
X113361639Y-89260440D01*
X113218945Y-89700706D01*
X112876152Y-89701569D01*
X112828594Y-89701671D01*
X112782992Y-89701733D01*
X112739796Y-89701757D01*
X112699458Y-89701744D01*
X112662427Y-89701696D01*
X112629155Y-89701614D01*
X112600092Y-89701499D01*
X112575689Y-89701352D01*
X112556396Y-89701175D01*
X112542665Y-89700970D01*
X112534945Y-89700737D01*
X112533360Y-89700561D01*
X112534370Y-89697193D01*
X112537263Y-89688024D01*
X112541831Y-89673696D01*
X112547866Y-89654851D01*
X112555162Y-89632130D01*
X112563511Y-89606176D01*
X112572705Y-89577631D01*
X112582538Y-89547136D01*
X112592801Y-89515334D01*
X112603287Y-89482866D01*
X112613790Y-89450374D01*
X112624101Y-89418500D01*
X112634013Y-89387886D01*
X112643319Y-89359174D01*
X112651811Y-89333006D01*
X112659282Y-89310023D01*
X112665525Y-89290868D01*
X112670332Y-89276182D01*
X112673496Y-89266608D01*
X112674751Y-89262937D01*
X112673933Y-89261791D01*
X112670166Y-89260881D01*
X112662906Y-89260192D01*
X112651612Y-89259710D01*
X112635740Y-89259419D01*
X112614748Y-89259303D01*
X112588094Y-89259348D01*
X112555235Y-89259538D01*
X112553572Y-89259550D01*
X112430787Y-89260440D01*
X112301733Y-89659211D01*
X112172680Y-90057982D01*
X111316812Y-90058000D01*
X111318760Y-90050380D01*
X111319953Y-90046552D01*
X111323076Y-90036762D01*
X111327974Y-90021492D01*
X111334491Y-90001222D01*
X111342472Y-89976434D01*
X111351760Y-89947609D01*
X111362202Y-89915230D01*
X111373639Y-89879778D01*
X111385918Y-89841735D01*
X111398883Y-89801581D01*
X111412377Y-89759798D01*
X111426245Y-89716869D01*
X111440332Y-89673274D01*
X111454482Y-89629495D01*
X111468539Y-89586014D01*
X111482348Y-89543312D01*
X111495753Y-89501871D01*
X111508598Y-89462173D01*
X111520728Y-89424698D01*
X111531987Y-89389929D01*
X111542219Y-89358346D01*
X111551269Y-89330433D01*
X111558982Y-89306669D01*
X111565201Y-89287537D01*
X111569770Y-89273518D01*
X111572535Y-89265094D01*
X111573259Y-89262937D01*
X111572407Y-89261790D01*
X111568601Y-89260880D01*
X111561298Y-89260191D01*
X111549954Y-89259709D01*
X111534028Y-89259418D01*
X111512975Y-89259304D01*
X111486253Y-89259350D01*
X111453319Y-89259543D01*
X111452188Y-89259551D01*
X111329624Y-89260440D01*
X111187012Y-89700706D01*
X110844186Y-89701569D01*
X110796625Y-89701671D01*
X110751021Y-89701733D01*
X110707822Y-89701757D01*
X110667481Y-89701744D01*
X110630448Y-89701696D01*
X110597173Y-89701614D01*
X110568107Y-89701499D01*
X110543701Y-89701352D01*
X110524406Y-89701176D01*
X110510671Y-89700970D01*
X110502948Y-89700737D01*
X110501360Y-89700561D01*
X110502370Y-89697194D01*
X110505263Y-89688025D01*
X110509830Y-89673698D01*
X110515866Y-89654854D01*
X110523161Y-89632134D01*
X110531510Y-89606182D01*
X110540704Y-89577637D01*
X110550536Y-89547144D01*
X110560798Y-89515343D01*
X110571284Y-89482876D01*
X110581785Y-89450386D01*
X110592096Y-89418514D01*
X110602007Y-89387903D01*
X110611312Y-89359193D01*
X110619803Y-89333028D01*
X110627273Y-89310049D01*
X110633514Y-89290897D01*
X110638320Y-89276216D01*
X110641482Y-89266646D01*
X110642734Y-89262980D01*
X110641802Y-89262145D01*
X110638076Y-89261421D01*
X110631173Y-89260800D01*
X110620705Y-89260276D01*
X110606287Y-89259842D01*
X110587533Y-89259491D01*
X110564057Y-89259216D01*
X110535473Y-89259011D01*
X110501396Y-89258869D01*
X110461439Y-89258784D01*
X110415216Y-89258748D01*
X110399254Y-89258746D01*
X110349576Y-89258721D01*
X110306156Y-89258638D01*
X110268478Y-89258488D01*
X110236028Y-89258263D01*
X110208290Y-89257954D01*
X110184750Y-89257550D01*
X110164892Y-89257044D01*
X110148201Y-89256425D01*
X110134161Y-89255685D01*
X110122259Y-89254815D01*
X110111977Y-89253805D01*
X110110395Y-89253624D01*
X110028944Y-89240781D01*
X109949916Y-89221634D01*
X109873481Y-89196268D01*
X109799811Y-89164767D01*
X109729077Y-89127216D01*
X109661449Y-89083697D01*
X109597099Y-89034297D01*
X109536197Y-88979099D01*
X109519129Y-88961941D01*
X109465809Y-88902726D01*
X109418492Y-88840855D01*
X109376715Y-88775684D01*
X109351015Y-88728730D01*
X109318618Y-88659959D01*
X109292360Y-88591812D01*
X109272003Y-88523287D01*
X109257305Y-88453380D01*
X109248027Y-88381088D01*
X109243929Y-88305409D01*
X109243673Y-88280000D01*
X109302480Y-88280000D01*
X109305513Y-88356956D01*
X109314700Y-88431759D01*
X109330176Y-88504972D01*
X109352074Y-88577161D01*
X109380526Y-88648889D01*
X109398892Y-88688093D01*
X109436407Y-88756515D01*
X109479518Y-88821265D01*
X109527956Y-88882064D01*
X109581454Y-88938634D01*
X109639745Y-88990695D01*
X109702563Y-89037969D01*
X109769638Y-89080177D01*
X109780683Y-89086406D01*
X109844634Y-89118353D01*
X109912522Y-89145576D01*
X109983092Y-89167701D01*
X110055088Y-89184352D01*
X110127255Y-89195155D01*
X110152842Y-89197525D01*
X110158186Y-89197677D01*
X110170121Y-89197825D01*
X110188461Y-89197969D01*
X110213023Y-89198110D01*
X110243624Y-89198246D01*
X110280079Y-89198377D01*
X110322205Y-89198505D01*
X110369819Y-89198627D01*
X110422736Y-89198745D01*
X110480773Y-89198857D01*
X110543745Y-89198964D01*
X110611470Y-89199066D01*
X110683764Y-89199162D01*
X110760442Y-89199252D01*
X110841321Y-89199336D01*
X110926218Y-89199414D01*
X111014949Y-89199485D01*
X111107329Y-89199550D01*
X111203175Y-89199608D01*
X111302304Y-89199658D01*
X111404531Y-89199702D01*
X111509674Y-89199739D01*
X111617547Y-89199767D01*
X111727969Y-89199788D01*
X111840753Y-89199802D01*
X111955718Y-89199806D01*
X112072680Y-89199803D01*
X112191453Y-89199791D01*
X112311856Y-89199771D01*
X112342013Y-89199764D01*
X112486912Y-89199731D01*
X112625195Y-89199698D01*
X112757020Y-89199665D01*
X112882542Y-89199630D01*
X113001921Y-89199594D01*
X113115313Y-89199556D01*
X113222875Y-89199515D01*
X113324764Y-89199472D01*
X113421139Y-89199425D01*
X113512156Y-89199375D01*
X113597972Y-89199320D01*
X113678745Y-89199261D01*
X113754632Y-89199196D01*
X113825790Y-89199126D01*
X113892377Y-89199050D01*
X113954550Y-89198967D01*
X114012465Y-89198877D01*
X114066282Y-89198780D01*
X114116155Y-89198675D01*
X114162244Y-89198561D01*
X114204705Y-89198438D01*
X114243696Y-89198306D01*
X114279373Y-89198165D01*
X114311895Y-89198013D01*
X114341418Y-89197850D01*
X114368099Y-89197677D01*
X114392096Y-89197491D01*
X114413567Y-89197294D01*
X114432668Y-89197084D01*
X114449557Y-89196861D01*
X114464391Y-89196624D01*
X114477327Y-89196374D01*
X114488523Y-89196109D01*
X114498135Y-89195829D01*
X114506322Y-89195534D01*
X114513240Y-89195223D01*
X114519047Y-89194896D01*
X114523900Y-89194552D01*
X114527956Y-89194191D01*
X114531373Y-89193813D01*
X114534307Y-89193416D01*
X114534880Y-89193330D01*
X114597803Y-89181921D01*
X114658477Y-89167387D01*
X114715347Y-89150136D01*
X114752520Y-89136477D01*
X114824854Y-89104110D01*
X114893547Y-89066186D01*
X114958341Y-89022989D01*
X115018978Y-88974801D01*
X115075199Y-88921907D01*
X115126747Y-88864589D01*
X115173364Y-88803132D01*
X115214792Y-88737818D01*
X115250773Y-88668931D01*
X115281049Y-88596755D01*
X115302222Y-88532627D01*
X115320040Y-88459408D01*
X115331643Y-88384296D01*
X115337031Y-88308089D01*
X115336205Y-88231589D01*
X115329165Y-88155595D01*
X115315909Y-88080908D01*
X115302222Y-88027372D01*
X115277930Y-87955276D01*
X115247673Y-87885147D01*
X115211860Y-87817640D01*
X115170898Y-87753410D01*
X115125195Y-87693111D01*
X115075158Y-87637399D01*
X115036106Y-87599980D01*
X114973871Y-87548529D01*
X114908606Y-87503132D01*
X114840355Y-87463812D01*
X114769163Y-87430587D01*
X114695075Y-87403478D01*
X114618136Y-87382506D01*
X114538391Y-87367692D01*
X114517946Y-87364943D01*
X114512020Y-87364628D01*
X114499541Y-87364323D01*
X114480732Y-87364029D01*
X114455812Y-87363745D01*
X114425004Y-87363471D01*
X114388527Y-87363208D01*
X114346604Y-87362956D01*
X114299455Y-87362714D01*
X114247302Y-87362482D01*
X114190365Y-87362261D01*
X114128865Y-87362050D01*
X114063025Y-87361850D01*
X113993064Y-87361661D01*
X113919204Y-87361481D01*
X113841666Y-87361313D01*
X113760671Y-87361154D01*
X113676440Y-87361006D01*
X113589194Y-87360869D01*
X113499155Y-87360742D01*
X113406543Y-87360625D01*
X113311580Y-87360519D01*
X113214487Y-87360424D01*
X113115484Y-87360339D01*
X113014793Y-87360264D01*
X112912635Y-87360200D01*
X112809231Y-87360146D01*
X112704802Y-87360103D01*
X112599569Y-87360070D01*
X112493753Y-87360048D01*
X112387576Y-87360036D01*
X112281258Y-87360034D01*
X112175021Y-87360043D01*
X112069086Y-87360063D01*
X111963673Y-87360093D01*
X111859004Y-87360133D01*
X111755300Y-87360184D01*
X111652782Y-87360246D01*
X111551671Y-87360317D01*
X111452188Y-87360400D01*
X111354555Y-87360492D01*
X111258992Y-87360596D01*
X111165721Y-87360709D01*
X111074962Y-87360833D01*
X110986937Y-87360968D01*
X110901866Y-87361113D01*
X110819972Y-87361269D01*
X110741474Y-87361434D01*
X110666595Y-87361611D01*
X110595554Y-87361798D01*
X110528574Y-87361995D01*
X110465875Y-87362203D01*
X110407679Y-87362421D01*
X110354206Y-87362650D01*
X110305678Y-87362889D01*
X110262315Y-87363139D01*
X110224339Y-87363399D01*
X110191971Y-87363670D01*
X110165432Y-87363951D01*
X110144943Y-87364242D01*
X110130726Y-87364544D01*
X110123000Y-87364856D01*
X110122053Y-87364943D01*
X110042051Y-87378175D01*
X109964634Y-87397567D01*
X109890036Y-87422976D01*
X109818491Y-87454257D01*
X109750232Y-87491264D01*
X109685493Y-87533854D01*
X109624508Y-87581881D01*
X109567511Y-87635202D01*
X109514735Y-87693671D01*
X109466413Y-87757144D01*
X109450629Y-87780466D01*
X109411536Y-87846165D01*
X109378145Y-87915205D01*
X109350622Y-87987027D01*
X109329134Y-88061066D01*
X109313847Y-88136761D01*
X109304929Y-88213550D01*
X109302480Y-88280000D01*
X109243673Y-88280000D01*
X109246144Y-88203008D01*
X109253717Y-88129729D01*
X109266633Y-88059159D01*
X109285131Y-87990296D01*
X109309451Y-87922136D01*
X109339833Y-87853677D01*
X109351015Y-87831269D01*
X109390207Y-87762105D01*
X109435154Y-87696226D01*
X109485479Y-87634042D01*
X109540805Y-87575958D01*
X109600756Y-87522382D01*
X109664956Y-87473723D01*
X109707029Y-87446015D01*
X109772274Y-87409086D01*
X109841508Y-87376834D01*
X109913334Y-87349829D01*
X109986359Y-87328638D01*
X110007695Y-87323631D01*
X110019000Y-87321090D01*
X110029215Y-87318769D01*
X110038673Y-87316657D01*
X110047709Y-87314743D01*
X110056655Y-87313016D01*
X110065844Y-87311466D01*
X110075610Y-87310082D01*
X110086286Y-87308853D01*
X110098206Y-87307768D01*
X110111702Y-87306816D01*
X110127108Y-87305988D01*
X110144757Y-87305271D01*
X110164983Y-87304656D01*
X110188119Y-87304131D01*
X110214497Y-87303687D01*
X110244452Y-87303311D01*
X110278316Y-87302993D01*
X110316423Y-87302723D01*
X110359107Y-87302490D01*
X110406700Y-87302283D01*
X110459535Y-87302091D01*
X110517946Y-87301903D01*
X110582267Y-87301709D01*
X110652830Y-87301499D01*
X110697715Y-87301361D01*
X111278457Y-87299560D01*
X111349810Y-87079426D01*
X111421164Y-86859293D01*
X111763902Y-86858430D01*
X111811456Y-86858328D01*
X111857054Y-86858266D01*
X111900246Y-86858242D01*
X111940581Y-86858255D01*
X111977607Y-86858303D01*
X112010875Y-86858385D01*
X112039933Y-86858500D01*
X112064331Y-86858647D01*
X112083619Y-86858824D01*
X112097344Y-86859029D01*
X112105058Y-86859262D01*
X112106640Y-86859438D01*
X112105629Y-86862806D01*
X112102736Y-86871975D01*
X112098168Y-86886303D01*
X112092133Y-86905148D01*
X112084837Y-86927869D01*
X112076488Y-86953823D01*
X112067294Y-86982368D01*
X112057461Y-87012863D01*
X112047198Y-87044665D01*
X112036712Y-87077133D01*
X112026209Y-87109625D01*
X112015898Y-87141499D01*
X112005986Y-87172113D01*
X111996680Y-87200825D01*
X111988188Y-87226993D01*
X111980717Y-87249976D01*
X111974474Y-87269131D01*
X111969667Y-87283817D01*
X111966503Y-87293391D01*
X111965248Y-87297062D01*
X111966066Y-87298208D01*
X111969833Y-87299117D01*
X111977091Y-87299806D01*
X111988384Y-87300288D01*
X112004254Y-87300580D01*
X112025242Y-87300696D01*
X112051891Y-87300651D01*
X112084743Y-87300462D01*
X112086523Y-87300449D01*
X112209403Y-87299560D01*
X112338361Y-86900816D01*
X112467320Y-86502073D01*
X112895253Y-86502036D01*
X113323187Y-86502000D01*
X113321231Y-86509620D01*
G37*
D11*
%TO.C,TP2*%
X108560000Y-71600000D02*
G75*
G02*
X105060000Y-71600000I-1750000J0D01*
G01*
X105060000Y-71600000D02*
G75*
G02*
X108560000Y-71600000I1750000J0D01*
G01*
%TO.C,Q1*%
X100050000Y-78740000D02*
X98650000Y-78740000D01*
X100060000Y-81060000D02*
X98650000Y-81060000D01*
X100670000Y-81340000D02*
X100190000Y-81340000D01*
X100430000Y-81010000D01*
X100670000Y-81340000D01*
G36*
X100670000Y-81340000D02*
G01*
X100190000Y-81340000D01*
X100430000Y-81010000D01*
X100670000Y-81340000D01*
G37*
%TO.C,TP4*%
X119050000Y-70850000D02*
G75*
G02*
X117150000Y-70850000I-950000J0D01*
G01*
X117150000Y-70850000D02*
G75*
G02*
X119050000Y-70850000I950000J0D01*
G01*
%TO.C,C2*%
X118070580Y-78750000D02*
X117789420Y-78750000D01*
X118070580Y-79770000D02*
X117789420Y-79770000D01*
%TO.C,C1*%
X121859420Y-78750000D02*
X122140580Y-78750000D01*
X121859420Y-79770000D02*
X122140580Y-79770000D01*
%TO.C,U1*%
X120540000Y-72850000D02*
X118340000Y-72850000D01*
X120540000Y-72850000D02*
X122740000Y-72850000D01*
X120540000Y-78070000D02*
X118340000Y-78070000D01*
X120540000Y-78070000D02*
X122740000Y-78070000D01*
X117640000Y-73050000D02*
X117400000Y-72720000D01*
X117880000Y-72720000D01*
X117640000Y-73050000D01*
G36*
X117640000Y-73050000D02*
G01*
X117400000Y-72720000D01*
X117880000Y-72720000D01*
X117640000Y-73050000D01*
G37*
%TO.C,U2*%
X120540000Y-80450000D02*
X118590000Y-80450000D01*
X120540000Y-80450000D02*
X122490000Y-80450000D01*
X120540000Y-90570000D02*
X118590000Y-90570000D01*
X120540000Y-90570000D02*
X122490000Y-90570000D01*
X117840000Y-80505000D02*
X117600000Y-80175000D01*
X118080000Y-80175000D01*
X117840000Y-80505000D01*
G36*
X117840000Y-80505000D02*
G01*
X117600000Y-80175000D01*
X118080000Y-80175000D01*
X117840000Y-80505000D01*
G37*
%TO.C,R2*%
X112757500Y-78457258D02*
X112757500Y-77982742D01*
X113802500Y-78457258D02*
X113802500Y-77982742D01*
%TO.C,J2*%
X110240000Y-72640000D02*
X110240000Y-71310000D01*
X111570000Y-72640000D02*
X110240000Y-72640000D01*
X112840000Y-69980000D02*
X115440000Y-69980000D01*
X112840000Y-72640000D02*
X112840000Y-69980000D01*
X112840000Y-72640000D02*
X115440000Y-72640000D01*
X115440000Y-72640000D02*
X115440000Y-69980000D01*
%TO.C,R4*%
X97902742Y-76617500D02*
X98377258Y-76617500D01*
X97902742Y-77662500D02*
X98377258Y-77662500D01*
%TO.C,D1*%
X104337500Y-80530000D02*
X106297500Y-80530000D01*
X104337500Y-81730000D02*
X106297500Y-81730000D01*
X106297500Y-81730000D02*
X106297500Y-80530000D01*
%TO.C,TP3*%
X122230000Y-70850000D02*
G75*
G02*
X120330000Y-70850000I-950000J0D01*
G01*
X120330000Y-70850000D02*
G75*
G02*
X122230000Y-70850000I950000J0D01*
G01*
%TO.C,J1*%
X97680000Y-89120000D02*
X97680000Y-87790000D01*
X99010000Y-89120000D02*
X97680000Y-89120000D01*
X100280000Y-86460000D02*
X107960000Y-86460000D01*
X100280000Y-89120000D02*
X100280000Y-86460000D01*
X100280000Y-89120000D02*
X107960000Y-89120000D01*
X107960000Y-89120000D02*
X107960000Y-86460000D01*
%TD*%
M02*
