%TF.GenerationSoftware,KiCad,Pcbnew,9.0.0*%
%TF.CreationDate,2026-08-10T18:31:41-05:00*%
%TF.ProjectId,PDM Logic Test v2.0,50444d20-4c6f-4676-9963-205465737420,rev?*%
%TF.SameCoordinates,Original*%
%TF.FileFunction,Copper,L3,Inr*%
%TF.FilePolarity,Positive*%
%FSLAX46Y46*%
G04 Gerber Fmt 4.6, Leading zero omitted, Abs format (unit mm)*
G04 Created by KiCad (PCBNEW 9.0.0) date 2026-08-10 18:31:41*
%MOMM*%
%LPD*%
G01*
G04 APERTURE LIST*
%TA.AperFunction,ComponentPad*%
%ADD10C,3.000000*%
%TD*%
%TA.AperFunction,ComponentPad*%
%ADD11R,1.700000X1.700000*%
%TD*%
%TA.AperFunction,ComponentPad*%
%ADD12O,1.700000X1.700000*%
%TD*%
%TA.AperFunction,ViaPad*%
%ADD13C,0.500000*%
%TD*%
%TA.AperFunction,ViaPad*%
%ADD14C,0.600000*%
%TD*%
G04 APERTURE END LIST*
D10*
%TO.N,C1_Out*%
%TO.C,TP1*%
X98760000Y-83640000D03*
%TD*%
%TO.N,+12V*%
%TO.C,TP2*%
X106810000Y-71600000D03*
%TD*%
D11*
%TO.N,+3.3V*%
%TO.C,J2*%
X111570000Y-71310000D03*
D12*
%TO.N,GND*%
X114110000Y-71310000D03*
%TD*%
D11*
%TO.N,C1_Enable*%
%TO.C,J1*%
X99010000Y-87790000D03*
D12*
%TO.N,C1_Reset*%
X101550000Y-87790000D03*
%TO.N,C1_Fault*%
X104090000Y-87790000D03*
%TO.N,C1_CS*%
X106630000Y-87790000D03*
%TD*%
D13*
%TO.N,GND*%
X124230000Y-82930000D03*
D14*
X115860000Y-71180000D03*
X108200000Y-78750000D03*
D13*
X116320000Y-78330000D03*
X98510000Y-78200000D03*
D14*
X108380000Y-83850000D03*
D13*
X108280000Y-86130000D03*
X116154514Y-75236957D03*
X111440000Y-73920000D03*
X108970000Y-89080000D03*
X119330000Y-80410000D03*
X121720000Y-73410000D03*
X124100000Y-79840000D03*
D14*
X121280000Y-70850000D03*
D13*
%TO.N,+3.3V*%
X121230000Y-84640000D03*
D14*
X119260000Y-77590000D03*
X118100000Y-70850000D03*
D13*
X121225000Y-80405000D03*
X121190000Y-77560000D03*
D14*
X114300000Y-78770000D03*
%TO.N,Net-(Q1A-G)*%
X109930000Y-80260000D03*
X106760000Y-80260000D03*
X101830000Y-80240000D03*
X111260000Y-81530000D03*
%TO.N,C1_Reset*%
X119690000Y-84820000D03*
%TO.N,C1_CS*%
X112470000Y-76580000D03*
X112180000Y-81540000D03*
X119050000Y-76280000D03*
D13*
%TO.N,C1_Fault*%
X114280000Y-80250000D03*
X116677500Y-81922500D03*
D14*
X105670000Y-84430000D03*
X107310000Y-81480000D03*
%TD*%
%TA.AperFunction,Conductor*%
%TO.N,+3.3V*%
G36*
X122883809Y-68289777D02*
G01*
X122885396Y-68289881D01*
X122886066Y-68289798D01*
X122898657Y-68290031D01*
X122903322Y-68291282D01*
X122965957Y-68291282D01*
X122967088Y-68291303D01*
X122973631Y-68291597D01*
X123185157Y-68306728D01*
X123202662Y-68309245D01*
X123405542Y-68353380D01*
X123422515Y-68358363D01*
X123617061Y-68430926D01*
X123633135Y-68438267D01*
X123815373Y-68537778D01*
X123830252Y-68547340D01*
X123983109Y-68661768D01*
X123996468Y-68671768D01*
X124009838Y-68683354D01*
X124156645Y-68830161D01*
X124168231Y-68843531D01*
X124292659Y-69009747D01*
X124302223Y-69024629D01*
X124401729Y-69206857D01*
X124409076Y-69222945D01*
X124481635Y-69417483D01*
X124486619Y-69434458D01*
X124530753Y-69637333D01*
X124533271Y-69654845D01*
X124548400Y-69866351D01*
X124548716Y-69875190D01*
X124548718Y-69907119D01*
X124548718Y-69944266D01*
X124548719Y-69944287D01*
X124549074Y-79028093D01*
X124529392Y-79095133D01*
X124476590Y-79140890D01*
X124407432Y-79150837D01*
X124377623Y-79142660D01*
X124345059Y-79129172D01*
X124318913Y-79118342D01*
X124318911Y-79118341D01*
X124318907Y-79118340D01*
X124173920Y-79089500D01*
X124173918Y-79089500D01*
X124026082Y-79089500D01*
X124026080Y-79089500D01*
X123881092Y-79118340D01*
X123881082Y-79118343D01*
X123744511Y-79174912D01*
X123744498Y-79174919D01*
X123621584Y-79257048D01*
X123621580Y-79257051D01*
X123517051Y-79361580D01*
X123517048Y-79361584D01*
X123434919Y-79484498D01*
X123434912Y-79484511D01*
X123378343Y-79621082D01*
X123378340Y-79621092D01*
X123349500Y-79766079D01*
X123349500Y-79766082D01*
X123349500Y-79913918D01*
X123349500Y-79913920D01*
X123349499Y-79913920D01*
X123378340Y-80058907D01*
X123378343Y-80058917D01*
X123434912Y-80195488D01*
X123434919Y-80195501D01*
X123517048Y-80318415D01*
X123517051Y-80318419D01*
X123621580Y-80422948D01*
X123621584Y-80422951D01*
X123744498Y-80505080D01*
X123744511Y-80505087D01*
X123874892Y-80559092D01*
X123881087Y-80561658D01*
X123881091Y-80561658D01*
X123881092Y-80561659D01*
X124026079Y-80590500D01*
X124026082Y-80590500D01*
X124173920Y-80590500D01*
X124271462Y-80571096D01*
X124318913Y-80561658D01*
X124377688Y-80537312D01*
X124447154Y-80529844D01*
X124509633Y-80561118D01*
X124545286Y-80621207D01*
X124549138Y-80651869D01*
X124549194Y-82077189D01*
X124529512Y-82144229D01*
X124476710Y-82189986D01*
X124407552Y-82199933D01*
X124401002Y-82198811D01*
X124303920Y-82179500D01*
X124303918Y-82179500D01*
X124156082Y-82179500D01*
X124156080Y-82179500D01*
X124011092Y-82208340D01*
X124011082Y-82208343D01*
X123874511Y-82264912D01*
X123874498Y-82264919D01*
X123751584Y-82347048D01*
X123751580Y-82347051D01*
X123647051Y-82451580D01*
X123647048Y-82451584D01*
X123564919Y-82574498D01*
X123564912Y-82574511D01*
X123508343Y-82711082D01*
X123508340Y-82711092D01*
X123479500Y-82856079D01*
X123479500Y-82856082D01*
X123479500Y-83003918D01*
X123479500Y-83003920D01*
X123479499Y-83003920D01*
X123508340Y-83148907D01*
X123508343Y-83148917D01*
X123564912Y-83285488D01*
X123564919Y-83285501D01*
X123647048Y-83408415D01*
X123647051Y-83408419D01*
X123751580Y-83512948D01*
X123751584Y-83512951D01*
X123874498Y-83595080D01*
X123874511Y-83595087D01*
X124011082Y-83651656D01*
X124011087Y-83651658D01*
X124011091Y-83651658D01*
X124011092Y-83651659D01*
X124156079Y-83680500D01*
X124156082Y-83680500D01*
X124303919Y-83680500D01*
X124336591Y-83674000D01*
X124401068Y-83661175D01*
X124470659Y-83667402D01*
X124525837Y-83710264D01*
X124549082Y-83776154D01*
X124549260Y-83782787D01*
X124549500Y-89889214D01*
X124549500Y-89895572D01*
X124549184Y-89904418D01*
X124534055Y-90115941D01*
X124531537Y-90133453D01*
X124487404Y-90336329D01*
X124482420Y-90353304D01*
X124409863Y-90547838D01*
X124402513Y-90563932D01*
X124303009Y-90746159D01*
X124293444Y-90761042D01*
X124169020Y-90927253D01*
X124157434Y-90940624D01*
X124010624Y-91087434D01*
X123997253Y-91099020D01*
X123831042Y-91223444D01*
X123816159Y-91233009D01*
X123633932Y-91332513D01*
X123617838Y-91339863D01*
X123423304Y-91412420D01*
X123406329Y-91417404D01*
X123203453Y-91461537D01*
X123185941Y-91464055D01*
X122974438Y-91479182D01*
X122965540Y-91479498D01*
X97194748Y-91468748D01*
X97194274Y-91468718D01*
X97186678Y-91468718D01*
X97125215Y-91468718D01*
X97116369Y-91468402D01*
X97088734Y-91466425D01*
X96904844Y-91453271D01*
X96887333Y-91450753D01*
X96684458Y-91406619D01*
X96667483Y-91401635D01*
X96472945Y-91329076D01*
X96456857Y-91321729D01*
X96274629Y-91222223D01*
X96259747Y-91212659D01*
X96093531Y-91088231D01*
X96080161Y-91076645D01*
X95933354Y-90929838D01*
X95921768Y-90916468D01*
X95797340Y-90750252D01*
X95787775Y-90735369D01*
X95688267Y-90553135D01*
X95680926Y-90537061D01*
X95608363Y-90342515D01*
X95603380Y-90325541D01*
X95559246Y-90122666D01*
X95556728Y-90105154D01*
X95552419Y-90044918D01*
X95541598Y-89893631D01*
X95541282Y-89884784D01*
X95541282Y-89821255D01*
X95540489Y-89809114D01*
X95540518Y-89745080D01*
X95540787Y-89153920D01*
X108219499Y-89153920D01*
X108248340Y-89298907D01*
X108248343Y-89298917D01*
X108304912Y-89435488D01*
X108304919Y-89435501D01*
X108387048Y-89558415D01*
X108387051Y-89558419D01*
X108491580Y-89662948D01*
X108491584Y-89662951D01*
X108614498Y-89745080D01*
X108614511Y-89745087D01*
X108751082Y-89801656D01*
X108751087Y-89801658D01*
X108751091Y-89801658D01*
X108751092Y-89801659D01*
X108896079Y-89830500D01*
X108896082Y-89830500D01*
X109043920Y-89830500D01*
X109151430Y-89809114D01*
X109188913Y-89801658D01*
X109325495Y-89745084D01*
X109448416Y-89662951D01*
X109552951Y-89558416D01*
X109635084Y-89435495D01*
X109691658Y-89298913D01*
X109720500Y-89153918D01*
X109720500Y-89006082D01*
X109720500Y-89006079D01*
X109691659Y-88861092D01*
X109691658Y-88861091D01*
X109691658Y-88861087D01*
X109691656Y-88861082D01*
X109635087Y-88724511D01*
X109635080Y-88724498D01*
X109552951Y-88601584D01*
X109552948Y-88601580D01*
X109448419Y-88497051D01*
X109448415Y-88497048D01*
X109325501Y-88414919D01*
X109325488Y-88414912D01*
X109188917Y-88358343D01*
X109188907Y-88358340D01*
X109043920Y-88329500D01*
X109043918Y-88329500D01*
X108896082Y-88329500D01*
X108896080Y-88329500D01*
X108751092Y-88358340D01*
X108751082Y-88358343D01*
X108614511Y-88414912D01*
X108614498Y-88414919D01*
X108491584Y-88497048D01*
X108491580Y-88497051D01*
X108387051Y-88601580D01*
X108387048Y-88601584D01*
X108304919Y-88724498D01*
X108304912Y-88724511D01*
X108248343Y-88861082D01*
X108248340Y-88861092D01*
X108219500Y-89006079D01*
X108219500Y-89006082D01*
X108219500Y-89153918D01*
X108219500Y-89153920D01*
X108219499Y-89153920D01*
X95540787Y-89153920D01*
X95541815Y-86892135D01*
X97659500Y-86892135D01*
X97659500Y-88687870D01*
X97659501Y-88687876D01*
X97665908Y-88747483D01*
X97716202Y-88882328D01*
X97716206Y-88882335D01*
X97802452Y-88997544D01*
X97802455Y-88997547D01*
X97917664Y-89083793D01*
X97917671Y-89083797D01*
X98052517Y-89134091D01*
X98052516Y-89134091D01*
X98059444Y-89134835D01*
X98112127Y-89140500D01*
X99907872Y-89140499D01*
X99967483Y-89134091D01*
X100102331Y-89083796D01*
X100217546Y-88997546D01*
X100303796Y-88882331D01*
X100352810Y-88750916D01*
X100394681Y-88694984D01*
X100460145Y-88670566D01*
X100528418Y-88685417D01*
X100556673Y-88706569D01*
X100670213Y-88820109D01*
X100842179Y-88945048D01*
X100842181Y-88945049D01*
X100842184Y-88945051D01*
X101031588Y-89041557D01*
X101233757Y-89107246D01*
X101443713Y-89140500D01*
X101443714Y-89140500D01*
X101656286Y-89140500D01*
X101656287Y-89140500D01*
X101866243Y-89107246D01*
X102068412Y-89041557D01*
X102257816Y-88945051D01*
X102344138Y-88882335D01*
X102429786Y-88820109D01*
X102429788Y-88820106D01*
X102429792Y-88820104D01*
X102580104Y-88669792D01*
X102580106Y-88669788D01*
X102580109Y-88669786D01*
X102705048Y-88497820D01*
X102705047Y-88497820D01*
X102705051Y-88497816D01*
X102709514Y-88489054D01*
X102757488Y-88438259D01*
X102825308Y-88421463D01*
X102891444Y-88443999D01*
X102930486Y-88489056D01*
X102934951Y-88497820D01*
X103059890Y-88669786D01*
X103210213Y-88820109D01*
X103382179Y-88945048D01*
X103382181Y-88945049D01*
X103382184Y-88945051D01*
X103571588Y-89041557D01*
X103773757Y-89107246D01*
X103983713Y-89140500D01*
X103983714Y-89140500D01*
X104196286Y-89140500D01*
X104196287Y-89140500D01*
X104406243Y-89107246D01*
X104608412Y-89041557D01*
X104797816Y-88945051D01*
X104884138Y-88882335D01*
X104969786Y-88820109D01*
X104969788Y-88820106D01*
X104969792Y-88820104D01*
X105120104Y-88669792D01*
X105120106Y-88669788D01*
X105120109Y-88669786D01*
X105245048Y-88497820D01*
X105245047Y-88497820D01*
X105245051Y-88497816D01*
X105249514Y-88489054D01*
X105297488Y-88438259D01*
X105365308Y-88421463D01*
X105431444Y-88443999D01*
X105470486Y-88489056D01*
X105474951Y-88497820D01*
X105599890Y-88669786D01*
X105750213Y-88820109D01*
X105922179Y-88945048D01*
X105922181Y-88945049D01*
X105922184Y-88945051D01*
X106111588Y-89041557D01*
X106313757Y-89107246D01*
X106523713Y-89140500D01*
X106523714Y-89140500D01*
X106736286Y-89140500D01*
X106736287Y-89140500D01*
X106946243Y-89107246D01*
X107148412Y-89041557D01*
X107337816Y-88945051D01*
X107509792Y-88820104D01*
X107660104Y-88669792D01*
X107660106Y-88669788D01*
X107660109Y-88669786D01*
X107785048Y-88497820D01*
X107785047Y-88497820D01*
X107785051Y-88497816D01*
X107881557Y-88308412D01*
X107947246Y-88106243D01*
X107980500Y-87896287D01*
X107980500Y-87683713D01*
X107947246Y-87473757D01*
X107881557Y-87271588D01*
X107785051Y-87082184D01*
X107785049Y-87082181D01*
X107785048Y-87082179D01*
X107662489Y-86913489D01*
X107662484Y-86913484D01*
X107660104Y-86910208D01*
X107509792Y-86759896D01*
X107501008Y-86753514D01*
X107501007Y-86753513D01*
X107337819Y-86634951D01*
X107337818Y-86634950D01*
X107337816Y-86634949D01*
X107148412Y-86538443D01*
X106946243Y-86472754D01*
X106946241Y-86472753D01*
X106946240Y-86472753D01*
X106784957Y-86447208D01*
X106736287Y-86439500D01*
X106523713Y-86439500D01*
X106475042Y-86447208D01*
X106313760Y-86472753D01*
X106111585Y-86538444D01*
X105922179Y-86634951D01*
X105750213Y-86759890D01*
X105599890Y-86910213D01*
X105474949Y-87082182D01*
X105470484Y-87090946D01*
X105422509Y-87141742D01*
X105354688Y-87158536D01*
X105288553Y-87135998D01*
X105249516Y-87090946D01*
X105245050Y-87082182D01*
X105120109Y-86910213D01*
X104969786Y-86759890D01*
X104797820Y-86634951D01*
X104608414Y-86538444D01*
X104608413Y-86538443D01*
X104608412Y-86538443D01*
X104406243Y-86472754D01*
X104406241Y-86472753D01*
X104406240Y-86472753D01*
X104244957Y-86447208D01*
X104196287Y-86439500D01*
X103983713Y-86439500D01*
X103935042Y-86447208D01*
X103773760Y-86472753D01*
X103571585Y-86538444D01*
X103382179Y-86634951D01*
X103210213Y-86759890D01*
X103059890Y-86910213D01*
X102934949Y-87082182D01*
X102930484Y-87090946D01*
X102882509Y-87141742D01*
X102814688Y-87158536D01*
X102748553Y-87135998D01*
X102709516Y-87090946D01*
X102705050Y-87082182D01*
X102580109Y-86910213D01*
X102429786Y-86759890D01*
X102257820Y-86634951D01*
X102068414Y-86538444D01*
X102068413Y-86538443D01*
X102068412Y-86538443D01*
X101866243Y-86472754D01*
X101866241Y-86472753D01*
X101866240Y-86472753D01*
X101704957Y-86447208D01*
X101656287Y-86439500D01*
X101443713Y-86439500D01*
X101395042Y-86447208D01*
X101233760Y-86472753D01*
X101031585Y-86538444D01*
X100842179Y-86634951D01*
X100670215Y-86759889D01*
X100556673Y-86873431D01*
X100495350Y-86906915D01*
X100425658Y-86901931D01*
X100369725Y-86860059D01*
X100352810Y-86829082D01*
X100303797Y-86697671D01*
X100303793Y-86697664D01*
X100217547Y-86582455D01*
X100217544Y-86582452D01*
X100102335Y-86496206D01*
X100102328Y-86496202D01*
X99967482Y-86445908D01*
X99967483Y-86445908D01*
X99907883Y-86439501D01*
X99907881Y-86439500D01*
X99907873Y-86439500D01*
X99907864Y-86439500D01*
X98112129Y-86439500D01*
X98112123Y-86439501D01*
X98052516Y-86445908D01*
X97917671Y-86496202D01*
X97917664Y-86496206D01*
X97802455Y-86582452D01*
X97802452Y-86582455D01*
X97716206Y-86697664D01*
X97716202Y-86697671D01*
X97665908Y-86832517D01*
X97659501Y-86892116D01*
X97659500Y-86892135D01*
X95541815Y-86892135D01*
X95542128Y-86203920D01*
X107529499Y-86203920D01*
X107558340Y-86348907D01*
X107558343Y-86348917D01*
X107614912Y-86485488D01*
X107614919Y-86485501D01*
X107677708Y-86579471D01*
X107677709Y-86579472D01*
X107697049Y-86608416D01*
X107801584Y-86712951D01*
X107834942Y-86735240D01*
X107834943Y-86735241D01*
X107924498Y-86795080D01*
X107924511Y-86795087D01*
X108014876Y-86832517D01*
X108061087Y-86851658D01*
X108061091Y-86851658D01*
X108061092Y-86851659D01*
X108206079Y-86880500D01*
X108206082Y-86880500D01*
X108353920Y-86880500D01*
X108456679Y-86860059D01*
X108498913Y-86851658D01*
X108635495Y-86795084D01*
X108758416Y-86712951D01*
X108862951Y-86608416D01*
X108945084Y-86485495D01*
X108950362Y-86472754D01*
X109001656Y-86348917D01*
X109001658Y-86348913D01*
X109030500Y-86203918D01*
X109030500Y-86056082D01*
X109030500Y-86056079D01*
X109001659Y-85911092D01*
X109001658Y-85911091D01*
X109001658Y-85911087D01*
X109001656Y-85911082D01*
X108945087Y-85774511D01*
X108945080Y-85774498D01*
X108862951Y-85651584D01*
X108862948Y-85651580D01*
X108758419Y-85547051D01*
X108758415Y-85547048D01*
X108635501Y-85464919D01*
X108635488Y-85464912D01*
X108498917Y-85408343D01*
X108498907Y-85408340D01*
X108353920Y-85379500D01*
X108353918Y-85379500D01*
X108206082Y-85379500D01*
X108206080Y-85379500D01*
X108061092Y-85408340D01*
X108061082Y-85408343D01*
X107924511Y-85464912D01*
X107924498Y-85464919D01*
X107801584Y-85547048D01*
X107801580Y-85547051D01*
X107697051Y-85651580D01*
X107697048Y-85651584D01*
X107614919Y-85774498D01*
X107614912Y-85774511D01*
X107558343Y-85911082D01*
X107558340Y-85911092D01*
X107529500Y-86056079D01*
X107529500Y-86056082D01*
X107529500Y-86203918D01*
X107529500Y-86203920D01*
X107529499Y-86203920D01*
X95542128Y-86203920D01*
X95543352Y-83508872D01*
X96759500Y-83508872D01*
X96759500Y-83771127D01*
X96786123Y-83973339D01*
X96793730Y-84031116D01*
X96846799Y-84229172D01*
X96861602Y-84284418D01*
X96861605Y-84284428D01*
X96961953Y-84526690D01*
X96961958Y-84526700D01*
X97093075Y-84753803D01*
X97252718Y-84961851D01*
X97252726Y-84961860D01*
X97438140Y-85147274D01*
X97438148Y-85147281D01*
X97646196Y-85306924D01*
X97873299Y-85438041D01*
X97873309Y-85438046D01*
X98115571Y-85538394D01*
X98115581Y-85538398D01*
X98368884Y-85606270D01*
X98628880Y-85640500D01*
X98628887Y-85640500D01*
X98891113Y-85640500D01*
X98891120Y-85640500D01*
X99151116Y-85606270D01*
X99404419Y-85538398D01*
X99581830Y-85464912D01*
X99646690Y-85438046D01*
X99646691Y-85438045D01*
X99646697Y-85438043D01*
X99873803Y-85306924D01*
X100081851Y-85147282D01*
X100081855Y-85147277D01*
X100081860Y-85147274D01*
X100267274Y-84961860D01*
X100267277Y-84961855D01*
X100267282Y-84961851D01*
X100426924Y-84753803D01*
X100558043Y-84526697D01*
X100630756Y-84351153D01*
X104869500Y-84351153D01*
X104869500Y-84508846D01*
X104900261Y-84663489D01*
X104900264Y-84663501D01*
X104960602Y-84809172D01*
X104960609Y-84809185D01*
X105048210Y-84940288D01*
X105048213Y-84940292D01*
X105159707Y-85051786D01*
X105159711Y-85051789D01*
X105290814Y-85139390D01*
X105290827Y-85139397D01*
X105435139Y-85199172D01*
X105436503Y-85199737D01*
X105591153Y-85230499D01*
X105591156Y-85230500D01*
X105591158Y-85230500D01*
X105748844Y-85230500D01*
X105748845Y-85230499D01*
X105903497Y-85199737D01*
X106049179Y-85139394D01*
X106180289Y-85051789D01*
X106291789Y-84940289D01*
X106379394Y-84809179D01*
X106407571Y-84741153D01*
X118889500Y-84741153D01*
X118889500Y-84898846D01*
X118920261Y-85053489D01*
X118920264Y-85053501D01*
X118980602Y-85199172D01*
X118980609Y-85199185D01*
X119068210Y-85330288D01*
X119068213Y-85330292D01*
X119179707Y-85441786D01*
X119179711Y-85441789D01*
X119310814Y-85529390D01*
X119310827Y-85529397D01*
X119456498Y-85589735D01*
X119456503Y-85589737D01*
X119611153Y-85620499D01*
X119611156Y-85620500D01*
X119611158Y-85620500D01*
X119768844Y-85620500D01*
X119768845Y-85620499D01*
X119923497Y-85589737D01*
X120069179Y-85529394D01*
X120200289Y-85441789D01*
X120311789Y-85330289D01*
X120399394Y-85199179D01*
X120459737Y-85053497D01*
X120490500Y-84898842D01*
X120490500Y-84741158D01*
X120490500Y-84741155D01*
X120490499Y-84741153D01*
X120475052Y-84663497D01*
X120459737Y-84586503D01*
X120459735Y-84586498D01*
X120399397Y-84440827D01*
X120399390Y-84440814D01*
X120311789Y-84309711D01*
X120311786Y-84309707D01*
X120200292Y-84198213D01*
X120200288Y-84198210D01*
X120069185Y-84110609D01*
X120069172Y-84110602D01*
X119923501Y-84050264D01*
X119923489Y-84050261D01*
X119768845Y-84019500D01*
X119768842Y-84019500D01*
X119611158Y-84019500D01*
X119611155Y-84019500D01*
X119456510Y-84050261D01*
X119456498Y-84050264D01*
X119310827Y-84110602D01*
X119310814Y-84110609D01*
X119179711Y-84198210D01*
X119179707Y-84198213D01*
X119068213Y-84309707D01*
X119068210Y-84309711D01*
X118980609Y-84440814D01*
X118980602Y-84440827D01*
X118920264Y-84586498D01*
X118920261Y-84586510D01*
X118889500Y-84741153D01*
X106407571Y-84741153D01*
X106439737Y-84663497D01*
X106470500Y-84508842D01*
X106470500Y-84351158D01*
X106470500Y-84351155D01*
X106470499Y-84351153D01*
X106446238Y-84229185D01*
X106439737Y-84196503D01*
X106404156Y-84110602D01*
X106379397Y-84050827D01*
X106379390Y-84050814D01*
X106291789Y-83919711D01*
X106291786Y-83919707D01*
X106180292Y-83808213D01*
X106180288Y-83808210D01*
X106124829Y-83771153D01*
X107579500Y-83771153D01*
X107579500Y-83928846D01*
X107610261Y-84083489D01*
X107610264Y-84083501D01*
X107670602Y-84229172D01*
X107670609Y-84229185D01*
X107758210Y-84360288D01*
X107758213Y-84360292D01*
X107869707Y-84471786D01*
X107869711Y-84471789D01*
X108000814Y-84559390D01*
X108000827Y-84559397D01*
X108066256Y-84586498D01*
X108146503Y-84619737D01*
X108301153Y-84650499D01*
X108301156Y-84650500D01*
X108301158Y-84650500D01*
X108458844Y-84650500D01*
X108458845Y-84650499D01*
X108613497Y-84619737D01*
X108759179Y-84559394D01*
X108890289Y-84471789D01*
X109001789Y-84360289D01*
X109089394Y-84229179D01*
X109149737Y-84083497D01*
X109180500Y-83928842D01*
X109180500Y-83771158D01*
X109180500Y-83771155D01*
X109180499Y-83771153D01*
X109170445Y-83720609D01*
X109149737Y-83616503D01*
X109140865Y-83595084D01*
X109089397Y-83470827D01*
X109089390Y-83470814D01*
X109001789Y-83339711D01*
X109001786Y-83339707D01*
X108890292Y-83228213D01*
X108890288Y-83228210D01*
X108759185Y-83140609D01*
X108759172Y-83140602D01*
X108613501Y-83080264D01*
X108613489Y-83080261D01*
X108458845Y-83049500D01*
X108458842Y-83049500D01*
X108301158Y-83049500D01*
X108301155Y-83049500D01*
X108146510Y-83080261D01*
X108146498Y-83080264D01*
X108000827Y-83140602D01*
X108000814Y-83140609D01*
X107869711Y-83228210D01*
X107869707Y-83228213D01*
X107758213Y-83339707D01*
X107758210Y-83339711D01*
X107670609Y-83470814D01*
X107670602Y-83470827D01*
X107610264Y-83616498D01*
X107610261Y-83616510D01*
X107579500Y-83771153D01*
X106124829Y-83771153D01*
X106049185Y-83720609D01*
X106049172Y-83720602D01*
X105903501Y-83660264D01*
X105903489Y-83660261D01*
X105748845Y-83629500D01*
X105748842Y-83629500D01*
X105591158Y-83629500D01*
X105591155Y-83629500D01*
X105436510Y-83660261D01*
X105436498Y-83660264D01*
X105290827Y-83720602D01*
X105290814Y-83720609D01*
X105159711Y-83808210D01*
X105159707Y-83808213D01*
X105048213Y-83919707D01*
X105048210Y-83919711D01*
X104960609Y-84050814D01*
X104960602Y-84050827D01*
X104900264Y-84196498D01*
X104900261Y-84196510D01*
X104869500Y-84351153D01*
X100630756Y-84351153D01*
X100658398Y-84284419D01*
X100726270Y-84031116D01*
X100760500Y-83771120D01*
X100760500Y-83508880D01*
X100726270Y-83248884D01*
X100658398Y-82995581D01*
X100600616Y-82856082D01*
X100558046Y-82753309D01*
X100558041Y-82753299D01*
X100426924Y-82526196D01*
X100276759Y-82330500D01*
X100267282Y-82318149D01*
X100267281Y-82318148D01*
X100267274Y-82318140D01*
X100081860Y-82132726D01*
X100081851Y-82132718D01*
X99873803Y-81973075D01*
X99646700Y-81841958D01*
X99646690Y-81841953D01*
X99404428Y-81741605D01*
X99404421Y-81741603D01*
X99404419Y-81741602D01*
X99151116Y-81673730D01*
X99093339Y-81666123D01*
X98891127Y-81639500D01*
X98891120Y-81639500D01*
X98628880Y-81639500D01*
X98628872Y-81639500D01*
X98397772Y-81669926D01*
X98368884Y-81673730D01*
X98220501Y-81713489D01*
X98115581Y-81741602D01*
X98115571Y-81741605D01*
X97873309Y-81841953D01*
X97873299Y-81841958D01*
X97646196Y-81973075D01*
X97438148Y-82132718D01*
X97252718Y-82318148D01*
X97093075Y-82526196D01*
X96961958Y-82753299D01*
X96961953Y-82753309D01*
X96861605Y-82995571D01*
X96861602Y-82995581D01*
X96799270Y-83228211D01*
X96793730Y-83248885D01*
X96759500Y-83508872D01*
X95543352Y-83508872D01*
X95543582Y-83003920D01*
X95544483Y-81019711D01*
X95544873Y-80161153D01*
X101029500Y-80161153D01*
X101029500Y-80318846D01*
X101060261Y-80473489D01*
X101060264Y-80473501D01*
X101120602Y-80619172D01*
X101120609Y-80619185D01*
X101208210Y-80750288D01*
X101208213Y-80750292D01*
X101319707Y-80861786D01*
X101319711Y-80861789D01*
X101450814Y-80949390D01*
X101450827Y-80949397D01*
X101596498Y-81009735D01*
X101596503Y-81009737D01*
X101751153Y-81040499D01*
X101751156Y-81040500D01*
X101751158Y-81040500D01*
X101908844Y-81040500D01*
X101908845Y-81040499D01*
X102063497Y-81009737D01*
X102209179Y-80949394D01*
X102340289Y-80861789D01*
X102451789Y-80750289D01*
X102539394Y-80619179D01*
X102542794Y-80610972D01*
X102591456Y-80493489D01*
X102599737Y-80473497D01*
X102630500Y-80318842D01*
X102630500Y-80181153D01*
X105959500Y-80181153D01*
X105959500Y-80338846D01*
X105990261Y-80493489D01*
X105990264Y-80493501D01*
X106050602Y-80639172D01*
X106050609Y-80639185D01*
X106138210Y-80770288D01*
X106138213Y-80770292D01*
X106249707Y-80881786D01*
X106249711Y-80881789D01*
X106380814Y-80969390D01*
X106380818Y-80969392D01*
X106380821Y-80969394D01*
X106500327Y-81018894D01*
X106554728Y-81062733D01*
X106576793Y-81129027D01*
X106567434Y-81180905D01*
X106540263Y-81246503D01*
X106540261Y-81246510D01*
X106509500Y-81401153D01*
X106509500Y-81558846D01*
X106540261Y-81713489D01*
X106540264Y-81713501D01*
X106600602Y-81859172D01*
X106600609Y-81859185D01*
X106688210Y-81990288D01*
X106688213Y-81990292D01*
X106799707Y-82101786D01*
X106799711Y-82101789D01*
X106930814Y-82189390D01*
X106930827Y-82189397D01*
X107075665Y-82249390D01*
X107076503Y-82249737D01*
X107218565Y-82277995D01*
X107231153Y-82280499D01*
X107231156Y-82280500D01*
X107231158Y-82280500D01*
X107388844Y-82280500D01*
X107388845Y-82280499D01*
X107543497Y-82249737D01*
X107689179Y-82189394D01*
X107820289Y-82101789D01*
X107931789Y-81990289D01*
X108019394Y-81859179D01*
X108079737Y-81713497D01*
X108110500Y-81558842D01*
X108110500Y-81451153D01*
X110459500Y-81451153D01*
X110459500Y-81608846D01*
X110490261Y-81763489D01*
X110490264Y-81763501D01*
X110550602Y-81909172D01*
X110550609Y-81909185D01*
X110638210Y-82040288D01*
X110638213Y-82040292D01*
X110749707Y-82151786D01*
X110749711Y-82151789D01*
X110880814Y-82239390D01*
X110880827Y-82239397D01*
X110980060Y-82280500D01*
X111026503Y-82299737D01*
X111181153Y-82330499D01*
X111181156Y-82330500D01*
X111181158Y-82330500D01*
X111338844Y-82330500D01*
X111338845Y-82330499D01*
X111493497Y-82299737D01*
X111639179Y-82239394D01*
X111643620Y-82236426D01*
X111710294Y-82215544D01*
X111777676Y-82234024D01*
X111781403Y-82236419D01*
X111800821Y-82249394D01*
X111800827Y-82249396D01*
X111800828Y-82249397D01*
X111922363Y-82299738D01*
X111946503Y-82309737D01*
X112101153Y-82340499D01*
X112101156Y-82340500D01*
X112101158Y-82340500D01*
X112258844Y-82340500D01*
X112258845Y-82340499D01*
X112413497Y-82309737D01*
X112559179Y-82249394D01*
X112690289Y-82161789D01*
X112801789Y-82050289D01*
X112837783Y-81996420D01*
X115926999Y-81996420D01*
X115955840Y-82141407D01*
X115955843Y-82141417D01*
X116012412Y-82277988D01*
X116012419Y-82278001D01*
X116094548Y-82400915D01*
X116094551Y-82400919D01*
X116199080Y-82505448D01*
X116199084Y-82505451D01*
X116321998Y-82587580D01*
X116322011Y-82587587D01*
X116458582Y-82644156D01*
X116458587Y-82644158D01*
X116458591Y-82644158D01*
X116458592Y-82644159D01*
X116603579Y-82673000D01*
X116603582Y-82673000D01*
X116751420Y-82673000D01*
X116848962Y-82653596D01*
X116896413Y-82644158D01*
X117032995Y-82587584D01*
X117155916Y-82505451D01*
X117260451Y-82400916D01*
X117342584Y-82277995D01*
X117348002Y-82264916D01*
X117379282Y-82189397D01*
X117399158Y-82141413D01*
X117417284Y-82050289D01*
X117428000Y-81996420D01*
X117428000Y-81848579D01*
X117399159Y-81703592D01*
X117399158Y-81703591D01*
X117399158Y-81703587D01*
X117386791Y-81673730D01*
X117342587Y-81567011D01*
X117342580Y-81566998D01*
X117260451Y-81444084D01*
X117260448Y-81444080D01*
X117155919Y-81339551D01*
X117155915Y-81339548D01*
X117033001Y-81257419D01*
X117032988Y-81257412D01*
X116896417Y-81200843D01*
X116896407Y-81200840D01*
X116751420Y-81172000D01*
X116751418Y-81172000D01*
X116603582Y-81172000D01*
X116603580Y-81172000D01*
X116458592Y-81200840D01*
X116458582Y-81200843D01*
X116322011Y-81257412D01*
X116321998Y-81257419D01*
X116199084Y-81339548D01*
X116199080Y-81339551D01*
X116094551Y-81444080D01*
X116094548Y-81444084D01*
X116012419Y-81566998D01*
X116012412Y-81567011D01*
X115955843Y-81703582D01*
X115955840Y-81703592D01*
X115927000Y-81848579D01*
X115927000Y-81848582D01*
X115927000Y-81996418D01*
X115927000Y-81996420D01*
X115926999Y-81996420D01*
X112837783Y-81996420D01*
X112889394Y-81919179D01*
X112949737Y-81773497D01*
X112980500Y-81618842D01*
X112980500Y-81461158D01*
X112980500Y-81461155D01*
X112980499Y-81461153D01*
X112968565Y-81401158D01*
X112949737Y-81306503D01*
X112929403Y-81257412D01*
X112889397Y-81160827D01*
X112889390Y-81160814D01*
X112801789Y-81029711D01*
X112801786Y-81029707D01*
X112690292Y-80918213D01*
X112690288Y-80918210D01*
X112559185Y-80830609D01*
X112559172Y-80830602D01*
X112413501Y-80770264D01*
X112413489Y-80770261D01*
X112258845Y-80739500D01*
X112258842Y-80739500D01*
X112101158Y-80739500D01*
X112101155Y-80739500D01*
X111946510Y-80770261D01*
X111946498Y-80770264D01*
X111800828Y-80830602D01*
X111800814Y-80830610D01*
X111796371Y-80833579D01*
X111729693Y-80854455D01*
X111662313Y-80835969D01*
X111658593Y-80833578D01*
X111639182Y-80820608D01*
X111639181Y-80820607D01*
X111639179Y-80820606D01*
X111639176Y-80820604D01*
X111639171Y-80820602D01*
X111493501Y-80760264D01*
X111493489Y-80760261D01*
X111338845Y-80729500D01*
X111338842Y-80729500D01*
X111181158Y-80729500D01*
X111181155Y-80729500D01*
X111026510Y-80760261D01*
X111026498Y-80760264D01*
X110880827Y-80820602D01*
X110880814Y-80820609D01*
X110756154Y-80903905D01*
X110756151Y-80903907D01*
X110749711Y-80908211D01*
X110638211Y-81019711D01*
X110612595Y-81058046D01*
X110612590Y-81058053D01*
X110550609Y-81150814D01*
X110550602Y-81150827D01*
X110490264Y-81296498D01*
X110490261Y-81296510D01*
X110459500Y-81451153D01*
X108110500Y-81451153D01*
X108110500Y-81401158D01*
X108110500Y-81401155D01*
X108110499Y-81401153D01*
X108079737Y-81246503D01*
X108040102Y-81150814D01*
X108019397Y-81100827D01*
X108019390Y-81100814D01*
X107931789Y-80969711D01*
X107931786Y-80969707D01*
X107820292Y-80858213D01*
X107820288Y-80858210D01*
X107689185Y-80770609D01*
X107689172Y-80770602D01*
X107569675Y-80721106D01*
X107515271Y-80677266D01*
X107493206Y-80610972D01*
X107502565Y-80559095D01*
X107529737Y-80493497D01*
X107560500Y-80338842D01*
X107560500Y-80181158D01*
X107560500Y-80181155D01*
X107560499Y-80181153D01*
X109129500Y-80181153D01*
X109129500Y-80338846D01*
X109160261Y-80493489D01*
X109160264Y-80493501D01*
X109220602Y-80639172D01*
X109220609Y-80639185D01*
X109308210Y-80770288D01*
X109308213Y-80770292D01*
X109419707Y-80881786D01*
X109419711Y-80881789D01*
X109550814Y-80969390D01*
X109550827Y-80969397D01*
X109696440Y-81029711D01*
X109696503Y-81029737D01*
X109838856Y-81058053D01*
X109851153Y-81060499D01*
X109851156Y-81060500D01*
X109851158Y-81060500D01*
X110008844Y-81060500D01*
X110008845Y-81060499D01*
X110163497Y-81029737D01*
X110308414Y-80969711D01*
X110309172Y-80969397D01*
X110309172Y-80969396D01*
X110309179Y-80969394D01*
X110440289Y-80881789D01*
X110551789Y-80770289D01*
X110639394Y-80639179D01*
X110699737Y-80493497D01*
X110730500Y-80338842D01*
X110730500Y-80323920D01*
X113529499Y-80323920D01*
X113558340Y-80468907D01*
X113558343Y-80468917D01*
X113614912Y-80605488D01*
X113614919Y-80605500D01*
X113697048Y-80728415D01*
X113697051Y-80728419D01*
X113801580Y-80832948D01*
X113801584Y-80832951D01*
X113924498Y-80915080D01*
X113924511Y-80915087D01*
X114061082Y-80971656D01*
X114061087Y-80971658D01*
X114061091Y-80971658D01*
X114061092Y-80971659D01*
X114206079Y-81000500D01*
X114206082Y-81000500D01*
X114353920Y-81000500D01*
X114451462Y-80981096D01*
X114498913Y-80971658D01*
X114635495Y-80915084D01*
X114758416Y-80832951D01*
X114862951Y-80728416D01*
X114935941Y-80619179D01*
X114945081Y-80605500D01*
X114945082Y-80605497D01*
X114945084Y-80605495D01*
X114995442Y-80483920D01*
X118579499Y-80483920D01*
X118608340Y-80628907D01*
X118608343Y-80628917D01*
X118664912Y-80765488D01*
X118664919Y-80765501D01*
X118747048Y-80888415D01*
X118747051Y-80888419D01*
X118851580Y-80992948D01*
X118851584Y-80992951D01*
X118974498Y-81075080D01*
X118974511Y-81075087D01*
X119104735Y-81129027D01*
X119111087Y-81131658D01*
X119111091Y-81131658D01*
X119111092Y-81131659D01*
X119256079Y-81160500D01*
X119256082Y-81160500D01*
X119403920Y-81160500D01*
X119501462Y-81141096D01*
X119548913Y-81131658D01*
X119685495Y-81075084D01*
X119808416Y-80992951D01*
X119912951Y-80888416D01*
X119995084Y-80765495D01*
X120051658Y-80628913D01*
X120078595Y-80493497D01*
X120080500Y-80483920D01*
X120080500Y-80336079D01*
X120051659Y-80191092D01*
X120051658Y-80191091D01*
X120051658Y-80191087D01*
X120045443Y-80176082D01*
X119995087Y-80054511D01*
X119995080Y-80054498D01*
X119912951Y-79931584D01*
X119912948Y-79931580D01*
X119808419Y-79827051D01*
X119808415Y-79827048D01*
X119685501Y-79744919D01*
X119685488Y-79744912D01*
X119548917Y-79688343D01*
X119548907Y-79688340D01*
X119403920Y-79659500D01*
X119403918Y-79659500D01*
X119256082Y-79659500D01*
X119256080Y-79659500D01*
X119111092Y-79688340D01*
X119111082Y-79688343D01*
X118974511Y-79744912D01*
X118974498Y-79744919D01*
X118851584Y-79827048D01*
X118851580Y-79827051D01*
X118747051Y-79931580D01*
X118747048Y-79931584D01*
X118664919Y-80054498D01*
X118664912Y-80054511D01*
X118608343Y-80191082D01*
X118608340Y-80191092D01*
X118579500Y-80336079D01*
X118579500Y-80336082D01*
X118579500Y-80483918D01*
X118579500Y-80483920D01*
X118579499Y-80483920D01*
X114995442Y-80483920D01*
X115001658Y-80468913D01*
X115027531Y-80338844D01*
X115030500Y-80323920D01*
X115030500Y-80176079D01*
X115001659Y-80031092D01*
X115001658Y-80031091D01*
X115001658Y-80031087D01*
X114953126Y-79913920D01*
X114945087Y-79894511D01*
X114945080Y-79894498D01*
X114862951Y-79771584D01*
X114862948Y-79771580D01*
X114758419Y-79667051D01*
X114758415Y-79667048D01*
X114635501Y-79584919D01*
X114635488Y-79584912D01*
X114498917Y-79528343D01*
X114498907Y-79528340D01*
X114353920Y-79499500D01*
X114353918Y-79499500D01*
X114206082Y-79499500D01*
X114206080Y-79499500D01*
X114061092Y-79528340D01*
X114061082Y-79528343D01*
X113924511Y-79584912D01*
X113924498Y-79584919D01*
X113801584Y-79667048D01*
X113801580Y-79667051D01*
X113697051Y-79771580D01*
X113697048Y-79771584D01*
X113614919Y-79894498D01*
X113614912Y-79894511D01*
X113558343Y-80031082D01*
X113558340Y-80031092D01*
X113529500Y-80176079D01*
X113529500Y-80176082D01*
X113529500Y-80323918D01*
X113529500Y-80323920D01*
X113529499Y-80323920D01*
X110730500Y-80323920D01*
X110730500Y-80181158D01*
X110730500Y-80181154D01*
X110709898Y-80077586D01*
X110699737Y-80026503D01*
X110653104Y-79913920D01*
X110639397Y-79880827D01*
X110639390Y-79880814D01*
X110551789Y-79749711D01*
X110551786Y-79749707D01*
X110440292Y-79638213D01*
X110440288Y-79638210D01*
X110309185Y-79550609D01*
X110309172Y-79550602D01*
X110163501Y-79490264D01*
X110163489Y-79490261D01*
X110008845Y-79459500D01*
X110008842Y-79459500D01*
X109851158Y-79459500D01*
X109851155Y-79459500D01*
X109696510Y-79490261D01*
X109696498Y-79490264D01*
X109550827Y-79550602D01*
X109550814Y-79550609D01*
X109419711Y-79638210D01*
X109419707Y-79638213D01*
X109308213Y-79749707D01*
X109308210Y-79749711D01*
X109220609Y-79880814D01*
X109220602Y-79880827D01*
X109160264Y-80026498D01*
X109160261Y-80026510D01*
X109129500Y-80181153D01*
X107560499Y-80181153D01*
X107555299Y-80155010D01*
X107529737Y-80026503D01*
X107483104Y-79913920D01*
X107469397Y-79880827D01*
X107469390Y-79880814D01*
X107381789Y-79749711D01*
X107381786Y-79749707D01*
X107270292Y-79638213D01*
X107270288Y-79638210D01*
X107139185Y-79550609D01*
X107139172Y-79550602D01*
X106993501Y-79490264D01*
X106993489Y-79490261D01*
X106838845Y-79459500D01*
X106838842Y-79459500D01*
X106681158Y-79459500D01*
X106681155Y-79459500D01*
X106526510Y-79490261D01*
X106526498Y-79490264D01*
X106380827Y-79550602D01*
X106380814Y-79550609D01*
X106249711Y-79638210D01*
X106249707Y-79638213D01*
X106138213Y-79749707D01*
X106138210Y-79749711D01*
X106050609Y-79880814D01*
X106050602Y-79880827D01*
X105990264Y-80026498D01*
X105990261Y-80026510D01*
X105959500Y-80181153D01*
X102630500Y-80181153D01*
X102630500Y-80161158D01*
X102630500Y-80161155D01*
X102630499Y-80161153D01*
X102604626Y-80031082D01*
X102599737Y-80006503D01*
X102568703Y-79931580D01*
X102539397Y-79860827D01*
X102539390Y-79860814D01*
X102451789Y-79729711D01*
X102451786Y-79729707D01*
X102340292Y-79618213D01*
X102340288Y-79618210D01*
X102209185Y-79530609D01*
X102209172Y-79530602D01*
X102063501Y-79470264D01*
X102063489Y-79470261D01*
X101908845Y-79439500D01*
X101908842Y-79439500D01*
X101751158Y-79439500D01*
X101751155Y-79439500D01*
X101596510Y-79470261D01*
X101596498Y-79470264D01*
X101450827Y-79530602D01*
X101450814Y-79530609D01*
X101319711Y-79618210D01*
X101319707Y-79618213D01*
X101208213Y-79729707D01*
X101208210Y-79729711D01*
X101120609Y-79860814D01*
X101120602Y-79860827D01*
X101060264Y-80006498D01*
X101060261Y-80006510D01*
X101029500Y-80161153D01*
X95544873Y-80161153D01*
X95545364Y-79080500D01*
X95545731Y-78273920D01*
X97759499Y-78273920D01*
X97788340Y-78418907D01*
X97788343Y-78418917D01*
X97844912Y-78555488D01*
X97844919Y-78555501D01*
X97927048Y-78678415D01*
X97927051Y-78678419D01*
X98031580Y-78782948D01*
X98031584Y-78782951D01*
X98154498Y-78865080D01*
X98154511Y-78865087D01*
X98270059Y-78912948D01*
X98291087Y-78921658D01*
X98291091Y-78921658D01*
X98291092Y-78921659D01*
X98436079Y-78950500D01*
X98436082Y-78950500D01*
X98583920Y-78950500D01*
X98681462Y-78931096D01*
X98728913Y-78921658D01*
X98865495Y-78865084D01*
X98988416Y-78782951D01*
X99092951Y-78678416D01*
X99097804Y-78671153D01*
X107399500Y-78671153D01*
X107399500Y-78828846D01*
X107430261Y-78983489D01*
X107430264Y-78983501D01*
X107490602Y-79129172D01*
X107490609Y-79129185D01*
X107578210Y-79260288D01*
X107578213Y-79260292D01*
X107689707Y-79371786D01*
X107689711Y-79371789D01*
X107820814Y-79459390D01*
X107820827Y-79459397D01*
X107895348Y-79490264D01*
X107966503Y-79519737D01*
X108121153Y-79550499D01*
X108121156Y-79550500D01*
X108121158Y-79550500D01*
X108278844Y-79550500D01*
X108278845Y-79550499D01*
X108433497Y-79519737D01*
X108579179Y-79459394D01*
X108710289Y-79371789D01*
X108821789Y-79260289D01*
X108909394Y-79129179D01*
X108969737Y-78983497D01*
X109000500Y-78828842D01*
X109000500Y-78671158D01*
X109000500Y-78671155D01*
X109000499Y-78671153D01*
X108977493Y-78555495D01*
X108969737Y-78516503D01*
X108929316Y-78418917D01*
X108923104Y-78403920D01*
X115569499Y-78403920D01*
X115598340Y-78548907D01*
X115598343Y-78548917D01*
X115654912Y-78685488D01*
X115654919Y-78685501D01*
X115737048Y-78808415D01*
X115737051Y-78808419D01*
X115841580Y-78912948D01*
X115841584Y-78912951D01*
X115964498Y-78995080D01*
X115964511Y-78995087D01*
X116101082Y-79051656D01*
X116101087Y-79051658D01*
X116101091Y-79051658D01*
X116101092Y-79051659D01*
X116246079Y-79080500D01*
X116246082Y-79080500D01*
X116393920Y-79080500D01*
X116491462Y-79061096D01*
X116538913Y-79051658D01*
X116675495Y-78995084D01*
X116798416Y-78912951D01*
X116902951Y-78808416D01*
X116985084Y-78685495D01*
X117041658Y-78548913D01*
X117051096Y-78501462D01*
X117070500Y-78403920D01*
X117070500Y-78256079D01*
X117041659Y-78111092D01*
X117041658Y-78111091D01*
X117041658Y-78111087D01*
X117012464Y-78040606D01*
X116985087Y-77974511D01*
X116985080Y-77974498D01*
X116902951Y-77851584D01*
X116902948Y-77851580D01*
X116798419Y-77747051D01*
X116798415Y-77747048D01*
X116675501Y-77664919D01*
X116675488Y-77664912D01*
X116538917Y-77608343D01*
X116538907Y-77608340D01*
X116393920Y-77579500D01*
X116393918Y-77579500D01*
X116246082Y-77579500D01*
X116246080Y-77579500D01*
X116101092Y-77608340D01*
X116101082Y-77608343D01*
X115964511Y-77664912D01*
X115964498Y-77664919D01*
X115841584Y-77747048D01*
X115841580Y-77747051D01*
X115737051Y-77851580D01*
X115737048Y-77851584D01*
X115654919Y-77974498D01*
X115654912Y-77974511D01*
X115598343Y-78111082D01*
X115598340Y-78111092D01*
X115569500Y-78256079D01*
X115569500Y-78256082D01*
X115569500Y-78403918D01*
X115569500Y-78403920D01*
X115569499Y-78403920D01*
X108923104Y-78403920D01*
X108909397Y-78370827D01*
X108909395Y-78370823D01*
X108909394Y-78370821D01*
X108844645Y-78273918D01*
X108821789Y-78239711D01*
X108821786Y-78239707D01*
X108710292Y-78128213D01*
X108710288Y-78128210D01*
X108579185Y-78040609D01*
X108579172Y-78040602D01*
X108433501Y-77980264D01*
X108433489Y-77980261D01*
X108278845Y-77949500D01*
X108278842Y-77949500D01*
X108121158Y-77949500D01*
X108121155Y-77949500D01*
X107966510Y-77980261D01*
X107966498Y-77980264D01*
X107820827Y-78040602D01*
X107820814Y-78040609D01*
X107689711Y-78128210D01*
X107689707Y-78128213D01*
X107578213Y-78239707D01*
X107578210Y-78239711D01*
X107490609Y-78370814D01*
X107490602Y-78370827D01*
X107430264Y-78516498D01*
X107430261Y-78516510D01*
X107399500Y-78671153D01*
X99097804Y-78671153D01*
X99175084Y-78555495D01*
X99231658Y-78418913D01*
X99260500Y-78273918D01*
X99260500Y-78126082D01*
X99260500Y-78126079D01*
X99231659Y-77981092D01*
X99231658Y-77981091D01*
X99231658Y-77981087D01*
X99218574Y-77949500D01*
X99175087Y-77844511D01*
X99175080Y-77844498D01*
X99092951Y-77721584D01*
X99092948Y-77721580D01*
X98988419Y-77617051D01*
X98988415Y-77617048D01*
X98865501Y-77534919D01*
X98865488Y-77534912D01*
X98728917Y-77478343D01*
X98728907Y-77478340D01*
X98583920Y-77449500D01*
X98583918Y-77449500D01*
X98436082Y-77449500D01*
X98436080Y-77449500D01*
X98291092Y-77478340D01*
X98291082Y-77478343D01*
X98154511Y-77534912D01*
X98154498Y-77534919D01*
X98031584Y-77617048D01*
X98031580Y-77617051D01*
X97927051Y-77721580D01*
X97927048Y-77721584D01*
X97844919Y-77844498D01*
X97844912Y-77844511D01*
X97788343Y-77981082D01*
X97788340Y-77981092D01*
X97759500Y-78126079D01*
X97759500Y-78126082D01*
X97759500Y-78273918D01*
X97759500Y-78273920D01*
X97759499Y-78273920D01*
X95545731Y-78273920D01*
X95545801Y-78119934D01*
X95546093Y-77474926D01*
X95546536Y-76501153D01*
X111669500Y-76501153D01*
X111669500Y-76658846D01*
X111700261Y-76813489D01*
X111700264Y-76813501D01*
X111760602Y-76959172D01*
X111760609Y-76959185D01*
X111848210Y-77090288D01*
X111848213Y-77090292D01*
X111959707Y-77201786D01*
X111959711Y-77201789D01*
X112090814Y-77289390D01*
X112090827Y-77289397D01*
X112236498Y-77349735D01*
X112236503Y-77349737D01*
X112391153Y-77380499D01*
X112391156Y-77380500D01*
X112391158Y-77380500D01*
X112548844Y-77380500D01*
X112548845Y-77380499D01*
X112703497Y-77349737D01*
X112849179Y-77289394D01*
X112980289Y-77201789D01*
X113091789Y-77090289D01*
X113179394Y-76959179D01*
X113239737Y-76813497D01*
X113270500Y-76658842D01*
X113270500Y-76501158D01*
X113270500Y-76501155D01*
X113270499Y-76501153D01*
X113242192Y-76358846D01*
X113239737Y-76346503D01*
X113239735Y-76346498D01*
X113196666Y-76242518D01*
X113179532Y-76201153D01*
X118249500Y-76201153D01*
X118249500Y-76358846D01*
X118280261Y-76513489D01*
X118280264Y-76513501D01*
X118340602Y-76659172D01*
X118340609Y-76659185D01*
X118428210Y-76790288D01*
X118428213Y-76790292D01*
X118539707Y-76901786D01*
X118539711Y-76901789D01*
X118670814Y-76989390D01*
X118670827Y-76989397D01*
X118816498Y-77049735D01*
X118816503Y-77049737D01*
X118971153Y-77080499D01*
X118971156Y-77080500D01*
X118971158Y-77080500D01*
X119128844Y-77080500D01*
X119128845Y-77080499D01*
X119283497Y-77049737D01*
X119429179Y-76989394D01*
X119560289Y-76901789D01*
X119671789Y-76790289D01*
X119759394Y-76659179D01*
X119819737Y-76513497D01*
X119850500Y-76358842D01*
X119850500Y-76201158D01*
X119850500Y-76201155D01*
X119850499Y-76201153D01*
X119824353Y-76069711D01*
X119819737Y-76046503D01*
X119795280Y-75987457D01*
X119759397Y-75900827D01*
X119759390Y-75900814D01*
X119671789Y-75769711D01*
X119671786Y-75769707D01*
X119560292Y-75658213D01*
X119560288Y-75658210D01*
X119429185Y-75570609D01*
X119429172Y-75570602D01*
X119283501Y-75510264D01*
X119283489Y-75510261D01*
X119128845Y-75479500D01*
X119128842Y-75479500D01*
X118971158Y-75479500D01*
X118971155Y-75479500D01*
X118816510Y-75510261D01*
X118816498Y-75510264D01*
X118670827Y-75570602D01*
X118670814Y-75570609D01*
X118539711Y-75658210D01*
X118539707Y-75658213D01*
X118428213Y-75769707D01*
X118428210Y-75769711D01*
X118340609Y-75900814D01*
X118340602Y-75900827D01*
X118280264Y-76046498D01*
X118280261Y-76046510D01*
X118249500Y-76201153D01*
X113179532Y-76201153D01*
X113179395Y-76200823D01*
X113179390Y-76200814D01*
X113091789Y-76069711D01*
X113091786Y-76069707D01*
X112980292Y-75958213D01*
X112980288Y-75958210D01*
X112849185Y-75870609D01*
X112849172Y-75870602D01*
X112703501Y-75810264D01*
X112703489Y-75810261D01*
X112548845Y-75779500D01*
X112548842Y-75779500D01*
X112391158Y-75779500D01*
X112391155Y-75779500D01*
X112236510Y-75810261D01*
X112236498Y-75810264D01*
X112090827Y-75870602D01*
X112090814Y-75870609D01*
X111959711Y-75958210D01*
X111959707Y-75958213D01*
X111848213Y-76069707D01*
X111848210Y-76069711D01*
X111760609Y-76200814D01*
X111760602Y-76200827D01*
X111700264Y-76346498D01*
X111700261Y-76346510D01*
X111669500Y-76501153D01*
X95546536Y-76501153D01*
X95547077Y-75310877D01*
X115404013Y-75310877D01*
X115432854Y-75455864D01*
X115432857Y-75455874D01*
X115489426Y-75592445D01*
X115489433Y-75592458D01*
X115571562Y-75715372D01*
X115571565Y-75715376D01*
X115676094Y-75819905D01*
X115676098Y-75819908D01*
X115799012Y-75902037D01*
X115799025Y-75902044D01*
X115934630Y-75958213D01*
X115935601Y-75958615D01*
X115935605Y-75958615D01*
X115935606Y-75958616D01*
X116080593Y-75987457D01*
X116080596Y-75987457D01*
X116228434Y-75987457D01*
X116325976Y-75968053D01*
X116373427Y-75958615D01*
X116510009Y-75902041D01*
X116632930Y-75819908D01*
X116737465Y-75715373D01*
X116819598Y-75592452D01*
X116876172Y-75455870D01*
X116905014Y-75310875D01*
X116905014Y-75163039D01*
X116905014Y-75163036D01*
X116876173Y-75018049D01*
X116876172Y-75018048D01*
X116876172Y-75018044D01*
X116876170Y-75018039D01*
X116819601Y-74881468D01*
X116819594Y-74881455D01*
X116737465Y-74758541D01*
X116737462Y-74758537D01*
X116632933Y-74654008D01*
X116632929Y-74654005D01*
X116510015Y-74571876D01*
X116510002Y-74571869D01*
X116373431Y-74515300D01*
X116373421Y-74515297D01*
X116228434Y-74486457D01*
X116228432Y-74486457D01*
X116080596Y-74486457D01*
X116080594Y-74486457D01*
X115935606Y-74515297D01*
X115935596Y-74515300D01*
X115799025Y-74571869D01*
X115799012Y-74571876D01*
X115676098Y-74654005D01*
X115676094Y-74654008D01*
X115571565Y-74758537D01*
X115571562Y-74758541D01*
X115489433Y-74881455D01*
X115489426Y-74881468D01*
X115432857Y-75018039D01*
X115432854Y-75018049D01*
X115404014Y-75163036D01*
X115404014Y-75163039D01*
X115404014Y-75310875D01*
X115404014Y-75310877D01*
X115404013Y-75310877D01*
X95547077Y-75310877D01*
X95547676Y-73993920D01*
X110689499Y-73993920D01*
X110718340Y-74138907D01*
X110718343Y-74138917D01*
X110774912Y-74275488D01*
X110774919Y-74275501D01*
X110857048Y-74398415D01*
X110857051Y-74398419D01*
X110961580Y-74502948D01*
X110961584Y-74502951D01*
X111084498Y-74585080D01*
X111084511Y-74585087D01*
X111221082Y-74641656D01*
X111221087Y-74641658D01*
X111221091Y-74641658D01*
X111221092Y-74641659D01*
X111366079Y-74670500D01*
X111366082Y-74670500D01*
X111513920Y-74670500D01*
X111611462Y-74651096D01*
X111658913Y-74641658D01*
X111795495Y-74585084D01*
X111918416Y-74502951D01*
X112022951Y-74398416D01*
X112105084Y-74275495D01*
X112161658Y-74138913D01*
X112174355Y-74075084D01*
X112190500Y-73993920D01*
X112190500Y-73846079D01*
X112161659Y-73701092D01*
X112161658Y-73701091D01*
X112161658Y-73701087D01*
X112161656Y-73701082D01*
X112105087Y-73564511D01*
X112105080Y-73564498D01*
X112051239Y-73483920D01*
X120969499Y-73483920D01*
X120998340Y-73628907D01*
X120998343Y-73628917D01*
X121054912Y-73765488D01*
X121054919Y-73765501D01*
X121137048Y-73888415D01*
X121137051Y-73888419D01*
X121241580Y-73992948D01*
X121241584Y-73992951D01*
X121364498Y-74075080D01*
X121364511Y-74075087D01*
X121501082Y-74131656D01*
X121501087Y-74131658D01*
X121501091Y-74131658D01*
X121501092Y-74131659D01*
X121646079Y-74160500D01*
X121646082Y-74160500D01*
X121793920Y-74160500D01*
X121902420Y-74138917D01*
X121938913Y-74131658D01*
X122075495Y-74075084D01*
X122198416Y-73992951D01*
X122302951Y-73888416D01*
X122385084Y-73765495D01*
X122441658Y-73628913D01*
X122467620Y-73498397D01*
X122470500Y-73483920D01*
X122470500Y-73336079D01*
X122441659Y-73191092D01*
X122441658Y-73191091D01*
X122441658Y-73191087D01*
X122441656Y-73191082D01*
X122385087Y-73054511D01*
X122385080Y-73054498D01*
X122302951Y-72931584D01*
X122302948Y-72931580D01*
X122198419Y-72827051D01*
X122198415Y-72827048D01*
X122075501Y-72744919D01*
X122075488Y-72744912D01*
X121938917Y-72688343D01*
X121938907Y-72688340D01*
X121793920Y-72659500D01*
X121793918Y-72659500D01*
X121646082Y-72659500D01*
X121646080Y-72659500D01*
X121501092Y-72688340D01*
X121501082Y-72688343D01*
X121364511Y-72744912D01*
X121364498Y-72744919D01*
X121241584Y-72827048D01*
X121241580Y-72827051D01*
X121137051Y-72931580D01*
X121137048Y-72931584D01*
X121054919Y-73054498D01*
X121054912Y-73054511D01*
X120998343Y-73191082D01*
X120998340Y-73191092D01*
X120969500Y-73336079D01*
X120969500Y-73336082D01*
X120969500Y-73483918D01*
X120969500Y-73483920D01*
X120969499Y-73483920D01*
X112051239Y-73483920D01*
X112022951Y-73441584D01*
X112022948Y-73441580D01*
X111918419Y-73337051D01*
X111918415Y-73337048D01*
X111795501Y-73254919D01*
X111795488Y-73254912D01*
X111658917Y-73198343D01*
X111658907Y-73198340D01*
X111513920Y-73169500D01*
X111513918Y-73169500D01*
X111366082Y-73169500D01*
X111366080Y-73169500D01*
X111221092Y-73198340D01*
X111221082Y-73198343D01*
X111084511Y-73254912D01*
X111084498Y-73254919D01*
X110961584Y-73337048D01*
X110961580Y-73337051D01*
X110857051Y-73441580D01*
X110857048Y-73441584D01*
X110774919Y-73564498D01*
X110774912Y-73564511D01*
X110718343Y-73701082D01*
X110718340Y-73701092D01*
X110689500Y-73846079D01*
X110689500Y-73846082D01*
X110689500Y-73993918D01*
X110689500Y-73993920D01*
X110689499Y-73993920D01*
X95547676Y-73993920D01*
X95548051Y-73169500D01*
X95548823Y-71468872D01*
X104809500Y-71468872D01*
X104809500Y-71731127D01*
X104820285Y-71813041D01*
X104843730Y-71991116D01*
X104896965Y-72189792D01*
X104911602Y-72244418D01*
X104911605Y-72244428D01*
X105011953Y-72486690D01*
X105011958Y-72486700D01*
X105143075Y-72713803D01*
X105302718Y-72921851D01*
X105302726Y-72921860D01*
X105488140Y-73107274D01*
X105488148Y-73107281D01*
X105696196Y-73266924D01*
X105923299Y-73398041D01*
X105923309Y-73398046D01*
X106130623Y-73483918D01*
X106165581Y-73498398D01*
X106418884Y-73566270D01*
X106678880Y-73600500D01*
X106678887Y-73600500D01*
X106941113Y-73600500D01*
X106941120Y-73600500D01*
X107201116Y-73566270D01*
X107454419Y-73498398D01*
X107696697Y-73398043D01*
X107923803Y-73266924D01*
X108131851Y-73107282D01*
X108131855Y-73107277D01*
X108131860Y-73107274D01*
X108317274Y-72921860D01*
X108317277Y-72921855D01*
X108317282Y-72921851D01*
X108476924Y-72713803D01*
X108608043Y-72486697D01*
X108708398Y-72244419D01*
X108776270Y-71991116D01*
X108810500Y-71731120D01*
X108810500Y-71468880D01*
X108803209Y-71413497D01*
X108777079Y-71215027D01*
X108777079Y-71215025D01*
X108776271Y-71208890D01*
X108776270Y-71208887D01*
X108776270Y-71208884D01*
X108774884Y-71203713D01*
X112759500Y-71203713D01*
X112759500Y-71416286D01*
X112791723Y-71619738D01*
X112792754Y-71626243D01*
X112826828Y-71731113D01*
X112858444Y-71828414D01*
X112954951Y-72017820D01*
X113079890Y-72189786D01*
X113230213Y-72340109D01*
X113402179Y-72465048D01*
X113402181Y-72465049D01*
X113402184Y-72465051D01*
X113591588Y-72561557D01*
X113793757Y-72627246D01*
X114003713Y-72660500D01*
X114003714Y-72660500D01*
X114216286Y-72660500D01*
X114216287Y-72660500D01*
X114426243Y-72627246D01*
X114628412Y-72561557D01*
X114817816Y-72465051D01*
X114839789Y-72449086D01*
X114989786Y-72340109D01*
X114989788Y-72340106D01*
X114989792Y-72340104D01*
X115140104Y-72189792D01*
X115140106Y-72189788D01*
X115140109Y-72189786D01*
X115265050Y-72017817D01*
X115305317Y-71938789D01*
X115353291Y-71887993D01*
X115421112Y-71871197D01*
X115474330Y-71888608D01*
X115475446Y-71886521D01*
X115480827Y-71889397D01*
X115600072Y-71938789D01*
X115626503Y-71949737D01*
X115781153Y-71980499D01*
X115781156Y-71980500D01*
X115781158Y-71980500D01*
X115938844Y-71980500D01*
X115938845Y-71980499D01*
X116093497Y-71949737D01*
X116239179Y-71889394D01*
X116370289Y-71801789D01*
X116481789Y-71690289D01*
X116569394Y-71559179D01*
X116629737Y-71413497D01*
X116660500Y-71258842D01*
X116660500Y-71101158D01*
X116660500Y-71101155D01*
X116660499Y-71101153D01*
X116639136Y-70993757D01*
X116629737Y-70946503D01*
X116622423Y-70928846D01*
X116574240Y-70812518D01*
X116569396Y-70800826D01*
X116569390Y-70800814D01*
X116549571Y-70771153D01*
X120479500Y-70771153D01*
X120479500Y-70928846D01*
X120510261Y-71083489D01*
X120510264Y-71083501D01*
X120570602Y-71229172D01*
X120570609Y-71229185D01*
X120658210Y-71360288D01*
X120658213Y-71360292D01*
X120769707Y-71471786D01*
X120769711Y-71471789D01*
X120900814Y-71559390D01*
X120900827Y-71559397D01*
X121046498Y-71619735D01*
X121046503Y-71619737D01*
X121201153Y-71650499D01*
X121201156Y-71650500D01*
X121201158Y-71650500D01*
X121358844Y-71650500D01*
X121358845Y-71650499D01*
X121513497Y-71619737D01*
X121659179Y-71559394D01*
X121790289Y-71471789D01*
X121901789Y-71360289D01*
X121989394Y-71229179D01*
X122049737Y-71083497D01*
X122080500Y-70928842D01*
X122080500Y-70771158D01*
X122080500Y-70771155D01*
X122080499Y-70771153D01*
X122049738Y-70616510D01*
X122049737Y-70616503D01*
X122025592Y-70558211D01*
X121989397Y-70470827D01*
X121989390Y-70470814D01*
X121901789Y-70339711D01*
X121901786Y-70339707D01*
X121790292Y-70228213D01*
X121790288Y-70228210D01*
X121659185Y-70140609D01*
X121659172Y-70140602D01*
X121513501Y-70080264D01*
X121513489Y-70080261D01*
X121358845Y-70049500D01*
X121358842Y-70049500D01*
X121201158Y-70049500D01*
X121201155Y-70049500D01*
X121046510Y-70080261D01*
X121046498Y-70080264D01*
X120900827Y-70140602D01*
X120900814Y-70140609D01*
X120769711Y-70228210D01*
X120769707Y-70228213D01*
X120658213Y-70339707D01*
X120658210Y-70339711D01*
X120570609Y-70470814D01*
X120570602Y-70470827D01*
X120510264Y-70616498D01*
X120510261Y-70616510D01*
X120479500Y-70771153D01*
X116549571Y-70771153D01*
X116481789Y-70669711D01*
X116481786Y-70669707D01*
X116370292Y-70558213D01*
X116370288Y-70558210D01*
X116239185Y-70470609D01*
X116239172Y-70470602D01*
X116093501Y-70410264D01*
X116093489Y-70410261D01*
X115938845Y-70379500D01*
X115938842Y-70379500D01*
X115781158Y-70379500D01*
X115781155Y-70379500D01*
X115626510Y-70410261D01*
X115626498Y-70410264D01*
X115480827Y-70470602D01*
X115480816Y-70470608D01*
X115370341Y-70544425D01*
X115303664Y-70565302D01*
X115236283Y-70546817D01*
X115201132Y-70514207D01*
X115169605Y-70470814D01*
X115140104Y-70430208D01*
X114989792Y-70279896D01*
X114989786Y-70279890D01*
X114817820Y-70154951D01*
X114628414Y-70058444D01*
X114628413Y-70058443D01*
X114628412Y-70058443D01*
X114426243Y-69992754D01*
X114426241Y-69992753D01*
X114426240Y-69992753D01*
X114264957Y-69967208D01*
X114216287Y-69959500D01*
X114003713Y-69959500D01*
X113955042Y-69967208D01*
X113793760Y-69992753D01*
X113591585Y-70058444D01*
X113402179Y-70154951D01*
X113230213Y-70279890D01*
X113079890Y-70430213D01*
X112954951Y-70602179D01*
X112858444Y-70791585D01*
X112792753Y-70993760D01*
X112759500Y-71203713D01*
X108774884Y-71203713D01*
X108708398Y-70955581D01*
X108697323Y-70928844D01*
X108608046Y-70713309D01*
X108608041Y-70713299D01*
X108476924Y-70486196D01*
X108354424Y-70326554D01*
X108317282Y-70278149D01*
X108317281Y-70278148D01*
X108317274Y-70278140D01*
X108131860Y-70092726D01*
X108131851Y-70092718D01*
X107923803Y-69933075D01*
X107696700Y-69801958D01*
X107696690Y-69801953D01*
X107454428Y-69701605D01*
X107454421Y-69701603D01*
X107454419Y-69701602D01*
X107201116Y-69633730D01*
X107143339Y-69626123D01*
X106941127Y-69599500D01*
X106941120Y-69599500D01*
X106678880Y-69599500D01*
X106678872Y-69599500D01*
X106447772Y-69629926D01*
X106418884Y-69633730D01*
X106165581Y-69701602D01*
X106165571Y-69701605D01*
X105923309Y-69801953D01*
X105923299Y-69801958D01*
X105696196Y-69933075D01*
X105488148Y-70092718D01*
X105302718Y-70278148D01*
X105143075Y-70486196D01*
X105011958Y-70713299D01*
X105011953Y-70713309D01*
X104911605Y-70955571D01*
X104911602Y-70955581D01*
X104843730Y-71208885D01*
X104809500Y-71468872D01*
X95548823Y-71468872D01*
X95548825Y-71464765D01*
X95548848Y-71413489D01*
X95549514Y-69948154D01*
X95549542Y-69945591D01*
X95549829Y-69932097D01*
X95551282Y-69926678D01*
X95551282Y-69863889D01*
X95551310Y-69862575D01*
X95551384Y-69862339D01*
X95551598Y-69856368D01*
X95560933Y-69725860D01*
X95566728Y-69644840D01*
X95569246Y-69627333D01*
X95612643Y-69427849D01*
X95613381Y-69424453D01*
X95618364Y-69407483D01*
X95690928Y-69212933D01*
X95698264Y-69196869D01*
X95797781Y-69014619D01*
X95807336Y-68999751D01*
X95931775Y-68833522D01*
X95943347Y-68820168D01*
X96090168Y-68673347D01*
X96103522Y-68661775D01*
X96269751Y-68537336D01*
X96284619Y-68527781D01*
X96466869Y-68428264D01*
X96482933Y-68420928D01*
X96677487Y-68348362D01*
X96694453Y-68343381D01*
X96897338Y-68299245D01*
X96914840Y-68296728D01*
X97126368Y-68281597D01*
X97135215Y-68281282D01*
X97204370Y-68281282D01*
X97205322Y-68281218D01*
X122883809Y-68289777D01*
G37*
%TD.AperFunction*%
%TD*%
M02*
