M48
; DRILL file {KiCad 9.0.0} date 2026-08-10T18:33:06-0500
; FORMAT={-:-/ absolute / metric / decimal}
; #@! TF.CreationDate,2026-08-10T18:33:06-05:00
; #@! TF.GenerationSoftware,Kicad,Pcbnew,9.0.0
; #@! TF.FileFunction,Plated,1,4,PTH
FMAT,2
METRIC
; #@! TA.AperFunction,Plated,PTH,ViaDrill
T1C0.300
; #@! TA.AperFunction,Plated,PTH,ComponentDrill
T2C1.000
; #@! TA.AperFunction,Plated,PTH,ComponentDrill
T3C1.500
%
G90
G05
T1
X98.51Y-78.2
X101.83Y-80.24
X105.67Y-84.43
X106.76Y-80.26
X107.31Y-81.48
X108.2Y-78.75
X108.28Y-86.13
X108.38Y-83.85
X108.97Y-89.08
X109.93Y-80.26
X111.26Y-81.53
X111.44Y-73.92
X112.18Y-81.54
X112.47Y-76.58
X114.28Y-80.25
X114.3Y-78.77
X115.86Y-71.18
X116.155Y-75.237
X116.32Y-78.33
X116.677Y-81.922
X118.1Y-70.85
X119.05Y-76.28
X119.26Y-77.59
X119.33Y-80.41
X119.69Y-84.82
X121.19Y-77.56
X121.225Y-80.405
X121.23Y-84.64
X121.28Y-70.85
X121.72Y-73.41
X124.1Y-79.84
X124.23Y-82.93
T2
X99.01Y-87.79
X101.55Y-87.79
X104.09Y-87.79
X106.63Y-87.79
X111.57Y-71.31
X114.11Y-71.31
T3
X98.76Y-83.64
X106.81Y-71.6
M30
