%TF.GenerationSoftware,KiCad,Pcbnew,9.0.0*%
%TF.CreationDate,2026-08-10T18:31:41-05:00*%
%TF.ProjectId,PDM Logic Test v2.0,50444d20-4c6f-4676-9963-205465737420,rev?*%
%TF.SameCoordinates,Original*%
%TF.FileFunction,Copper,L1,Top*%
%TF.FilePolarity,Positive*%
%FSLAX46Y46*%
G04 Gerber Fmt 4.6, Leading zero omitted, Abs format (unit mm)*
G04 Created by KiCad (PCBNEW 9.0.0) date 2026-08-10 18:31:41*
%MOMM*%
%LPD*%
G01*
G04 APERTURE LIST*
G04 Aperture macros list*
%AMRoundRect*
0 Rectangle with rounded corners*
0 $1 Rounding radius*
0 $2 $3 $4 $5 $6 $7 $8 $9 X,Y pos of 4 corners*
0 Add a 4 corners polygon primitive as box body*
4,1,4,$2,$3,$4,$5,$6,$7,$8,$9,$2,$3,0*
0 Add four circle primitives for the rounded corners*
1,1,$1+$1,$2,$3*
1,1,$1+$1,$4,$5*
1,1,$1+$1,$6,$7*
1,1,$1+$1,$8,$9*
0 Add four rect primitives between the rounded corners*
20,1,$1+$1,$2,$3,$4,$5,0*
20,1,$1+$1,$4,$5,$6,$7,0*
20,1,$1+$1,$6,$7,$8,$9,0*
20,1,$1+$1,$8,$9,$2,$3,0*%
%AMFreePoly0*
4,1,21,1.372500,0.787500,0.862500,0.787500,0.862500,0.532500,1.372500,0.532500,1.372500,0.127500,0.862500,0.127500,0.862500,-0.127500,1.372500,-0.127500,1.372500,-0.532500,0.862500,-0.532500,0.862500,-0.787500,1.372500,-0.787500,1.372500,-1.195000,0.612500,-1.195000,0.612500,-1.117500,-0.862500,-1.117500,-0.862500,1.117500,0.612500,1.117500,0.612500,1.195000,1.372500,1.195000,
1.372500,0.787500,1.372500,0.787500,$1*%
G04 Aperture macros list end*
%TA.AperFunction,SMDPad,CuDef*%
%ADD10R,0.990000X0.405000*%
%TD*%
%TA.AperFunction,SMDPad,CuDef*%
%ADD11FreePoly0,0.000000*%
%TD*%
%TA.AperFunction,SMDPad,CuDef*%
%ADD12RoundRect,0.200000X0.275000X-0.200000X0.275000X0.200000X-0.275000X0.200000X-0.275000X-0.200000X0*%
%TD*%
%TA.AperFunction,SMDPad,CuDef*%
%ADD13RoundRect,0.150000X-0.825000X-0.150000X0.825000X-0.150000X0.825000X0.150000X-0.825000X0.150000X0*%
%TD*%
%TA.AperFunction,SMDPad,CuDef*%
%ADD14RoundRect,0.225000X-0.250000X0.225000X-0.250000X-0.225000X0.250000X-0.225000X0.250000X0.225000X0*%
%TD*%
%TA.AperFunction,SMDPad,CuDef*%
%ADD15RoundRect,0.200000X-0.275000X0.200000X-0.275000X-0.200000X0.275000X-0.200000X0.275000X0.200000X0*%
%TD*%
%TA.AperFunction,SMDPad,CuDef*%
%ADD16RoundRect,0.100000X-0.637500X-0.100000X0.637500X-0.100000X0.637500X0.100000X-0.637500X0.100000X0*%
%TD*%
%TA.AperFunction,ComponentPad*%
%ADD17C,3.000000*%
%TD*%
%TA.AperFunction,SMDPad,CuDef*%
%ADD18RoundRect,0.100000X0.225000X0.100000X-0.225000X0.100000X-0.225000X-0.100000X0.225000X-0.100000X0*%
%TD*%
%TA.AperFunction,SMDPad,CuDef*%
%ADD19C,1.500000*%
%TD*%
%TA.AperFunction,SMDPad,CuDef*%
%ADD20RoundRect,0.225000X0.225000X0.250000X-0.225000X0.250000X-0.225000X-0.250000X0.225000X-0.250000X0*%
%TD*%
%TA.AperFunction,SMDPad,CuDef*%
%ADD21RoundRect,0.225000X-0.225000X-0.250000X0.225000X-0.250000X0.225000X0.250000X-0.225000X0.250000X0*%
%TD*%
%TA.AperFunction,ComponentPad*%
%ADD22R,1.700000X1.700000*%
%TD*%
%TA.AperFunction,ComponentPad*%
%ADD23O,1.700000X1.700000*%
%TD*%
%TA.AperFunction,SMDPad,CuDef*%
%ADD24RoundRect,0.200000X-0.200000X-0.275000X0.200000X-0.275000X0.200000X0.275000X-0.200000X0.275000X0*%
%TD*%
%TA.AperFunction,SMDPad,CuDef*%
%ADD25RoundRect,0.150000X-0.150000X-0.200000X0.150000X-0.200000X0.150000X0.200000X-0.150000X0.200000X0*%
%TD*%
%TA.AperFunction,ViaPad*%
%ADD26C,0.500000*%
%TD*%
%TA.AperFunction,ViaPad*%
%ADD27C,0.600000*%
%TD*%
%TA.AperFunction,Conductor*%
%ADD28C,0.300000*%
%TD*%
%TA.AperFunction,Conductor*%
%ADD29C,0.500000*%
%TD*%
%TA.AperFunction,Conductor*%
%ADD30C,1.000000*%
%TD*%
G04 APERTURE END LIST*
D10*
%TO.P,Q2,1,S*%
%TO.N,+12V*%
X100057500Y-73250000D03*
%TO.P,Q2,2,S*%
X100057500Y-73910000D03*
%TO.P,Q2,3,S*%
X100057500Y-74570000D03*
%TO.P,Q2,4,G*%
%TO.N,Net-(Q1A-D)*%
X100057500Y-75230000D03*
D11*
%TO.P,Q2,5,D*%
%TO.N,Net-(Q2-D)*%
X102050000Y-74240000D03*
%TD*%
D12*
%TO.P,R1,1*%
%TO.N,+3.3V*%
X115220000Y-79045000D03*
%TO.P,R1,2*%
%TO.N,Net-(U1A--)*%
X115220000Y-77395000D03*
%TD*%
D13*
%TO.P,U4,1,IN+*%
%TO.N,Net-(Q2-D)*%
X105728899Y-75316188D03*
%TO.P,U4,2,IN+*%
X105728899Y-76586188D03*
%TO.P,U4,3,IN-*%
%TO.N,C1_Out*%
X105728899Y-77856188D03*
%TO.P,U4,4,IN-*%
X105728899Y-79126188D03*
%TO.P,U4,5,GND*%
%TO.N,GND*%
X110678899Y-79126188D03*
%TO.P,U4,6,NC*%
%TO.N,unconnected-(U4-NC-Pad6)*%
X110678899Y-77856188D03*
%TO.P,U4,7,VOUT*%
%TO.N,C1_CS*%
X110678899Y-76586188D03*
%TO.P,U4,8,VS*%
%TO.N,+3.3V*%
X110678899Y-75316188D03*
%TD*%
D14*
%TO.P,C4,1*%
%TO.N,+3.3V*%
X113280000Y-74075000D03*
%TO.P,C4,2*%
%TO.N,GND*%
X113280000Y-75625000D03*
%TD*%
%TO.P,C3,1*%
%TO.N,+3.3V*%
X115170000Y-74085000D03*
%TO.P,C3,2*%
%TO.N,GND*%
X115170000Y-75635000D03*
%TD*%
D15*
%TO.P,R3,1*%
%TO.N,C1_Enable*%
X107310000Y-82645000D03*
%TO.P,R3,2*%
%TO.N,GND*%
X107310000Y-84295000D03*
%TD*%
D16*
%TO.P,U3,1*%
%TO.N,C1_Fault*%
X109707500Y-81480000D03*
%TO.P,U3,2*%
%TO.N,C1_Enable*%
X109707500Y-82130000D03*
%TO.P,U3,3*%
%TO.N,Net-(Q1A-G)*%
X109707500Y-82780000D03*
%TO.P,U3,4*%
%TO.N,GND*%
X109707500Y-83430000D03*
%TO.P,U3,5*%
X109707500Y-84080000D03*
%TO.P,U3,6*%
X109707500Y-84730000D03*
%TO.P,U3,7,VSS*%
X109707500Y-85380000D03*
%TO.P,U3,8*%
X115432500Y-85380000D03*
%TO.P,U3,9*%
X115432500Y-84730000D03*
%TO.P,U3,10*%
X115432500Y-84080000D03*
%TO.P,U3,11*%
X115432500Y-83430000D03*
%TO.P,U3,12*%
X115432500Y-82780000D03*
%TO.P,U3,13*%
X115432500Y-82130000D03*
%TO.P,U3,14,VDD*%
%TO.N,+3.3V*%
X115432500Y-81480000D03*
%TD*%
D17*
%TO.P,TP1,1,1*%
%TO.N,C1_Out*%
X98760000Y-83640000D03*
%TD*%
%TO.P,TP2,1,1*%
%TO.N,+12V*%
X106810000Y-71600000D03*
%TD*%
D18*
%TO.P,Q1,1,S*%
%TO.N,Net-(Q1A-S)*%
X100300000Y-80550000D03*
%TO.P,Q1,2,G*%
%TO.N,Net-(Q1A-G)*%
X100300000Y-79900000D03*
%TO.P,Q1,3,D*%
%TO.N,Net-(Q1A-S)*%
X100300000Y-79250000D03*
%TO.P,Q1,4,S*%
%TO.N,GND*%
X98400000Y-79250000D03*
%TO.P,Q1,5,G*%
%TO.N,+12V*%
X98400000Y-79900000D03*
%TO.P,Q1,6,D*%
%TO.N,Net-(Q1A-D)*%
X98400000Y-80550000D03*
%TD*%
D19*
%TO.P,TP4,1,1*%
%TO.N,+3.3V*%
X118100000Y-70850000D03*
%TD*%
D20*
%TO.P,C2,1*%
%TO.N,+3.3V*%
X118705000Y-79260000D03*
%TO.P,C2,2*%
%TO.N,GND*%
X117155000Y-79260000D03*
%TD*%
D21*
%TO.P,C1,1*%
%TO.N,+3.3V*%
X121225000Y-79260000D03*
%TO.P,C1,2*%
%TO.N,GND*%
X122775000Y-79260000D03*
%TD*%
D16*
%TO.P,U1,1*%
%TO.N,GND*%
X117677500Y-73510000D03*
%TO.P,U1,2*%
%TO.N,Net-(U2A-R)*%
X117677500Y-74160000D03*
%TO.P,U1,3,V+*%
%TO.N,+3.3V*%
X117677500Y-74810000D03*
%TO.P,U1,4,-*%
%TO.N,Net-(U1A--)*%
X117677500Y-75460000D03*
%TO.P,U1,5,+*%
%TO.N,C1_CS*%
X117677500Y-76110000D03*
%TO.P,U1,6,-*%
%TO.N,GND*%
X117677500Y-76760000D03*
%TO.P,U1,7,+*%
X117677500Y-77410000D03*
%TO.P,U1,8,-*%
X123402500Y-77410000D03*
%TO.P,U1,9,+*%
X123402500Y-76760000D03*
%TO.P,U1,10,-*%
X123402500Y-76110000D03*
%TO.P,U1,11,+*%
X123402500Y-75460000D03*
%TO.P,U1,12,V-*%
X123402500Y-74810000D03*
%TO.P,U1,13*%
X123402500Y-74160000D03*
%TO.P,U1,14*%
X123402500Y-73510000D03*
%TD*%
D13*
%TO.P,U2,1,Q*%
%TO.N,GND*%
X118065000Y-81065000D03*
%TO.P,U2,2,Q*%
%TO.N,C1_Fault*%
X118065000Y-82335000D03*
%TO.P,U2,3,R*%
%TO.N,Net-(U2A-R)*%
X118065000Y-83605000D03*
%TO.P,U2,4,S*%
%TO.N,C1_Reset*%
X118065000Y-84875000D03*
%TO.P,U2,5,Enable*%
%TO.N,+3.3V*%
X118065000Y-86145000D03*
%TO.P,U2,6,S*%
%TO.N,GND*%
X118065000Y-87415000D03*
%TO.P,U2,7,R*%
X118065000Y-88685000D03*
%TO.P,U2,8,V-*%
X118065000Y-89955000D03*
%TO.P,U2,9,Q*%
X123015000Y-89955000D03*
%TO.P,U2,10,Q*%
X123015000Y-88685000D03*
%TO.P,U2,11,R*%
X123015000Y-87415000D03*
%TO.P,U2,12,S*%
X123015000Y-86145000D03*
%TO.P,U2,13*%
%TO.N,N/C*%
X123015000Y-84875000D03*
%TO.P,U2,14,S*%
%TO.N,GND*%
X123015000Y-83605000D03*
%TO.P,U2,15,R*%
X123015000Y-82335000D03*
%TO.P,U2,16,V+*%
%TO.N,+3.3V*%
X123015000Y-81065000D03*
%TD*%
D12*
%TO.P,R2,1*%
%TO.N,Net-(U1A--)*%
X113280000Y-79045000D03*
%TO.P,R2,2*%
%TO.N,GND*%
X113280000Y-77395000D03*
%TD*%
D22*
%TO.P,J2,1,Pin_1*%
%TO.N,+3.3V*%
X111570000Y-71310000D03*
D23*
%TO.P,J2,2,Pin_2*%
%TO.N,GND*%
X114110000Y-71310000D03*
%TD*%
D24*
%TO.P,R4,1*%
%TO.N,+12V*%
X97315000Y-77140000D03*
%TO.P,R4,2*%
%TO.N,Net-(Q1A-D)*%
X98965000Y-77140000D03*
%TD*%
D25*
%TO.P,D1,1,K*%
%TO.N,C1_Out*%
X105737500Y-81130000D03*
%TO.P,D1,2,A*%
%TO.N,GND*%
X104337500Y-81130000D03*
%TD*%
D19*
%TO.P,TP3,1,1*%
%TO.N,GND*%
X121280000Y-70850000D03*
%TD*%
D22*
%TO.P,J1,1,Pin_1*%
%TO.N,C1_Enable*%
X99010000Y-87790000D03*
D23*
%TO.P,J1,2,Pin_2*%
%TO.N,C1_Reset*%
X101550000Y-87790000D03*
%TO.P,J1,3,Pin_3*%
%TO.N,C1_Fault*%
X104090000Y-87790000D03*
%TO.P,J1,4,Pin_4*%
%TO.N,C1_CS*%
X106630000Y-87790000D03*
%TD*%
D26*
%TO.N,GND*%
X124230000Y-82930000D03*
D27*
X115860000Y-71180000D03*
X108200000Y-78750000D03*
D26*
X116320000Y-78330000D03*
X98510000Y-78200000D03*
D27*
X108380000Y-83850000D03*
D26*
X108280000Y-86130000D03*
X116154514Y-75236957D03*
X111440000Y-73920000D03*
X108970000Y-89080000D03*
X119330000Y-80410000D03*
X121720000Y-73410000D03*
X124100000Y-79840000D03*
D27*
X121280000Y-70850000D03*
D26*
%TO.N,+3.3V*%
X121230000Y-84640000D03*
D27*
X119260000Y-77590000D03*
X118100000Y-70850000D03*
D26*
X121225000Y-80405000D03*
X121190000Y-77560000D03*
D27*
X114300000Y-78770000D03*
%TO.N,Net-(Q1A-G)*%
X109930000Y-80260000D03*
X106760000Y-80260000D03*
X101830000Y-80240000D03*
X111260000Y-81530000D03*
%TO.N,C1_Reset*%
X119690000Y-84820000D03*
%TO.N,C1_CS*%
X112470000Y-76580000D03*
X112180000Y-81540000D03*
X119050000Y-76280000D03*
D26*
%TO.N,C1_Fault*%
X114280000Y-80250000D03*
X116677500Y-81922500D03*
D27*
X105670000Y-84430000D03*
X107310000Y-81480000D03*
%TD*%
D28*
%TO.N,GND*%
X107755000Y-83850000D02*
X108380000Y-83850000D01*
X122775000Y-79260000D02*
X123520000Y-79260000D01*
X116154514Y-75236957D02*
X116149695Y-75241776D01*
X108957500Y-86130000D02*
X108280000Y-86130000D01*
X121720000Y-74260000D02*
X121720000Y-73410000D01*
X123402500Y-74810000D02*
X122270000Y-74810000D01*
X98400000Y-78310000D02*
X98510000Y-78200000D01*
X116900000Y-79260000D02*
X116470000Y-78830000D01*
X122270000Y-74810000D02*
X121880000Y-74420000D01*
X107310000Y-84295000D02*
X107755000Y-83850000D01*
X114240000Y-71180000D02*
X114110000Y-71310000D01*
X98400000Y-79250000D02*
X98400000Y-78310000D01*
X117155000Y-79260000D02*
X116900000Y-79260000D01*
X109707500Y-85380000D02*
X108957500Y-86130000D01*
X116149695Y-75241776D02*
X115888224Y-75241776D01*
X98400000Y-79190000D02*
X98400000Y-79250000D01*
X115495000Y-75635000D02*
X115170000Y-75635000D01*
X123520000Y-79260000D02*
X124100000Y-79840000D01*
X116320000Y-78680000D02*
X116320000Y-78330000D01*
X121880000Y-74420000D02*
X121720000Y-74260000D01*
X115860000Y-71180000D02*
X114240000Y-71180000D01*
X113280000Y-75625000D02*
X115160000Y-75625000D01*
X115160000Y-75625000D02*
X115170000Y-75635000D01*
X110810087Y-78995000D02*
X110678899Y-79126188D01*
X116470000Y-78830000D02*
X116320000Y-78680000D01*
X115888224Y-75241776D02*
X115495000Y-75635000D01*
D29*
%TO.N,+12V*%
X98400000Y-79900000D02*
X97940000Y-79900000D01*
X100057500Y-74570000D02*
X100057500Y-73250000D01*
X97940000Y-79900000D02*
X97315000Y-79275000D01*
X97315000Y-77140000D02*
X97315000Y-73365000D01*
X97315000Y-79275000D02*
X97315000Y-77140000D01*
D28*
%TO.N,+3.3V*%
X112033812Y-75316188D02*
X113275000Y-74075000D01*
X113280000Y-73230000D02*
X111570000Y-71520000D01*
X121225000Y-79260000D02*
X121225000Y-80405000D01*
X121190000Y-77560000D02*
X121190000Y-79225000D01*
X118705000Y-79260000D02*
X118705000Y-78145000D01*
X115432500Y-81480000D02*
X115432500Y-80767500D01*
X119725000Y-86145000D02*
X118065000Y-86145000D01*
X118705000Y-78145000D02*
X119260000Y-77590000D01*
X116577500Y-74810000D02*
X115852500Y-74085000D01*
X115220000Y-79045000D02*
X114575000Y-79045000D01*
X117250000Y-70850000D02*
X115170000Y-72930000D01*
X117745000Y-80220000D02*
X118705000Y-79260000D01*
X115170000Y-72930000D02*
X115170000Y-74085000D01*
X113280000Y-74075000D02*
X113280000Y-73230000D01*
X115432500Y-80767500D02*
X115980000Y-80220000D01*
X117677500Y-74810000D02*
X116577500Y-74810000D01*
X110678899Y-75316188D02*
X112033812Y-75316188D01*
X121225000Y-80405000D02*
X121885000Y-81065000D01*
X115852500Y-74085000D02*
X115170000Y-74085000D01*
X113275000Y-74075000D02*
X113280000Y-74075000D01*
X114575000Y-79045000D02*
X114300000Y-78770000D01*
X121190000Y-79225000D02*
X121225000Y-79260000D01*
X121885000Y-81065000D02*
X123015000Y-81065000D01*
X121230000Y-84640000D02*
X119725000Y-86145000D01*
X118100000Y-70850000D02*
X117250000Y-70850000D01*
X115980000Y-80220000D02*
X117745000Y-80220000D01*
%TO.N,Net-(Q1A-G)*%
X109930000Y-80260000D02*
X106760000Y-80260000D01*
X101490000Y-79900000D02*
X101830000Y-80240000D01*
X111260000Y-82380000D02*
X110860000Y-82780000D01*
X110860000Y-82780000D02*
X109707500Y-82780000D01*
X100300000Y-79900000D02*
X101490000Y-79900000D01*
X111260000Y-81530000D02*
X111260000Y-82380000D01*
%TO.N,Net-(Q1A-S)*%
X99975001Y-79250000D02*
X99624000Y-79601001D01*
X99624000Y-80189582D02*
X99984418Y-80550000D01*
X99624000Y-79601001D02*
X99624000Y-80189582D01*
X99984418Y-80550000D02*
X100300000Y-80550000D01*
X100300000Y-79250000D02*
X99975001Y-79250000D01*
%TO.N,Net-(Q1A-D)*%
X100055000Y-78425000D02*
X100055000Y-78230000D01*
X99123000Y-79357000D02*
X100055000Y-78425000D01*
X98920000Y-80550000D02*
X99123000Y-80347000D01*
X100057500Y-75230000D02*
X100057500Y-76047500D01*
X99123000Y-80347000D02*
X99123000Y-79357000D01*
X100057500Y-76047500D02*
X98965000Y-77140000D01*
X100055000Y-78230000D02*
X98965000Y-77140000D01*
X98400000Y-80550000D02*
X98920000Y-80550000D01*
D30*
%TO.N,Net-(Q2-D)*%
X105728899Y-75316188D02*
X105728899Y-76586188D01*
X104652711Y-74240000D02*
X105728899Y-75316188D01*
X102050000Y-74240000D02*
X104652711Y-74240000D01*
D28*
%TO.N,Net-(U1A--)*%
X116780000Y-75460000D02*
X117677500Y-75460000D01*
X114575000Y-77395000D02*
X113280000Y-78690000D01*
X116340000Y-75900000D02*
X116780000Y-75460000D01*
X116340000Y-76930000D02*
X116340000Y-75900000D01*
X115220000Y-77395000D02*
X114575000Y-77395000D01*
X113280000Y-78690000D02*
X113280000Y-79045000D01*
X115220000Y-77395000D02*
X115875000Y-77395000D01*
X115230000Y-77385000D02*
X115220000Y-77395000D01*
X115875000Y-77395000D02*
X116340000Y-76930000D01*
%TO.N,Net-(U2A-R)*%
X120240000Y-81847678D02*
X118482678Y-83605000D01*
X118482678Y-83605000D02*
X118065000Y-83605000D01*
X117677500Y-74160000D02*
X117697500Y-74140000D01*
X120240000Y-75080000D02*
X120240000Y-81847678D01*
X117697500Y-74140000D02*
X119300000Y-74140000D01*
X119300000Y-74140000D02*
X120240000Y-75080000D01*
%TO.N,C1_Enable*%
X106302500Y-82527500D02*
X105172500Y-83657500D01*
X107310000Y-82645000D02*
X107192500Y-82527500D01*
X99010000Y-87010000D02*
X99010000Y-87790000D01*
X107825000Y-82130000D02*
X109707500Y-82130000D01*
X107310000Y-82645000D02*
X107825000Y-82130000D01*
X105172500Y-83657500D02*
X102362500Y-83657500D01*
X102362500Y-83657500D02*
X99010000Y-87010000D01*
X107192500Y-82527500D02*
X106302500Y-82527500D01*
D30*
%TO.N,C1_Out*%
X105737500Y-81130000D02*
X105737500Y-81287652D01*
X104505152Y-82520000D02*
X99720000Y-82520000D01*
X98900000Y-83520000D02*
X98880000Y-83520000D01*
X105737500Y-81287652D02*
X104505152Y-82520000D01*
X105728899Y-81121399D02*
X105737500Y-81130000D01*
X99720000Y-82520000D02*
X98760000Y-83480000D01*
X98760000Y-83480000D02*
X98760000Y-83640000D01*
X98880000Y-83520000D02*
X98760000Y-83640000D01*
X105728899Y-77856188D02*
X105728899Y-81121399D01*
D28*
%TO.N,C1_Reset*%
X118700000Y-84820000D02*
X118645000Y-84875000D01*
X118645000Y-84875000D02*
X118065000Y-84875000D01*
X119690000Y-84820000D02*
X118700000Y-84820000D01*
%TO.N,C1_CS*%
X108710000Y-87790000D02*
X112180000Y-84320000D01*
X118880000Y-76110000D02*
X117677500Y-76110000D01*
X106630000Y-87790000D02*
X108710000Y-87790000D01*
X119050000Y-76280000D02*
X118880000Y-76110000D01*
X112180000Y-84320000D02*
X112180000Y-81540000D01*
X112470000Y-76580000D02*
X110685087Y-76580000D01*
X110685087Y-76580000D02*
X110678899Y-76586188D01*
%TO.N,C1_Fault*%
X104770000Y-84430000D02*
X104090000Y-85110000D01*
X104090000Y-85110000D02*
X104090000Y-87790000D01*
X117090001Y-82335000D02*
X118065000Y-82335000D01*
X109707500Y-81480000D02*
X110937500Y-80250000D01*
X109707500Y-81480000D02*
X107310000Y-81480000D01*
X116677500Y-81922500D02*
X117090001Y-82335000D01*
X105670000Y-84430000D02*
X104770000Y-84430000D01*
X110937500Y-80250000D02*
X114280000Y-80250000D01*
%TD*%
%TA.AperFunction,Conductor*%
%TO.N,+12V*%
G36*
X108083309Y-69160434D02*
G01*
X108104175Y-69177208D01*
X109250913Y-70323576D01*
X109284408Y-70384893D01*
X109287246Y-70411515D01*
X109282082Y-73039450D01*
X109262266Y-73106450D01*
X109245677Y-73126973D01*
X108527474Y-73843767D01*
X108466118Y-73877192D01*
X108439879Y-73880000D01*
X105867045Y-73880000D01*
X105800006Y-73860315D01*
X105792389Y-73855008D01*
X105353087Y-73523757D01*
X105340061Y-73512429D01*
X105290496Y-73462863D01*
X105290488Y-73462857D01*
X105133902Y-73358230D01*
X105128146Y-73354143D01*
X103942341Y-72460000D01*
X103917834Y-72459767D01*
X101336714Y-72435261D01*
X101336713Y-72435262D01*
X101186202Y-72586681D01*
X101124980Y-72620350D01*
X101120287Y-72621292D01*
X101115561Y-72622144D01*
X101115560Y-72622145D01*
X101046534Y-72642413D01*
X100977507Y-72662681D01*
X100977505Y-72662682D01*
X100856469Y-72740467D01*
X100856465Y-72740471D01*
X100762250Y-72849200D01*
X100762244Y-72849209D01*
X100702476Y-72980080D01*
X100702475Y-72980085D01*
X100682000Y-73122499D01*
X100682000Y-74403000D01*
X100662315Y-74470039D01*
X100609511Y-74515794D01*
X100558000Y-74527000D01*
X99514629Y-74527000D01*
X99514623Y-74527001D01*
X99455016Y-74533408D01*
X99320171Y-74583702D01*
X99320164Y-74583706D01*
X99204955Y-74669952D01*
X99204952Y-74669955D01*
X99118706Y-74785164D01*
X99118701Y-74785173D01*
X99102232Y-74829332D01*
X99060362Y-74885266D01*
X98994898Y-74909684D01*
X98986050Y-74910000D01*
X97077219Y-74910000D01*
X97010180Y-74890315D01*
X96989258Y-74873400D01*
X96945471Y-74829332D01*
X96588014Y-74469580D01*
X96191970Y-74070992D01*
X96158681Y-74009562D01*
X96155934Y-73982798D01*
X96158872Y-73523757D01*
X96178447Y-70465114D01*
X96198560Y-70398204D01*
X96214698Y-70378294D01*
X97389952Y-69201399D01*
X97451248Y-69167873D01*
X97477400Y-69165021D01*
X108016227Y-69140903D01*
X108083309Y-69160434D01*
G37*
%TD.AperFunction*%
%TD*%
%TA.AperFunction,Conductor*%
%TO.N,GND*%
G36*
X95752728Y-74323693D02*
G01*
X95770985Y-74343374D01*
X95807071Y-74391902D01*
X95833384Y-74427288D01*
X95833394Y-74427299D01*
X96168268Y-74764323D01*
X96528461Y-75126829D01*
X96561750Y-75188258D01*
X96564500Y-75214228D01*
X96564500Y-76387023D01*
X96546617Y-76451173D01*
X96471522Y-76575393D01*
X96420913Y-76737807D01*
X96414500Y-76808386D01*
X96414500Y-77471613D01*
X96420913Y-77542192D01*
X96420913Y-77542194D01*
X96420914Y-77542196D01*
X96471522Y-77704606D01*
X96546617Y-77828829D01*
X96564500Y-77892976D01*
X96564500Y-79348918D01*
X96564500Y-79348920D01*
X96564499Y-79348920D01*
X96593340Y-79493907D01*
X96593343Y-79493917D01*
X96649913Y-79630490D01*
X96649914Y-79630492D01*
X96674341Y-79667049D01*
X96674342Y-79667051D01*
X96732045Y-79753414D01*
X96732049Y-79753418D01*
X97201706Y-80223073D01*
X97357048Y-80378415D01*
X97357049Y-80378416D01*
X97461584Y-80482951D01*
X97519391Y-80521576D01*
X97564195Y-80575187D01*
X97574500Y-80624676D01*
X97574500Y-80689362D01*
X97589953Y-80806753D01*
X97589956Y-80806762D01*
X97649034Y-80949390D01*
X97650464Y-80952841D01*
X97746718Y-81078282D01*
X97872159Y-81174536D01*
X98018238Y-81235044D01*
X98135639Y-81250500D01*
X98664360Y-81250499D01*
X98664363Y-81250499D01*
X98781753Y-81235046D01*
X98781757Y-81235044D01*
X98781762Y-81235044D01*
X98842370Y-81209938D01*
X98889823Y-81200500D01*
X98984071Y-81200500D01*
X99068615Y-81183682D01*
X99109744Y-81175501D01*
X99228127Y-81126465D01*
X99244790Y-81115331D01*
X99334669Y-81055277D01*
X99364528Y-81025417D01*
X99425849Y-80991933D01*
X99495541Y-80996917D01*
X99539889Y-81025417D01*
X99569749Y-81055277D01*
X99659628Y-81115331D01*
X99659627Y-81115331D01*
X99670761Y-81122769D01*
X99676291Y-81126465D01*
X99733399Y-81150120D01*
X99734158Y-81150732D01*
X99735126Y-81150851D01*
X99761430Y-81166304D01*
X99772157Y-81174535D01*
X99772158Y-81174535D01*
X99772159Y-81174536D01*
X99918238Y-81235044D01*
X100035639Y-81250500D01*
X100564360Y-81250499D01*
X100564363Y-81250499D01*
X100681753Y-81235046D01*
X100681757Y-81235044D01*
X100681762Y-81235044D01*
X100827841Y-81174536D01*
X100953282Y-81078282D01*
X101049536Y-80952841D01*
X101084320Y-80868863D01*
X101128158Y-80814465D01*
X101194452Y-80792399D01*
X101262151Y-80809678D01*
X101286560Y-80828639D01*
X101319707Y-80861786D01*
X101319711Y-80861789D01*
X101450814Y-80949390D01*
X101450827Y-80949397D01*
X101584630Y-81004819D01*
X101596503Y-81009737D01*
X101751153Y-81040499D01*
X101751156Y-81040500D01*
X101751158Y-81040500D01*
X101908844Y-81040500D01*
X101908845Y-81040499D01*
X102063497Y-81009737D01*
X102200862Y-80952839D01*
X102209172Y-80949397D01*
X102209172Y-80949396D01*
X102209179Y-80949394D01*
X102340289Y-80861789D01*
X102451789Y-80750289D01*
X102539394Y-80619179D01*
X102599737Y-80473497D01*
X102630500Y-80318842D01*
X102630500Y-80161158D01*
X102630500Y-80161155D01*
X102630499Y-80161153D01*
X102614075Y-80078584D01*
X102599737Y-80006503D01*
X102599735Y-80006498D01*
X102539397Y-79860827D01*
X102539390Y-79860814D01*
X102451789Y-79729711D01*
X102451786Y-79729707D01*
X102340292Y-79618213D01*
X102340288Y-79618210D01*
X102209185Y-79530609D01*
X102209172Y-79530602D01*
X102063501Y-79470264D01*
X102063489Y-79470261D01*
X101996420Y-79456920D01*
X101934509Y-79424535D01*
X101932982Y-79423036D01*
X101904669Y-79394723D01*
X101798127Y-79323535D01*
X101679744Y-79274499D01*
X101679738Y-79274497D01*
X101554071Y-79249500D01*
X101554069Y-79249500D01*
X101249499Y-79249500D01*
X101182460Y-79229815D01*
X101136705Y-79177011D01*
X101125499Y-79125500D01*
X101125499Y-79110636D01*
X101110046Y-78993246D01*
X101110044Y-78993241D01*
X101110044Y-78993238D01*
X101049536Y-78847159D01*
X100953282Y-78721718D01*
X100827841Y-78625464D01*
X100827840Y-78625463D01*
X100827838Y-78625462D01*
X100782047Y-78606495D01*
X100727644Y-78562654D01*
X100705579Y-78496360D01*
X100705500Y-78491934D01*
X100705500Y-78165928D01*
X100680502Y-78040261D01*
X100680501Y-78040260D01*
X100680501Y-78040256D01*
X100631465Y-77921873D01*
X100617035Y-77900277D01*
X100560277Y-77815331D01*
X100560275Y-77815329D01*
X100560273Y-77815326D01*
X99972627Y-77227680D01*
X99939142Y-77166357D01*
X99944126Y-77096665D01*
X99972625Y-77052320D01*
X100562776Y-76462170D01*
X100633965Y-76355627D01*
X100683001Y-76237244D01*
X100686128Y-76221522D01*
X100708000Y-76111569D01*
X100708000Y-75994776D01*
X100727685Y-75927737D01*
X100763435Y-75891457D01*
X100775309Y-75883576D01*
X100794831Y-75876296D01*
X100861599Y-75826313D01*
X100864520Y-75824375D01*
X100894667Y-75815039D01*
X100924237Y-75804010D01*
X100928058Y-75804699D01*
X100931263Y-75803707D01*
X100947400Y-75808189D01*
X100984593Y-75814899D01*
X101045084Y-75842524D01*
X101187500Y-75863000D01*
X102368245Y-75863000D01*
X102419757Y-75874206D01*
X102520081Y-75920023D01*
X102520082Y-75920023D01*
X102520084Y-75920024D01*
X102662500Y-75940500D01*
X102662503Y-75940500D01*
X103422500Y-75940500D01*
X103494440Y-75935355D01*
X103632492Y-75894819D01*
X103753532Y-75817031D01*
X103847754Y-75708294D01*
X103907524Y-75577416D01*
X103928000Y-75435000D01*
X103928000Y-75364500D01*
X103930550Y-75355814D01*
X103929262Y-75346853D01*
X103940240Y-75322812D01*
X103947685Y-75297461D01*
X103954525Y-75291533D01*
X103958287Y-75283297D01*
X103980521Y-75269007D01*
X104000489Y-75251706D01*
X104011003Y-75249418D01*
X104017065Y-75245523D01*
X104052000Y-75240500D01*
X104129399Y-75240500D01*
X104196438Y-75260185D01*
X104242193Y-75312989D01*
X104253399Y-75364500D01*
X104253399Y-75531889D01*
X104256300Y-75568755D01*
X104256301Y-75568761D01*
X104302153Y-75726581D01*
X104302154Y-75726584D01*
X104385816Y-75868050D01*
X104390601Y-75874219D01*
X104388155Y-75876115D01*
X104414756Y-75924830D01*
X104409772Y-75994522D01*
X104388968Y-76026891D01*
X104390601Y-76028157D01*
X104385816Y-76034325D01*
X104302154Y-76175791D01*
X104302153Y-76175794D01*
X104256301Y-76333614D01*
X104256300Y-76333620D01*
X104253399Y-76370486D01*
X104253399Y-76801889D01*
X104256300Y-76838755D01*
X104256301Y-76838761D01*
X104302153Y-76996581D01*
X104302154Y-76996584D01*
X104385816Y-77138050D01*
X104390601Y-77144219D01*
X104388155Y-77146115D01*
X104414756Y-77194830D01*
X104409772Y-77264522D01*
X104388968Y-77296891D01*
X104390601Y-77298157D01*
X104385816Y-77304325D01*
X104302154Y-77445791D01*
X104302153Y-77445794D01*
X104256301Y-77603614D01*
X104256300Y-77603620D01*
X104253399Y-77640486D01*
X104253399Y-78071889D01*
X104256300Y-78108755D01*
X104256301Y-78108761D01*
X104302153Y-78266581D01*
X104302154Y-78266584D01*
X104302155Y-78266586D01*
X104321760Y-78299736D01*
X104385816Y-78408050D01*
X104390601Y-78414219D01*
X104388155Y-78416115D01*
X104414756Y-78464830D01*
X104409772Y-78534522D01*
X104388968Y-78566891D01*
X104390601Y-78568157D01*
X104385816Y-78574325D01*
X104302154Y-78715791D01*
X104302153Y-78715794D01*
X104256301Y-78873614D01*
X104256300Y-78873620D01*
X104253399Y-78910486D01*
X104253399Y-79341889D01*
X104256300Y-79378755D01*
X104256301Y-79378761D01*
X104302153Y-79536581D01*
X104302154Y-79536584D01*
X104302155Y-79536586D01*
X104310448Y-79550609D01*
X104385816Y-79678050D01*
X104385822Y-79678058D01*
X104502028Y-79794264D01*
X104502032Y-79794267D01*
X104502034Y-79794269D01*
X104502036Y-79794270D01*
X104643499Y-79877931D01*
X104650663Y-79881031D01*
X104649628Y-79883421D01*
X104697856Y-79914201D01*
X104727081Y-79977665D01*
X104728399Y-79995698D01*
X104728399Y-80830470D01*
X104708714Y-80897509D01*
X104692080Y-80918151D01*
X104127051Y-81483181D01*
X104065728Y-81516666D01*
X104039370Y-81519500D01*
X99621457Y-81519500D01*
X99546050Y-81534500D01*
X99546049Y-81534500D01*
X99428171Y-81557947D01*
X99428163Y-81557949D01*
X99398402Y-81570277D01*
X99246089Y-81633366D01*
X99246079Y-81633372D01*
X99218792Y-81651604D01*
X99152114Y-81672480D01*
X99133719Y-81671439D01*
X98891129Y-81639501D01*
X98891126Y-81639500D01*
X98891120Y-81639500D01*
X98628880Y-81639500D01*
X98628872Y-81639500D01*
X98397772Y-81669926D01*
X98368884Y-81673730D01*
X98147382Y-81733081D01*
X98115581Y-81741602D01*
X98115571Y-81741605D01*
X97873309Y-81841953D01*
X97873299Y-81841958D01*
X97646196Y-81973075D01*
X97438148Y-82132718D01*
X97252718Y-82318148D01*
X97093075Y-82526196D01*
X96961958Y-82753299D01*
X96961953Y-82753309D01*
X96861605Y-82995571D01*
X96861602Y-82995581D01*
X96803178Y-83213626D01*
X96793730Y-83248885D01*
X96759500Y-83508872D01*
X96759500Y-83771127D01*
X96778883Y-83918343D01*
X96793730Y-84031116D01*
X96861602Y-84284418D01*
X96861605Y-84284428D01*
X96961953Y-84526690D01*
X96961958Y-84526700D01*
X97093075Y-84753803D01*
X97252718Y-84961851D01*
X97252726Y-84961860D01*
X97438140Y-85147274D01*
X97438148Y-85147281D01*
X97646196Y-85306924D01*
X97873299Y-85438041D01*
X97873309Y-85438046D01*
X98115571Y-85538394D01*
X98115581Y-85538398D01*
X98368884Y-85606270D01*
X98628880Y-85640500D01*
X98628887Y-85640500D01*
X98891113Y-85640500D01*
X98891120Y-85640500D01*
X99151116Y-85606270D01*
X99172202Y-85600620D01*
X99242051Y-85602281D01*
X99299914Y-85641443D01*
X99327419Y-85705671D01*
X99315833Y-85774573D01*
X99291977Y-85808075D01*
X98696871Y-86403181D01*
X98635548Y-86436666D01*
X98609190Y-86439500D01*
X98112129Y-86439500D01*
X98112123Y-86439501D01*
X98052516Y-86445908D01*
X97917671Y-86496202D01*
X97917664Y-86496206D01*
X97802455Y-86582452D01*
X97802452Y-86582455D01*
X97716206Y-86697664D01*
X97716202Y-86697671D01*
X97665908Y-86832517D01*
X97659501Y-86892116D01*
X97659500Y-86892135D01*
X97659500Y-88687870D01*
X97659501Y-88687876D01*
X97665908Y-88747483D01*
X97716202Y-88882328D01*
X97716206Y-88882335D01*
X97802452Y-88997544D01*
X97802455Y-88997547D01*
X97917664Y-89083793D01*
X97917671Y-89083797D01*
X98052517Y-89134091D01*
X98052516Y-89134091D01*
X98059444Y-89134835D01*
X98112127Y-89140500D01*
X99907872Y-89140499D01*
X99967483Y-89134091D01*
X100102331Y-89083796D01*
X100217546Y-88997546D01*
X100303796Y-88882331D01*
X100352810Y-88750916D01*
X100394681Y-88694984D01*
X100460145Y-88670566D01*
X100528418Y-88685417D01*
X100556673Y-88706569D01*
X100670213Y-88820109D01*
X100842179Y-88945048D01*
X100842181Y-88945049D01*
X100842184Y-88945051D01*
X101031588Y-89041557D01*
X101233757Y-89107246D01*
X101443713Y-89140500D01*
X101443714Y-89140500D01*
X101656286Y-89140500D01*
X101656287Y-89140500D01*
X101866243Y-89107246D01*
X102068412Y-89041557D01*
X102257816Y-88945051D01*
X102344138Y-88882335D01*
X102429786Y-88820109D01*
X102429788Y-88820106D01*
X102429792Y-88820104D01*
X102580104Y-88669792D01*
X102580106Y-88669788D01*
X102580109Y-88669786D01*
X102705048Y-88497820D01*
X102705047Y-88497820D01*
X102705051Y-88497816D01*
X102709514Y-88489054D01*
X102757488Y-88438259D01*
X102825308Y-88421463D01*
X102891444Y-88443999D01*
X102930486Y-88489056D01*
X102934951Y-88497820D01*
X103059890Y-88669786D01*
X103210213Y-88820109D01*
X103382179Y-88945048D01*
X103382181Y-88945049D01*
X103382184Y-88945051D01*
X103571588Y-89041557D01*
X103773757Y-89107246D01*
X103983713Y-89140500D01*
X103983714Y-89140500D01*
X104196286Y-89140500D01*
X104196287Y-89140500D01*
X104406243Y-89107246D01*
X104608412Y-89041557D01*
X104797816Y-88945051D01*
X104884138Y-88882335D01*
X104969786Y-88820109D01*
X104969788Y-88820106D01*
X104969792Y-88820104D01*
X105120104Y-88669792D01*
X105120106Y-88669788D01*
X105120109Y-88669786D01*
X105245048Y-88497820D01*
X105245047Y-88497820D01*
X105245051Y-88497816D01*
X105249514Y-88489054D01*
X105297488Y-88438259D01*
X105365308Y-88421463D01*
X105431444Y-88443999D01*
X105470486Y-88489056D01*
X105474951Y-88497820D01*
X105599890Y-88669786D01*
X105750213Y-88820109D01*
X105922179Y-88945048D01*
X105922181Y-88945049D01*
X105922184Y-88945051D01*
X106111588Y-89041557D01*
X106313757Y-89107246D01*
X106523713Y-89140500D01*
X106523714Y-89140500D01*
X106736286Y-89140500D01*
X106736287Y-89140500D01*
X106946243Y-89107246D01*
X107148412Y-89041557D01*
X107337816Y-88945051D01*
X107424138Y-88882335D01*
X107509786Y-88820109D01*
X107509788Y-88820106D01*
X107509792Y-88820104D01*
X107660104Y-88669792D01*
X107660106Y-88669788D01*
X107660109Y-88669786D01*
X107787915Y-88493875D01*
X107789259Y-88494851D01*
X107835705Y-88452834D01*
X107889618Y-88440500D01*
X108774071Y-88440500D01*
X108869772Y-88421463D01*
X108899744Y-88415501D01*
X109018127Y-88366465D01*
X109124669Y-88295277D01*
X112685277Y-84734669D01*
X112756465Y-84628127D01*
X112805501Y-84509744D01*
X112808619Y-84494069D01*
X112814481Y-84464602D01*
X112830500Y-84384071D01*
X112830500Y-82044935D01*
X112850185Y-81977896D01*
X112851366Y-81976090D01*
X112889394Y-81919179D01*
X112949737Y-81773497D01*
X112980500Y-81618842D01*
X112980500Y-81461158D01*
X112980500Y-81461155D01*
X112980499Y-81461153D01*
X112956527Y-81340638D01*
X112949737Y-81306503D01*
X112920138Y-81235043D01*
X112889397Y-81160827D01*
X112889390Y-81160814D01*
X112844339Y-81093391D01*
X112823461Y-81026714D01*
X112841945Y-80959334D01*
X112893924Y-80912643D01*
X112947441Y-80900500D01*
X113866160Y-80900500D01*
X113918520Y-80913614D01*
X113918878Y-80912753D01*
X113924504Y-80915083D01*
X113924505Y-80915084D01*
X114061087Y-80971658D01*
X114061091Y-80971658D01*
X114061092Y-80971659D01*
X114146709Y-80988690D01*
X114208620Y-81021075D01*
X114243194Y-81081791D01*
X114239454Y-81151560D01*
X114237078Y-81157759D01*
X114209957Y-81223234D01*
X114209955Y-81223239D01*
X114194500Y-81340638D01*
X114194500Y-81619363D01*
X114209953Y-81736753D01*
X114209956Y-81736762D01*
X114268044Y-81877000D01*
X114270464Y-81882841D01*
X114366718Y-82008282D01*
X114492159Y-82104536D01*
X114638238Y-82165044D01*
X114755639Y-82180500D01*
X115889177Y-82180499D01*
X115956216Y-82200184D01*
X116001971Y-82252987D01*
X116003737Y-82257045D01*
X116012411Y-82277986D01*
X116012419Y-82278001D01*
X116094548Y-82400915D01*
X116094551Y-82400919D01*
X116199080Y-82505448D01*
X116199084Y-82505451D01*
X116321998Y-82587580D01*
X116322011Y-82587587D01*
X116464215Y-82646489D01*
X116463857Y-82647350D01*
X116510157Y-82675102D01*
X116675334Y-82840279D01*
X116683328Y-82845620D01*
X116687592Y-82849746D01*
X116690787Y-82851014D01*
X116701474Y-82863179D01*
X116715222Y-82876482D01*
X116718402Y-82880918D01*
X116721919Y-82886865D01*
X116724552Y-82889498D01*
X116730473Y-82897758D01*
X116738786Y-82921536D01*
X116750857Y-82943642D01*
X116750119Y-82953952D01*
X116753532Y-82963713D01*
X116747669Y-82988210D01*
X116745873Y-83013334D01*
X116739156Y-83023784D01*
X116737271Y-83031664D01*
X116728980Y-83039618D01*
X116725069Y-83045703D01*
X116726702Y-83046969D01*
X116721917Y-83053137D01*
X116638255Y-83194603D01*
X116638254Y-83194606D01*
X116592402Y-83352426D01*
X116592401Y-83352432D01*
X116589500Y-83389298D01*
X116589500Y-83820701D01*
X116592401Y-83857567D01*
X116592402Y-83857573D01*
X116638254Y-84015393D01*
X116638255Y-84015396D01*
X116638256Y-84015398D01*
X116647552Y-84031116D01*
X116721917Y-84156862D01*
X116726702Y-84163031D01*
X116724256Y-84164927D01*
X116750857Y-84213642D01*
X116745873Y-84283334D01*
X116725069Y-84315703D01*
X116726702Y-84316969D01*
X116721917Y-84323137D01*
X116638255Y-84464603D01*
X116638254Y-84464606D01*
X116592402Y-84622426D01*
X116592401Y-84622432D01*
X116589500Y-84659298D01*
X116589500Y-85090701D01*
X116592401Y-85127567D01*
X116592402Y-85127573D01*
X116638254Y-85285393D01*
X116638255Y-85285396D01*
X116638256Y-85285398D01*
X116666999Y-85334000D01*
X116717147Y-85418797D01*
X116721918Y-85426864D01*
X116726702Y-85433031D01*
X116724256Y-85434927D01*
X116750857Y-85483642D01*
X116745873Y-85553334D01*
X116725069Y-85585703D01*
X116726702Y-85586969D01*
X116721917Y-85593137D01*
X116638255Y-85734603D01*
X116638254Y-85734606D01*
X116592402Y-85892426D01*
X116592401Y-85892432D01*
X116589500Y-85929298D01*
X116589500Y-86360701D01*
X116592401Y-86397567D01*
X116592402Y-86397573D01*
X116638254Y-86555393D01*
X116638255Y-86555396D01*
X116638256Y-86555398D01*
X116662571Y-86596512D01*
X116721917Y-86696862D01*
X116721923Y-86696870D01*
X116838129Y-86813076D01*
X116838133Y-86813079D01*
X116838135Y-86813081D01*
X116979602Y-86896744D01*
X117021224Y-86908836D01*
X117137426Y-86942597D01*
X117137429Y-86942597D01*
X117137431Y-86942598D01*
X117174306Y-86945500D01*
X117174314Y-86945500D01*
X118955686Y-86945500D01*
X118955694Y-86945500D01*
X118992569Y-86942598D01*
X118992571Y-86942597D01*
X118992573Y-86942597D01*
X119034191Y-86930505D01*
X119150398Y-86896744D01*
X119264807Y-86829083D01*
X119292395Y-86812768D01*
X119355516Y-86795500D01*
X119789071Y-86795500D01*
X119873615Y-86778682D01*
X119914744Y-86770501D01*
X120033127Y-86721465D01*
X120062449Y-86701873D01*
X120068749Y-86697664D01*
X120121395Y-86662487D01*
X120139669Y-86650277D01*
X121397345Y-85392600D01*
X121404822Y-85387652D01*
X121408093Y-85383032D01*
X121425802Y-85373770D01*
X121438607Y-85365298D01*
X121446372Y-85362163D01*
X121448913Y-85361658D01*
X121498229Y-85341230D01*
X121498689Y-85341045D01*
X121532915Y-85337677D01*
X121567122Y-85334000D01*
X121567643Y-85334261D01*
X121568223Y-85334204D01*
X121598839Y-85349876D01*
X121629601Y-85365275D01*
X121630078Y-85365868D01*
X121630418Y-85366042D01*
X121630937Y-85366935D01*
X121651836Y-85392907D01*
X121671919Y-85426865D01*
X121671921Y-85426867D01*
X121671923Y-85426870D01*
X121788129Y-85543076D01*
X121788133Y-85543079D01*
X121788135Y-85543081D01*
X121929602Y-85626744D01*
X121971224Y-85638836D01*
X122087426Y-85672597D01*
X122087429Y-85672597D01*
X122087431Y-85672598D01*
X122124306Y-85675500D01*
X122124314Y-85675500D01*
X123905686Y-85675500D01*
X123905694Y-85675500D01*
X123942569Y-85672598D01*
X123942571Y-85672597D01*
X123942573Y-85672597D01*
X123984191Y-85660505D01*
X124100398Y-85626744D01*
X124241865Y-85543081D01*
X124337649Y-85447296D01*
X124398970Y-85413813D01*
X124468662Y-85418797D01*
X124524596Y-85460668D01*
X124549013Y-85526132D01*
X124549329Y-85534974D01*
X124549500Y-89889214D01*
X124549500Y-89895572D01*
X124549184Y-89904418D01*
X124534055Y-90115941D01*
X124531537Y-90133453D01*
X124487404Y-90336329D01*
X124482420Y-90353304D01*
X124409863Y-90547838D01*
X124402513Y-90563932D01*
X124303009Y-90746159D01*
X124293444Y-90761042D01*
X124169020Y-90927253D01*
X124157434Y-90940624D01*
X124010624Y-91087434D01*
X123997253Y-91099020D01*
X123831042Y-91223444D01*
X123816159Y-91233009D01*
X123633932Y-91332513D01*
X123617838Y-91339863D01*
X123423304Y-91412420D01*
X123406329Y-91417404D01*
X123203453Y-91461537D01*
X123185941Y-91464055D01*
X122974438Y-91479182D01*
X122965540Y-91479498D01*
X97194748Y-91468748D01*
X97194274Y-91468718D01*
X97186678Y-91468718D01*
X97125215Y-91468718D01*
X97116369Y-91468402D01*
X97088734Y-91466425D01*
X96904844Y-91453271D01*
X96887333Y-91450753D01*
X96684458Y-91406619D01*
X96667483Y-91401635D01*
X96472945Y-91329076D01*
X96456857Y-91321729D01*
X96274629Y-91222223D01*
X96259747Y-91212659D01*
X96093531Y-91088231D01*
X96080161Y-91076645D01*
X95933354Y-90929838D01*
X95921768Y-90916468D01*
X95797340Y-90750252D01*
X95787775Y-90735369D01*
X95688267Y-90553135D01*
X95680926Y-90537061D01*
X95608363Y-90342515D01*
X95603380Y-90325541D01*
X95559246Y-90122666D01*
X95556728Y-90105154D01*
X95552419Y-90044918D01*
X95541598Y-89893631D01*
X95541282Y-89884784D01*
X95541282Y-89821255D01*
X95540489Y-89809114D01*
X95540910Y-88882328D01*
X95547483Y-74417311D01*
X95567198Y-74350282D01*
X95620023Y-74304551D01*
X95689186Y-74294639D01*
X95752728Y-74323693D01*
G37*
%TD.AperFunction*%
%TA.AperFunction,Conductor*%
G36*
X108384092Y-82970625D02*
G01*
X108411646Y-82971610D01*
X108418094Y-82976087D01*
X108425849Y-82977333D01*
X108446389Y-82995732D01*
X108469039Y-83011458D01*
X108474816Y-83021196D01*
X108477892Y-83023951D01*
X108487046Y-83041809D01*
X108489184Y-83046969D01*
X108545462Y-83182838D01*
X108545463Y-83182840D01*
X108545464Y-83182841D01*
X108641718Y-83308282D01*
X108767159Y-83404536D01*
X108913238Y-83465044D01*
X109030639Y-83480500D01*
X110384360Y-83480499D01*
X110384363Y-83480499D01*
X110501753Y-83465046D01*
X110501757Y-83465044D01*
X110501762Y-83465044D01*
X110562370Y-83439938D01*
X110609823Y-83430500D01*
X110924071Y-83430500D01*
X111008615Y-83413682D01*
X111049744Y-83405501D01*
X111168127Y-83356465D01*
X111178741Y-83349373D01*
X111274669Y-83285277D01*
X111323301Y-83236644D01*
X111329418Y-83231892D01*
X111355007Y-83221820D01*
X111379141Y-83208642D01*
X111387052Y-83209207D01*
X111394433Y-83206303D01*
X111421402Y-83211664D01*
X111448832Y-83213626D01*
X111455181Y-83218379D01*
X111462962Y-83219926D01*
X111482755Y-83239020D01*
X111504766Y-83255497D01*
X111507537Y-83262927D01*
X111513247Y-83268435D01*
X111519574Y-83295198D01*
X111529184Y-83320961D01*
X111529500Y-83329808D01*
X111529500Y-83999192D01*
X111509815Y-84066231D01*
X111493181Y-84086873D01*
X108476873Y-87103181D01*
X108415550Y-87136666D01*
X108389192Y-87139500D01*
X107889618Y-87139500D01*
X107822579Y-87119815D01*
X107788900Y-87085408D01*
X107787915Y-87086125D01*
X107660109Y-86910213D01*
X107509786Y-86759890D01*
X107337820Y-86634951D01*
X107148414Y-86538444D01*
X107148413Y-86538443D01*
X107148412Y-86538443D01*
X106946243Y-86472754D01*
X106946241Y-86472753D01*
X106946240Y-86472753D01*
X106784957Y-86447208D01*
X106736287Y-86439500D01*
X106523713Y-86439500D01*
X106475042Y-86447208D01*
X106313760Y-86472753D01*
X106111585Y-86538444D01*
X105922179Y-86634951D01*
X105750213Y-86759890D01*
X105599890Y-86910213D01*
X105474949Y-87082182D01*
X105470484Y-87090946D01*
X105422509Y-87141742D01*
X105354688Y-87158536D01*
X105288553Y-87135998D01*
X105249516Y-87090946D01*
X105245050Y-87082182D01*
X105120109Y-86910213D01*
X104969786Y-86759890D01*
X104793875Y-86632085D01*
X104794851Y-86630740D01*
X104752834Y-86584295D01*
X104740500Y-86530382D01*
X104740500Y-85430807D01*
X104760185Y-85363768D01*
X104776819Y-85343126D01*
X105003126Y-85116819D01*
X105030053Y-85102115D01*
X105055872Y-85085523D01*
X105062072Y-85084631D01*
X105064449Y-85083334D01*
X105090807Y-85080500D01*
X105165065Y-85080500D01*
X105232104Y-85100185D01*
X105233909Y-85101366D01*
X105290821Y-85139394D01*
X105290823Y-85139395D01*
X105290827Y-85139397D01*
X105436498Y-85199735D01*
X105436503Y-85199737D01*
X105591153Y-85230499D01*
X105591156Y-85230500D01*
X105591158Y-85230500D01*
X105748844Y-85230500D01*
X105748845Y-85230499D01*
X105903497Y-85199737D01*
X106049179Y-85139394D01*
X106180289Y-85051789D01*
X106291789Y-84940289D01*
X106379394Y-84809179D01*
X106439737Y-84663497D01*
X106470500Y-84508842D01*
X106470500Y-84351158D01*
X106470500Y-84351155D01*
X106470499Y-84351153D01*
X106463699Y-84316969D01*
X106439737Y-84196503D01*
X106439735Y-84196498D01*
X106379397Y-84050827D01*
X106379390Y-84050814D01*
X106291789Y-83919711D01*
X106291786Y-83919707D01*
X106180291Y-83808212D01*
X106162916Y-83796603D01*
X106118111Y-83742991D01*
X106109403Y-83673666D01*
X106139557Y-83610638D01*
X106144106Y-83605838D01*
X106386964Y-83362980D01*
X106448285Y-83329497D01*
X106517977Y-83334481D01*
X106562324Y-83362982D01*
X106599811Y-83400469D01*
X106599813Y-83400470D01*
X106599815Y-83400472D01*
X106745394Y-83488478D01*
X106907804Y-83539086D01*
X106978384Y-83545500D01*
X106978387Y-83545500D01*
X107641613Y-83545500D01*
X107641616Y-83545500D01*
X107712196Y-83539086D01*
X107874606Y-83488478D01*
X108020185Y-83400472D01*
X108140472Y-83280185D01*
X108228478Y-83134606D01*
X108254102Y-83052373D01*
X108269388Y-83029426D01*
X108281732Y-83004768D01*
X108288484Y-83000761D01*
X108292838Y-82994227D01*
X108318106Y-82983186D01*
X108341821Y-82969116D01*
X108349666Y-82969396D01*
X108356863Y-82966252D01*
X108384092Y-82970625D01*
G37*
%TD.AperFunction*%
%TA.AperFunction,Conductor*%
G36*
X121095703Y-81196095D02*
G01*
X121102181Y-81202127D01*
X121470325Y-81570272D01*
X121470328Y-81570275D01*
X121551819Y-81624725D01*
X121551818Y-81624725D01*
X121570629Y-81637293D01*
X121576873Y-81641465D01*
X121695256Y-81690501D01*
X121721149Y-81695651D01*
X121783059Y-81728033D01*
X121784646Y-81729592D01*
X121788131Y-81733078D01*
X121788133Y-81733079D01*
X121788135Y-81733081D01*
X121929602Y-81816744D01*
X121943064Y-81820655D01*
X122087426Y-81862597D01*
X122087429Y-81862597D01*
X122087431Y-81862598D01*
X122124306Y-81865500D01*
X122124314Y-81865500D01*
X123905686Y-81865500D01*
X123905694Y-81865500D01*
X123942569Y-81862598D01*
X123942571Y-81862597D01*
X123942573Y-81862597D01*
X123984191Y-81850505D01*
X124100398Y-81816744D01*
X124241865Y-81733081D01*
X124337500Y-81637445D01*
X124398821Y-81603962D01*
X124468513Y-81608946D01*
X124524447Y-81650817D01*
X124548864Y-81716281D01*
X124549180Y-81725123D01*
X124549277Y-84214963D01*
X124529595Y-84282003D01*
X124476793Y-84327760D01*
X124407635Y-84337707D01*
X124344078Y-84308684D01*
X124337596Y-84302649D01*
X124241870Y-84206923D01*
X124241862Y-84206917D01*
X124157223Y-84156862D01*
X124100398Y-84123256D01*
X124100397Y-84123255D01*
X124100396Y-84123255D01*
X124100393Y-84123254D01*
X123942573Y-84077402D01*
X123942567Y-84077401D01*
X123905701Y-84074500D01*
X123905694Y-84074500D01*
X122124306Y-84074500D01*
X122124298Y-84074500D01*
X122087432Y-84077401D01*
X122087426Y-84077402D01*
X121929606Y-84123254D01*
X121929601Y-84123256D01*
X121915001Y-84131890D01*
X121847277Y-84149069D01*
X121781015Y-84126907D01*
X121764204Y-84112836D01*
X121708419Y-84057051D01*
X121708415Y-84057048D01*
X121585501Y-83974919D01*
X121585488Y-83974912D01*
X121448917Y-83918343D01*
X121448907Y-83918340D01*
X121303920Y-83889500D01*
X121303918Y-83889500D01*
X121156082Y-83889500D01*
X121156080Y-83889500D01*
X121011092Y-83918340D01*
X121011082Y-83918343D01*
X120874511Y-83974912D01*
X120874498Y-83974919D01*
X120751584Y-84057048D01*
X120751580Y-84057051D01*
X120647051Y-84161580D01*
X120647048Y-84161584D01*
X120564919Y-84284498D01*
X120564914Y-84284508D01*
X120550381Y-84319595D01*
X120506540Y-84373998D01*
X120440246Y-84396063D01*
X120372546Y-84378784D01*
X120332718Y-84341033D01*
X120311789Y-84309711D01*
X120311786Y-84309707D01*
X120200292Y-84198213D01*
X120200288Y-84198210D01*
X120069185Y-84110609D01*
X120069172Y-84110602D01*
X119923501Y-84050264D01*
X119923489Y-84050261D01*
X119768845Y-84019500D01*
X119768842Y-84019500D01*
X119655705Y-84019500D01*
X119588666Y-83999815D01*
X119542911Y-83947011D01*
X119532967Y-83877853D01*
X119536627Y-83860910D01*
X119537598Y-83857569D01*
X119540500Y-83820694D01*
X119540500Y-83518486D01*
X119560185Y-83451447D01*
X119576819Y-83430805D01*
X120745272Y-82262352D01*
X120745277Y-82262347D01*
X120816466Y-82155804D01*
X120845189Y-82086457D01*
X120865501Y-82037422D01*
X120865502Y-82037417D01*
X120890500Y-81911749D01*
X120890500Y-81289808D01*
X120910185Y-81222769D01*
X120962989Y-81177014D01*
X121032147Y-81167070D01*
X121095703Y-81196095D01*
G37*
%TD.AperFunction*%
%TA.AperFunction,Conductor*%
G36*
X119522024Y-80065481D02*
G01*
X119572720Y-80113561D01*
X119589500Y-80175849D01*
X119589500Y-81526870D01*
X119580855Y-81556307D01*
X119574332Y-81586298D01*
X119570576Y-81591314D01*
X119569815Y-81593909D01*
X119553185Y-81614546D01*
X119516915Y-81650817D01*
X119484020Y-81683712D01*
X119422696Y-81717196D01*
X119353005Y-81712211D01*
X119308658Y-81683711D01*
X119291870Y-81666923D01*
X119291862Y-81666917D01*
X119164023Y-81591314D01*
X119150398Y-81583256D01*
X119150397Y-81583255D01*
X119150396Y-81583255D01*
X119150393Y-81583254D01*
X118992573Y-81537402D01*
X118992567Y-81537401D01*
X118955701Y-81534500D01*
X118955694Y-81534500D01*
X117387145Y-81534500D01*
X117320106Y-81514815D01*
X117284043Y-81479391D01*
X117260451Y-81444084D01*
X117260448Y-81444080D01*
X117155919Y-81339551D01*
X117155915Y-81339548D01*
X117033001Y-81257419D01*
X117032988Y-81257412D01*
X116896417Y-81200843D01*
X116896407Y-81200840D01*
X116751420Y-81172000D01*
X116751418Y-81172000D01*
X116716674Y-81172000D01*
X116703795Y-81168218D01*
X116690408Y-81169186D01*
X116670923Y-81158566D01*
X116649635Y-81152315D01*
X116639501Y-81141439D01*
X116629059Y-81135748D01*
X116615994Y-81116211D01*
X116607887Y-81107510D01*
X116604677Y-81101642D01*
X116594536Y-81077159D01*
X116583209Y-81062397D01*
X116578621Y-81054010D01*
X116573126Y-81028844D01*
X116563838Y-81004819D01*
X116565796Y-80995271D01*
X116563717Y-80985748D01*
X116572701Y-80961603D01*
X116577876Y-80936374D01*
X116584684Y-80929401D01*
X116588084Y-80920265D01*
X116608694Y-80904811D01*
X116626689Y-80886383D01*
X116636801Y-80883737D01*
X116643986Y-80878351D01*
X116662514Y-80877011D01*
X116687408Y-80870500D01*
X117809071Y-80870500D01*
X117915615Y-80849306D01*
X117934744Y-80845501D01*
X118053127Y-80796465D01*
X118053127Y-80796464D01*
X118053129Y-80796464D01*
X118053131Y-80796462D01*
X118055343Y-80794984D01*
X118055385Y-80794956D01*
X118159669Y-80725277D01*
X118613127Y-80271817D01*
X118674450Y-80238333D01*
X118700808Y-80235499D01*
X118978338Y-80235499D01*
X118978344Y-80235499D01*
X118978352Y-80235498D01*
X118978355Y-80235498D01*
X119032760Y-80229940D01*
X119077708Y-80225349D01*
X119238697Y-80172003D01*
X119383044Y-80082968D01*
X119383050Y-80082961D01*
X119388587Y-80078584D01*
X119453382Y-80052443D01*
X119522024Y-80065481D01*
G37*
%TD.AperFunction*%
%TA.AperFunction,Conductor*%
G36*
X122883844Y-68289777D02*
G01*
X122886066Y-68289798D01*
X122898657Y-68290031D01*
X122903322Y-68291282D01*
X122965957Y-68291282D01*
X122967088Y-68291303D01*
X122967308Y-68291372D01*
X122973631Y-68291597D01*
X123185157Y-68306728D01*
X123202662Y-68309245D01*
X123405542Y-68353380D01*
X123422515Y-68358363D01*
X123617061Y-68430926D01*
X123633135Y-68438267D01*
X123815373Y-68537778D01*
X123830252Y-68547340D01*
X123983109Y-68661768D01*
X123996468Y-68671768D01*
X124009838Y-68683354D01*
X124156645Y-68830161D01*
X124168231Y-68843531D01*
X124292659Y-69009747D01*
X124302223Y-69024629D01*
X124401729Y-69206857D01*
X124409076Y-69222945D01*
X124481635Y-69417483D01*
X124486619Y-69434458D01*
X124530753Y-69637333D01*
X124533271Y-69654845D01*
X124548400Y-69866353D01*
X124548716Y-69875188D01*
X124548718Y-69896170D01*
X124548718Y-69944266D01*
X124548719Y-69944287D01*
X124549128Y-80404814D01*
X124529446Y-80471854D01*
X124476644Y-80517611D01*
X124407486Y-80527558D01*
X124343929Y-80498535D01*
X124337447Y-80492500D01*
X124241870Y-80396923D01*
X124241862Y-80396917D01*
X124100396Y-80313255D01*
X124100393Y-80313254D01*
X123942573Y-80267402D01*
X123942567Y-80267401D01*
X123905701Y-80264500D01*
X123905694Y-80264500D01*
X122124306Y-80264500D01*
X122124298Y-80264500D01*
X122087430Y-80267401D01*
X122086242Y-80267619D01*
X122085570Y-80267548D01*
X122081114Y-80267899D01*
X122081048Y-80267071D01*
X122055365Y-80264365D01*
X122024358Y-80263140D01*
X122020925Y-80260737D01*
X122016757Y-80260298D01*
X121992545Y-80240872D01*
X121967118Y-80223073D01*
X121964748Y-80218568D01*
X121962260Y-80216572D01*
X121949225Y-80192651D01*
X121946773Y-80186668D01*
X121946658Y-80186087D01*
X121935297Y-80158661D01*
X121935207Y-80158440D01*
X121931624Y-80123875D01*
X121927918Y-80089410D01*
X121928028Y-80089189D01*
X121928003Y-80088943D01*
X121943651Y-80057977D01*
X121959192Y-80026930D01*
X121959505Y-80026605D01*
X121959516Y-80026584D01*
X121959538Y-80026570D01*
X121962226Y-80023785D01*
X122022968Y-79963044D01*
X122112003Y-79818697D01*
X122165349Y-79657708D01*
X122175500Y-79558345D01*
X122175499Y-78961656D01*
X122173524Y-78942326D01*
X122165349Y-78862292D01*
X122165348Y-78862289D01*
X122140859Y-78788386D01*
X122112003Y-78701303D01*
X122111999Y-78701297D01*
X122111998Y-78701294D01*
X122022970Y-78556959D01*
X122022967Y-78556955D01*
X121903044Y-78437032D01*
X121903038Y-78437027D01*
X121899398Y-78434782D01*
X121897427Y-78432590D01*
X121897377Y-78432551D01*
X121897383Y-78432542D01*
X121852676Y-78382832D01*
X121840500Y-78329247D01*
X121840500Y-77973840D01*
X121853616Y-77921481D01*
X121852753Y-77921124D01*
X121911656Y-77778917D01*
X121911658Y-77778913D01*
X121940500Y-77633918D01*
X121940500Y-77486082D01*
X121940500Y-77486079D01*
X121911659Y-77341092D01*
X121911658Y-77341091D01*
X121911658Y-77341087D01*
X121893876Y-77298157D01*
X121855087Y-77204511D01*
X121855080Y-77204498D01*
X121772951Y-77081584D01*
X121772948Y-77081580D01*
X121668419Y-76977051D01*
X121668415Y-76977048D01*
X121545501Y-76894919D01*
X121545488Y-76894912D01*
X121408917Y-76838343D01*
X121408907Y-76838340D01*
X121263920Y-76809500D01*
X121263918Y-76809500D01*
X121116082Y-76809500D01*
X121116077Y-76809500D01*
X121038691Y-76824893D01*
X120969099Y-76818666D01*
X120913922Y-76775802D01*
X120890678Y-76709913D01*
X120890500Y-76703276D01*
X120890500Y-75015928D01*
X120865502Y-74890261D01*
X120865501Y-74890260D01*
X120865501Y-74890256D01*
X120816465Y-74771873D01*
X120803884Y-74753044D01*
X120792806Y-74736464D01*
X120792805Y-74736463D01*
X120745281Y-74665336D01*
X120745277Y-74665331D01*
X119714674Y-73634727D01*
X119714673Y-73634726D01*
X119710173Y-73631719D01*
X119608127Y-73563535D01*
X119578596Y-73551303D01*
X119489744Y-73514499D01*
X119489738Y-73514497D01*
X119364071Y-73489500D01*
X119364069Y-73489500D01*
X118531539Y-73489500D01*
X118484087Y-73480061D01*
X118471765Y-73474957D01*
X118471760Y-73474955D01*
X118354370Y-73459501D01*
X118354367Y-73459500D01*
X118354361Y-73459500D01*
X118354354Y-73459500D01*
X117000636Y-73459500D01*
X116883246Y-73474953D01*
X116883237Y-73474956D01*
X116737160Y-73535463D01*
X116611717Y-73631719D01*
X116570773Y-73685078D01*
X116514344Y-73726280D01*
X116444598Y-73730434D01*
X116384718Y-73697272D01*
X116267169Y-73579723D01*
X116160627Y-73508535D01*
X116160626Y-73508534D01*
X116160624Y-73508533D01*
X116056627Y-73465456D01*
X116013679Y-73435769D01*
X116005111Y-73426643D01*
X115992968Y-73406956D01*
X115889274Y-73303262D01*
X115887939Y-73301840D01*
X115873014Y-73272333D01*
X115857174Y-73243324D01*
X115857318Y-73241302D01*
X115856403Y-73239492D01*
X115859799Y-73206608D01*
X115862158Y-73173632D01*
X115863406Y-73171689D01*
X115863582Y-73169992D01*
X115868261Y-73164135D01*
X115890657Y-73129287D01*
X117170365Y-71849578D01*
X117231688Y-71816094D01*
X117301380Y-71821078D01*
X117330929Y-71836940D01*
X117444595Y-71919524D01*
X117505495Y-71950554D01*
X117619970Y-72008882D01*
X117619972Y-72008882D01*
X117619975Y-72008884D01*
X117720317Y-72041487D01*
X117807173Y-72069709D01*
X118001578Y-72100500D01*
X118001583Y-72100500D01*
X118198422Y-72100500D01*
X118392826Y-72069709D01*
X118580025Y-72008884D01*
X118755405Y-71919524D01*
X118914646Y-71803828D01*
X119053828Y-71664646D01*
X119169524Y-71505405D01*
X119258884Y-71330025D01*
X119319709Y-71142826D01*
X119350500Y-70948422D01*
X119350500Y-70751577D01*
X119319709Y-70557173D01*
X119272704Y-70412508D01*
X119258884Y-70369975D01*
X119258882Y-70369972D01*
X119258882Y-70369970D01*
X119201919Y-70258174D01*
X119169524Y-70194595D01*
X119053828Y-70035354D01*
X118914646Y-69896172D01*
X118755405Y-69780476D01*
X118580029Y-69691117D01*
X118392826Y-69630290D01*
X118198422Y-69599500D01*
X118198417Y-69599500D01*
X118001583Y-69599500D01*
X118001578Y-69599500D01*
X117807173Y-69630290D01*
X117619970Y-69691117D01*
X117444594Y-69780476D01*
X117425068Y-69794663D01*
X117285354Y-69896172D01*
X117285352Y-69896174D01*
X117285351Y-69896174D01*
X117146174Y-70035351D01*
X117146169Y-70035357D01*
X117030478Y-70194592D01*
X117030474Y-70194598D01*
X117023959Y-70207383D01*
X116975980Y-70258174D01*
X116960939Y-70265636D01*
X116941876Y-70273533D01*
X116835328Y-70344725D01*
X116835327Y-70344726D01*
X114664727Y-72515325D01*
X114664726Y-72515326D01*
X114605145Y-72604498D01*
X114593533Y-72621876D01*
X114544499Y-72740255D01*
X114544497Y-72740261D01*
X114519500Y-72865928D01*
X114519500Y-73185452D01*
X114499815Y-73252491D01*
X114485860Y-73270370D01*
X114474677Y-73282269D01*
X114466956Y-73287032D01*
X114347032Y-73406956D01*
X114327037Y-73439371D01*
X114318444Y-73448516D01*
X114298696Y-73460108D01*
X114281673Y-73475420D01*
X114269141Y-73477459D01*
X114258190Y-73483888D01*
X114235308Y-73482964D01*
X114212710Y-73486641D01*
X114201065Y-73481581D01*
X114188377Y-73481069D01*
X114169629Y-73467922D01*
X114148628Y-73458797D01*
X114136256Y-73444519D01*
X114131171Y-73440953D01*
X114129388Y-73436593D01*
X114122546Y-73428696D01*
X114102969Y-73396958D01*
X114102968Y-73396956D01*
X113983044Y-73277032D01*
X113983043Y-73277031D01*
X113983041Y-73277029D01*
X113977590Y-73272719D01*
X113937213Y-73215697D01*
X113930500Y-73175452D01*
X113930500Y-73165928D01*
X113905502Y-73040261D01*
X113905501Y-73040260D01*
X113905501Y-73040256D01*
X113856465Y-72921873D01*
X113856464Y-72921872D01*
X113856461Y-72921866D01*
X113785277Y-72815332D01*
X113785276Y-72815331D01*
X113694669Y-72724724D01*
X112956818Y-71986873D01*
X112923333Y-71925550D01*
X112920499Y-71899192D01*
X112920499Y-70412129D01*
X112920498Y-70412123D01*
X112920497Y-70412116D01*
X112914091Y-70352517D01*
X112911185Y-70344726D01*
X112863797Y-70217671D01*
X112863793Y-70217664D01*
X112777547Y-70102455D01*
X112777544Y-70102452D01*
X112662335Y-70016206D01*
X112662328Y-70016202D01*
X112527482Y-69965908D01*
X112527483Y-69965908D01*
X112467883Y-69959501D01*
X112467881Y-69959500D01*
X112467873Y-69959500D01*
X112467864Y-69959500D01*
X110672129Y-69959500D01*
X110672123Y-69959501D01*
X110612516Y-69965908D01*
X110477671Y-70016202D01*
X110477664Y-70016206D01*
X110362455Y-70102452D01*
X110362452Y-70102455D01*
X110276206Y-70217664D01*
X110276202Y-70217671D01*
X110225908Y-70352517D01*
X110219501Y-70412116D01*
X110219501Y-70412123D01*
X110219500Y-70412135D01*
X110219500Y-72207870D01*
X110219501Y-72207876D01*
X110225908Y-72267483D01*
X110276202Y-72402328D01*
X110276206Y-72402335D01*
X110362452Y-72517544D01*
X110362455Y-72517547D01*
X110477664Y-72603793D01*
X110477671Y-72603797D01*
X110612517Y-72654091D01*
X110612516Y-72654091D01*
X110619444Y-72654835D01*
X110672127Y-72660500D01*
X111739191Y-72660499D01*
X111806230Y-72680183D01*
X111826872Y-72696818D01*
X112414399Y-73284344D01*
X112447884Y-73345667D01*
X112442900Y-73415358D01*
X112432257Y-73437122D01*
X112367998Y-73541300D01*
X112367996Y-73541305D01*
X112314651Y-73702290D01*
X112304500Y-73801647D01*
X112304500Y-74074191D01*
X112284815Y-74141230D01*
X112268181Y-74161872D01*
X111894597Y-74535455D01*
X111833274Y-74568940D01*
X111772380Y-74564585D01*
X111771789Y-74566620D01*
X111606472Y-74518590D01*
X111606466Y-74518589D01*
X111569600Y-74515688D01*
X111569593Y-74515688D01*
X109788205Y-74515688D01*
X109788197Y-74515688D01*
X109751331Y-74518589D01*
X109751325Y-74518590D01*
X109593505Y-74564442D01*
X109593502Y-74564443D01*
X109452036Y-74648105D01*
X109452028Y-74648111D01*
X109335822Y-74764317D01*
X109335816Y-74764325D01*
X109252154Y-74905791D01*
X109252153Y-74905794D01*
X109206301Y-75063614D01*
X109206300Y-75063620D01*
X109203399Y-75100486D01*
X109203399Y-75531889D01*
X109206300Y-75568755D01*
X109206301Y-75568761D01*
X109252153Y-75726581D01*
X109252154Y-75726584D01*
X109335816Y-75868050D01*
X109340601Y-75874219D01*
X109338155Y-75876115D01*
X109364756Y-75924830D01*
X109359772Y-75994522D01*
X109338968Y-76026891D01*
X109340601Y-76028157D01*
X109335816Y-76034325D01*
X109252154Y-76175791D01*
X109252153Y-76175794D01*
X109206301Y-76333614D01*
X109206300Y-76333620D01*
X109203399Y-76370486D01*
X109203399Y-76801889D01*
X109206300Y-76838755D01*
X109206301Y-76838761D01*
X109252153Y-76996581D01*
X109252154Y-76996584D01*
X109335816Y-77138050D01*
X109340601Y-77144219D01*
X109338155Y-77146115D01*
X109364756Y-77194830D01*
X109359772Y-77264522D01*
X109338968Y-77296891D01*
X109340601Y-77298157D01*
X109335816Y-77304325D01*
X109252154Y-77445791D01*
X109252153Y-77445794D01*
X109206301Y-77603614D01*
X109206300Y-77603620D01*
X109203399Y-77640486D01*
X109203399Y-78071889D01*
X109206300Y-78108755D01*
X109206301Y-78108761D01*
X109252153Y-78266581D01*
X109252154Y-78266584D01*
X109252155Y-78266586D01*
X109271760Y-78299736D01*
X109335816Y-78408050D01*
X109335822Y-78408058D01*
X109452028Y-78524264D01*
X109452032Y-78524267D01*
X109452034Y-78524269D01*
X109593501Y-78607932D01*
X109635123Y-78620024D01*
X109751325Y-78653785D01*
X109751328Y-78653785D01*
X109751330Y-78653786D01*
X109788205Y-78656688D01*
X109788213Y-78656688D01*
X111569585Y-78656688D01*
X111569593Y-78656688D01*
X111606468Y-78653786D01*
X111606470Y-78653785D01*
X111606472Y-78653785D01*
X111648090Y-78641693D01*
X111764297Y-78607932D01*
X111905764Y-78524269D01*
X112021980Y-78408053D01*
X112105643Y-78266586D01*
X112149538Y-78115500D01*
X112151496Y-78108761D01*
X112151497Y-78108755D01*
X112154399Y-78071882D01*
X112154399Y-77640494D01*
X112151497Y-77603619D01*
X112124954Y-77512258D01*
X112125153Y-77442389D01*
X112163095Y-77383719D01*
X112226733Y-77354875D01*
X112268219Y-77356045D01*
X112313175Y-77364988D01*
X112391155Y-77380500D01*
X112391158Y-77380500D01*
X112548844Y-77380500D01*
X112548845Y-77380499D01*
X112703497Y-77349737D01*
X112849179Y-77289394D01*
X112980289Y-77201789D01*
X113035963Y-77146115D01*
X113091788Y-77090291D01*
X113091789Y-77090289D01*
X113179394Y-76959179D01*
X113239737Y-76813497D01*
X113270500Y-76658842D01*
X113270500Y-76501158D01*
X113270500Y-76501155D01*
X113270499Y-76501153D01*
X113247797Y-76387023D01*
X113239737Y-76346503D01*
X113224423Y-76309531D01*
X113179397Y-76200827D01*
X113179390Y-76200814D01*
X113091789Y-76069711D01*
X113091786Y-76069707D01*
X112980292Y-75958213D01*
X112980288Y-75958210D01*
X112849185Y-75870609D01*
X112849172Y-75870602D01*
X112702547Y-75809869D01*
X112648143Y-75766028D01*
X112626078Y-75699734D01*
X112643357Y-75632035D01*
X112662315Y-75607630D01*
X113208127Y-75061817D01*
X113269450Y-75028333D01*
X113295808Y-75025499D01*
X113578338Y-75025499D01*
X113578344Y-75025499D01*
X113578352Y-75025498D01*
X113578355Y-75025498D01*
X113672010Y-75015931D01*
X113677708Y-75015349D01*
X113838697Y-74962003D01*
X113983044Y-74872968D01*
X114102968Y-74753044D01*
X114116376Y-74731305D01*
X114168322Y-74684581D01*
X114237284Y-74673357D01*
X114301367Y-74701199D01*
X114327452Y-74731302D01*
X114347029Y-74763040D01*
X114347032Y-74763044D01*
X114466955Y-74882967D01*
X114466959Y-74882970D01*
X114611294Y-74971998D01*
X114611297Y-74971999D01*
X114611303Y-74972003D01*
X114772292Y-75025349D01*
X114871655Y-75035500D01*
X115468344Y-75035499D01*
X115468352Y-75035498D01*
X115468355Y-75035498D01*
X115538496Y-75028333D01*
X115567708Y-75025349D01*
X115724342Y-74973445D01*
X115739906Y-74972910D01*
X115754498Y-74967468D01*
X115774108Y-74971734D01*
X115794168Y-74971044D01*
X115808493Y-74979214D01*
X115822771Y-74982320D01*
X115851025Y-75003471D01*
X115996122Y-75148568D01*
X116029607Y-75209891D01*
X116024623Y-75279583D01*
X115996123Y-75323930D01*
X115834724Y-75485329D01*
X115777744Y-75570607D01*
X115763535Y-75591872D01*
X115714499Y-75710255D01*
X115714497Y-75710261D01*
X115689500Y-75835928D01*
X115689500Y-76371251D01*
X115669815Y-76438290D01*
X115617011Y-76484045D01*
X115554282Y-76494742D01*
X115551619Y-76494500D01*
X115551616Y-76494500D01*
X114888384Y-76494500D01*
X114869145Y-76496248D01*
X114817807Y-76500913D01*
X114655393Y-76551522D01*
X114509811Y-76639530D01*
X114509810Y-76639531D01*
X114393459Y-76755883D01*
X114386534Y-76760510D01*
X114383595Y-76764745D01*
X114353244Y-76782758D01*
X114347179Y-76785271D01*
X114347166Y-76785276D01*
X114266878Y-76818532D01*
X114266863Y-76818540D01*
X114160332Y-76889721D01*
X114160325Y-76889727D01*
X112930408Y-78119644D01*
X112879617Y-78150348D01*
X112715397Y-78201520D01*
X112569811Y-78289530D01*
X112449530Y-78409811D01*
X112361522Y-78555393D01*
X112310913Y-78717807D01*
X112310558Y-78721718D01*
X112304500Y-78788384D01*
X112304500Y-79301616D01*
X112306423Y-79322778D01*
X112310913Y-79372192D01*
X112310913Y-79372194D01*
X112310914Y-79372196D01*
X112331610Y-79438613D01*
X112332760Y-79508470D01*
X112295959Y-79567863D01*
X112232890Y-79597931D01*
X112213224Y-79599500D01*
X110873429Y-79599500D01*
X110747761Y-79624497D01*
X110747755Y-79624499D01*
X110654996Y-79662921D01*
X110654989Y-79662924D01*
X110650775Y-79664670D01*
X110629373Y-79673535D01*
X110615488Y-79682811D01*
X110608684Y-79686238D01*
X110581499Y-79691207D01*
X110555131Y-79699463D01*
X110547618Y-79697401D01*
X110539953Y-79698803D01*
X110514400Y-79688287D01*
X110487752Y-79680976D01*
X110478128Y-79673360D01*
X110475341Y-79672214D01*
X110473692Y-79669850D01*
X110465244Y-79663166D01*
X110440289Y-79638211D01*
X110440288Y-79638210D01*
X110440287Y-79638209D01*
X110309185Y-79550609D01*
X110309172Y-79550602D01*
X110163501Y-79490264D01*
X110163489Y-79490261D01*
X110008845Y-79459500D01*
X110008842Y-79459500D01*
X109851158Y-79459500D01*
X109851155Y-79459500D01*
X109696510Y-79490261D01*
X109696498Y-79490264D01*
X109550827Y-79550602D01*
X109550820Y-79550606D01*
X109524994Y-79567863D01*
X109493955Y-79588602D01*
X109427279Y-79609480D01*
X109425065Y-79609500D01*
X107299612Y-79609500D01*
X107232573Y-79589815D01*
X107186818Y-79537011D01*
X107176874Y-79467853D01*
X107180536Y-79450904D01*
X107188648Y-79422983D01*
X107201497Y-79378757D01*
X107204399Y-79341882D01*
X107204399Y-78910494D01*
X107201497Y-78873619D01*
X107198206Y-78862292D01*
X107155644Y-78715794D01*
X107155643Y-78715791D01*
X107155643Y-78715790D01*
X107071980Y-78574323D01*
X107071977Y-78574320D01*
X107067197Y-78568157D01*
X107069649Y-78566254D01*
X107043054Y-78517609D01*
X107048003Y-78447914D01*
X107068839Y-78415492D01*
X107067197Y-78414219D01*
X107071974Y-78408058D01*
X107071980Y-78408053D01*
X107155643Y-78266586D01*
X107199538Y-78115500D01*
X107201496Y-78108761D01*
X107201497Y-78108755D01*
X107204399Y-78071882D01*
X107204399Y-77640494D01*
X107201497Y-77603619D01*
X107201496Y-77603617D01*
X107201496Y-77603614D01*
X107155644Y-77445794D01*
X107155643Y-77445791D01*
X107155643Y-77445790D01*
X107071980Y-77304323D01*
X107071977Y-77304320D01*
X107067197Y-77298157D01*
X107069649Y-77296254D01*
X107043054Y-77247609D01*
X107048003Y-77177914D01*
X107068839Y-77145492D01*
X107067197Y-77144219D01*
X107071974Y-77138058D01*
X107071980Y-77138053D01*
X107155643Y-76996586D01*
X107201497Y-76838757D01*
X107204399Y-76801882D01*
X107204399Y-76370494D01*
X107201497Y-76333619D01*
X107194498Y-76309530D01*
X107155644Y-76175794D01*
X107155643Y-76175791D01*
X107155643Y-76175790D01*
X107071980Y-76034323D01*
X107071977Y-76034320D01*
X107067197Y-76028157D01*
X107069649Y-76026254D01*
X107043054Y-75977609D01*
X107048003Y-75907914D01*
X107068839Y-75875492D01*
X107067197Y-75874219D01*
X107071974Y-75868058D01*
X107071980Y-75868053D01*
X107155643Y-75726586D01*
X107194781Y-75591872D01*
X107201496Y-75568761D01*
X107201497Y-75568755D01*
X107201714Y-75565995D01*
X107204399Y-75531882D01*
X107204399Y-75100494D01*
X107201497Y-75063619D01*
X107193327Y-75035499D01*
X107155644Y-74905794D01*
X107155643Y-74905791D01*
X107155643Y-74905790D01*
X107071980Y-74764323D01*
X107071978Y-74764321D01*
X107071975Y-74764317D01*
X106955769Y-74648111D01*
X106955761Y-74648105D01*
X106901866Y-74616232D01*
X106854183Y-74565163D01*
X106841679Y-74496422D01*
X106868324Y-74431832D01*
X106925659Y-74391902D01*
X106964987Y-74385500D01*
X108439878Y-74385500D01*
X108439879Y-74385500D01*
X108493669Y-74382630D01*
X108519908Y-74379822D01*
X108573086Y-74371245D01*
X108707944Y-74321096D01*
X108738315Y-74304551D01*
X108769297Y-74287673D01*
X108769297Y-74287672D01*
X108769300Y-74287671D01*
X108884565Y-74201560D01*
X109602768Y-73484766D01*
X109638807Y-73444745D01*
X109655396Y-73424222D01*
X109686982Y-73380579D01*
X109736673Y-73272333D01*
X109747006Y-73249825D01*
X109747006Y-73249823D01*
X109747009Y-73249818D01*
X109766825Y-73182818D01*
X109787581Y-73040443D01*
X109792745Y-70412508D01*
X109789898Y-70357931D01*
X109787060Y-70331309D01*
X109778338Y-70277358D01*
X109776911Y-70273535D01*
X109747453Y-70194595D01*
X109728034Y-70142558D01*
X109694539Y-70081241D01*
X109608298Y-69966076D01*
X109568886Y-69926677D01*
X108461568Y-68819715D01*
X108420901Y-68783235D01*
X108420889Y-68783225D01*
X108400023Y-68766451D01*
X108370766Y-68745431D01*
X108355632Y-68734558D01*
X108224618Y-68675087D01*
X108224615Y-68675086D01*
X108157545Y-68655558D01*
X108157534Y-68655555D01*
X108062557Y-68642121D01*
X108015070Y-68635404D01*
X108015069Y-68635404D01*
X108015068Y-68635404D01*
X97476228Y-68659522D01*
X97422599Y-68662499D01*
X97422594Y-68662500D01*
X97396469Y-68665348D01*
X97396461Y-68665349D01*
X97343447Y-68674001D01*
X97208675Y-68724375D01*
X97147384Y-68757899D01*
X97147380Y-68757902D01*
X97032260Y-68844206D01*
X97032255Y-68844210D01*
X97032251Y-68844214D01*
X95857031Y-70021074D01*
X95856993Y-70021115D01*
X95822011Y-70059975D01*
X95821985Y-70060006D01*
X95805865Y-70079893D01*
X95773708Y-70124056D01*
X95748738Y-70143268D01*
X95724927Y-70163882D01*
X95721265Y-70164406D01*
X95718333Y-70166663D01*
X95686946Y-70169325D01*
X95655764Y-70173794D01*
X95652398Y-70172255D01*
X95648713Y-70172568D01*
X95620873Y-70157840D01*
X95592221Y-70144740D01*
X95590222Y-70141626D01*
X95586953Y-70139897D01*
X95571493Y-70112454D01*
X95554474Y-70085944D01*
X95553762Y-70080978D01*
X95552660Y-70079022D01*
X95549467Y-70051007D01*
X95549475Y-70035357D01*
X95549514Y-69948170D01*
X95550576Y-69932038D01*
X95551282Y-69926677D01*
X95551282Y-69865215D01*
X95551598Y-69856368D01*
X95556464Y-69788335D01*
X95566728Y-69644840D01*
X95569246Y-69627333D01*
X95612643Y-69427849D01*
X95613381Y-69424453D01*
X95618364Y-69407483D01*
X95690928Y-69212933D01*
X95698264Y-69196869D01*
X95797781Y-69014619D01*
X95807336Y-68999751D01*
X95931775Y-68833522D01*
X95943347Y-68820168D01*
X96090168Y-68673347D01*
X96103522Y-68661775D01*
X96269751Y-68537336D01*
X96284619Y-68527781D01*
X96466869Y-68428264D01*
X96482933Y-68420928D01*
X96677487Y-68348362D01*
X96694453Y-68343381D01*
X96897338Y-68299245D01*
X96914840Y-68296728D01*
X97126368Y-68281597D01*
X97135215Y-68281282D01*
X97204370Y-68281282D01*
X97205322Y-68281218D01*
X122883844Y-68289777D01*
G37*
%TD.AperFunction*%
%TA.AperFunction,Conductor*%
G36*
X118445886Y-76818303D02*
G01*
X118480717Y-76842796D01*
X118536087Y-76898166D01*
X118536090Y-76898168D01*
X118539711Y-76901789D01*
X118587704Y-76933857D01*
X118588527Y-76934426D01*
X118609893Y-76960835D01*
X118631699Y-76986927D01*
X118631826Y-76987945D01*
X118632473Y-76988744D01*
X118636173Y-77022548D01*
X118640407Y-77056252D01*
X118639981Y-77057333D01*
X118640076Y-77058199D01*
X118638006Y-77062353D01*
X118621106Y-77105309D01*
X118550609Y-77210814D01*
X118550602Y-77210827D01*
X118490264Y-77356498D01*
X118490261Y-77356508D01*
X118476920Y-77423579D01*
X118444535Y-77485490D01*
X118442985Y-77487068D01*
X118199723Y-77730331D01*
X118128534Y-77836874D01*
X118079499Y-77955255D01*
X118079497Y-77955261D01*
X118054500Y-78080928D01*
X118054500Y-78358125D01*
X118034815Y-78425164D01*
X118018182Y-78445806D01*
X117907029Y-78556959D01*
X117818001Y-78701294D01*
X117817996Y-78701305D01*
X117764651Y-78862290D01*
X117754500Y-78961647D01*
X117754500Y-79239191D01*
X117734815Y-79306230D01*
X117718181Y-79326872D01*
X117511873Y-79533181D01*
X117450550Y-79566666D01*
X117424192Y-79569500D01*
X116296124Y-79569500D01*
X116229085Y-79549815D01*
X116183330Y-79497011D01*
X116173386Y-79427853D01*
X116177739Y-79408610D01*
X116187041Y-79378758D01*
X116189086Y-79372196D01*
X116195500Y-79301616D01*
X116195500Y-78788384D01*
X116189086Y-78717804D01*
X116138478Y-78555394D01*
X116050472Y-78409815D01*
X116050470Y-78409813D01*
X116050469Y-78409811D01*
X115948339Y-78307681D01*
X115944001Y-78299736D01*
X115936753Y-78294311D01*
X115927516Y-78269548D01*
X115914854Y-78246358D01*
X115915499Y-78237329D01*
X115912336Y-78228847D01*
X115917952Y-78203024D01*
X115919838Y-78176666D01*
X115925655Y-78167613D01*
X115927187Y-78160574D01*
X115948338Y-78132319D01*
X115971902Y-78108755D01*
X116039473Y-78041183D01*
X116079700Y-78014306D01*
X116183125Y-77971466D01*
X116183127Y-77971465D01*
X116207385Y-77955257D01*
X116234813Y-77936929D01*
X116289669Y-77900277D01*
X116845276Y-77344670D01*
X116898829Y-77264522D01*
X116916464Y-77238129D01*
X116927773Y-77210827D01*
X116965501Y-77119744D01*
X116971360Y-77090289D01*
X116990500Y-76994069D01*
X116990500Y-76927108D01*
X116991377Y-76919775D01*
X117002340Y-76894174D01*
X117010185Y-76867460D01*
X117015903Y-76862504D01*
X117018883Y-76855548D01*
X117041946Y-76839938D01*
X117062989Y-76821705D01*
X117071680Y-76819814D01*
X117076746Y-76816386D01*
X117088751Y-76816100D01*
X117114495Y-76810499D01*
X118354360Y-76810499D01*
X118376851Y-76807538D01*
X118445886Y-76818303D01*
G37*
%TD.AperFunction*%
%TA.AperFunction,Conductor*%
G36*
X98270703Y-77911807D02*
G01*
X98277181Y-77917839D01*
X98329811Y-77970469D01*
X98329813Y-77970470D01*
X98329815Y-77970472D01*
X98475394Y-78058478D01*
X98637804Y-78109086D01*
X98708384Y-78115500D01*
X98969192Y-78115500D01*
X98998632Y-78124144D01*
X99028619Y-78130668D01*
X99033634Y-78134422D01*
X99036231Y-78135185D01*
X99056873Y-78151819D01*
X99144872Y-78239818D01*
X99178357Y-78301141D01*
X99173373Y-78370833D01*
X99144872Y-78415180D01*
X98617726Y-78942326D01*
X98546533Y-79048875D01*
X98536559Y-79072955D01*
X98524016Y-79088518D01*
X98515712Y-79106703D01*
X98502539Y-79115168D01*
X98492717Y-79127357D01*
X98473751Y-79133669D01*
X98456934Y-79144477D01*
X98429369Y-79148440D01*
X98426423Y-79149421D01*
X98421999Y-79149500D01*
X98302229Y-79149500D01*
X98235190Y-79129815D01*
X98214553Y-79113185D01*
X98101817Y-79000449D01*
X98068334Y-78939128D01*
X98065500Y-78912770D01*
X98065500Y-78005520D01*
X98085185Y-77938481D01*
X98137989Y-77892726D01*
X98207147Y-77882782D01*
X98270703Y-77911807D01*
G37*
%TD.AperFunction*%
%TD*%
M02*
