%TF.GenerationSoftware,KiCad,Pcbnew,(6.0.6)*%
%TF.CreationDate,2022-08-10T17:58:30-05:00*%
%TF.ProjectId,EFuse_Test,45467573-655f-4546-9573-742e6b696361,rev?*%
%TF.SameCoordinates,Original*%
%TF.FileFunction,Copper,L3,Inr*%
%TF.FilePolarity,Positive*%
%FSLAX46Y46*%
G04 Gerber Fmt 4.6, Leading zero omitted, Abs format (unit mm)*
G04 Created by KiCad (PCBNEW (6.0.6)) date 2022-08-10 17:58:30*
%MOMM*%
%LPD*%
G01*
G04 APERTURE LIST*
G04 Aperture macros list*
%AMRoundRect*
0 Rectangle with rounded corners*
0 $1 Rounding radius*
0 $2 $3 $4 $5 $6 $7 $8 $9 X,Y pos of 4 corners*
0 Add a 4 corners polygon primitive as box body*
4,1,4,$2,$3,$4,$5,$6,$7,$8,$9,$2,$3,0*
0 Add four circle primitives for the rounded corners*
1,1,$1+$1,$2,$3*
1,1,$1+$1,$4,$5*
1,1,$1+$1,$6,$7*
1,1,$1+$1,$8,$9*
0 Add four rect primitives between the rounded corners*
20,1,$1+$1,$2,$3,$4,$5,0*
20,1,$1+$1,$4,$5,$6,$7,0*
20,1,$1+$1,$6,$7,$8,$9,0*
20,1,$1+$1,$8,$9,$2,$3,0*%
G04 Aperture macros list end*
%TA.AperFunction,ComponentPad*%
%ADD10R,1.520000X1.520000*%
%TD*%
%TA.AperFunction,ComponentPad*%
%ADD11C,1.520000*%
%TD*%
%TA.AperFunction,ComponentPad*%
%ADD12C,2.200000*%
%TD*%
%TA.AperFunction,ComponentPad*%
%ADD13RoundRect,0.250001X-0.499999X-0.759999X0.499999X-0.759999X0.499999X0.759999X-0.499999X0.759999X0*%
%TD*%
%TA.AperFunction,ComponentPad*%
%ADD14O,1.500000X2.020000*%
%TD*%
%TA.AperFunction,ComponentPad*%
%ADD15RoundRect,0.250001X-0.499999X-0.499999X0.499999X-0.499999X0.499999X0.499999X-0.499999X0.499999X0*%
%TD*%
%TA.AperFunction,ComponentPad*%
%ADD16C,1.500000*%
%TD*%
%TA.AperFunction,ViaPad*%
%ADD17C,0.523240*%
%TD*%
%TA.AperFunction,ViaPad*%
%ADD18C,1.066800*%
%TD*%
%TA.AperFunction,ViaPad*%
%ADD19C,0.800000*%
%TD*%
G04 APERTURE END LIST*
D10*
%TO.N,GND*%
%TO.C,J1*%
X171374994Y-99540009D03*
D11*
%TO.N,+BATT*%
X171374994Y-96040008D03*
D12*
%TO.N,GND*%
X179284986Y-102040004D03*
X179284986Y-93540021D03*
%TD*%
D13*
%TO.N,UART_TX*%
%TO.C,J3*%
X149352000Y-123698000D03*
D14*
%TO.N,UART_RX*%
X152352000Y-123698000D03*
%TO.N,GND*%
X155352000Y-123698000D03*
%TD*%
D15*
%TO.N,NRST*%
%TO.C,J2*%
X153210000Y-99050000D03*
D16*
%TO.N,+3V3*%
X156210000Y-99050000D03*
%TO.N,SWCLK*%
X159210000Y-99050000D03*
%TO.N,SWDIO*%
X153210000Y-102050000D03*
%TO.N,GND*%
X156210000Y-102050000D03*
%TO.N,unconnected-(J2-Pad6)*%
X159210000Y-102050000D03*
%TD*%
D17*
%TO.N,GND*%
X152984200Y-113817400D03*
X156133800Y-115011200D03*
X147066000Y-109728000D03*
X167386000Y-117602000D03*
X184150000Y-104140000D03*
X151688800Y-109880400D03*
X182245000Y-104140000D03*
X163322000Y-115062000D03*
X168656000Y-103886000D03*
D18*
%TO.N,+BATT*%
X159156400Y-91389200D03*
D19*
X172720000Y-112522000D03*
D17*
X162978000Y-106844000D03*
X149606000Y-105664000D03*
D19*
X171958000Y-110998000D03*
X171196000Y-109728000D03*
X172720000Y-109728000D03*
D17*
X172974000Y-107950000D03*
D19*
X171196000Y-112522000D03*
D17*
X170942000Y-107950000D03*
%TO.N,Vout*%
X184150000Y-114300000D03*
X176530000Y-112776000D03*
X176530000Y-110490000D03*
X179070000Y-118618000D03*
X177000002Y-121666000D03*
X176530000Y-112014000D03*
X182245000Y-114300000D03*
X176530000Y-111252000D03*
D18*
%TO.N,+3V3*%
X144907000Y-107188000D03*
D17*
X148781008Y-119380000D03*
X148590000Y-113538000D03*
X162306000Y-113030000D03*
%TO.N,UART_TX*%
X153162000Y-114554000D03*
%TO.N,UART_RX*%
X153162000Y-115316000D03*
%TO.N,EN*%
X163068000Y-111252000D03*
X162052000Y-115062000D03*
%TO.N,VBAT_IN*%
X157480000Y-114808000D03*
X157734000Y-119634000D03*
%TD*%
%TA.AperFunction,Conductor*%
%TO.N,GND*%
G36*
X181089496Y-90168921D02*
G01*
X181089828Y-90168987D01*
X181089829Y-90168987D01*
X181102000Y-90171408D01*
X181114171Y-90168987D01*
X181126582Y-90168987D01*
X181126582Y-90169026D01*
X181137310Y-90168235D01*
X181333768Y-90177886D01*
X181469610Y-90184559D01*
X181481906Y-90185770D01*
X181839853Y-90238867D01*
X181851975Y-90241277D01*
X181954166Y-90266875D01*
X182202995Y-90329204D01*
X182214827Y-90332793D01*
X182555535Y-90454700D01*
X182566959Y-90459432D01*
X182894076Y-90614147D01*
X182904981Y-90619976D01*
X183215361Y-90806011D01*
X183225642Y-90812881D01*
X183516287Y-91028438D01*
X183525845Y-91036282D01*
X183793965Y-91279291D01*
X183802709Y-91288035D01*
X184045718Y-91556155D01*
X184053562Y-91565713D01*
X184269119Y-91856358D01*
X184275989Y-91866639D01*
X184462024Y-92177019D01*
X184467853Y-92187924D01*
X184622568Y-92515041D01*
X184627300Y-92526465D01*
X184749207Y-92867173D01*
X184752796Y-92879005D01*
X184840722Y-93230022D01*
X184843134Y-93242150D01*
X184896229Y-93600089D01*
X184897441Y-93612395D01*
X184913765Y-93944690D01*
X184912974Y-93955418D01*
X184913013Y-93955418D01*
X184913013Y-93967829D01*
X184910592Y-93980000D01*
X184913013Y-93992171D01*
X184913013Y-93992172D01*
X184913079Y-93992504D01*
X184915500Y-94017085D01*
X184915500Y-108459000D01*
X184895498Y-108527121D01*
X184841842Y-108573614D01*
X184789500Y-108585000D01*
X181101000Y-108585000D01*
X181032879Y-108564998D01*
X180986386Y-108511342D01*
X180975000Y-108459000D01*
X180975000Y-103505000D01*
X177926000Y-103505000D01*
X177857879Y-103484998D01*
X177811386Y-103431342D01*
X177800000Y-103379000D01*
X177800000Y-99123126D01*
X177820002Y-99055005D01*
X177873658Y-99008512D01*
X177943932Y-98998408D01*
X178008512Y-99027902D01*
X178019999Y-99039220D01*
X178048169Y-99070782D01*
X178251064Y-99239528D01*
X178363869Y-99307980D01*
X178472676Y-99374006D01*
X178472681Y-99374008D01*
X178476673Y-99376431D01*
X178720039Y-99478482D01*
X178975816Y-99543442D01*
X179159929Y-99561981D01*
X179191858Y-99565196D01*
X179191859Y-99565196D01*
X179194997Y-99565512D01*
X179351993Y-99565512D01*
X179354318Y-99565339D01*
X179354324Y-99565339D01*
X179543512Y-99551280D01*
X179543516Y-99551279D01*
X179548164Y-99550934D01*
X179805554Y-99492693D01*
X179839143Y-99479631D01*
X180047156Y-99398739D01*
X180047158Y-99398738D01*
X180051509Y-99397046D01*
X180280624Y-99266096D01*
X180487867Y-99102719D01*
X180668684Y-98910504D01*
X180819105Y-98693674D01*
X180821173Y-98689481D01*
X180933758Y-98461180D01*
X180933759Y-98461177D01*
X180935823Y-98456992D01*
X181016276Y-98205657D01*
X181058696Y-97945192D01*
X181062150Y-97681317D01*
X181026563Y-97419831D01*
X180952717Y-97166476D01*
X180842234Y-96926820D01*
X180809774Y-96877311D01*
X180700107Y-96710040D01*
X180700103Y-96710035D01*
X180697541Y-96706127D01*
X180583826Y-96578719D01*
X180524934Y-96512736D01*
X180524932Y-96512734D01*
X180521817Y-96509244D01*
X180318922Y-96340498D01*
X180206118Y-96272047D01*
X180097310Y-96206020D01*
X180097305Y-96206018D01*
X180093313Y-96203595D01*
X179849947Y-96101544D01*
X179594170Y-96036584D01*
X179410057Y-96018045D01*
X179378128Y-96014830D01*
X179378127Y-96014830D01*
X179374989Y-96014514D01*
X179217993Y-96014514D01*
X179215668Y-96014687D01*
X179215662Y-96014687D01*
X179026474Y-96028746D01*
X179026470Y-96028747D01*
X179021822Y-96029092D01*
X178764432Y-96087333D01*
X178760080Y-96089025D01*
X178760078Y-96089026D01*
X178522830Y-96181287D01*
X178522828Y-96181288D01*
X178518477Y-96182980D01*
X178289362Y-96313930D01*
X178082119Y-96477307D01*
X178078919Y-96480709D01*
X178017775Y-96545707D01*
X177956531Y-96581619D01*
X177885594Y-96578719D01*
X177827485Y-96537928D01*
X177800654Y-96472197D01*
X177800000Y-96459374D01*
X177800000Y-90292500D01*
X177820002Y-90224379D01*
X177873658Y-90177886D01*
X177926000Y-90166500D01*
X181064915Y-90166500D01*
X181089496Y-90168921D01*
G37*
%TD.AperFunction*%
%TD*%
%TA.AperFunction,Conductor*%
%TO.N,+BATT*%
G36*
X177107121Y-90444502D02*
G01*
X177153614Y-90498158D01*
X177165000Y-90550500D01*
X177165000Y-104140000D01*
X179579000Y-104140000D01*
X179647121Y-104160002D01*
X179693614Y-104213658D01*
X179705000Y-104266000D01*
X179705000Y-107824000D01*
X179684998Y-107892121D01*
X179631342Y-107938614D01*
X179579000Y-107950000D01*
X173355000Y-107950000D01*
X173355000Y-112904000D01*
X173334998Y-112972121D01*
X173281342Y-113018614D01*
X173229000Y-113030000D01*
X170306000Y-113030000D01*
X170237879Y-113009998D01*
X170191386Y-112956342D01*
X170180000Y-112904000D01*
X170180000Y-101726000D01*
X170200002Y-101657879D01*
X170253658Y-101611386D01*
X170306000Y-101600000D01*
X173482000Y-101600000D01*
X173482000Y-97790000D01*
X165861000Y-97790000D01*
X165792879Y-97769998D01*
X165746386Y-97716342D01*
X165735000Y-97664000D01*
X165735000Y-95250001D01*
X164933564Y-95250001D01*
X157606000Y-95250000D01*
X157537879Y-95229998D01*
X157491386Y-95176342D01*
X157480000Y-95124000D01*
X157480000Y-93980000D01*
X155701000Y-93980000D01*
X155632879Y-93959998D01*
X155586386Y-93906342D01*
X155575000Y-93854000D01*
X155575000Y-90550500D01*
X155595002Y-90482379D01*
X155648658Y-90435886D01*
X155701000Y-90424500D01*
X177039000Y-90424500D01*
X177107121Y-90444502D01*
G37*
%TD.AperFunction*%
%TD*%
%TA.AperFunction,Conductor*%
%TO.N,Vout*%
G36*
X176472121Y-108605002D02*
G01*
X176518614Y-108658658D01*
X176530000Y-108711000D01*
X176530000Y-109855000D01*
X184789500Y-109855000D01*
X184857621Y-109875002D01*
X184904114Y-109928658D01*
X184915500Y-109981000D01*
X184915500Y-122644915D01*
X184913079Y-122669496D01*
X184910592Y-122682000D01*
X184913013Y-122694171D01*
X184913013Y-122706582D01*
X184912974Y-122706582D01*
X184913765Y-122717310D01*
X184897441Y-123049606D01*
X184896229Y-123061911D01*
X184893177Y-123082487D01*
X184863397Y-123146936D01*
X184803500Y-123185053D01*
X184768541Y-123190000D01*
X180466000Y-123190000D01*
X180397879Y-123169998D01*
X180351386Y-123116342D01*
X180340000Y-123064000D01*
X180340000Y-120650000D01*
X177800000Y-120650000D01*
X177800000Y-123064000D01*
X177779998Y-123132121D01*
X177726342Y-123178614D01*
X177674000Y-123190000D01*
X176021000Y-123190000D01*
X175952879Y-123169998D01*
X175906386Y-123116342D01*
X175895000Y-123064000D01*
X175895000Y-113665000D01*
X174116000Y-113665000D01*
X174047879Y-113644998D01*
X174001386Y-113591342D01*
X173990000Y-113539000D01*
X173990000Y-108711000D01*
X174010002Y-108642879D01*
X174063658Y-108596386D01*
X174116000Y-108585000D01*
X176404000Y-108585000D01*
X176472121Y-108605002D01*
G37*
%TD.AperFunction*%
%TD*%
%TA.AperFunction,Conductor*%
%TO.N,+3V3*%
G36*
X154882121Y-90186502D02*
G01*
X154928614Y-90240158D01*
X154940000Y-90292500D01*
X154940000Y-96520000D01*
X164339000Y-96520000D01*
X164407121Y-96540002D01*
X164453614Y-96593658D01*
X164465000Y-96646000D01*
X164465000Y-98425000D01*
X170315199Y-98425000D01*
X170383320Y-98445002D01*
X170429813Y-98498658D01*
X170439917Y-98568932D01*
X170419965Y-98621001D01*
X170379028Y-98682269D01*
X170364494Y-98755335D01*
X170364494Y-100324683D01*
X170379028Y-100397749D01*
X170434393Y-100480610D01*
X170517254Y-100535975D01*
X170590320Y-100550509D01*
X172159668Y-100550509D01*
X172232734Y-100535975D01*
X172315595Y-100480610D01*
X172370960Y-100397749D01*
X172385494Y-100324683D01*
X172385494Y-98755335D01*
X172370960Y-98682269D01*
X172330023Y-98621001D01*
X172308809Y-98553248D01*
X172327593Y-98484781D01*
X172380411Y-98437338D01*
X172434789Y-98425000D01*
X172594000Y-98425000D01*
X172662121Y-98445002D01*
X172708614Y-98498658D01*
X172720000Y-98551000D01*
X172720000Y-100839000D01*
X172699998Y-100907121D01*
X172646342Y-100953614D01*
X172594000Y-100965000D01*
X169545000Y-100965000D01*
X169545000Y-114300000D01*
X175134000Y-114300000D01*
X175202121Y-114320002D01*
X175248614Y-114373658D01*
X175260000Y-114426000D01*
X175260000Y-123825000D01*
X184559505Y-123825000D01*
X184627626Y-123845002D01*
X184674119Y-123898658D01*
X184684223Y-123968932D01*
X184678139Y-123993448D01*
X184627299Y-124135535D01*
X184622568Y-124146959D01*
X184467853Y-124474076D01*
X184462024Y-124484981D01*
X184275989Y-124795361D01*
X184269119Y-124805642D01*
X184053562Y-125096287D01*
X184045718Y-125105845D01*
X183802709Y-125373965D01*
X183793965Y-125382709D01*
X183525845Y-125625718D01*
X183516287Y-125633562D01*
X183225642Y-125849119D01*
X183215361Y-125855989D01*
X182904981Y-126042024D01*
X182894076Y-126047853D01*
X182566959Y-126202568D01*
X182555535Y-126207300D01*
X182214827Y-126329207D01*
X182202995Y-126332796D01*
X181954166Y-126395125D01*
X181851975Y-126420723D01*
X181839853Y-126423133D01*
X181481906Y-126476230D01*
X181469610Y-126477441D01*
X181342837Y-126483668D01*
X181137310Y-126493765D01*
X181126582Y-126492974D01*
X181126582Y-126493013D01*
X181114171Y-126493013D01*
X181102000Y-126490592D01*
X181089829Y-126493013D01*
X181089828Y-126493013D01*
X181089496Y-126493079D01*
X181064915Y-126495500D01*
X128561085Y-126495500D01*
X128536504Y-126493079D01*
X128536172Y-126493013D01*
X128536171Y-126493013D01*
X128524000Y-126490592D01*
X128511829Y-126493013D01*
X128499418Y-126493013D01*
X128499418Y-126492974D01*
X128488690Y-126493765D01*
X128283163Y-126483668D01*
X128156390Y-126477441D01*
X128144094Y-126476230D01*
X127786147Y-126423133D01*
X127774025Y-126420723D01*
X127671834Y-126395125D01*
X127423005Y-126332796D01*
X127411173Y-126329207D01*
X127070465Y-126207300D01*
X127059041Y-126202568D01*
X126731924Y-126047853D01*
X126721019Y-126042024D01*
X126410639Y-125855989D01*
X126400358Y-125849119D01*
X126109713Y-125633562D01*
X126100155Y-125625718D01*
X125832035Y-125382709D01*
X125823291Y-125373965D01*
X125580282Y-125105845D01*
X125572438Y-125096287D01*
X125356881Y-124805642D01*
X125350011Y-124795361D01*
X125176200Y-124505376D01*
X148351500Y-124505376D01*
X148358149Y-124566579D01*
X148408474Y-124700823D01*
X148413854Y-124708002D01*
X148413856Y-124708005D01*
X148445621Y-124750388D01*
X148494454Y-124815546D01*
X148501634Y-124820927D01*
X148601995Y-124896144D01*
X148601998Y-124896146D01*
X148609177Y-124901526D01*
X148690641Y-124932065D01*
X148736026Y-124949079D01*
X148736028Y-124949079D01*
X148743421Y-124951851D01*
X148751271Y-124952704D01*
X148751272Y-124952704D01*
X148779016Y-124955718D01*
X148804624Y-124958500D01*
X149899376Y-124958500D01*
X149924984Y-124955718D01*
X149952728Y-124952704D01*
X149952729Y-124952704D01*
X149960579Y-124951851D01*
X149967972Y-124949079D01*
X149967974Y-124949079D01*
X150013359Y-124932065D01*
X150094823Y-124901526D01*
X150102002Y-124896146D01*
X150102005Y-124896144D01*
X150202366Y-124820927D01*
X150209546Y-124815546D01*
X150258379Y-124750388D01*
X150290144Y-124708005D01*
X150290146Y-124708002D01*
X150295526Y-124700823D01*
X150345851Y-124566579D01*
X150352500Y-124505376D01*
X150352500Y-124008800D01*
X151351500Y-124008800D01*
X151366880Y-124160216D01*
X151427662Y-124354172D01*
X151526203Y-124531944D01*
X151658477Y-124686271D01*
X151819081Y-124810848D01*
X152001455Y-124900587D01*
X152007633Y-124902196D01*
X152007635Y-124902197D01*
X152191966Y-124950212D01*
X152191969Y-124950212D01*
X152198148Y-124951822D01*
X152279328Y-124956076D01*
X152394744Y-124962125D01*
X152394748Y-124962125D01*
X152401126Y-124962459D01*
X152602097Y-124932065D01*
X152792852Y-124861881D01*
X152798273Y-124858520D01*
X152960176Y-124758137D01*
X152960180Y-124758134D01*
X152965599Y-124754774D01*
X153113280Y-124615119D01*
X153229863Y-124448621D01*
X153310586Y-124262081D01*
X153352151Y-124063120D01*
X153352500Y-124056461D01*
X153352500Y-124008800D01*
X154351500Y-124008800D01*
X154366880Y-124160216D01*
X154427662Y-124354172D01*
X154526203Y-124531944D01*
X154658477Y-124686271D01*
X154819081Y-124810848D01*
X155001455Y-124900587D01*
X155007633Y-124902196D01*
X155007635Y-124902197D01*
X155191966Y-124950212D01*
X155191969Y-124950212D01*
X155198148Y-124951822D01*
X155279328Y-124956076D01*
X155394744Y-124962125D01*
X155394748Y-124962125D01*
X155401126Y-124962459D01*
X155602097Y-124932065D01*
X155792852Y-124861881D01*
X155798273Y-124858520D01*
X155960176Y-124758137D01*
X155960180Y-124758134D01*
X155965599Y-124754774D01*
X156113280Y-124615119D01*
X156229863Y-124448621D01*
X156310586Y-124262081D01*
X156352151Y-124063120D01*
X156352500Y-124056461D01*
X156352500Y-123387200D01*
X156337120Y-123235784D01*
X156276338Y-123041828D01*
X156177797Y-122864056D01*
X156045523Y-122709729D01*
X156035285Y-122701787D01*
X155934357Y-122623500D01*
X155884919Y-122585152D01*
X155702545Y-122495413D01*
X155696367Y-122493804D01*
X155696365Y-122493803D01*
X155512034Y-122445788D01*
X155512031Y-122445788D01*
X155505852Y-122444178D01*
X155424672Y-122439924D01*
X155309256Y-122433875D01*
X155309252Y-122433875D01*
X155302874Y-122433541D01*
X155101903Y-122463935D01*
X154911148Y-122534119D01*
X154905728Y-122537479D01*
X154905727Y-122537480D01*
X154743824Y-122637863D01*
X154743820Y-122637866D01*
X154738401Y-122641226D01*
X154733763Y-122645612D01*
X154674360Y-122701787D01*
X154590720Y-122780881D01*
X154474137Y-122947379D01*
X154393414Y-123133919D01*
X154351849Y-123332880D01*
X154351500Y-123339539D01*
X154351500Y-124008800D01*
X153352500Y-124008800D01*
X153352500Y-123387200D01*
X153337120Y-123235784D01*
X153276338Y-123041828D01*
X153177797Y-122864056D01*
X153045523Y-122709729D01*
X153035285Y-122701787D01*
X152934357Y-122623500D01*
X152884919Y-122585152D01*
X152702545Y-122495413D01*
X152696367Y-122493804D01*
X152696365Y-122493803D01*
X152512034Y-122445788D01*
X152512031Y-122445788D01*
X152505852Y-122444178D01*
X152424672Y-122439924D01*
X152309256Y-122433875D01*
X152309252Y-122433875D01*
X152302874Y-122433541D01*
X152101903Y-122463935D01*
X151911148Y-122534119D01*
X151905728Y-122537479D01*
X151905727Y-122537480D01*
X151743824Y-122637863D01*
X151743820Y-122637866D01*
X151738401Y-122641226D01*
X151733763Y-122645612D01*
X151674360Y-122701787D01*
X151590720Y-122780881D01*
X151474137Y-122947379D01*
X151393414Y-123133919D01*
X151351849Y-123332880D01*
X151351500Y-123339539D01*
X151351500Y-124008800D01*
X150352500Y-124008800D01*
X150352500Y-122890624D01*
X150345851Y-122829421D01*
X150295526Y-122695177D01*
X150290146Y-122687998D01*
X150290144Y-122687995D01*
X150225997Y-122602404D01*
X150209546Y-122580454D01*
X150152206Y-122537480D01*
X150102005Y-122499856D01*
X150102002Y-122499854D01*
X150094823Y-122494474D01*
X149986622Y-122453912D01*
X149967974Y-122446921D01*
X149967972Y-122446921D01*
X149960579Y-122444149D01*
X149952729Y-122443296D01*
X149952728Y-122443296D01*
X149902773Y-122437869D01*
X149902772Y-122437869D01*
X149899376Y-122437500D01*
X148804624Y-122437500D01*
X148801228Y-122437869D01*
X148801227Y-122437869D01*
X148751272Y-122443296D01*
X148751271Y-122443296D01*
X148743421Y-122444149D01*
X148736028Y-122446921D01*
X148736026Y-122446921D01*
X148717378Y-122453912D01*
X148609177Y-122494474D01*
X148601998Y-122499854D01*
X148601995Y-122499856D01*
X148551794Y-122537480D01*
X148494454Y-122580454D01*
X148478003Y-122602404D01*
X148413856Y-122687995D01*
X148413854Y-122687998D01*
X148408474Y-122695177D01*
X148358149Y-122829421D01*
X148351500Y-122890624D01*
X148351500Y-124505376D01*
X125176200Y-124505376D01*
X125163976Y-124484981D01*
X125158147Y-124474076D01*
X125003432Y-124146959D01*
X124998700Y-124135535D01*
X124876793Y-123794827D01*
X124873204Y-123782995D01*
X124785278Y-123431978D01*
X124782866Y-123419850D01*
X124741380Y-123140171D01*
X124729770Y-123061906D01*
X124728559Y-123049605D01*
X124727903Y-123036239D01*
X124712235Y-122717310D01*
X124713026Y-122706582D01*
X124712987Y-122706582D01*
X124712987Y-122694171D01*
X124715408Y-122682000D01*
X124712921Y-122669496D01*
X124710500Y-122644915D01*
X124710500Y-121831070D01*
X145466500Y-121831070D01*
X145467873Y-121837528D01*
X145492910Y-121955319D01*
X145505200Y-122013142D01*
X145580910Y-122183189D01*
X145690320Y-122333779D01*
X145695230Y-122338200D01*
X145695231Y-122338201D01*
X145814719Y-122445788D01*
X145828649Y-122458331D01*
X145989851Y-122551401D01*
X145996137Y-122553443D01*
X145996136Y-122553443D01*
X146160601Y-122606881D01*
X146160602Y-122606881D01*
X146166880Y-122608921D01*
X146173443Y-122609611D01*
X146173444Y-122609611D01*
X146196808Y-122612067D01*
X146305589Y-122623500D01*
X146398411Y-122623500D01*
X146507192Y-122612067D01*
X146530556Y-122609611D01*
X146530557Y-122609611D01*
X146537120Y-122608921D01*
X146543398Y-122606881D01*
X146543399Y-122606881D01*
X146707864Y-122553443D01*
X146707863Y-122553443D01*
X146714149Y-122551401D01*
X146875351Y-122458331D01*
X146889282Y-122445788D01*
X147008769Y-122338201D01*
X147008770Y-122338200D01*
X147013680Y-122333779D01*
X147123090Y-122183189D01*
X147198800Y-122013142D01*
X147211091Y-121955319D01*
X147236127Y-121837528D01*
X147237500Y-121831070D01*
X157466500Y-121831070D01*
X157467873Y-121837528D01*
X157492910Y-121955319D01*
X157505200Y-122013142D01*
X157580910Y-122183189D01*
X157690320Y-122333779D01*
X157695230Y-122338200D01*
X157695231Y-122338201D01*
X157814719Y-122445788D01*
X157828649Y-122458331D01*
X157989851Y-122551401D01*
X157996137Y-122553443D01*
X157996136Y-122553443D01*
X158160601Y-122606881D01*
X158160602Y-122606881D01*
X158166880Y-122608921D01*
X158173443Y-122609611D01*
X158173444Y-122609611D01*
X158196808Y-122612067D01*
X158305589Y-122623500D01*
X158398411Y-122623500D01*
X158507192Y-122612067D01*
X158530556Y-122609611D01*
X158530557Y-122609611D01*
X158537120Y-122608921D01*
X158543398Y-122606881D01*
X158543399Y-122606881D01*
X158707864Y-122553443D01*
X158707863Y-122553443D01*
X158714149Y-122551401D01*
X158875351Y-122458331D01*
X158889282Y-122445788D01*
X159008769Y-122338201D01*
X159008770Y-122338200D01*
X159013680Y-122333779D01*
X159123090Y-122183189D01*
X159198800Y-122013142D01*
X159211091Y-121955319D01*
X159236127Y-121837528D01*
X159237500Y-121831070D01*
X159237500Y-121644930D01*
X159198800Y-121462858D01*
X159123090Y-121292811D01*
X159110961Y-121276117D01*
X159017563Y-121147565D01*
X159017561Y-121147563D01*
X159013680Y-121142221D01*
X158875351Y-121017669D01*
X158714149Y-120924599D01*
X158640661Y-120900722D01*
X158543399Y-120869119D01*
X158543398Y-120869119D01*
X158537120Y-120867079D01*
X158530557Y-120866389D01*
X158530556Y-120866389D01*
X158507192Y-120863933D01*
X158398411Y-120852500D01*
X158305589Y-120852500D01*
X158196808Y-120863933D01*
X158173444Y-120866389D01*
X158173443Y-120866389D01*
X158166880Y-120867079D01*
X158160602Y-120869119D01*
X158160601Y-120869119D01*
X158063339Y-120900722D01*
X157989851Y-120924599D01*
X157828649Y-121017669D01*
X157690320Y-121142221D01*
X157686439Y-121147563D01*
X157686437Y-121147565D01*
X157593039Y-121276117D01*
X157580910Y-121292811D01*
X157505200Y-121462858D01*
X157466500Y-121644930D01*
X157466500Y-121831070D01*
X147237500Y-121831070D01*
X147237500Y-121644930D01*
X147198800Y-121462858D01*
X147123090Y-121292811D01*
X147110961Y-121276117D01*
X147017563Y-121147565D01*
X147017561Y-121147563D01*
X147013680Y-121142221D01*
X146875351Y-121017669D01*
X146714149Y-120924599D01*
X146640661Y-120900722D01*
X146543399Y-120869119D01*
X146543398Y-120869119D01*
X146537120Y-120867079D01*
X146530557Y-120866389D01*
X146530556Y-120866389D01*
X146507192Y-120863933D01*
X146398411Y-120852500D01*
X146305589Y-120852500D01*
X146196808Y-120863933D01*
X146173444Y-120866389D01*
X146173443Y-120866389D01*
X146166880Y-120867079D01*
X146160602Y-120869119D01*
X146160601Y-120869119D01*
X146063339Y-120900722D01*
X145989851Y-120924599D01*
X145828649Y-121017669D01*
X145690320Y-121142221D01*
X145686439Y-121147563D01*
X145686437Y-121147565D01*
X145593039Y-121276117D01*
X145580910Y-121292811D01*
X145505200Y-121462858D01*
X145466500Y-121644930D01*
X145466500Y-121831070D01*
X124710500Y-121831070D01*
X124710500Y-119627679D01*
X157216653Y-119627679D01*
X157235673Y-119773135D01*
X157294754Y-119907407D01*
X157389145Y-120019699D01*
X157511260Y-120100985D01*
X157651280Y-120144730D01*
X157660252Y-120144894D01*
X157660255Y-120144895D01*
X157725937Y-120146099D01*
X157797950Y-120147419D01*
X157898464Y-120120015D01*
X157930816Y-120111195D01*
X157930817Y-120111195D01*
X157939479Y-120108833D01*
X157947126Y-120104138D01*
X157947130Y-120104136D01*
X158056843Y-120036772D01*
X158064490Y-120032077D01*
X158162932Y-119923319D01*
X158226894Y-119791302D01*
X158251232Y-119646641D01*
X158251386Y-119634000D01*
X158230590Y-119488787D01*
X158169873Y-119355248D01*
X158074117Y-119244117D01*
X157951019Y-119164329D01*
X157942417Y-119161757D01*
X157942414Y-119161755D01*
X157874162Y-119141344D01*
X157810475Y-119122297D01*
X157801499Y-119122242D01*
X157801498Y-119122242D01*
X157738277Y-119121856D01*
X157663783Y-119121401D01*
X157655151Y-119123868D01*
X157531367Y-119159245D01*
X157531365Y-119159246D01*
X157522736Y-119161712D01*
X157398672Y-119239991D01*
X157301565Y-119349943D01*
X157297751Y-119358066D01*
X157297750Y-119358068D01*
X157272841Y-119411123D01*
X157239221Y-119482731D01*
X157237840Y-119491603D01*
X157218034Y-119618806D01*
X157218034Y-119618809D01*
X157216653Y-119627679D01*
X124710500Y-119627679D01*
X124710500Y-117595679D01*
X166868653Y-117595679D01*
X166887673Y-117741135D01*
X166946754Y-117875407D01*
X167041145Y-117987699D01*
X167163260Y-118068985D01*
X167303280Y-118112730D01*
X167312252Y-118112894D01*
X167312255Y-118112895D01*
X167377937Y-118114099D01*
X167449950Y-118115419D01*
X167550464Y-118088015D01*
X167582816Y-118079195D01*
X167582817Y-118079195D01*
X167591479Y-118076833D01*
X167599126Y-118072138D01*
X167599130Y-118072136D01*
X167708843Y-118004772D01*
X167716490Y-118000077D01*
X167814932Y-117891319D01*
X167878894Y-117759302D01*
X167903232Y-117614641D01*
X167903386Y-117602000D01*
X167882590Y-117456787D01*
X167821873Y-117323248D01*
X167726117Y-117212117D01*
X167603019Y-117132329D01*
X167594417Y-117129757D01*
X167594414Y-117129755D01*
X167526162Y-117109344D01*
X167462475Y-117090297D01*
X167453499Y-117090242D01*
X167453498Y-117090242D01*
X167390277Y-117089856D01*
X167315783Y-117089401D01*
X167307151Y-117091868D01*
X167183367Y-117127245D01*
X167183365Y-117127246D01*
X167174736Y-117129712D01*
X167050672Y-117207991D01*
X166953565Y-117317943D01*
X166949751Y-117326066D01*
X166949750Y-117326068D01*
X166924841Y-117379123D01*
X166891221Y-117450731D01*
X166889840Y-117459603D01*
X166870034Y-117586806D01*
X166870034Y-117586809D01*
X166868653Y-117595679D01*
X124710500Y-117595679D01*
X124710500Y-113811079D01*
X152466853Y-113811079D01*
X152485873Y-113956535D01*
X152544954Y-114090807D01*
X152550731Y-114097680D01*
X152550732Y-114097681D01*
X152600555Y-114156953D01*
X152639345Y-114203099D01*
X152646822Y-114208076D01*
X152653510Y-114214056D01*
X152651459Y-114216350D01*
X152687234Y-114258995D01*
X152696213Y-114329422D01*
X152685855Y-114363043D01*
X152667221Y-114402731D01*
X152663598Y-114426000D01*
X152646034Y-114538806D01*
X152646034Y-114538809D01*
X152644653Y-114547679D01*
X152645817Y-114556581D01*
X152645817Y-114556584D01*
X152650098Y-114589319D01*
X152663673Y-114693135D01*
X152722754Y-114827407D01*
X152728533Y-114834282D01*
X152744306Y-114853047D01*
X152772827Y-114918064D01*
X152761669Y-114988178D01*
X152742295Y-115017529D01*
X152729565Y-115031943D01*
X152725751Y-115040066D01*
X152725750Y-115040068D01*
X152710201Y-115073187D01*
X152667221Y-115164731D01*
X152661553Y-115201135D01*
X152646034Y-115300806D01*
X152646034Y-115300809D01*
X152644653Y-115309679D01*
X152645817Y-115318581D01*
X152645817Y-115318584D01*
X152650098Y-115351319D01*
X152663673Y-115455135D01*
X152667290Y-115463355D01*
X152716527Y-115575254D01*
X152722754Y-115589407D01*
X152817145Y-115701699D01*
X152939260Y-115782985D01*
X153079280Y-115826730D01*
X153088252Y-115826894D01*
X153088255Y-115826895D01*
X153153937Y-115828099D01*
X153225950Y-115829419D01*
X153326464Y-115802015D01*
X153358816Y-115793195D01*
X153358817Y-115793195D01*
X153367479Y-115790833D01*
X153375126Y-115786138D01*
X153375130Y-115786136D01*
X153484843Y-115718772D01*
X153492490Y-115714077D01*
X153590932Y-115605319D01*
X153654894Y-115473302D01*
X153668905Y-115390025D01*
X153678426Y-115333434D01*
X153678426Y-115333429D01*
X153679232Y-115328641D01*
X153679386Y-115316000D01*
X153658590Y-115170787D01*
X153597873Y-115037248D01*
X153592019Y-115030454D01*
X153592017Y-115030451D01*
X153581519Y-115018268D01*
X153575450Y-115004879D01*
X155616453Y-115004879D01*
X155617617Y-115013781D01*
X155617617Y-115013784D01*
X155621054Y-115040068D01*
X155635473Y-115150335D01*
X155694554Y-115284607D01*
X155700331Y-115291480D01*
X155700332Y-115291481D01*
X155723237Y-115318730D01*
X155788945Y-115396899D01*
X155911060Y-115478185D01*
X156051080Y-115521930D01*
X156060052Y-115522094D01*
X156060055Y-115522095D01*
X156125737Y-115523299D01*
X156197750Y-115524619D01*
X156298264Y-115497215D01*
X156330616Y-115488395D01*
X156330617Y-115488395D01*
X156339279Y-115486033D01*
X156346926Y-115481338D01*
X156346930Y-115481336D01*
X156456643Y-115413972D01*
X156464290Y-115409277D01*
X156562732Y-115300519D01*
X156626694Y-115168502D01*
X156643303Y-115069782D01*
X156650226Y-115028634D01*
X156650226Y-115028629D01*
X156651032Y-115023841D01*
X156651186Y-115011200D01*
X156630390Y-114865987D01*
X156601151Y-114801679D01*
X156962653Y-114801679D01*
X156963817Y-114810581D01*
X156963817Y-114810584D01*
X156964115Y-114812860D01*
X156981673Y-114947135D01*
X157040754Y-115081407D01*
X157135145Y-115193699D01*
X157257260Y-115274985D01*
X157360285Y-115307172D01*
X157388542Y-115316000D01*
X157397280Y-115318730D01*
X157406252Y-115318894D01*
X157406255Y-115318895D01*
X157471937Y-115320099D01*
X157543950Y-115321419D01*
X157653759Y-115291481D01*
X157676816Y-115285195D01*
X157676817Y-115285195D01*
X157685479Y-115282833D01*
X157693126Y-115278138D01*
X157693130Y-115278136D01*
X157802843Y-115210772D01*
X157810490Y-115206077D01*
X157823025Y-115192229D01*
X157902910Y-115103972D01*
X157908932Y-115097319D01*
X157929107Y-115055679D01*
X161534653Y-115055679D01*
X161535817Y-115064581D01*
X161535817Y-115064584D01*
X161540098Y-115097319D01*
X161553673Y-115201135D01*
X161557290Y-115209355D01*
X161606527Y-115321254D01*
X161612754Y-115335407D01*
X161707145Y-115447699D01*
X161829260Y-115528985D01*
X161969280Y-115572730D01*
X161978252Y-115572894D01*
X161978255Y-115572895D01*
X162043937Y-115574099D01*
X162115950Y-115575419D01*
X162216464Y-115548015D01*
X162248816Y-115539195D01*
X162248817Y-115539195D01*
X162257479Y-115536833D01*
X162265126Y-115532138D01*
X162265130Y-115532136D01*
X162374843Y-115464772D01*
X162382490Y-115460077D01*
X162480932Y-115351319D01*
X162544894Y-115219302D01*
X162563216Y-115110400D01*
X162585797Y-115063924D01*
X162584318Y-115060633D01*
X162788786Y-115060633D01*
X162812406Y-115114969D01*
X162822508Y-115192229D01*
X162822509Y-115192232D01*
X162823673Y-115201135D01*
X162827290Y-115209355D01*
X162876527Y-115321254D01*
X162882754Y-115335407D01*
X162977145Y-115447699D01*
X163099260Y-115528985D01*
X163239280Y-115572730D01*
X163248252Y-115572894D01*
X163248255Y-115572895D01*
X163313937Y-115574099D01*
X163385950Y-115575419D01*
X163486464Y-115548015D01*
X163518816Y-115539195D01*
X163518817Y-115539195D01*
X163527479Y-115536833D01*
X163535126Y-115532138D01*
X163535130Y-115532136D01*
X163644843Y-115464772D01*
X163652490Y-115460077D01*
X163750932Y-115351319D01*
X163814894Y-115219302D01*
X163833216Y-115110400D01*
X163838426Y-115079434D01*
X163838426Y-115079429D01*
X163839232Y-115074641D01*
X163839386Y-115062000D01*
X163818590Y-114916787D01*
X163774214Y-114819187D01*
X163761589Y-114791420D01*
X163761588Y-114791418D01*
X163757873Y-114783248D01*
X163662117Y-114672117D01*
X163539019Y-114592329D01*
X163530417Y-114589757D01*
X163530414Y-114589755D01*
X163453125Y-114566641D01*
X163398475Y-114550297D01*
X163389499Y-114550242D01*
X163389498Y-114550242D01*
X163326277Y-114549856D01*
X163251783Y-114549401D01*
X163243151Y-114551868D01*
X163119367Y-114587245D01*
X163119365Y-114587246D01*
X163110736Y-114589712D01*
X163056517Y-114623922D01*
X163007872Y-114654615D01*
X162986672Y-114667991D01*
X162889565Y-114777943D01*
X162885751Y-114786066D01*
X162885750Y-114786068D01*
X162860841Y-114839123D01*
X162827221Y-114910731D01*
X162811577Y-115011212D01*
X162811340Y-115012733D01*
X162788786Y-115060633D01*
X162584318Y-115060633D01*
X162562113Y-115011212D01*
X162549863Y-114925676D01*
X162548590Y-114916787D01*
X162504214Y-114819187D01*
X162491589Y-114791420D01*
X162491588Y-114791418D01*
X162487873Y-114783248D01*
X162392117Y-114672117D01*
X162269019Y-114592329D01*
X162260417Y-114589757D01*
X162260414Y-114589755D01*
X162183125Y-114566641D01*
X162128475Y-114550297D01*
X162119499Y-114550242D01*
X162119498Y-114550242D01*
X162056277Y-114549856D01*
X161981783Y-114549401D01*
X161973151Y-114551868D01*
X161849367Y-114587245D01*
X161849365Y-114587246D01*
X161840736Y-114589712D01*
X161786517Y-114623922D01*
X161737872Y-114654615D01*
X161716672Y-114667991D01*
X161619565Y-114777943D01*
X161615751Y-114786066D01*
X161615750Y-114786068D01*
X161590841Y-114839123D01*
X161557221Y-114910731D01*
X161551553Y-114947135D01*
X161536034Y-115046806D01*
X161536034Y-115046809D01*
X161534653Y-115055679D01*
X157929107Y-115055679D01*
X157972894Y-114965302D01*
X157997232Y-114820641D01*
X157997386Y-114808000D01*
X157976590Y-114662787D01*
X157932875Y-114566641D01*
X157919589Y-114537420D01*
X157919588Y-114537418D01*
X157915873Y-114529248D01*
X157820117Y-114418117D01*
X157697019Y-114338329D01*
X157688417Y-114335757D01*
X157688414Y-114335755D01*
X157611125Y-114312641D01*
X157556475Y-114296297D01*
X157547499Y-114296242D01*
X157547498Y-114296242D01*
X157484277Y-114295856D01*
X157409783Y-114295401D01*
X157401151Y-114297868D01*
X157277367Y-114333245D01*
X157277365Y-114333246D01*
X157268736Y-114335712D01*
X157208596Y-114373658D01*
X157165872Y-114400615D01*
X157144672Y-114413991D01*
X157047565Y-114523943D01*
X157043751Y-114532066D01*
X157043750Y-114532068D01*
X157027518Y-114566641D01*
X156985221Y-114656731D01*
X156980711Y-114685699D01*
X156964034Y-114792806D01*
X156964034Y-114792809D01*
X156962653Y-114801679D01*
X156601151Y-114801679D01*
X156592771Y-114783248D01*
X156573389Y-114740620D01*
X156573388Y-114740618D01*
X156569673Y-114732448D01*
X156473917Y-114621317D01*
X156350819Y-114541529D01*
X156342217Y-114538957D01*
X156342214Y-114538955D01*
X156269519Y-114517215D01*
X156210275Y-114499497D01*
X156201299Y-114499442D01*
X156201298Y-114499442D01*
X156138077Y-114499056D01*
X156063583Y-114498601D01*
X156054951Y-114501068D01*
X155931167Y-114536445D01*
X155931165Y-114536446D01*
X155922536Y-114538912D01*
X155798472Y-114617191D01*
X155701365Y-114727143D01*
X155697551Y-114735266D01*
X155697550Y-114735268D01*
X155678218Y-114776444D01*
X155639021Y-114859931D01*
X155637640Y-114868803D01*
X155617834Y-114996006D01*
X155617834Y-114996009D01*
X155616453Y-115004879D01*
X153575450Y-115004879D01*
X153552206Y-114953605D01*
X153562505Y-114883360D01*
X153583557Y-114851467D01*
X153584907Y-114849976D01*
X153584909Y-114849974D01*
X153590932Y-114843319D01*
X153595311Y-114834282D01*
X153640689Y-114740620D01*
X153654894Y-114711302D01*
X153670033Y-114621317D01*
X153678426Y-114571434D01*
X153678426Y-114571429D01*
X153679232Y-114566641D01*
X153679386Y-114554000D01*
X153658590Y-114408787D01*
X153609127Y-114300000D01*
X153601589Y-114283420D01*
X153601588Y-114283418D01*
X153597873Y-114275248D01*
X153502117Y-114164117D01*
X153494588Y-114159237D01*
X153491970Y-114156953D01*
X153453789Y-114097097D01*
X153454029Y-114026101D01*
X153461412Y-114007070D01*
X153473179Y-113982783D01*
X153473179Y-113982782D01*
X153477094Y-113974702D01*
X153501432Y-113830041D01*
X153501586Y-113817400D01*
X153480790Y-113672187D01*
X153420073Y-113538648D01*
X153324317Y-113427517D01*
X153201219Y-113347729D01*
X153192617Y-113345157D01*
X153192614Y-113345155D01*
X153124362Y-113324744D01*
X153060675Y-113305697D01*
X153051699Y-113305642D01*
X153051698Y-113305642D01*
X152988477Y-113305256D01*
X152913983Y-113304801D01*
X152905351Y-113307268D01*
X152781567Y-113342645D01*
X152781565Y-113342646D01*
X152772936Y-113345112D01*
X152648872Y-113423391D01*
X152551765Y-113533343D01*
X152547951Y-113541466D01*
X152547950Y-113541468D01*
X152523041Y-113594523D01*
X152489421Y-113666131D01*
X152488040Y-113675003D01*
X152468234Y-113802206D01*
X152468234Y-113802209D01*
X152466853Y-113811079D01*
X124710500Y-113811079D01*
X124710500Y-111245679D01*
X162550653Y-111245679D01*
X162569673Y-111391135D01*
X162628754Y-111525407D01*
X162723145Y-111637699D01*
X162845260Y-111718985D01*
X162985280Y-111762730D01*
X162994252Y-111762894D01*
X162994255Y-111762895D01*
X163059937Y-111764099D01*
X163131950Y-111765419D01*
X163262072Y-111729943D01*
X163264816Y-111729195D01*
X163264817Y-111729195D01*
X163273479Y-111726833D01*
X163281126Y-111722138D01*
X163281130Y-111722136D01*
X163390843Y-111654772D01*
X163398490Y-111650077D01*
X163496932Y-111541319D01*
X163560894Y-111409302D01*
X163585232Y-111264641D01*
X163585386Y-111252000D01*
X163564590Y-111106787D01*
X163503873Y-110973248D01*
X163408117Y-110862117D01*
X163285019Y-110782329D01*
X163276417Y-110779757D01*
X163276414Y-110779755D01*
X163208162Y-110759344D01*
X163144475Y-110740297D01*
X163135499Y-110740242D01*
X163135498Y-110740242D01*
X163072277Y-110739856D01*
X162997783Y-110739401D01*
X162989151Y-110741868D01*
X162865367Y-110777245D01*
X162865365Y-110777246D01*
X162856736Y-110779712D01*
X162849148Y-110784500D01*
X162769049Y-110835039D01*
X162732672Y-110857991D01*
X162635565Y-110967943D01*
X162631751Y-110976066D01*
X162631750Y-110976068D01*
X162624675Y-110991138D01*
X162573221Y-111100731D01*
X162563757Y-111161514D01*
X162552034Y-111236806D01*
X162552034Y-111236809D01*
X162550653Y-111245679D01*
X124710500Y-111245679D01*
X124710500Y-109721679D01*
X146548653Y-109721679D01*
X146549817Y-109730581D01*
X146549817Y-109730584D01*
X146551759Y-109745434D01*
X146567673Y-109867135D01*
X146626754Y-110001407D01*
X146632531Y-110008280D01*
X146632532Y-110008281D01*
X146645722Y-110023972D01*
X146721145Y-110113699D01*
X146843260Y-110194985D01*
X146983280Y-110238730D01*
X146992252Y-110238894D01*
X146992255Y-110238895D01*
X147057937Y-110240099D01*
X147129950Y-110241419D01*
X147260072Y-110205943D01*
X147262816Y-110205195D01*
X147262817Y-110205195D01*
X147271479Y-110202833D01*
X147279126Y-110198138D01*
X147279130Y-110198136D01*
X147388843Y-110130772D01*
X147396490Y-110126077D01*
X147494932Y-110017319D01*
X147558894Y-109885302D01*
X147560782Y-109874079D01*
X151171453Y-109874079D01*
X151172617Y-109882981D01*
X151172617Y-109882984D01*
X151173297Y-109888182D01*
X151190473Y-110019535D01*
X151194090Y-110027755D01*
X151237353Y-110126077D01*
X151249554Y-110153807D01*
X151343945Y-110266099D01*
X151466060Y-110347385D01*
X151606080Y-110391130D01*
X151615052Y-110391294D01*
X151615055Y-110391295D01*
X151680737Y-110392499D01*
X151752750Y-110393819D01*
X151853264Y-110366415D01*
X151885616Y-110357595D01*
X151885617Y-110357595D01*
X151894279Y-110355233D01*
X151901926Y-110350538D01*
X151901930Y-110350536D01*
X152011643Y-110283172D01*
X152019290Y-110278477D01*
X152117732Y-110169719D01*
X152181694Y-110037702D01*
X152206032Y-109893041D01*
X152206186Y-109880400D01*
X152185390Y-109735187D01*
X152124673Y-109601648D01*
X152028917Y-109490517D01*
X151905819Y-109410729D01*
X151897217Y-109408157D01*
X151897214Y-109408155D01*
X151828962Y-109387744D01*
X151765275Y-109368697D01*
X151756299Y-109368642D01*
X151756298Y-109368642D01*
X151693077Y-109368256D01*
X151618583Y-109367801D01*
X151609951Y-109370268D01*
X151486167Y-109405645D01*
X151486165Y-109405646D01*
X151477536Y-109408112D01*
X151353472Y-109486391D01*
X151256365Y-109596343D01*
X151252551Y-109604466D01*
X151252550Y-109604468D01*
X151227641Y-109657523D01*
X151194021Y-109729131D01*
X151191694Y-109744077D01*
X151172834Y-109865206D01*
X151172834Y-109865209D01*
X151171453Y-109874079D01*
X147560782Y-109874079D01*
X147583232Y-109740641D01*
X147583386Y-109728000D01*
X147562590Y-109582787D01*
X147523730Y-109497319D01*
X147505589Y-109457420D01*
X147505588Y-109457418D01*
X147501873Y-109449248D01*
X147406117Y-109338117D01*
X147283019Y-109258329D01*
X147274417Y-109255757D01*
X147274414Y-109255755D01*
X147206162Y-109235344D01*
X147142475Y-109216297D01*
X147133499Y-109216242D01*
X147133498Y-109216242D01*
X147070277Y-109215856D01*
X146995783Y-109215401D01*
X146987151Y-109217868D01*
X146863367Y-109253245D01*
X146863365Y-109253246D01*
X146854736Y-109255712D01*
X146730672Y-109333991D01*
X146633565Y-109443943D01*
X146629751Y-109452066D01*
X146629750Y-109452068D01*
X146615885Y-109481600D01*
X146571221Y-109576731D01*
X146566069Y-109609820D01*
X146550034Y-109712806D01*
X146550034Y-109712809D01*
X146548653Y-109721679D01*
X124710500Y-109721679D01*
X124710500Y-106837679D01*
X162460653Y-106837679D01*
X162479673Y-106983135D01*
X162538754Y-107117407D01*
X162633145Y-107229699D01*
X162755260Y-107310985D01*
X162895280Y-107354730D01*
X162904252Y-107354894D01*
X162904255Y-107354895D01*
X162969937Y-107356099D01*
X163041950Y-107357419D01*
X163142464Y-107330015D01*
X163174816Y-107321195D01*
X163174817Y-107321195D01*
X163183479Y-107318833D01*
X163191126Y-107314138D01*
X163191130Y-107314136D01*
X163300843Y-107246772D01*
X163308490Y-107242077D01*
X163406932Y-107133319D01*
X163470894Y-107001302D01*
X163495232Y-106856641D01*
X163495386Y-106844000D01*
X163474590Y-106698787D01*
X163413873Y-106565248D01*
X163318117Y-106454117D01*
X163195019Y-106374329D01*
X163186417Y-106371757D01*
X163186414Y-106371755D01*
X163118162Y-106351344D01*
X163054475Y-106332297D01*
X163045499Y-106332242D01*
X163045498Y-106332242D01*
X162982277Y-106331856D01*
X162907783Y-106331401D01*
X162899151Y-106333868D01*
X162775367Y-106369245D01*
X162775365Y-106369246D01*
X162766736Y-106371712D01*
X162642672Y-106449991D01*
X162545565Y-106559943D01*
X162541751Y-106568066D01*
X162541750Y-106568068D01*
X162516841Y-106621123D01*
X162483221Y-106692731D01*
X162481840Y-106701603D01*
X162462034Y-106828806D01*
X162462034Y-106828809D01*
X162460653Y-106837679D01*
X124710500Y-106837679D01*
X124710500Y-105657679D01*
X149088653Y-105657679D01*
X149107673Y-105803135D01*
X149166754Y-105937407D01*
X149261145Y-106049699D01*
X149383260Y-106130985D01*
X149523280Y-106174730D01*
X149532252Y-106174894D01*
X149532255Y-106174895D01*
X149597937Y-106176099D01*
X149669950Y-106177419D01*
X149770464Y-106150015D01*
X149802816Y-106141195D01*
X149802817Y-106141195D01*
X149811479Y-106138833D01*
X149819126Y-106134138D01*
X149819130Y-106134136D01*
X149928843Y-106066772D01*
X149936490Y-106062077D01*
X150034932Y-105953319D01*
X150098894Y-105821302D01*
X150123232Y-105676641D01*
X150123386Y-105664000D01*
X150102590Y-105518787D01*
X150041873Y-105385248D01*
X149946117Y-105274117D01*
X149823019Y-105194329D01*
X149814417Y-105191757D01*
X149814414Y-105191755D01*
X149746162Y-105171344D01*
X149682475Y-105152297D01*
X149673499Y-105152242D01*
X149673498Y-105152242D01*
X149610277Y-105151856D01*
X149535783Y-105151401D01*
X149527151Y-105153868D01*
X149403367Y-105189245D01*
X149403365Y-105189246D01*
X149394736Y-105191712D01*
X149270672Y-105269991D01*
X149173565Y-105379943D01*
X149169751Y-105388066D01*
X149169750Y-105388068D01*
X149144841Y-105441123D01*
X149111221Y-105512731D01*
X149109840Y-105521603D01*
X149090034Y-105648806D01*
X149090034Y-105648809D01*
X149088653Y-105657679D01*
X124710500Y-105657679D01*
X124710500Y-103879679D01*
X168138653Y-103879679D01*
X168157673Y-104025135D01*
X168216754Y-104159407D01*
X168311145Y-104271699D01*
X168433260Y-104352985D01*
X168573280Y-104396730D01*
X168582252Y-104396894D01*
X168582255Y-104396895D01*
X168647937Y-104398099D01*
X168719950Y-104399419D01*
X168820464Y-104372015D01*
X168852816Y-104363195D01*
X168852817Y-104363195D01*
X168861479Y-104360833D01*
X168869126Y-104356138D01*
X168869130Y-104356136D01*
X168978843Y-104288772D01*
X168986490Y-104284077D01*
X169084932Y-104175319D01*
X169148894Y-104043302D01*
X169173232Y-103898641D01*
X169173386Y-103886000D01*
X169152590Y-103740787D01*
X169116594Y-103661618D01*
X169095589Y-103615420D01*
X169095588Y-103615418D01*
X169091873Y-103607248D01*
X168996117Y-103496117D01*
X168873019Y-103416329D01*
X168864417Y-103413757D01*
X168864414Y-103413755D01*
X168796162Y-103393344D01*
X168732475Y-103374297D01*
X168723499Y-103374242D01*
X168723498Y-103374242D01*
X168660277Y-103373856D01*
X168585783Y-103373401D01*
X168577151Y-103375868D01*
X168453367Y-103411245D01*
X168453365Y-103411246D01*
X168444736Y-103413712D01*
X168320672Y-103491991D01*
X168223565Y-103601943D01*
X168219751Y-103610066D01*
X168219750Y-103610068D01*
X168214167Y-103621960D01*
X168161221Y-103734731D01*
X168151757Y-103795514D01*
X168140034Y-103870806D01*
X168140034Y-103870809D01*
X168138653Y-103879679D01*
X124710500Y-103879679D01*
X124710500Y-103030862D01*
X149455497Y-103030862D01*
X149456737Y-103038078D01*
X149456737Y-103038080D01*
X149483894Y-103196125D01*
X149485134Y-103203340D01*
X149553654Y-103364373D01*
X149657383Y-103505324D01*
X149662961Y-103510063D01*
X149662964Y-103510066D01*
X149785176Y-103613893D01*
X149785180Y-103613896D01*
X149790755Y-103618632D01*
X149807928Y-103627401D01*
X149887687Y-103668128D01*
X149946616Y-103698219D01*
X149953721Y-103699958D01*
X149953725Y-103699959D01*
X150034858Y-103719811D01*
X150116606Y-103739815D01*
X150122206Y-103740162D01*
X150122210Y-103740163D01*
X150125709Y-103740380D01*
X150125718Y-103740380D01*
X150127648Y-103740500D01*
X150253822Y-103740500D01*
X150345369Y-103729827D01*
X150376556Y-103726191D01*
X150376558Y-103726191D01*
X150383828Y-103725343D01*
X150390705Y-103722847D01*
X150390708Y-103722846D01*
X150541452Y-103668128D01*
X150548331Y-103665631D01*
X150694685Y-103569677D01*
X150815040Y-103442628D01*
X150902939Y-103291298D01*
X150953667Y-103123807D01*
X150964503Y-102949138D01*
X150958020Y-102911405D01*
X150936106Y-102783875D01*
X150936105Y-102783873D01*
X150934866Y-102776660D01*
X150866346Y-102615627D01*
X150850873Y-102594601D01*
X150845586Y-102587417D01*
X150762617Y-102474676D01*
X150757039Y-102469937D01*
X150757036Y-102469934D01*
X150634824Y-102366107D01*
X150634820Y-102366104D01*
X150629245Y-102361368D01*
X150545062Y-102318382D01*
X150479900Y-102285108D01*
X150479898Y-102285107D01*
X150473384Y-102281781D01*
X150466279Y-102280042D01*
X150466275Y-102280041D01*
X150372741Y-102257154D01*
X150303394Y-102240185D01*
X150297794Y-102239838D01*
X150297790Y-102239837D01*
X150294291Y-102239620D01*
X150294282Y-102239620D01*
X150292352Y-102239500D01*
X150166178Y-102239500D01*
X150074631Y-102250173D01*
X150043444Y-102253809D01*
X150043442Y-102253809D01*
X150036172Y-102254657D01*
X150029295Y-102257153D01*
X150029292Y-102257154D01*
X149952281Y-102285108D01*
X149871669Y-102314369D01*
X149725315Y-102410323D01*
X149604960Y-102537372D01*
X149517061Y-102688702D01*
X149466333Y-102856193D01*
X149455497Y-103030862D01*
X124710500Y-103030862D01*
X124710500Y-102035963D01*
X152204757Y-102035963D01*
X152221175Y-102231483D01*
X152275258Y-102420091D01*
X152278076Y-102425574D01*
X152362123Y-102589113D01*
X152362126Y-102589117D01*
X152364944Y-102594601D01*
X152486818Y-102748369D01*
X152491511Y-102752363D01*
X152491512Y-102752364D01*
X152622095Y-102863498D01*
X152636238Y-102875535D01*
X152641616Y-102878541D01*
X152641618Y-102878542D01*
X152677932Y-102898837D01*
X152807513Y-102971257D01*
X152994118Y-103031889D01*
X153188946Y-103055121D01*
X153195081Y-103054649D01*
X153195083Y-103054649D01*
X153378434Y-103040541D01*
X153378438Y-103040540D01*
X153384576Y-103040068D01*
X153573556Y-102987303D01*
X153748689Y-102898837D01*
X153778515Y-102875535D01*
X153898453Y-102781829D01*
X153903303Y-102778040D01*
X153933084Y-102743539D01*
X154027485Y-102634173D01*
X154027485Y-102634172D01*
X154031509Y-102629511D01*
X154035572Y-102622360D01*
X154080255Y-102543703D01*
X154128425Y-102458909D01*
X154190358Y-102272732D01*
X154214949Y-102078071D01*
X154215341Y-102050000D01*
X154213965Y-102035963D01*
X155204757Y-102035963D01*
X155221175Y-102231483D01*
X155275258Y-102420091D01*
X155278076Y-102425574D01*
X155362123Y-102589113D01*
X155362126Y-102589117D01*
X155364944Y-102594601D01*
X155486818Y-102748369D01*
X155491511Y-102752363D01*
X155491512Y-102752364D01*
X155622095Y-102863498D01*
X155636238Y-102875535D01*
X155641616Y-102878541D01*
X155641618Y-102878542D01*
X155677932Y-102898837D01*
X155807513Y-102971257D01*
X155994118Y-103031889D01*
X156188946Y-103055121D01*
X156195081Y-103054649D01*
X156195083Y-103054649D01*
X156378434Y-103040541D01*
X156378438Y-103040540D01*
X156384576Y-103040068D01*
X156573556Y-102987303D01*
X156748689Y-102898837D01*
X156778515Y-102875535D01*
X156898453Y-102781829D01*
X156903303Y-102778040D01*
X156933084Y-102743539D01*
X157027485Y-102634173D01*
X157027485Y-102634172D01*
X157031509Y-102629511D01*
X157035572Y-102622360D01*
X157080255Y-102543703D01*
X157128425Y-102458909D01*
X157190358Y-102272732D01*
X157214949Y-102078071D01*
X157215341Y-102050000D01*
X157213965Y-102035963D01*
X158204757Y-102035963D01*
X158221175Y-102231483D01*
X158275258Y-102420091D01*
X158278076Y-102425574D01*
X158362123Y-102589113D01*
X158362126Y-102589117D01*
X158364944Y-102594601D01*
X158486818Y-102748369D01*
X158491511Y-102752363D01*
X158491512Y-102752364D01*
X158622095Y-102863498D01*
X158636238Y-102875535D01*
X158641616Y-102878541D01*
X158641618Y-102878542D01*
X158677932Y-102898837D01*
X158807513Y-102971257D01*
X158994118Y-103031889D01*
X159188946Y-103055121D01*
X159195081Y-103054649D01*
X159195083Y-103054649D01*
X159378434Y-103040541D01*
X159378438Y-103040540D01*
X159384576Y-103040068D01*
X159417548Y-103030862D01*
X161455497Y-103030862D01*
X161456737Y-103038078D01*
X161456737Y-103038080D01*
X161483894Y-103196125D01*
X161485134Y-103203340D01*
X161553654Y-103364373D01*
X161657383Y-103505324D01*
X161662961Y-103510063D01*
X161662964Y-103510066D01*
X161785176Y-103613893D01*
X161785180Y-103613896D01*
X161790755Y-103618632D01*
X161807928Y-103627401D01*
X161887687Y-103668128D01*
X161946616Y-103698219D01*
X161953721Y-103699958D01*
X161953725Y-103699959D01*
X162034858Y-103719811D01*
X162116606Y-103739815D01*
X162122206Y-103740162D01*
X162122210Y-103740163D01*
X162125709Y-103740380D01*
X162125718Y-103740380D01*
X162127648Y-103740500D01*
X162253822Y-103740500D01*
X162345369Y-103729827D01*
X162376556Y-103726191D01*
X162376558Y-103726191D01*
X162383828Y-103725343D01*
X162390705Y-103722847D01*
X162390708Y-103722846D01*
X162541452Y-103668128D01*
X162548331Y-103665631D01*
X162694685Y-103569677D01*
X162815040Y-103442628D01*
X162902939Y-103291298D01*
X162953667Y-103123807D01*
X162964503Y-102949138D01*
X162958020Y-102911405D01*
X162936106Y-102783875D01*
X162936105Y-102783873D01*
X162934866Y-102776660D01*
X162866346Y-102615627D01*
X162850873Y-102594601D01*
X162845586Y-102587417D01*
X162762617Y-102474676D01*
X162757039Y-102469937D01*
X162757036Y-102469934D01*
X162634824Y-102366107D01*
X162634820Y-102366104D01*
X162629245Y-102361368D01*
X162545062Y-102318382D01*
X162479900Y-102285108D01*
X162479898Y-102285107D01*
X162473384Y-102281781D01*
X162466279Y-102280042D01*
X162466275Y-102280041D01*
X162372741Y-102257154D01*
X162303394Y-102240185D01*
X162297794Y-102239838D01*
X162297790Y-102239837D01*
X162294291Y-102239620D01*
X162294282Y-102239620D01*
X162292352Y-102239500D01*
X162166178Y-102239500D01*
X162074631Y-102250173D01*
X162043444Y-102253809D01*
X162043442Y-102253809D01*
X162036172Y-102254657D01*
X162029295Y-102257153D01*
X162029292Y-102257154D01*
X161952281Y-102285108D01*
X161871669Y-102314369D01*
X161725315Y-102410323D01*
X161604960Y-102537372D01*
X161517061Y-102688702D01*
X161466333Y-102856193D01*
X161455497Y-103030862D01*
X159417548Y-103030862D01*
X159573556Y-102987303D01*
X159748689Y-102898837D01*
X159778515Y-102875535D01*
X159898453Y-102781829D01*
X159903303Y-102778040D01*
X159933084Y-102743539D01*
X160027485Y-102634173D01*
X160027485Y-102634172D01*
X160031509Y-102629511D01*
X160035572Y-102622360D01*
X160080255Y-102543703D01*
X160128425Y-102458909D01*
X160190358Y-102272732D01*
X160214949Y-102078071D01*
X160215341Y-102050000D01*
X160196194Y-101854728D01*
X160194413Y-101848829D01*
X160194412Y-101848824D01*
X160141265Y-101672793D01*
X160139484Y-101666894D01*
X160047370Y-101493653D01*
X159923361Y-101341602D01*
X159772180Y-101216535D01*
X159599585Y-101123213D01*
X159505868Y-101094203D01*
X159418039Y-101067015D01*
X159418036Y-101067014D01*
X159412152Y-101065193D01*
X159406027Y-101064549D01*
X159406026Y-101064549D01*
X159223147Y-101045327D01*
X159223146Y-101045327D01*
X159217019Y-101044683D01*
X159094383Y-101055844D01*
X159027759Y-101061907D01*
X159027758Y-101061907D01*
X159021618Y-101062466D01*
X159015704Y-101064207D01*
X159015702Y-101064207D01*
X158886734Y-101102165D01*
X158833393Y-101117864D01*
X158827928Y-101120721D01*
X158664972Y-101205912D01*
X158664968Y-101205915D01*
X158659512Y-101208767D01*
X158654712Y-101212627D01*
X158654711Y-101212627D01*
X158620326Y-101240273D01*
X158506600Y-101331711D01*
X158380480Y-101482016D01*
X158377516Y-101487408D01*
X158377513Y-101487412D01*
X158328624Y-101576341D01*
X158285956Y-101653954D01*
X158226628Y-101840978D01*
X158204757Y-102035963D01*
X157213965Y-102035963D01*
X157196194Y-101854728D01*
X157194413Y-101848829D01*
X157194412Y-101848824D01*
X157141265Y-101672793D01*
X157139484Y-101666894D01*
X157047370Y-101493653D01*
X156923361Y-101341602D01*
X156772180Y-101216535D01*
X156599585Y-101123213D01*
X156505868Y-101094203D01*
X156418039Y-101067015D01*
X156418036Y-101067014D01*
X156412152Y-101065193D01*
X156406027Y-101064549D01*
X156406026Y-101064549D01*
X156223147Y-101045327D01*
X156223146Y-101045327D01*
X156217019Y-101044683D01*
X156094383Y-101055844D01*
X156027759Y-101061907D01*
X156027758Y-101061907D01*
X156021618Y-101062466D01*
X156015704Y-101064207D01*
X156015702Y-101064207D01*
X155886734Y-101102165D01*
X155833393Y-101117864D01*
X155827928Y-101120721D01*
X155664972Y-101205912D01*
X155664968Y-101205915D01*
X155659512Y-101208767D01*
X155654712Y-101212627D01*
X155654711Y-101212627D01*
X155620326Y-101240273D01*
X155506600Y-101331711D01*
X155380480Y-101482016D01*
X155377516Y-101487408D01*
X155377513Y-101487412D01*
X155328624Y-101576341D01*
X155285956Y-101653954D01*
X155226628Y-101840978D01*
X155204757Y-102035963D01*
X154213965Y-102035963D01*
X154196194Y-101854728D01*
X154194413Y-101848829D01*
X154194412Y-101848824D01*
X154141265Y-101672793D01*
X154139484Y-101666894D01*
X154047370Y-101493653D01*
X153923361Y-101341602D01*
X153772180Y-101216535D01*
X153599585Y-101123213D01*
X153505868Y-101094203D01*
X153418039Y-101067015D01*
X153418036Y-101067014D01*
X153412152Y-101065193D01*
X153406027Y-101064549D01*
X153406026Y-101064549D01*
X153223147Y-101045327D01*
X153223146Y-101045327D01*
X153217019Y-101044683D01*
X153094383Y-101055844D01*
X153027759Y-101061907D01*
X153027758Y-101061907D01*
X153021618Y-101062466D01*
X153015704Y-101064207D01*
X153015702Y-101064207D01*
X152886734Y-101102165D01*
X152833393Y-101117864D01*
X152827928Y-101120721D01*
X152664972Y-101205912D01*
X152664968Y-101205915D01*
X152659512Y-101208767D01*
X152654712Y-101212627D01*
X152654711Y-101212627D01*
X152620326Y-101240273D01*
X152506600Y-101331711D01*
X152380480Y-101482016D01*
X152377516Y-101487408D01*
X152377513Y-101487412D01*
X152328624Y-101576341D01*
X152285956Y-101653954D01*
X152226628Y-101840978D01*
X152204757Y-102035963D01*
X124710500Y-102035963D01*
X124710500Y-99597376D01*
X152209500Y-99597376D01*
X152216149Y-99658579D01*
X152266474Y-99792823D01*
X152271854Y-99800002D01*
X152271856Y-99800005D01*
X152328463Y-99875535D01*
X152352454Y-99907546D01*
X152359634Y-99912927D01*
X152459995Y-99988144D01*
X152459998Y-99988146D01*
X152467177Y-99993526D01*
X152556562Y-100027034D01*
X152594026Y-100041079D01*
X152594028Y-100041079D01*
X152601421Y-100043851D01*
X152609271Y-100044704D01*
X152609272Y-100044704D01*
X152659227Y-100050131D01*
X152662624Y-100050500D01*
X153757376Y-100050500D01*
X153760773Y-100050131D01*
X153810728Y-100044704D01*
X153810729Y-100044704D01*
X153818579Y-100043851D01*
X153825972Y-100041079D01*
X153825974Y-100041079D01*
X153863438Y-100027034D01*
X153952823Y-99993526D01*
X153960002Y-99988146D01*
X153960005Y-99988144D01*
X154060366Y-99912927D01*
X154067546Y-99907546D01*
X154091537Y-99875535D01*
X154148144Y-99800005D01*
X154148146Y-99800002D01*
X154153526Y-99792823D01*
X154203851Y-99658579D01*
X154210500Y-99597376D01*
X154210500Y-99035963D01*
X158204757Y-99035963D01*
X158221175Y-99231483D01*
X158275258Y-99420091D01*
X158278076Y-99425574D01*
X158362123Y-99589113D01*
X158362126Y-99589117D01*
X158364944Y-99594601D01*
X158486818Y-99748369D01*
X158636238Y-99875535D01*
X158641616Y-99878541D01*
X158641618Y-99878542D01*
X158677932Y-99898837D01*
X158807513Y-99971257D01*
X158994118Y-100031889D01*
X159188946Y-100055121D01*
X159195081Y-100054649D01*
X159195083Y-100054649D01*
X159378434Y-100040541D01*
X159378438Y-100040540D01*
X159384576Y-100040068D01*
X159573556Y-99987303D01*
X159748689Y-99898837D01*
X159778515Y-99875535D01*
X159875189Y-99800005D01*
X159903303Y-99778040D01*
X159933084Y-99743539D01*
X160027485Y-99634173D01*
X160027485Y-99634172D01*
X160031509Y-99629511D01*
X160051706Y-99593959D01*
X160125378Y-99464272D01*
X160128425Y-99458909D01*
X160190358Y-99272732D01*
X160214949Y-99078071D01*
X160215341Y-99050000D01*
X160196194Y-98854728D01*
X160194413Y-98848829D01*
X160194412Y-98848824D01*
X160141265Y-98672793D01*
X160139484Y-98666894D01*
X160047370Y-98493653D01*
X159923361Y-98341602D01*
X159772180Y-98216535D01*
X159599585Y-98123213D01*
X159505868Y-98094203D01*
X159418039Y-98067015D01*
X159418036Y-98067014D01*
X159412152Y-98065193D01*
X159406027Y-98064549D01*
X159406026Y-98064549D01*
X159223147Y-98045327D01*
X159223146Y-98045327D01*
X159217019Y-98044683D01*
X159100403Y-98055296D01*
X159027759Y-98061907D01*
X159027758Y-98061907D01*
X159021618Y-98062466D01*
X159015704Y-98064207D01*
X159015702Y-98064207D01*
X158886734Y-98102165D01*
X158833393Y-98117864D01*
X158827928Y-98120721D01*
X158664972Y-98205912D01*
X158664968Y-98205915D01*
X158659512Y-98208767D01*
X158654712Y-98212627D01*
X158654711Y-98212627D01*
X158620326Y-98240273D01*
X158506600Y-98331711D01*
X158380480Y-98482016D01*
X158377516Y-98487408D01*
X158377513Y-98487412D01*
X158332697Y-98568932D01*
X158285956Y-98653954D01*
X158226628Y-98840978D01*
X158204757Y-99035963D01*
X154210500Y-99035963D01*
X154210500Y-98502624D01*
X154203851Y-98441421D01*
X154153526Y-98307177D01*
X154148146Y-98299998D01*
X154148144Y-98299995D01*
X154072927Y-98199634D01*
X154067546Y-98192454D01*
X154024503Y-98160195D01*
X153960005Y-98111856D01*
X153960002Y-98111854D01*
X153952823Y-98106474D01*
X153847565Y-98067015D01*
X153825974Y-98058921D01*
X153825972Y-98058921D01*
X153818579Y-98056149D01*
X153810729Y-98055296D01*
X153810728Y-98055296D01*
X153760773Y-98049869D01*
X153760772Y-98049869D01*
X153757376Y-98049500D01*
X152662624Y-98049500D01*
X152659228Y-98049869D01*
X152659227Y-98049869D01*
X152609272Y-98055296D01*
X152609271Y-98055296D01*
X152601421Y-98056149D01*
X152594028Y-98058921D01*
X152594026Y-98058921D01*
X152572435Y-98067015D01*
X152467177Y-98106474D01*
X152459998Y-98111854D01*
X152459995Y-98111856D01*
X152395497Y-98160195D01*
X152352454Y-98192454D01*
X152347073Y-98199634D01*
X152271856Y-98299995D01*
X152271854Y-98299998D01*
X152266474Y-98307177D01*
X152216149Y-98441421D01*
X152209500Y-98502624D01*
X152209500Y-99597376D01*
X124710500Y-99597376D01*
X124710500Y-94017085D01*
X124712921Y-93992504D01*
X124712987Y-93992172D01*
X124712987Y-93992171D01*
X124715408Y-93980000D01*
X124712987Y-93967829D01*
X124712987Y-93955418D01*
X124713026Y-93955418D01*
X124712235Y-93944690D01*
X124728559Y-93612395D01*
X124729771Y-93600089D01*
X124782866Y-93242150D01*
X124785278Y-93230022D01*
X124873204Y-92879005D01*
X124876793Y-92867173D01*
X124998700Y-92526465D01*
X125003432Y-92515041D01*
X125158147Y-92187924D01*
X125163976Y-92177019D01*
X125350011Y-91866639D01*
X125356881Y-91856358D01*
X125572438Y-91565713D01*
X125580282Y-91556155D01*
X125823291Y-91288035D01*
X125832035Y-91279291D01*
X126100155Y-91036282D01*
X126109713Y-91028438D01*
X126400358Y-90812881D01*
X126410639Y-90806011D01*
X126721019Y-90619976D01*
X126731924Y-90614147D01*
X127059041Y-90459432D01*
X127070465Y-90454700D01*
X127411173Y-90332793D01*
X127423005Y-90329204D01*
X127671834Y-90266875D01*
X127774025Y-90241277D01*
X127786147Y-90238867D01*
X128144094Y-90185770D01*
X128156390Y-90184559D01*
X128283163Y-90178332D01*
X128488690Y-90168235D01*
X128499418Y-90169026D01*
X128499418Y-90168987D01*
X128511829Y-90168987D01*
X128524000Y-90171408D01*
X128536171Y-90168987D01*
X128536172Y-90168987D01*
X128536504Y-90168921D01*
X128561085Y-90166500D01*
X154814000Y-90166500D01*
X154882121Y-90186502D01*
G37*
%TD.AperFunction*%
%TD*%
M02*
