%TF.GenerationSoftware,KiCad,Pcbnew,(6.0.6)*%
%TF.CreationDate,2022-08-10T17:58:30-05:00*%
%TF.ProjectId,EFuse_Test,45467573-655f-4546-9573-742e6b696361,rev?*%
%TF.SameCoordinates,Original*%
%TF.FileFunction,Copper,L4,Bot*%
%TF.FilePolarity,Positive*%
%FSLAX46Y46*%
G04 Gerber Fmt 4.6, Leading zero omitted, Abs format (unit mm)*
G04 Created by KiCad (PCBNEW (6.0.6)) date 2022-08-10 17:58:30*
%MOMM*%
%LPD*%
G01*
G04 APERTURE LIST*
G04 Aperture macros list*
%AMRoundRect*
0 Rectangle with rounded corners*
0 $1 Rounding radius*
0 $2 $3 $4 $5 $6 $7 $8 $9 X,Y pos of 4 corners*
0 Add a 4 corners polygon primitive as box body*
4,1,4,$2,$3,$4,$5,$6,$7,$8,$9,$2,$3,0*
0 Add four circle primitives for the rounded corners*
1,1,$1+$1,$2,$3*
1,1,$1+$1,$4,$5*
1,1,$1+$1,$6,$7*
1,1,$1+$1,$8,$9*
0 Add four rect primitives between the rounded corners*
20,1,$1+$1,$2,$3,$4,$5,0*
20,1,$1+$1,$4,$5,$6,$7,0*
20,1,$1+$1,$6,$7,$8,$9,0*
20,1,$1+$1,$8,$9,$2,$3,0*%
G04 Aperture macros list end*
%TA.AperFunction,ComponentPad*%
%ADD10R,1.520000X1.520000*%
%TD*%
%TA.AperFunction,ComponentPad*%
%ADD11C,1.520000*%
%TD*%
%TA.AperFunction,ComponentPad*%
%ADD12C,2.200000*%
%TD*%
%TA.AperFunction,ComponentPad*%
%ADD13RoundRect,0.250001X-0.499999X-0.759999X0.499999X-0.759999X0.499999X0.759999X-0.499999X0.759999X0*%
%TD*%
%TA.AperFunction,ComponentPad*%
%ADD14O,1.500000X2.020000*%
%TD*%
%TA.AperFunction,ComponentPad*%
%ADD15RoundRect,0.250001X-0.499999X-0.499999X0.499999X-0.499999X0.499999X0.499999X-0.499999X0.499999X0*%
%TD*%
%TA.AperFunction,ComponentPad*%
%ADD16C,1.500000*%
%TD*%
%TA.AperFunction,ViaPad*%
%ADD17C,0.523240*%
%TD*%
%TA.AperFunction,ViaPad*%
%ADD18C,1.066800*%
%TD*%
%TA.AperFunction,ViaPad*%
%ADD19C,0.800000*%
%TD*%
%TA.AperFunction,Conductor*%
%ADD20C,0.500000*%
%TD*%
%TA.AperFunction,Conductor*%
%ADD21C,0.400000*%
%TD*%
G04 APERTURE END LIST*
D10*
%TO.P,J1,1,Pin_1*%
%TO.N,GND*%
X171374994Y-99540009D03*
D11*
%TO.P,J1,2,Pin_2*%
%TO.N,+BATT*%
X171374994Y-96040008D03*
D12*
%TO.P,J1,3,Pin_3*%
%TO.N,GND*%
X179284986Y-102040004D03*
%TO.P,J1,4,Pin_4*%
X179284986Y-93540021D03*
%TD*%
D13*
%TO.P,J3,1,Pin_1*%
%TO.N,UART_TX*%
X149352000Y-123698000D03*
D14*
%TO.P,J3,2,Pin_2*%
%TO.N,UART_RX*%
X152352000Y-123698000D03*
%TO.P,J3,3,Pin_3*%
%TO.N,GND*%
X155352000Y-123698000D03*
%TD*%
D15*
%TO.P,J2,1,Pin_1*%
%TO.N,NRST*%
X153210000Y-99050000D03*
D16*
%TO.P,J2,2,Pin_2*%
%TO.N,+3V3*%
X156210000Y-99050000D03*
%TO.P,J2,3,Pin_3*%
%TO.N,SWCLK*%
X159210000Y-99050000D03*
%TO.P,J2,4,Pin_4*%
%TO.N,SWDIO*%
X153210000Y-102050000D03*
%TO.P,J2,5,Pin_5*%
%TO.N,GND*%
X156210000Y-102050000D03*
%TO.P,J2,6,Pin_6*%
%TO.N,unconnected-(J2-Pad6)*%
X159210000Y-102050000D03*
%TD*%
D17*
%TO.N,GND*%
X152984200Y-113817400D03*
X156133800Y-115011200D03*
X147066000Y-109728000D03*
X167386000Y-117602000D03*
X184150000Y-104140000D03*
X151688800Y-109880400D03*
X182245000Y-104140000D03*
X163322000Y-115062000D03*
X168656000Y-103886000D03*
D18*
%TO.N,+BATT*%
X159156400Y-91389200D03*
D19*
X172720000Y-112522000D03*
D17*
X162978000Y-106844000D03*
X149606000Y-105664000D03*
D19*
X171958000Y-110998000D03*
X171196000Y-109728000D03*
X172720000Y-109728000D03*
D17*
X172974000Y-107950000D03*
D19*
X171196000Y-112522000D03*
D17*
X170942000Y-107950000D03*
%TO.N,Vout*%
X184150000Y-114300000D03*
X176530000Y-112776000D03*
X176530000Y-110490000D03*
X179070000Y-118618000D03*
X177000002Y-121666000D03*
X176530000Y-112014000D03*
X182245000Y-114300000D03*
X176530000Y-111252000D03*
D18*
%TO.N,+3V3*%
X144907000Y-107188000D03*
D17*
X148781008Y-119380000D03*
X148590000Y-113538000D03*
X162306000Y-113030000D03*
%TO.N,UART_TX*%
X153162000Y-114554000D03*
%TO.N,UART_RX*%
X153162000Y-115316000D03*
%TO.N,EN*%
X163068000Y-111252000D03*
X162052000Y-115062000D03*
%TO.N,VBAT_IN*%
X157480000Y-114808000D03*
X157734000Y-119634000D03*
%TD*%
D20*
%TO.N,+BATT*%
X161798000Y-105664000D02*
X149606000Y-105664000D01*
X162978000Y-106844000D02*
X161798000Y-105664000D01*
D21*
%TO.N,UART_TX*%
X151638000Y-121412000D02*
X149352000Y-123698000D01*
X153162000Y-114554000D02*
X152989018Y-114554000D01*
X152989018Y-114554000D02*
X151638000Y-115905018D01*
X151638000Y-115905018D02*
X151638000Y-121412000D01*
%TO.N,UART_RX*%
X153162000Y-115316000D02*
X152352000Y-116126000D01*
X152352000Y-116126000D02*
X152352000Y-123698000D01*
%TO.N,EN*%
X163068000Y-114046000D02*
X162052000Y-115062000D01*
X163068000Y-111252000D02*
X163068000Y-114046000D01*
%TO.N,VBAT_IN*%
X157734000Y-119634000D02*
X157988000Y-119380000D01*
X157988000Y-119380000D02*
X157988000Y-115316000D01*
X157988000Y-115316000D02*
X157480000Y-114808000D01*
%TD*%
%TA.AperFunction,Conductor*%
%TO.N,GND*%
G36*
X181089496Y-90168921D02*
G01*
X181089828Y-90168987D01*
X181089829Y-90168987D01*
X181102000Y-90171408D01*
X181114171Y-90168987D01*
X181126582Y-90168987D01*
X181126582Y-90169026D01*
X181137310Y-90168235D01*
X181333768Y-90177886D01*
X181469610Y-90184559D01*
X181481906Y-90185770D01*
X181839853Y-90238867D01*
X181851975Y-90241277D01*
X181954166Y-90266875D01*
X182202995Y-90329204D01*
X182214827Y-90332793D01*
X182555535Y-90454700D01*
X182566959Y-90459432D01*
X182894076Y-90614147D01*
X182904981Y-90619976D01*
X183215361Y-90806011D01*
X183225642Y-90812881D01*
X183516287Y-91028438D01*
X183525845Y-91036282D01*
X183793965Y-91279291D01*
X183802709Y-91288035D01*
X184045718Y-91556155D01*
X184053562Y-91565713D01*
X184269119Y-91856358D01*
X184275989Y-91866639D01*
X184462024Y-92177019D01*
X184467853Y-92187924D01*
X184622568Y-92515041D01*
X184627300Y-92526465D01*
X184749207Y-92867173D01*
X184752796Y-92879005D01*
X184840722Y-93230022D01*
X184843134Y-93242150D01*
X184896229Y-93600089D01*
X184897441Y-93612395D01*
X184913765Y-93944690D01*
X184912974Y-93955418D01*
X184913013Y-93955418D01*
X184913013Y-93967829D01*
X184910592Y-93980000D01*
X184913013Y-93992171D01*
X184913013Y-93992172D01*
X184913079Y-93992504D01*
X184915500Y-94017085D01*
X184915500Y-108459000D01*
X184895498Y-108527121D01*
X184841842Y-108573614D01*
X184789500Y-108585000D01*
X181101000Y-108585000D01*
X181032879Y-108564998D01*
X180986386Y-108511342D01*
X180975000Y-108459000D01*
X180975000Y-103505000D01*
X177926000Y-103505000D01*
X177857879Y-103484998D01*
X177811386Y-103431342D01*
X177800000Y-103379000D01*
X177800000Y-99123126D01*
X177820002Y-99055005D01*
X177873658Y-99008512D01*
X177943932Y-98998408D01*
X178008512Y-99027902D01*
X178019999Y-99039220D01*
X178048169Y-99070782D01*
X178251064Y-99239528D01*
X178363869Y-99307980D01*
X178472676Y-99374006D01*
X178472681Y-99374008D01*
X178476673Y-99376431D01*
X178720039Y-99478482D01*
X178975816Y-99543442D01*
X179159929Y-99561981D01*
X179191858Y-99565196D01*
X179191859Y-99565196D01*
X179194997Y-99565512D01*
X179351993Y-99565512D01*
X179354318Y-99565339D01*
X179354324Y-99565339D01*
X179543512Y-99551280D01*
X179543516Y-99551279D01*
X179548164Y-99550934D01*
X179805554Y-99492693D01*
X179839143Y-99479631D01*
X180047156Y-99398739D01*
X180047158Y-99398738D01*
X180051509Y-99397046D01*
X180280624Y-99266096D01*
X180487867Y-99102719D01*
X180668684Y-98910504D01*
X180819105Y-98693674D01*
X180821173Y-98689481D01*
X180933758Y-98461180D01*
X180933759Y-98461177D01*
X180935823Y-98456992D01*
X181016276Y-98205657D01*
X181058696Y-97945192D01*
X181062150Y-97681317D01*
X181026563Y-97419831D01*
X180952717Y-97166476D01*
X180842234Y-96926820D01*
X180809774Y-96877311D01*
X180700107Y-96710040D01*
X180700103Y-96710035D01*
X180697541Y-96706127D01*
X180583826Y-96578719D01*
X180524934Y-96512736D01*
X180524932Y-96512734D01*
X180521817Y-96509244D01*
X180318922Y-96340498D01*
X180206118Y-96272047D01*
X180097310Y-96206020D01*
X180097305Y-96206018D01*
X180093313Y-96203595D01*
X179849947Y-96101544D01*
X179594170Y-96036584D01*
X179410057Y-96018045D01*
X179378128Y-96014830D01*
X179378127Y-96014830D01*
X179374989Y-96014514D01*
X179217993Y-96014514D01*
X179215668Y-96014687D01*
X179215662Y-96014687D01*
X179026474Y-96028746D01*
X179026470Y-96028747D01*
X179021822Y-96029092D01*
X178764432Y-96087333D01*
X178760080Y-96089025D01*
X178760078Y-96089026D01*
X178522830Y-96181287D01*
X178522828Y-96181288D01*
X178518477Y-96182980D01*
X178289362Y-96313930D01*
X178082119Y-96477307D01*
X178078919Y-96480709D01*
X178017775Y-96545707D01*
X177956531Y-96581619D01*
X177885594Y-96578719D01*
X177827485Y-96537928D01*
X177800654Y-96472197D01*
X177800000Y-96459374D01*
X177800000Y-90292500D01*
X177820002Y-90224379D01*
X177873658Y-90177886D01*
X177926000Y-90166500D01*
X181064915Y-90166500D01*
X181089496Y-90168921D01*
G37*
%TD.AperFunction*%
%TD*%
%TA.AperFunction,Conductor*%
%TO.N,+BATT*%
G36*
X177107121Y-90444502D02*
G01*
X177153614Y-90498158D01*
X177165000Y-90550500D01*
X177165000Y-104140000D01*
X179579000Y-104140000D01*
X179647121Y-104160002D01*
X179693614Y-104213658D01*
X179705000Y-104266000D01*
X179705000Y-107824000D01*
X179684998Y-107892121D01*
X179631342Y-107938614D01*
X179579000Y-107950000D01*
X173355000Y-107950000D01*
X173355000Y-112904000D01*
X173334998Y-112972121D01*
X173281342Y-113018614D01*
X173229000Y-113030000D01*
X170306000Y-113030000D01*
X170237879Y-113009998D01*
X170191386Y-112956342D01*
X170180000Y-112904000D01*
X170180000Y-101726000D01*
X170200002Y-101657879D01*
X170253658Y-101611386D01*
X170306000Y-101600000D01*
X173482000Y-101600000D01*
X173482000Y-97790000D01*
X165861000Y-97790000D01*
X165792879Y-97769998D01*
X165746386Y-97716342D01*
X165735000Y-97664000D01*
X165735000Y-95250001D01*
X164933564Y-95250001D01*
X157606000Y-95250000D01*
X157537879Y-95229998D01*
X157491386Y-95176342D01*
X157480000Y-95124000D01*
X157480000Y-93980000D01*
X155701000Y-93980000D01*
X155632879Y-93959998D01*
X155586386Y-93906342D01*
X155575000Y-93854000D01*
X155575000Y-90550500D01*
X155595002Y-90482379D01*
X155648658Y-90435886D01*
X155701000Y-90424500D01*
X177039000Y-90424500D01*
X177107121Y-90444502D01*
G37*
%TD.AperFunction*%
%TD*%
%TA.AperFunction,Conductor*%
%TO.N,Vout*%
G36*
X176472121Y-108605002D02*
G01*
X176518614Y-108658658D01*
X176530000Y-108711000D01*
X176530000Y-109855000D01*
X184789500Y-109855000D01*
X184857621Y-109875002D01*
X184904114Y-109928658D01*
X184915500Y-109981000D01*
X184915500Y-122644915D01*
X184913079Y-122669496D01*
X184910592Y-122682000D01*
X184913013Y-122694171D01*
X184913013Y-122706582D01*
X184912974Y-122706582D01*
X184913765Y-122717310D01*
X184897441Y-123049606D01*
X184896229Y-123061911D01*
X184893177Y-123082487D01*
X184863397Y-123146936D01*
X184803500Y-123185053D01*
X184768541Y-123190000D01*
X180466000Y-123190000D01*
X180397879Y-123169998D01*
X180351386Y-123116342D01*
X180340000Y-123064000D01*
X180340000Y-120650000D01*
X177800000Y-120650000D01*
X177800000Y-123064000D01*
X177779998Y-123132121D01*
X177726342Y-123178614D01*
X177674000Y-123190000D01*
X176021000Y-123190000D01*
X175952879Y-123169998D01*
X175906386Y-123116342D01*
X175895000Y-123064000D01*
X175895000Y-113665000D01*
X174116000Y-113665000D01*
X174047879Y-113644998D01*
X174001386Y-113591342D01*
X173990000Y-113539000D01*
X173990000Y-108711000D01*
X174010002Y-108642879D01*
X174063658Y-108596386D01*
X174116000Y-108585000D01*
X176404000Y-108585000D01*
X176472121Y-108605002D01*
G37*
%TD.AperFunction*%
%TD*%
%TA.AperFunction,Conductor*%
%TO.N,GND*%
G36*
X154882121Y-90186502D02*
G01*
X154928614Y-90240158D01*
X154940000Y-90292500D01*
X154940000Y-96520000D01*
X164339000Y-96520000D01*
X164407121Y-96540002D01*
X164453614Y-96593658D01*
X164465000Y-96646000D01*
X164465000Y-98425000D01*
X172594000Y-98425000D01*
X172662121Y-98445002D01*
X172708614Y-98498658D01*
X172720000Y-98551000D01*
X172720000Y-100839000D01*
X172699998Y-100907121D01*
X172646342Y-100953614D01*
X172594000Y-100965000D01*
X169545000Y-100965000D01*
X169545000Y-114300000D01*
X175134000Y-114300000D01*
X175202121Y-114320002D01*
X175248614Y-114373658D01*
X175260000Y-114426000D01*
X175260000Y-123825000D01*
X184559505Y-123825000D01*
X184627626Y-123845002D01*
X184674119Y-123898658D01*
X184684223Y-123968932D01*
X184678139Y-123993448D01*
X184627299Y-124135535D01*
X184622568Y-124146959D01*
X184467853Y-124474076D01*
X184462024Y-124484981D01*
X184275989Y-124795361D01*
X184269119Y-124805642D01*
X184053562Y-125096287D01*
X184045718Y-125105845D01*
X183802709Y-125373965D01*
X183793965Y-125382709D01*
X183525845Y-125625718D01*
X183516287Y-125633562D01*
X183225642Y-125849119D01*
X183215361Y-125855989D01*
X182904981Y-126042024D01*
X182894076Y-126047853D01*
X182566959Y-126202568D01*
X182555535Y-126207300D01*
X182214827Y-126329207D01*
X182202995Y-126332796D01*
X181954166Y-126395125D01*
X181851975Y-126420723D01*
X181839853Y-126423133D01*
X181481906Y-126476230D01*
X181469610Y-126477441D01*
X181342837Y-126483668D01*
X181137310Y-126493765D01*
X181126582Y-126492974D01*
X181126582Y-126493013D01*
X181114171Y-126493013D01*
X181102000Y-126490592D01*
X181089829Y-126493013D01*
X181089828Y-126493013D01*
X181089496Y-126493079D01*
X181064915Y-126495500D01*
X128561085Y-126495500D01*
X128536504Y-126493079D01*
X128536172Y-126493013D01*
X128536171Y-126493013D01*
X128524000Y-126490592D01*
X128511829Y-126493013D01*
X128499418Y-126493013D01*
X128499418Y-126492974D01*
X128488690Y-126493765D01*
X128283163Y-126483668D01*
X128156390Y-126477441D01*
X128144094Y-126476230D01*
X127786147Y-126423133D01*
X127774025Y-126420723D01*
X127671834Y-126395125D01*
X127423005Y-126332796D01*
X127411173Y-126329207D01*
X127070465Y-126207300D01*
X127059041Y-126202568D01*
X126731924Y-126047853D01*
X126721019Y-126042024D01*
X126410639Y-125855989D01*
X126400358Y-125849119D01*
X126109713Y-125633562D01*
X126100155Y-125625718D01*
X125832035Y-125382709D01*
X125823291Y-125373965D01*
X125580282Y-125105845D01*
X125572438Y-125096287D01*
X125356881Y-124805642D01*
X125350011Y-124795361D01*
X125176200Y-124505376D01*
X148351500Y-124505376D01*
X148358149Y-124566579D01*
X148408474Y-124700823D01*
X148413854Y-124708002D01*
X148413856Y-124708005D01*
X148445621Y-124750388D01*
X148494454Y-124815546D01*
X148501634Y-124820927D01*
X148601995Y-124896144D01*
X148601998Y-124896146D01*
X148609177Y-124901526D01*
X148690641Y-124932065D01*
X148736026Y-124949079D01*
X148736028Y-124949079D01*
X148743421Y-124951851D01*
X148751271Y-124952704D01*
X148751272Y-124952704D01*
X148779016Y-124955718D01*
X148804624Y-124958500D01*
X149899376Y-124958500D01*
X149924984Y-124955718D01*
X149952728Y-124952704D01*
X149952729Y-124952704D01*
X149960579Y-124951851D01*
X149967972Y-124949079D01*
X149967974Y-124949079D01*
X150013359Y-124932065D01*
X150094823Y-124901526D01*
X150102002Y-124896146D01*
X150102005Y-124896144D01*
X150202366Y-124820927D01*
X150209546Y-124815546D01*
X150258379Y-124750388D01*
X150290144Y-124708005D01*
X150290146Y-124708002D01*
X150295526Y-124700823D01*
X150345851Y-124566579D01*
X150352500Y-124505376D01*
X150352500Y-123386793D01*
X150372502Y-123318672D01*
X150389405Y-123297698D01*
X151686405Y-122000698D01*
X151748717Y-121966672D01*
X151819532Y-121971737D01*
X151876368Y-122014284D01*
X151901179Y-122080804D01*
X151901500Y-122089793D01*
X151901500Y-122469970D01*
X151881498Y-122538091D01*
X151841897Y-122577056D01*
X151738401Y-122641226D01*
X151733763Y-122645612D01*
X151674360Y-122701787D01*
X151590720Y-122780881D01*
X151474137Y-122947379D01*
X151393414Y-123133919D01*
X151351849Y-123332880D01*
X151351500Y-123339539D01*
X151351500Y-124008800D01*
X151366880Y-124160216D01*
X151427662Y-124354172D01*
X151526203Y-124531944D01*
X151658477Y-124686271D01*
X151819081Y-124810848D01*
X152001455Y-124900587D01*
X152007633Y-124902196D01*
X152007635Y-124902197D01*
X152191966Y-124950212D01*
X152191969Y-124950212D01*
X152198148Y-124951822D01*
X152279328Y-124956076D01*
X152394744Y-124962125D01*
X152394748Y-124962125D01*
X152401126Y-124962459D01*
X152602097Y-124932065D01*
X152792852Y-124861881D01*
X152798273Y-124858520D01*
X152960176Y-124758137D01*
X152960180Y-124758134D01*
X152965599Y-124754774D01*
X153113280Y-124615119D01*
X153229863Y-124448621D01*
X153310586Y-124262081D01*
X153352151Y-124063120D01*
X153352500Y-124056461D01*
X153352500Y-123387200D01*
X153337120Y-123235784D01*
X153276338Y-123041828D01*
X153177797Y-122864056D01*
X153045523Y-122709729D01*
X153035285Y-122701787D01*
X152934357Y-122623500D01*
X152884919Y-122585152D01*
X152879201Y-122582339D01*
X152879194Y-122582334D01*
X152872869Y-122579222D01*
X152820579Y-122531199D01*
X152802500Y-122466168D01*
X152802500Y-121831070D01*
X157466500Y-121831070D01*
X157467873Y-121837528D01*
X157495323Y-121966672D01*
X157505200Y-122013142D01*
X157580910Y-122183189D01*
X157690320Y-122333779D01*
X157695230Y-122338200D01*
X157695231Y-122338201D01*
X157815372Y-122446376D01*
X157828649Y-122458331D01*
X157989851Y-122551401D01*
X157996137Y-122553443D01*
X157996136Y-122553443D01*
X158160601Y-122606881D01*
X158160602Y-122606881D01*
X158166880Y-122608921D01*
X158173443Y-122609611D01*
X158173444Y-122609611D01*
X158196808Y-122612067D01*
X158305589Y-122623500D01*
X158398411Y-122623500D01*
X158507192Y-122612067D01*
X158530556Y-122609611D01*
X158530557Y-122609611D01*
X158537120Y-122608921D01*
X158543398Y-122606881D01*
X158543399Y-122606881D01*
X158707864Y-122553443D01*
X158707863Y-122553443D01*
X158714149Y-122551401D01*
X158875351Y-122458331D01*
X158888629Y-122446376D01*
X159008769Y-122338201D01*
X159008770Y-122338200D01*
X159013680Y-122333779D01*
X159123090Y-122183189D01*
X159198800Y-122013142D01*
X159208678Y-121966672D01*
X159236127Y-121837528D01*
X159237500Y-121831070D01*
X159237500Y-121644930D01*
X159198800Y-121462858D01*
X159123090Y-121292811D01*
X159110961Y-121276117D01*
X159017563Y-121147565D01*
X159017561Y-121147563D01*
X159013680Y-121142221D01*
X158875351Y-121017669D01*
X158714149Y-120924599D01*
X158640661Y-120900722D01*
X158543399Y-120869119D01*
X158543398Y-120869119D01*
X158537120Y-120867079D01*
X158530557Y-120866389D01*
X158530556Y-120866389D01*
X158507192Y-120863933D01*
X158398411Y-120852500D01*
X158305589Y-120852500D01*
X158196808Y-120863933D01*
X158173444Y-120866389D01*
X158173443Y-120866389D01*
X158166880Y-120867079D01*
X158160602Y-120869119D01*
X158160601Y-120869119D01*
X158063339Y-120900722D01*
X157989851Y-120924599D01*
X157828649Y-121017669D01*
X157690320Y-121142221D01*
X157686439Y-121147563D01*
X157686437Y-121147565D01*
X157593039Y-121276117D01*
X157580910Y-121292811D01*
X157505200Y-121462858D01*
X157466500Y-121644930D01*
X157466500Y-121831070D01*
X152802500Y-121831070D01*
X152802500Y-116364793D01*
X152822502Y-116296672D01*
X152839405Y-116275698D01*
X153284408Y-115830695D01*
X153340359Y-115798227D01*
X153342713Y-115797585D01*
X153367479Y-115790833D01*
X153375126Y-115786138D01*
X153375130Y-115786136D01*
X153484843Y-115718772D01*
X153492490Y-115714077D01*
X153590932Y-115605319D01*
X153654894Y-115473302D01*
X153665604Y-115409643D01*
X153678426Y-115333434D01*
X153678426Y-115333429D01*
X153679232Y-115328641D01*
X153679386Y-115316000D01*
X153658590Y-115170787D01*
X153597873Y-115037248D01*
X153592019Y-115030454D01*
X153592017Y-115030451D01*
X153581519Y-115018268D01*
X153552206Y-114953605D01*
X153562505Y-114883360D01*
X153583557Y-114851467D01*
X153584907Y-114849976D01*
X153584909Y-114849974D01*
X153590932Y-114843319D01*
X153605419Y-114813419D01*
X153611107Y-114801679D01*
X156962653Y-114801679D01*
X156963817Y-114810581D01*
X156963817Y-114810584D01*
X156964188Y-114813419D01*
X156981673Y-114947135D01*
X157007550Y-115005945D01*
X157035037Y-115068413D01*
X157040754Y-115081407D01*
X157046531Y-115088280D01*
X157046532Y-115088281D01*
X157068670Y-115114617D01*
X157135145Y-115193699D01*
X157257260Y-115274985D01*
X157302422Y-115289095D01*
X157304197Y-115289649D01*
X157355718Y-115320821D01*
X157500595Y-115465698D01*
X157534621Y-115528010D01*
X157537500Y-115554793D01*
X157537500Y-119082912D01*
X157517498Y-119151033D01*
X157478736Y-119189473D01*
X157406269Y-119235196D01*
X157406262Y-119235202D01*
X157398672Y-119239991D01*
X157301565Y-119349943D01*
X157297751Y-119358066D01*
X157297750Y-119358068D01*
X157282990Y-119389506D01*
X157239221Y-119482731D01*
X157233553Y-119519135D01*
X157218034Y-119618806D01*
X157218034Y-119618809D01*
X157216653Y-119627679D01*
X157217817Y-119636581D01*
X157217817Y-119636584D01*
X157222098Y-119669319D01*
X157235673Y-119773135D01*
X157239290Y-119781355D01*
X157288527Y-119893254D01*
X157294754Y-119907407D01*
X157389145Y-120019699D01*
X157511260Y-120100985D01*
X157651280Y-120144730D01*
X157660252Y-120144894D01*
X157660255Y-120144895D01*
X157725937Y-120146099D01*
X157797950Y-120147419D01*
X157898464Y-120120015D01*
X157930816Y-120111195D01*
X157930817Y-120111195D01*
X157939479Y-120108833D01*
X157947126Y-120104138D01*
X157947130Y-120104136D01*
X158056843Y-120036772D01*
X158064490Y-120032077D01*
X158162932Y-119923319D01*
X158226894Y-119791302D01*
X158228525Y-119792092D01*
X158252706Y-119752397D01*
X158282350Y-119722753D01*
X158293439Y-119712899D01*
X158312709Y-119697707D01*
X158312711Y-119697705D01*
X158320110Y-119691872D01*
X158341280Y-119661242D01*
X158343096Y-119658614D01*
X158353462Y-119643615D01*
X158355757Y-119640403D01*
X158385040Y-119600758D01*
X158385041Y-119600757D01*
X158390634Y-119593184D01*
X158393027Y-119586368D01*
X158397131Y-119580431D01*
X158414826Y-119524481D01*
X158416071Y-119520750D01*
X158432396Y-119474263D01*
X158432396Y-119474261D01*
X158435519Y-119465369D01*
X158435801Y-119458181D01*
X158435812Y-119458122D01*
X158437980Y-119451270D01*
X158438500Y-119444663D01*
X158438500Y-119391984D01*
X158438597Y-119387037D01*
X158438772Y-119382584D01*
X158440838Y-119330006D01*
X158438954Y-119322900D01*
X158438500Y-119314656D01*
X158438500Y-115350219D01*
X158439373Y-115335410D01*
X158442257Y-115311042D01*
X158443364Y-115301689D01*
X158432826Y-115243988D01*
X158432176Y-115240084D01*
X158424849Y-115191348D01*
X158424848Y-115191346D01*
X158423449Y-115182038D01*
X158420322Y-115175525D01*
X158419025Y-115168426D01*
X158414683Y-115160067D01*
X158391982Y-115116363D01*
X158390214Y-115112825D01*
X158368887Y-115068413D01*
X158368887Y-115068412D01*
X158364809Y-115059921D01*
X158360888Y-115055679D01*
X161534653Y-115055679D01*
X161553673Y-115201135D01*
X161612754Y-115335407D01*
X161618531Y-115342280D01*
X161618532Y-115342281D01*
X161619340Y-115343242D01*
X161707145Y-115447699D01*
X161829260Y-115528985D01*
X161911867Y-115554793D01*
X161952617Y-115567524D01*
X161969280Y-115572730D01*
X161978252Y-115572894D01*
X161978255Y-115572895D01*
X162043937Y-115574099D01*
X162115950Y-115575419D01*
X162216464Y-115548015D01*
X162248816Y-115539195D01*
X162248817Y-115539195D01*
X162257479Y-115536833D01*
X162265126Y-115532138D01*
X162265130Y-115532136D01*
X162374843Y-115464772D01*
X162382490Y-115460077D01*
X162480932Y-115351319D01*
X162544894Y-115219302D01*
X162546525Y-115220092D01*
X162570706Y-115180397D01*
X163362350Y-114388753D01*
X163373439Y-114378899D01*
X163392710Y-114363706D01*
X163392711Y-114363705D01*
X163400110Y-114357872D01*
X163405465Y-114350124D01*
X163405467Y-114350122D01*
X163433474Y-114309600D01*
X163435774Y-114306381D01*
X163465038Y-114266760D01*
X163465039Y-114266759D01*
X163470634Y-114259183D01*
X163473027Y-114252369D01*
X163477131Y-114246431D01*
X163483292Y-114226952D01*
X163494825Y-114190483D01*
X163496078Y-114186728D01*
X163499623Y-114176635D01*
X163515519Y-114131369D01*
X163515801Y-114124182D01*
X163515813Y-114124120D01*
X163517980Y-114117270D01*
X163518500Y-114110663D01*
X163518500Y-114057984D01*
X163518597Y-114053037D01*
X163519846Y-114021248D01*
X163520838Y-113996006D01*
X163518954Y-113988900D01*
X163518500Y-113980653D01*
X163518500Y-111525718D01*
X163531108Y-111470780D01*
X163545274Y-111441542D01*
X163560894Y-111409302D01*
X163585232Y-111264641D01*
X163585386Y-111252000D01*
X163564590Y-111106787D01*
X163503873Y-110973248D01*
X163408117Y-110862117D01*
X163285019Y-110782329D01*
X163276417Y-110779757D01*
X163276414Y-110779755D01*
X163208162Y-110759344D01*
X163144475Y-110740297D01*
X163135499Y-110740242D01*
X163135498Y-110740242D01*
X163072277Y-110739856D01*
X162997783Y-110739401D01*
X162989151Y-110741868D01*
X162865367Y-110777245D01*
X162865365Y-110777246D01*
X162856736Y-110779712D01*
X162849148Y-110784500D01*
X162769049Y-110835039D01*
X162732672Y-110857991D01*
X162635565Y-110967943D01*
X162631751Y-110976066D01*
X162631750Y-110976068D01*
X162624675Y-110991138D01*
X162573221Y-111100731D01*
X162563757Y-111161514D01*
X162552034Y-111236806D01*
X162552034Y-111236809D01*
X162550653Y-111245679D01*
X162569673Y-111391135D01*
X162573290Y-111399355D01*
X162606829Y-111475578D01*
X162617500Y-111526324D01*
X162617500Y-112419389D01*
X162597498Y-112487510D01*
X162543842Y-112534003D01*
X162473568Y-112544107D01*
X162455403Y-112540107D01*
X162382475Y-112518297D01*
X162373499Y-112518242D01*
X162373498Y-112518242D01*
X162310277Y-112517856D01*
X162235783Y-112517401D01*
X162227151Y-112519868D01*
X162103367Y-112555245D01*
X162103365Y-112555246D01*
X162094736Y-112557712D01*
X161970672Y-112635991D01*
X161873565Y-112745943D01*
X161811221Y-112878731D01*
X161809840Y-112887603D01*
X161790034Y-113014806D01*
X161790034Y-113014809D01*
X161788653Y-113023679D01*
X161789817Y-113032581D01*
X161789817Y-113032584D01*
X161794491Y-113068329D01*
X161807673Y-113169135D01*
X161866754Y-113303407D01*
X161961145Y-113415699D01*
X162083260Y-113496985D01*
X162187520Y-113529558D01*
X162214542Y-113538000D01*
X162223280Y-113540730D01*
X162232252Y-113540894D01*
X162232255Y-113540895D01*
X162297937Y-113542099D01*
X162369950Y-113543419D01*
X162458357Y-113519316D01*
X162529341Y-113520695D01*
X162588310Y-113560232D01*
X162616542Y-113625374D01*
X162617500Y-113640879D01*
X162617500Y-113807207D01*
X162597498Y-113875328D01*
X162580595Y-113896302D01*
X161928856Y-114548041D01*
X161874386Y-114580095D01*
X161840736Y-114589712D01*
X161716672Y-114667991D01*
X161619565Y-114777943D01*
X161615751Y-114786066D01*
X161615750Y-114786068D01*
X161590841Y-114839123D01*
X161557221Y-114910731D01*
X161551553Y-114947135D01*
X161536034Y-115046806D01*
X161536034Y-115046809D01*
X161534653Y-115055679D01*
X158360888Y-115055679D01*
X158359924Y-115054636D01*
X158359892Y-115054589D01*
X158356579Y-115048211D01*
X158352275Y-115043172D01*
X158315048Y-115005945D01*
X158311618Y-115002379D01*
X158279246Y-114967359D01*
X158272854Y-114960444D01*
X158266495Y-114956751D01*
X158260337Y-114951234D01*
X157996662Y-114687559D01*
X157971056Y-114650615D01*
X157919590Y-114537422D01*
X157919588Y-114537419D01*
X157915873Y-114529248D01*
X157820117Y-114418117D01*
X157697019Y-114338329D01*
X157688417Y-114335757D01*
X157688414Y-114335755D01*
X157611125Y-114312641D01*
X157556475Y-114296297D01*
X157547499Y-114296242D01*
X157547498Y-114296242D01*
X157484277Y-114295856D01*
X157409783Y-114295401D01*
X157401151Y-114297868D01*
X157277367Y-114333245D01*
X157277365Y-114333246D01*
X157268736Y-114335712D01*
X157208596Y-114373658D01*
X157165872Y-114400615D01*
X157144672Y-114413991D01*
X157047565Y-114523943D01*
X157043751Y-114532066D01*
X157043750Y-114532068D01*
X157027518Y-114566641D01*
X156985221Y-114656731D01*
X156983840Y-114665603D01*
X156964034Y-114792806D01*
X156964034Y-114792809D01*
X156962653Y-114801679D01*
X153611107Y-114801679D01*
X153650979Y-114719382D01*
X153654894Y-114711302D01*
X153674545Y-114594500D01*
X153678426Y-114571434D01*
X153678426Y-114571429D01*
X153679232Y-114566641D01*
X153679386Y-114554000D01*
X153658590Y-114408787D01*
X153613492Y-114309600D01*
X153601589Y-114283420D01*
X153601588Y-114283418D01*
X153597873Y-114275248D01*
X153502117Y-114164117D01*
X153379019Y-114084329D01*
X153370417Y-114081757D01*
X153370414Y-114081755D01*
X153282642Y-114055506D01*
X153238475Y-114042297D01*
X153229499Y-114042242D01*
X153229498Y-114042242D01*
X153166277Y-114041856D01*
X153091783Y-114041401D01*
X153083151Y-114043868D01*
X152959370Y-114079244D01*
X152959367Y-114079245D01*
X152950736Y-114081712D01*
X152926374Y-114097083D01*
X152877872Y-114115121D01*
X152855056Y-114118551D01*
X152848543Y-114121679D01*
X152841445Y-114122975D01*
X152789371Y-114150025D01*
X152785881Y-114151768D01*
X152732939Y-114177191D01*
X152727653Y-114182077D01*
X152727605Y-114182110D01*
X152721230Y-114185421D01*
X152716190Y-114189725D01*
X152678963Y-114226952D01*
X152675398Y-114230381D01*
X152633462Y-114269146D01*
X152629769Y-114275505D01*
X152624252Y-114281663D01*
X151343650Y-115562265D01*
X151332561Y-115572119D01*
X151313291Y-115587311D01*
X151313289Y-115587313D01*
X151305890Y-115593146D01*
X151300535Y-115600893D01*
X151300534Y-115600895D01*
X151272545Y-115641393D01*
X151270250Y-115644605D01*
X151235366Y-115691834D01*
X151232973Y-115698650D01*
X151228869Y-115704587D01*
X151226029Y-115713567D01*
X151226028Y-115713569D01*
X151211182Y-115760513D01*
X151209929Y-115764268D01*
X151194913Y-115807029D01*
X151190481Y-115819649D01*
X151190199Y-115826837D01*
X151190188Y-115826896D01*
X151188020Y-115833748D01*
X151187500Y-115840355D01*
X151187500Y-115893034D01*
X151187403Y-115897980D01*
X151185162Y-115955012D01*
X151187046Y-115962118D01*
X151187500Y-115970365D01*
X151187500Y-121173207D01*
X151167498Y-121241328D01*
X151150595Y-121262302D01*
X150010635Y-122402262D01*
X149948323Y-122436288D01*
X149907927Y-122438429D01*
X149899376Y-122437500D01*
X148804624Y-122437500D01*
X148801228Y-122437869D01*
X148801227Y-122437869D01*
X148751272Y-122443296D01*
X148751271Y-122443296D01*
X148743421Y-122444149D01*
X148736028Y-122446921D01*
X148736026Y-122446921D01*
X148717378Y-122453912D01*
X148609177Y-122494474D01*
X148601998Y-122499854D01*
X148601995Y-122499856D01*
X148550979Y-122538091D01*
X148494454Y-122580454D01*
X148478003Y-122602404D01*
X148413856Y-122687995D01*
X148413854Y-122687998D01*
X148408474Y-122695177D01*
X148358149Y-122829421D01*
X148351500Y-122890624D01*
X148351500Y-124505376D01*
X125176200Y-124505376D01*
X125163976Y-124484981D01*
X125158147Y-124474076D01*
X125003432Y-124146959D01*
X124998700Y-124135535D01*
X124876793Y-123794827D01*
X124873204Y-123782995D01*
X124785278Y-123431978D01*
X124782866Y-123419850D01*
X124778023Y-123387200D01*
X124729770Y-123061906D01*
X124728559Y-123049605D01*
X124727903Y-123036239D01*
X124712235Y-122717310D01*
X124713026Y-122706582D01*
X124712987Y-122706582D01*
X124712987Y-122694171D01*
X124715408Y-122682000D01*
X124712921Y-122669496D01*
X124710500Y-122644915D01*
X124710500Y-121831070D01*
X145466500Y-121831070D01*
X145467873Y-121837528D01*
X145495323Y-121966672D01*
X145505200Y-122013142D01*
X145580910Y-122183189D01*
X145690320Y-122333779D01*
X145695230Y-122338200D01*
X145695231Y-122338201D01*
X145815372Y-122446376D01*
X145828649Y-122458331D01*
X145989851Y-122551401D01*
X145996137Y-122553443D01*
X145996136Y-122553443D01*
X146160601Y-122606881D01*
X146160602Y-122606881D01*
X146166880Y-122608921D01*
X146173443Y-122609611D01*
X146173444Y-122609611D01*
X146196808Y-122612067D01*
X146305589Y-122623500D01*
X146398411Y-122623500D01*
X146507192Y-122612067D01*
X146530556Y-122609611D01*
X146530557Y-122609611D01*
X146537120Y-122608921D01*
X146543398Y-122606881D01*
X146543399Y-122606881D01*
X146707864Y-122553443D01*
X146707863Y-122553443D01*
X146714149Y-122551401D01*
X146875351Y-122458331D01*
X146888629Y-122446376D01*
X147008769Y-122338201D01*
X147008770Y-122338200D01*
X147013680Y-122333779D01*
X147123090Y-122183189D01*
X147198800Y-122013142D01*
X147208678Y-121966672D01*
X147236127Y-121837528D01*
X147237500Y-121831070D01*
X147237500Y-121644930D01*
X147198800Y-121462858D01*
X147123090Y-121292811D01*
X147110961Y-121276117D01*
X147017563Y-121147565D01*
X147017561Y-121147563D01*
X147013680Y-121142221D01*
X146875351Y-121017669D01*
X146714149Y-120924599D01*
X146640661Y-120900722D01*
X146543399Y-120869119D01*
X146543398Y-120869119D01*
X146537120Y-120867079D01*
X146530557Y-120866389D01*
X146530556Y-120866389D01*
X146507192Y-120863933D01*
X146398411Y-120852500D01*
X146305589Y-120852500D01*
X146196808Y-120863933D01*
X146173444Y-120866389D01*
X146173443Y-120866389D01*
X146166880Y-120867079D01*
X146160602Y-120869119D01*
X146160601Y-120869119D01*
X146063339Y-120900722D01*
X145989851Y-120924599D01*
X145828649Y-121017669D01*
X145690320Y-121142221D01*
X145686439Y-121147563D01*
X145686437Y-121147565D01*
X145593039Y-121276117D01*
X145580910Y-121292811D01*
X145505200Y-121462858D01*
X145466500Y-121644930D01*
X145466500Y-121831070D01*
X124710500Y-121831070D01*
X124710500Y-119373679D01*
X148263661Y-119373679D01*
X148264825Y-119382581D01*
X148264825Y-119382584D01*
X148266140Y-119392641D01*
X148282681Y-119519135D01*
X148341762Y-119653407D01*
X148436153Y-119765699D01*
X148558268Y-119846985D01*
X148698288Y-119890730D01*
X148707260Y-119890894D01*
X148707263Y-119890895D01*
X148772945Y-119892099D01*
X148844958Y-119893419D01*
X148945472Y-119866015D01*
X148977824Y-119857195D01*
X148977825Y-119857195D01*
X148986487Y-119854833D01*
X148994134Y-119850138D01*
X148994138Y-119850136D01*
X149103851Y-119782772D01*
X149111498Y-119778077D01*
X149209940Y-119669319D01*
X149273902Y-119537302D01*
X149298240Y-119392641D01*
X149298394Y-119380000D01*
X149277598Y-119234787D01*
X149230599Y-119131419D01*
X149220597Y-119109420D01*
X149220596Y-119109418D01*
X149216881Y-119101248D01*
X149121125Y-118990117D01*
X148998027Y-118910329D01*
X148989425Y-118907757D01*
X148989422Y-118907755D01*
X148921170Y-118887344D01*
X148857483Y-118868297D01*
X148848507Y-118868242D01*
X148848506Y-118868242D01*
X148785285Y-118867856D01*
X148710791Y-118867401D01*
X148702159Y-118869868D01*
X148578375Y-118905245D01*
X148578373Y-118905246D01*
X148569744Y-118907712D01*
X148445680Y-118985991D01*
X148348573Y-119095943D01*
X148344759Y-119104066D01*
X148344758Y-119104068D01*
X148333179Y-119128730D01*
X148286229Y-119228731D01*
X148284848Y-119237603D01*
X148265042Y-119364806D01*
X148265042Y-119364809D01*
X148263661Y-119373679D01*
X124710500Y-119373679D01*
X124710500Y-113531679D01*
X148072653Y-113531679D01*
X148073817Y-113540581D01*
X148073817Y-113540584D01*
X148082163Y-113604407D01*
X148091673Y-113677135D01*
X148150754Y-113811407D01*
X148156531Y-113818280D01*
X148156532Y-113818281D01*
X148169722Y-113833972D01*
X148245145Y-113923699D01*
X148367260Y-114004985D01*
X148471520Y-114037558D01*
X148494925Y-114044870D01*
X148507280Y-114048730D01*
X148516252Y-114048894D01*
X148516255Y-114048895D01*
X148581937Y-114050099D01*
X148653950Y-114051419D01*
X148784072Y-114015943D01*
X148786816Y-114015195D01*
X148786817Y-114015195D01*
X148795479Y-114012833D01*
X148803126Y-114008138D01*
X148803130Y-114008136D01*
X148912843Y-113940772D01*
X148920490Y-113936077D01*
X149018932Y-113827319D01*
X149082894Y-113695302D01*
X149094659Y-113625374D01*
X149106426Y-113555434D01*
X149106426Y-113555429D01*
X149107232Y-113550641D01*
X149107386Y-113538000D01*
X149086590Y-113392787D01*
X149056231Y-113326017D01*
X149029589Y-113267420D01*
X149029588Y-113267418D01*
X149025873Y-113259248D01*
X148930117Y-113148117D01*
X148807019Y-113068329D01*
X148798417Y-113065757D01*
X148798414Y-113065755D01*
X148730162Y-113045344D01*
X148666475Y-113026297D01*
X148657499Y-113026242D01*
X148657498Y-113026242D01*
X148594277Y-113025856D01*
X148519783Y-113025401D01*
X148511151Y-113027868D01*
X148387367Y-113063245D01*
X148387365Y-113063246D01*
X148378736Y-113065712D01*
X148254672Y-113143991D01*
X148157565Y-113253943D01*
X148153751Y-113262066D01*
X148153750Y-113262068D01*
X148142171Y-113286730D01*
X148095221Y-113386731D01*
X148093840Y-113395603D01*
X148074034Y-113522806D01*
X148074034Y-113522809D01*
X148072653Y-113531679D01*
X124710500Y-113531679D01*
X124710500Y-107176986D01*
X144118217Y-107176986D01*
X144135378Y-107352013D01*
X144190891Y-107518889D01*
X144194538Y-107524911D01*
X144194539Y-107524913D01*
X144213361Y-107555991D01*
X144281994Y-107669319D01*
X144286883Y-107674382D01*
X144286884Y-107674383D01*
X144311555Y-107699930D01*
X144404162Y-107795827D01*
X144551321Y-107892125D01*
X144557925Y-107894581D01*
X144709555Y-107950972D01*
X144709557Y-107950973D01*
X144716157Y-107953427D01*
X144723138Y-107954358D01*
X144723140Y-107954359D01*
X144883498Y-107975756D01*
X144883502Y-107975756D01*
X144890479Y-107976687D01*
X144897490Y-107976049D01*
X144897494Y-107976049D01*
X145058601Y-107961387D01*
X145065622Y-107960748D01*
X145072324Y-107958570D01*
X145072326Y-107958570D01*
X145226183Y-107908579D01*
X145226186Y-107908578D01*
X145232882Y-107906402D01*
X145307026Y-107862203D01*
X145377889Y-107819961D01*
X145377892Y-107819959D01*
X145383944Y-107816351D01*
X145452709Y-107750866D01*
X145506198Y-107699930D01*
X145506200Y-107699928D01*
X145511302Y-107695069D01*
X145608625Y-107548586D01*
X145671077Y-107384182D01*
X145695552Y-107210026D01*
X145695860Y-107188000D01*
X145676256Y-107013229D01*
X145618420Y-106847145D01*
X145525224Y-106698001D01*
X145517890Y-106690615D01*
X145406266Y-106578209D01*
X145401303Y-106573211D01*
X145334049Y-106530530D01*
X145258756Y-106482748D01*
X145258752Y-106482746D01*
X145252813Y-106478977D01*
X145239448Y-106474218D01*
X145093772Y-106422345D01*
X145093767Y-106422344D01*
X145087137Y-106419983D01*
X145080149Y-106419150D01*
X145080146Y-106419149D01*
X144983237Y-106407593D01*
X144912507Y-106399159D01*
X144905504Y-106399895D01*
X144905503Y-106399895D01*
X144858434Y-106404842D01*
X144737604Y-106417542D01*
X144730938Y-106419811D01*
X144730935Y-106419812D01*
X144577787Y-106471948D01*
X144577784Y-106471949D01*
X144571120Y-106474218D01*
X144421329Y-106566370D01*
X144416298Y-106571296D01*
X144416295Y-106571299D01*
X144409239Y-106578209D01*
X144295677Y-106689417D01*
X144200409Y-106837245D01*
X144197998Y-106843869D01*
X144142669Y-106995883D01*
X144142668Y-106995888D01*
X144140259Y-107002506D01*
X144118217Y-107176986D01*
X124710500Y-107176986D01*
X124710500Y-105657679D01*
X149088653Y-105657679D01*
X149107673Y-105803135D01*
X149166754Y-105937407D01*
X149261145Y-106049699D01*
X149383260Y-106130985D01*
X149487520Y-106163558D01*
X149504738Y-106168937D01*
X149523280Y-106174730D01*
X149532252Y-106174894D01*
X149532255Y-106174895D01*
X149597937Y-106176099D01*
X149669950Y-106177419D01*
X149701060Y-106168937D01*
X149734204Y-106164500D01*
X161538496Y-106164500D01*
X161606617Y-106184502D01*
X161627591Y-106201405D01*
X162524515Y-107098329D01*
X162537624Y-107114838D01*
X162538754Y-107117407D01*
X162544526Y-107124273D01*
X162544528Y-107124277D01*
X162582956Y-107169992D01*
X162633145Y-107229699D01*
X162755260Y-107310985D01*
X162895280Y-107354730D01*
X162904252Y-107354894D01*
X162904255Y-107354895D01*
X162969937Y-107356099D01*
X163041950Y-107357419D01*
X163142464Y-107330015D01*
X163174816Y-107321195D01*
X163174817Y-107321195D01*
X163183479Y-107318833D01*
X163191126Y-107314138D01*
X163191130Y-107314136D01*
X163300843Y-107246772D01*
X163308490Y-107242077D01*
X163341074Y-107206079D01*
X163400910Y-107139972D01*
X163406932Y-107133319D01*
X163470894Y-107001302D01*
X163495232Y-106856641D01*
X163495386Y-106844000D01*
X163474590Y-106698787D01*
X163413873Y-106565248D01*
X163318117Y-106454117D01*
X163266211Y-106420473D01*
X163245655Y-106403841D01*
X162201534Y-105359720D01*
X162194068Y-105350376D01*
X162193678Y-105350708D01*
X162187860Y-105343872D01*
X162183070Y-105336280D01*
X162143399Y-105301244D01*
X162137712Y-105295898D01*
X162126494Y-105284680D01*
X162122905Y-105281990D01*
X162118316Y-105278550D01*
X162110477Y-105272168D01*
X162082339Y-105247318D01*
X162075612Y-105241377D01*
X162067489Y-105237563D01*
X162064336Y-105235492D01*
X162051324Y-105227673D01*
X162048005Y-105225856D01*
X162040824Y-105220474D01*
X161997261Y-105204143D01*
X161987947Y-105200217D01*
X161953966Y-105184263D01*
X161953963Y-105184262D01*
X161945837Y-105180447D01*
X161936963Y-105179065D01*
X161933350Y-105177961D01*
X161918693Y-105174115D01*
X161914990Y-105173301D01*
X161906580Y-105170148D01*
X161860157Y-105166698D01*
X161850144Y-105165548D01*
X161836991Y-105163500D01*
X161821796Y-105163500D01*
X161812459Y-105163154D01*
X161797036Y-105162008D01*
X161763608Y-105159524D01*
X161754832Y-105161397D01*
X161745875Y-105162008D01*
X161745875Y-105162002D01*
X161731682Y-105163500D01*
X149738372Y-105163500D01*
X149702270Y-105158217D01*
X149702145Y-105158180D01*
X149682475Y-105152297D01*
X149673499Y-105152242D01*
X149673498Y-105152242D01*
X149610277Y-105151856D01*
X149535783Y-105151401D01*
X149527151Y-105153868D01*
X149403367Y-105189245D01*
X149403365Y-105189246D01*
X149394736Y-105191712D01*
X149270672Y-105269991D01*
X149173565Y-105379943D01*
X149111221Y-105512731D01*
X149109840Y-105521603D01*
X149090034Y-105648806D01*
X149090034Y-105648809D01*
X149088653Y-105657679D01*
X124710500Y-105657679D01*
X124710500Y-103030862D01*
X149455497Y-103030862D01*
X149456737Y-103038078D01*
X149456737Y-103038080D01*
X149483894Y-103196125D01*
X149485134Y-103203340D01*
X149553654Y-103364373D01*
X149657383Y-103505324D01*
X149662961Y-103510063D01*
X149662964Y-103510066D01*
X149785176Y-103613893D01*
X149785180Y-103613896D01*
X149790755Y-103618632D01*
X149871572Y-103659899D01*
X149887687Y-103668128D01*
X149946616Y-103698219D01*
X149953721Y-103699958D01*
X149953725Y-103699959D01*
X150034858Y-103719811D01*
X150116606Y-103739815D01*
X150122206Y-103740162D01*
X150122210Y-103740163D01*
X150125709Y-103740380D01*
X150125718Y-103740380D01*
X150127648Y-103740500D01*
X150253822Y-103740500D01*
X150345369Y-103729827D01*
X150376556Y-103726191D01*
X150376558Y-103726191D01*
X150383828Y-103725343D01*
X150390705Y-103722847D01*
X150390708Y-103722846D01*
X150541452Y-103668128D01*
X150548331Y-103665631D01*
X150694685Y-103569677D01*
X150815040Y-103442628D01*
X150902939Y-103291298D01*
X150953667Y-103123807D01*
X150964503Y-102949138D01*
X150952373Y-102878542D01*
X150936106Y-102783875D01*
X150936105Y-102783873D01*
X150934866Y-102776660D01*
X150866346Y-102615627D01*
X150850873Y-102594601D01*
X150845586Y-102587417D01*
X150762617Y-102474676D01*
X150757039Y-102469937D01*
X150757036Y-102469934D01*
X150634824Y-102366107D01*
X150634820Y-102366104D01*
X150629245Y-102361368D01*
X150545062Y-102318382D01*
X150479900Y-102285108D01*
X150479898Y-102285107D01*
X150473384Y-102281781D01*
X150466279Y-102280042D01*
X150466275Y-102280041D01*
X150372741Y-102257154D01*
X150303394Y-102240185D01*
X150297794Y-102239838D01*
X150297790Y-102239837D01*
X150294291Y-102239620D01*
X150294282Y-102239620D01*
X150292352Y-102239500D01*
X150166178Y-102239500D01*
X150074631Y-102250173D01*
X150043444Y-102253809D01*
X150043442Y-102253809D01*
X150036172Y-102254657D01*
X150029295Y-102257153D01*
X150029292Y-102257154D01*
X149952281Y-102285108D01*
X149871669Y-102314369D01*
X149725315Y-102410323D01*
X149604960Y-102537372D01*
X149517061Y-102688702D01*
X149466333Y-102856193D01*
X149455497Y-103030862D01*
X124710500Y-103030862D01*
X124710500Y-102035963D01*
X152204757Y-102035963D01*
X152221175Y-102231483D01*
X152275258Y-102420091D01*
X152278076Y-102425574D01*
X152362123Y-102589113D01*
X152362126Y-102589117D01*
X152364944Y-102594601D01*
X152486818Y-102748369D01*
X152491511Y-102752363D01*
X152491512Y-102752364D01*
X152622095Y-102863498D01*
X152636238Y-102875535D01*
X152641616Y-102878541D01*
X152641618Y-102878542D01*
X152677932Y-102898837D01*
X152807513Y-102971257D01*
X152994118Y-103031889D01*
X153188946Y-103055121D01*
X153195081Y-103054649D01*
X153195083Y-103054649D01*
X153378434Y-103040541D01*
X153378438Y-103040540D01*
X153384576Y-103040068D01*
X153573556Y-102987303D01*
X153748689Y-102898837D01*
X153778515Y-102875535D01*
X153898453Y-102781829D01*
X153903303Y-102778040D01*
X153933084Y-102743539D01*
X154027485Y-102634173D01*
X154027485Y-102634172D01*
X154031509Y-102629511D01*
X154035572Y-102622360D01*
X154080255Y-102543703D01*
X154128425Y-102458909D01*
X154190358Y-102272732D01*
X154214949Y-102078071D01*
X154215341Y-102050000D01*
X154213965Y-102035963D01*
X158204757Y-102035963D01*
X158221175Y-102231483D01*
X158275258Y-102420091D01*
X158278076Y-102425574D01*
X158362123Y-102589113D01*
X158362126Y-102589117D01*
X158364944Y-102594601D01*
X158486818Y-102748369D01*
X158491511Y-102752363D01*
X158491512Y-102752364D01*
X158622095Y-102863498D01*
X158636238Y-102875535D01*
X158641616Y-102878541D01*
X158641618Y-102878542D01*
X158677932Y-102898837D01*
X158807513Y-102971257D01*
X158994118Y-103031889D01*
X159188946Y-103055121D01*
X159195081Y-103054649D01*
X159195083Y-103054649D01*
X159378434Y-103040541D01*
X159378438Y-103040540D01*
X159384576Y-103040068D01*
X159417548Y-103030862D01*
X161455497Y-103030862D01*
X161456737Y-103038078D01*
X161456737Y-103038080D01*
X161483894Y-103196125D01*
X161485134Y-103203340D01*
X161553654Y-103364373D01*
X161657383Y-103505324D01*
X161662961Y-103510063D01*
X161662964Y-103510066D01*
X161785176Y-103613893D01*
X161785180Y-103613896D01*
X161790755Y-103618632D01*
X161871572Y-103659899D01*
X161887687Y-103668128D01*
X161946616Y-103698219D01*
X161953721Y-103699958D01*
X161953725Y-103699959D01*
X162034858Y-103719811D01*
X162116606Y-103739815D01*
X162122206Y-103740162D01*
X162122210Y-103740163D01*
X162125709Y-103740380D01*
X162125718Y-103740380D01*
X162127648Y-103740500D01*
X162253822Y-103740500D01*
X162345369Y-103729827D01*
X162376556Y-103726191D01*
X162376558Y-103726191D01*
X162383828Y-103725343D01*
X162390705Y-103722847D01*
X162390708Y-103722846D01*
X162541452Y-103668128D01*
X162548331Y-103665631D01*
X162694685Y-103569677D01*
X162815040Y-103442628D01*
X162902939Y-103291298D01*
X162953667Y-103123807D01*
X162964503Y-102949138D01*
X162952373Y-102878542D01*
X162936106Y-102783875D01*
X162936105Y-102783873D01*
X162934866Y-102776660D01*
X162866346Y-102615627D01*
X162850873Y-102594601D01*
X162845586Y-102587417D01*
X162762617Y-102474676D01*
X162757039Y-102469937D01*
X162757036Y-102469934D01*
X162634824Y-102366107D01*
X162634820Y-102366104D01*
X162629245Y-102361368D01*
X162545062Y-102318382D01*
X162479900Y-102285108D01*
X162479898Y-102285107D01*
X162473384Y-102281781D01*
X162466279Y-102280042D01*
X162466275Y-102280041D01*
X162372741Y-102257154D01*
X162303394Y-102240185D01*
X162297794Y-102239838D01*
X162297790Y-102239837D01*
X162294291Y-102239620D01*
X162294282Y-102239620D01*
X162292352Y-102239500D01*
X162166178Y-102239500D01*
X162074631Y-102250173D01*
X162043444Y-102253809D01*
X162043442Y-102253809D01*
X162036172Y-102254657D01*
X162029295Y-102257153D01*
X162029292Y-102257154D01*
X161952281Y-102285108D01*
X161871669Y-102314369D01*
X161725315Y-102410323D01*
X161604960Y-102537372D01*
X161517061Y-102688702D01*
X161466333Y-102856193D01*
X161455497Y-103030862D01*
X159417548Y-103030862D01*
X159573556Y-102987303D01*
X159748689Y-102898837D01*
X159778515Y-102875535D01*
X159898453Y-102781829D01*
X159903303Y-102778040D01*
X159933084Y-102743539D01*
X160027485Y-102634173D01*
X160027485Y-102634172D01*
X160031509Y-102629511D01*
X160035572Y-102622360D01*
X160080255Y-102543703D01*
X160128425Y-102458909D01*
X160190358Y-102272732D01*
X160214949Y-102078071D01*
X160215341Y-102050000D01*
X160196194Y-101854728D01*
X160194413Y-101848829D01*
X160194412Y-101848824D01*
X160141265Y-101672793D01*
X160139484Y-101666894D01*
X160047370Y-101493653D01*
X159923361Y-101341602D01*
X159772180Y-101216535D01*
X159599585Y-101123213D01*
X159505868Y-101094203D01*
X159418039Y-101067015D01*
X159418036Y-101067014D01*
X159412152Y-101065193D01*
X159406027Y-101064549D01*
X159406026Y-101064549D01*
X159223147Y-101045327D01*
X159223146Y-101045327D01*
X159217019Y-101044683D01*
X159094383Y-101055844D01*
X159027759Y-101061907D01*
X159027758Y-101061907D01*
X159021618Y-101062466D01*
X159015704Y-101064207D01*
X159015702Y-101064207D01*
X158886734Y-101102165D01*
X158833393Y-101117864D01*
X158827928Y-101120721D01*
X158664972Y-101205912D01*
X158664968Y-101205915D01*
X158659512Y-101208767D01*
X158654712Y-101212627D01*
X158654711Y-101212627D01*
X158620326Y-101240273D01*
X158506600Y-101331711D01*
X158380480Y-101482016D01*
X158377516Y-101487408D01*
X158377513Y-101487412D01*
X158298813Y-101630567D01*
X158285956Y-101653954D01*
X158226628Y-101840978D01*
X158204757Y-102035963D01*
X154213965Y-102035963D01*
X154196194Y-101854728D01*
X154194413Y-101848829D01*
X154194412Y-101848824D01*
X154141265Y-101672793D01*
X154139484Y-101666894D01*
X154047370Y-101493653D01*
X153923361Y-101341602D01*
X153772180Y-101216535D01*
X153599585Y-101123213D01*
X153505868Y-101094203D01*
X153418039Y-101067015D01*
X153418036Y-101067014D01*
X153412152Y-101065193D01*
X153406027Y-101064549D01*
X153406026Y-101064549D01*
X153223147Y-101045327D01*
X153223146Y-101045327D01*
X153217019Y-101044683D01*
X153094383Y-101055844D01*
X153027759Y-101061907D01*
X153027758Y-101061907D01*
X153021618Y-101062466D01*
X153015704Y-101064207D01*
X153015702Y-101064207D01*
X152886734Y-101102165D01*
X152833393Y-101117864D01*
X152827928Y-101120721D01*
X152664972Y-101205912D01*
X152664968Y-101205915D01*
X152659512Y-101208767D01*
X152654712Y-101212627D01*
X152654711Y-101212627D01*
X152620326Y-101240273D01*
X152506600Y-101331711D01*
X152380480Y-101482016D01*
X152377516Y-101487408D01*
X152377513Y-101487412D01*
X152298813Y-101630567D01*
X152285956Y-101653954D01*
X152226628Y-101840978D01*
X152204757Y-102035963D01*
X124710500Y-102035963D01*
X124710500Y-99597376D01*
X152209500Y-99597376D01*
X152216149Y-99658579D01*
X152266474Y-99792823D01*
X152271854Y-99800002D01*
X152271856Y-99800005D01*
X152328463Y-99875535D01*
X152352454Y-99907546D01*
X152359634Y-99912927D01*
X152459995Y-99988144D01*
X152459998Y-99988146D01*
X152467177Y-99993526D01*
X152556562Y-100027034D01*
X152594026Y-100041079D01*
X152594028Y-100041079D01*
X152601421Y-100043851D01*
X152609271Y-100044704D01*
X152609272Y-100044704D01*
X152659227Y-100050131D01*
X152662624Y-100050500D01*
X153757376Y-100050500D01*
X153760773Y-100050131D01*
X153810728Y-100044704D01*
X153810729Y-100044704D01*
X153818579Y-100043851D01*
X153825972Y-100041079D01*
X153825974Y-100041079D01*
X153863438Y-100027034D01*
X153952823Y-99993526D01*
X153960002Y-99988146D01*
X153960005Y-99988144D01*
X154060366Y-99912927D01*
X154067546Y-99907546D01*
X154091537Y-99875535D01*
X154148144Y-99800005D01*
X154148146Y-99800002D01*
X154153526Y-99792823D01*
X154203851Y-99658579D01*
X154210500Y-99597376D01*
X154210500Y-99035963D01*
X155204757Y-99035963D01*
X155221175Y-99231483D01*
X155275258Y-99420091D01*
X155278076Y-99425574D01*
X155362123Y-99589113D01*
X155362126Y-99589117D01*
X155364944Y-99594601D01*
X155486818Y-99748369D01*
X155636238Y-99875535D01*
X155641616Y-99878541D01*
X155641618Y-99878542D01*
X155677932Y-99898837D01*
X155807513Y-99971257D01*
X155994118Y-100031889D01*
X156188946Y-100055121D01*
X156195081Y-100054649D01*
X156195083Y-100054649D01*
X156378434Y-100040541D01*
X156378438Y-100040540D01*
X156384576Y-100040068D01*
X156573556Y-99987303D01*
X156748689Y-99898837D01*
X156778515Y-99875535D01*
X156875189Y-99800005D01*
X156903303Y-99778040D01*
X156933084Y-99743539D01*
X157027485Y-99634173D01*
X157027485Y-99634172D01*
X157031509Y-99629511D01*
X157051706Y-99593959D01*
X157125378Y-99464272D01*
X157128425Y-99458909D01*
X157190358Y-99272732D01*
X157214949Y-99078071D01*
X157215341Y-99050000D01*
X157213965Y-99035963D01*
X158204757Y-99035963D01*
X158221175Y-99231483D01*
X158275258Y-99420091D01*
X158278076Y-99425574D01*
X158362123Y-99589113D01*
X158362126Y-99589117D01*
X158364944Y-99594601D01*
X158486818Y-99748369D01*
X158636238Y-99875535D01*
X158641616Y-99878541D01*
X158641618Y-99878542D01*
X158677932Y-99898837D01*
X158807513Y-99971257D01*
X158994118Y-100031889D01*
X159188946Y-100055121D01*
X159195081Y-100054649D01*
X159195083Y-100054649D01*
X159378434Y-100040541D01*
X159378438Y-100040540D01*
X159384576Y-100040068D01*
X159573556Y-99987303D01*
X159748689Y-99898837D01*
X159778515Y-99875535D01*
X159875189Y-99800005D01*
X159903303Y-99778040D01*
X159933084Y-99743539D01*
X160027485Y-99634173D01*
X160027485Y-99634172D01*
X160031509Y-99629511D01*
X160051706Y-99593959D01*
X160125378Y-99464272D01*
X160128425Y-99458909D01*
X160190358Y-99272732D01*
X160214949Y-99078071D01*
X160215341Y-99050000D01*
X160196194Y-98854728D01*
X160194413Y-98848829D01*
X160194412Y-98848824D01*
X160141265Y-98672793D01*
X160139484Y-98666894D01*
X160047370Y-98493653D01*
X159923361Y-98341602D01*
X159772180Y-98216535D01*
X159599585Y-98123213D01*
X159505868Y-98094203D01*
X159418039Y-98067015D01*
X159418036Y-98067014D01*
X159412152Y-98065193D01*
X159406027Y-98064549D01*
X159406026Y-98064549D01*
X159223147Y-98045327D01*
X159223146Y-98045327D01*
X159217019Y-98044683D01*
X159100403Y-98055296D01*
X159027759Y-98061907D01*
X159027758Y-98061907D01*
X159021618Y-98062466D01*
X159015704Y-98064207D01*
X159015702Y-98064207D01*
X158886734Y-98102165D01*
X158833393Y-98117864D01*
X158827928Y-98120721D01*
X158664972Y-98205912D01*
X158664968Y-98205915D01*
X158659512Y-98208767D01*
X158654712Y-98212627D01*
X158654711Y-98212627D01*
X158620326Y-98240273D01*
X158506600Y-98331711D01*
X158380480Y-98482016D01*
X158377516Y-98487408D01*
X158377513Y-98487412D01*
X158298813Y-98630567D01*
X158285956Y-98653954D01*
X158226628Y-98840978D01*
X158204757Y-99035963D01*
X157213965Y-99035963D01*
X157196194Y-98854728D01*
X157194413Y-98848829D01*
X157194412Y-98848824D01*
X157141265Y-98672793D01*
X157139484Y-98666894D01*
X157047370Y-98493653D01*
X156923361Y-98341602D01*
X156772180Y-98216535D01*
X156599585Y-98123213D01*
X156505868Y-98094203D01*
X156418039Y-98067015D01*
X156418036Y-98067014D01*
X156412152Y-98065193D01*
X156406027Y-98064549D01*
X156406026Y-98064549D01*
X156223147Y-98045327D01*
X156223146Y-98045327D01*
X156217019Y-98044683D01*
X156100403Y-98055296D01*
X156027759Y-98061907D01*
X156027758Y-98061907D01*
X156021618Y-98062466D01*
X156015704Y-98064207D01*
X156015702Y-98064207D01*
X155886734Y-98102165D01*
X155833393Y-98117864D01*
X155827928Y-98120721D01*
X155664972Y-98205912D01*
X155664968Y-98205915D01*
X155659512Y-98208767D01*
X155654712Y-98212627D01*
X155654711Y-98212627D01*
X155620326Y-98240273D01*
X155506600Y-98331711D01*
X155380480Y-98482016D01*
X155377516Y-98487408D01*
X155377513Y-98487412D01*
X155298813Y-98630567D01*
X155285956Y-98653954D01*
X155226628Y-98840978D01*
X155204757Y-99035963D01*
X154210500Y-99035963D01*
X154210500Y-98502624D01*
X154203851Y-98441421D01*
X154153526Y-98307177D01*
X154148146Y-98299998D01*
X154148144Y-98299995D01*
X154072927Y-98199634D01*
X154067546Y-98192454D01*
X154024503Y-98160195D01*
X153960005Y-98111856D01*
X153960002Y-98111854D01*
X153952823Y-98106474D01*
X153847565Y-98067015D01*
X153825974Y-98058921D01*
X153825972Y-98058921D01*
X153818579Y-98056149D01*
X153810729Y-98055296D01*
X153810728Y-98055296D01*
X153760773Y-98049869D01*
X153760772Y-98049869D01*
X153757376Y-98049500D01*
X152662624Y-98049500D01*
X152659228Y-98049869D01*
X152659227Y-98049869D01*
X152609272Y-98055296D01*
X152609271Y-98055296D01*
X152601421Y-98056149D01*
X152594028Y-98058921D01*
X152594026Y-98058921D01*
X152572435Y-98067015D01*
X152467177Y-98106474D01*
X152459998Y-98111854D01*
X152459995Y-98111856D01*
X152395497Y-98160195D01*
X152352454Y-98192454D01*
X152347073Y-98199634D01*
X152271856Y-98299995D01*
X152271854Y-98299998D01*
X152266474Y-98307177D01*
X152216149Y-98441421D01*
X152209500Y-98502624D01*
X152209500Y-99597376D01*
X124710500Y-99597376D01*
X124710500Y-94017085D01*
X124712921Y-93992504D01*
X124712987Y-93992172D01*
X124712987Y-93992171D01*
X124715408Y-93980000D01*
X124712987Y-93967829D01*
X124712987Y-93955418D01*
X124713026Y-93955418D01*
X124712235Y-93944690D01*
X124728559Y-93612395D01*
X124729771Y-93600089D01*
X124782866Y-93242150D01*
X124785278Y-93230022D01*
X124873204Y-92879005D01*
X124876793Y-92867173D01*
X124998700Y-92526465D01*
X125003432Y-92515041D01*
X125158147Y-92187924D01*
X125163976Y-92177019D01*
X125350011Y-91866639D01*
X125356881Y-91856358D01*
X125572438Y-91565713D01*
X125580282Y-91556155D01*
X125823291Y-91288035D01*
X125832035Y-91279291D01*
X126100155Y-91036282D01*
X126109713Y-91028438D01*
X126400358Y-90812881D01*
X126410639Y-90806011D01*
X126721019Y-90619976D01*
X126731924Y-90614147D01*
X127059041Y-90459432D01*
X127070465Y-90454700D01*
X127411173Y-90332793D01*
X127423005Y-90329204D01*
X127671834Y-90266875D01*
X127774025Y-90241277D01*
X127786147Y-90238867D01*
X128144094Y-90185770D01*
X128156390Y-90184559D01*
X128283163Y-90178332D01*
X128488690Y-90168235D01*
X128499418Y-90169026D01*
X128499418Y-90168987D01*
X128511829Y-90168987D01*
X128524000Y-90171408D01*
X128536171Y-90168987D01*
X128536172Y-90168987D01*
X128536504Y-90168921D01*
X128561085Y-90166500D01*
X154814000Y-90166500D01*
X154882121Y-90186502D01*
G37*
%TD.AperFunction*%
%TD*%
M02*
