M48
; DRILL file {KiCad (6.0.6)} date Wed Aug 10 17:59:34 2022
; FORMAT={-:-/ absolute / inch / decimal}
; #@! TF.CreationDate,2022-08-10T17:59:34-05:00
; #@! TF.GenerationSoftware,Kicad,Pcbnew,(6.0.6)
; #@! TF.FileFunction,Plated,1,4,PTH
FMAT,2
INCH
; #@! TA.AperFunction,Plated,PTH,ViaDrill
T1C0.0100
; #@! TA.AperFunction,Plated,PTH,ViaDrill
T2C0.0157
; #@! TA.AperFunction,Plated,PTH,ViaDrill
T3C0.0315
; #@! TA.AperFunction,Plated,PTH,ComponentDrill
T4C0.0394
; #@! TA.AperFunction,Plated,PTH,ComponentDrill
T5C0.0400
; #@! TA.AperFunction,Plated,PTH,ComponentDrill
T6C0.0402
; #@! TA.AperFunction,Plated,PTH,ComponentDrill
T7C0.0670
%
G90
G05
T1
X5.79Y-4.32
X5.85Y-4.47
X5.8575Y-4.7
X5.89Y-4.16
X5.972Y-4.326
X6.023Y-4.481
X6.03Y-4.51
X6.03Y-4.54
X6.147Y-4.528
X6.2Y-4.52
X6.21Y-4.71
X6.38Y-4.53
X6.39Y-4.45
X6.4165Y-4.2065
X6.42Y-4.38
X6.43Y-4.53
X6.59Y-4.63
X6.64Y-4.09
X6.73Y-4.25
X6.81Y-4.25
X6.95Y-4.35
X6.95Y-4.38
X6.95Y-4.41
X6.95Y-4.44
X6.9685Y-4.79
X7.05Y-4.67
X7.175Y-4.1
X7.175Y-4.5
X7.25Y-4.1
X7.25Y-4.5
T2
X6.74Y-4.32
X6.74Y-4.43
X6.77Y-4.37
X6.8Y-4.32
X6.8Y-4.43
T3
X5.705Y-4.22
X6.266Y-3.598
T4
X6.0319Y-3.8996
X6.0319Y-4.0177
X6.15Y-3.8996
X6.15Y-4.0177
X6.2681Y-3.8996
X6.2681Y-4.0177
T5
X6.747Y-3.7811
X6.747Y-3.9189
T6
X5.88Y-4.87
X5.9981Y-4.87
X6.1162Y-4.87
T7
X7.0585Y-3.6827
X7.0585Y-4.0173
T0
M30
