%TF.GenerationSoftware,KiCad,Pcbnew,(6.0.6)*%
%TF.CreationDate,2022-08-10T17:58:30-05:00*%
%TF.ProjectId,EFuse_Test,45467573-655f-4546-9573-742e6b696361,rev?*%
%TF.SameCoordinates,Original*%
%TF.FileFunction,Legend,Bot*%
%TF.FilePolarity,Positive*%
%FSLAX46Y46*%
G04 Gerber Fmt 4.6, Leading zero omitted, Abs format (unit mm)*
G04 Created by KiCad (PCBNEW (6.0.6)) date 2022-08-10 17:58:30*
%MOMM*%
%LPD*%
G01*
G04 APERTURE LIST*
%ADD10C,0.250000*%
%ADD11C,0.010000*%
G04 APERTURE END LIST*
D10*
X161479666Y-117639971D02*
X161813000Y-117639971D01*
X161813000Y-118163780D02*
X161813000Y-117163780D01*
X161336809Y-117163780D01*
X160955857Y-118163780D02*
X160955857Y-117497114D01*
X160955857Y-117687590D02*
X160908238Y-117592352D01*
X160860619Y-117544733D01*
X160765380Y-117497114D01*
X160670142Y-117497114D01*
X159908238Y-118163780D02*
X159908238Y-117639971D01*
X159955857Y-117544733D01*
X160051095Y-117497114D01*
X160241571Y-117497114D01*
X160336809Y-117544733D01*
X159908238Y-118116161D02*
X160003476Y-118163780D01*
X160241571Y-118163780D01*
X160336809Y-118116161D01*
X160384428Y-118020923D01*
X160384428Y-117925685D01*
X160336809Y-117830447D01*
X160241571Y-117782828D01*
X160003476Y-117782828D01*
X159908238Y-117735209D01*
X159432047Y-117497114D02*
X159432047Y-118163780D01*
X159432047Y-117592352D02*
X159384428Y-117544733D01*
X159289190Y-117497114D01*
X159146333Y-117497114D01*
X159051095Y-117544733D01*
X159003476Y-117639971D01*
X159003476Y-118163780D01*
X158098714Y-118116161D02*
X158193952Y-118163780D01*
X158384428Y-118163780D01*
X158479666Y-118116161D01*
X158527285Y-118068542D01*
X158574904Y-117973304D01*
X158574904Y-117687590D01*
X158527285Y-117592352D01*
X158479666Y-117544733D01*
X158384428Y-117497114D01*
X158193952Y-117497114D01*
X158098714Y-117544733D01*
X157670142Y-118163780D02*
X157670142Y-117497114D01*
X157670142Y-117163780D02*
X157717761Y-117211400D01*
X157670142Y-117259019D01*
X157622523Y-117211400D01*
X157670142Y-117163780D01*
X157670142Y-117259019D01*
X157241571Y-118116161D02*
X157146333Y-118163780D01*
X156955857Y-118163780D01*
X156860619Y-118116161D01*
X156813000Y-118020923D01*
X156813000Y-117973304D01*
X156860619Y-117878066D01*
X156955857Y-117830447D01*
X157098714Y-117830447D01*
X157193952Y-117782828D01*
X157241571Y-117687590D01*
X157241571Y-117639971D01*
X157193952Y-117544733D01*
X157098714Y-117497114D01*
X156955857Y-117497114D01*
X156860619Y-117544733D01*
X155955857Y-118116161D02*
X156051095Y-118163780D01*
X156241571Y-118163780D01*
X156336809Y-118116161D01*
X156384428Y-118068542D01*
X156432047Y-117973304D01*
X156432047Y-117687590D01*
X156384428Y-117592352D01*
X156336809Y-117544733D01*
X156241571Y-117497114D01*
X156051095Y-117497114D01*
X155955857Y-117544733D01*
X155384428Y-118163780D02*
X155479666Y-118116161D01*
X155527285Y-118068542D01*
X155574904Y-117973304D01*
X155574904Y-117687590D01*
X155527285Y-117592352D01*
X155479666Y-117544733D01*
X155384428Y-117497114D01*
X155241571Y-117497114D01*
X155146333Y-117544733D01*
X155098714Y-117592352D01*
X155051095Y-117687590D01*
X155051095Y-117973304D01*
X155098714Y-118068542D01*
X155146333Y-118116161D01*
X155241571Y-118163780D01*
X155384428Y-118163780D01*
X153527285Y-117639971D02*
X153860619Y-117639971D01*
X153860619Y-118163780D02*
X153860619Y-117163780D01*
X153384428Y-117163780D01*
X152574904Y-118163780D02*
X152574904Y-117639971D01*
X152622523Y-117544733D01*
X152717761Y-117497114D01*
X152908238Y-117497114D01*
X153003476Y-117544733D01*
X152574904Y-118116161D02*
X152670142Y-118163780D01*
X152908238Y-118163780D01*
X153003476Y-118116161D01*
X153051095Y-118020923D01*
X153051095Y-117925685D01*
X153003476Y-117830447D01*
X152908238Y-117782828D01*
X152670142Y-117782828D01*
X152574904Y-117735209D01*
X152098714Y-118163780D02*
X152098714Y-117163780D01*
X152098714Y-117544733D02*
X152003476Y-117497114D01*
X151813000Y-117497114D01*
X151717761Y-117544733D01*
X151670142Y-117592352D01*
X151622523Y-117687590D01*
X151622523Y-117973304D01*
X151670142Y-118068542D01*
X151717761Y-118116161D01*
X151813000Y-118163780D01*
X152003476Y-118163780D01*
X152098714Y-118116161D01*
X151193952Y-118163780D02*
X151193952Y-117497114D01*
X151193952Y-117687590D02*
X151146333Y-117592352D01*
X151098714Y-117544733D01*
X151003476Y-117497114D01*
X150908238Y-117497114D01*
X150193952Y-118116161D02*
X150289190Y-118163780D01*
X150479666Y-118163780D01*
X150574904Y-118116161D01*
X150622523Y-118020923D01*
X150622523Y-117639971D01*
X150574904Y-117544733D01*
X150479666Y-117497114D01*
X150289190Y-117497114D01*
X150193952Y-117544733D01*
X150146333Y-117639971D01*
X150146333Y-117735209D01*
X150622523Y-117830447D01*
X149289190Y-117497114D02*
X149289190Y-118306638D01*
X149336809Y-118401876D01*
X149384428Y-118449495D01*
X149479666Y-118497114D01*
X149622523Y-118497114D01*
X149717761Y-118449495D01*
X149289190Y-118116161D02*
X149384428Y-118163780D01*
X149574904Y-118163780D01*
X149670142Y-118116161D01*
X149717761Y-118068542D01*
X149765380Y-117973304D01*
X149765380Y-117687590D01*
X149717761Y-117592352D01*
X149670142Y-117544733D01*
X149574904Y-117497114D01*
X149384428Y-117497114D01*
X149289190Y-117544733D01*
X148384428Y-118163780D02*
X148384428Y-117639971D01*
X148432047Y-117544733D01*
X148527285Y-117497114D01*
X148717761Y-117497114D01*
X148813000Y-117544733D01*
X148384428Y-118116161D02*
X148479666Y-118163780D01*
X148717761Y-118163780D01*
X148813000Y-118116161D01*
X148860619Y-118020923D01*
X148860619Y-117925685D01*
X148813000Y-117830447D01*
X148717761Y-117782828D01*
X148479666Y-117782828D01*
X148384428Y-117735209D01*
X148051095Y-117497114D02*
X147670142Y-117497114D01*
X147908238Y-117163780D02*
X147908238Y-118020923D01*
X147860619Y-118116161D01*
X147765380Y-118163780D01*
X147670142Y-118163780D01*
X156527285Y-118869019D02*
X156479666Y-118821400D01*
X156384428Y-118773780D01*
X156146333Y-118773780D01*
X156051095Y-118821400D01*
X156003476Y-118869019D01*
X155955857Y-118964257D01*
X155955857Y-119059495D01*
X156003476Y-119202352D01*
X156574904Y-119773780D01*
X155955857Y-119773780D01*
X155336809Y-118773780D02*
X155241571Y-118773780D01*
X155146333Y-118821400D01*
X155098714Y-118869019D01*
X155051095Y-118964257D01*
X155003476Y-119154733D01*
X155003476Y-119392828D01*
X155051095Y-119583304D01*
X155098714Y-119678542D01*
X155146333Y-119726161D01*
X155241571Y-119773780D01*
X155336809Y-119773780D01*
X155432047Y-119726161D01*
X155479666Y-119678542D01*
X155527285Y-119583304D01*
X155574904Y-119392828D01*
X155574904Y-119154733D01*
X155527285Y-118964257D01*
X155479666Y-118869019D01*
X155432047Y-118821400D01*
X155336809Y-118773780D01*
X154622523Y-118869019D02*
X154574904Y-118821400D01*
X154479666Y-118773780D01*
X154241571Y-118773780D01*
X154146333Y-118821400D01*
X154098714Y-118869019D01*
X154051095Y-118964257D01*
X154051095Y-119059495D01*
X154098714Y-119202352D01*
X154670142Y-119773780D01*
X154051095Y-119773780D01*
X153670142Y-118869019D02*
X153622523Y-118821400D01*
X153527285Y-118773780D01*
X153289190Y-118773780D01*
X153193952Y-118821400D01*
X153146333Y-118869019D01*
X153098714Y-118964257D01*
X153098714Y-119059495D01*
X153146333Y-119202352D01*
X153717761Y-119773780D01*
X153098714Y-119773780D01*
%TO.C,G\u002A\u002A\u002A*%
G36*
X154354195Y-108710853D02*
G01*
X154394281Y-108730726D01*
X154394430Y-108730836D01*
X154421992Y-108752641D01*
X154461827Y-108786134D01*
X154511437Y-108829084D01*
X154568327Y-108879258D01*
X154630000Y-108934422D01*
X154693961Y-108992344D01*
X154757712Y-109050792D01*
X154818757Y-109107532D01*
X154874601Y-109160332D01*
X154888661Y-109173712D01*
X154937058Y-109218920D01*
X154981914Y-109259593D01*
X155020482Y-109293312D01*
X155050013Y-109317663D01*
X155067761Y-109330227D01*
X155102802Y-109349014D01*
X155166509Y-109311064D01*
X155183584Y-109301158D01*
X155219423Y-109283637D01*
X155251416Y-109274832D01*
X155288241Y-109271956D01*
X155311143Y-109271145D01*
X155336464Y-109267407D01*
X155352656Y-109258303D01*
X155366653Y-109241103D01*
X155366732Y-109240988D01*
X155397195Y-109211245D01*
X155433718Y-109198413D01*
X155471776Y-109204087D01*
X155478829Y-109208175D01*
X155501223Y-109228164D01*
X155529323Y-109259761D01*
X155559543Y-109299086D01*
X155621082Y-109382505D01*
X155737961Y-109529656D01*
X155858045Y-109667149D01*
X155978396Y-109791695D01*
X156096074Y-109900001D01*
X156220160Y-110006583D01*
X156227528Y-109963811D01*
X156241389Y-109924466D01*
X156266504Y-109894590D01*
X156298476Y-109878010D01*
X156333195Y-109876816D01*
X156366548Y-109893100D01*
X156378510Y-109909329D01*
X156395097Y-109940631D01*
X156414210Y-109982752D01*
X156433802Y-110031481D01*
X156451849Y-110077507D01*
X156475072Y-110133157D01*
X156497544Y-110183708D01*
X156516229Y-110222138D01*
X156523226Y-110234908D01*
X156547912Y-110274274D01*
X156575356Y-110311683D01*
X156602313Y-110343235D01*
X156625538Y-110365028D01*
X156641789Y-110373160D01*
X156645491Y-110369634D01*
X156650142Y-110351111D01*
X156651960Y-110322022D01*
X156653445Y-110300755D01*
X156663240Y-110257467D01*
X156679842Y-110215366D01*
X156700484Y-110180812D01*
X156722399Y-110160164D01*
X156755336Y-110150639D01*
X156792529Y-110153014D01*
X156822651Y-110167420D01*
X156829990Y-110176199D01*
X156846870Y-110201646D01*
X156869564Y-110239307D01*
X156896033Y-110285765D01*
X156924234Y-110337600D01*
X156942482Y-110371828D01*
X156970915Y-110424840D01*
X156996622Y-110472399D01*
X157017346Y-110510334D01*
X157030828Y-110534477D01*
X157056381Y-110578955D01*
X157068121Y-110522404D01*
X157087583Y-110460987D01*
X157119776Y-110409957D01*
X157162834Y-110375084D01*
X157215840Y-110357390D01*
X157229436Y-110356086D01*
X157259278Y-110359694D01*
X157287990Y-110373737D01*
X157316787Y-110399705D01*
X157346887Y-110439083D01*
X157379506Y-110493359D01*
X157415859Y-110564023D01*
X157457164Y-110652560D01*
X157465312Y-110670166D01*
X157485581Y-110711853D01*
X157510591Y-110761398D01*
X157538789Y-110815917D01*
X157568623Y-110872525D01*
X157598539Y-110928338D01*
X157626986Y-110980472D01*
X157652412Y-111026041D01*
X157673263Y-111062162D01*
X157687987Y-111085949D01*
X157695032Y-111094520D01*
X157696402Y-111088994D01*
X157696172Y-111066592D01*
X157693882Y-111030250D01*
X157689812Y-110983510D01*
X157684242Y-110929908D01*
X157677454Y-110872986D01*
X157674120Y-110835777D01*
X157676883Y-110786954D01*
X157690696Y-110753733D01*
X157716271Y-110734780D01*
X157754321Y-110728760D01*
X157754508Y-110728760D01*
X157787320Y-110733146D01*
X157810775Y-110749077D01*
X157831160Y-110780813D01*
X157831554Y-110781584D01*
X157846673Y-110806522D01*
X157862511Y-110817651D01*
X157886399Y-110820200D01*
X157889709Y-110820292D01*
X157905061Y-110823158D01*
X157924179Y-110831148D01*
X157949489Y-110845767D01*
X157983419Y-110868519D01*
X158028398Y-110900909D01*
X158086853Y-110944443D01*
X158124027Y-110972583D01*
X158267264Y-111085064D01*
X158398732Y-111194965D01*
X158517109Y-111301069D01*
X158621073Y-111402155D01*
X158709304Y-111497005D01*
X158780480Y-111584400D01*
X158803720Y-111614353D01*
X158825216Y-111637653D01*
X158842666Y-111649434D01*
X158859725Y-111652856D01*
X158886868Y-111657215D01*
X158917383Y-111668426D01*
X158928337Y-111675690D01*
X158957045Y-111703160D01*
X158993931Y-111746767D01*
X159038142Y-111805277D01*
X159088824Y-111877455D01*
X159145122Y-111962067D01*
X159206183Y-112057878D01*
X159271152Y-112163654D01*
X159339176Y-112278160D01*
X159365880Y-112323535D01*
X159412965Y-112401498D01*
X159453023Y-112464309D01*
X159487549Y-112513923D01*
X159518037Y-112552291D01*
X159545980Y-112581369D01*
X159572872Y-112603108D01*
X159600207Y-112619462D01*
X159610505Y-112625359D01*
X159634062Y-112648308D01*
X159639665Y-112673666D01*
X159626300Y-112698372D01*
X159607134Y-112706521D01*
X159575575Y-112703505D01*
X159537320Y-112689022D01*
X159496740Y-112664224D01*
X159464143Y-112638453D01*
X159420383Y-112597558D01*
X159375143Y-112547540D01*
X159326542Y-112486127D01*
X159272697Y-112411046D01*
X159211725Y-112320023D01*
X159193648Y-112292455D01*
X159159352Y-112240774D01*
X159129592Y-112196739D01*
X159105988Y-112162707D01*
X159090163Y-112141034D01*
X159083738Y-112134075D01*
X159083362Y-112136381D01*
X159085542Y-112153924D01*
X159091464Y-112184494D01*
X159100247Y-112223329D01*
X159106566Y-112250340D01*
X159116556Y-112300108D01*
X159120086Y-112336028D01*
X159116923Y-112361946D01*
X159106832Y-112381713D01*
X159089581Y-112399176D01*
X159087315Y-112401053D01*
X159053166Y-112421195D01*
X159020985Y-112423384D01*
X158989667Y-112407067D01*
X158958107Y-112371687D01*
X158925200Y-112316690D01*
X158899464Y-112263117D01*
X158862288Y-112169530D01*
X158831634Y-112072237D01*
X158810782Y-111980866D01*
X158808827Y-111970297D01*
X158798298Y-111925321D01*
X158785776Y-111885253D01*
X158773563Y-111857715D01*
X158752799Y-111825616D01*
X158717059Y-111775265D01*
X158673790Y-111717903D01*
X158626440Y-111657971D01*
X158578458Y-111599912D01*
X158533291Y-111548168D01*
X158509138Y-111522156D01*
X158468873Y-111480739D01*
X158424329Y-111436623D01*
X158378571Y-111392694D01*
X158334667Y-111351838D01*
X158295681Y-111316941D01*
X158264679Y-111290887D01*
X158244729Y-111276564D01*
X158240190Y-111276973D01*
X158242764Y-111291479D01*
X158255216Y-111322372D01*
X158277749Y-111370222D01*
X158304719Y-111429077D01*
X158321143Y-111475375D01*
X158326982Y-111511113D01*
X158322735Y-111539388D01*
X158308902Y-111563294D01*
X158299786Y-111573216D01*
X158284916Y-111581962D01*
X158262554Y-111585318D01*
X158226339Y-111584953D01*
X158175987Y-111577790D01*
X158124958Y-111557830D01*
X158074846Y-111523807D01*
X158024017Y-111474355D01*
X157970836Y-111408108D01*
X157913667Y-111323700D01*
X157855920Y-111232841D01*
X157849123Y-111287957D01*
X157844585Y-111312073D01*
X157826577Y-111353354D01*
X157798736Y-111379822D01*
X157763035Y-111389160D01*
X157758981Y-111388641D01*
X157736475Y-111377900D01*
X157705924Y-111355918D01*
X157671225Y-111326197D01*
X157636274Y-111292243D01*
X157604968Y-111257558D01*
X157581202Y-111225646D01*
X157565303Y-111199567D01*
X157538678Y-111153556D01*
X157506122Y-111095562D01*
X157469477Y-111028964D01*
X157430584Y-110957142D01*
X157391285Y-110883475D01*
X157353420Y-110811343D01*
X157318832Y-110744126D01*
X157236160Y-110581440D01*
X157233105Y-110672880D01*
X157232834Y-110683306D01*
X157233247Y-110735073D01*
X157236038Y-110785896D01*
X157240725Y-110826112D01*
X157247122Y-110866158D01*
X157250219Y-110901023D01*
X157247489Y-110925406D01*
X157238220Y-110944431D01*
X157221702Y-110963221D01*
X157221625Y-110963298D01*
X157186228Y-110987178D01*
X157148731Y-110992185D01*
X157112511Y-110977867D01*
X157103958Y-110969765D01*
X157083654Y-110944925D01*
X157056463Y-110907794D01*
X157024489Y-110861507D01*
X156989835Y-110809197D01*
X156954604Y-110754000D01*
X156920899Y-110699049D01*
X156890823Y-110647480D01*
X156885407Y-110637880D01*
X156857447Y-110588380D01*
X156837563Y-110553946D01*
X156824006Y-110532372D01*
X156815025Y-110521455D01*
X156808872Y-110518991D01*
X156803797Y-110522775D01*
X156798051Y-110530603D01*
X156794248Y-110535504D01*
X156759303Y-110564904D01*
X156715890Y-110582504D01*
X156670535Y-110586568D01*
X156629769Y-110575358D01*
X156604973Y-110559996D01*
X156566065Y-110531679D01*
X156523616Y-110497566D01*
X156483553Y-110462461D01*
X156451805Y-110431166D01*
X156448207Y-110427156D01*
X156421921Y-110393587D01*
X156393155Y-110351273D01*
X156367519Y-110308385D01*
X156358091Y-110291383D01*
X156339168Y-110259695D01*
X156324713Y-110241382D01*
X156311522Y-110232953D01*
X156296389Y-110230920D01*
X156274078Y-110227180D01*
X156240063Y-110216669D01*
X156202788Y-110201762D01*
X156193629Y-110197379D01*
X156146995Y-110169253D01*
X156090301Y-110127599D01*
X156025621Y-110074368D01*
X155955027Y-110011511D01*
X155880593Y-109940981D01*
X155804391Y-109864726D01*
X155728495Y-109784700D01*
X155654977Y-109702853D01*
X155585910Y-109621135D01*
X155490882Y-109504770D01*
X155393656Y-109477589D01*
X155296431Y-109450407D01*
X155224029Y-109490143D01*
X155207138Y-109499091D01*
X155163477Y-109518244D01*
X155122403Y-109528708D01*
X155081921Y-109529656D01*
X155040039Y-109520260D01*
X154994762Y-109499694D01*
X154944097Y-109467129D01*
X154886051Y-109421738D01*
X154818629Y-109362694D01*
X154739838Y-109289169D01*
X154687360Y-109239646D01*
X154619586Y-109176517D01*
X154547592Y-109110152D01*
X154477197Y-109045913D01*
X154414220Y-108989161D01*
X154360109Y-108940697D01*
X154318199Y-108902608D01*
X154287820Y-108873859D01*
X154267119Y-108852355D01*
X154254243Y-108836005D01*
X154247340Y-108822716D01*
X154244557Y-108810396D01*
X154244040Y-108796952D01*
X154244560Y-108785925D01*
X154256535Y-108747422D01*
X154281408Y-108720926D01*
X154315266Y-108708161D01*
X154354195Y-108710853D01*
G37*
D11*
X154354195Y-108710853D02*
X154394281Y-108730726D01*
X154394430Y-108730836D01*
X154421992Y-108752641D01*
X154461827Y-108786134D01*
X154511437Y-108829084D01*
X154568327Y-108879258D01*
X154630000Y-108934422D01*
X154693961Y-108992344D01*
X154757712Y-109050792D01*
X154818757Y-109107532D01*
X154874601Y-109160332D01*
X154888661Y-109173712D01*
X154937058Y-109218920D01*
X154981914Y-109259593D01*
X155020482Y-109293312D01*
X155050013Y-109317663D01*
X155067761Y-109330227D01*
X155102802Y-109349014D01*
X155166509Y-109311064D01*
X155183584Y-109301158D01*
X155219423Y-109283637D01*
X155251416Y-109274832D01*
X155288241Y-109271956D01*
X155311143Y-109271145D01*
X155336464Y-109267407D01*
X155352656Y-109258303D01*
X155366653Y-109241103D01*
X155366732Y-109240988D01*
X155397195Y-109211245D01*
X155433718Y-109198413D01*
X155471776Y-109204087D01*
X155478829Y-109208175D01*
X155501223Y-109228164D01*
X155529323Y-109259761D01*
X155559543Y-109299086D01*
X155621082Y-109382505D01*
X155737961Y-109529656D01*
X155858045Y-109667149D01*
X155978396Y-109791695D01*
X156096074Y-109900001D01*
X156220160Y-110006583D01*
X156227528Y-109963811D01*
X156241389Y-109924466D01*
X156266504Y-109894590D01*
X156298476Y-109878010D01*
X156333195Y-109876816D01*
X156366548Y-109893100D01*
X156378510Y-109909329D01*
X156395097Y-109940631D01*
X156414210Y-109982752D01*
X156433802Y-110031481D01*
X156451849Y-110077507D01*
X156475072Y-110133157D01*
X156497544Y-110183708D01*
X156516229Y-110222138D01*
X156523226Y-110234908D01*
X156547912Y-110274274D01*
X156575356Y-110311683D01*
X156602313Y-110343235D01*
X156625538Y-110365028D01*
X156641789Y-110373160D01*
X156645491Y-110369634D01*
X156650142Y-110351111D01*
X156651960Y-110322022D01*
X156653445Y-110300755D01*
X156663240Y-110257467D01*
X156679842Y-110215366D01*
X156700484Y-110180812D01*
X156722399Y-110160164D01*
X156755336Y-110150639D01*
X156792529Y-110153014D01*
X156822651Y-110167420D01*
X156829990Y-110176199D01*
X156846870Y-110201646D01*
X156869564Y-110239307D01*
X156896033Y-110285765D01*
X156924234Y-110337600D01*
X156942482Y-110371828D01*
X156970915Y-110424840D01*
X156996622Y-110472399D01*
X157017346Y-110510334D01*
X157030828Y-110534477D01*
X157056381Y-110578955D01*
X157068121Y-110522404D01*
X157087583Y-110460987D01*
X157119776Y-110409957D01*
X157162834Y-110375084D01*
X157215840Y-110357390D01*
X157229436Y-110356086D01*
X157259278Y-110359694D01*
X157287990Y-110373737D01*
X157316787Y-110399705D01*
X157346887Y-110439083D01*
X157379506Y-110493359D01*
X157415859Y-110564023D01*
X157457164Y-110652560D01*
X157465312Y-110670166D01*
X157485581Y-110711853D01*
X157510591Y-110761398D01*
X157538789Y-110815917D01*
X157568623Y-110872525D01*
X157598539Y-110928338D01*
X157626986Y-110980472D01*
X157652412Y-111026041D01*
X157673263Y-111062162D01*
X157687987Y-111085949D01*
X157695032Y-111094520D01*
X157696402Y-111088994D01*
X157696172Y-111066592D01*
X157693882Y-111030250D01*
X157689812Y-110983510D01*
X157684242Y-110929908D01*
X157677454Y-110872986D01*
X157674120Y-110835777D01*
X157676883Y-110786954D01*
X157690696Y-110753733D01*
X157716271Y-110734780D01*
X157754321Y-110728760D01*
X157754508Y-110728760D01*
X157787320Y-110733146D01*
X157810775Y-110749077D01*
X157831160Y-110780813D01*
X157831554Y-110781584D01*
X157846673Y-110806522D01*
X157862511Y-110817651D01*
X157886399Y-110820200D01*
X157889709Y-110820292D01*
X157905061Y-110823158D01*
X157924179Y-110831148D01*
X157949489Y-110845767D01*
X157983419Y-110868519D01*
X158028398Y-110900909D01*
X158086853Y-110944443D01*
X158124027Y-110972583D01*
X158267264Y-111085064D01*
X158398732Y-111194965D01*
X158517109Y-111301069D01*
X158621073Y-111402155D01*
X158709304Y-111497005D01*
X158780480Y-111584400D01*
X158803720Y-111614353D01*
X158825216Y-111637653D01*
X158842666Y-111649434D01*
X158859725Y-111652856D01*
X158886868Y-111657215D01*
X158917383Y-111668426D01*
X158928337Y-111675690D01*
X158957045Y-111703160D01*
X158993931Y-111746767D01*
X159038142Y-111805277D01*
X159088824Y-111877455D01*
X159145122Y-111962067D01*
X159206183Y-112057878D01*
X159271152Y-112163654D01*
X159339176Y-112278160D01*
X159365880Y-112323535D01*
X159412965Y-112401498D01*
X159453023Y-112464309D01*
X159487549Y-112513923D01*
X159518037Y-112552291D01*
X159545980Y-112581369D01*
X159572872Y-112603108D01*
X159600207Y-112619462D01*
X159610505Y-112625359D01*
X159634062Y-112648308D01*
X159639665Y-112673666D01*
X159626300Y-112698372D01*
X159607134Y-112706521D01*
X159575575Y-112703505D01*
X159537320Y-112689022D01*
X159496740Y-112664224D01*
X159464143Y-112638453D01*
X159420383Y-112597558D01*
X159375143Y-112547540D01*
X159326542Y-112486127D01*
X159272697Y-112411046D01*
X159211725Y-112320023D01*
X159193648Y-112292455D01*
X159159352Y-112240774D01*
X159129592Y-112196739D01*
X159105988Y-112162707D01*
X159090163Y-112141034D01*
X159083738Y-112134075D01*
X159083362Y-112136381D01*
X159085542Y-112153924D01*
X159091464Y-112184494D01*
X159100247Y-112223329D01*
X159106566Y-112250340D01*
X159116556Y-112300108D01*
X159120086Y-112336028D01*
X159116923Y-112361946D01*
X159106832Y-112381713D01*
X159089581Y-112399176D01*
X159087315Y-112401053D01*
X159053166Y-112421195D01*
X159020985Y-112423384D01*
X158989667Y-112407067D01*
X158958107Y-112371687D01*
X158925200Y-112316690D01*
X158899464Y-112263117D01*
X158862288Y-112169530D01*
X158831634Y-112072237D01*
X158810782Y-111980866D01*
X158808827Y-111970297D01*
X158798298Y-111925321D01*
X158785776Y-111885253D01*
X158773563Y-111857715D01*
X158752799Y-111825616D01*
X158717059Y-111775265D01*
X158673790Y-111717903D01*
X158626440Y-111657971D01*
X158578458Y-111599912D01*
X158533291Y-111548168D01*
X158509138Y-111522156D01*
X158468873Y-111480739D01*
X158424329Y-111436623D01*
X158378571Y-111392694D01*
X158334667Y-111351838D01*
X158295681Y-111316941D01*
X158264679Y-111290887D01*
X158244729Y-111276564D01*
X158240190Y-111276973D01*
X158242764Y-111291479D01*
X158255216Y-111322372D01*
X158277749Y-111370222D01*
X158304719Y-111429077D01*
X158321143Y-111475375D01*
X158326982Y-111511113D01*
X158322735Y-111539388D01*
X158308902Y-111563294D01*
X158299786Y-111573216D01*
X158284916Y-111581962D01*
X158262554Y-111585318D01*
X158226339Y-111584953D01*
X158175987Y-111577790D01*
X158124958Y-111557830D01*
X158074846Y-111523807D01*
X158024017Y-111474355D01*
X157970836Y-111408108D01*
X157913667Y-111323700D01*
X157855920Y-111232841D01*
X157849123Y-111287957D01*
X157844585Y-111312073D01*
X157826577Y-111353354D01*
X157798736Y-111379822D01*
X157763035Y-111389160D01*
X157758981Y-111388641D01*
X157736475Y-111377900D01*
X157705924Y-111355918D01*
X157671225Y-111326197D01*
X157636274Y-111292243D01*
X157604968Y-111257558D01*
X157581202Y-111225646D01*
X157565303Y-111199567D01*
X157538678Y-111153556D01*
X157506122Y-111095562D01*
X157469477Y-111028964D01*
X157430584Y-110957142D01*
X157391285Y-110883475D01*
X157353420Y-110811343D01*
X157318832Y-110744126D01*
X157236160Y-110581440D01*
X157233105Y-110672880D01*
X157232834Y-110683306D01*
X157233247Y-110735073D01*
X157236038Y-110785896D01*
X157240725Y-110826112D01*
X157247122Y-110866158D01*
X157250219Y-110901023D01*
X157247489Y-110925406D01*
X157238220Y-110944431D01*
X157221702Y-110963221D01*
X157221625Y-110963298D01*
X157186228Y-110987178D01*
X157148731Y-110992185D01*
X157112511Y-110977867D01*
X157103958Y-110969765D01*
X157083654Y-110944925D01*
X157056463Y-110907794D01*
X157024489Y-110861507D01*
X156989835Y-110809197D01*
X156954604Y-110754000D01*
X156920899Y-110699049D01*
X156890823Y-110647480D01*
X156885407Y-110637880D01*
X156857447Y-110588380D01*
X156837563Y-110553946D01*
X156824006Y-110532372D01*
X156815025Y-110521455D01*
X156808872Y-110518991D01*
X156803797Y-110522775D01*
X156798051Y-110530603D01*
X156794248Y-110535504D01*
X156759303Y-110564904D01*
X156715890Y-110582504D01*
X156670535Y-110586568D01*
X156629769Y-110575358D01*
X156604973Y-110559996D01*
X156566065Y-110531679D01*
X156523616Y-110497566D01*
X156483553Y-110462461D01*
X156451805Y-110431166D01*
X156448207Y-110427156D01*
X156421921Y-110393587D01*
X156393155Y-110351273D01*
X156367519Y-110308385D01*
X156358091Y-110291383D01*
X156339168Y-110259695D01*
X156324713Y-110241382D01*
X156311522Y-110232953D01*
X156296389Y-110230920D01*
X156274078Y-110227180D01*
X156240063Y-110216669D01*
X156202788Y-110201762D01*
X156193629Y-110197379D01*
X156146995Y-110169253D01*
X156090301Y-110127599D01*
X156025621Y-110074368D01*
X155955027Y-110011511D01*
X155880593Y-109940981D01*
X155804391Y-109864726D01*
X155728495Y-109784700D01*
X155654977Y-109702853D01*
X155585910Y-109621135D01*
X155490882Y-109504770D01*
X155393656Y-109477589D01*
X155296431Y-109450407D01*
X155224029Y-109490143D01*
X155207138Y-109499091D01*
X155163477Y-109518244D01*
X155122403Y-109528708D01*
X155081921Y-109529656D01*
X155040039Y-109520260D01*
X154994762Y-109499694D01*
X154944097Y-109467129D01*
X154886051Y-109421738D01*
X154818629Y-109362694D01*
X154739838Y-109289169D01*
X154687360Y-109239646D01*
X154619586Y-109176517D01*
X154547592Y-109110152D01*
X154477197Y-109045913D01*
X154414220Y-108989161D01*
X154360109Y-108940697D01*
X154318199Y-108902608D01*
X154287820Y-108873859D01*
X154267119Y-108852355D01*
X154254243Y-108836005D01*
X154247340Y-108822716D01*
X154244557Y-108810396D01*
X154244040Y-108796952D01*
X154244560Y-108785925D01*
X154256535Y-108747422D01*
X154281408Y-108720926D01*
X154315266Y-108708161D01*
X154354195Y-108710853D01*
G36*
X156693508Y-112015662D02*
G01*
X156731131Y-112027146D01*
X156732435Y-112027568D01*
X156792506Y-112050049D01*
X156861728Y-112081652D01*
X156941198Y-112122999D01*
X157032012Y-112174715D01*
X157135266Y-112237424D01*
X157252057Y-112311748D01*
X157383480Y-112398313D01*
X157429869Y-112429477D01*
X157488533Y-112469478D01*
X157548738Y-112511262D01*
X157612312Y-112556148D01*
X157681078Y-112605457D01*
X157756862Y-112660507D01*
X157841489Y-112722619D01*
X157936785Y-112793111D01*
X158044575Y-112873304D01*
X158166684Y-112964516D01*
X158205462Y-112993555D01*
X158292326Y-113058912D01*
X158365577Y-113114626D01*
X158427234Y-113162349D01*
X158479317Y-113203730D01*
X158523844Y-113240420D01*
X158562835Y-113274069D01*
X158598309Y-113306327D01*
X158632285Y-113338846D01*
X158666782Y-113373275D01*
X158692209Y-113399350D01*
X158755708Y-113467972D01*
X158803322Y-113525744D01*
X158835509Y-113573418D01*
X158852728Y-113611744D01*
X158855438Y-113641473D01*
X158844099Y-113663357D01*
X158836609Y-113669375D01*
X158813810Y-113673022D01*
X158789688Y-113657749D01*
X158765861Y-113624360D01*
X158760505Y-113615101D01*
X158733433Y-113577277D01*
X158695168Y-113535062D01*
X158644621Y-113487528D01*
X158580707Y-113433750D01*
X158502337Y-113372801D01*
X158408424Y-113303754D01*
X158297880Y-113225684D01*
X158297624Y-113225506D01*
X158241183Y-113186016D01*
X158172562Y-113137609D01*
X158095997Y-113083298D01*
X158015724Y-113026094D01*
X157935980Y-112969011D01*
X157861000Y-112915059D01*
X157700491Y-112800454D01*
X157545130Y-112692032D01*
X157396906Y-112591131D01*
X157256890Y-112498425D01*
X157126150Y-112414586D01*
X157005757Y-112340289D01*
X156896779Y-112276206D01*
X156800286Y-112223011D01*
X156717348Y-112181378D01*
X156649035Y-112151978D01*
X156621344Y-112135424D01*
X156601355Y-112107345D01*
X156596474Y-112075215D01*
X156607274Y-112044185D01*
X156634324Y-112019404D01*
X156636534Y-112018176D01*
X156652077Y-112011646D01*
X156669112Y-112010652D01*
X156693508Y-112015662D01*
G37*
X156693508Y-112015662D02*
X156731131Y-112027146D01*
X156732435Y-112027568D01*
X156792506Y-112050049D01*
X156861728Y-112081652D01*
X156941198Y-112122999D01*
X157032012Y-112174715D01*
X157135266Y-112237424D01*
X157252057Y-112311748D01*
X157383480Y-112398313D01*
X157429869Y-112429477D01*
X157488533Y-112469478D01*
X157548738Y-112511262D01*
X157612312Y-112556148D01*
X157681078Y-112605457D01*
X157756862Y-112660507D01*
X157841489Y-112722619D01*
X157936785Y-112793111D01*
X158044575Y-112873304D01*
X158166684Y-112964516D01*
X158205462Y-112993555D01*
X158292326Y-113058912D01*
X158365577Y-113114626D01*
X158427234Y-113162349D01*
X158479317Y-113203730D01*
X158523844Y-113240420D01*
X158562835Y-113274069D01*
X158598309Y-113306327D01*
X158632285Y-113338846D01*
X158666782Y-113373275D01*
X158692209Y-113399350D01*
X158755708Y-113467972D01*
X158803322Y-113525744D01*
X158835509Y-113573418D01*
X158852728Y-113611744D01*
X158855438Y-113641473D01*
X158844099Y-113663357D01*
X158836609Y-113669375D01*
X158813810Y-113673022D01*
X158789688Y-113657749D01*
X158765861Y-113624360D01*
X158760505Y-113615101D01*
X158733433Y-113577277D01*
X158695168Y-113535062D01*
X158644621Y-113487528D01*
X158580707Y-113433750D01*
X158502337Y-113372801D01*
X158408424Y-113303754D01*
X158297880Y-113225684D01*
X158297624Y-113225506D01*
X158241183Y-113186016D01*
X158172562Y-113137609D01*
X158095997Y-113083298D01*
X158015724Y-113026094D01*
X157935980Y-112969011D01*
X157861000Y-112915059D01*
X157700491Y-112800454D01*
X157545130Y-112692032D01*
X157396906Y-112591131D01*
X157256890Y-112498425D01*
X157126150Y-112414586D01*
X157005757Y-112340289D01*
X156896779Y-112276206D01*
X156800286Y-112223011D01*
X156717348Y-112181378D01*
X156649035Y-112151978D01*
X156621344Y-112135424D01*
X156601355Y-112107345D01*
X156596474Y-112075215D01*
X156607274Y-112044185D01*
X156634324Y-112019404D01*
X156636534Y-112018176D01*
X156652077Y-112011646D01*
X156669112Y-112010652D01*
X156693508Y-112015662D01*
G36*
X150098363Y-106725924D02*
G01*
X150120766Y-106732973D01*
X150157858Y-106749209D01*
X150207426Y-106773459D01*
X150267255Y-106804551D01*
X150335129Y-106841313D01*
X150408832Y-106882573D01*
X150486151Y-106927158D01*
X150564870Y-106973897D01*
X150635058Y-107016591D01*
X150729019Y-107074559D01*
X150837440Y-107142139D01*
X150959005Y-107218479D01*
X151092398Y-107302730D01*
X151236302Y-107394041D01*
X151389402Y-107491562D01*
X151550380Y-107594444D01*
X151717922Y-107701835D01*
X151890709Y-107812885D01*
X152067426Y-107926745D01*
X152246757Y-108042564D01*
X152427386Y-108159492D01*
X152607996Y-108276678D01*
X152787270Y-108393273D01*
X152963893Y-108508425D01*
X153136548Y-108621286D01*
X153303919Y-108731004D01*
X153464689Y-108836730D01*
X153617543Y-108937612D01*
X153761164Y-109032802D01*
X153894235Y-109121449D01*
X154015440Y-109202701D01*
X154244625Y-109357452D01*
X154675726Y-109651625D01*
X155090218Y-109938731D01*
X155489334Y-110219689D01*
X155874302Y-110495420D01*
X156246356Y-110766843D01*
X156606726Y-111034879D01*
X156956643Y-111300448D01*
X157297338Y-111564469D01*
X157630042Y-111827864D01*
X157955987Y-112091551D01*
X158276402Y-112356451D01*
X158592520Y-112623485D01*
X158605847Y-112634859D01*
X158772989Y-112776765D01*
X158926865Y-112905877D01*
X159068883Y-113023262D01*
X159200448Y-113129991D01*
X159322966Y-113227132D01*
X159437844Y-113315757D01*
X159546487Y-113396933D01*
X159650302Y-113471730D01*
X159750695Y-113541219D01*
X159849071Y-113606468D01*
X159946838Y-113668546D01*
X160045400Y-113728524D01*
X160082780Y-113750363D01*
X160150530Y-113788320D01*
X160224512Y-113828177D01*
X160300760Y-113867912D01*
X160375309Y-113905505D01*
X160444194Y-113938934D01*
X160503449Y-113966180D01*
X160549110Y-113985221D01*
X160605249Y-114002935D01*
X160663365Y-114014642D01*
X160717122Y-114019325D01*
X160761780Y-114016581D01*
X160792601Y-114006005D01*
X160809349Y-113992464D01*
X160830348Y-113962180D01*
X160842401Y-113921155D01*
X160845544Y-113867871D01*
X160839814Y-113800809D01*
X160825247Y-113718452D01*
X160801880Y-113619280D01*
X160801506Y-113617825D01*
X160775205Y-113520078D01*
X160746068Y-113420942D01*
X160713394Y-113318556D01*
X160676485Y-113211056D01*
X160634641Y-113096580D01*
X160587163Y-112973265D01*
X160533351Y-112839248D01*
X160472506Y-112692666D01*
X160403928Y-112531658D01*
X160326918Y-112354360D01*
X160271641Y-112227800D01*
X160219266Y-112107115D01*
X160173021Y-111999576D01*
X160131737Y-111902406D01*
X160094241Y-111812828D01*
X160059363Y-111728066D01*
X160025933Y-111645342D01*
X159992780Y-111561880D01*
X159938720Y-111424720D01*
X159801560Y-111346214D01*
X159738932Y-111311310D01*
X159653951Y-111265841D01*
X159557974Y-111216034D01*
X159455048Y-111163911D01*
X159349221Y-111111497D01*
X159244539Y-111060816D01*
X159145050Y-111013892D01*
X159054800Y-110972749D01*
X159026170Y-110959894D01*
X158941925Y-110920986D01*
X158864993Y-110883850D01*
X158797673Y-110849675D01*
X158742259Y-110819652D01*
X158701050Y-110794967D01*
X158676340Y-110776812D01*
X158660601Y-110756665D01*
X158653480Y-110735408D01*
X158661786Y-110708555D01*
X158682446Y-110686843D01*
X158708395Y-110677985D01*
X158717723Y-110678568D01*
X158753013Y-110684888D01*
X158801512Y-110697171D01*
X158859190Y-110714185D01*
X158922015Y-110734701D01*
X158985955Y-110757489D01*
X159046981Y-110781318D01*
X159085901Y-110798054D01*
X159143173Y-110823978D01*
X159212042Y-110856064D01*
X159289170Y-110892683D01*
X159371217Y-110932205D01*
X159454844Y-110973000D01*
X159536713Y-111013438D01*
X159613484Y-111051889D01*
X159681817Y-111086725D01*
X159738375Y-111116314D01*
X159779818Y-111139026D01*
X159797528Y-111148953D01*
X159823986Y-111162168D01*
X159836499Y-111164997D01*
X159837046Y-111158100D01*
X159833359Y-111149114D01*
X159811675Y-111093834D01*
X159788522Y-111031287D01*
X159764843Y-110964398D01*
X159741581Y-110896093D01*
X159719682Y-110829300D01*
X159700087Y-110766943D01*
X159683742Y-110711949D01*
X159671589Y-110667245D01*
X159664573Y-110635756D01*
X159663636Y-110620408D01*
X159668369Y-110614543D01*
X159684336Y-110613178D01*
X159693406Y-110614455D01*
X159699960Y-110603934D01*
X159699989Y-110602696D01*
X159708294Y-110586702D01*
X159726038Y-110582779D01*
X159745453Y-110592823D01*
X159749081Y-110596551D01*
X159758821Y-110608247D01*
X159768240Y-110623444D01*
X159778755Y-110645273D01*
X159791786Y-110676865D01*
X159808750Y-110721354D01*
X159831066Y-110781870D01*
X159844497Y-110818164D01*
X159868985Y-110883153D01*
X159896852Y-110956065D01*
X159925603Y-111030385D01*
X159952744Y-111099600D01*
X160025066Y-111282480D01*
X160124133Y-111344706D01*
X160157263Y-111365521D01*
X160267189Y-111434678D01*
X160361624Y-111494294D01*
X160441955Y-111545301D01*
X160509570Y-111588627D01*
X160565856Y-111625202D01*
X160612199Y-111655955D01*
X160649986Y-111681816D01*
X160680606Y-111703714D01*
X160705444Y-111722580D01*
X160725887Y-111739343D01*
X160743324Y-111754931D01*
X160759140Y-111770276D01*
X160776131Y-111792905D01*
X160785888Y-111827894D01*
X160779055Y-111861035D01*
X160756988Y-111887609D01*
X160721040Y-111902899D01*
X160716959Y-111903574D01*
X160699660Y-111903279D01*
X160680112Y-111896101D01*
X160653924Y-111879926D01*
X160616704Y-111852637D01*
X160605948Y-111844659D01*
X160565201Y-111816186D01*
X160514215Y-111782347D01*
X160458445Y-111746713D01*
X160403344Y-111712858D01*
X160382810Y-111700510D01*
X160327916Y-111667278D01*
X160274946Y-111634929D01*
X160229080Y-111606635D01*
X160195494Y-111585567D01*
X160127148Y-111541992D01*
X160147568Y-111593800D01*
X160155352Y-111613457D01*
X160177090Y-111667442D01*
X160201000Y-111725434D01*
X160227972Y-111789503D01*
X160258897Y-111861721D01*
X160294664Y-111944157D01*
X160336165Y-112038882D01*
X160384290Y-112147965D01*
X160439930Y-112273479D01*
X160487840Y-112381646D01*
X160546862Y-112515932D01*
X160598818Y-112635570D01*
X160644611Y-112742728D01*
X160685147Y-112839576D01*
X160721330Y-112928283D01*
X160754066Y-113011017D01*
X160784260Y-113089949D01*
X160812816Y-113167246D01*
X160863186Y-113310956D01*
X160911853Y-113463628D01*
X160949392Y-113599513D01*
X160975822Y-113718715D01*
X160991162Y-113821337D01*
X160995432Y-113907482D01*
X160988650Y-113977255D01*
X160970835Y-114030760D01*
X160952821Y-114061898D01*
X160906878Y-114115905D01*
X160850263Y-114152898D01*
X160782000Y-114173613D01*
X160766025Y-114176273D01*
X160732215Y-114180491D01*
X160702357Y-114180767D01*
X160668546Y-114176847D01*
X160622874Y-114168475D01*
X160612035Y-114166212D01*
X160536162Y-114144932D01*
X160446578Y-114111778D01*
X160345007Y-114067619D01*
X160233172Y-114013324D01*
X160112798Y-113949762D01*
X159985609Y-113877802D01*
X159853329Y-113798314D01*
X159717681Y-113712166D01*
X159687672Y-113692516D01*
X159627551Y-113652587D01*
X159568611Y-113612555D01*
X159509743Y-113571544D01*
X159449841Y-113528682D01*
X159387796Y-113483094D01*
X159322500Y-113433905D01*
X159252847Y-113380242D01*
X159177728Y-113321230D01*
X159096035Y-113255995D01*
X159006661Y-113183664D01*
X158908499Y-113103362D01*
X158800439Y-113014215D01*
X158681375Y-112915349D01*
X158550200Y-112805889D01*
X158405804Y-112684962D01*
X158247080Y-112551693D01*
X158196500Y-112509289D01*
X157894100Y-112259946D01*
X157576836Y-112005296D01*
X157244328Y-111745064D01*
X156896199Y-111478970D01*
X156532071Y-111206738D01*
X156151566Y-110928091D01*
X155754307Y-110642752D01*
X155339914Y-110350442D01*
X154908010Y-110050885D01*
X154458217Y-109743804D01*
X153990158Y-109428921D01*
X153875262Y-109352225D01*
X153731513Y-109256466D01*
X153592142Y-109163874D01*
X153455493Y-109073369D01*
X153319910Y-108983867D01*
X153183737Y-108894289D01*
X153045317Y-108803551D01*
X152902994Y-108710573D01*
X152755111Y-108614273D01*
X152600013Y-108513569D01*
X152436044Y-108407379D01*
X152261546Y-108294623D01*
X152074863Y-108174218D01*
X151874340Y-108045083D01*
X151658320Y-107906136D01*
X151651885Y-107901999D01*
X151483184Y-107793510D01*
X151330502Y-107695246D01*
X151192782Y-107606504D01*
X151068965Y-107526584D01*
X150957993Y-107454782D01*
X150858807Y-107390398D01*
X150770350Y-107332729D01*
X150691563Y-107281075D01*
X150621388Y-107234732D01*
X150558766Y-107193000D01*
X150502640Y-107155176D01*
X150451952Y-107120560D01*
X150405642Y-107088448D01*
X150362653Y-107058140D01*
X150321926Y-107028934D01*
X150282404Y-107000128D01*
X150243028Y-106971019D01*
X150202739Y-106940908D01*
X150187269Y-106929242D01*
X150126117Y-106881740D01*
X150081252Y-106844260D01*
X150052978Y-106817069D01*
X150041599Y-106800431D01*
X150040064Y-106786608D01*
X150048282Y-106757218D01*
X150068496Y-106734703D01*
X150095871Y-106725720D01*
X150098363Y-106725924D01*
G37*
X150098363Y-106725924D02*
X150120766Y-106732973D01*
X150157858Y-106749209D01*
X150207426Y-106773459D01*
X150267255Y-106804551D01*
X150335129Y-106841313D01*
X150408832Y-106882573D01*
X150486151Y-106927158D01*
X150564870Y-106973897D01*
X150635058Y-107016591D01*
X150729019Y-107074559D01*
X150837440Y-107142139D01*
X150959005Y-107218479D01*
X151092398Y-107302730D01*
X151236302Y-107394041D01*
X151389402Y-107491562D01*
X151550380Y-107594444D01*
X151717922Y-107701835D01*
X151890709Y-107812885D01*
X152067426Y-107926745D01*
X152246757Y-108042564D01*
X152427386Y-108159492D01*
X152607996Y-108276678D01*
X152787270Y-108393273D01*
X152963893Y-108508425D01*
X153136548Y-108621286D01*
X153303919Y-108731004D01*
X153464689Y-108836730D01*
X153617543Y-108937612D01*
X153761164Y-109032802D01*
X153894235Y-109121449D01*
X154015440Y-109202701D01*
X154244625Y-109357452D01*
X154675726Y-109651625D01*
X155090218Y-109938731D01*
X155489334Y-110219689D01*
X155874302Y-110495420D01*
X156246356Y-110766843D01*
X156606726Y-111034879D01*
X156956643Y-111300448D01*
X157297338Y-111564469D01*
X157630042Y-111827864D01*
X157955987Y-112091551D01*
X158276402Y-112356451D01*
X158592520Y-112623485D01*
X158605847Y-112634859D01*
X158772989Y-112776765D01*
X158926865Y-112905877D01*
X159068883Y-113023262D01*
X159200448Y-113129991D01*
X159322966Y-113227132D01*
X159437844Y-113315757D01*
X159546487Y-113396933D01*
X159650302Y-113471730D01*
X159750695Y-113541219D01*
X159849071Y-113606468D01*
X159946838Y-113668546D01*
X160045400Y-113728524D01*
X160082780Y-113750363D01*
X160150530Y-113788320D01*
X160224512Y-113828177D01*
X160300760Y-113867912D01*
X160375309Y-113905505D01*
X160444194Y-113938934D01*
X160503449Y-113966180D01*
X160549110Y-113985221D01*
X160605249Y-114002935D01*
X160663365Y-114014642D01*
X160717122Y-114019325D01*
X160761780Y-114016581D01*
X160792601Y-114006005D01*
X160809349Y-113992464D01*
X160830348Y-113962180D01*
X160842401Y-113921155D01*
X160845544Y-113867871D01*
X160839814Y-113800809D01*
X160825247Y-113718452D01*
X160801880Y-113619280D01*
X160801506Y-113617825D01*
X160775205Y-113520078D01*
X160746068Y-113420942D01*
X160713394Y-113318556D01*
X160676485Y-113211056D01*
X160634641Y-113096580D01*
X160587163Y-112973265D01*
X160533351Y-112839248D01*
X160472506Y-112692666D01*
X160403928Y-112531658D01*
X160326918Y-112354360D01*
X160271641Y-112227800D01*
X160219266Y-112107115D01*
X160173021Y-111999576D01*
X160131737Y-111902406D01*
X160094241Y-111812828D01*
X160059363Y-111728066D01*
X160025933Y-111645342D01*
X159992780Y-111561880D01*
X159938720Y-111424720D01*
X159801560Y-111346214D01*
X159738932Y-111311310D01*
X159653951Y-111265841D01*
X159557974Y-111216034D01*
X159455048Y-111163911D01*
X159349221Y-111111497D01*
X159244539Y-111060816D01*
X159145050Y-111013892D01*
X159054800Y-110972749D01*
X159026170Y-110959894D01*
X158941925Y-110920986D01*
X158864993Y-110883850D01*
X158797673Y-110849675D01*
X158742259Y-110819652D01*
X158701050Y-110794967D01*
X158676340Y-110776812D01*
X158660601Y-110756665D01*
X158653480Y-110735408D01*
X158661786Y-110708555D01*
X158682446Y-110686843D01*
X158708395Y-110677985D01*
X158717723Y-110678568D01*
X158753013Y-110684888D01*
X158801512Y-110697171D01*
X158859190Y-110714185D01*
X158922015Y-110734701D01*
X158985955Y-110757489D01*
X159046981Y-110781318D01*
X159085901Y-110798054D01*
X159143173Y-110823978D01*
X159212042Y-110856064D01*
X159289170Y-110892683D01*
X159371217Y-110932205D01*
X159454844Y-110973000D01*
X159536713Y-111013438D01*
X159613484Y-111051889D01*
X159681817Y-111086725D01*
X159738375Y-111116314D01*
X159779818Y-111139026D01*
X159797528Y-111148953D01*
X159823986Y-111162168D01*
X159836499Y-111164997D01*
X159837046Y-111158100D01*
X159833359Y-111149114D01*
X159811675Y-111093834D01*
X159788522Y-111031287D01*
X159764843Y-110964398D01*
X159741581Y-110896093D01*
X159719682Y-110829300D01*
X159700087Y-110766943D01*
X159683742Y-110711949D01*
X159671589Y-110667245D01*
X159664573Y-110635756D01*
X159663636Y-110620408D01*
X159668369Y-110614543D01*
X159684336Y-110613178D01*
X159693406Y-110614455D01*
X159699960Y-110603934D01*
X159699989Y-110602696D01*
X159708294Y-110586702D01*
X159726038Y-110582779D01*
X159745453Y-110592823D01*
X159749081Y-110596551D01*
X159758821Y-110608247D01*
X159768240Y-110623444D01*
X159778755Y-110645273D01*
X159791786Y-110676865D01*
X159808750Y-110721354D01*
X159831066Y-110781870D01*
X159844497Y-110818164D01*
X159868985Y-110883153D01*
X159896852Y-110956065D01*
X159925603Y-111030385D01*
X159952744Y-111099600D01*
X160025066Y-111282480D01*
X160124133Y-111344706D01*
X160157263Y-111365521D01*
X160267189Y-111434678D01*
X160361624Y-111494294D01*
X160441955Y-111545301D01*
X160509570Y-111588627D01*
X160565856Y-111625202D01*
X160612199Y-111655955D01*
X160649986Y-111681816D01*
X160680606Y-111703714D01*
X160705444Y-111722580D01*
X160725887Y-111739343D01*
X160743324Y-111754931D01*
X160759140Y-111770276D01*
X160776131Y-111792905D01*
X160785888Y-111827894D01*
X160779055Y-111861035D01*
X160756988Y-111887609D01*
X160721040Y-111902899D01*
X160716959Y-111903574D01*
X160699660Y-111903279D01*
X160680112Y-111896101D01*
X160653924Y-111879926D01*
X160616704Y-111852637D01*
X160605948Y-111844659D01*
X160565201Y-111816186D01*
X160514215Y-111782347D01*
X160458445Y-111746713D01*
X160403344Y-111712858D01*
X160382810Y-111700510D01*
X160327916Y-111667278D01*
X160274946Y-111634929D01*
X160229080Y-111606635D01*
X160195494Y-111585567D01*
X160127148Y-111541992D01*
X160147568Y-111593800D01*
X160155352Y-111613457D01*
X160177090Y-111667442D01*
X160201000Y-111725434D01*
X160227972Y-111789503D01*
X160258897Y-111861721D01*
X160294664Y-111944157D01*
X160336165Y-112038882D01*
X160384290Y-112147965D01*
X160439930Y-112273479D01*
X160487840Y-112381646D01*
X160546862Y-112515932D01*
X160598818Y-112635570D01*
X160644611Y-112742728D01*
X160685147Y-112839576D01*
X160721330Y-112928283D01*
X160754066Y-113011017D01*
X160784260Y-113089949D01*
X160812816Y-113167246D01*
X160863186Y-113310956D01*
X160911853Y-113463628D01*
X160949392Y-113599513D01*
X160975822Y-113718715D01*
X160991162Y-113821337D01*
X160995432Y-113907482D01*
X160988650Y-113977255D01*
X160970835Y-114030760D01*
X160952821Y-114061898D01*
X160906878Y-114115905D01*
X160850263Y-114152898D01*
X160782000Y-114173613D01*
X160766025Y-114176273D01*
X160732215Y-114180491D01*
X160702357Y-114180767D01*
X160668546Y-114176847D01*
X160622874Y-114168475D01*
X160612035Y-114166212D01*
X160536162Y-114144932D01*
X160446578Y-114111778D01*
X160345007Y-114067619D01*
X160233172Y-114013324D01*
X160112798Y-113949762D01*
X159985609Y-113877802D01*
X159853329Y-113798314D01*
X159717681Y-113712166D01*
X159687672Y-113692516D01*
X159627551Y-113652587D01*
X159568611Y-113612555D01*
X159509743Y-113571544D01*
X159449841Y-113528682D01*
X159387796Y-113483094D01*
X159322500Y-113433905D01*
X159252847Y-113380242D01*
X159177728Y-113321230D01*
X159096035Y-113255995D01*
X159006661Y-113183664D01*
X158908499Y-113103362D01*
X158800439Y-113014215D01*
X158681375Y-112915349D01*
X158550200Y-112805889D01*
X158405804Y-112684962D01*
X158247080Y-112551693D01*
X158196500Y-112509289D01*
X157894100Y-112259946D01*
X157576836Y-112005296D01*
X157244328Y-111745064D01*
X156896199Y-111478970D01*
X156532071Y-111206738D01*
X156151566Y-110928091D01*
X155754307Y-110642752D01*
X155339914Y-110350442D01*
X154908010Y-110050885D01*
X154458217Y-109743804D01*
X153990158Y-109428921D01*
X153875262Y-109352225D01*
X153731513Y-109256466D01*
X153592142Y-109163874D01*
X153455493Y-109073369D01*
X153319910Y-108983867D01*
X153183737Y-108894289D01*
X153045317Y-108803551D01*
X152902994Y-108710573D01*
X152755111Y-108614273D01*
X152600013Y-108513569D01*
X152436044Y-108407379D01*
X152261546Y-108294623D01*
X152074863Y-108174218D01*
X151874340Y-108045083D01*
X151658320Y-107906136D01*
X151651885Y-107901999D01*
X151483184Y-107793510D01*
X151330502Y-107695246D01*
X151192782Y-107606504D01*
X151068965Y-107526584D01*
X150957993Y-107454782D01*
X150858807Y-107390398D01*
X150770350Y-107332729D01*
X150691563Y-107281075D01*
X150621388Y-107234732D01*
X150558766Y-107193000D01*
X150502640Y-107155176D01*
X150451952Y-107120560D01*
X150405642Y-107088448D01*
X150362653Y-107058140D01*
X150321926Y-107028934D01*
X150282404Y-107000128D01*
X150243028Y-106971019D01*
X150202739Y-106940908D01*
X150187269Y-106929242D01*
X150126117Y-106881740D01*
X150081252Y-106844260D01*
X150052978Y-106817069D01*
X150041599Y-106800431D01*
X150040064Y-106786608D01*
X150048282Y-106757218D01*
X150068496Y-106734703D01*
X150095871Y-106725720D01*
X150098363Y-106725924D01*
G36*
X156909157Y-114124558D02*
G01*
X156904850Y-114179431D01*
X156893900Y-114219544D01*
X156875143Y-114248238D01*
X156847413Y-114268855D01*
X156822003Y-114278048D01*
X156782218Y-114283645D01*
X156742298Y-114282404D01*
X156711743Y-114273969D01*
X156699880Y-114264907D01*
X156676139Y-114239527D01*
X156647820Y-114203832D01*
X156618065Y-114162277D01*
X156590015Y-114119315D01*
X156566814Y-114079400D01*
X156551602Y-114046985D01*
X156541641Y-114016767D01*
X156528748Y-113968686D01*
X156518990Y-113922313D01*
X156513042Y-113892476D01*
X156504249Y-113864136D01*
X156490665Y-113836126D01*
X156485575Y-113828126D01*
X156659712Y-113828126D01*
X156666409Y-113902769D01*
X156681408Y-113973067D01*
X156703397Y-114031439D01*
X156706229Y-114036879D01*
X156722617Y-114063319D01*
X156737578Y-114080943D01*
X156746278Y-114086997D01*
X156752235Y-114083546D01*
X156753560Y-114063148D01*
X156753360Y-114055565D01*
X156748989Y-114017328D01*
X156739911Y-113969677D01*
X156727473Y-113917521D01*
X156713020Y-113865770D01*
X156697897Y-113819331D01*
X156683451Y-113783114D01*
X156671026Y-113762028D01*
X156670759Y-113761750D01*
X156664002Y-113763543D01*
X156660342Y-113782348D01*
X156659712Y-113828126D01*
X156485575Y-113828126D01*
X156469631Y-113803066D01*
X156438484Y-113759581D01*
X156369893Y-113666202D01*
X156347082Y-113690484D01*
X156324009Y-113708154D01*
X156285924Y-113727010D01*
X156243941Y-113740881D01*
X156206829Y-113746280D01*
X156165406Y-113740920D01*
X156109520Y-113719130D01*
X156057406Y-113683026D01*
X156038599Y-113664497D01*
X156001465Y-113619259D01*
X155962967Y-113563134D01*
X155926617Y-113501419D01*
X155895926Y-113439411D01*
X155876333Y-113388553D01*
X155853179Y-113311590D01*
X155832339Y-113224361D01*
X155814972Y-113132430D01*
X155804704Y-113058994D01*
X156005239Y-113058994D01*
X156006284Y-113073134D01*
X156011429Y-113101884D01*
X156019663Y-113140942D01*
X156029975Y-113186010D01*
X156041356Y-113232787D01*
X156052794Y-113276973D01*
X156063280Y-113314270D01*
X156071802Y-113340376D01*
X156087357Y-113376832D01*
X156115599Y-113431003D01*
X156147101Y-113481411D01*
X156177269Y-113520220D01*
X156194467Y-113536314D01*
X156206498Y-113543080D01*
X156206527Y-113543079D01*
X156216350Y-113533472D01*
X156223563Y-113506814D01*
X156228189Y-113466193D01*
X156230254Y-113414699D01*
X156229782Y-113355421D01*
X156226797Y-113291448D01*
X156221324Y-113225870D01*
X156213386Y-113161775D01*
X156203010Y-113102253D01*
X156178107Y-112981467D01*
X156156561Y-113017985D01*
X156154712Y-113021009D01*
X156123753Y-113052552D01*
X156083455Y-113067440D01*
X156037953Y-113064066D01*
X156037592Y-113063965D01*
X156016005Y-113058936D01*
X156005533Y-113058360D01*
X156005239Y-113058994D01*
X155804704Y-113058994D01*
X155802238Y-113041358D01*
X155795297Y-112956708D01*
X155793499Y-112929167D01*
X155786072Y-112880645D01*
X155773963Y-112851661D01*
X155757115Y-112842040D01*
X155754594Y-112844925D01*
X155752661Y-112862400D01*
X155754412Y-112890455D01*
X155755716Y-112908388D01*
X155749945Y-112958083D01*
X155731454Y-112998751D01*
X155702676Y-113027625D01*
X155666042Y-113041936D01*
X155623984Y-113038916D01*
X155605568Y-113030633D01*
X155575434Y-113004421D01*
X155553194Y-112969807D01*
X155544520Y-112934262D01*
X155541909Y-112909473D01*
X155534122Y-112868417D01*
X155522220Y-112815969D01*
X155507274Y-112756030D01*
X155490356Y-112692503D01*
X155472538Y-112629289D01*
X155454889Y-112570292D01*
X155438482Y-112519414D01*
X155424388Y-112480556D01*
X155413678Y-112457622D01*
X155412678Y-112456154D01*
X155403360Y-112450153D01*
X155386047Y-112451641D01*
X155355419Y-112460920D01*
X155347177Y-112463546D01*
X155294912Y-112471971D01*
X155239964Y-112466083D01*
X155180251Y-112445193D01*
X155113690Y-112408608D01*
X155038199Y-112355637D01*
X155013657Y-112336302D01*
X154974624Y-112303445D01*
X154935710Y-112268621D01*
X154900027Y-112234809D01*
X154870687Y-112204989D01*
X154850801Y-112182140D01*
X154843480Y-112169238D01*
X154842540Y-112167535D01*
X154828628Y-112163098D01*
X154803368Y-112161320D01*
X154784938Y-112160073D01*
X154762170Y-112153078D01*
X154736327Y-112137384D01*
X154701768Y-112110149D01*
X154693158Y-112103063D01*
X154666214Y-112082041D01*
X154647373Y-112069156D01*
X154640283Y-112066969D01*
X154645845Y-112076536D01*
X154661983Y-112100744D01*
X154687376Y-112137672D01*
X154720700Y-112185425D01*
X154760633Y-112242108D01*
X154805851Y-112305824D01*
X154855033Y-112374680D01*
X154896870Y-112433151D01*
X154947588Y-112504243D01*
X154995291Y-112571329D01*
X155038209Y-112631909D01*
X155074573Y-112683486D01*
X155102614Y-112723560D01*
X155120562Y-112749634D01*
X155140675Y-112781032D01*
X155172070Y-112837329D01*
X155197010Y-112891559D01*
X155213464Y-112939084D01*
X155219400Y-112975266D01*
X155219069Y-112982038D01*
X155206979Y-113016713D01*
X155181336Y-113045603D01*
X155147401Y-113065432D01*
X155110433Y-113072924D01*
X155075690Y-113064801D01*
X155061365Y-113056092D01*
X155026511Y-113030689D01*
X154983405Y-112995746D01*
X154935765Y-112954596D01*
X154887311Y-112910573D01*
X154841760Y-112867009D01*
X154802832Y-112827238D01*
X154774245Y-112794594D01*
X154726737Y-112730495D01*
X154667230Y-112640497D01*
X154606529Y-112539492D01*
X154547152Y-112432062D01*
X154491614Y-112322790D01*
X154442433Y-112216258D01*
X154402126Y-112117049D01*
X154395438Y-112099732D01*
X154369942Y-112040088D01*
X154340440Y-111977859D01*
X154312046Y-111924009D01*
X154259280Y-111831120D01*
X154253861Y-111878227D01*
X154253537Y-111880953D01*
X154243934Y-111922767D01*
X154224778Y-111951665D01*
X154191945Y-111974029D01*
X154157759Y-111987439D01*
X154126919Y-111988797D01*
X154097685Y-111976539D01*
X154067987Y-111949271D01*
X154035752Y-111905598D01*
X153998911Y-111844128D01*
X153991318Y-111830518D01*
X153959573Y-111770967D01*
X153928346Y-111707571D01*
X153896264Y-111637239D01*
X153861953Y-111556879D01*
X153824042Y-111463399D01*
X153781158Y-111353707D01*
X153767105Y-111318049D01*
X153748672Y-111273825D01*
X153733446Y-111240313D01*
X153722711Y-111220293D01*
X153717754Y-111216547D01*
X153714202Y-111226118D01*
X153703531Y-111251341D01*
X153689417Y-111282584D01*
X153679619Y-111301600D01*
X153648747Y-111340325D01*
X153609036Y-111362053D01*
X153557341Y-111368840D01*
X153502724Y-111361738D01*
X153447306Y-111337332D01*
X153395403Y-111294827D01*
X153346136Y-111233490D01*
X153298627Y-111152587D01*
X153293621Y-111142956D01*
X153265734Y-111090860D01*
X153234456Y-111034328D01*
X153205657Y-110984003D01*
X153157652Y-110898110D01*
X153103909Y-110794555D01*
X153045523Y-110675518D01*
X152983423Y-110542889D01*
X152918536Y-110398560D01*
X152902765Y-110362813D01*
X152874001Y-110297638D01*
X152847328Y-110237228D01*
X152824275Y-110185041D01*
X152806366Y-110144532D01*
X152795130Y-110119160D01*
X152792569Y-110113400D01*
X152780670Y-110088667D01*
X152768512Y-110071653D01*
X152751425Y-110058585D01*
X152724742Y-110045691D01*
X152683791Y-110029197D01*
X152675047Y-110025672D01*
X152624979Y-110003122D01*
X152574803Y-109977302D01*
X152534188Y-109953128D01*
X152521565Y-109943981D01*
X152487238Y-109915567D01*
X152441432Y-109874495D01*
X152385661Y-109822273D01*
X152321443Y-109760415D01*
X152250292Y-109690429D01*
X152173726Y-109613826D01*
X152093260Y-109532118D01*
X152010411Y-109446815D01*
X151926694Y-109359427D01*
X151843626Y-109271465D01*
X151762723Y-109184440D01*
X151715754Y-109133956D01*
X151642137Y-109056134D01*
X151560303Y-108970827D01*
X151473943Y-108881833D01*
X151386750Y-108792950D01*
X151302416Y-108707980D01*
X151224632Y-108630720D01*
X151190838Y-108597380D01*
X151104295Y-108511150D01*
X151031501Y-108437085D01*
X150971503Y-108374072D01*
X150923348Y-108320998D01*
X150886085Y-108276749D01*
X150858760Y-108240211D01*
X150840422Y-108210271D01*
X150830117Y-108185817D01*
X150826894Y-108165733D01*
X150827487Y-108157917D01*
X150839503Y-108128630D01*
X150862335Y-108106249D01*
X150889826Y-108097454D01*
X150890814Y-108097485D01*
X150914945Y-108104498D01*
X150950984Y-108122285D01*
X150995481Y-108148679D01*
X151044988Y-108181516D01*
X151096057Y-108218629D01*
X151145240Y-108257853D01*
X151226093Y-108327774D01*
X151336306Y-108428515D01*
X151456936Y-108544334D01*
X151588268Y-108675518D01*
X151730589Y-108822352D01*
X151884184Y-108985124D01*
X152049340Y-109164120D01*
X152100959Y-109220168D01*
X152159622Y-109282984D01*
X152220554Y-109347457D01*
X152282138Y-109411937D01*
X152342757Y-109474777D01*
X152400795Y-109534328D01*
X152454638Y-109588942D01*
X152502667Y-109636969D01*
X152543268Y-109676762D01*
X152574824Y-109706672D01*
X152595719Y-109725051D01*
X152604337Y-109730249D01*
X152604748Y-109728999D01*
X152602756Y-109714389D01*
X152596207Y-109689778D01*
X152590909Y-109648473D01*
X152600381Y-109608733D01*
X152622165Y-109576142D01*
X152652817Y-109553213D01*
X152688895Y-109542461D01*
X152726958Y-109546400D01*
X152763561Y-109567545D01*
X152771102Y-109576641D01*
X152788479Y-109604564D01*
X152811971Y-109647435D01*
X152840485Y-109702979D01*
X152872926Y-109768923D01*
X152908200Y-109842992D01*
X152945214Y-109922913D01*
X152982874Y-110006410D01*
X153020086Y-110091210D01*
X153055756Y-110175040D01*
X153098988Y-110277510D01*
X153159591Y-110417508D01*
X153214893Y-110540431D01*
X153265520Y-110647625D01*
X153312094Y-110740433D01*
X153355240Y-110820200D01*
X153380926Y-110866093D01*
X153413381Y-110925026D01*
X153444113Y-110981718D01*
X153468923Y-111028480D01*
X153516587Y-111119920D01*
X153523961Y-111074200D01*
X153527256Y-111047276D01*
X153530527Y-111003684D01*
X153532087Y-110959573D01*
X153533512Y-110928138D01*
X153544398Y-110868570D01*
X153565581Y-110825204D01*
X153596653Y-110798701D01*
X153637206Y-110789720D01*
X153652352Y-110790751D01*
X153693743Y-110804606D01*
X153735006Y-110835269D01*
X153776907Y-110883564D01*
X153820209Y-110950317D01*
X153865676Y-111036354D01*
X153865778Y-111036563D01*
X153891530Y-111090585D01*
X153916891Y-111145899D01*
X153938946Y-111196026D01*
X153954780Y-111234483D01*
X153983298Y-111308407D01*
X154012495Y-111280434D01*
X154030829Y-111266563D01*
X154069432Y-111252968D01*
X154109083Y-111254830D01*
X154143162Y-111272550D01*
X154152051Y-111282105D01*
X154172872Y-111308849D01*
X154200617Y-111347483D01*
X154233080Y-111394722D01*
X154268054Y-111447285D01*
X154303333Y-111501888D01*
X154336711Y-111555249D01*
X154365981Y-111604085D01*
X154411262Y-111681850D01*
X154462612Y-111676550D01*
X154470881Y-111675750D01*
X154501350Y-111675144D01*
X154523084Y-111681652D01*
X154545302Y-111697621D01*
X154576641Y-111723991D01*
X154561081Y-111680720D01*
X154551161Y-111633006D01*
X154559317Y-111591787D01*
X154586295Y-111555934D01*
X154608453Y-111541110D01*
X154648713Y-111530829D01*
X154690375Y-111535182D01*
X154725785Y-111554260D01*
X154732906Y-111562712D01*
X154749730Y-111589238D01*
X154771330Y-111628374D01*
X154795679Y-111676380D01*
X154820753Y-111729520D01*
X154854946Y-111802498D01*
X154898883Y-111888042D01*
X154941679Y-111960285D01*
X154985742Y-112022877D01*
X155033478Y-112079466D01*
X155087293Y-112133702D01*
X155090221Y-112136447D01*
X155132282Y-112173674D01*
X155174742Y-112207708D01*
X155214519Y-112236446D01*
X155248534Y-112257788D01*
X155273704Y-112269632D01*
X155286950Y-112269877D01*
X155287512Y-112269188D01*
X155286632Y-112257014D01*
X155274523Y-112233257D01*
X155250460Y-112196688D01*
X155213716Y-112146080D01*
X155205728Y-112135122D01*
X155181478Y-112098526D01*
X155163008Y-112065706D01*
X155153807Y-112042681D01*
X155153315Y-112008585D01*
X155168109Y-111971886D01*
X155195734Y-111943011D01*
X155232132Y-111925968D01*
X155273244Y-111924764D01*
X155279938Y-111926709D01*
X155306132Y-111942309D01*
X155331436Y-111967020D01*
X155331575Y-111967192D01*
X155353378Y-111994102D01*
X155381850Y-112029152D01*
X155410865Y-112064800D01*
X155440556Y-112102263D01*
X155502054Y-112189059D01*
X155553737Y-112277937D01*
X155598922Y-112374977D01*
X155640929Y-112486258D01*
X155646905Y-112503533D01*
X155660652Y-112541535D01*
X155671390Y-112565409D01*
X155681690Y-112578959D01*
X155694124Y-112585990D01*
X155711264Y-112590307D01*
X155777864Y-112613425D01*
X155846658Y-112655702D01*
X155864383Y-112667797D01*
X155883153Y-112674215D01*
X155900423Y-112669158D01*
X155901932Y-112668385D01*
X155933703Y-112659998D01*
X155975022Y-112658174D01*
X156016880Y-112662667D01*
X156050266Y-112673233D01*
X156054803Y-112675764D01*
X156082807Y-112696600D01*
X156108438Y-112722458D01*
X156116579Y-112732319D01*
X156128988Y-112745881D01*
X156132638Y-112744875D01*
X156130263Y-112730280D01*
X156125162Y-112705641D01*
X156114882Y-112654062D01*
X156102110Y-112588424D01*
X156087516Y-112512301D01*
X156071772Y-112429269D01*
X156055547Y-112342901D01*
X156039511Y-112256772D01*
X156024337Y-112174458D01*
X156010693Y-112099532D01*
X155999251Y-112035570D01*
X155990681Y-111986147D01*
X155986607Y-111961907D01*
X155976613Y-111900089D01*
X155970362Y-111853904D01*
X155967971Y-111820066D01*
X155969557Y-111795286D01*
X155975236Y-111776277D01*
X155985125Y-111759750D01*
X155999341Y-111742418D01*
X156021599Y-111726527D01*
X156057049Y-111718734D01*
X156095254Y-111722758D01*
X156129374Y-111737696D01*
X156152566Y-111762645D01*
X156160888Y-111783579D01*
X156173183Y-111822148D01*
X156188362Y-111874748D01*
X156205662Y-111938400D01*
X156224324Y-112010122D01*
X156243587Y-112086932D01*
X156262690Y-112165851D01*
X156280874Y-112243898D01*
X156297378Y-112318091D01*
X156311441Y-112385449D01*
X156338767Y-112527163D01*
X156367131Y-112690254D01*
X156390076Y-112844210D01*
X156408412Y-112994562D01*
X156422949Y-113146840D01*
X156423147Y-113149214D01*
X156430474Y-113229766D01*
X156437821Y-113294067D01*
X156445792Y-113346073D01*
X156454991Y-113389741D01*
X156461998Y-113414699D01*
X156466020Y-113429027D01*
X156473250Y-113451602D01*
X156488328Y-113495027D01*
X156500705Y-113522369D01*
X156512173Y-113536166D01*
X156524519Y-113538956D01*
X156539535Y-113533276D01*
X156553016Y-113528342D01*
X156585884Y-113526336D01*
X156618776Y-113533508D01*
X156642024Y-113548428D01*
X156652218Y-113556582D01*
X156675547Y-113563400D01*
X156683313Y-113564872D01*
X156707580Y-113579555D01*
X156736873Y-113607058D01*
X156767991Y-113643756D01*
X156797729Y-113686021D01*
X156822884Y-113730225D01*
X156850242Y-113793745D01*
X156880662Y-113891464D01*
X156900997Y-113993638D01*
X156906813Y-114063148D01*
X156909203Y-114091720D01*
X156909157Y-114124558D01*
G37*
X156909157Y-114124558D02*
X156904850Y-114179431D01*
X156893900Y-114219544D01*
X156875143Y-114248238D01*
X156847413Y-114268855D01*
X156822003Y-114278048D01*
X156782218Y-114283645D01*
X156742298Y-114282404D01*
X156711743Y-114273969D01*
X156699880Y-114264907D01*
X156676139Y-114239527D01*
X156647820Y-114203832D01*
X156618065Y-114162277D01*
X156590015Y-114119315D01*
X156566814Y-114079400D01*
X156551602Y-114046985D01*
X156541641Y-114016767D01*
X156528748Y-113968686D01*
X156518990Y-113922313D01*
X156513042Y-113892476D01*
X156504249Y-113864136D01*
X156490665Y-113836126D01*
X156485575Y-113828126D01*
X156659712Y-113828126D01*
X156666409Y-113902769D01*
X156681408Y-113973067D01*
X156703397Y-114031439D01*
X156706229Y-114036879D01*
X156722617Y-114063319D01*
X156737578Y-114080943D01*
X156746278Y-114086997D01*
X156752235Y-114083546D01*
X156753560Y-114063148D01*
X156753360Y-114055565D01*
X156748989Y-114017328D01*
X156739911Y-113969677D01*
X156727473Y-113917521D01*
X156713020Y-113865770D01*
X156697897Y-113819331D01*
X156683451Y-113783114D01*
X156671026Y-113762028D01*
X156670759Y-113761750D01*
X156664002Y-113763543D01*
X156660342Y-113782348D01*
X156659712Y-113828126D01*
X156485575Y-113828126D01*
X156469631Y-113803066D01*
X156438484Y-113759581D01*
X156369893Y-113666202D01*
X156347082Y-113690484D01*
X156324009Y-113708154D01*
X156285924Y-113727010D01*
X156243941Y-113740881D01*
X156206829Y-113746280D01*
X156165406Y-113740920D01*
X156109520Y-113719130D01*
X156057406Y-113683026D01*
X156038599Y-113664497D01*
X156001465Y-113619259D01*
X155962967Y-113563134D01*
X155926617Y-113501419D01*
X155895926Y-113439411D01*
X155876333Y-113388553D01*
X155853179Y-113311590D01*
X155832339Y-113224361D01*
X155814972Y-113132430D01*
X155804704Y-113058994D01*
X156005239Y-113058994D01*
X156006284Y-113073134D01*
X156011429Y-113101884D01*
X156019663Y-113140942D01*
X156029975Y-113186010D01*
X156041356Y-113232787D01*
X156052794Y-113276973D01*
X156063280Y-113314270D01*
X156071802Y-113340376D01*
X156087357Y-113376832D01*
X156115599Y-113431003D01*
X156147101Y-113481411D01*
X156177269Y-113520220D01*
X156194467Y-113536314D01*
X156206498Y-113543080D01*
X156206527Y-113543079D01*
X156216350Y-113533472D01*
X156223563Y-113506814D01*
X156228189Y-113466193D01*
X156230254Y-113414699D01*
X156229782Y-113355421D01*
X156226797Y-113291448D01*
X156221324Y-113225870D01*
X156213386Y-113161775D01*
X156203010Y-113102253D01*
X156178107Y-112981467D01*
X156156561Y-113017985D01*
X156154712Y-113021009D01*
X156123753Y-113052552D01*
X156083455Y-113067440D01*
X156037953Y-113064066D01*
X156037592Y-113063965D01*
X156016005Y-113058936D01*
X156005533Y-113058360D01*
X156005239Y-113058994D01*
X155804704Y-113058994D01*
X155802238Y-113041358D01*
X155795297Y-112956708D01*
X155793499Y-112929167D01*
X155786072Y-112880645D01*
X155773963Y-112851661D01*
X155757115Y-112842040D01*
X155754594Y-112844925D01*
X155752661Y-112862400D01*
X155754412Y-112890455D01*
X155755716Y-112908388D01*
X155749945Y-112958083D01*
X155731454Y-112998751D01*
X155702676Y-113027625D01*
X155666042Y-113041936D01*
X155623984Y-113038916D01*
X155605568Y-113030633D01*
X155575434Y-113004421D01*
X155553194Y-112969807D01*
X155544520Y-112934262D01*
X155541909Y-112909473D01*
X155534122Y-112868417D01*
X155522220Y-112815969D01*
X155507274Y-112756030D01*
X155490356Y-112692503D01*
X155472538Y-112629289D01*
X155454889Y-112570292D01*
X155438482Y-112519414D01*
X155424388Y-112480556D01*
X155413678Y-112457622D01*
X155412678Y-112456154D01*
X155403360Y-112450153D01*
X155386047Y-112451641D01*
X155355419Y-112460920D01*
X155347177Y-112463546D01*
X155294912Y-112471971D01*
X155239964Y-112466083D01*
X155180251Y-112445193D01*
X155113690Y-112408608D01*
X155038199Y-112355637D01*
X155013657Y-112336302D01*
X154974624Y-112303445D01*
X154935710Y-112268621D01*
X154900027Y-112234809D01*
X154870687Y-112204989D01*
X154850801Y-112182140D01*
X154843480Y-112169238D01*
X154842540Y-112167535D01*
X154828628Y-112163098D01*
X154803368Y-112161320D01*
X154784938Y-112160073D01*
X154762170Y-112153078D01*
X154736327Y-112137384D01*
X154701768Y-112110149D01*
X154693158Y-112103063D01*
X154666214Y-112082041D01*
X154647373Y-112069156D01*
X154640283Y-112066969D01*
X154645845Y-112076536D01*
X154661983Y-112100744D01*
X154687376Y-112137672D01*
X154720700Y-112185425D01*
X154760633Y-112242108D01*
X154805851Y-112305824D01*
X154855033Y-112374680D01*
X154896870Y-112433151D01*
X154947588Y-112504243D01*
X154995291Y-112571329D01*
X155038209Y-112631909D01*
X155074573Y-112683486D01*
X155102614Y-112723560D01*
X155120562Y-112749634D01*
X155140675Y-112781032D01*
X155172070Y-112837329D01*
X155197010Y-112891559D01*
X155213464Y-112939084D01*
X155219400Y-112975266D01*
X155219069Y-112982038D01*
X155206979Y-113016713D01*
X155181336Y-113045603D01*
X155147401Y-113065432D01*
X155110433Y-113072924D01*
X155075690Y-113064801D01*
X155061365Y-113056092D01*
X155026511Y-113030689D01*
X154983405Y-112995746D01*
X154935765Y-112954596D01*
X154887311Y-112910573D01*
X154841760Y-112867009D01*
X154802832Y-112827238D01*
X154774245Y-112794594D01*
X154726737Y-112730495D01*
X154667230Y-112640497D01*
X154606529Y-112539492D01*
X154547152Y-112432062D01*
X154491614Y-112322790D01*
X154442433Y-112216258D01*
X154402126Y-112117049D01*
X154395438Y-112099732D01*
X154369942Y-112040088D01*
X154340440Y-111977859D01*
X154312046Y-111924009D01*
X154259280Y-111831120D01*
X154253861Y-111878227D01*
X154253537Y-111880953D01*
X154243934Y-111922767D01*
X154224778Y-111951665D01*
X154191945Y-111974029D01*
X154157759Y-111987439D01*
X154126919Y-111988797D01*
X154097685Y-111976539D01*
X154067987Y-111949271D01*
X154035752Y-111905598D01*
X153998911Y-111844128D01*
X153991318Y-111830518D01*
X153959573Y-111770967D01*
X153928346Y-111707571D01*
X153896264Y-111637239D01*
X153861953Y-111556879D01*
X153824042Y-111463399D01*
X153781158Y-111353707D01*
X153767105Y-111318049D01*
X153748672Y-111273825D01*
X153733446Y-111240313D01*
X153722711Y-111220293D01*
X153717754Y-111216547D01*
X153714202Y-111226118D01*
X153703531Y-111251341D01*
X153689417Y-111282584D01*
X153679619Y-111301600D01*
X153648747Y-111340325D01*
X153609036Y-111362053D01*
X153557341Y-111368840D01*
X153502724Y-111361738D01*
X153447306Y-111337332D01*
X153395403Y-111294827D01*
X153346136Y-111233490D01*
X153298627Y-111152587D01*
X153293621Y-111142956D01*
X153265734Y-111090860D01*
X153234456Y-111034328D01*
X153205657Y-110984003D01*
X153157652Y-110898110D01*
X153103909Y-110794555D01*
X153045523Y-110675518D01*
X152983423Y-110542889D01*
X152918536Y-110398560D01*
X152902765Y-110362813D01*
X152874001Y-110297638D01*
X152847328Y-110237228D01*
X152824275Y-110185041D01*
X152806366Y-110144532D01*
X152795130Y-110119160D01*
X152792569Y-110113400D01*
X152780670Y-110088667D01*
X152768512Y-110071653D01*
X152751425Y-110058585D01*
X152724742Y-110045691D01*
X152683791Y-110029197D01*
X152675047Y-110025672D01*
X152624979Y-110003122D01*
X152574803Y-109977302D01*
X152534188Y-109953128D01*
X152521565Y-109943981D01*
X152487238Y-109915567D01*
X152441432Y-109874495D01*
X152385661Y-109822273D01*
X152321443Y-109760415D01*
X152250292Y-109690429D01*
X152173726Y-109613826D01*
X152093260Y-109532118D01*
X152010411Y-109446815D01*
X151926694Y-109359427D01*
X151843626Y-109271465D01*
X151762723Y-109184440D01*
X151715754Y-109133956D01*
X151642137Y-109056134D01*
X151560303Y-108970827D01*
X151473943Y-108881833D01*
X151386750Y-108792950D01*
X151302416Y-108707980D01*
X151224632Y-108630720D01*
X151190838Y-108597380D01*
X151104295Y-108511150D01*
X151031501Y-108437085D01*
X150971503Y-108374072D01*
X150923348Y-108320998D01*
X150886085Y-108276749D01*
X150858760Y-108240211D01*
X150840422Y-108210271D01*
X150830117Y-108185817D01*
X150826894Y-108165733D01*
X150827487Y-108157917D01*
X150839503Y-108128630D01*
X150862335Y-108106249D01*
X150889826Y-108097454D01*
X150890814Y-108097485D01*
X150914945Y-108104498D01*
X150950984Y-108122285D01*
X150995481Y-108148679D01*
X151044988Y-108181516D01*
X151096057Y-108218629D01*
X151145240Y-108257853D01*
X151226093Y-108327774D01*
X151336306Y-108428515D01*
X151456936Y-108544334D01*
X151588268Y-108675518D01*
X151730589Y-108822352D01*
X151884184Y-108985124D01*
X152049340Y-109164120D01*
X152100959Y-109220168D01*
X152159622Y-109282984D01*
X152220554Y-109347457D01*
X152282138Y-109411937D01*
X152342757Y-109474777D01*
X152400795Y-109534328D01*
X152454638Y-109588942D01*
X152502667Y-109636969D01*
X152543268Y-109676762D01*
X152574824Y-109706672D01*
X152595719Y-109725051D01*
X152604337Y-109730249D01*
X152604748Y-109728999D01*
X152602756Y-109714389D01*
X152596207Y-109689778D01*
X152590909Y-109648473D01*
X152600381Y-109608733D01*
X152622165Y-109576142D01*
X152652817Y-109553213D01*
X152688895Y-109542461D01*
X152726958Y-109546400D01*
X152763561Y-109567545D01*
X152771102Y-109576641D01*
X152788479Y-109604564D01*
X152811971Y-109647435D01*
X152840485Y-109702979D01*
X152872926Y-109768923D01*
X152908200Y-109842992D01*
X152945214Y-109922913D01*
X152982874Y-110006410D01*
X153020086Y-110091210D01*
X153055756Y-110175040D01*
X153098988Y-110277510D01*
X153159591Y-110417508D01*
X153214893Y-110540431D01*
X153265520Y-110647625D01*
X153312094Y-110740433D01*
X153355240Y-110820200D01*
X153380926Y-110866093D01*
X153413381Y-110925026D01*
X153444113Y-110981718D01*
X153468923Y-111028480D01*
X153516587Y-111119920D01*
X153523961Y-111074200D01*
X153527256Y-111047276D01*
X153530527Y-111003684D01*
X153532087Y-110959573D01*
X153533512Y-110928138D01*
X153544398Y-110868570D01*
X153565581Y-110825204D01*
X153596653Y-110798701D01*
X153637206Y-110789720D01*
X153652352Y-110790751D01*
X153693743Y-110804606D01*
X153735006Y-110835269D01*
X153776907Y-110883564D01*
X153820209Y-110950317D01*
X153865676Y-111036354D01*
X153865778Y-111036563D01*
X153891530Y-111090585D01*
X153916891Y-111145899D01*
X153938946Y-111196026D01*
X153954780Y-111234483D01*
X153983298Y-111308407D01*
X154012495Y-111280434D01*
X154030829Y-111266563D01*
X154069432Y-111252968D01*
X154109083Y-111254830D01*
X154143162Y-111272550D01*
X154152051Y-111282105D01*
X154172872Y-111308849D01*
X154200617Y-111347483D01*
X154233080Y-111394722D01*
X154268054Y-111447285D01*
X154303333Y-111501888D01*
X154336711Y-111555249D01*
X154365981Y-111604085D01*
X154411262Y-111681850D01*
X154462612Y-111676550D01*
X154470881Y-111675750D01*
X154501350Y-111675144D01*
X154523084Y-111681652D01*
X154545302Y-111697621D01*
X154576641Y-111723991D01*
X154561081Y-111680720D01*
X154551161Y-111633006D01*
X154559317Y-111591787D01*
X154586295Y-111555934D01*
X154608453Y-111541110D01*
X154648713Y-111530829D01*
X154690375Y-111535182D01*
X154725785Y-111554260D01*
X154732906Y-111562712D01*
X154749730Y-111589238D01*
X154771330Y-111628374D01*
X154795679Y-111676380D01*
X154820753Y-111729520D01*
X154854946Y-111802498D01*
X154898883Y-111888042D01*
X154941679Y-111960285D01*
X154985742Y-112022877D01*
X155033478Y-112079466D01*
X155087293Y-112133702D01*
X155090221Y-112136447D01*
X155132282Y-112173674D01*
X155174742Y-112207708D01*
X155214519Y-112236446D01*
X155248534Y-112257788D01*
X155273704Y-112269632D01*
X155286950Y-112269877D01*
X155287512Y-112269188D01*
X155286632Y-112257014D01*
X155274523Y-112233257D01*
X155250460Y-112196688D01*
X155213716Y-112146080D01*
X155205728Y-112135122D01*
X155181478Y-112098526D01*
X155163008Y-112065706D01*
X155153807Y-112042681D01*
X155153315Y-112008585D01*
X155168109Y-111971886D01*
X155195734Y-111943011D01*
X155232132Y-111925968D01*
X155273244Y-111924764D01*
X155279938Y-111926709D01*
X155306132Y-111942309D01*
X155331436Y-111967020D01*
X155331575Y-111967192D01*
X155353378Y-111994102D01*
X155381850Y-112029152D01*
X155410865Y-112064800D01*
X155440556Y-112102263D01*
X155502054Y-112189059D01*
X155553737Y-112277937D01*
X155598922Y-112374977D01*
X155640929Y-112486258D01*
X155646905Y-112503533D01*
X155660652Y-112541535D01*
X155671390Y-112565409D01*
X155681690Y-112578959D01*
X155694124Y-112585990D01*
X155711264Y-112590307D01*
X155777864Y-112613425D01*
X155846658Y-112655702D01*
X155864383Y-112667797D01*
X155883153Y-112674215D01*
X155900423Y-112669158D01*
X155901932Y-112668385D01*
X155933703Y-112659998D01*
X155975022Y-112658174D01*
X156016880Y-112662667D01*
X156050266Y-112673233D01*
X156054803Y-112675764D01*
X156082807Y-112696600D01*
X156108438Y-112722458D01*
X156116579Y-112732319D01*
X156128988Y-112745881D01*
X156132638Y-112744875D01*
X156130263Y-112730280D01*
X156125162Y-112705641D01*
X156114882Y-112654062D01*
X156102110Y-112588424D01*
X156087516Y-112512301D01*
X156071772Y-112429269D01*
X156055547Y-112342901D01*
X156039511Y-112256772D01*
X156024337Y-112174458D01*
X156010693Y-112099532D01*
X155999251Y-112035570D01*
X155990681Y-111986147D01*
X155986607Y-111961907D01*
X155976613Y-111900089D01*
X155970362Y-111853904D01*
X155967971Y-111820066D01*
X155969557Y-111795286D01*
X155975236Y-111776277D01*
X155985125Y-111759750D01*
X155999341Y-111742418D01*
X156021599Y-111726527D01*
X156057049Y-111718734D01*
X156095254Y-111722758D01*
X156129374Y-111737696D01*
X156152566Y-111762645D01*
X156160888Y-111783579D01*
X156173183Y-111822148D01*
X156188362Y-111874748D01*
X156205662Y-111938400D01*
X156224324Y-112010122D01*
X156243587Y-112086932D01*
X156262690Y-112165851D01*
X156280874Y-112243898D01*
X156297378Y-112318091D01*
X156311441Y-112385449D01*
X156338767Y-112527163D01*
X156367131Y-112690254D01*
X156390076Y-112844210D01*
X156408412Y-112994562D01*
X156422949Y-113146840D01*
X156423147Y-113149214D01*
X156430474Y-113229766D01*
X156437821Y-113294067D01*
X156445792Y-113346073D01*
X156454991Y-113389741D01*
X156461998Y-113414699D01*
X156466020Y-113429027D01*
X156473250Y-113451602D01*
X156488328Y-113495027D01*
X156500705Y-113522369D01*
X156512173Y-113536166D01*
X156524519Y-113538956D01*
X156539535Y-113533276D01*
X156553016Y-113528342D01*
X156585884Y-113526336D01*
X156618776Y-113533508D01*
X156642024Y-113548428D01*
X156652218Y-113556582D01*
X156675547Y-113563400D01*
X156683313Y-113564872D01*
X156707580Y-113579555D01*
X156736873Y-113607058D01*
X156767991Y-113643756D01*
X156797729Y-113686021D01*
X156822884Y-113730225D01*
X156850242Y-113793745D01*
X156880662Y-113891464D01*
X156900997Y-113993638D01*
X156906813Y-114063148D01*
X156909203Y-114091720D01*
X156909157Y-114124558D01*
G36*
X148635825Y-108719754D02*
G01*
X148672576Y-108726673D01*
X148685344Y-108729340D01*
X148727645Y-108740198D01*
X148773441Y-108755226D01*
X148824447Y-108775254D01*
X148882379Y-108801108D01*
X148948950Y-108833616D01*
X149025878Y-108873606D01*
X149114876Y-108921905D01*
X149217662Y-108979340D01*
X149335949Y-109046741D01*
X149547222Y-109169189D01*
X150176234Y-109548053D01*
X150802688Y-109946825D01*
X151426288Y-110365282D01*
X152046739Y-110803201D01*
X152663745Y-111260360D01*
X153277011Y-111736537D01*
X153886241Y-112231510D01*
X154491140Y-112745055D01*
X155091411Y-113276950D01*
X155686760Y-113826974D01*
X155762170Y-113898449D01*
X155914499Y-114044786D01*
X156073276Y-114199678D01*
X156236094Y-114360677D01*
X156400546Y-114525338D01*
X156564225Y-114691212D01*
X156724723Y-114855853D01*
X156879634Y-115016816D01*
X157026548Y-115171652D01*
X157163060Y-115317915D01*
X157286763Y-115453160D01*
X157343801Y-115516037D01*
X157466412Y-115649242D01*
X157578772Y-115768240D01*
X157682319Y-115874393D01*
X157778489Y-115969064D01*
X157868720Y-116053616D01*
X157954450Y-116129411D01*
X158037115Y-116197810D01*
X158118153Y-116260177D01*
X158199001Y-116317874D01*
X158232163Y-116339453D01*
X158297055Y-116375577D01*
X158360587Y-116403726D01*
X158418199Y-116422005D01*
X158465330Y-116428520D01*
X158501080Y-116428520D01*
X158501080Y-116293837D01*
X158499578Y-116214031D01*
X158488832Y-116060529D01*
X158467499Y-115897186D01*
X158435292Y-115722315D01*
X158391924Y-115534228D01*
X158337107Y-115331240D01*
X158335271Y-115324935D01*
X158323843Y-115287272D01*
X158307121Y-115233782D01*
X158286000Y-115167260D01*
X158261377Y-115090500D01*
X158234147Y-115006297D01*
X158205205Y-114917447D01*
X158175448Y-114826744D01*
X158123143Y-114667079D01*
X158071435Y-114507163D01*
X158026428Y-114365496D01*
X157987985Y-114241637D01*
X157955969Y-114135143D01*
X157930243Y-114045572D01*
X157910669Y-113972481D01*
X157886785Y-113878642D01*
X157713873Y-113757815D01*
X157662130Y-113721928D01*
X157593076Y-113674663D01*
X157523120Y-113627366D01*
X157458088Y-113583969D01*
X157403800Y-113548404D01*
X157344381Y-113510042D01*
X157285336Y-113471810D01*
X157239980Y-113442038D01*
X157206481Y-113419266D01*
X157183005Y-113402038D01*
X157167717Y-113388893D01*
X157158782Y-113378374D01*
X157154368Y-113369022D01*
X157152639Y-113359379D01*
X157151762Y-113347986D01*
X157151480Y-113336577D01*
X157161052Y-113301261D01*
X157184871Y-113277475D01*
X157219892Y-113268760D01*
X157230606Y-113270957D01*
X157259928Y-113283026D01*
X157302202Y-113304421D01*
X157355112Y-113333772D01*
X157416339Y-113369707D01*
X157483569Y-113410855D01*
X157554484Y-113455843D01*
X157626768Y-113503302D01*
X157698103Y-113551858D01*
X157727835Y-113572440D01*
X157769559Y-113601123D01*
X157803233Y-113624023D01*
X157825986Y-113639191D01*
X157834946Y-113644680D01*
X157835491Y-113643006D01*
X157834250Y-113627667D01*
X157830020Y-113601500D01*
X157819004Y-113531189D01*
X157811117Y-113457075D01*
X157806511Y-113383329D01*
X157805169Y-113313235D01*
X157807078Y-113250077D01*
X157812222Y-113197137D01*
X157820586Y-113157699D01*
X157832155Y-113135045D01*
X157844806Y-113124607D01*
X157873177Y-113116418D01*
X157903450Y-113128014D01*
X157936244Y-113159540D01*
X157946081Y-113171464D01*
X157973080Y-113204185D01*
X158005508Y-113243480D01*
X158038350Y-113283269D01*
X158059910Y-113310168D01*
X158087604Y-113349580D01*
X158101643Y-113379254D01*
X158103000Y-113401624D01*
X158092648Y-113419128D01*
X158086390Y-113424328D01*
X158059282Y-113431353D01*
X158026613Y-113420927D01*
X157990969Y-113393698D01*
X157952440Y-113356076D01*
X157952440Y-113397447D01*
X157952442Y-113398040D01*
X157954826Y-113434094D01*
X157961370Y-113486027D01*
X157971476Y-113550049D01*
X157984546Y-113622371D01*
X157999985Y-113699203D01*
X158016851Y-113779127D01*
X158114186Y-113856203D01*
X158137578Y-113874777D01*
X158255664Y-113970264D01*
X158362403Y-114059547D01*
X158457115Y-114141971D01*
X158539119Y-114216879D01*
X158607738Y-114283615D01*
X158662291Y-114341523D01*
X158702099Y-114389945D01*
X158726482Y-114428226D01*
X158734760Y-114455708D01*
X158730964Y-114480827D01*
X158713672Y-114501541D01*
X158681711Y-114508280D01*
X158678482Y-114508163D01*
X158656872Y-114501636D01*
X158630248Y-114483434D01*
X158595074Y-114451228D01*
X158579286Y-114436138D01*
X158539584Y-114400265D01*
X158494315Y-114361316D01*
X158450512Y-114325412D01*
X158414055Y-114296467D01*
X158333091Y-114232252D01*
X158266244Y-114179358D01*
X158212257Y-114136809D01*
X158169875Y-114103631D01*
X158137840Y-114078849D01*
X158114895Y-114061488D01*
X158099784Y-114050572D01*
X158091250Y-114045127D01*
X158088036Y-114044177D01*
X158088051Y-114047803D01*
X158092911Y-114068834D01*
X158103808Y-114107601D01*
X158120434Y-114163118D01*
X158142478Y-114234399D01*
X158169631Y-114320458D01*
X158201583Y-114420310D01*
X158238025Y-114532968D01*
X158278647Y-114657446D01*
X158323140Y-114792760D01*
X158332132Y-114820053D01*
X158362956Y-114914179D01*
X158393102Y-115007057D01*
X158421612Y-115095682D01*
X158447527Y-115177050D01*
X158469889Y-115248156D01*
X158487740Y-115305995D01*
X158500120Y-115347562D01*
X158502181Y-115354744D01*
X158557126Y-115559859D01*
X158601702Y-115754823D01*
X158635695Y-115938308D01*
X158658888Y-116108986D01*
X158671066Y-116265529D01*
X158672015Y-116406611D01*
X158670664Y-116439275D01*
X158667004Y-116489018D01*
X158660747Y-116525508D01*
X158650470Y-116553391D01*
X158634749Y-116577313D01*
X158612161Y-116601919D01*
X158603898Y-116609171D01*
X158589499Y-116616625D01*
X158569526Y-116620028D01*
X158540376Y-116619485D01*
X158498443Y-116615104D01*
X158440120Y-116606989D01*
X158398135Y-116600266D01*
X158336555Y-116587314D01*
X158280977Y-116570413D01*
X158227153Y-116547665D01*
X158170834Y-116517171D01*
X158107773Y-116477032D01*
X158033720Y-116425350D01*
X157920513Y-116338929D01*
X157796524Y-116234168D01*
X157663672Y-116112556D01*
X157522448Y-115974560D01*
X157373346Y-115820646D01*
X157216856Y-115651280D01*
X157190053Y-115621659D01*
X157077353Y-115497582D01*
X156974475Y-115385225D01*
X156878584Y-115281602D01*
X156786846Y-115183729D01*
X156696429Y-115088618D01*
X156604497Y-114993286D01*
X156508218Y-114894746D01*
X156404757Y-114790011D01*
X156291280Y-114676098D01*
X155743321Y-114139222D01*
X155130101Y-113564617D01*
X154506739Y-113007581D01*
X153873130Y-112468029D01*
X153229166Y-111945881D01*
X152574740Y-111441053D01*
X151909746Y-110953464D01*
X151234076Y-110483031D01*
X150547624Y-110029672D01*
X149850283Y-109593304D01*
X149141945Y-109173846D01*
X149133324Y-109168878D01*
X149060154Y-109126354D01*
X148987790Y-109083722D01*
X148919606Y-109043009D01*
X148858975Y-109006242D01*
X148809271Y-108975448D01*
X148773867Y-108952654D01*
X148723405Y-108917615D01*
X148673171Y-108879953D01*
X148629572Y-108844435D01*
X148595211Y-108813294D01*
X148572686Y-108788760D01*
X148564601Y-108773066D01*
X148569847Y-108757589D01*
X148583676Y-108736414D01*
X148589396Y-108729541D01*
X148599797Y-108720578D01*
X148613420Y-108717519D01*
X148635825Y-108719754D01*
G37*
X148635825Y-108719754D02*
X148672576Y-108726673D01*
X148685344Y-108729340D01*
X148727645Y-108740198D01*
X148773441Y-108755226D01*
X148824447Y-108775254D01*
X148882379Y-108801108D01*
X148948950Y-108833616D01*
X149025878Y-108873606D01*
X149114876Y-108921905D01*
X149217662Y-108979340D01*
X149335949Y-109046741D01*
X149547222Y-109169189D01*
X150176234Y-109548053D01*
X150802688Y-109946825D01*
X151426288Y-110365282D01*
X152046739Y-110803201D01*
X152663745Y-111260360D01*
X153277011Y-111736537D01*
X153886241Y-112231510D01*
X154491140Y-112745055D01*
X155091411Y-113276950D01*
X155686760Y-113826974D01*
X155762170Y-113898449D01*
X155914499Y-114044786D01*
X156073276Y-114199678D01*
X156236094Y-114360677D01*
X156400546Y-114525338D01*
X156564225Y-114691212D01*
X156724723Y-114855853D01*
X156879634Y-115016816D01*
X157026548Y-115171652D01*
X157163060Y-115317915D01*
X157286763Y-115453160D01*
X157343801Y-115516037D01*
X157466412Y-115649242D01*
X157578772Y-115768240D01*
X157682319Y-115874393D01*
X157778489Y-115969064D01*
X157868720Y-116053616D01*
X157954450Y-116129411D01*
X158037115Y-116197810D01*
X158118153Y-116260177D01*
X158199001Y-116317874D01*
X158232163Y-116339453D01*
X158297055Y-116375577D01*
X158360587Y-116403726D01*
X158418199Y-116422005D01*
X158465330Y-116428520D01*
X158501080Y-116428520D01*
X158501080Y-116293837D01*
X158499578Y-116214031D01*
X158488832Y-116060529D01*
X158467499Y-115897186D01*
X158435292Y-115722315D01*
X158391924Y-115534228D01*
X158337107Y-115331240D01*
X158335271Y-115324935D01*
X158323843Y-115287272D01*
X158307121Y-115233782D01*
X158286000Y-115167260D01*
X158261377Y-115090500D01*
X158234147Y-115006297D01*
X158205205Y-114917447D01*
X158175448Y-114826744D01*
X158123143Y-114667079D01*
X158071435Y-114507163D01*
X158026428Y-114365496D01*
X157987985Y-114241637D01*
X157955969Y-114135143D01*
X157930243Y-114045572D01*
X157910669Y-113972481D01*
X157886785Y-113878642D01*
X157713873Y-113757815D01*
X157662130Y-113721928D01*
X157593076Y-113674663D01*
X157523120Y-113627366D01*
X157458088Y-113583969D01*
X157403800Y-113548404D01*
X157344381Y-113510042D01*
X157285336Y-113471810D01*
X157239980Y-113442038D01*
X157206481Y-113419266D01*
X157183005Y-113402038D01*
X157167717Y-113388893D01*
X157158782Y-113378374D01*
X157154368Y-113369022D01*
X157152639Y-113359379D01*
X157151762Y-113347986D01*
X157151480Y-113336577D01*
X157161052Y-113301261D01*
X157184871Y-113277475D01*
X157219892Y-113268760D01*
X157230606Y-113270957D01*
X157259928Y-113283026D01*
X157302202Y-113304421D01*
X157355112Y-113333772D01*
X157416339Y-113369707D01*
X157483569Y-113410855D01*
X157554484Y-113455843D01*
X157626768Y-113503302D01*
X157698103Y-113551858D01*
X157727835Y-113572440D01*
X157769559Y-113601123D01*
X157803233Y-113624023D01*
X157825986Y-113639191D01*
X157834946Y-113644680D01*
X157835491Y-113643006D01*
X157834250Y-113627667D01*
X157830020Y-113601500D01*
X157819004Y-113531189D01*
X157811117Y-113457075D01*
X157806511Y-113383329D01*
X157805169Y-113313235D01*
X157807078Y-113250077D01*
X157812222Y-113197137D01*
X157820586Y-113157699D01*
X157832155Y-113135045D01*
X157844806Y-113124607D01*
X157873177Y-113116418D01*
X157903450Y-113128014D01*
X157936244Y-113159540D01*
X157946081Y-113171464D01*
X157973080Y-113204185D01*
X158005508Y-113243480D01*
X158038350Y-113283269D01*
X158059910Y-113310168D01*
X158087604Y-113349580D01*
X158101643Y-113379254D01*
X158103000Y-113401624D01*
X158092648Y-113419128D01*
X158086390Y-113424328D01*
X158059282Y-113431353D01*
X158026613Y-113420927D01*
X157990969Y-113393698D01*
X157952440Y-113356076D01*
X157952440Y-113397447D01*
X157952442Y-113398040D01*
X157954826Y-113434094D01*
X157961370Y-113486027D01*
X157971476Y-113550049D01*
X157984546Y-113622371D01*
X157999985Y-113699203D01*
X158016851Y-113779127D01*
X158114186Y-113856203D01*
X158137578Y-113874777D01*
X158255664Y-113970264D01*
X158362403Y-114059547D01*
X158457115Y-114141971D01*
X158539119Y-114216879D01*
X158607738Y-114283615D01*
X158662291Y-114341523D01*
X158702099Y-114389945D01*
X158726482Y-114428226D01*
X158734760Y-114455708D01*
X158730964Y-114480827D01*
X158713672Y-114501541D01*
X158681711Y-114508280D01*
X158678482Y-114508163D01*
X158656872Y-114501636D01*
X158630248Y-114483434D01*
X158595074Y-114451228D01*
X158579286Y-114436138D01*
X158539584Y-114400265D01*
X158494315Y-114361316D01*
X158450512Y-114325412D01*
X158414055Y-114296467D01*
X158333091Y-114232252D01*
X158266244Y-114179358D01*
X158212257Y-114136809D01*
X158169875Y-114103631D01*
X158137840Y-114078849D01*
X158114895Y-114061488D01*
X158099784Y-114050572D01*
X158091250Y-114045127D01*
X158088036Y-114044177D01*
X158088051Y-114047803D01*
X158092911Y-114068834D01*
X158103808Y-114107601D01*
X158120434Y-114163118D01*
X158142478Y-114234399D01*
X158169631Y-114320458D01*
X158201583Y-114420310D01*
X158238025Y-114532968D01*
X158278647Y-114657446D01*
X158323140Y-114792760D01*
X158332132Y-114820053D01*
X158362956Y-114914179D01*
X158393102Y-115007057D01*
X158421612Y-115095682D01*
X158447527Y-115177050D01*
X158469889Y-115248156D01*
X158487740Y-115305995D01*
X158500120Y-115347562D01*
X158502181Y-115354744D01*
X158557126Y-115559859D01*
X158601702Y-115754823D01*
X158635695Y-115938308D01*
X158658888Y-116108986D01*
X158671066Y-116265529D01*
X158672015Y-116406611D01*
X158670664Y-116439275D01*
X158667004Y-116489018D01*
X158660747Y-116525508D01*
X158650470Y-116553391D01*
X158634749Y-116577313D01*
X158612161Y-116601919D01*
X158603898Y-116609171D01*
X158589499Y-116616625D01*
X158569526Y-116620028D01*
X158540376Y-116619485D01*
X158498443Y-116615104D01*
X158440120Y-116606989D01*
X158398135Y-116600266D01*
X158336555Y-116587314D01*
X158280977Y-116570413D01*
X158227153Y-116547665D01*
X158170834Y-116517171D01*
X158107773Y-116477032D01*
X158033720Y-116425350D01*
X157920513Y-116338929D01*
X157796524Y-116234168D01*
X157663672Y-116112556D01*
X157522448Y-115974560D01*
X157373346Y-115820646D01*
X157216856Y-115651280D01*
X157190053Y-115621659D01*
X157077353Y-115497582D01*
X156974475Y-115385225D01*
X156878584Y-115281602D01*
X156786846Y-115183729D01*
X156696429Y-115088618D01*
X156604497Y-114993286D01*
X156508218Y-114894746D01*
X156404757Y-114790011D01*
X156291280Y-114676098D01*
X155743321Y-114139222D01*
X155130101Y-113564617D01*
X154506739Y-113007581D01*
X153873130Y-112468029D01*
X153229166Y-111945881D01*
X152574740Y-111441053D01*
X151909746Y-110953464D01*
X151234076Y-110483031D01*
X150547624Y-110029672D01*
X149850283Y-109593304D01*
X149141945Y-109173846D01*
X149133324Y-109168878D01*
X149060154Y-109126354D01*
X148987790Y-109083722D01*
X148919606Y-109043009D01*
X148858975Y-109006242D01*
X148809271Y-108975448D01*
X148773867Y-108952654D01*
X148723405Y-108917615D01*
X148673171Y-108879953D01*
X148629572Y-108844435D01*
X148595211Y-108813294D01*
X148572686Y-108788760D01*
X148564601Y-108773066D01*
X148569847Y-108757589D01*
X148583676Y-108736414D01*
X148589396Y-108729541D01*
X148599797Y-108720578D01*
X148613420Y-108717519D01*
X148635825Y-108719754D01*
G36*
X157585564Y-108860368D02*
G01*
X157642806Y-108870464D01*
X157707102Y-108888826D01*
X157763002Y-108909559D01*
X157834069Y-108939073D01*
X157917222Y-108975913D01*
X158009664Y-109018716D01*
X158108596Y-109066121D01*
X158211221Y-109116767D01*
X158314740Y-109169293D01*
X158416355Y-109222337D01*
X158513268Y-109274539D01*
X158602680Y-109324536D01*
X158649824Y-109351779D01*
X158738998Y-109404998D01*
X158829582Y-109461411D01*
X158923619Y-109522403D01*
X159023150Y-109589361D01*
X159130219Y-109663667D01*
X159246869Y-109746709D01*
X159375142Y-109839870D01*
X159517080Y-109944535D01*
X159520379Y-109946983D01*
X159591250Y-109999700D01*
X159653784Y-110046576D01*
X159710634Y-110089714D01*
X159764455Y-110131217D01*
X159817901Y-110173186D01*
X159873626Y-110217724D01*
X159934284Y-110266933D01*
X160002530Y-110322916D01*
X160081017Y-110387775D01*
X160172400Y-110463612D01*
X160240872Y-110520678D01*
X160368447Y-110628116D01*
X160480974Y-110724593D01*
X160579286Y-110810907D01*
X160664216Y-110887852D01*
X160736596Y-110956226D01*
X160797259Y-111016825D01*
X160847036Y-111070445D01*
X160886760Y-111117882D01*
X160917263Y-111159934D01*
X160939378Y-111197396D01*
X160951429Y-111221069D01*
X160963421Y-111247188D01*
X160967559Y-111264111D01*
X160964797Y-111277239D01*
X160956091Y-111291973D01*
X160951308Y-111298818D01*
X160932636Y-111314252D01*
X160905835Y-111316097D01*
X160892493Y-111313709D01*
X160874922Y-111304563D01*
X160856652Y-111285296D01*
X160833260Y-111252000D01*
X160817921Y-111229912D01*
X160789592Y-111193714D01*
X160754683Y-111154134D01*
X160712116Y-111110201D01*
X160660810Y-111060940D01*
X160599688Y-111005377D01*
X160527668Y-110942541D01*
X160443672Y-110871456D01*
X160346620Y-110791151D01*
X160235432Y-110700652D01*
X160109030Y-110598984D01*
X160080582Y-110576222D01*
X159972861Y-110490357D01*
X159876312Y-110414066D01*
X159787448Y-110344709D01*
X159702782Y-110279647D01*
X159618827Y-110216241D01*
X159532095Y-110151851D01*
X159439100Y-110083839D01*
X159336354Y-110009564D01*
X159220371Y-109926389D01*
X159184645Y-109900886D01*
X159067387Y-109817975D01*
X158962526Y-109745269D01*
X158867271Y-109680936D01*
X158778831Y-109623142D01*
X158694413Y-109570054D01*
X158611226Y-109519839D01*
X158526480Y-109470663D01*
X158520617Y-109467331D01*
X158441120Y-109423466D01*
X158347945Y-109374053D01*
X158245020Y-109321026D01*
X158136269Y-109266319D01*
X158025620Y-109211866D01*
X157916999Y-109159601D01*
X157814331Y-109111457D01*
X157721543Y-109069368D01*
X157642560Y-109035270D01*
X157642172Y-109035108D01*
X157571672Y-109002321D01*
X157521042Y-108970846D01*
X157489901Y-108940313D01*
X157477872Y-108910350D01*
X157484574Y-108880586D01*
X157503575Y-108865395D01*
X157538209Y-108858644D01*
X157585564Y-108860368D01*
G37*
X157585564Y-108860368D02*
X157642806Y-108870464D01*
X157707102Y-108888826D01*
X157763002Y-108909559D01*
X157834069Y-108939073D01*
X157917222Y-108975913D01*
X158009664Y-109018716D01*
X158108596Y-109066121D01*
X158211221Y-109116767D01*
X158314740Y-109169293D01*
X158416355Y-109222337D01*
X158513268Y-109274539D01*
X158602680Y-109324536D01*
X158649824Y-109351779D01*
X158738998Y-109404998D01*
X158829582Y-109461411D01*
X158923619Y-109522403D01*
X159023150Y-109589361D01*
X159130219Y-109663667D01*
X159246869Y-109746709D01*
X159375142Y-109839870D01*
X159517080Y-109944535D01*
X159520379Y-109946983D01*
X159591250Y-109999700D01*
X159653784Y-110046576D01*
X159710634Y-110089714D01*
X159764455Y-110131217D01*
X159817901Y-110173186D01*
X159873626Y-110217724D01*
X159934284Y-110266933D01*
X160002530Y-110322916D01*
X160081017Y-110387775D01*
X160172400Y-110463612D01*
X160240872Y-110520678D01*
X160368447Y-110628116D01*
X160480974Y-110724593D01*
X160579286Y-110810907D01*
X160664216Y-110887852D01*
X160736596Y-110956226D01*
X160797259Y-111016825D01*
X160847036Y-111070445D01*
X160886760Y-111117882D01*
X160917263Y-111159934D01*
X160939378Y-111197396D01*
X160951429Y-111221069D01*
X160963421Y-111247188D01*
X160967559Y-111264111D01*
X160964797Y-111277239D01*
X160956091Y-111291973D01*
X160951308Y-111298818D01*
X160932636Y-111314252D01*
X160905835Y-111316097D01*
X160892493Y-111313709D01*
X160874922Y-111304563D01*
X160856652Y-111285296D01*
X160833260Y-111252000D01*
X160817921Y-111229912D01*
X160789592Y-111193714D01*
X160754683Y-111154134D01*
X160712116Y-111110201D01*
X160660810Y-111060940D01*
X160599688Y-111005377D01*
X160527668Y-110942541D01*
X160443672Y-110871456D01*
X160346620Y-110791151D01*
X160235432Y-110700652D01*
X160109030Y-110598984D01*
X160080582Y-110576222D01*
X159972861Y-110490357D01*
X159876312Y-110414066D01*
X159787448Y-110344709D01*
X159702782Y-110279647D01*
X159618827Y-110216241D01*
X159532095Y-110151851D01*
X159439100Y-110083839D01*
X159336354Y-110009564D01*
X159220371Y-109926389D01*
X159184645Y-109900886D01*
X159067387Y-109817975D01*
X158962526Y-109745269D01*
X158867271Y-109680936D01*
X158778831Y-109623142D01*
X158694413Y-109570054D01*
X158611226Y-109519839D01*
X158526480Y-109470663D01*
X158520617Y-109467331D01*
X158441120Y-109423466D01*
X158347945Y-109374053D01*
X158245020Y-109321026D01*
X158136269Y-109266319D01*
X158025620Y-109211866D01*
X157916999Y-109159601D01*
X157814331Y-109111457D01*
X157721543Y-109069368D01*
X157642560Y-109035270D01*
X157642172Y-109035108D01*
X157571672Y-109002321D01*
X157521042Y-108970846D01*
X157489901Y-108940313D01*
X157477872Y-108910350D01*
X157484574Y-108880586D01*
X157503575Y-108865395D01*
X157538209Y-108858644D01*
X157585564Y-108860368D01*
%TD*%
M02*
