G04 #@! TF.GenerationSoftware,KiCad,Pcbnew,7.0.2*
G04 #@! TF.CreationDate,2024-09-16T15:05:58-05:00*
G04 #@! TF.ProjectId,PDM v3.0,50444d20-7633-42e3-902e-6b696361645f,rev?*
G04 #@! TF.SameCoordinates,Original*
G04 #@! TF.FileFunction,Legend,Bot*
G04 #@! TF.FilePolarity,Positive*
%FSLAX46Y46*%
G04 Gerber Fmt 4.6, Leading zero omitted, Abs format (unit mm)*
G04 Created by KiCad (PCBNEW 7.0.2) date 2024-09-16 15:05:58*
%MOMM*%
%LPD*%
G01*
G04 APERTURE LIST*
G04 Aperture macros list*
%AMRoundRect*
0 Rectangle with rounded corners*
0 $1 Rounding radius*
0 $2 $3 $4 $5 $6 $7 $8 $9 X,Y pos of 4 corners*
0 Add a 4 corners polygon primitive as box body*
4,1,4,$2,$3,$4,$5,$6,$7,$8,$9,$2,$3,0*
0 Add four circle primitives for the rounded corners*
1,1,$1+$1,$2,$3*
1,1,$1+$1,$4,$5*
1,1,$1+$1,$6,$7*
1,1,$1+$1,$8,$9*
0 Add four rect primitives between the rounded corners*
20,1,$1+$1,$2,$3,$4,$5,0*
20,1,$1+$1,$4,$5,$6,$7,0*
20,1,$1+$1,$6,$7,$8,$9,0*
20,1,$1+$1,$8,$9,$2,$3,0*%
%AMFreePoly0*
4,1,19,0.500000,-0.750000,0.000000,-0.750000,0.000000,-0.744911,-0.071157,-0.744911,-0.207708,-0.704816,-0.327430,-0.627875,-0.420627,-0.520320,-0.479746,-0.390866,-0.500000,-0.250000,-0.500000,0.250000,-0.479746,0.390866,-0.420627,0.520320,-0.327430,0.627875,-0.207708,0.704816,-0.071157,0.744911,0.000000,0.744911,0.000000,0.750000,0.500000,0.750000,0.500000,-0.750000,0.500000,-0.750000,
$1*%
%AMFreePoly1*
4,1,19,0.000000,0.744911,0.071157,0.744911,0.207708,0.704816,0.327430,0.627875,0.420627,0.520320,0.479746,0.390866,0.500000,0.250000,0.500000,-0.250000,0.479746,-0.390866,0.420627,-0.520320,0.327430,-0.627875,0.207708,-0.704816,0.071157,-0.744911,0.000000,-0.744911,0.000000,-0.750000,-0.500000,-0.750000,-0.500000,0.750000,0.000000,0.750000,0.000000,0.744911,0.000000,0.744911,
$1*%
%AMFreePoly2*
4,1,21,1.372500,0.787500,0.862500,0.787500,0.862500,0.532500,1.372500,0.532500,1.372500,0.127500,0.862500,0.127500,0.862500,-0.127500,1.372500,-0.127500,1.372500,-0.532500,0.862500,-0.532500,0.862500,-0.787500,1.372500,-0.787500,1.372500,-1.195000,0.612500,-1.195000,0.612500,-1.117500,-0.862500,-1.117500,-0.862500,1.117500,0.612500,1.117500,0.612500,1.195000,1.372500,1.195000,
1.372500,0.787500,1.372500,0.787500,$1*%
G04 Aperture macros list end*
%ADD10C,0.150000*%
%ADD11C,0.120000*%
%ADD12C,0.751000*%
%ADD13C,12.800000*%
%ADD14C,2.374900*%
%ADD15C,0.990600*%
%ADD16C,3.200000*%
%ADD17C,3.700000*%
%ADD18C,1.400000*%
%ADD19C,3.300000*%
%ADD20RoundRect,0.102000X-0.975000X-0.975000X0.975000X-0.975000X0.975000X0.975000X-0.975000X0.975000X0*%
%ADD21C,2.154000*%
%ADD22O,1.700000X1.700000*%
%ADD23O,1.350000X1.350000*%
%ADD24C,1.420000*%
%ADD25RoundRect,0.200000X0.200000X0.275000X-0.200000X0.275000X-0.200000X-0.275000X0.200000X-0.275000X0*%
%ADD26RoundRect,0.200000X-0.275000X0.200000X-0.275000X-0.200000X0.275000X-0.200000X0.275000X0.200000X0*%
%ADD27RoundRect,0.200000X0.275000X-0.200000X0.275000X0.200000X-0.275000X0.200000X-0.275000X-0.200000X0*%
%ADD28RoundRect,0.225000X-0.225000X-0.250000X0.225000X-0.250000X0.225000X0.250000X-0.225000X0.250000X0*%
%ADD29RoundRect,0.225000X0.250000X-0.225000X0.250000X0.225000X-0.250000X0.225000X-0.250000X-0.225000X0*%
%ADD30RoundRect,0.225000X0.225000X0.250000X-0.225000X0.250000X-0.225000X-0.250000X0.225000X-0.250000X0*%
%ADD31RoundRect,0.200000X-0.200000X-0.275000X0.200000X-0.275000X0.200000X0.275000X-0.200000X0.275000X0*%
%ADD32RoundRect,0.225000X-0.250000X0.225000X-0.250000X-0.225000X0.250000X-0.225000X0.250000X0.225000X0*%
%ADD33R,1.450000X0.450000*%
%ADD34RoundRect,0.150000X0.587500X0.150000X-0.587500X0.150000X-0.587500X-0.150000X0.587500X-0.150000X0*%
%ADD35R,0.650000X0.400000*%
%ADD36R,1.200000X1.400000*%
%ADD37RoundRect,0.140000X-0.140000X-0.170000X0.140000X-0.170000X0.140000X0.170000X-0.140000X0.170000X0*%
%ADD38RoundRect,0.150000X0.825000X0.150000X-0.825000X0.150000X-0.825000X-0.150000X0.825000X-0.150000X0*%
%ADD39R,0.400000X0.650000*%
%ADD40R,2.000000X1.500000*%
%ADD41R,2.000000X3.800000*%
%ADD42RoundRect,0.150000X0.150000X-0.512500X0.150000X0.512500X-0.150000X0.512500X-0.150000X-0.512500X0*%
%ADD43RoundRect,0.140000X0.140000X0.170000X-0.140000X0.170000X-0.140000X-0.170000X0.140000X-0.170000X0*%
%ADD44FreePoly0,90.000000*%
%ADD45FreePoly1,90.000000*%
%ADD46RoundRect,0.150000X-0.587500X-0.150000X0.587500X-0.150000X0.587500X0.150000X-0.587500X0.150000X0*%
%ADD47RoundRect,0.250000X-0.250000X-0.475000X0.250000X-0.475000X0.250000X0.475000X-0.250000X0.475000X0*%
%ADD48RoundRect,0.150000X-0.825000X-0.150000X0.825000X-0.150000X0.825000X0.150000X-0.825000X0.150000X0*%
%ADD49RoundRect,0.075000X-0.075000X0.725000X-0.075000X-0.725000X0.075000X-0.725000X0.075000X0.725000X0*%
%ADD50RoundRect,0.075000X-0.725000X0.075000X-0.725000X-0.075000X0.725000X-0.075000X0.725000X0.075000X0*%
%ADD51R,0.405000X0.990000*%
%ADD52FreePoly2,90.000000*%
G04 APERTURE END LIST*
D10*
X165959047Y-59346799D02*
X165928809Y-59316561D01*
X165928809Y-59316561D02*
X165868333Y-59286323D01*
X165868333Y-59286323D02*
X165717142Y-59286323D01*
X165717142Y-59286323D02*
X165656666Y-59316561D01*
X165656666Y-59316561D02*
X165626428Y-59346799D01*
X165626428Y-59346799D02*
X165596190Y-59407275D01*
X165596190Y-59407275D02*
X165596190Y-59467751D01*
X165596190Y-59467751D02*
X165626428Y-59558465D01*
X165626428Y-59558465D02*
X165989285Y-59921323D01*
X165989285Y-59921323D02*
X165596190Y-59921323D01*
X165203095Y-59286323D02*
X165142618Y-59286323D01*
X165142618Y-59286323D02*
X165082142Y-59316561D01*
X165082142Y-59316561D02*
X165051904Y-59346799D01*
X165051904Y-59346799D02*
X165021666Y-59407275D01*
X165021666Y-59407275D02*
X164991428Y-59528227D01*
X164991428Y-59528227D02*
X164991428Y-59679418D01*
X164991428Y-59679418D02*
X165021666Y-59800370D01*
X165021666Y-59800370D02*
X165051904Y-59860846D01*
X165051904Y-59860846D02*
X165082142Y-59891085D01*
X165082142Y-59891085D02*
X165142618Y-59921323D01*
X165142618Y-59921323D02*
X165203095Y-59921323D01*
X165203095Y-59921323D02*
X165263571Y-59891085D01*
X165263571Y-59891085D02*
X165293809Y-59860846D01*
X165293809Y-59860846D02*
X165324047Y-59800370D01*
X165324047Y-59800370D02*
X165354285Y-59679418D01*
X165354285Y-59679418D02*
X165354285Y-59528227D01*
X165354285Y-59528227D02*
X165324047Y-59407275D01*
X165324047Y-59407275D02*
X165293809Y-59346799D01*
X165293809Y-59346799D02*
X165263571Y-59316561D01*
X165263571Y-59316561D02*
X165203095Y-59286323D01*
X164749523Y-59346799D02*
X164719285Y-59316561D01*
X164719285Y-59316561D02*
X164658809Y-59286323D01*
X164658809Y-59286323D02*
X164507618Y-59286323D01*
X164507618Y-59286323D02*
X164447142Y-59316561D01*
X164447142Y-59316561D02*
X164416904Y-59346799D01*
X164416904Y-59346799D02*
X164386666Y-59407275D01*
X164386666Y-59407275D02*
X164386666Y-59467751D01*
X164386666Y-59467751D02*
X164416904Y-59558465D01*
X164416904Y-59558465D02*
X164779761Y-59921323D01*
X164779761Y-59921323D02*
X164386666Y-59921323D01*
X163812142Y-59286323D02*
X164114523Y-59286323D01*
X164114523Y-59286323D02*
X164144761Y-59588704D01*
X164144761Y-59588704D02*
X164114523Y-59558465D01*
X164114523Y-59558465D02*
X164054047Y-59528227D01*
X164054047Y-59528227D02*
X163902856Y-59528227D01*
X163902856Y-59528227D02*
X163842380Y-59558465D01*
X163842380Y-59558465D02*
X163812142Y-59588704D01*
X163812142Y-59588704D02*
X163781904Y-59649180D01*
X163781904Y-59649180D02*
X163781904Y-59800370D01*
X163781904Y-59800370D02*
X163812142Y-59860846D01*
X163812142Y-59860846D02*
X163842380Y-59891085D01*
X163842380Y-59891085D02*
X163902856Y-59921323D01*
X163902856Y-59921323D02*
X164054047Y-59921323D01*
X164054047Y-59921323D02*
X164114523Y-59891085D01*
X164114523Y-59891085D02*
X164144761Y-59860846D01*
X166770596Y-57031323D02*
X166982263Y-56728942D01*
X167133453Y-57031323D02*
X167133453Y-56396323D01*
X167133453Y-56396323D02*
X166891548Y-56396323D01*
X166891548Y-56396323D02*
X166831072Y-56426561D01*
X166831072Y-56426561D02*
X166800834Y-56456799D01*
X166800834Y-56456799D02*
X166770596Y-56517275D01*
X166770596Y-56517275D02*
X166770596Y-56607989D01*
X166770596Y-56607989D02*
X166800834Y-56668465D01*
X166800834Y-56668465D02*
X166831072Y-56698704D01*
X166831072Y-56698704D02*
X166891548Y-56728942D01*
X166891548Y-56728942D02*
X167133453Y-56728942D01*
X166558929Y-56607989D02*
X166407739Y-57031323D01*
X166256548Y-56607989D02*
X166407739Y-57031323D01*
X166407739Y-57031323D02*
X166468215Y-57182513D01*
X166468215Y-57182513D02*
X166498453Y-57212751D01*
X166498453Y-57212751D02*
X166558929Y-57242989D01*
X165742500Y-57031323D02*
X165742500Y-56698704D01*
X165742500Y-56698704D02*
X165772738Y-56638227D01*
X165772738Y-56638227D02*
X165833214Y-56607989D01*
X165833214Y-56607989D02*
X165954167Y-56607989D01*
X165954167Y-56607989D02*
X166014643Y-56638227D01*
X165742500Y-57001085D02*
X165802976Y-57031323D01*
X165802976Y-57031323D02*
X165954167Y-57031323D01*
X165954167Y-57031323D02*
X166014643Y-57001085D01*
X166014643Y-57001085D02*
X166044881Y-56940608D01*
X166044881Y-56940608D02*
X166044881Y-56880132D01*
X166044881Y-56880132D02*
X166014643Y-56819656D01*
X166014643Y-56819656D02*
X165954167Y-56789418D01*
X165954167Y-56789418D02*
X165802976Y-56789418D01*
X165802976Y-56789418D02*
X165742500Y-56759180D01*
X165440119Y-56607989D02*
X165440119Y-57031323D01*
X165440119Y-56668465D02*
X165409881Y-56638227D01*
X165409881Y-56638227D02*
X165349405Y-56607989D01*
X165349405Y-56607989D02*
X165258690Y-56607989D01*
X165258690Y-56607989D02*
X165198214Y-56638227D01*
X165198214Y-56638227D02*
X165167976Y-56698704D01*
X165167976Y-56698704D02*
X165167976Y-57031323D01*
X164170118Y-56698704D02*
X164381785Y-56698704D01*
X164381785Y-57031323D02*
X164381785Y-56396323D01*
X164381785Y-56396323D02*
X164079404Y-56396323D01*
X163746785Y-57031323D02*
X163807261Y-57001085D01*
X163807261Y-57001085D02*
X163837499Y-56940608D01*
X163837499Y-56940608D02*
X163837499Y-56396323D01*
X163504880Y-57031323D02*
X163504880Y-56607989D01*
X163504880Y-56396323D02*
X163535118Y-56426561D01*
X163535118Y-56426561D02*
X163504880Y-56456799D01*
X163504880Y-56456799D02*
X163474642Y-56426561D01*
X163474642Y-56426561D02*
X163504880Y-56396323D01*
X163504880Y-56396323D02*
X163504880Y-56456799D01*
X162930356Y-57001085D02*
X162990832Y-57031323D01*
X162990832Y-57031323D02*
X163111785Y-57031323D01*
X163111785Y-57031323D02*
X163172261Y-57001085D01*
X163172261Y-57001085D02*
X163202499Y-56970846D01*
X163202499Y-56970846D02*
X163232737Y-56910370D01*
X163232737Y-56910370D02*
X163232737Y-56728942D01*
X163232737Y-56728942D02*
X163202499Y-56668465D01*
X163202499Y-56668465D02*
X163172261Y-56638227D01*
X163172261Y-56638227D02*
X163111785Y-56607989D01*
X163111785Y-56607989D02*
X162990832Y-56607989D01*
X162990832Y-56607989D02*
X162930356Y-56638227D01*
X162658213Y-57031323D02*
X162658213Y-56396323D01*
X162597737Y-56789418D02*
X162416308Y-57031323D01*
X162416308Y-56607989D02*
X162658213Y-56849894D01*
X127062661Y-126280395D02*
X126586471Y-126280395D01*
X127157899Y-126566110D02*
X126824566Y-125566110D01*
X126824566Y-125566110D02*
X126491233Y-126566110D01*
X125395994Y-126566110D02*
X125395994Y-125566110D01*
X124824566Y-126566110D02*
X125253137Y-125994681D01*
X124824566Y-125566110D02*
X125395994Y-126137538D01*
X124015042Y-126518491D02*
X124110280Y-126566110D01*
X124110280Y-126566110D02*
X124300756Y-126566110D01*
X124300756Y-126566110D02*
X124395994Y-126518491D01*
X124395994Y-126518491D02*
X124443613Y-126423252D01*
X124443613Y-126423252D02*
X124443613Y-126042300D01*
X124443613Y-126042300D02*
X124395994Y-125947062D01*
X124395994Y-125947062D02*
X124300756Y-125899443D01*
X124300756Y-125899443D02*
X124110280Y-125899443D01*
X124110280Y-125899443D02*
X124015042Y-125947062D01*
X124015042Y-125947062D02*
X123967423Y-126042300D01*
X123967423Y-126042300D02*
X123967423Y-126137538D01*
X123967423Y-126137538D02*
X124443613Y-126232776D01*
X123634089Y-125899443D02*
X123395994Y-126566110D01*
X123157899Y-125899443D02*
X123395994Y-126566110D01*
X123395994Y-126566110D02*
X123491232Y-126804205D01*
X123491232Y-126804205D02*
X123538851Y-126851824D01*
X123538851Y-126851824D02*
X123634089Y-126899443D01*
X122395994Y-126518491D02*
X122491232Y-126566110D01*
X122491232Y-126566110D02*
X122681708Y-126566110D01*
X122681708Y-126566110D02*
X122776946Y-126518491D01*
X122776946Y-126518491D02*
X122824565Y-126423252D01*
X122824565Y-126423252D02*
X122824565Y-126042300D01*
X122824565Y-126042300D02*
X122776946Y-125947062D01*
X122776946Y-125947062D02*
X122681708Y-125899443D01*
X122681708Y-125899443D02*
X122491232Y-125899443D01*
X122491232Y-125899443D02*
X122395994Y-125947062D01*
X122395994Y-125947062D02*
X122348375Y-126042300D01*
X122348375Y-126042300D02*
X122348375Y-126137538D01*
X122348375Y-126137538D02*
X122824565Y-126232776D01*
X121491232Y-126566110D02*
X121491232Y-125566110D01*
X121491232Y-126518491D02*
X121586470Y-126566110D01*
X121586470Y-126566110D02*
X121776946Y-126566110D01*
X121776946Y-126566110D02*
X121872184Y-126518491D01*
X121872184Y-126518491D02*
X121919803Y-126470871D01*
X121919803Y-126470871D02*
X121967422Y-126375633D01*
X121967422Y-126375633D02*
X121967422Y-126089919D01*
X121967422Y-126089919D02*
X121919803Y-125994681D01*
X121919803Y-125994681D02*
X121872184Y-125947062D01*
X121872184Y-125947062D02*
X121776946Y-125899443D01*
X121776946Y-125899443D02*
X121586470Y-125899443D01*
X121586470Y-125899443D02*
X121491232Y-125947062D01*
X173953137Y-126042300D02*
X173810280Y-126089919D01*
X173810280Y-126089919D02*
X173762661Y-126137538D01*
X173762661Y-126137538D02*
X173715042Y-126232776D01*
X173715042Y-126232776D02*
X173715042Y-126375633D01*
X173715042Y-126375633D02*
X173762661Y-126470871D01*
X173762661Y-126470871D02*
X173810280Y-126518491D01*
X173810280Y-126518491D02*
X173905518Y-126566110D01*
X173905518Y-126566110D02*
X174286470Y-126566110D01*
X174286470Y-126566110D02*
X174286470Y-125566110D01*
X174286470Y-125566110D02*
X173953137Y-125566110D01*
X173953137Y-125566110D02*
X173857899Y-125613729D01*
X173857899Y-125613729D02*
X173810280Y-125661348D01*
X173810280Y-125661348D02*
X173762661Y-125756586D01*
X173762661Y-125756586D02*
X173762661Y-125851824D01*
X173762661Y-125851824D02*
X173810280Y-125947062D01*
X173810280Y-125947062D02*
X173857899Y-125994681D01*
X173857899Y-125994681D02*
X173953137Y-126042300D01*
X173953137Y-126042300D02*
X174286470Y-126042300D01*
X172524565Y-126566110D02*
X172524565Y-125566110D01*
X171953137Y-126566110D02*
X172381708Y-125994681D01*
X171953137Y-125566110D02*
X172524565Y-126137538D01*
X171143613Y-126518491D02*
X171238851Y-126566110D01*
X171238851Y-126566110D02*
X171429327Y-126566110D01*
X171429327Y-126566110D02*
X171524565Y-126518491D01*
X171524565Y-126518491D02*
X171572184Y-126423252D01*
X171572184Y-126423252D02*
X171572184Y-126042300D01*
X171572184Y-126042300D02*
X171524565Y-125947062D01*
X171524565Y-125947062D02*
X171429327Y-125899443D01*
X171429327Y-125899443D02*
X171238851Y-125899443D01*
X171238851Y-125899443D02*
X171143613Y-125947062D01*
X171143613Y-125947062D02*
X171095994Y-126042300D01*
X171095994Y-126042300D02*
X171095994Y-126137538D01*
X171095994Y-126137538D02*
X171572184Y-126232776D01*
X170762660Y-125899443D02*
X170524565Y-126566110D01*
X170286470Y-125899443D02*
X170524565Y-126566110D01*
X170524565Y-126566110D02*
X170619803Y-126804205D01*
X170619803Y-126804205D02*
X170667422Y-126851824D01*
X170667422Y-126851824D02*
X170762660Y-126899443D01*
X169524565Y-126518491D02*
X169619803Y-126566110D01*
X169619803Y-126566110D02*
X169810279Y-126566110D01*
X169810279Y-126566110D02*
X169905517Y-126518491D01*
X169905517Y-126518491D02*
X169953136Y-126423252D01*
X169953136Y-126423252D02*
X169953136Y-126042300D01*
X169953136Y-126042300D02*
X169905517Y-125947062D01*
X169905517Y-125947062D02*
X169810279Y-125899443D01*
X169810279Y-125899443D02*
X169619803Y-125899443D01*
X169619803Y-125899443D02*
X169524565Y-125947062D01*
X169524565Y-125947062D02*
X169476946Y-126042300D01*
X169476946Y-126042300D02*
X169476946Y-126137538D01*
X169476946Y-126137538D02*
X169953136Y-126232776D01*
X168619803Y-126566110D02*
X168619803Y-125566110D01*
X168619803Y-126518491D02*
X168715041Y-126566110D01*
X168715041Y-126566110D02*
X168905517Y-126566110D01*
X168905517Y-126566110D02*
X169000755Y-126518491D01*
X169000755Y-126518491D02*
X169048374Y-126470871D01*
X169048374Y-126470871D02*
X169095993Y-126375633D01*
X169095993Y-126375633D02*
X169095993Y-126089919D01*
X169095993Y-126089919D02*
X169048374Y-125994681D01*
X169048374Y-125994681D02*
X169000755Y-125947062D01*
X169000755Y-125947062D02*
X168905517Y-125899443D01*
X168905517Y-125899443D02*
X168715041Y-125899443D01*
X168715041Y-125899443D02*
X168619803Y-125947062D01*
X79893851Y-113194754D02*
X80105518Y-112892373D01*
X80256708Y-113194754D02*
X80256708Y-112559754D01*
X80256708Y-112559754D02*
X80014803Y-112559754D01*
X80014803Y-112559754D02*
X79954327Y-112589992D01*
X79954327Y-112589992D02*
X79924089Y-112620230D01*
X79924089Y-112620230D02*
X79893851Y-112680706D01*
X79893851Y-112680706D02*
X79893851Y-112771420D01*
X79893851Y-112771420D02*
X79924089Y-112831896D01*
X79924089Y-112831896D02*
X79954327Y-112862135D01*
X79954327Y-112862135D02*
X80014803Y-112892373D01*
X80014803Y-112892373D02*
X80256708Y-112892373D01*
X79319327Y-112559754D02*
X79621708Y-112559754D01*
X79621708Y-112559754D02*
X79651946Y-112862135D01*
X79651946Y-112862135D02*
X79621708Y-112831896D01*
X79621708Y-112831896D02*
X79561232Y-112801658D01*
X79561232Y-112801658D02*
X79410041Y-112801658D01*
X79410041Y-112801658D02*
X79349565Y-112831896D01*
X79349565Y-112831896D02*
X79319327Y-112862135D01*
X79319327Y-112862135D02*
X79289089Y-112922611D01*
X79289089Y-112922611D02*
X79289089Y-113073801D01*
X79289089Y-113073801D02*
X79319327Y-113134277D01*
X79319327Y-113134277D02*
X79349565Y-113164516D01*
X79349565Y-113164516D02*
X79410041Y-113194754D01*
X79410041Y-113194754D02*
X79561232Y-113194754D01*
X79561232Y-113194754D02*
X79621708Y-113164516D01*
X79621708Y-113164516D02*
X79651946Y-113134277D01*
X78714565Y-112559754D02*
X79016946Y-112559754D01*
X79016946Y-112559754D02*
X79047184Y-112862135D01*
X79047184Y-112862135D02*
X79016946Y-112831896D01*
X79016946Y-112831896D02*
X78956470Y-112801658D01*
X78956470Y-112801658D02*
X78805279Y-112801658D01*
X78805279Y-112801658D02*
X78744803Y-112831896D01*
X78744803Y-112831896D02*
X78714565Y-112862135D01*
X78714565Y-112862135D02*
X78684327Y-112922611D01*
X78684327Y-112922611D02*
X78684327Y-113073801D01*
X78684327Y-113073801D02*
X78714565Y-113134277D01*
X78714565Y-113134277D02*
X78744803Y-113164516D01*
X78744803Y-113164516D02*
X78805279Y-113194754D01*
X78805279Y-113194754D02*
X78956470Y-113194754D01*
X78956470Y-113194754D02*
X79016946Y-113164516D01*
X79016946Y-113164516D02*
X79047184Y-113134277D01*
X186889400Y-46102776D02*
X186587019Y-45891109D01*
X186889400Y-45739919D02*
X186254400Y-45739919D01*
X186254400Y-45739919D02*
X186254400Y-45981824D01*
X186254400Y-45981824D02*
X186284638Y-46042300D01*
X186284638Y-46042300D02*
X186314876Y-46072538D01*
X186314876Y-46072538D02*
X186375352Y-46102776D01*
X186375352Y-46102776D02*
X186466066Y-46102776D01*
X186466066Y-46102776D02*
X186526542Y-46072538D01*
X186526542Y-46072538D02*
X186556781Y-46042300D01*
X186556781Y-46042300D02*
X186587019Y-45981824D01*
X186587019Y-45981824D02*
X186587019Y-45739919D01*
X186254400Y-46647062D02*
X186254400Y-46526109D01*
X186254400Y-46526109D02*
X186284638Y-46465633D01*
X186284638Y-46465633D02*
X186314876Y-46435395D01*
X186314876Y-46435395D02*
X186405590Y-46374919D01*
X186405590Y-46374919D02*
X186526542Y-46344681D01*
X186526542Y-46344681D02*
X186768447Y-46344681D01*
X186768447Y-46344681D02*
X186828923Y-46374919D01*
X186828923Y-46374919D02*
X186859162Y-46405157D01*
X186859162Y-46405157D02*
X186889400Y-46465633D01*
X186889400Y-46465633D02*
X186889400Y-46586586D01*
X186889400Y-46586586D02*
X186859162Y-46647062D01*
X186859162Y-46647062D02*
X186828923Y-46677300D01*
X186828923Y-46677300D02*
X186768447Y-46707538D01*
X186768447Y-46707538D02*
X186617257Y-46707538D01*
X186617257Y-46707538D02*
X186556781Y-46677300D01*
X186556781Y-46677300D02*
X186526542Y-46647062D01*
X186526542Y-46647062D02*
X186496304Y-46586586D01*
X186496304Y-46586586D02*
X186496304Y-46465633D01*
X186496304Y-46465633D02*
X186526542Y-46405157D01*
X186526542Y-46405157D02*
X186556781Y-46374919D01*
X186556781Y-46374919D02*
X186617257Y-46344681D01*
X186466066Y-47251824D02*
X186889400Y-47251824D01*
X186224162Y-47100633D02*
X186677733Y-46949443D01*
X186677733Y-46949443D02*
X186677733Y-47342538D01*
X122639400Y-63115157D02*
X122337019Y-62903490D01*
X122639400Y-62752300D02*
X122004400Y-62752300D01*
X122004400Y-62752300D02*
X122004400Y-62994205D01*
X122004400Y-62994205D02*
X122034638Y-63054681D01*
X122034638Y-63054681D02*
X122064876Y-63084919D01*
X122064876Y-63084919D02*
X122125352Y-63115157D01*
X122125352Y-63115157D02*
X122216066Y-63115157D01*
X122216066Y-63115157D02*
X122276542Y-63084919D01*
X122276542Y-63084919D02*
X122306781Y-63054681D01*
X122306781Y-63054681D02*
X122337019Y-62994205D01*
X122337019Y-62994205D02*
X122337019Y-62752300D01*
X122064876Y-63357062D02*
X122034638Y-63387300D01*
X122034638Y-63387300D02*
X122004400Y-63447776D01*
X122004400Y-63447776D02*
X122004400Y-63598967D01*
X122004400Y-63598967D02*
X122034638Y-63659443D01*
X122034638Y-63659443D02*
X122064876Y-63689681D01*
X122064876Y-63689681D02*
X122125352Y-63719919D01*
X122125352Y-63719919D02*
X122185828Y-63719919D01*
X122185828Y-63719919D02*
X122276542Y-63689681D01*
X122276542Y-63689681D02*
X122639400Y-63326824D01*
X122639400Y-63326824D02*
X122639400Y-63719919D01*
X143623851Y-45984277D02*
X143654089Y-46014516D01*
X143654089Y-46014516D02*
X143744803Y-46044754D01*
X143744803Y-46044754D02*
X143805279Y-46044754D01*
X143805279Y-46044754D02*
X143895994Y-46014516D01*
X143895994Y-46014516D02*
X143956470Y-45954039D01*
X143956470Y-45954039D02*
X143986708Y-45893563D01*
X143986708Y-45893563D02*
X144016946Y-45772611D01*
X144016946Y-45772611D02*
X144016946Y-45681896D01*
X144016946Y-45681896D02*
X143986708Y-45560944D01*
X143986708Y-45560944D02*
X143956470Y-45500468D01*
X143956470Y-45500468D02*
X143895994Y-45439992D01*
X143895994Y-45439992D02*
X143805279Y-45409754D01*
X143805279Y-45409754D02*
X143744803Y-45409754D01*
X143744803Y-45409754D02*
X143654089Y-45439992D01*
X143654089Y-45439992D02*
X143623851Y-45470230D01*
X143049327Y-45409754D02*
X143351708Y-45409754D01*
X143351708Y-45409754D02*
X143381946Y-45712135D01*
X143381946Y-45712135D02*
X143351708Y-45681896D01*
X143351708Y-45681896D02*
X143291232Y-45651658D01*
X143291232Y-45651658D02*
X143140041Y-45651658D01*
X143140041Y-45651658D02*
X143079565Y-45681896D01*
X143079565Y-45681896D02*
X143049327Y-45712135D01*
X143049327Y-45712135D02*
X143019089Y-45772611D01*
X143019089Y-45772611D02*
X143019089Y-45923801D01*
X143019089Y-45923801D02*
X143049327Y-45984277D01*
X143049327Y-45984277D02*
X143079565Y-46014516D01*
X143079565Y-46014516D02*
X143140041Y-46044754D01*
X143140041Y-46044754D02*
X143291232Y-46044754D01*
X143291232Y-46044754D02*
X143351708Y-46014516D01*
X143351708Y-46014516D02*
X143381946Y-45984277D01*
X142625994Y-45409754D02*
X142565517Y-45409754D01*
X142565517Y-45409754D02*
X142505041Y-45439992D01*
X142505041Y-45439992D02*
X142474803Y-45470230D01*
X142474803Y-45470230D02*
X142444565Y-45530706D01*
X142444565Y-45530706D02*
X142414327Y-45651658D01*
X142414327Y-45651658D02*
X142414327Y-45802849D01*
X142414327Y-45802849D02*
X142444565Y-45923801D01*
X142444565Y-45923801D02*
X142474803Y-45984277D01*
X142474803Y-45984277D02*
X142505041Y-46014516D01*
X142505041Y-46014516D02*
X142565517Y-46044754D01*
X142565517Y-46044754D02*
X142625994Y-46044754D01*
X142625994Y-46044754D02*
X142686470Y-46014516D01*
X142686470Y-46014516D02*
X142716708Y-45984277D01*
X142716708Y-45984277D02*
X142746946Y-45923801D01*
X142746946Y-45923801D02*
X142777184Y-45802849D01*
X142777184Y-45802849D02*
X142777184Y-45651658D01*
X142777184Y-45651658D02*
X142746946Y-45530706D01*
X142746946Y-45530706D02*
X142716708Y-45470230D01*
X142716708Y-45470230D02*
X142686470Y-45439992D01*
X142686470Y-45439992D02*
X142625994Y-45409754D01*
X128408923Y-97312776D02*
X128439162Y-97282538D01*
X128439162Y-97282538D02*
X128469400Y-97191824D01*
X128469400Y-97191824D02*
X128469400Y-97131348D01*
X128469400Y-97131348D02*
X128439162Y-97040633D01*
X128439162Y-97040633D02*
X128378685Y-96980157D01*
X128378685Y-96980157D02*
X128318209Y-96949919D01*
X128318209Y-96949919D02*
X128197257Y-96919681D01*
X128197257Y-96919681D02*
X128106542Y-96919681D01*
X128106542Y-96919681D02*
X127985590Y-96949919D01*
X127985590Y-96949919D02*
X127925114Y-96980157D01*
X127925114Y-96980157D02*
X127864638Y-97040633D01*
X127864638Y-97040633D02*
X127834400Y-97131348D01*
X127834400Y-97131348D02*
X127834400Y-97191824D01*
X127834400Y-97191824D02*
X127864638Y-97282538D01*
X127864638Y-97282538D02*
X127894876Y-97312776D01*
X127894876Y-97554681D02*
X127864638Y-97584919D01*
X127864638Y-97584919D02*
X127834400Y-97645395D01*
X127834400Y-97645395D02*
X127834400Y-97796586D01*
X127834400Y-97796586D02*
X127864638Y-97857062D01*
X127864638Y-97857062D02*
X127894876Y-97887300D01*
X127894876Y-97887300D02*
X127955352Y-97917538D01*
X127955352Y-97917538D02*
X128015828Y-97917538D01*
X128015828Y-97917538D02*
X128106542Y-97887300D01*
X128106542Y-97887300D02*
X128469400Y-97524443D01*
X128469400Y-97524443D02*
X128469400Y-97917538D01*
X128469400Y-98219919D02*
X128469400Y-98340871D01*
X128469400Y-98340871D02*
X128439162Y-98401348D01*
X128439162Y-98401348D02*
X128408923Y-98431586D01*
X128408923Y-98431586D02*
X128318209Y-98492062D01*
X128318209Y-98492062D02*
X128197257Y-98522300D01*
X128197257Y-98522300D02*
X127955352Y-98522300D01*
X127955352Y-98522300D02*
X127894876Y-98492062D01*
X127894876Y-98492062D02*
X127864638Y-98461824D01*
X127864638Y-98461824D02*
X127834400Y-98401348D01*
X127834400Y-98401348D02*
X127834400Y-98280395D01*
X127834400Y-98280395D02*
X127864638Y-98219919D01*
X127864638Y-98219919D02*
X127894876Y-98189681D01*
X127894876Y-98189681D02*
X127955352Y-98159443D01*
X127955352Y-98159443D02*
X128106542Y-98159443D01*
X128106542Y-98159443D02*
X128167019Y-98189681D01*
X128167019Y-98189681D02*
X128197257Y-98219919D01*
X128197257Y-98219919D02*
X128227495Y-98280395D01*
X128227495Y-98280395D02*
X128227495Y-98401348D01*
X128227495Y-98401348D02*
X128197257Y-98461824D01*
X128197257Y-98461824D02*
X128167019Y-98492062D01*
X128167019Y-98492062D02*
X128106542Y-98522300D01*
X120209400Y-77045157D02*
X119907019Y-76833490D01*
X120209400Y-76682300D02*
X119574400Y-76682300D01*
X119574400Y-76682300D02*
X119574400Y-76924205D01*
X119574400Y-76924205D02*
X119604638Y-76984681D01*
X119604638Y-76984681D02*
X119634876Y-77014919D01*
X119634876Y-77014919D02*
X119695352Y-77045157D01*
X119695352Y-77045157D02*
X119786066Y-77045157D01*
X119786066Y-77045157D02*
X119846542Y-77014919D01*
X119846542Y-77014919D02*
X119876781Y-76984681D01*
X119876781Y-76984681D02*
X119907019Y-76924205D01*
X119907019Y-76924205D02*
X119907019Y-76682300D01*
X119846542Y-77408014D02*
X119816304Y-77347538D01*
X119816304Y-77347538D02*
X119786066Y-77317300D01*
X119786066Y-77317300D02*
X119725590Y-77287062D01*
X119725590Y-77287062D02*
X119695352Y-77287062D01*
X119695352Y-77287062D02*
X119634876Y-77317300D01*
X119634876Y-77317300D02*
X119604638Y-77347538D01*
X119604638Y-77347538D02*
X119574400Y-77408014D01*
X119574400Y-77408014D02*
X119574400Y-77528967D01*
X119574400Y-77528967D02*
X119604638Y-77589443D01*
X119604638Y-77589443D02*
X119634876Y-77619681D01*
X119634876Y-77619681D02*
X119695352Y-77649919D01*
X119695352Y-77649919D02*
X119725590Y-77649919D01*
X119725590Y-77649919D02*
X119786066Y-77619681D01*
X119786066Y-77619681D02*
X119816304Y-77589443D01*
X119816304Y-77589443D02*
X119846542Y-77528967D01*
X119846542Y-77528967D02*
X119846542Y-77408014D01*
X119846542Y-77408014D02*
X119876781Y-77347538D01*
X119876781Y-77347538D02*
X119907019Y-77317300D01*
X119907019Y-77317300D02*
X119967495Y-77287062D01*
X119967495Y-77287062D02*
X120088447Y-77287062D01*
X120088447Y-77287062D02*
X120148923Y-77317300D01*
X120148923Y-77317300D02*
X120179162Y-77347538D01*
X120179162Y-77347538D02*
X120209400Y-77408014D01*
X120209400Y-77408014D02*
X120209400Y-77528967D01*
X120209400Y-77528967D02*
X120179162Y-77589443D01*
X120179162Y-77589443D02*
X120148923Y-77619681D01*
X120148923Y-77619681D02*
X120088447Y-77649919D01*
X120088447Y-77649919D02*
X119967495Y-77649919D01*
X119967495Y-77649919D02*
X119907019Y-77619681D01*
X119907019Y-77619681D02*
X119876781Y-77589443D01*
X119876781Y-77589443D02*
X119846542Y-77528967D01*
X124059400Y-63145157D02*
X123757019Y-62933490D01*
X124059400Y-62782300D02*
X123424400Y-62782300D01*
X123424400Y-62782300D02*
X123424400Y-63024205D01*
X123424400Y-63024205D02*
X123454638Y-63084681D01*
X123454638Y-63084681D02*
X123484876Y-63114919D01*
X123484876Y-63114919D02*
X123545352Y-63145157D01*
X123545352Y-63145157D02*
X123636066Y-63145157D01*
X123636066Y-63145157D02*
X123696542Y-63114919D01*
X123696542Y-63114919D02*
X123726781Y-63084681D01*
X123726781Y-63084681D02*
X123757019Y-63024205D01*
X123757019Y-63024205D02*
X123757019Y-62782300D01*
X124059400Y-63749919D02*
X124059400Y-63387062D01*
X124059400Y-63568490D02*
X123424400Y-63568490D01*
X123424400Y-63568490D02*
X123515114Y-63508014D01*
X123515114Y-63508014D02*
X123575590Y-63447538D01*
X123575590Y-63447538D02*
X123605828Y-63387062D01*
X118553851Y-54104277D02*
X118584089Y-54134516D01*
X118584089Y-54134516D02*
X118674803Y-54164754D01*
X118674803Y-54164754D02*
X118735279Y-54164754D01*
X118735279Y-54164754D02*
X118825994Y-54134516D01*
X118825994Y-54134516D02*
X118886470Y-54074039D01*
X118886470Y-54074039D02*
X118916708Y-54013563D01*
X118916708Y-54013563D02*
X118946946Y-53892611D01*
X118946946Y-53892611D02*
X118946946Y-53801896D01*
X118946946Y-53801896D02*
X118916708Y-53680944D01*
X118916708Y-53680944D02*
X118886470Y-53620468D01*
X118886470Y-53620468D02*
X118825994Y-53559992D01*
X118825994Y-53559992D02*
X118735279Y-53529754D01*
X118735279Y-53529754D02*
X118674803Y-53529754D01*
X118674803Y-53529754D02*
X118584089Y-53559992D01*
X118584089Y-53559992D02*
X118553851Y-53590230D01*
X118311946Y-53590230D02*
X118281708Y-53559992D01*
X118281708Y-53559992D02*
X118221232Y-53529754D01*
X118221232Y-53529754D02*
X118070041Y-53529754D01*
X118070041Y-53529754D02*
X118009565Y-53559992D01*
X118009565Y-53559992D02*
X117979327Y-53590230D01*
X117979327Y-53590230D02*
X117949089Y-53650706D01*
X117949089Y-53650706D02*
X117949089Y-53711182D01*
X117949089Y-53711182D02*
X117979327Y-53801896D01*
X117979327Y-53801896D02*
X118342184Y-54164754D01*
X118342184Y-54164754D02*
X117949089Y-54164754D01*
X117374565Y-53529754D02*
X117676946Y-53529754D01*
X117676946Y-53529754D02*
X117707184Y-53832135D01*
X117707184Y-53832135D02*
X117676946Y-53801896D01*
X117676946Y-53801896D02*
X117616470Y-53771658D01*
X117616470Y-53771658D02*
X117465279Y-53771658D01*
X117465279Y-53771658D02*
X117404803Y-53801896D01*
X117404803Y-53801896D02*
X117374565Y-53832135D01*
X117374565Y-53832135D02*
X117344327Y-53892611D01*
X117344327Y-53892611D02*
X117344327Y-54043801D01*
X117344327Y-54043801D02*
X117374565Y-54104277D01*
X117374565Y-54104277D02*
X117404803Y-54134516D01*
X117404803Y-54134516D02*
X117465279Y-54164754D01*
X117465279Y-54164754D02*
X117616470Y-54164754D01*
X117616470Y-54164754D02*
X117676946Y-54134516D01*
X117676946Y-54134516D02*
X117707184Y-54104277D01*
X106616470Y-53394754D02*
X106828137Y-53092373D01*
X106979327Y-53394754D02*
X106979327Y-52759754D01*
X106979327Y-52759754D02*
X106737422Y-52759754D01*
X106737422Y-52759754D02*
X106676946Y-52789992D01*
X106676946Y-52789992D02*
X106646708Y-52820230D01*
X106646708Y-52820230D02*
X106616470Y-52880706D01*
X106616470Y-52880706D02*
X106616470Y-52971420D01*
X106616470Y-52971420D02*
X106646708Y-53031896D01*
X106646708Y-53031896D02*
X106676946Y-53062135D01*
X106676946Y-53062135D02*
X106737422Y-53092373D01*
X106737422Y-53092373D02*
X106979327Y-53092373D01*
X106041946Y-52759754D02*
X106344327Y-52759754D01*
X106344327Y-52759754D02*
X106374565Y-53062135D01*
X106374565Y-53062135D02*
X106344327Y-53031896D01*
X106344327Y-53031896D02*
X106283851Y-53001658D01*
X106283851Y-53001658D02*
X106132660Y-53001658D01*
X106132660Y-53001658D02*
X106072184Y-53031896D01*
X106072184Y-53031896D02*
X106041946Y-53062135D01*
X106041946Y-53062135D02*
X106011708Y-53122611D01*
X106011708Y-53122611D02*
X106011708Y-53273801D01*
X106011708Y-53273801D02*
X106041946Y-53334277D01*
X106041946Y-53334277D02*
X106072184Y-53364516D01*
X106072184Y-53364516D02*
X106132660Y-53394754D01*
X106132660Y-53394754D02*
X106283851Y-53394754D01*
X106283851Y-53394754D02*
X106344327Y-53364516D01*
X106344327Y-53364516D02*
X106374565Y-53334277D01*
X126748923Y-96992776D02*
X126779162Y-96962538D01*
X126779162Y-96962538D02*
X126809400Y-96871824D01*
X126809400Y-96871824D02*
X126809400Y-96811348D01*
X126809400Y-96811348D02*
X126779162Y-96720633D01*
X126779162Y-96720633D02*
X126718685Y-96660157D01*
X126718685Y-96660157D02*
X126658209Y-96629919D01*
X126658209Y-96629919D02*
X126537257Y-96599681D01*
X126537257Y-96599681D02*
X126446542Y-96599681D01*
X126446542Y-96599681D02*
X126325590Y-96629919D01*
X126325590Y-96629919D02*
X126265114Y-96660157D01*
X126265114Y-96660157D02*
X126204638Y-96720633D01*
X126204638Y-96720633D02*
X126174400Y-96811348D01*
X126174400Y-96811348D02*
X126174400Y-96871824D01*
X126174400Y-96871824D02*
X126204638Y-96962538D01*
X126204638Y-96962538D02*
X126234876Y-96992776D01*
X126234876Y-97234681D02*
X126204638Y-97264919D01*
X126204638Y-97264919D02*
X126174400Y-97325395D01*
X126174400Y-97325395D02*
X126174400Y-97476586D01*
X126174400Y-97476586D02*
X126204638Y-97537062D01*
X126204638Y-97537062D02*
X126234876Y-97567300D01*
X126234876Y-97567300D02*
X126295352Y-97597538D01*
X126295352Y-97597538D02*
X126355828Y-97597538D01*
X126355828Y-97597538D02*
X126446542Y-97567300D01*
X126446542Y-97567300D02*
X126809400Y-97204443D01*
X126809400Y-97204443D02*
X126809400Y-97597538D01*
X126174400Y-97809205D02*
X126174400Y-98202300D01*
X126174400Y-98202300D02*
X126416304Y-97990633D01*
X126416304Y-97990633D02*
X126416304Y-98081348D01*
X126416304Y-98081348D02*
X126446542Y-98141824D01*
X126446542Y-98141824D02*
X126476781Y-98172062D01*
X126476781Y-98172062D02*
X126537257Y-98202300D01*
X126537257Y-98202300D02*
X126688447Y-98202300D01*
X126688447Y-98202300D02*
X126748923Y-98172062D01*
X126748923Y-98172062D02*
X126779162Y-98141824D01*
X126779162Y-98141824D02*
X126809400Y-98081348D01*
X126809400Y-98081348D02*
X126809400Y-97899919D01*
X126809400Y-97899919D02*
X126779162Y-97839443D01*
X126779162Y-97839443D02*
X126748923Y-97809205D01*
X104221470Y-50104277D02*
X104251708Y-50134516D01*
X104251708Y-50134516D02*
X104342422Y-50164754D01*
X104342422Y-50164754D02*
X104402898Y-50164754D01*
X104402898Y-50164754D02*
X104493613Y-50134516D01*
X104493613Y-50134516D02*
X104554089Y-50074039D01*
X104554089Y-50074039D02*
X104584327Y-50013563D01*
X104584327Y-50013563D02*
X104614565Y-49892611D01*
X104614565Y-49892611D02*
X104614565Y-49801896D01*
X104614565Y-49801896D02*
X104584327Y-49680944D01*
X104584327Y-49680944D02*
X104554089Y-49620468D01*
X104554089Y-49620468D02*
X104493613Y-49559992D01*
X104493613Y-49559992D02*
X104402898Y-49529754D01*
X104402898Y-49529754D02*
X104342422Y-49529754D01*
X104342422Y-49529754D02*
X104251708Y-49559992D01*
X104251708Y-49559992D02*
X104221470Y-49590230D01*
X103646946Y-49529754D02*
X103949327Y-49529754D01*
X103949327Y-49529754D02*
X103979565Y-49832135D01*
X103979565Y-49832135D02*
X103949327Y-49801896D01*
X103949327Y-49801896D02*
X103888851Y-49771658D01*
X103888851Y-49771658D02*
X103737660Y-49771658D01*
X103737660Y-49771658D02*
X103677184Y-49801896D01*
X103677184Y-49801896D02*
X103646946Y-49832135D01*
X103646946Y-49832135D02*
X103616708Y-49892611D01*
X103616708Y-49892611D02*
X103616708Y-50043801D01*
X103616708Y-50043801D02*
X103646946Y-50104277D01*
X103646946Y-50104277D02*
X103677184Y-50134516D01*
X103677184Y-50134516D02*
X103737660Y-50164754D01*
X103737660Y-50164754D02*
X103888851Y-50164754D01*
X103888851Y-50164754D02*
X103949327Y-50134516D01*
X103949327Y-50134516D02*
X103979565Y-50104277D01*
X210661827Y-79260754D02*
X210661827Y-79774801D01*
X210661827Y-79774801D02*
X210631589Y-79835277D01*
X210631589Y-79835277D02*
X210601351Y-79865516D01*
X210601351Y-79865516D02*
X210540875Y-79895754D01*
X210540875Y-79895754D02*
X210419922Y-79895754D01*
X210419922Y-79895754D02*
X210359446Y-79865516D01*
X210359446Y-79865516D02*
X210329208Y-79835277D01*
X210329208Y-79835277D02*
X210298970Y-79774801D01*
X210298970Y-79774801D02*
X210298970Y-79260754D01*
X209663970Y-79895754D02*
X210026827Y-79895754D01*
X209845399Y-79895754D02*
X209845399Y-79260754D01*
X209845399Y-79260754D02*
X209905875Y-79351468D01*
X209905875Y-79351468D02*
X209966351Y-79411944D01*
X209966351Y-79411944D02*
X210026827Y-79442182D01*
X209119684Y-79472420D02*
X209119684Y-79895754D01*
X209270875Y-79230516D02*
X209422065Y-79684087D01*
X209422065Y-79684087D02*
X209028970Y-79684087D01*
X120856708Y-47684754D02*
X120856708Y-47049754D01*
X120856708Y-47049754D02*
X120705518Y-47049754D01*
X120705518Y-47049754D02*
X120614803Y-47079992D01*
X120614803Y-47079992D02*
X120554327Y-47140468D01*
X120554327Y-47140468D02*
X120524089Y-47200944D01*
X120524089Y-47200944D02*
X120493851Y-47321896D01*
X120493851Y-47321896D02*
X120493851Y-47412611D01*
X120493851Y-47412611D02*
X120524089Y-47533563D01*
X120524089Y-47533563D02*
X120554327Y-47594039D01*
X120554327Y-47594039D02*
X120614803Y-47654516D01*
X120614803Y-47654516D02*
X120705518Y-47684754D01*
X120705518Y-47684754D02*
X120856708Y-47684754D01*
X120282184Y-47049754D02*
X119889089Y-47049754D01*
X119889089Y-47049754D02*
X120100756Y-47291658D01*
X120100756Y-47291658D02*
X120010041Y-47291658D01*
X120010041Y-47291658D02*
X119949565Y-47321896D01*
X119949565Y-47321896D02*
X119919327Y-47352135D01*
X119919327Y-47352135D02*
X119889089Y-47412611D01*
X119889089Y-47412611D02*
X119889089Y-47563801D01*
X119889089Y-47563801D02*
X119919327Y-47624277D01*
X119919327Y-47624277D02*
X119949565Y-47654516D01*
X119949565Y-47654516D02*
X120010041Y-47684754D01*
X120010041Y-47684754D02*
X120191470Y-47684754D01*
X120191470Y-47684754D02*
X120251946Y-47654516D01*
X120251946Y-47654516D02*
X120282184Y-47624277D01*
X119344803Y-47261420D02*
X119344803Y-47684754D01*
X119495994Y-47019516D02*
X119647184Y-47473087D01*
X119647184Y-47473087D02*
X119254089Y-47473087D01*
X160408494Y-90175230D02*
X160468970Y-90144992D01*
X160468970Y-90144992D02*
X160529446Y-90084516D01*
X160529446Y-90084516D02*
X160620160Y-89993801D01*
X160620160Y-89993801D02*
X160680637Y-89963563D01*
X160680637Y-89963563D02*
X160741113Y-89963563D01*
X160710875Y-90114754D02*
X160771351Y-90084516D01*
X160771351Y-90084516D02*
X160831827Y-90024039D01*
X160831827Y-90024039D02*
X160862065Y-89903087D01*
X160862065Y-89903087D02*
X160862065Y-89691420D01*
X160862065Y-89691420D02*
X160831827Y-89570468D01*
X160831827Y-89570468D02*
X160771351Y-89509992D01*
X160771351Y-89509992D02*
X160710875Y-89479754D01*
X160710875Y-89479754D02*
X160589922Y-89479754D01*
X160589922Y-89479754D02*
X160529446Y-89509992D01*
X160529446Y-89509992D02*
X160468970Y-89570468D01*
X160468970Y-89570468D02*
X160438732Y-89691420D01*
X160438732Y-89691420D02*
X160438732Y-89903087D01*
X160438732Y-89903087D02*
X160468970Y-90024039D01*
X160468970Y-90024039D02*
X160529446Y-90084516D01*
X160529446Y-90084516D02*
X160589922Y-90114754D01*
X160589922Y-90114754D02*
X160710875Y-90114754D01*
X159833970Y-90114754D02*
X160196827Y-90114754D01*
X160015399Y-90114754D02*
X160015399Y-89479754D01*
X160015399Y-89479754D02*
X160075875Y-89570468D01*
X160075875Y-89570468D02*
X160136351Y-89630944D01*
X160136351Y-89630944D02*
X160196827Y-89661182D01*
X159592065Y-89540230D02*
X159561827Y-89509992D01*
X159561827Y-89509992D02*
X159501351Y-89479754D01*
X159501351Y-89479754D02*
X159350160Y-89479754D01*
X159350160Y-89479754D02*
X159289684Y-89509992D01*
X159289684Y-89509992D02*
X159259446Y-89540230D01*
X159259446Y-89540230D02*
X159229208Y-89600706D01*
X159229208Y-89600706D02*
X159229208Y-89661182D01*
X159229208Y-89661182D02*
X159259446Y-89751896D01*
X159259446Y-89751896D02*
X159622303Y-90114754D01*
X159622303Y-90114754D02*
X159229208Y-90114754D01*
X79923851Y-103244754D02*
X80135518Y-102942373D01*
X80286708Y-103244754D02*
X80286708Y-102609754D01*
X80286708Y-102609754D02*
X80044803Y-102609754D01*
X80044803Y-102609754D02*
X79984327Y-102639992D01*
X79984327Y-102639992D02*
X79954089Y-102670230D01*
X79954089Y-102670230D02*
X79923851Y-102730706D01*
X79923851Y-102730706D02*
X79923851Y-102821420D01*
X79923851Y-102821420D02*
X79954089Y-102881896D01*
X79954089Y-102881896D02*
X79984327Y-102912135D01*
X79984327Y-102912135D02*
X80044803Y-102942373D01*
X80044803Y-102942373D02*
X80286708Y-102942373D01*
X79712184Y-102609754D02*
X79319089Y-102609754D01*
X79319089Y-102609754D02*
X79530756Y-102851658D01*
X79530756Y-102851658D02*
X79440041Y-102851658D01*
X79440041Y-102851658D02*
X79379565Y-102881896D01*
X79379565Y-102881896D02*
X79349327Y-102912135D01*
X79349327Y-102912135D02*
X79319089Y-102972611D01*
X79319089Y-102972611D02*
X79319089Y-103123801D01*
X79319089Y-103123801D02*
X79349327Y-103184277D01*
X79349327Y-103184277D02*
X79379565Y-103214516D01*
X79379565Y-103214516D02*
X79440041Y-103244754D01*
X79440041Y-103244754D02*
X79621470Y-103244754D01*
X79621470Y-103244754D02*
X79681946Y-103214516D01*
X79681946Y-103214516D02*
X79712184Y-103184277D01*
X79107422Y-102609754D02*
X78714327Y-102609754D01*
X78714327Y-102609754D02*
X78925994Y-102851658D01*
X78925994Y-102851658D02*
X78835279Y-102851658D01*
X78835279Y-102851658D02*
X78774803Y-102881896D01*
X78774803Y-102881896D02*
X78744565Y-102912135D01*
X78744565Y-102912135D02*
X78714327Y-102972611D01*
X78714327Y-102972611D02*
X78714327Y-103123801D01*
X78714327Y-103123801D02*
X78744565Y-103184277D01*
X78744565Y-103184277D02*
X78774803Y-103214516D01*
X78774803Y-103214516D02*
X78835279Y-103244754D01*
X78835279Y-103244754D02*
X79016708Y-103244754D01*
X79016708Y-103244754D02*
X79077184Y-103214516D01*
X79077184Y-103214516D02*
X79107422Y-103184277D01*
X122299400Y-49192776D02*
X121997019Y-48981109D01*
X122299400Y-48829919D02*
X121664400Y-48829919D01*
X121664400Y-48829919D02*
X121664400Y-49071824D01*
X121664400Y-49071824D02*
X121694638Y-49132300D01*
X121694638Y-49132300D02*
X121724876Y-49162538D01*
X121724876Y-49162538D02*
X121785352Y-49192776D01*
X121785352Y-49192776D02*
X121876066Y-49192776D01*
X121876066Y-49192776D02*
X121936542Y-49162538D01*
X121936542Y-49162538D02*
X121966781Y-49132300D01*
X121966781Y-49132300D02*
X121997019Y-49071824D01*
X121997019Y-49071824D02*
X121997019Y-48829919D01*
X121664400Y-49404443D02*
X121664400Y-49827776D01*
X121664400Y-49827776D02*
X122299400Y-49555633D01*
X121664400Y-50190633D02*
X121664400Y-50251110D01*
X121664400Y-50251110D02*
X121694638Y-50311586D01*
X121694638Y-50311586D02*
X121724876Y-50341824D01*
X121724876Y-50341824D02*
X121785352Y-50372062D01*
X121785352Y-50372062D02*
X121906304Y-50402300D01*
X121906304Y-50402300D02*
X122057495Y-50402300D01*
X122057495Y-50402300D02*
X122178447Y-50372062D01*
X122178447Y-50372062D02*
X122238923Y-50341824D01*
X122238923Y-50341824D02*
X122269162Y-50311586D01*
X122269162Y-50311586D02*
X122299400Y-50251110D01*
X122299400Y-50251110D02*
X122299400Y-50190633D01*
X122299400Y-50190633D02*
X122269162Y-50130157D01*
X122269162Y-50130157D02*
X122238923Y-50099919D01*
X122238923Y-50099919D02*
X122178447Y-50069681D01*
X122178447Y-50069681D02*
X122057495Y-50039443D01*
X122057495Y-50039443D02*
X121906304Y-50039443D01*
X121906304Y-50039443D02*
X121785352Y-50069681D01*
X121785352Y-50069681D02*
X121724876Y-50099919D01*
X121724876Y-50099919D02*
X121694638Y-50130157D01*
X121694638Y-50130157D02*
X121664400Y-50190633D01*
X197753851Y-85934754D02*
X197965518Y-85632373D01*
X198116708Y-85934754D02*
X198116708Y-85299754D01*
X198116708Y-85299754D02*
X197874803Y-85299754D01*
X197874803Y-85299754D02*
X197814327Y-85329992D01*
X197814327Y-85329992D02*
X197784089Y-85360230D01*
X197784089Y-85360230D02*
X197753851Y-85420706D01*
X197753851Y-85420706D02*
X197753851Y-85511420D01*
X197753851Y-85511420D02*
X197784089Y-85571896D01*
X197784089Y-85571896D02*
X197814327Y-85602135D01*
X197814327Y-85602135D02*
X197874803Y-85632373D01*
X197874803Y-85632373D02*
X198116708Y-85632373D01*
X197390994Y-85571896D02*
X197451470Y-85541658D01*
X197451470Y-85541658D02*
X197481708Y-85511420D01*
X197481708Y-85511420D02*
X197511946Y-85450944D01*
X197511946Y-85450944D02*
X197511946Y-85420706D01*
X197511946Y-85420706D02*
X197481708Y-85360230D01*
X197481708Y-85360230D02*
X197451470Y-85329992D01*
X197451470Y-85329992D02*
X197390994Y-85299754D01*
X197390994Y-85299754D02*
X197270041Y-85299754D01*
X197270041Y-85299754D02*
X197209565Y-85329992D01*
X197209565Y-85329992D02*
X197179327Y-85360230D01*
X197179327Y-85360230D02*
X197149089Y-85420706D01*
X197149089Y-85420706D02*
X197149089Y-85450944D01*
X197149089Y-85450944D02*
X197179327Y-85511420D01*
X197179327Y-85511420D02*
X197209565Y-85541658D01*
X197209565Y-85541658D02*
X197270041Y-85571896D01*
X197270041Y-85571896D02*
X197390994Y-85571896D01*
X197390994Y-85571896D02*
X197451470Y-85602135D01*
X197451470Y-85602135D02*
X197481708Y-85632373D01*
X197481708Y-85632373D02*
X197511946Y-85692849D01*
X197511946Y-85692849D02*
X197511946Y-85813801D01*
X197511946Y-85813801D02*
X197481708Y-85874277D01*
X197481708Y-85874277D02*
X197451470Y-85904516D01*
X197451470Y-85904516D02*
X197390994Y-85934754D01*
X197390994Y-85934754D02*
X197270041Y-85934754D01*
X197270041Y-85934754D02*
X197209565Y-85904516D01*
X197209565Y-85904516D02*
X197179327Y-85874277D01*
X197179327Y-85874277D02*
X197149089Y-85813801D01*
X197149089Y-85813801D02*
X197149089Y-85692849D01*
X197149089Y-85692849D02*
X197179327Y-85632373D01*
X197179327Y-85632373D02*
X197209565Y-85602135D01*
X197209565Y-85602135D02*
X197270041Y-85571896D01*
X196544327Y-85934754D02*
X196907184Y-85934754D01*
X196725756Y-85934754D02*
X196725756Y-85299754D01*
X196725756Y-85299754D02*
X196786232Y-85390468D01*
X196786232Y-85390468D02*
X196846708Y-85450944D01*
X196846708Y-85450944D02*
X196907184Y-85481182D01*
X160363851Y-95404754D02*
X160575518Y-95102373D01*
X160726708Y-95404754D02*
X160726708Y-94769754D01*
X160726708Y-94769754D02*
X160484803Y-94769754D01*
X160484803Y-94769754D02*
X160424327Y-94799992D01*
X160424327Y-94799992D02*
X160394089Y-94830230D01*
X160394089Y-94830230D02*
X160363851Y-94890706D01*
X160363851Y-94890706D02*
X160363851Y-94981420D01*
X160363851Y-94981420D02*
X160394089Y-95041896D01*
X160394089Y-95041896D02*
X160424327Y-95072135D01*
X160424327Y-95072135D02*
X160484803Y-95102373D01*
X160484803Y-95102373D02*
X160726708Y-95102373D01*
X159789327Y-94769754D02*
X160091708Y-94769754D01*
X160091708Y-94769754D02*
X160121946Y-95072135D01*
X160121946Y-95072135D02*
X160091708Y-95041896D01*
X160091708Y-95041896D02*
X160031232Y-95011658D01*
X160031232Y-95011658D02*
X159880041Y-95011658D01*
X159880041Y-95011658D02*
X159819565Y-95041896D01*
X159819565Y-95041896D02*
X159789327Y-95072135D01*
X159789327Y-95072135D02*
X159759089Y-95132611D01*
X159759089Y-95132611D02*
X159759089Y-95283801D01*
X159759089Y-95283801D02*
X159789327Y-95344277D01*
X159789327Y-95344277D02*
X159819565Y-95374516D01*
X159819565Y-95374516D02*
X159880041Y-95404754D01*
X159880041Y-95404754D02*
X160031232Y-95404754D01*
X160031232Y-95404754D02*
X160091708Y-95374516D01*
X160091708Y-95374516D02*
X160121946Y-95344277D01*
X159517184Y-94830230D02*
X159486946Y-94799992D01*
X159486946Y-94799992D02*
X159426470Y-94769754D01*
X159426470Y-94769754D02*
X159275279Y-94769754D01*
X159275279Y-94769754D02*
X159214803Y-94799992D01*
X159214803Y-94799992D02*
X159184565Y-94830230D01*
X159184565Y-94830230D02*
X159154327Y-94890706D01*
X159154327Y-94890706D02*
X159154327Y-94951182D01*
X159154327Y-94951182D02*
X159184565Y-95041896D01*
X159184565Y-95041896D02*
X159547422Y-95404754D01*
X159547422Y-95404754D02*
X159154327Y-95404754D01*
X88431305Y-106124277D02*
X88461543Y-106154516D01*
X88461543Y-106154516D02*
X88552257Y-106184754D01*
X88552257Y-106184754D02*
X88612733Y-106184754D01*
X88612733Y-106184754D02*
X88703448Y-106154516D01*
X88703448Y-106154516D02*
X88763924Y-106094039D01*
X88763924Y-106094039D02*
X88794162Y-106033563D01*
X88794162Y-106033563D02*
X88824400Y-105912611D01*
X88824400Y-105912611D02*
X88824400Y-105821896D01*
X88824400Y-105821896D02*
X88794162Y-105700944D01*
X88794162Y-105700944D02*
X88763924Y-105640468D01*
X88763924Y-105640468D02*
X88703448Y-105579992D01*
X88703448Y-105579992D02*
X88612733Y-105549754D01*
X88612733Y-105549754D02*
X88552257Y-105549754D01*
X88552257Y-105549754D02*
X88461543Y-105579992D01*
X88461543Y-105579992D02*
X88431305Y-105610230D01*
X88189400Y-105610230D02*
X88159162Y-105579992D01*
X88159162Y-105579992D02*
X88098686Y-105549754D01*
X88098686Y-105549754D02*
X87947495Y-105549754D01*
X87947495Y-105549754D02*
X87887019Y-105579992D01*
X87887019Y-105579992D02*
X87856781Y-105610230D01*
X87856781Y-105610230D02*
X87826543Y-105670706D01*
X87826543Y-105670706D02*
X87826543Y-105731182D01*
X87826543Y-105731182D02*
X87856781Y-105821896D01*
X87856781Y-105821896D02*
X88219638Y-106184754D01*
X88219638Y-106184754D02*
X87826543Y-106184754D01*
X87463686Y-105821896D02*
X87524162Y-105791658D01*
X87524162Y-105791658D02*
X87554400Y-105761420D01*
X87554400Y-105761420D02*
X87584638Y-105700944D01*
X87584638Y-105700944D02*
X87584638Y-105670706D01*
X87584638Y-105670706D02*
X87554400Y-105610230D01*
X87554400Y-105610230D02*
X87524162Y-105579992D01*
X87524162Y-105579992D02*
X87463686Y-105549754D01*
X87463686Y-105549754D02*
X87342733Y-105549754D01*
X87342733Y-105549754D02*
X87282257Y-105579992D01*
X87282257Y-105579992D02*
X87252019Y-105610230D01*
X87252019Y-105610230D02*
X87221781Y-105670706D01*
X87221781Y-105670706D02*
X87221781Y-105700944D01*
X87221781Y-105700944D02*
X87252019Y-105761420D01*
X87252019Y-105761420D02*
X87282257Y-105791658D01*
X87282257Y-105791658D02*
X87342733Y-105821896D01*
X87342733Y-105821896D02*
X87463686Y-105821896D01*
X87463686Y-105821896D02*
X87524162Y-105852135D01*
X87524162Y-105852135D02*
X87554400Y-105882373D01*
X87554400Y-105882373D02*
X87584638Y-105942849D01*
X87584638Y-105942849D02*
X87584638Y-106063801D01*
X87584638Y-106063801D02*
X87554400Y-106124277D01*
X87554400Y-106124277D02*
X87524162Y-106154516D01*
X87524162Y-106154516D02*
X87463686Y-106184754D01*
X87463686Y-106184754D02*
X87342733Y-106184754D01*
X87342733Y-106184754D02*
X87282257Y-106154516D01*
X87282257Y-106154516D02*
X87252019Y-106124277D01*
X87252019Y-106124277D02*
X87221781Y-106063801D01*
X87221781Y-106063801D02*
X87221781Y-105942849D01*
X87221781Y-105942849D02*
X87252019Y-105882373D01*
X87252019Y-105882373D02*
X87282257Y-105852135D01*
X87282257Y-105852135D02*
X87342733Y-105821896D01*
X114727019Y-73048609D02*
X115029400Y-73048609D01*
X114394400Y-72836943D02*
X114727019Y-73048609D01*
X114727019Y-73048609D02*
X114394400Y-73260276D01*
X115029400Y-73804562D02*
X115029400Y-73441705D01*
X115029400Y-73623133D02*
X114394400Y-73623133D01*
X114394400Y-73623133D02*
X114485114Y-73562657D01*
X114485114Y-73562657D02*
X114545590Y-73502181D01*
X114545590Y-73502181D02*
X114575828Y-73441705D01*
X103941470Y-100514754D02*
X104153137Y-100212373D01*
X104304327Y-100514754D02*
X104304327Y-99879754D01*
X104304327Y-99879754D02*
X104062422Y-99879754D01*
X104062422Y-99879754D02*
X104001946Y-99909992D01*
X104001946Y-99909992D02*
X103971708Y-99940230D01*
X103971708Y-99940230D02*
X103941470Y-100000706D01*
X103941470Y-100000706D02*
X103941470Y-100091420D01*
X103941470Y-100091420D02*
X103971708Y-100151896D01*
X103971708Y-100151896D02*
X104001946Y-100182135D01*
X104001946Y-100182135D02*
X104062422Y-100212373D01*
X104062422Y-100212373D02*
X104304327Y-100212373D01*
X103397184Y-99879754D02*
X103518137Y-99879754D01*
X103518137Y-99879754D02*
X103578613Y-99909992D01*
X103578613Y-99909992D02*
X103608851Y-99940230D01*
X103608851Y-99940230D02*
X103669327Y-100030944D01*
X103669327Y-100030944D02*
X103699565Y-100151896D01*
X103699565Y-100151896D02*
X103699565Y-100393801D01*
X103699565Y-100393801D02*
X103669327Y-100454277D01*
X103669327Y-100454277D02*
X103639089Y-100484516D01*
X103639089Y-100484516D02*
X103578613Y-100514754D01*
X103578613Y-100514754D02*
X103457660Y-100514754D01*
X103457660Y-100514754D02*
X103397184Y-100484516D01*
X103397184Y-100484516D02*
X103366946Y-100454277D01*
X103366946Y-100454277D02*
X103336708Y-100393801D01*
X103336708Y-100393801D02*
X103336708Y-100242611D01*
X103336708Y-100242611D02*
X103366946Y-100182135D01*
X103366946Y-100182135D02*
X103397184Y-100151896D01*
X103397184Y-100151896D02*
X103457660Y-100121658D01*
X103457660Y-100121658D02*
X103578613Y-100121658D01*
X103578613Y-100121658D02*
X103639089Y-100151896D01*
X103639089Y-100151896D02*
X103669327Y-100182135D01*
X103669327Y-100182135D02*
X103699565Y-100242611D01*
X93623851Y-76194754D02*
X93835518Y-75892373D01*
X93986708Y-76194754D02*
X93986708Y-75559754D01*
X93986708Y-75559754D02*
X93744803Y-75559754D01*
X93744803Y-75559754D02*
X93684327Y-75589992D01*
X93684327Y-75589992D02*
X93654089Y-75620230D01*
X93654089Y-75620230D02*
X93623851Y-75680706D01*
X93623851Y-75680706D02*
X93623851Y-75771420D01*
X93623851Y-75771420D02*
X93654089Y-75831896D01*
X93654089Y-75831896D02*
X93684327Y-75862135D01*
X93684327Y-75862135D02*
X93744803Y-75892373D01*
X93744803Y-75892373D02*
X93986708Y-75892373D01*
X93019089Y-76194754D02*
X93381946Y-76194754D01*
X93200518Y-76194754D02*
X93200518Y-75559754D01*
X93200518Y-75559754D02*
X93260994Y-75650468D01*
X93260994Y-75650468D02*
X93321470Y-75710944D01*
X93321470Y-75710944D02*
X93381946Y-75741182D01*
X92414327Y-76194754D02*
X92777184Y-76194754D01*
X92595756Y-76194754D02*
X92595756Y-75559754D01*
X92595756Y-75559754D02*
X92656232Y-75650468D01*
X92656232Y-75650468D02*
X92716708Y-75710944D01*
X92716708Y-75710944D02*
X92777184Y-75741182D01*
X159986113Y-98485230D02*
X160046589Y-98454992D01*
X160046589Y-98454992D02*
X160107065Y-98394516D01*
X160107065Y-98394516D02*
X160197779Y-98303801D01*
X160197779Y-98303801D02*
X160258256Y-98273563D01*
X160258256Y-98273563D02*
X160318732Y-98273563D01*
X160288494Y-98424754D02*
X160348970Y-98394516D01*
X160348970Y-98394516D02*
X160409446Y-98334039D01*
X160409446Y-98334039D02*
X160439684Y-98213087D01*
X160439684Y-98213087D02*
X160439684Y-98001420D01*
X160439684Y-98001420D02*
X160409446Y-97880468D01*
X160409446Y-97880468D02*
X160348970Y-97819992D01*
X160348970Y-97819992D02*
X160288494Y-97789754D01*
X160288494Y-97789754D02*
X160167541Y-97789754D01*
X160167541Y-97789754D02*
X160107065Y-97819992D01*
X160107065Y-97819992D02*
X160046589Y-97880468D01*
X160046589Y-97880468D02*
X160016351Y-98001420D01*
X160016351Y-98001420D02*
X160016351Y-98213087D01*
X160016351Y-98213087D02*
X160046589Y-98334039D01*
X160046589Y-98334039D02*
X160107065Y-98394516D01*
X160107065Y-98394516D02*
X160167541Y-98424754D01*
X160167541Y-98424754D02*
X160288494Y-98424754D01*
X159774446Y-97850230D02*
X159744208Y-97819992D01*
X159744208Y-97819992D02*
X159683732Y-97789754D01*
X159683732Y-97789754D02*
X159532541Y-97789754D01*
X159532541Y-97789754D02*
X159472065Y-97819992D01*
X159472065Y-97819992D02*
X159441827Y-97850230D01*
X159441827Y-97850230D02*
X159411589Y-97910706D01*
X159411589Y-97910706D02*
X159411589Y-97971182D01*
X159411589Y-97971182D02*
X159441827Y-98061896D01*
X159441827Y-98061896D02*
X159804684Y-98424754D01*
X159804684Y-98424754D02*
X159411589Y-98424754D01*
X160298494Y-81815230D02*
X160358970Y-81784992D01*
X160358970Y-81784992D02*
X160419446Y-81724516D01*
X160419446Y-81724516D02*
X160510160Y-81633801D01*
X160510160Y-81633801D02*
X160570637Y-81603563D01*
X160570637Y-81603563D02*
X160631113Y-81603563D01*
X160600875Y-81754754D02*
X160661351Y-81724516D01*
X160661351Y-81724516D02*
X160721827Y-81664039D01*
X160721827Y-81664039D02*
X160752065Y-81543087D01*
X160752065Y-81543087D02*
X160752065Y-81331420D01*
X160752065Y-81331420D02*
X160721827Y-81210468D01*
X160721827Y-81210468D02*
X160661351Y-81149992D01*
X160661351Y-81149992D02*
X160600875Y-81119754D01*
X160600875Y-81119754D02*
X160479922Y-81119754D01*
X160479922Y-81119754D02*
X160419446Y-81149992D01*
X160419446Y-81149992D02*
X160358970Y-81210468D01*
X160358970Y-81210468D02*
X160328732Y-81331420D01*
X160328732Y-81331420D02*
X160328732Y-81543087D01*
X160328732Y-81543087D02*
X160358970Y-81664039D01*
X160358970Y-81664039D02*
X160419446Y-81724516D01*
X160419446Y-81724516D02*
X160479922Y-81754754D01*
X160479922Y-81754754D02*
X160600875Y-81754754D01*
X160086827Y-81180230D02*
X160056589Y-81149992D01*
X160056589Y-81149992D02*
X159996113Y-81119754D01*
X159996113Y-81119754D02*
X159844922Y-81119754D01*
X159844922Y-81119754D02*
X159784446Y-81149992D01*
X159784446Y-81149992D02*
X159754208Y-81180230D01*
X159754208Y-81180230D02*
X159723970Y-81240706D01*
X159723970Y-81240706D02*
X159723970Y-81301182D01*
X159723970Y-81301182D02*
X159754208Y-81391896D01*
X159754208Y-81391896D02*
X160117065Y-81754754D01*
X160117065Y-81754754D02*
X159723970Y-81754754D01*
X159482065Y-81180230D02*
X159451827Y-81149992D01*
X159451827Y-81149992D02*
X159391351Y-81119754D01*
X159391351Y-81119754D02*
X159240160Y-81119754D01*
X159240160Y-81119754D02*
X159179684Y-81149992D01*
X159179684Y-81149992D02*
X159149446Y-81180230D01*
X159149446Y-81180230D02*
X159119208Y-81240706D01*
X159119208Y-81240706D02*
X159119208Y-81301182D01*
X159119208Y-81301182D02*
X159149446Y-81391896D01*
X159149446Y-81391896D02*
X159512303Y-81754754D01*
X159512303Y-81754754D02*
X159119208Y-81754754D01*
X99009400Y-114915157D02*
X98707019Y-114703490D01*
X99009400Y-114552300D02*
X98374400Y-114552300D01*
X98374400Y-114552300D02*
X98374400Y-114794205D01*
X98374400Y-114794205D02*
X98404638Y-114854681D01*
X98404638Y-114854681D02*
X98434876Y-114884919D01*
X98434876Y-114884919D02*
X98495352Y-114915157D01*
X98495352Y-114915157D02*
X98586066Y-114915157D01*
X98586066Y-114915157D02*
X98646542Y-114884919D01*
X98646542Y-114884919D02*
X98676781Y-114854681D01*
X98676781Y-114854681D02*
X98707019Y-114794205D01*
X98707019Y-114794205D02*
X98707019Y-114552300D01*
X98586066Y-115459443D02*
X99009400Y-115459443D01*
X98344162Y-115308252D02*
X98797733Y-115157062D01*
X98797733Y-115157062D02*
X98797733Y-115550157D01*
X188869400Y-46112776D02*
X188567019Y-45901109D01*
X188869400Y-45749919D02*
X188234400Y-45749919D01*
X188234400Y-45749919D02*
X188234400Y-45991824D01*
X188234400Y-45991824D02*
X188264638Y-46052300D01*
X188264638Y-46052300D02*
X188294876Y-46082538D01*
X188294876Y-46082538D02*
X188355352Y-46112776D01*
X188355352Y-46112776D02*
X188446066Y-46112776D01*
X188446066Y-46112776D02*
X188506542Y-46082538D01*
X188506542Y-46082538D02*
X188536781Y-46052300D01*
X188536781Y-46052300D02*
X188567019Y-45991824D01*
X188567019Y-45991824D02*
X188567019Y-45749919D01*
X188234400Y-46324443D02*
X188234400Y-46717538D01*
X188234400Y-46717538D02*
X188476304Y-46505871D01*
X188476304Y-46505871D02*
X188476304Y-46596586D01*
X188476304Y-46596586D02*
X188506542Y-46657062D01*
X188506542Y-46657062D02*
X188536781Y-46687300D01*
X188536781Y-46687300D02*
X188597257Y-46717538D01*
X188597257Y-46717538D02*
X188748447Y-46717538D01*
X188748447Y-46717538D02*
X188808923Y-46687300D01*
X188808923Y-46687300D02*
X188839162Y-46657062D01*
X188839162Y-46657062D02*
X188869400Y-46596586D01*
X188869400Y-46596586D02*
X188869400Y-46415157D01*
X188869400Y-46415157D02*
X188839162Y-46354681D01*
X188839162Y-46354681D02*
X188808923Y-46324443D01*
X188446066Y-47261824D02*
X188869400Y-47261824D01*
X188204162Y-47110633D02*
X188657733Y-46959443D01*
X188657733Y-46959443D02*
X188657733Y-47352538D01*
X80003851Y-117084754D02*
X80215518Y-116782373D01*
X80366708Y-117084754D02*
X80366708Y-116449754D01*
X80366708Y-116449754D02*
X80124803Y-116449754D01*
X80124803Y-116449754D02*
X80064327Y-116479992D01*
X80064327Y-116479992D02*
X80034089Y-116510230D01*
X80034089Y-116510230D02*
X80003851Y-116570706D01*
X80003851Y-116570706D02*
X80003851Y-116661420D01*
X80003851Y-116661420D02*
X80034089Y-116721896D01*
X80034089Y-116721896D02*
X80064327Y-116752135D01*
X80064327Y-116752135D02*
X80124803Y-116782373D01*
X80124803Y-116782373D02*
X80366708Y-116782373D01*
X79429327Y-116449754D02*
X79731708Y-116449754D01*
X79731708Y-116449754D02*
X79761946Y-116752135D01*
X79761946Y-116752135D02*
X79731708Y-116721896D01*
X79731708Y-116721896D02*
X79671232Y-116691658D01*
X79671232Y-116691658D02*
X79520041Y-116691658D01*
X79520041Y-116691658D02*
X79459565Y-116721896D01*
X79459565Y-116721896D02*
X79429327Y-116752135D01*
X79429327Y-116752135D02*
X79399089Y-116812611D01*
X79399089Y-116812611D02*
X79399089Y-116963801D01*
X79399089Y-116963801D02*
X79429327Y-117024277D01*
X79429327Y-117024277D02*
X79459565Y-117054516D01*
X79459565Y-117054516D02*
X79520041Y-117084754D01*
X79520041Y-117084754D02*
X79671232Y-117084754D01*
X79671232Y-117084754D02*
X79731708Y-117054516D01*
X79731708Y-117054516D02*
X79761946Y-117024277D01*
X79096708Y-117084754D02*
X78975756Y-117084754D01*
X78975756Y-117084754D02*
X78915279Y-117054516D01*
X78915279Y-117054516D02*
X78885041Y-117024277D01*
X78885041Y-117024277D02*
X78824565Y-116933563D01*
X78824565Y-116933563D02*
X78794327Y-116812611D01*
X78794327Y-116812611D02*
X78794327Y-116570706D01*
X78794327Y-116570706D02*
X78824565Y-116510230D01*
X78824565Y-116510230D02*
X78854803Y-116479992D01*
X78854803Y-116479992D02*
X78915279Y-116449754D01*
X78915279Y-116449754D02*
X79036232Y-116449754D01*
X79036232Y-116449754D02*
X79096708Y-116479992D01*
X79096708Y-116479992D02*
X79126946Y-116510230D01*
X79126946Y-116510230D02*
X79157184Y-116570706D01*
X79157184Y-116570706D02*
X79157184Y-116721896D01*
X79157184Y-116721896D02*
X79126946Y-116782373D01*
X79126946Y-116782373D02*
X79096708Y-116812611D01*
X79096708Y-116812611D02*
X79036232Y-116842849D01*
X79036232Y-116842849D02*
X78915279Y-116842849D01*
X78915279Y-116842849D02*
X78854803Y-116812611D01*
X78854803Y-116812611D02*
X78824565Y-116782373D01*
X78824565Y-116782373D02*
X78794327Y-116721896D01*
X141329446Y-74389754D02*
X141329446Y-74903801D01*
X141329446Y-74903801D02*
X141299208Y-74964277D01*
X141299208Y-74964277D02*
X141268970Y-74994516D01*
X141268970Y-74994516D02*
X141208494Y-75024754D01*
X141208494Y-75024754D02*
X141087541Y-75024754D01*
X141087541Y-75024754D02*
X141027065Y-74994516D01*
X141027065Y-74994516D02*
X140996827Y-74964277D01*
X140996827Y-74964277D02*
X140966589Y-74903801D01*
X140966589Y-74903801D02*
X140966589Y-74389754D01*
X140724684Y-74389754D02*
X140301351Y-74389754D01*
X140301351Y-74389754D02*
X140573494Y-75024754D01*
X119333851Y-70744277D02*
X119364089Y-70774516D01*
X119364089Y-70774516D02*
X119454803Y-70804754D01*
X119454803Y-70804754D02*
X119515279Y-70804754D01*
X119515279Y-70804754D02*
X119605994Y-70774516D01*
X119605994Y-70774516D02*
X119666470Y-70714039D01*
X119666470Y-70714039D02*
X119696708Y-70653563D01*
X119696708Y-70653563D02*
X119726946Y-70532611D01*
X119726946Y-70532611D02*
X119726946Y-70441896D01*
X119726946Y-70441896D02*
X119696708Y-70320944D01*
X119696708Y-70320944D02*
X119666470Y-70260468D01*
X119666470Y-70260468D02*
X119605994Y-70199992D01*
X119605994Y-70199992D02*
X119515279Y-70169754D01*
X119515279Y-70169754D02*
X119454803Y-70169754D01*
X119454803Y-70169754D02*
X119364089Y-70199992D01*
X119364089Y-70199992D02*
X119333851Y-70230230D01*
X118729089Y-70804754D02*
X119091946Y-70804754D01*
X118910518Y-70804754D02*
X118910518Y-70169754D01*
X118910518Y-70169754D02*
X118970994Y-70260468D01*
X118970994Y-70260468D02*
X119031470Y-70320944D01*
X119031470Y-70320944D02*
X119091946Y-70351182D01*
X118184803Y-70381420D02*
X118184803Y-70804754D01*
X118335994Y-70139516D02*
X118487184Y-70593087D01*
X118487184Y-70593087D02*
X118094089Y-70593087D01*
X197923851Y-102644754D02*
X198135518Y-102342373D01*
X198286708Y-102644754D02*
X198286708Y-102009754D01*
X198286708Y-102009754D02*
X198044803Y-102009754D01*
X198044803Y-102009754D02*
X197984327Y-102039992D01*
X197984327Y-102039992D02*
X197954089Y-102070230D01*
X197954089Y-102070230D02*
X197923851Y-102130706D01*
X197923851Y-102130706D02*
X197923851Y-102221420D01*
X197923851Y-102221420D02*
X197954089Y-102281896D01*
X197954089Y-102281896D02*
X197984327Y-102312135D01*
X197984327Y-102312135D02*
X198044803Y-102342373D01*
X198044803Y-102342373D02*
X198286708Y-102342373D01*
X197349327Y-102009754D02*
X197651708Y-102009754D01*
X197651708Y-102009754D02*
X197681946Y-102312135D01*
X197681946Y-102312135D02*
X197651708Y-102281896D01*
X197651708Y-102281896D02*
X197591232Y-102251658D01*
X197591232Y-102251658D02*
X197440041Y-102251658D01*
X197440041Y-102251658D02*
X197379565Y-102281896D01*
X197379565Y-102281896D02*
X197349327Y-102312135D01*
X197349327Y-102312135D02*
X197319089Y-102372611D01*
X197319089Y-102372611D02*
X197319089Y-102523801D01*
X197319089Y-102523801D02*
X197349327Y-102584277D01*
X197349327Y-102584277D02*
X197379565Y-102614516D01*
X197379565Y-102614516D02*
X197440041Y-102644754D01*
X197440041Y-102644754D02*
X197591232Y-102644754D01*
X197591232Y-102644754D02*
X197651708Y-102614516D01*
X197651708Y-102614516D02*
X197681946Y-102584277D01*
X196774803Y-102221420D02*
X196774803Y-102644754D01*
X196925994Y-101979516D02*
X197077184Y-102433087D01*
X197077184Y-102433087D02*
X196684089Y-102433087D01*
X197586113Y-99765230D02*
X197646589Y-99734992D01*
X197646589Y-99734992D02*
X197707065Y-99674516D01*
X197707065Y-99674516D02*
X197797779Y-99583801D01*
X197797779Y-99583801D02*
X197858256Y-99553563D01*
X197858256Y-99553563D02*
X197918732Y-99553563D01*
X197888494Y-99704754D02*
X197948970Y-99674516D01*
X197948970Y-99674516D02*
X198009446Y-99614039D01*
X198009446Y-99614039D02*
X198039684Y-99493087D01*
X198039684Y-99493087D02*
X198039684Y-99281420D01*
X198039684Y-99281420D02*
X198009446Y-99160468D01*
X198009446Y-99160468D02*
X197948970Y-99099992D01*
X197948970Y-99099992D02*
X197888494Y-99069754D01*
X197888494Y-99069754D02*
X197767541Y-99069754D01*
X197767541Y-99069754D02*
X197707065Y-99099992D01*
X197707065Y-99099992D02*
X197646589Y-99160468D01*
X197646589Y-99160468D02*
X197616351Y-99281420D01*
X197616351Y-99281420D02*
X197616351Y-99493087D01*
X197616351Y-99493087D02*
X197646589Y-99614039D01*
X197646589Y-99614039D02*
X197707065Y-99674516D01*
X197707065Y-99674516D02*
X197767541Y-99704754D01*
X197767541Y-99704754D02*
X197888494Y-99704754D01*
X197404684Y-99069754D02*
X197011589Y-99069754D01*
X197011589Y-99069754D02*
X197223256Y-99311658D01*
X197223256Y-99311658D02*
X197132541Y-99311658D01*
X197132541Y-99311658D02*
X197072065Y-99341896D01*
X197072065Y-99341896D02*
X197041827Y-99372135D01*
X197041827Y-99372135D02*
X197011589Y-99432611D01*
X197011589Y-99432611D02*
X197011589Y-99583801D01*
X197011589Y-99583801D02*
X197041827Y-99644277D01*
X197041827Y-99644277D02*
X197072065Y-99674516D01*
X197072065Y-99674516D02*
X197132541Y-99704754D01*
X197132541Y-99704754D02*
X197313970Y-99704754D01*
X197313970Y-99704754D02*
X197374446Y-99674516D01*
X197374446Y-99674516D02*
X197404684Y-99644277D01*
X91339400Y-104122776D02*
X91037019Y-103911109D01*
X91339400Y-103759919D02*
X90704400Y-103759919D01*
X90704400Y-103759919D02*
X90704400Y-104001824D01*
X90704400Y-104001824D02*
X90734638Y-104062300D01*
X90734638Y-104062300D02*
X90764876Y-104092538D01*
X90764876Y-104092538D02*
X90825352Y-104122776D01*
X90825352Y-104122776D02*
X90916066Y-104122776D01*
X90916066Y-104122776D02*
X90976542Y-104092538D01*
X90976542Y-104092538D02*
X91006781Y-104062300D01*
X91006781Y-104062300D02*
X91037019Y-104001824D01*
X91037019Y-104001824D02*
X91037019Y-103759919D01*
X91339400Y-104727538D02*
X91339400Y-104364681D01*
X91339400Y-104546109D02*
X90704400Y-104546109D01*
X90704400Y-104546109D02*
X90795114Y-104485633D01*
X90795114Y-104485633D02*
X90855590Y-104425157D01*
X90855590Y-104425157D02*
X90885828Y-104364681D01*
X90764876Y-104969443D02*
X90734638Y-104999681D01*
X90734638Y-104999681D02*
X90704400Y-105060157D01*
X90704400Y-105060157D02*
X90704400Y-105211348D01*
X90704400Y-105211348D02*
X90734638Y-105271824D01*
X90734638Y-105271824D02*
X90764876Y-105302062D01*
X90764876Y-105302062D02*
X90825352Y-105332300D01*
X90825352Y-105332300D02*
X90885828Y-105332300D01*
X90885828Y-105332300D02*
X90976542Y-105302062D01*
X90976542Y-105302062D02*
X91339400Y-104939205D01*
X91339400Y-104939205D02*
X91339400Y-105332300D01*
X215611827Y-89019754D02*
X215611827Y-89533801D01*
X215611827Y-89533801D02*
X215581589Y-89594277D01*
X215581589Y-89594277D02*
X215551351Y-89624516D01*
X215551351Y-89624516D02*
X215490875Y-89654754D01*
X215490875Y-89654754D02*
X215369922Y-89654754D01*
X215369922Y-89654754D02*
X215309446Y-89624516D01*
X215309446Y-89624516D02*
X215279208Y-89594277D01*
X215279208Y-89594277D02*
X215248970Y-89533801D01*
X215248970Y-89533801D02*
X215248970Y-89019754D01*
X214613970Y-89654754D02*
X214976827Y-89654754D01*
X214795399Y-89654754D02*
X214795399Y-89019754D01*
X214795399Y-89019754D02*
X214855875Y-89110468D01*
X214855875Y-89110468D02*
X214916351Y-89170944D01*
X214916351Y-89170944D02*
X214976827Y-89201182D01*
X214220875Y-89019754D02*
X214160398Y-89019754D01*
X214160398Y-89019754D02*
X214099922Y-89049992D01*
X214099922Y-89049992D02*
X214069684Y-89080230D01*
X214069684Y-89080230D02*
X214039446Y-89140706D01*
X214039446Y-89140706D02*
X214009208Y-89261658D01*
X214009208Y-89261658D02*
X214009208Y-89412849D01*
X214009208Y-89412849D02*
X214039446Y-89533801D01*
X214039446Y-89533801D02*
X214069684Y-89594277D01*
X214069684Y-89594277D02*
X214099922Y-89624516D01*
X214099922Y-89624516D02*
X214160398Y-89654754D01*
X214160398Y-89654754D02*
X214220875Y-89654754D01*
X214220875Y-89654754D02*
X214281351Y-89624516D01*
X214281351Y-89624516D02*
X214311589Y-89594277D01*
X214311589Y-89594277D02*
X214341827Y-89533801D01*
X214341827Y-89533801D02*
X214372065Y-89412849D01*
X214372065Y-89412849D02*
X214372065Y-89261658D01*
X214372065Y-89261658D02*
X214341827Y-89140706D01*
X214341827Y-89140706D02*
X214311589Y-89080230D01*
X214311589Y-89080230D02*
X214281351Y-89049992D01*
X214281351Y-89049992D02*
X214220875Y-89019754D01*
X160303851Y-78694754D02*
X160515518Y-78392373D01*
X160666708Y-78694754D02*
X160666708Y-78059754D01*
X160666708Y-78059754D02*
X160424803Y-78059754D01*
X160424803Y-78059754D02*
X160364327Y-78089992D01*
X160364327Y-78089992D02*
X160334089Y-78120230D01*
X160334089Y-78120230D02*
X160303851Y-78180706D01*
X160303851Y-78180706D02*
X160303851Y-78271420D01*
X160303851Y-78271420D02*
X160334089Y-78331896D01*
X160334089Y-78331896D02*
X160364327Y-78362135D01*
X160364327Y-78362135D02*
X160424803Y-78392373D01*
X160424803Y-78392373D02*
X160666708Y-78392373D01*
X160092184Y-78059754D02*
X159699089Y-78059754D01*
X159699089Y-78059754D02*
X159910756Y-78301658D01*
X159910756Y-78301658D02*
X159820041Y-78301658D01*
X159820041Y-78301658D02*
X159759565Y-78331896D01*
X159759565Y-78331896D02*
X159729327Y-78362135D01*
X159729327Y-78362135D02*
X159699089Y-78422611D01*
X159699089Y-78422611D02*
X159699089Y-78573801D01*
X159699089Y-78573801D02*
X159729327Y-78634277D01*
X159729327Y-78634277D02*
X159759565Y-78664516D01*
X159759565Y-78664516D02*
X159820041Y-78694754D01*
X159820041Y-78694754D02*
X160001470Y-78694754D01*
X160001470Y-78694754D02*
X160061946Y-78664516D01*
X160061946Y-78664516D02*
X160092184Y-78634277D01*
X159094327Y-78694754D02*
X159457184Y-78694754D01*
X159275756Y-78694754D02*
X159275756Y-78059754D01*
X159275756Y-78059754D02*
X159336232Y-78150468D01*
X159336232Y-78150468D02*
X159396708Y-78210944D01*
X159396708Y-78210944D02*
X159457184Y-78241182D01*
X147353851Y-52864277D02*
X147384089Y-52894516D01*
X147384089Y-52894516D02*
X147474803Y-52924754D01*
X147474803Y-52924754D02*
X147535279Y-52924754D01*
X147535279Y-52924754D02*
X147625994Y-52894516D01*
X147625994Y-52894516D02*
X147686470Y-52834039D01*
X147686470Y-52834039D02*
X147716708Y-52773563D01*
X147716708Y-52773563D02*
X147746946Y-52652611D01*
X147746946Y-52652611D02*
X147746946Y-52561896D01*
X147746946Y-52561896D02*
X147716708Y-52440944D01*
X147716708Y-52440944D02*
X147686470Y-52380468D01*
X147686470Y-52380468D02*
X147625994Y-52319992D01*
X147625994Y-52319992D02*
X147535279Y-52289754D01*
X147535279Y-52289754D02*
X147474803Y-52289754D01*
X147474803Y-52289754D02*
X147384089Y-52319992D01*
X147384089Y-52319992D02*
X147353851Y-52350230D01*
X146779327Y-52289754D02*
X147081708Y-52289754D01*
X147081708Y-52289754D02*
X147111946Y-52592135D01*
X147111946Y-52592135D02*
X147081708Y-52561896D01*
X147081708Y-52561896D02*
X147021232Y-52531658D01*
X147021232Y-52531658D02*
X146870041Y-52531658D01*
X146870041Y-52531658D02*
X146809565Y-52561896D01*
X146809565Y-52561896D02*
X146779327Y-52592135D01*
X146779327Y-52592135D02*
X146749089Y-52652611D01*
X146749089Y-52652611D02*
X146749089Y-52803801D01*
X146749089Y-52803801D02*
X146779327Y-52864277D01*
X146779327Y-52864277D02*
X146809565Y-52894516D01*
X146809565Y-52894516D02*
X146870041Y-52924754D01*
X146870041Y-52924754D02*
X147021232Y-52924754D01*
X147021232Y-52924754D02*
X147081708Y-52894516D01*
X147081708Y-52894516D02*
X147111946Y-52864277D01*
X146144327Y-52924754D02*
X146507184Y-52924754D01*
X146325756Y-52924754D02*
X146325756Y-52289754D01*
X146325756Y-52289754D02*
X146386232Y-52380468D01*
X146386232Y-52380468D02*
X146446708Y-52440944D01*
X146446708Y-52440944D02*
X146507184Y-52471182D01*
X96679876Y-119310514D02*
X96649638Y-119250038D01*
X96649638Y-119250038D02*
X96589162Y-119189562D01*
X96589162Y-119189562D02*
X96498447Y-119098848D01*
X96498447Y-119098848D02*
X96468209Y-119038371D01*
X96468209Y-119038371D02*
X96468209Y-118977895D01*
X96619400Y-119008133D02*
X96589162Y-118947657D01*
X96589162Y-118947657D02*
X96528685Y-118887181D01*
X96528685Y-118887181D02*
X96407733Y-118856943D01*
X96407733Y-118856943D02*
X96196066Y-118856943D01*
X96196066Y-118856943D02*
X96075114Y-118887181D01*
X96075114Y-118887181D02*
X96014638Y-118947657D01*
X96014638Y-118947657D02*
X95984400Y-119008133D01*
X95984400Y-119008133D02*
X95984400Y-119129086D01*
X95984400Y-119129086D02*
X96014638Y-119189562D01*
X96014638Y-119189562D02*
X96075114Y-119250038D01*
X96075114Y-119250038D02*
X96196066Y-119280276D01*
X96196066Y-119280276D02*
X96407733Y-119280276D01*
X96407733Y-119280276D02*
X96528685Y-119250038D01*
X96528685Y-119250038D02*
X96589162Y-119189562D01*
X96589162Y-119189562D02*
X96619400Y-119129086D01*
X96619400Y-119129086D02*
X96619400Y-119008133D01*
X96256542Y-119643133D02*
X96226304Y-119582657D01*
X96226304Y-119582657D02*
X96196066Y-119552419D01*
X96196066Y-119552419D02*
X96135590Y-119522181D01*
X96135590Y-119522181D02*
X96105352Y-119522181D01*
X96105352Y-119522181D02*
X96044876Y-119552419D01*
X96044876Y-119552419D02*
X96014638Y-119582657D01*
X96014638Y-119582657D02*
X95984400Y-119643133D01*
X95984400Y-119643133D02*
X95984400Y-119764086D01*
X95984400Y-119764086D02*
X96014638Y-119824562D01*
X96014638Y-119824562D02*
X96044876Y-119854800D01*
X96044876Y-119854800D02*
X96105352Y-119885038D01*
X96105352Y-119885038D02*
X96135590Y-119885038D01*
X96135590Y-119885038D02*
X96196066Y-119854800D01*
X96196066Y-119854800D02*
X96226304Y-119824562D01*
X96226304Y-119824562D02*
X96256542Y-119764086D01*
X96256542Y-119764086D02*
X96256542Y-119643133D01*
X96256542Y-119643133D02*
X96286781Y-119582657D01*
X96286781Y-119582657D02*
X96317019Y-119552419D01*
X96317019Y-119552419D02*
X96377495Y-119522181D01*
X96377495Y-119522181D02*
X96498447Y-119522181D01*
X96498447Y-119522181D02*
X96558923Y-119552419D01*
X96558923Y-119552419D02*
X96589162Y-119582657D01*
X96589162Y-119582657D02*
X96619400Y-119643133D01*
X96619400Y-119643133D02*
X96619400Y-119764086D01*
X96619400Y-119764086D02*
X96589162Y-119824562D01*
X96589162Y-119824562D02*
X96558923Y-119854800D01*
X96558923Y-119854800D02*
X96498447Y-119885038D01*
X96498447Y-119885038D02*
X96377495Y-119885038D01*
X96377495Y-119885038D02*
X96317019Y-119854800D01*
X96317019Y-119854800D02*
X96286781Y-119824562D01*
X96286781Y-119824562D02*
X96256542Y-119764086D01*
X79923851Y-109364754D02*
X80135518Y-109062373D01*
X80286708Y-109364754D02*
X80286708Y-108729754D01*
X80286708Y-108729754D02*
X80044803Y-108729754D01*
X80044803Y-108729754D02*
X79984327Y-108759992D01*
X79984327Y-108759992D02*
X79954089Y-108790230D01*
X79954089Y-108790230D02*
X79923851Y-108850706D01*
X79923851Y-108850706D02*
X79923851Y-108941420D01*
X79923851Y-108941420D02*
X79954089Y-109001896D01*
X79954089Y-109001896D02*
X79984327Y-109032135D01*
X79984327Y-109032135D02*
X80044803Y-109062373D01*
X80044803Y-109062373D02*
X80286708Y-109062373D01*
X79379565Y-108941420D02*
X79379565Y-109364754D01*
X79530756Y-108699516D02*
X79681946Y-109153087D01*
X79681946Y-109153087D02*
X79288851Y-109153087D01*
X79107422Y-108729754D02*
X78684089Y-108729754D01*
X78684089Y-108729754D02*
X78956232Y-109364754D01*
X99059400Y-120392776D02*
X98757019Y-120181109D01*
X99059400Y-120029919D02*
X98424400Y-120029919D01*
X98424400Y-120029919D02*
X98424400Y-120271824D01*
X98424400Y-120271824D02*
X98454638Y-120332300D01*
X98454638Y-120332300D02*
X98484876Y-120362538D01*
X98484876Y-120362538D02*
X98545352Y-120392776D01*
X98545352Y-120392776D02*
X98636066Y-120392776D01*
X98636066Y-120392776D02*
X98696542Y-120362538D01*
X98696542Y-120362538D02*
X98726781Y-120332300D01*
X98726781Y-120332300D02*
X98757019Y-120271824D01*
X98757019Y-120271824D02*
X98757019Y-120029919D01*
X99059400Y-120997538D02*
X99059400Y-120634681D01*
X99059400Y-120816109D02*
X98424400Y-120816109D01*
X98424400Y-120816109D02*
X98515114Y-120755633D01*
X98515114Y-120755633D02*
X98575590Y-120695157D01*
X98575590Y-120695157D02*
X98605828Y-120634681D01*
X98424400Y-121209205D02*
X98424400Y-121602300D01*
X98424400Y-121602300D02*
X98666304Y-121390633D01*
X98666304Y-121390633D02*
X98666304Y-121481348D01*
X98666304Y-121481348D02*
X98696542Y-121541824D01*
X98696542Y-121541824D02*
X98726781Y-121572062D01*
X98726781Y-121572062D02*
X98787257Y-121602300D01*
X98787257Y-121602300D02*
X98938447Y-121602300D01*
X98938447Y-121602300D02*
X98998923Y-121572062D01*
X98998923Y-121572062D02*
X99029162Y-121541824D01*
X99029162Y-121541824D02*
X99059400Y-121481348D01*
X99059400Y-121481348D02*
X99059400Y-121299919D01*
X99059400Y-121299919D02*
X99029162Y-121239443D01*
X99029162Y-121239443D02*
X98998923Y-121209205D01*
X139031827Y-54059754D02*
X139031827Y-54573801D01*
X139031827Y-54573801D02*
X139001589Y-54634277D01*
X139001589Y-54634277D02*
X138971351Y-54664516D01*
X138971351Y-54664516D02*
X138910875Y-54694754D01*
X138910875Y-54694754D02*
X138789922Y-54694754D01*
X138789922Y-54694754D02*
X138729446Y-54664516D01*
X138729446Y-54664516D02*
X138699208Y-54634277D01*
X138699208Y-54634277D02*
X138668970Y-54573801D01*
X138668970Y-54573801D02*
X138668970Y-54059754D01*
X138033970Y-54694754D02*
X138396827Y-54694754D01*
X138215399Y-54694754D02*
X138215399Y-54059754D01*
X138215399Y-54059754D02*
X138275875Y-54150468D01*
X138275875Y-54150468D02*
X138336351Y-54210944D01*
X138336351Y-54210944D02*
X138396827Y-54241182D01*
X137489684Y-54059754D02*
X137610637Y-54059754D01*
X137610637Y-54059754D02*
X137671113Y-54089992D01*
X137671113Y-54089992D02*
X137701351Y-54120230D01*
X137701351Y-54120230D02*
X137761827Y-54210944D01*
X137761827Y-54210944D02*
X137792065Y-54331896D01*
X137792065Y-54331896D02*
X137792065Y-54573801D01*
X137792065Y-54573801D02*
X137761827Y-54634277D01*
X137761827Y-54634277D02*
X137731589Y-54664516D01*
X137731589Y-54664516D02*
X137671113Y-54694754D01*
X137671113Y-54694754D02*
X137550160Y-54694754D01*
X137550160Y-54694754D02*
X137489684Y-54664516D01*
X137489684Y-54664516D02*
X137459446Y-54634277D01*
X137459446Y-54634277D02*
X137429208Y-54573801D01*
X137429208Y-54573801D02*
X137429208Y-54422611D01*
X137429208Y-54422611D02*
X137459446Y-54362135D01*
X137459446Y-54362135D02*
X137489684Y-54331896D01*
X137489684Y-54331896D02*
X137550160Y-54301658D01*
X137550160Y-54301658D02*
X137671113Y-54301658D01*
X137671113Y-54301658D02*
X137731589Y-54331896D01*
X137731589Y-54331896D02*
X137761827Y-54362135D01*
X137761827Y-54362135D02*
X137792065Y-54422611D01*
X94699400Y-119105157D02*
X94397019Y-118893490D01*
X94699400Y-118742300D02*
X94064400Y-118742300D01*
X94064400Y-118742300D02*
X94064400Y-118984205D01*
X94064400Y-118984205D02*
X94094638Y-119044681D01*
X94094638Y-119044681D02*
X94124876Y-119074919D01*
X94124876Y-119074919D02*
X94185352Y-119105157D01*
X94185352Y-119105157D02*
X94276066Y-119105157D01*
X94276066Y-119105157D02*
X94336542Y-119074919D01*
X94336542Y-119074919D02*
X94366781Y-119044681D01*
X94366781Y-119044681D02*
X94397019Y-118984205D01*
X94397019Y-118984205D02*
X94397019Y-118742300D01*
X94064400Y-119316824D02*
X94064400Y-119709919D01*
X94064400Y-119709919D02*
X94306304Y-119498252D01*
X94306304Y-119498252D02*
X94306304Y-119588967D01*
X94306304Y-119588967D02*
X94336542Y-119649443D01*
X94336542Y-119649443D02*
X94366781Y-119679681D01*
X94366781Y-119679681D02*
X94427257Y-119709919D01*
X94427257Y-119709919D02*
X94578447Y-119709919D01*
X94578447Y-119709919D02*
X94638923Y-119679681D01*
X94638923Y-119679681D02*
X94669162Y-119649443D01*
X94669162Y-119649443D02*
X94699400Y-119588967D01*
X94699400Y-119588967D02*
X94699400Y-119407538D01*
X94699400Y-119407538D02*
X94669162Y-119347062D01*
X94669162Y-119347062D02*
X94638923Y-119316824D01*
X79913851Y-111244754D02*
X80125518Y-110942373D01*
X80276708Y-111244754D02*
X80276708Y-110609754D01*
X80276708Y-110609754D02*
X80034803Y-110609754D01*
X80034803Y-110609754D02*
X79974327Y-110639992D01*
X79974327Y-110639992D02*
X79944089Y-110670230D01*
X79944089Y-110670230D02*
X79913851Y-110730706D01*
X79913851Y-110730706D02*
X79913851Y-110821420D01*
X79913851Y-110821420D02*
X79944089Y-110881896D01*
X79944089Y-110881896D02*
X79974327Y-110912135D01*
X79974327Y-110912135D02*
X80034803Y-110942373D01*
X80034803Y-110942373D02*
X80276708Y-110942373D01*
X79369565Y-110821420D02*
X79369565Y-111244754D01*
X79520756Y-110579516D02*
X79671946Y-111033087D01*
X79671946Y-111033087D02*
X79278851Y-111033087D01*
X79006708Y-111244754D02*
X78885756Y-111244754D01*
X78885756Y-111244754D02*
X78825279Y-111214516D01*
X78825279Y-111214516D02*
X78795041Y-111184277D01*
X78795041Y-111184277D02*
X78734565Y-111093563D01*
X78734565Y-111093563D02*
X78704327Y-110972611D01*
X78704327Y-110972611D02*
X78704327Y-110730706D01*
X78704327Y-110730706D02*
X78734565Y-110670230D01*
X78734565Y-110670230D02*
X78764803Y-110639992D01*
X78764803Y-110639992D02*
X78825279Y-110609754D01*
X78825279Y-110609754D02*
X78946232Y-110609754D01*
X78946232Y-110609754D02*
X79006708Y-110639992D01*
X79006708Y-110639992D02*
X79036946Y-110670230D01*
X79036946Y-110670230D02*
X79067184Y-110730706D01*
X79067184Y-110730706D02*
X79067184Y-110881896D01*
X79067184Y-110881896D02*
X79036946Y-110942373D01*
X79036946Y-110942373D02*
X79006708Y-110972611D01*
X79006708Y-110972611D02*
X78946232Y-111002849D01*
X78946232Y-111002849D02*
X78825279Y-111002849D01*
X78825279Y-111002849D02*
X78764803Y-110972611D01*
X78764803Y-110972611D02*
X78734565Y-110942373D01*
X78734565Y-110942373D02*
X78704327Y-110881896D01*
X104191470Y-104384754D02*
X104403137Y-104082373D01*
X104554327Y-104384754D02*
X104554327Y-103749754D01*
X104554327Y-103749754D02*
X104312422Y-103749754D01*
X104312422Y-103749754D02*
X104251946Y-103779992D01*
X104251946Y-103779992D02*
X104221708Y-103810230D01*
X104221708Y-103810230D02*
X104191470Y-103870706D01*
X104191470Y-103870706D02*
X104191470Y-103961420D01*
X104191470Y-103961420D02*
X104221708Y-104021896D01*
X104221708Y-104021896D02*
X104251946Y-104052135D01*
X104251946Y-104052135D02*
X104312422Y-104082373D01*
X104312422Y-104082373D02*
X104554327Y-104082373D01*
X103979803Y-103749754D02*
X103556470Y-103749754D01*
X103556470Y-103749754D02*
X103828613Y-104384754D01*
X141688973Y-95139520D02*
X141688973Y-95653567D01*
X141688973Y-95653567D02*
X141658735Y-95714043D01*
X141658735Y-95714043D02*
X141628497Y-95744282D01*
X141628497Y-95744282D02*
X141568021Y-95774520D01*
X141568021Y-95774520D02*
X141447068Y-95774520D01*
X141447068Y-95774520D02*
X141386592Y-95744282D01*
X141386592Y-95744282D02*
X141356354Y-95714043D01*
X141356354Y-95714043D02*
X141326116Y-95653567D01*
X141326116Y-95653567D02*
X141326116Y-95139520D01*
X140721354Y-95139520D02*
X141023735Y-95139520D01*
X141023735Y-95139520D02*
X141053973Y-95441901D01*
X141053973Y-95441901D02*
X141023735Y-95411662D01*
X141023735Y-95411662D02*
X140963259Y-95381424D01*
X140963259Y-95381424D02*
X140812068Y-95381424D01*
X140812068Y-95381424D02*
X140751592Y-95411662D01*
X140751592Y-95411662D02*
X140721354Y-95441901D01*
X140721354Y-95441901D02*
X140691116Y-95502377D01*
X140691116Y-95502377D02*
X140691116Y-95653567D01*
X140691116Y-95653567D02*
X140721354Y-95714043D01*
X140721354Y-95714043D02*
X140751592Y-95744282D01*
X140751592Y-95744282D02*
X140812068Y-95774520D01*
X140812068Y-95774520D02*
X140963259Y-95774520D01*
X140963259Y-95774520D02*
X141023735Y-95744282D01*
X141023735Y-95744282D02*
X141053973Y-95714043D01*
X118793851Y-46034277D02*
X118824089Y-46064516D01*
X118824089Y-46064516D02*
X118914803Y-46094754D01*
X118914803Y-46094754D02*
X118975279Y-46094754D01*
X118975279Y-46094754D02*
X119065994Y-46064516D01*
X119065994Y-46064516D02*
X119126470Y-46004039D01*
X119126470Y-46004039D02*
X119156708Y-45943563D01*
X119156708Y-45943563D02*
X119186946Y-45822611D01*
X119186946Y-45822611D02*
X119186946Y-45731896D01*
X119186946Y-45731896D02*
X119156708Y-45610944D01*
X119156708Y-45610944D02*
X119126470Y-45550468D01*
X119126470Y-45550468D02*
X119065994Y-45489992D01*
X119065994Y-45489992D02*
X118975279Y-45459754D01*
X118975279Y-45459754D02*
X118914803Y-45459754D01*
X118914803Y-45459754D02*
X118824089Y-45489992D01*
X118824089Y-45489992D02*
X118793851Y-45520230D01*
X118582184Y-45459754D02*
X118189089Y-45459754D01*
X118189089Y-45459754D02*
X118400756Y-45701658D01*
X118400756Y-45701658D02*
X118310041Y-45701658D01*
X118310041Y-45701658D02*
X118249565Y-45731896D01*
X118249565Y-45731896D02*
X118219327Y-45762135D01*
X118219327Y-45762135D02*
X118189089Y-45822611D01*
X118189089Y-45822611D02*
X118189089Y-45973801D01*
X118189089Y-45973801D02*
X118219327Y-46034277D01*
X118219327Y-46034277D02*
X118249565Y-46064516D01*
X118249565Y-46064516D02*
X118310041Y-46094754D01*
X118310041Y-46094754D02*
X118491470Y-46094754D01*
X118491470Y-46094754D02*
X118551946Y-46064516D01*
X118551946Y-46064516D02*
X118582184Y-46034277D01*
X117584327Y-46094754D02*
X117947184Y-46094754D01*
X117765756Y-46094754D02*
X117765756Y-45459754D01*
X117765756Y-45459754D02*
X117826232Y-45550468D01*
X117826232Y-45550468D02*
X117886708Y-45610944D01*
X117886708Y-45610944D02*
X117947184Y-45641182D01*
X107503851Y-94734277D02*
X107534089Y-94764516D01*
X107534089Y-94764516D02*
X107624803Y-94794754D01*
X107624803Y-94794754D02*
X107685279Y-94794754D01*
X107685279Y-94794754D02*
X107775994Y-94764516D01*
X107775994Y-94764516D02*
X107836470Y-94704039D01*
X107836470Y-94704039D02*
X107866708Y-94643563D01*
X107866708Y-94643563D02*
X107896946Y-94522611D01*
X107896946Y-94522611D02*
X107896946Y-94431896D01*
X107896946Y-94431896D02*
X107866708Y-94310944D01*
X107866708Y-94310944D02*
X107836470Y-94250468D01*
X107836470Y-94250468D02*
X107775994Y-94189992D01*
X107775994Y-94189992D02*
X107685279Y-94159754D01*
X107685279Y-94159754D02*
X107624803Y-94159754D01*
X107624803Y-94159754D02*
X107534089Y-94189992D01*
X107534089Y-94189992D02*
X107503851Y-94220230D01*
X107261946Y-94220230D02*
X107231708Y-94189992D01*
X107231708Y-94189992D02*
X107171232Y-94159754D01*
X107171232Y-94159754D02*
X107020041Y-94159754D01*
X107020041Y-94159754D02*
X106959565Y-94189992D01*
X106959565Y-94189992D02*
X106929327Y-94220230D01*
X106929327Y-94220230D02*
X106899089Y-94280706D01*
X106899089Y-94280706D02*
X106899089Y-94341182D01*
X106899089Y-94341182D02*
X106929327Y-94431896D01*
X106929327Y-94431896D02*
X107292184Y-94794754D01*
X107292184Y-94794754D02*
X106899089Y-94794754D01*
X106354803Y-94159754D02*
X106475756Y-94159754D01*
X106475756Y-94159754D02*
X106536232Y-94189992D01*
X106536232Y-94189992D02*
X106566470Y-94220230D01*
X106566470Y-94220230D02*
X106626946Y-94310944D01*
X106626946Y-94310944D02*
X106657184Y-94431896D01*
X106657184Y-94431896D02*
X106657184Y-94673801D01*
X106657184Y-94673801D02*
X106626946Y-94734277D01*
X106626946Y-94734277D02*
X106596708Y-94764516D01*
X106596708Y-94764516D02*
X106536232Y-94794754D01*
X106536232Y-94794754D02*
X106415279Y-94794754D01*
X106415279Y-94794754D02*
X106354803Y-94764516D01*
X106354803Y-94764516D02*
X106324565Y-94734277D01*
X106324565Y-94734277D02*
X106294327Y-94673801D01*
X106294327Y-94673801D02*
X106294327Y-94522611D01*
X106294327Y-94522611D02*
X106324565Y-94462135D01*
X106324565Y-94462135D02*
X106354803Y-94431896D01*
X106354803Y-94431896D02*
X106415279Y-94401658D01*
X106415279Y-94401658D02*
X106536232Y-94401658D01*
X106536232Y-94401658D02*
X106596708Y-94431896D01*
X106596708Y-94431896D02*
X106626946Y-94462135D01*
X106626946Y-94462135D02*
X106657184Y-94522611D01*
X104793851Y-102544277D02*
X104824089Y-102574516D01*
X104824089Y-102574516D02*
X104914803Y-102604754D01*
X104914803Y-102604754D02*
X104975279Y-102604754D01*
X104975279Y-102604754D02*
X105065994Y-102574516D01*
X105065994Y-102574516D02*
X105126470Y-102514039D01*
X105126470Y-102514039D02*
X105156708Y-102453563D01*
X105156708Y-102453563D02*
X105186946Y-102332611D01*
X105186946Y-102332611D02*
X105186946Y-102241896D01*
X105186946Y-102241896D02*
X105156708Y-102120944D01*
X105156708Y-102120944D02*
X105126470Y-102060468D01*
X105126470Y-102060468D02*
X105065994Y-101999992D01*
X105065994Y-101999992D02*
X104975279Y-101969754D01*
X104975279Y-101969754D02*
X104914803Y-101969754D01*
X104914803Y-101969754D02*
X104824089Y-101999992D01*
X104824089Y-101999992D02*
X104793851Y-102030230D01*
X104189089Y-102604754D02*
X104551946Y-102604754D01*
X104370518Y-102604754D02*
X104370518Y-101969754D01*
X104370518Y-101969754D02*
X104430994Y-102060468D01*
X104430994Y-102060468D02*
X104491470Y-102120944D01*
X104491470Y-102120944D02*
X104551946Y-102151182D01*
X103614565Y-101969754D02*
X103916946Y-101969754D01*
X103916946Y-101969754D02*
X103947184Y-102272135D01*
X103947184Y-102272135D02*
X103916946Y-102241896D01*
X103916946Y-102241896D02*
X103856470Y-102211658D01*
X103856470Y-102211658D02*
X103705279Y-102211658D01*
X103705279Y-102211658D02*
X103644803Y-102241896D01*
X103644803Y-102241896D02*
X103614565Y-102272135D01*
X103614565Y-102272135D02*
X103584327Y-102332611D01*
X103584327Y-102332611D02*
X103584327Y-102483801D01*
X103584327Y-102483801D02*
X103614565Y-102544277D01*
X103614565Y-102544277D02*
X103644803Y-102574516D01*
X103644803Y-102574516D02*
X103705279Y-102604754D01*
X103705279Y-102604754D02*
X103856470Y-102604754D01*
X103856470Y-102604754D02*
X103916946Y-102574516D01*
X103916946Y-102574516D02*
X103947184Y-102544277D01*
X93634400Y-111077181D02*
X94148447Y-111077181D01*
X94148447Y-111077181D02*
X94208923Y-111107419D01*
X94208923Y-111107419D02*
X94239162Y-111137657D01*
X94239162Y-111137657D02*
X94269400Y-111198133D01*
X94269400Y-111198133D02*
X94269400Y-111319086D01*
X94269400Y-111319086D02*
X94239162Y-111379562D01*
X94239162Y-111379562D02*
X94208923Y-111409800D01*
X94208923Y-111409800D02*
X94148447Y-111440038D01*
X94148447Y-111440038D02*
X93634400Y-111440038D01*
X93906542Y-111833133D02*
X93876304Y-111772657D01*
X93876304Y-111772657D02*
X93846066Y-111742419D01*
X93846066Y-111742419D02*
X93785590Y-111712181D01*
X93785590Y-111712181D02*
X93755352Y-111712181D01*
X93755352Y-111712181D02*
X93694876Y-111742419D01*
X93694876Y-111742419D02*
X93664638Y-111772657D01*
X93664638Y-111772657D02*
X93634400Y-111833133D01*
X93634400Y-111833133D02*
X93634400Y-111954086D01*
X93634400Y-111954086D02*
X93664638Y-112014562D01*
X93664638Y-112014562D02*
X93694876Y-112044800D01*
X93694876Y-112044800D02*
X93755352Y-112075038D01*
X93755352Y-112075038D02*
X93785590Y-112075038D01*
X93785590Y-112075038D02*
X93846066Y-112044800D01*
X93846066Y-112044800D02*
X93876304Y-112014562D01*
X93876304Y-112014562D02*
X93906542Y-111954086D01*
X93906542Y-111954086D02*
X93906542Y-111833133D01*
X93906542Y-111833133D02*
X93936781Y-111772657D01*
X93936781Y-111772657D02*
X93967019Y-111742419D01*
X93967019Y-111742419D02*
X94027495Y-111712181D01*
X94027495Y-111712181D02*
X94148447Y-111712181D01*
X94148447Y-111712181D02*
X94208923Y-111742419D01*
X94208923Y-111742419D02*
X94239162Y-111772657D01*
X94239162Y-111772657D02*
X94269400Y-111833133D01*
X94269400Y-111833133D02*
X94269400Y-111954086D01*
X94269400Y-111954086D02*
X94239162Y-112014562D01*
X94239162Y-112014562D02*
X94208923Y-112044800D01*
X94208923Y-112044800D02*
X94148447Y-112075038D01*
X94148447Y-112075038D02*
X94027495Y-112075038D01*
X94027495Y-112075038D02*
X93967019Y-112044800D01*
X93967019Y-112044800D02*
X93936781Y-112014562D01*
X93936781Y-112014562D02*
X93906542Y-111954086D01*
X107473851Y-97054277D02*
X107504089Y-97084516D01*
X107504089Y-97084516D02*
X107594803Y-97114754D01*
X107594803Y-97114754D02*
X107655279Y-97114754D01*
X107655279Y-97114754D02*
X107745994Y-97084516D01*
X107745994Y-97084516D02*
X107806470Y-97024039D01*
X107806470Y-97024039D02*
X107836708Y-96963563D01*
X107836708Y-96963563D02*
X107866946Y-96842611D01*
X107866946Y-96842611D02*
X107866946Y-96751896D01*
X107866946Y-96751896D02*
X107836708Y-96630944D01*
X107836708Y-96630944D02*
X107806470Y-96570468D01*
X107806470Y-96570468D02*
X107745994Y-96509992D01*
X107745994Y-96509992D02*
X107655279Y-96479754D01*
X107655279Y-96479754D02*
X107594803Y-96479754D01*
X107594803Y-96479754D02*
X107504089Y-96509992D01*
X107504089Y-96509992D02*
X107473851Y-96540230D01*
X107262184Y-96479754D02*
X106869089Y-96479754D01*
X106869089Y-96479754D02*
X107080756Y-96721658D01*
X107080756Y-96721658D02*
X106990041Y-96721658D01*
X106990041Y-96721658D02*
X106929565Y-96751896D01*
X106929565Y-96751896D02*
X106899327Y-96782135D01*
X106899327Y-96782135D02*
X106869089Y-96842611D01*
X106869089Y-96842611D02*
X106869089Y-96993801D01*
X106869089Y-96993801D02*
X106899327Y-97054277D01*
X106899327Y-97054277D02*
X106929565Y-97084516D01*
X106929565Y-97084516D02*
X106990041Y-97114754D01*
X106990041Y-97114754D02*
X107171470Y-97114754D01*
X107171470Y-97114754D02*
X107231946Y-97084516D01*
X107231946Y-97084516D02*
X107262184Y-97054277D01*
X106475994Y-96479754D02*
X106415517Y-96479754D01*
X106415517Y-96479754D02*
X106355041Y-96509992D01*
X106355041Y-96509992D02*
X106324803Y-96540230D01*
X106324803Y-96540230D02*
X106294565Y-96600706D01*
X106294565Y-96600706D02*
X106264327Y-96721658D01*
X106264327Y-96721658D02*
X106264327Y-96872849D01*
X106264327Y-96872849D02*
X106294565Y-96993801D01*
X106294565Y-96993801D02*
X106324803Y-97054277D01*
X106324803Y-97054277D02*
X106355041Y-97084516D01*
X106355041Y-97084516D02*
X106415517Y-97114754D01*
X106415517Y-97114754D02*
X106475994Y-97114754D01*
X106475994Y-97114754D02*
X106536470Y-97084516D01*
X106536470Y-97084516D02*
X106566708Y-97054277D01*
X106566708Y-97054277D02*
X106596946Y-96993801D01*
X106596946Y-96993801D02*
X106627184Y-96872849D01*
X106627184Y-96872849D02*
X106627184Y-96721658D01*
X106627184Y-96721658D02*
X106596946Y-96600706D01*
X106596946Y-96600706D02*
X106566708Y-96540230D01*
X106566708Y-96540230D02*
X106536470Y-96509992D01*
X106536470Y-96509992D02*
X106475994Y-96479754D01*
X126882445Y-101879996D02*
X126942921Y-101849758D01*
X126942921Y-101849758D02*
X127003397Y-101789282D01*
X127003397Y-101789282D02*
X127094111Y-101698567D01*
X127094111Y-101698567D02*
X127154588Y-101668329D01*
X127154588Y-101668329D02*
X127215064Y-101668329D01*
X127184826Y-101819520D02*
X127245302Y-101789282D01*
X127245302Y-101789282D02*
X127305778Y-101728805D01*
X127305778Y-101728805D02*
X127336016Y-101607853D01*
X127336016Y-101607853D02*
X127336016Y-101396186D01*
X127336016Y-101396186D02*
X127305778Y-101275234D01*
X127305778Y-101275234D02*
X127245302Y-101214758D01*
X127245302Y-101214758D02*
X127184826Y-101184520D01*
X127184826Y-101184520D02*
X127063873Y-101184520D01*
X127063873Y-101184520D02*
X127003397Y-101214758D01*
X127003397Y-101214758D02*
X126942921Y-101275234D01*
X126942921Y-101275234D02*
X126912683Y-101396186D01*
X126912683Y-101396186D02*
X126912683Y-101607853D01*
X126912683Y-101607853D02*
X126942921Y-101728805D01*
X126942921Y-101728805D02*
X127003397Y-101789282D01*
X127003397Y-101789282D02*
X127063873Y-101819520D01*
X127063873Y-101819520D02*
X127184826Y-101819520D01*
X126307921Y-101819520D02*
X126670778Y-101819520D01*
X126489350Y-101819520D02*
X126489350Y-101184520D01*
X126489350Y-101184520D02*
X126549826Y-101275234D01*
X126549826Y-101275234D02*
X126610302Y-101335710D01*
X126610302Y-101335710D02*
X126670778Y-101365948D01*
X126005540Y-101819520D02*
X125884588Y-101819520D01*
X125884588Y-101819520D02*
X125824111Y-101789282D01*
X125824111Y-101789282D02*
X125793873Y-101759043D01*
X125793873Y-101759043D02*
X125733397Y-101668329D01*
X125733397Y-101668329D02*
X125703159Y-101547377D01*
X125703159Y-101547377D02*
X125703159Y-101305472D01*
X125703159Y-101305472D02*
X125733397Y-101244996D01*
X125733397Y-101244996D02*
X125763635Y-101214758D01*
X125763635Y-101214758D02*
X125824111Y-101184520D01*
X125824111Y-101184520D02*
X125945064Y-101184520D01*
X125945064Y-101184520D02*
X126005540Y-101214758D01*
X126005540Y-101214758D02*
X126035778Y-101244996D01*
X126035778Y-101244996D02*
X126066016Y-101305472D01*
X126066016Y-101305472D02*
X126066016Y-101456662D01*
X126066016Y-101456662D02*
X126035778Y-101517139D01*
X126035778Y-101517139D02*
X126005540Y-101547377D01*
X126005540Y-101547377D02*
X125945064Y-101577615D01*
X125945064Y-101577615D02*
X125824111Y-101577615D01*
X125824111Y-101577615D02*
X125763635Y-101547377D01*
X125763635Y-101547377D02*
X125733397Y-101517139D01*
X125733397Y-101517139D02*
X125703159Y-101456662D01*
X116141470Y-76574277D02*
X116171708Y-76604516D01*
X116171708Y-76604516D02*
X116262422Y-76634754D01*
X116262422Y-76634754D02*
X116322898Y-76634754D01*
X116322898Y-76634754D02*
X116413613Y-76604516D01*
X116413613Y-76604516D02*
X116474089Y-76544039D01*
X116474089Y-76544039D02*
X116504327Y-76483563D01*
X116504327Y-76483563D02*
X116534565Y-76362611D01*
X116534565Y-76362611D02*
X116534565Y-76271896D01*
X116534565Y-76271896D02*
X116504327Y-76150944D01*
X116504327Y-76150944D02*
X116474089Y-76090468D01*
X116474089Y-76090468D02*
X116413613Y-76029992D01*
X116413613Y-76029992D02*
X116322898Y-75999754D01*
X116322898Y-75999754D02*
X116262422Y-75999754D01*
X116262422Y-75999754D02*
X116171708Y-76029992D01*
X116171708Y-76029992D02*
X116141470Y-76060230D01*
X115839089Y-76634754D02*
X115718137Y-76634754D01*
X115718137Y-76634754D02*
X115657660Y-76604516D01*
X115657660Y-76604516D02*
X115627422Y-76574277D01*
X115627422Y-76574277D02*
X115566946Y-76483563D01*
X115566946Y-76483563D02*
X115536708Y-76362611D01*
X115536708Y-76362611D02*
X115536708Y-76120706D01*
X115536708Y-76120706D02*
X115566946Y-76060230D01*
X115566946Y-76060230D02*
X115597184Y-76029992D01*
X115597184Y-76029992D02*
X115657660Y-75999754D01*
X115657660Y-75999754D02*
X115778613Y-75999754D01*
X115778613Y-75999754D02*
X115839089Y-76029992D01*
X115839089Y-76029992D02*
X115869327Y-76060230D01*
X115869327Y-76060230D02*
X115899565Y-76120706D01*
X115899565Y-76120706D02*
X115899565Y-76271896D01*
X115899565Y-76271896D02*
X115869327Y-76332373D01*
X115869327Y-76332373D02*
X115839089Y-76362611D01*
X115839089Y-76362611D02*
X115778613Y-76392849D01*
X115778613Y-76392849D02*
X115657660Y-76392849D01*
X115657660Y-76392849D02*
X115597184Y-76362611D01*
X115597184Y-76362611D02*
X115566946Y-76332373D01*
X115566946Y-76332373D02*
X115536708Y-76271896D01*
X105993851Y-84244754D02*
X106205518Y-83942373D01*
X106356708Y-84244754D02*
X106356708Y-83609754D01*
X106356708Y-83609754D02*
X106114803Y-83609754D01*
X106114803Y-83609754D02*
X106054327Y-83639992D01*
X106054327Y-83639992D02*
X106024089Y-83670230D01*
X106024089Y-83670230D02*
X105993851Y-83730706D01*
X105993851Y-83730706D02*
X105993851Y-83821420D01*
X105993851Y-83821420D02*
X106024089Y-83881896D01*
X106024089Y-83881896D02*
X106054327Y-83912135D01*
X106054327Y-83912135D02*
X106114803Y-83942373D01*
X106114803Y-83942373D02*
X106356708Y-83942373D01*
X105389089Y-84244754D02*
X105751946Y-84244754D01*
X105570518Y-84244754D02*
X105570518Y-83609754D01*
X105570518Y-83609754D02*
X105630994Y-83700468D01*
X105630994Y-83700468D02*
X105691470Y-83760944D01*
X105691470Y-83760944D02*
X105751946Y-83791182D01*
X105177422Y-83609754D02*
X104754089Y-83609754D01*
X104754089Y-83609754D02*
X105026232Y-84244754D01*
X88174400Y-88091824D02*
X88627971Y-88091824D01*
X88627971Y-88091824D02*
X88718685Y-88061585D01*
X88718685Y-88061585D02*
X88779162Y-88001109D01*
X88779162Y-88001109D02*
X88809400Y-87910395D01*
X88809400Y-87910395D02*
X88809400Y-87849919D01*
X88809400Y-88394205D02*
X88174400Y-88394205D01*
X88174400Y-88394205D02*
X88174400Y-88636110D01*
X88174400Y-88636110D02*
X88204638Y-88696586D01*
X88204638Y-88696586D02*
X88234876Y-88726824D01*
X88234876Y-88726824D02*
X88295352Y-88757062D01*
X88295352Y-88757062D02*
X88386066Y-88757062D01*
X88386066Y-88757062D02*
X88446542Y-88726824D01*
X88446542Y-88726824D02*
X88476781Y-88696586D01*
X88476781Y-88696586D02*
X88507019Y-88636110D01*
X88507019Y-88636110D02*
X88507019Y-88394205D01*
X88809400Y-89361824D02*
X88809400Y-88998967D01*
X88809400Y-89180395D02*
X88174400Y-89180395D01*
X88174400Y-89180395D02*
X88265114Y-89119919D01*
X88265114Y-89119919D02*
X88325590Y-89059443D01*
X88325590Y-89059443D02*
X88355828Y-88998967D01*
X85504327Y-102054754D02*
X85504327Y-101419754D01*
X85504327Y-101419754D02*
X85353137Y-101419754D01*
X85353137Y-101419754D02*
X85262422Y-101449992D01*
X85262422Y-101449992D02*
X85201946Y-101510468D01*
X85201946Y-101510468D02*
X85171708Y-101570944D01*
X85171708Y-101570944D02*
X85141470Y-101691896D01*
X85141470Y-101691896D02*
X85141470Y-101782611D01*
X85141470Y-101782611D02*
X85171708Y-101903563D01*
X85171708Y-101903563D02*
X85201946Y-101964039D01*
X85201946Y-101964039D02*
X85262422Y-102024516D01*
X85262422Y-102024516D02*
X85353137Y-102054754D01*
X85353137Y-102054754D02*
X85504327Y-102054754D01*
X84536708Y-102054754D02*
X84899565Y-102054754D01*
X84718137Y-102054754D02*
X84718137Y-101419754D01*
X84718137Y-101419754D02*
X84778613Y-101510468D01*
X84778613Y-101510468D02*
X84839089Y-101570944D01*
X84839089Y-101570944D02*
X84899565Y-101601182D01*
X197918494Y-91395230D02*
X197978970Y-91364992D01*
X197978970Y-91364992D02*
X198039446Y-91304516D01*
X198039446Y-91304516D02*
X198130160Y-91213801D01*
X198130160Y-91213801D02*
X198190637Y-91183563D01*
X198190637Y-91183563D02*
X198251113Y-91183563D01*
X198220875Y-91334754D02*
X198281351Y-91304516D01*
X198281351Y-91304516D02*
X198341827Y-91244039D01*
X198341827Y-91244039D02*
X198372065Y-91123087D01*
X198372065Y-91123087D02*
X198372065Y-90911420D01*
X198372065Y-90911420D02*
X198341827Y-90790468D01*
X198341827Y-90790468D02*
X198281351Y-90729992D01*
X198281351Y-90729992D02*
X198220875Y-90699754D01*
X198220875Y-90699754D02*
X198099922Y-90699754D01*
X198099922Y-90699754D02*
X198039446Y-90729992D01*
X198039446Y-90729992D02*
X197978970Y-90790468D01*
X197978970Y-90790468D02*
X197948732Y-90911420D01*
X197948732Y-90911420D02*
X197948732Y-91123087D01*
X197948732Y-91123087D02*
X197978970Y-91244039D01*
X197978970Y-91244039D02*
X198039446Y-91304516D01*
X198039446Y-91304516D02*
X198099922Y-91334754D01*
X198099922Y-91334754D02*
X198220875Y-91334754D01*
X197706827Y-90760230D02*
X197676589Y-90729992D01*
X197676589Y-90729992D02*
X197616113Y-90699754D01*
X197616113Y-90699754D02*
X197464922Y-90699754D01*
X197464922Y-90699754D02*
X197404446Y-90729992D01*
X197404446Y-90729992D02*
X197374208Y-90760230D01*
X197374208Y-90760230D02*
X197343970Y-90820706D01*
X197343970Y-90820706D02*
X197343970Y-90881182D01*
X197343970Y-90881182D02*
X197374208Y-90971896D01*
X197374208Y-90971896D02*
X197737065Y-91334754D01*
X197737065Y-91334754D02*
X197343970Y-91334754D01*
X196739208Y-91334754D02*
X197102065Y-91334754D01*
X196920637Y-91334754D02*
X196920637Y-90699754D01*
X196920637Y-90699754D02*
X196981113Y-90790468D01*
X196981113Y-90790468D02*
X197041589Y-90850944D01*
X197041589Y-90850944D02*
X197102065Y-90881182D01*
X151669400Y-109912776D02*
X151367019Y-109701109D01*
X151669400Y-109549919D02*
X151034400Y-109549919D01*
X151034400Y-109549919D02*
X151034400Y-109791824D01*
X151034400Y-109791824D02*
X151064638Y-109852300D01*
X151064638Y-109852300D02*
X151094876Y-109882538D01*
X151094876Y-109882538D02*
X151155352Y-109912776D01*
X151155352Y-109912776D02*
X151246066Y-109912776D01*
X151246066Y-109912776D02*
X151306542Y-109882538D01*
X151306542Y-109882538D02*
X151336781Y-109852300D01*
X151336781Y-109852300D02*
X151367019Y-109791824D01*
X151367019Y-109791824D02*
X151367019Y-109549919D01*
X151034400Y-110124443D02*
X151034400Y-110547776D01*
X151034400Y-110547776D02*
X151669400Y-110275633D01*
X151246066Y-111061824D02*
X151669400Y-111061824D01*
X151004162Y-110910633D02*
X151457733Y-110759443D01*
X151457733Y-110759443D02*
X151457733Y-111152538D01*
X93713851Y-74164277D02*
X93744089Y-74194516D01*
X93744089Y-74194516D02*
X93834803Y-74224754D01*
X93834803Y-74224754D02*
X93895279Y-74224754D01*
X93895279Y-74224754D02*
X93985994Y-74194516D01*
X93985994Y-74194516D02*
X94046470Y-74134039D01*
X94046470Y-74134039D02*
X94076708Y-74073563D01*
X94076708Y-74073563D02*
X94106946Y-73952611D01*
X94106946Y-73952611D02*
X94106946Y-73861896D01*
X94106946Y-73861896D02*
X94076708Y-73740944D01*
X94076708Y-73740944D02*
X94046470Y-73680468D01*
X94046470Y-73680468D02*
X93985994Y-73619992D01*
X93985994Y-73619992D02*
X93895279Y-73589754D01*
X93895279Y-73589754D02*
X93834803Y-73589754D01*
X93834803Y-73589754D02*
X93744089Y-73619992D01*
X93744089Y-73619992D02*
X93713851Y-73650230D01*
X93109089Y-74224754D02*
X93471946Y-74224754D01*
X93290518Y-74224754D02*
X93290518Y-73589754D01*
X93290518Y-73589754D02*
X93350994Y-73680468D01*
X93350994Y-73680468D02*
X93411470Y-73740944D01*
X93411470Y-73740944D02*
X93471946Y-73771182D01*
X92746232Y-73861896D02*
X92806708Y-73831658D01*
X92806708Y-73831658D02*
X92836946Y-73801420D01*
X92836946Y-73801420D02*
X92867184Y-73740944D01*
X92867184Y-73740944D02*
X92867184Y-73710706D01*
X92867184Y-73710706D02*
X92836946Y-73650230D01*
X92836946Y-73650230D02*
X92806708Y-73619992D01*
X92806708Y-73619992D02*
X92746232Y-73589754D01*
X92746232Y-73589754D02*
X92625279Y-73589754D01*
X92625279Y-73589754D02*
X92564803Y-73619992D01*
X92564803Y-73619992D02*
X92534565Y-73650230D01*
X92534565Y-73650230D02*
X92504327Y-73710706D01*
X92504327Y-73710706D02*
X92504327Y-73740944D01*
X92504327Y-73740944D02*
X92534565Y-73801420D01*
X92534565Y-73801420D02*
X92564803Y-73831658D01*
X92564803Y-73831658D02*
X92625279Y-73861896D01*
X92625279Y-73861896D02*
X92746232Y-73861896D01*
X92746232Y-73861896D02*
X92806708Y-73892135D01*
X92806708Y-73892135D02*
X92836946Y-73922373D01*
X92836946Y-73922373D02*
X92867184Y-73982849D01*
X92867184Y-73982849D02*
X92867184Y-74103801D01*
X92867184Y-74103801D02*
X92836946Y-74164277D01*
X92836946Y-74164277D02*
X92806708Y-74194516D01*
X92806708Y-74194516D02*
X92746232Y-74224754D01*
X92746232Y-74224754D02*
X92625279Y-74224754D01*
X92625279Y-74224754D02*
X92564803Y-74194516D01*
X92564803Y-74194516D02*
X92534565Y-74164277D01*
X92534565Y-74164277D02*
X92504327Y-74103801D01*
X92504327Y-74103801D02*
X92504327Y-73982849D01*
X92504327Y-73982849D02*
X92534565Y-73922373D01*
X92534565Y-73922373D02*
X92564803Y-73892135D01*
X92564803Y-73892135D02*
X92625279Y-73861896D01*
X79963851Y-107204754D02*
X80175518Y-106902373D01*
X80326708Y-107204754D02*
X80326708Y-106569754D01*
X80326708Y-106569754D02*
X80084803Y-106569754D01*
X80084803Y-106569754D02*
X80024327Y-106599992D01*
X80024327Y-106599992D02*
X79994089Y-106630230D01*
X79994089Y-106630230D02*
X79963851Y-106690706D01*
X79963851Y-106690706D02*
X79963851Y-106781420D01*
X79963851Y-106781420D02*
X79994089Y-106841896D01*
X79994089Y-106841896D02*
X80024327Y-106872135D01*
X80024327Y-106872135D02*
X80084803Y-106902373D01*
X80084803Y-106902373D02*
X80326708Y-106902373D01*
X79419565Y-106781420D02*
X79419565Y-107204754D01*
X79570756Y-106539516D02*
X79721946Y-106993087D01*
X79721946Y-106993087D02*
X79328851Y-106993087D01*
X78784565Y-106569754D02*
X79086946Y-106569754D01*
X79086946Y-106569754D02*
X79117184Y-106872135D01*
X79117184Y-106872135D02*
X79086946Y-106841896D01*
X79086946Y-106841896D02*
X79026470Y-106811658D01*
X79026470Y-106811658D02*
X78875279Y-106811658D01*
X78875279Y-106811658D02*
X78814803Y-106841896D01*
X78814803Y-106841896D02*
X78784565Y-106872135D01*
X78784565Y-106872135D02*
X78754327Y-106932611D01*
X78754327Y-106932611D02*
X78754327Y-107083801D01*
X78754327Y-107083801D02*
X78784565Y-107144277D01*
X78784565Y-107144277D02*
X78814803Y-107174516D01*
X78814803Y-107174516D02*
X78875279Y-107204754D01*
X78875279Y-107204754D02*
X79026470Y-107204754D01*
X79026470Y-107204754D02*
X79086946Y-107174516D01*
X79086946Y-107174516D02*
X79117184Y-107144277D01*
X104303851Y-47884754D02*
X104515518Y-47582373D01*
X104666708Y-47884754D02*
X104666708Y-47249754D01*
X104666708Y-47249754D02*
X104424803Y-47249754D01*
X104424803Y-47249754D02*
X104364327Y-47279992D01*
X104364327Y-47279992D02*
X104334089Y-47310230D01*
X104334089Y-47310230D02*
X104303851Y-47370706D01*
X104303851Y-47370706D02*
X104303851Y-47461420D01*
X104303851Y-47461420D02*
X104334089Y-47521896D01*
X104334089Y-47521896D02*
X104364327Y-47552135D01*
X104364327Y-47552135D02*
X104424803Y-47582373D01*
X104424803Y-47582373D02*
X104666708Y-47582373D01*
X103699089Y-47884754D02*
X104061946Y-47884754D01*
X103880518Y-47884754D02*
X103880518Y-47249754D01*
X103880518Y-47249754D02*
X103940994Y-47340468D01*
X103940994Y-47340468D02*
X104001470Y-47400944D01*
X104001470Y-47400944D02*
X104061946Y-47431182D01*
X103124565Y-47249754D02*
X103426946Y-47249754D01*
X103426946Y-47249754D02*
X103457184Y-47552135D01*
X103457184Y-47552135D02*
X103426946Y-47521896D01*
X103426946Y-47521896D02*
X103366470Y-47491658D01*
X103366470Y-47491658D02*
X103215279Y-47491658D01*
X103215279Y-47491658D02*
X103154803Y-47521896D01*
X103154803Y-47521896D02*
X103124565Y-47552135D01*
X103124565Y-47552135D02*
X103094327Y-47612611D01*
X103094327Y-47612611D02*
X103094327Y-47763801D01*
X103094327Y-47763801D02*
X103124565Y-47824277D01*
X103124565Y-47824277D02*
X103154803Y-47854516D01*
X103154803Y-47854516D02*
X103215279Y-47884754D01*
X103215279Y-47884754D02*
X103366470Y-47884754D01*
X103366470Y-47884754D02*
X103426946Y-47854516D01*
X103426946Y-47854516D02*
X103457184Y-47824277D01*
X146249446Y-84319754D02*
X146249446Y-84833801D01*
X146249446Y-84833801D02*
X146219208Y-84894277D01*
X146219208Y-84894277D02*
X146188970Y-84924516D01*
X146188970Y-84924516D02*
X146128494Y-84954754D01*
X146128494Y-84954754D02*
X146007541Y-84954754D01*
X146007541Y-84954754D02*
X145947065Y-84924516D01*
X145947065Y-84924516D02*
X145916827Y-84894277D01*
X145916827Y-84894277D02*
X145886589Y-84833801D01*
X145886589Y-84833801D02*
X145886589Y-84319754D01*
X145553970Y-84954754D02*
X145433018Y-84954754D01*
X145433018Y-84954754D02*
X145372541Y-84924516D01*
X145372541Y-84924516D02*
X145342303Y-84894277D01*
X145342303Y-84894277D02*
X145281827Y-84803563D01*
X145281827Y-84803563D02*
X145251589Y-84682611D01*
X145251589Y-84682611D02*
X145251589Y-84440706D01*
X145251589Y-84440706D02*
X145281827Y-84380230D01*
X145281827Y-84380230D02*
X145312065Y-84349992D01*
X145312065Y-84349992D02*
X145372541Y-84319754D01*
X145372541Y-84319754D02*
X145493494Y-84319754D01*
X145493494Y-84319754D02*
X145553970Y-84349992D01*
X145553970Y-84349992D02*
X145584208Y-84380230D01*
X145584208Y-84380230D02*
X145614446Y-84440706D01*
X145614446Y-84440706D02*
X145614446Y-84591896D01*
X145614446Y-84591896D02*
X145584208Y-84652373D01*
X145584208Y-84652373D02*
X145553970Y-84682611D01*
X145553970Y-84682611D02*
X145493494Y-84712849D01*
X145493494Y-84712849D02*
X145372541Y-84712849D01*
X145372541Y-84712849D02*
X145312065Y-84682611D01*
X145312065Y-84682611D02*
X145281827Y-84652373D01*
X145281827Y-84652373D02*
X145251589Y-84591896D01*
X112606827Y-52754754D02*
X112606827Y-53268801D01*
X112606827Y-53268801D02*
X112576589Y-53329277D01*
X112576589Y-53329277D02*
X112546351Y-53359516D01*
X112546351Y-53359516D02*
X112485875Y-53389754D01*
X112485875Y-53389754D02*
X112364922Y-53389754D01*
X112364922Y-53389754D02*
X112304446Y-53359516D01*
X112304446Y-53359516D02*
X112274208Y-53329277D01*
X112274208Y-53329277D02*
X112243970Y-53268801D01*
X112243970Y-53268801D02*
X112243970Y-52754754D01*
X111608970Y-53389754D02*
X111971827Y-53389754D01*
X111790399Y-53389754D02*
X111790399Y-52754754D01*
X111790399Y-52754754D02*
X111850875Y-52845468D01*
X111850875Y-52845468D02*
X111911351Y-52905944D01*
X111911351Y-52905944D02*
X111971827Y-52936182D01*
X111397303Y-52754754D02*
X111004208Y-52754754D01*
X111004208Y-52754754D02*
X111215875Y-52996658D01*
X111215875Y-52996658D02*
X111125160Y-52996658D01*
X111125160Y-52996658D02*
X111064684Y-53026896D01*
X111064684Y-53026896D02*
X111034446Y-53057135D01*
X111034446Y-53057135D02*
X111004208Y-53117611D01*
X111004208Y-53117611D02*
X111004208Y-53268801D01*
X111004208Y-53268801D02*
X111034446Y-53329277D01*
X111034446Y-53329277D02*
X111064684Y-53359516D01*
X111064684Y-53359516D02*
X111125160Y-53389754D01*
X111125160Y-53389754D02*
X111306589Y-53389754D01*
X111306589Y-53389754D02*
X111367065Y-53359516D01*
X111367065Y-53359516D02*
X111397303Y-53329277D01*
X197898494Y-108175230D02*
X197958970Y-108144992D01*
X197958970Y-108144992D02*
X198019446Y-108084516D01*
X198019446Y-108084516D02*
X198110160Y-107993801D01*
X198110160Y-107993801D02*
X198170637Y-107963563D01*
X198170637Y-107963563D02*
X198231113Y-107963563D01*
X198200875Y-108114754D02*
X198261351Y-108084516D01*
X198261351Y-108084516D02*
X198321827Y-108024039D01*
X198321827Y-108024039D02*
X198352065Y-107903087D01*
X198352065Y-107903087D02*
X198352065Y-107691420D01*
X198352065Y-107691420D02*
X198321827Y-107570468D01*
X198321827Y-107570468D02*
X198261351Y-107509992D01*
X198261351Y-107509992D02*
X198200875Y-107479754D01*
X198200875Y-107479754D02*
X198079922Y-107479754D01*
X198079922Y-107479754D02*
X198019446Y-107509992D01*
X198019446Y-107509992D02*
X197958970Y-107570468D01*
X197958970Y-107570468D02*
X197928732Y-107691420D01*
X197928732Y-107691420D02*
X197928732Y-107903087D01*
X197928732Y-107903087D02*
X197958970Y-108024039D01*
X197958970Y-108024039D02*
X198019446Y-108084516D01*
X198019446Y-108084516D02*
X198079922Y-108114754D01*
X198079922Y-108114754D02*
X198200875Y-108114754D01*
X197323970Y-108114754D02*
X197686827Y-108114754D01*
X197505399Y-108114754D02*
X197505399Y-107479754D01*
X197505399Y-107479754D02*
X197565875Y-107570468D01*
X197565875Y-107570468D02*
X197626351Y-107630944D01*
X197626351Y-107630944D02*
X197686827Y-107661182D01*
X196779684Y-107691420D02*
X196779684Y-108114754D01*
X196930875Y-107449516D02*
X197082065Y-107903087D01*
X197082065Y-107903087D02*
X196688970Y-107903087D01*
X159926113Y-73295230D02*
X159986589Y-73264992D01*
X159986589Y-73264992D02*
X160047065Y-73204516D01*
X160047065Y-73204516D02*
X160137779Y-73113801D01*
X160137779Y-73113801D02*
X160198256Y-73083563D01*
X160198256Y-73083563D02*
X160258732Y-73083563D01*
X160228494Y-73234754D02*
X160288970Y-73204516D01*
X160288970Y-73204516D02*
X160349446Y-73144039D01*
X160349446Y-73144039D02*
X160379684Y-73023087D01*
X160379684Y-73023087D02*
X160379684Y-72811420D01*
X160379684Y-72811420D02*
X160349446Y-72690468D01*
X160349446Y-72690468D02*
X160288970Y-72629992D01*
X160288970Y-72629992D02*
X160228494Y-72599754D01*
X160228494Y-72599754D02*
X160107541Y-72599754D01*
X160107541Y-72599754D02*
X160047065Y-72629992D01*
X160047065Y-72629992D02*
X159986589Y-72690468D01*
X159986589Y-72690468D02*
X159956351Y-72811420D01*
X159956351Y-72811420D02*
X159956351Y-73023087D01*
X159956351Y-73023087D02*
X159986589Y-73144039D01*
X159986589Y-73144039D02*
X160047065Y-73204516D01*
X160047065Y-73204516D02*
X160107541Y-73234754D01*
X160107541Y-73234754D02*
X160228494Y-73234754D01*
X159381827Y-72599754D02*
X159684208Y-72599754D01*
X159684208Y-72599754D02*
X159714446Y-72902135D01*
X159714446Y-72902135D02*
X159684208Y-72871896D01*
X159684208Y-72871896D02*
X159623732Y-72841658D01*
X159623732Y-72841658D02*
X159472541Y-72841658D01*
X159472541Y-72841658D02*
X159412065Y-72871896D01*
X159412065Y-72871896D02*
X159381827Y-72902135D01*
X159381827Y-72902135D02*
X159351589Y-72962611D01*
X159351589Y-72962611D02*
X159351589Y-73113801D01*
X159351589Y-73113801D02*
X159381827Y-73174277D01*
X159381827Y-73174277D02*
X159412065Y-73204516D01*
X159412065Y-73204516D02*
X159472541Y-73234754D01*
X159472541Y-73234754D02*
X159623732Y-73234754D01*
X159623732Y-73234754D02*
X159684208Y-73204516D01*
X159684208Y-73204516D02*
X159714446Y-73174277D01*
X108874400Y-86375947D02*
X109388447Y-86375947D01*
X109388447Y-86375947D02*
X109448923Y-86406185D01*
X109448923Y-86406185D02*
X109479162Y-86436423D01*
X109479162Y-86436423D02*
X109509400Y-86496899D01*
X109509400Y-86496899D02*
X109509400Y-86617852D01*
X109509400Y-86617852D02*
X109479162Y-86678328D01*
X109479162Y-86678328D02*
X109448923Y-86708566D01*
X109448923Y-86708566D02*
X109388447Y-86738804D01*
X109388447Y-86738804D02*
X108874400Y-86738804D01*
X108874400Y-86980709D02*
X108874400Y-87373804D01*
X108874400Y-87373804D02*
X109116304Y-87162137D01*
X109116304Y-87162137D02*
X109116304Y-87252852D01*
X109116304Y-87252852D02*
X109146542Y-87313328D01*
X109146542Y-87313328D02*
X109176781Y-87343566D01*
X109176781Y-87343566D02*
X109237257Y-87373804D01*
X109237257Y-87373804D02*
X109388447Y-87373804D01*
X109388447Y-87373804D02*
X109448923Y-87343566D01*
X109448923Y-87343566D02*
X109479162Y-87313328D01*
X109479162Y-87313328D02*
X109509400Y-87252852D01*
X109509400Y-87252852D02*
X109509400Y-87071423D01*
X109509400Y-87071423D02*
X109479162Y-87010947D01*
X109479162Y-87010947D02*
X109448923Y-86980709D01*
X210709446Y-99419754D02*
X210709446Y-99933801D01*
X210709446Y-99933801D02*
X210679208Y-99994277D01*
X210679208Y-99994277D02*
X210648970Y-100024516D01*
X210648970Y-100024516D02*
X210588494Y-100054754D01*
X210588494Y-100054754D02*
X210467541Y-100054754D01*
X210467541Y-100054754D02*
X210407065Y-100024516D01*
X210407065Y-100024516D02*
X210376827Y-99994277D01*
X210376827Y-99994277D02*
X210346589Y-99933801D01*
X210346589Y-99933801D02*
X210346589Y-99419754D01*
X209772065Y-99419754D02*
X209893018Y-99419754D01*
X209893018Y-99419754D02*
X209953494Y-99449992D01*
X209953494Y-99449992D02*
X209983732Y-99480230D01*
X209983732Y-99480230D02*
X210044208Y-99570944D01*
X210044208Y-99570944D02*
X210074446Y-99691896D01*
X210074446Y-99691896D02*
X210074446Y-99933801D01*
X210074446Y-99933801D02*
X210044208Y-99994277D01*
X210044208Y-99994277D02*
X210013970Y-100024516D01*
X210013970Y-100024516D02*
X209953494Y-100054754D01*
X209953494Y-100054754D02*
X209832541Y-100054754D01*
X209832541Y-100054754D02*
X209772065Y-100024516D01*
X209772065Y-100024516D02*
X209741827Y-99994277D01*
X209741827Y-99994277D02*
X209711589Y-99933801D01*
X209711589Y-99933801D02*
X209711589Y-99782611D01*
X209711589Y-99782611D02*
X209741827Y-99722135D01*
X209741827Y-99722135D02*
X209772065Y-99691896D01*
X209772065Y-99691896D02*
X209832541Y-99661658D01*
X209832541Y-99661658D02*
X209953494Y-99661658D01*
X209953494Y-99661658D02*
X210013970Y-99691896D01*
X210013970Y-99691896D02*
X210044208Y-99722135D01*
X210044208Y-99722135D02*
X210074446Y-99782611D01*
X197808494Y-83075230D02*
X197868970Y-83044992D01*
X197868970Y-83044992D02*
X197929446Y-82984516D01*
X197929446Y-82984516D02*
X198020160Y-82893801D01*
X198020160Y-82893801D02*
X198080637Y-82863563D01*
X198080637Y-82863563D02*
X198141113Y-82863563D01*
X198110875Y-83014754D02*
X198171351Y-82984516D01*
X198171351Y-82984516D02*
X198231827Y-82924039D01*
X198231827Y-82924039D02*
X198262065Y-82803087D01*
X198262065Y-82803087D02*
X198262065Y-82591420D01*
X198262065Y-82591420D02*
X198231827Y-82470468D01*
X198231827Y-82470468D02*
X198171351Y-82409992D01*
X198171351Y-82409992D02*
X198110875Y-82379754D01*
X198110875Y-82379754D02*
X197989922Y-82379754D01*
X197989922Y-82379754D02*
X197929446Y-82409992D01*
X197929446Y-82409992D02*
X197868970Y-82470468D01*
X197868970Y-82470468D02*
X197838732Y-82591420D01*
X197838732Y-82591420D02*
X197838732Y-82803087D01*
X197838732Y-82803087D02*
X197868970Y-82924039D01*
X197868970Y-82924039D02*
X197929446Y-82984516D01*
X197929446Y-82984516D02*
X197989922Y-83014754D01*
X197989922Y-83014754D02*
X198110875Y-83014754D01*
X197233970Y-83014754D02*
X197596827Y-83014754D01*
X197415399Y-83014754D02*
X197415399Y-82379754D01*
X197415399Y-82379754D02*
X197475875Y-82470468D01*
X197475875Y-82470468D02*
X197536351Y-82530944D01*
X197536351Y-82530944D02*
X197596827Y-82561182D01*
X197022303Y-82379754D02*
X196629208Y-82379754D01*
X196629208Y-82379754D02*
X196840875Y-82621658D01*
X196840875Y-82621658D02*
X196750160Y-82621658D01*
X196750160Y-82621658D02*
X196689684Y-82651896D01*
X196689684Y-82651896D02*
X196659446Y-82682135D01*
X196659446Y-82682135D02*
X196629208Y-82742611D01*
X196629208Y-82742611D02*
X196629208Y-82893801D01*
X196629208Y-82893801D02*
X196659446Y-82954277D01*
X196659446Y-82954277D02*
X196689684Y-82984516D01*
X196689684Y-82984516D02*
X196750160Y-83014754D01*
X196750160Y-83014754D02*
X196931589Y-83014754D01*
X196931589Y-83014754D02*
X196992065Y-82984516D01*
X196992065Y-82984516D02*
X197022303Y-82954277D01*
X160433851Y-86954754D02*
X160645518Y-86652373D01*
X160796708Y-86954754D02*
X160796708Y-86319754D01*
X160796708Y-86319754D02*
X160554803Y-86319754D01*
X160554803Y-86319754D02*
X160494327Y-86349992D01*
X160494327Y-86349992D02*
X160464089Y-86380230D01*
X160464089Y-86380230D02*
X160433851Y-86440706D01*
X160433851Y-86440706D02*
X160433851Y-86531420D01*
X160433851Y-86531420D02*
X160464089Y-86591896D01*
X160464089Y-86591896D02*
X160494327Y-86622135D01*
X160494327Y-86622135D02*
X160554803Y-86652373D01*
X160554803Y-86652373D02*
X160796708Y-86652373D01*
X160070994Y-86591896D02*
X160131470Y-86561658D01*
X160131470Y-86561658D02*
X160161708Y-86531420D01*
X160161708Y-86531420D02*
X160191946Y-86470944D01*
X160191946Y-86470944D02*
X160191946Y-86440706D01*
X160191946Y-86440706D02*
X160161708Y-86380230D01*
X160161708Y-86380230D02*
X160131470Y-86349992D01*
X160131470Y-86349992D02*
X160070994Y-86319754D01*
X160070994Y-86319754D02*
X159950041Y-86319754D01*
X159950041Y-86319754D02*
X159889565Y-86349992D01*
X159889565Y-86349992D02*
X159859327Y-86380230D01*
X159859327Y-86380230D02*
X159829089Y-86440706D01*
X159829089Y-86440706D02*
X159829089Y-86470944D01*
X159829089Y-86470944D02*
X159859327Y-86531420D01*
X159859327Y-86531420D02*
X159889565Y-86561658D01*
X159889565Y-86561658D02*
X159950041Y-86591896D01*
X159950041Y-86591896D02*
X160070994Y-86591896D01*
X160070994Y-86591896D02*
X160131470Y-86622135D01*
X160131470Y-86622135D02*
X160161708Y-86652373D01*
X160161708Y-86652373D02*
X160191946Y-86712849D01*
X160191946Y-86712849D02*
X160191946Y-86833801D01*
X160191946Y-86833801D02*
X160161708Y-86894277D01*
X160161708Y-86894277D02*
X160131470Y-86924516D01*
X160131470Y-86924516D02*
X160070994Y-86954754D01*
X160070994Y-86954754D02*
X159950041Y-86954754D01*
X159950041Y-86954754D02*
X159889565Y-86924516D01*
X159889565Y-86924516D02*
X159859327Y-86894277D01*
X159859327Y-86894277D02*
X159829089Y-86833801D01*
X159829089Y-86833801D02*
X159829089Y-86712849D01*
X159829089Y-86712849D02*
X159859327Y-86652373D01*
X159859327Y-86652373D02*
X159889565Y-86622135D01*
X159889565Y-86622135D02*
X159950041Y-86591896D01*
X159587184Y-86380230D02*
X159556946Y-86349992D01*
X159556946Y-86349992D02*
X159496470Y-86319754D01*
X159496470Y-86319754D02*
X159345279Y-86319754D01*
X159345279Y-86319754D02*
X159284803Y-86349992D01*
X159284803Y-86349992D02*
X159254565Y-86380230D01*
X159254565Y-86380230D02*
X159224327Y-86440706D01*
X159224327Y-86440706D02*
X159224327Y-86501182D01*
X159224327Y-86501182D02*
X159254565Y-86591896D01*
X159254565Y-86591896D02*
X159617422Y-86954754D01*
X159617422Y-86954754D02*
X159224327Y-86954754D01*
X190969400Y-46112776D02*
X190667019Y-45901109D01*
X190969400Y-45749919D02*
X190334400Y-45749919D01*
X190334400Y-45749919D02*
X190334400Y-45991824D01*
X190334400Y-45991824D02*
X190364638Y-46052300D01*
X190364638Y-46052300D02*
X190394876Y-46082538D01*
X190394876Y-46082538D02*
X190455352Y-46112776D01*
X190455352Y-46112776D02*
X190546066Y-46112776D01*
X190546066Y-46112776D02*
X190606542Y-46082538D01*
X190606542Y-46082538D02*
X190636781Y-46052300D01*
X190636781Y-46052300D02*
X190667019Y-45991824D01*
X190667019Y-45991824D02*
X190667019Y-45749919D01*
X190394876Y-46354681D02*
X190364638Y-46384919D01*
X190364638Y-46384919D02*
X190334400Y-46445395D01*
X190334400Y-46445395D02*
X190334400Y-46596586D01*
X190334400Y-46596586D02*
X190364638Y-46657062D01*
X190364638Y-46657062D02*
X190394876Y-46687300D01*
X190394876Y-46687300D02*
X190455352Y-46717538D01*
X190455352Y-46717538D02*
X190515828Y-46717538D01*
X190515828Y-46717538D02*
X190606542Y-46687300D01*
X190606542Y-46687300D02*
X190969400Y-46324443D01*
X190969400Y-46324443D02*
X190969400Y-46717538D01*
X190334400Y-47292062D02*
X190334400Y-46989681D01*
X190334400Y-46989681D02*
X190636781Y-46959443D01*
X190636781Y-46959443D02*
X190606542Y-46989681D01*
X190606542Y-46989681D02*
X190576304Y-47050157D01*
X190576304Y-47050157D02*
X190576304Y-47201348D01*
X190576304Y-47201348D02*
X190606542Y-47261824D01*
X190606542Y-47261824D02*
X190636781Y-47292062D01*
X190636781Y-47292062D02*
X190697257Y-47322300D01*
X190697257Y-47322300D02*
X190848447Y-47322300D01*
X190848447Y-47322300D02*
X190908923Y-47292062D01*
X190908923Y-47292062D02*
X190939162Y-47261824D01*
X190939162Y-47261824D02*
X190969400Y-47201348D01*
X190969400Y-47201348D02*
X190969400Y-47050157D01*
X190969400Y-47050157D02*
X190939162Y-46989681D01*
X190939162Y-46989681D02*
X190908923Y-46959443D01*
X148438494Y-111055230D02*
X148498970Y-111024992D01*
X148498970Y-111024992D02*
X148559446Y-110964516D01*
X148559446Y-110964516D02*
X148650160Y-110873801D01*
X148650160Y-110873801D02*
X148710637Y-110843563D01*
X148710637Y-110843563D02*
X148771113Y-110843563D01*
X148740875Y-110994754D02*
X148801351Y-110964516D01*
X148801351Y-110964516D02*
X148861827Y-110904039D01*
X148861827Y-110904039D02*
X148892065Y-110783087D01*
X148892065Y-110783087D02*
X148892065Y-110571420D01*
X148892065Y-110571420D02*
X148861827Y-110450468D01*
X148861827Y-110450468D02*
X148801351Y-110389992D01*
X148801351Y-110389992D02*
X148740875Y-110359754D01*
X148740875Y-110359754D02*
X148619922Y-110359754D01*
X148619922Y-110359754D02*
X148559446Y-110389992D01*
X148559446Y-110389992D02*
X148498970Y-110450468D01*
X148498970Y-110450468D02*
X148468732Y-110571420D01*
X148468732Y-110571420D02*
X148468732Y-110783087D01*
X148468732Y-110783087D02*
X148498970Y-110904039D01*
X148498970Y-110904039D02*
X148559446Y-110964516D01*
X148559446Y-110964516D02*
X148619922Y-110994754D01*
X148619922Y-110994754D02*
X148740875Y-110994754D01*
X147863970Y-110994754D02*
X148226827Y-110994754D01*
X148045399Y-110994754D02*
X148045399Y-110359754D01*
X148045399Y-110359754D02*
X148105875Y-110450468D01*
X148105875Y-110450468D02*
X148166351Y-110510944D01*
X148166351Y-110510944D02*
X148226827Y-110541182D01*
X147259208Y-110994754D02*
X147622065Y-110994754D01*
X147440637Y-110994754D02*
X147440637Y-110359754D01*
X147440637Y-110359754D02*
X147501113Y-110450468D01*
X147501113Y-110450468D02*
X147561589Y-110510944D01*
X147561589Y-110510944D02*
X147622065Y-110541182D01*
X197843851Y-94294754D02*
X198055518Y-93992373D01*
X198206708Y-94294754D02*
X198206708Y-93659754D01*
X198206708Y-93659754D02*
X197964803Y-93659754D01*
X197964803Y-93659754D02*
X197904327Y-93689992D01*
X197904327Y-93689992D02*
X197874089Y-93720230D01*
X197874089Y-93720230D02*
X197843851Y-93780706D01*
X197843851Y-93780706D02*
X197843851Y-93871420D01*
X197843851Y-93871420D02*
X197874089Y-93931896D01*
X197874089Y-93931896D02*
X197904327Y-93962135D01*
X197904327Y-93962135D02*
X197964803Y-93992373D01*
X197964803Y-93992373D02*
X198206708Y-93992373D01*
X197601946Y-93720230D02*
X197571708Y-93689992D01*
X197571708Y-93689992D02*
X197511232Y-93659754D01*
X197511232Y-93659754D02*
X197360041Y-93659754D01*
X197360041Y-93659754D02*
X197299565Y-93689992D01*
X197299565Y-93689992D02*
X197269327Y-93720230D01*
X197269327Y-93720230D02*
X197239089Y-93780706D01*
X197239089Y-93780706D02*
X197239089Y-93841182D01*
X197239089Y-93841182D02*
X197269327Y-93931896D01*
X197269327Y-93931896D02*
X197632184Y-94294754D01*
X197632184Y-94294754D02*
X197239089Y-94294754D01*
X196936708Y-94294754D02*
X196815756Y-94294754D01*
X196815756Y-94294754D02*
X196755279Y-94264516D01*
X196755279Y-94264516D02*
X196725041Y-94234277D01*
X196725041Y-94234277D02*
X196664565Y-94143563D01*
X196664565Y-94143563D02*
X196634327Y-94022611D01*
X196634327Y-94022611D02*
X196634327Y-93780706D01*
X196634327Y-93780706D02*
X196664565Y-93720230D01*
X196664565Y-93720230D02*
X196694803Y-93689992D01*
X196694803Y-93689992D02*
X196755279Y-93659754D01*
X196755279Y-93659754D02*
X196876232Y-93659754D01*
X196876232Y-93659754D02*
X196936708Y-93689992D01*
X196936708Y-93689992D02*
X196966946Y-93720230D01*
X196966946Y-93720230D02*
X196997184Y-93780706D01*
X196997184Y-93780706D02*
X196997184Y-93931896D01*
X196997184Y-93931896D02*
X196966946Y-93992373D01*
X196966946Y-93992373D02*
X196936708Y-94022611D01*
X196936708Y-94022611D02*
X196876232Y-94052849D01*
X196876232Y-94052849D02*
X196755279Y-94052849D01*
X196755279Y-94052849D02*
X196694803Y-94022611D01*
X196694803Y-94022611D02*
X196664565Y-93992373D01*
X196664565Y-93992373D02*
X196634327Y-93931896D01*
X79873851Y-115174754D02*
X80085518Y-114872373D01*
X80236708Y-115174754D02*
X80236708Y-114539754D01*
X80236708Y-114539754D02*
X79994803Y-114539754D01*
X79994803Y-114539754D02*
X79934327Y-114569992D01*
X79934327Y-114569992D02*
X79904089Y-114600230D01*
X79904089Y-114600230D02*
X79873851Y-114660706D01*
X79873851Y-114660706D02*
X79873851Y-114751420D01*
X79873851Y-114751420D02*
X79904089Y-114811896D01*
X79904089Y-114811896D02*
X79934327Y-114842135D01*
X79934327Y-114842135D02*
X79994803Y-114872373D01*
X79994803Y-114872373D02*
X80236708Y-114872373D01*
X79299327Y-114539754D02*
X79601708Y-114539754D01*
X79601708Y-114539754D02*
X79631946Y-114842135D01*
X79631946Y-114842135D02*
X79601708Y-114811896D01*
X79601708Y-114811896D02*
X79541232Y-114781658D01*
X79541232Y-114781658D02*
X79390041Y-114781658D01*
X79390041Y-114781658D02*
X79329565Y-114811896D01*
X79329565Y-114811896D02*
X79299327Y-114842135D01*
X79299327Y-114842135D02*
X79269089Y-114902611D01*
X79269089Y-114902611D02*
X79269089Y-115053801D01*
X79269089Y-115053801D02*
X79299327Y-115114277D01*
X79299327Y-115114277D02*
X79329565Y-115144516D01*
X79329565Y-115144516D02*
X79390041Y-115174754D01*
X79390041Y-115174754D02*
X79541232Y-115174754D01*
X79541232Y-115174754D02*
X79601708Y-115144516D01*
X79601708Y-115144516D02*
X79631946Y-115114277D01*
X79057422Y-114539754D02*
X78634089Y-114539754D01*
X78634089Y-114539754D02*
X78906232Y-115174754D01*
X80003851Y-105264754D02*
X80215518Y-104962373D01*
X80366708Y-105264754D02*
X80366708Y-104629754D01*
X80366708Y-104629754D02*
X80124803Y-104629754D01*
X80124803Y-104629754D02*
X80064327Y-104659992D01*
X80064327Y-104659992D02*
X80034089Y-104690230D01*
X80034089Y-104690230D02*
X80003851Y-104750706D01*
X80003851Y-104750706D02*
X80003851Y-104841420D01*
X80003851Y-104841420D02*
X80034089Y-104901896D01*
X80034089Y-104901896D02*
X80064327Y-104932135D01*
X80064327Y-104932135D02*
X80124803Y-104962373D01*
X80124803Y-104962373D02*
X80366708Y-104962373D01*
X79792184Y-104629754D02*
X79399089Y-104629754D01*
X79399089Y-104629754D02*
X79610756Y-104871658D01*
X79610756Y-104871658D02*
X79520041Y-104871658D01*
X79520041Y-104871658D02*
X79459565Y-104901896D01*
X79459565Y-104901896D02*
X79429327Y-104932135D01*
X79429327Y-104932135D02*
X79399089Y-104992611D01*
X79399089Y-104992611D02*
X79399089Y-105143801D01*
X79399089Y-105143801D02*
X79429327Y-105204277D01*
X79429327Y-105204277D02*
X79459565Y-105234516D01*
X79459565Y-105234516D02*
X79520041Y-105264754D01*
X79520041Y-105264754D02*
X79701470Y-105264754D01*
X79701470Y-105264754D02*
X79761946Y-105234516D01*
X79761946Y-105234516D02*
X79792184Y-105204277D01*
X79096708Y-105264754D02*
X78975756Y-105264754D01*
X78975756Y-105264754D02*
X78915279Y-105234516D01*
X78915279Y-105234516D02*
X78885041Y-105204277D01*
X78885041Y-105204277D02*
X78824565Y-105113563D01*
X78824565Y-105113563D02*
X78794327Y-104992611D01*
X78794327Y-104992611D02*
X78794327Y-104750706D01*
X78794327Y-104750706D02*
X78824565Y-104690230D01*
X78824565Y-104690230D02*
X78854803Y-104659992D01*
X78854803Y-104659992D02*
X78915279Y-104629754D01*
X78915279Y-104629754D02*
X79036232Y-104629754D01*
X79036232Y-104629754D02*
X79096708Y-104659992D01*
X79096708Y-104659992D02*
X79126946Y-104690230D01*
X79126946Y-104690230D02*
X79157184Y-104750706D01*
X79157184Y-104750706D02*
X79157184Y-104901896D01*
X79157184Y-104901896D02*
X79126946Y-104962373D01*
X79126946Y-104962373D02*
X79096708Y-104992611D01*
X79096708Y-104992611D02*
X79036232Y-105022849D01*
X79036232Y-105022849D02*
X78915279Y-105022849D01*
X78915279Y-105022849D02*
X78854803Y-104992611D01*
X78854803Y-104992611D02*
X78824565Y-104962373D01*
X78824565Y-104962373D02*
X78794327Y-104901896D01*
X197683851Y-77564754D02*
X197895518Y-77262373D01*
X198046708Y-77564754D02*
X198046708Y-76929754D01*
X198046708Y-76929754D02*
X197804803Y-76929754D01*
X197804803Y-76929754D02*
X197744327Y-76959992D01*
X197744327Y-76959992D02*
X197714089Y-76990230D01*
X197714089Y-76990230D02*
X197683851Y-77050706D01*
X197683851Y-77050706D02*
X197683851Y-77141420D01*
X197683851Y-77141420D02*
X197714089Y-77201896D01*
X197714089Y-77201896D02*
X197744327Y-77232135D01*
X197744327Y-77232135D02*
X197804803Y-77262373D01*
X197804803Y-77262373D02*
X198046708Y-77262373D01*
X197109327Y-76929754D02*
X197411708Y-76929754D01*
X197411708Y-76929754D02*
X197441946Y-77232135D01*
X197441946Y-77232135D02*
X197411708Y-77201896D01*
X197411708Y-77201896D02*
X197351232Y-77171658D01*
X197351232Y-77171658D02*
X197200041Y-77171658D01*
X197200041Y-77171658D02*
X197139565Y-77201896D01*
X197139565Y-77201896D02*
X197109327Y-77232135D01*
X197109327Y-77232135D02*
X197079089Y-77292611D01*
X197079089Y-77292611D02*
X197079089Y-77443801D01*
X197079089Y-77443801D02*
X197109327Y-77504277D01*
X197109327Y-77504277D02*
X197139565Y-77534516D01*
X197139565Y-77534516D02*
X197200041Y-77564754D01*
X197200041Y-77564754D02*
X197351232Y-77564754D01*
X197351232Y-77564754D02*
X197411708Y-77534516D01*
X197411708Y-77534516D02*
X197441946Y-77504277D01*
X196867422Y-76929754D02*
X196474327Y-76929754D01*
X196474327Y-76929754D02*
X196685994Y-77171658D01*
X196685994Y-77171658D02*
X196595279Y-77171658D01*
X196595279Y-77171658D02*
X196534803Y-77201896D01*
X196534803Y-77201896D02*
X196504565Y-77232135D01*
X196504565Y-77232135D02*
X196474327Y-77292611D01*
X196474327Y-77292611D02*
X196474327Y-77443801D01*
X196474327Y-77443801D02*
X196504565Y-77504277D01*
X196504565Y-77504277D02*
X196534803Y-77534516D01*
X196534803Y-77534516D02*
X196595279Y-77564754D01*
X196595279Y-77564754D02*
X196776708Y-77564754D01*
X196776708Y-77564754D02*
X196837184Y-77534516D01*
X196837184Y-77534516D02*
X196867422Y-77504277D01*
X83161470Y-48564277D02*
X83191708Y-48594516D01*
X83191708Y-48594516D02*
X83282422Y-48624754D01*
X83282422Y-48624754D02*
X83342898Y-48624754D01*
X83342898Y-48624754D02*
X83433613Y-48594516D01*
X83433613Y-48594516D02*
X83494089Y-48534039D01*
X83494089Y-48534039D02*
X83524327Y-48473563D01*
X83524327Y-48473563D02*
X83554565Y-48352611D01*
X83554565Y-48352611D02*
X83554565Y-48261896D01*
X83554565Y-48261896D02*
X83524327Y-48140944D01*
X83524327Y-48140944D02*
X83494089Y-48080468D01*
X83494089Y-48080468D02*
X83433613Y-48019992D01*
X83433613Y-48019992D02*
X83342898Y-47989754D01*
X83342898Y-47989754D02*
X83282422Y-47989754D01*
X83282422Y-47989754D02*
X83191708Y-48019992D01*
X83191708Y-48019992D02*
X83161470Y-48050230D01*
X82949803Y-47989754D02*
X82556708Y-47989754D01*
X82556708Y-47989754D02*
X82768375Y-48231658D01*
X82768375Y-48231658D02*
X82677660Y-48231658D01*
X82677660Y-48231658D02*
X82617184Y-48261896D01*
X82617184Y-48261896D02*
X82586946Y-48292135D01*
X82586946Y-48292135D02*
X82556708Y-48352611D01*
X82556708Y-48352611D02*
X82556708Y-48503801D01*
X82556708Y-48503801D02*
X82586946Y-48564277D01*
X82586946Y-48564277D02*
X82617184Y-48594516D01*
X82617184Y-48594516D02*
X82677660Y-48624754D01*
X82677660Y-48624754D02*
X82859089Y-48624754D01*
X82859089Y-48624754D02*
X82919565Y-48594516D01*
X82919565Y-48594516D02*
X82949803Y-48564277D01*
X85753851Y-99614277D02*
X85784089Y-99644516D01*
X85784089Y-99644516D02*
X85874803Y-99674754D01*
X85874803Y-99674754D02*
X85935279Y-99674754D01*
X85935279Y-99674754D02*
X86025994Y-99644516D01*
X86025994Y-99644516D02*
X86086470Y-99584039D01*
X86086470Y-99584039D02*
X86116708Y-99523563D01*
X86116708Y-99523563D02*
X86146946Y-99402611D01*
X86146946Y-99402611D02*
X86146946Y-99311896D01*
X86146946Y-99311896D02*
X86116708Y-99190944D01*
X86116708Y-99190944D02*
X86086470Y-99130468D01*
X86086470Y-99130468D02*
X86025994Y-99069992D01*
X86025994Y-99069992D02*
X85935279Y-99039754D01*
X85935279Y-99039754D02*
X85874803Y-99039754D01*
X85874803Y-99039754D02*
X85784089Y-99069992D01*
X85784089Y-99069992D02*
X85753851Y-99100230D01*
X85511946Y-99100230D02*
X85481708Y-99069992D01*
X85481708Y-99069992D02*
X85421232Y-99039754D01*
X85421232Y-99039754D02*
X85270041Y-99039754D01*
X85270041Y-99039754D02*
X85209565Y-99069992D01*
X85209565Y-99069992D02*
X85179327Y-99100230D01*
X85179327Y-99100230D02*
X85149089Y-99160706D01*
X85149089Y-99160706D02*
X85149089Y-99221182D01*
X85149089Y-99221182D02*
X85179327Y-99311896D01*
X85179327Y-99311896D02*
X85542184Y-99674754D01*
X85542184Y-99674754D02*
X85149089Y-99674754D01*
X84937422Y-99039754D02*
X84514089Y-99039754D01*
X84514089Y-99039754D02*
X84786232Y-99674754D01*
X154418494Y-111065230D02*
X154478970Y-111034992D01*
X154478970Y-111034992D02*
X154539446Y-110974516D01*
X154539446Y-110974516D02*
X154630160Y-110883801D01*
X154630160Y-110883801D02*
X154690637Y-110853563D01*
X154690637Y-110853563D02*
X154751113Y-110853563D01*
X154720875Y-111004754D02*
X154781351Y-110974516D01*
X154781351Y-110974516D02*
X154841827Y-110914039D01*
X154841827Y-110914039D02*
X154872065Y-110793087D01*
X154872065Y-110793087D02*
X154872065Y-110581420D01*
X154872065Y-110581420D02*
X154841827Y-110460468D01*
X154841827Y-110460468D02*
X154781351Y-110399992D01*
X154781351Y-110399992D02*
X154720875Y-110369754D01*
X154720875Y-110369754D02*
X154599922Y-110369754D01*
X154599922Y-110369754D02*
X154539446Y-110399992D01*
X154539446Y-110399992D02*
X154478970Y-110460468D01*
X154478970Y-110460468D02*
X154448732Y-110581420D01*
X154448732Y-110581420D02*
X154448732Y-110793087D01*
X154448732Y-110793087D02*
X154478970Y-110914039D01*
X154478970Y-110914039D02*
X154539446Y-110974516D01*
X154539446Y-110974516D02*
X154599922Y-111004754D01*
X154599922Y-111004754D02*
X154720875Y-111004754D01*
X153843970Y-111004754D02*
X154206827Y-111004754D01*
X154025399Y-111004754D02*
X154025399Y-110369754D01*
X154025399Y-110369754D02*
X154085875Y-110460468D01*
X154085875Y-110460468D02*
X154146351Y-110520944D01*
X154146351Y-110520944D02*
X154206827Y-110551182D01*
X153269446Y-110369754D02*
X153571827Y-110369754D01*
X153571827Y-110369754D02*
X153602065Y-110672135D01*
X153602065Y-110672135D02*
X153571827Y-110641896D01*
X153571827Y-110641896D02*
X153511351Y-110611658D01*
X153511351Y-110611658D02*
X153360160Y-110611658D01*
X153360160Y-110611658D02*
X153299684Y-110641896D01*
X153299684Y-110641896D02*
X153269446Y-110672135D01*
X153269446Y-110672135D02*
X153239208Y-110732611D01*
X153239208Y-110732611D02*
X153239208Y-110883801D01*
X153239208Y-110883801D02*
X153269446Y-110944277D01*
X153269446Y-110944277D02*
X153299684Y-110974516D01*
X153299684Y-110974516D02*
X153360160Y-111004754D01*
X153360160Y-111004754D02*
X153511351Y-111004754D01*
X153511351Y-111004754D02*
X153571827Y-110974516D01*
X153571827Y-110974516D02*
X153602065Y-110944277D01*
X96647400Y-98346754D02*
X96647400Y-98860801D01*
X96647400Y-98860801D02*
X96617162Y-98921277D01*
X96617162Y-98921277D02*
X96586924Y-98951516D01*
X96586924Y-98951516D02*
X96526448Y-98981754D01*
X96526448Y-98981754D02*
X96405495Y-98981754D01*
X96405495Y-98981754D02*
X96345019Y-98951516D01*
X96345019Y-98951516D02*
X96314781Y-98921277D01*
X96314781Y-98921277D02*
X96284543Y-98860801D01*
X96284543Y-98860801D02*
X96284543Y-98346754D01*
X96012400Y-98407230D02*
X95982162Y-98376992D01*
X95982162Y-98376992D02*
X95921686Y-98346754D01*
X95921686Y-98346754D02*
X95770495Y-98346754D01*
X95770495Y-98346754D02*
X95710019Y-98376992D01*
X95710019Y-98376992D02*
X95679781Y-98407230D01*
X95679781Y-98407230D02*
X95649543Y-98467706D01*
X95649543Y-98467706D02*
X95649543Y-98528182D01*
X95649543Y-98528182D02*
X95679781Y-98618896D01*
X95679781Y-98618896D02*
X96042638Y-98981754D01*
X96042638Y-98981754D02*
X95649543Y-98981754D01*
X184959400Y-46072776D02*
X184657019Y-45861109D01*
X184959400Y-45709919D02*
X184324400Y-45709919D01*
X184324400Y-45709919D02*
X184324400Y-45951824D01*
X184324400Y-45951824D02*
X184354638Y-46012300D01*
X184354638Y-46012300D02*
X184384876Y-46042538D01*
X184384876Y-46042538D02*
X184445352Y-46072776D01*
X184445352Y-46072776D02*
X184536066Y-46072776D01*
X184536066Y-46072776D02*
X184596542Y-46042538D01*
X184596542Y-46042538D02*
X184626781Y-46012300D01*
X184626781Y-46012300D02*
X184657019Y-45951824D01*
X184657019Y-45951824D02*
X184657019Y-45709919D01*
X184324400Y-46617062D02*
X184324400Y-46496109D01*
X184324400Y-46496109D02*
X184354638Y-46435633D01*
X184354638Y-46435633D02*
X184384876Y-46405395D01*
X184384876Y-46405395D02*
X184475590Y-46344919D01*
X184475590Y-46344919D02*
X184596542Y-46314681D01*
X184596542Y-46314681D02*
X184838447Y-46314681D01*
X184838447Y-46314681D02*
X184898923Y-46344919D01*
X184898923Y-46344919D02*
X184929162Y-46375157D01*
X184929162Y-46375157D02*
X184959400Y-46435633D01*
X184959400Y-46435633D02*
X184959400Y-46556586D01*
X184959400Y-46556586D02*
X184929162Y-46617062D01*
X184929162Y-46617062D02*
X184898923Y-46647300D01*
X184898923Y-46647300D02*
X184838447Y-46677538D01*
X184838447Y-46677538D02*
X184687257Y-46677538D01*
X184687257Y-46677538D02*
X184626781Y-46647300D01*
X184626781Y-46647300D02*
X184596542Y-46617062D01*
X184596542Y-46617062D02*
X184566304Y-46556586D01*
X184566304Y-46556586D02*
X184566304Y-46435633D01*
X184566304Y-46435633D02*
X184596542Y-46375157D01*
X184596542Y-46375157D02*
X184626781Y-46344919D01*
X184626781Y-46344919D02*
X184687257Y-46314681D01*
X184959400Y-46979919D02*
X184959400Y-47100871D01*
X184959400Y-47100871D02*
X184929162Y-47161348D01*
X184929162Y-47161348D02*
X184898923Y-47191586D01*
X184898923Y-47191586D02*
X184808209Y-47252062D01*
X184808209Y-47252062D02*
X184687257Y-47282300D01*
X184687257Y-47282300D02*
X184445352Y-47282300D01*
X184445352Y-47282300D02*
X184384876Y-47252062D01*
X184384876Y-47252062D02*
X184354638Y-47221824D01*
X184354638Y-47221824D02*
X184324400Y-47161348D01*
X184324400Y-47161348D02*
X184324400Y-47040395D01*
X184324400Y-47040395D02*
X184354638Y-46979919D01*
X184354638Y-46979919D02*
X184384876Y-46949681D01*
X184384876Y-46949681D02*
X184445352Y-46919443D01*
X184445352Y-46919443D02*
X184596542Y-46919443D01*
X184596542Y-46919443D02*
X184657019Y-46949681D01*
X184657019Y-46949681D02*
X184687257Y-46979919D01*
X184687257Y-46979919D02*
X184717495Y-47040395D01*
X184717495Y-47040395D02*
X184717495Y-47161348D01*
X184717495Y-47161348D02*
X184687257Y-47221824D01*
X184687257Y-47221824D02*
X184657019Y-47252062D01*
X184657019Y-47252062D02*
X184596542Y-47282300D01*
X160243851Y-103844754D02*
X160455518Y-103542373D01*
X160606708Y-103844754D02*
X160606708Y-103209754D01*
X160606708Y-103209754D02*
X160364803Y-103209754D01*
X160364803Y-103209754D02*
X160304327Y-103239992D01*
X160304327Y-103239992D02*
X160274089Y-103270230D01*
X160274089Y-103270230D02*
X160243851Y-103330706D01*
X160243851Y-103330706D02*
X160243851Y-103421420D01*
X160243851Y-103421420D02*
X160274089Y-103481896D01*
X160274089Y-103481896D02*
X160304327Y-103512135D01*
X160304327Y-103512135D02*
X160364803Y-103542373D01*
X160364803Y-103542373D02*
X160606708Y-103542373D01*
X160001946Y-103270230D02*
X159971708Y-103239992D01*
X159971708Y-103239992D02*
X159911232Y-103209754D01*
X159911232Y-103209754D02*
X159760041Y-103209754D01*
X159760041Y-103209754D02*
X159699565Y-103239992D01*
X159699565Y-103239992D02*
X159669327Y-103270230D01*
X159669327Y-103270230D02*
X159639089Y-103330706D01*
X159639089Y-103330706D02*
X159639089Y-103391182D01*
X159639089Y-103391182D02*
X159669327Y-103481896D01*
X159669327Y-103481896D02*
X160032184Y-103844754D01*
X160032184Y-103844754D02*
X159639089Y-103844754D01*
X159276232Y-103481896D02*
X159336708Y-103451658D01*
X159336708Y-103451658D02*
X159366946Y-103421420D01*
X159366946Y-103421420D02*
X159397184Y-103360944D01*
X159397184Y-103360944D02*
X159397184Y-103330706D01*
X159397184Y-103330706D02*
X159366946Y-103270230D01*
X159366946Y-103270230D02*
X159336708Y-103239992D01*
X159336708Y-103239992D02*
X159276232Y-103209754D01*
X159276232Y-103209754D02*
X159155279Y-103209754D01*
X159155279Y-103209754D02*
X159094803Y-103239992D01*
X159094803Y-103239992D02*
X159064565Y-103270230D01*
X159064565Y-103270230D02*
X159034327Y-103330706D01*
X159034327Y-103330706D02*
X159034327Y-103360944D01*
X159034327Y-103360944D02*
X159064565Y-103421420D01*
X159064565Y-103421420D02*
X159094803Y-103451658D01*
X159094803Y-103451658D02*
X159155279Y-103481896D01*
X159155279Y-103481896D02*
X159276232Y-103481896D01*
X159276232Y-103481896D02*
X159336708Y-103512135D01*
X159336708Y-103512135D02*
X159366946Y-103542373D01*
X159366946Y-103542373D02*
X159397184Y-103602849D01*
X159397184Y-103602849D02*
X159397184Y-103723801D01*
X159397184Y-103723801D02*
X159366946Y-103784277D01*
X159366946Y-103784277D02*
X159336708Y-103814516D01*
X159336708Y-103814516D02*
X159276232Y-103844754D01*
X159276232Y-103844754D02*
X159155279Y-103844754D01*
X159155279Y-103844754D02*
X159094803Y-103814516D01*
X159094803Y-103814516D02*
X159064565Y-103784277D01*
X159064565Y-103784277D02*
X159034327Y-103723801D01*
X159034327Y-103723801D02*
X159034327Y-103602849D01*
X159034327Y-103602849D02*
X159064565Y-103542373D01*
X159064565Y-103542373D02*
X159094803Y-103512135D01*
X159094803Y-103512135D02*
X159155279Y-103481896D01*
X145639400Y-109942776D02*
X145337019Y-109731109D01*
X145639400Y-109579919D02*
X145004400Y-109579919D01*
X145004400Y-109579919D02*
X145004400Y-109821824D01*
X145004400Y-109821824D02*
X145034638Y-109882300D01*
X145034638Y-109882300D02*
X145064876Y-109912538D01*
X145064876Y-109912538D02*
X145125352Y-109942776D01*
X145125352Y-109942776D02*
X145216066Y-109942776D01*
X145216066Y-109942776D02*
X145276542Y-109912538D01*
X145276542Y-109912538D02*
X145306781Y-109882300D01*
X145306781Y-109882300D02*
X145337019Y-109821824D01*
X145337019Y-109821824D02*
X145337019Y-109579919D01*
X145004400Y-110154443D02*
X145004400Y-110577776D01*
X145004400Y-110577776D02*
X145639400Y-110305633D01*
X145004400Y-111122062D02*
X145004400Y-110819681D01*
X145004400Y-110819681D02*
X145306781Y-110789443D01*
X145306781Y-110789443D02*
X145276542Y-110819681D01*
X145276542Y-110819681D02*
X145246304Y-110880157D01*
X145246304Y-110880157D02*
X145246304Y-111031348D01*
X145246304Y-111031348D02*
X145276542Y-111091824D01*
X145276542Y-111091824D02*
X145306781Y-111122062D01*
X145306781Y-111122062D02*
X145367257Y-111152300D01*
X145367257Y-111152300D02*
X145518447Y-111152300D01*
X145518447Y-111152300D02*
X145578923Y-111122062D01*
X145578923Y-111122062D02*
X145609162Y-111091824D01*
X145609162Y-111091824D02*
X145639400Y-111031348D01*
X145639400Y-111031348D02*
X145639400Y-110880157D01*
X145639400Y-110880157D02*
X145609162Y-110819681D01*
X145609162Y-110819681D02*
X145578923Y-110789443D01*
D11*
X82320753Y-114297776D02*
X81846237Y-114297776D01*
X82320753Y-113252776D02*
X81846237Y-113252776D01*
X187178137Y-48803733D02*
X187178137Y-49278249D01*
X186133137Y-48803733D02*
X186133137Y-49278249D01*
X121803137Y-65673249D02*
X121803137Y-65198733D01*
X122848137Y-65673249D02*
X122848137Y-65198733D01*
X140640057Y-45170991D02*
X140921217Y-45170991D01*
X140640057Y-46190991D02*
X140921217Y-46190991D01*
X127671164Y-94941337D02*
X127671164Y-94660177D01*
X128691164Y-94941337D02*
X128691164Y-94660177D01*
X120305664Y-74731499D02*
X120305664Y-75206015D01*
X119260664Y-74731499D02*
X119260664Y-75206015D01*
X124372137Y-65198733D02*
X124372137Y-65673249D01*
X123327137Y-65198733D02*
X123327137Y-65673249D01*
X117491217Y-52820991D02*
X117210057Y-52820991D01*
X117491217Y-51800991D02*
X117210057Y-51800991D01*
X106273379Y-51148491D02*
X106747895Y-51148491D01*
X106273379Y-52193491D02*
X106747895Y-52193491D01*
X127191164Y-94670177D02*
X127191164Y-94951337D01*
X126171164Y-94670177D02*
X126171164Y-94951337D01*
X106626217Y-50190991D02*
X106345057Y-50190991D01*
X106626217Y-49170991D02*
X106345057Y-49170991D01*
X209875637Y-80481991D02*
X212875637Y-80481991D01*
X208875637Y-83721991D02*
X210875637Y-83721991D01*
X117788137Y-51240991D02*
X118438137Y-51240991D01*
X117788137Y-51240991D02*
X117138137Y-51240991D01*
X117788137Y-48120991D02*
X119463137Y-48120991D01*
X117788137Y-48120991D02*
X117138137Y-48120991D01*
X159153588Y-90451491D02*
X160553588Y-90451491D01*
X160553588Y-92771491D02*
X158653588Y-92771491D01*
X82320753Y-104233491D02*
X81846237Y-104233491D01*
X82320753Y-103188491D02*
X81846237Y-103188491D01*
X120053137Y-49838249D02*
X120053137Y-49363733D01*
X121098137Y-49838249D02*
X121098137Y-49363733D01*
X197171330Y-86305991D02*
X197645846Y-86305991D01*
X197171330Y-87350991D02*
X197645846Y-87350991D01*
X160215846Y-94363991D02*
X159741330Y-94363991D01*
X160215846Y-93318991D02*
X159741330Y-93318991D01*
X87882511Y-103950991D02*
X88163671Y-103950991D01*
X87882511Y-104970991D02*
X88163671Y-104970991D01*
X115343164Y-75337757D02*
X115343164Y-71337757D01*
X118643164Y-75337757D02*
X115343164Y-75337757D01*
X101755849Y-100630491D02*
X101281333Y-100630491D01*
X101755849Y-99585491D02*
X101281333Y-99585491D01*
X90915391Y-76459915D02*
X90440875Y-76459915D01*
X90915391Y-75414915D02*
X90440875Y-75414915D01*
X159153588Y-98885991D02*
X160553588Y-98885991D01*
X160553588Y-101205991D02*
X158653588Y-101205991D01*
X159153588Y-82062991D02*
X160553588Y-82062991D01*
X160553588Y-84382991D02*
X158653588Y-84382991D01*
X99213698Y-112673172D02*
X99213698Y-113147688D01*
X98168698Y-112673172D02*
X98168698Y-113147688D01*
X189158137Y-48813733D02*
X189158137Y-49288249D01*
X188113137Y-48813733D02*
X188113137Y-49288249D01*
X82320753Y-118323491D02*
X81846237Y-118323491D01*
X82320753Y-117278491D02*
X81846237Y-117278491D01*
X141205164Y-78620757D02*
X138205164Y-78620757D01*
X142205164Y-75380757D02*
X140205164Y-75380757D01*
X116882328Y-70099757D02*
X117098000Y-70099757D01*
X116882328Y-70819757D02*
X117098000Y-70819757D01*
X197236330Y-103115991D02*
X197710846Y-103115991D01*
X197236330Y-104160991D02*
X197710846Y-104160991D01*
X198298588Y-98651491D02*
X196898588Y-98651491D01*
X196898588Y-96331491D02*
X198798588Y-96331491D01*
X91513591Y-101748733D02*
X91513591Y-102223249D01*
X90468591Y-101748733D02*
X90468591Y-102223249D01*
X210106637Y-94927991D02*
X212056637Y-94927991D01*
X210106637Y-94927991D02*
X208156637Y-94927991D01*
X210106637Y-84807991D02*
X213556637Y-84807991D01*
X210106637Y-84807991D02*
X208156637Y-84807991D01*
X160215846Y-77586991D02*
X159741330Y-77586991D01*
X160215846Y-76541991D02*
X159741330Y-76541991D01*
X144511217Y-53040991D02*
X144230057Y-53040991D01*
X144511217Y-52020991D02*
X144230057Y-52020991D01*
X97714294Y-116242755D02*
X97714294Y-117642755D01*
X95394294Y-117642755D02*
X95394294Y-115742755D01*
X82320753Y-110272062D02*
X81846237Y-110272062D01*
X82320753Y-109227062D02*
X81846237Y-109227062D01*
X99250794Y-118041497D02*
X99250794Y-118516013D01*
X98205794Y-118041497D02*
X98205794Y-118516013D01*
X142325637Y-46770991D02*
X136315637Y-46770991D01*
X140075637Y-53590991D02*
X136315637Y-53590991D01*
X136315637Y-53590991D02*
X136315637Y-52330991D01*
X136315637Y-46770991D02*
X136315637Y-48030991D01*
G36*
X162909943Y-52547938D02*
G01*
X162944005Y-52558042D01*
X163003178Y-52595046D01*
X163025341Y-52659535D01*
X163025746Y-52663153D01*
X163016997Y-52733079D01*
X162962779Y-52773047D01*
X162911596Y-52791980D01*
X162868055Y-52804097D01*
X162831397Y-52787292D01*
X162780446Y-52734671D01*
X162736778Y-52668426D01*
X162718253Y-52611515D01*
X162735548Y-52557602D01*
X162798963Y-52532906D01*
X162909943Y-52547938D01*
G37*
G36*
X168994656Y-54539938D02*
G01*
X168937300Y-54684713D01*
X168830054Y-54805288D01*
X168790813Y-54831241D01*
X168665694Y-54865711D01*
X168520885Y-54846088D01*
X168360619Y-54774629D01*
X168189125Y-54653590D01*
X168010636Y-54485225D01*
X167829384Y-54271792D01*
X167703712Y-54108680D01*
X168004706Y-54108680D01*
X168005139Y-54112406D01*
X168032208Y-54160110D01*
X168092827Y-54234823D01*
X168175063Y-54324093D01*
X168266982Y-54415465D01*
X168356649Y-54496487D01*
X168432130Y-54554704D01*
X168488629Y-54589915D01*
X168604364Y-54641117D01*
X168693619Y-54643132D01*
X168763800Y-54596905D01*
X168822687Y-54501365D01*
X168834153Y-54391519D01*
X168792023Y-54287862D01*
X168700439Y-54199905D01*
X168563543Y-54137159D01*
X168546037Y-54132306D01*
X168446869Y-54112579D01*
X168330083Y-54098088D01*
X168211577Y-54089642D01*
X168107247Y-54088052D01*
X168032991Y-54094128D01*
X168004706Y-54108680D01*
X167703712Y-54108680D01*
X167693375Y-54095263D01*
X167418930Y-54060528D01*
X167267188Y-54040610D01*
X167012282Y-54002018D01*
X166797400Y-53960066D01*
X166607713Y-53910613D01*
X166428389Y-53849516D01*
X166244598Y-53772632D01*
X166041509Y-53675820D01*
X165955714Y-53632100D01*
X165775340Y-53530351D01*
X165653075Y-53446060D01*
X165587064Y-53380829D01*
X165575457Y-53336262D01*
X165616400Y-53313958D01*
X165708041Y-53315521D01*
X165848527Y-53342553D01*
X166036005Y-53396655D01*
X166268622Y-53479430D01*
X166294770Y-53489387D01*
X166503511Y-53564120D01*
X166711193Y-53630879D01*
X166909564Y-53687760D01*
X167090372Y-53732859D01*
X167245364Y-53764272D01*
X167366290Y-53780095D01*
X167444897Y-53778422D01*
X167472933Y-53757351D01*
X167461952Y-53727697D01*
X167428712Y-53652389D01*
X167378554Y-53543783D01*
X167316898Y-53413811D01*
X167191736Y-53134623D01*
X167031305Y-52695160D01*
X166923421Y-52274306D01*
X166913239Y-52223244D01*
X166890038Y-52111497D01*
X166872187Y-52031914D01*
X166862906Y-51999132D01*
X166832647Y-51999401D01*
X166757153Y-52009353D01*
X166653467Y-52026944D01*
X166484812Y-52043831D01*
X166223210Y-52019726D01*
X165953259Y-51938322D01*
X165680145Y-51801354D01*
X165409055Y-51610557D01*
X165380347Y-51586495D01*
X165284853Y-51496711D01*
X165191297Y-51396676D01*
X165110757Y-51299486D01*
X165054309Y-51218236D01*
X165033031Y-51166022D01*
X165035500Y-51154633D01*
X165072796Y-51146738D01*
X165152268Y-51178280D01*
X165270491Y-51247621D01*
X165424041Y-51353122D01*
X165520890Y-51421493D01*
X165781466Y-51587546D01*
X166020382Y-51712895D01*
X166231903Y-51794766D01*
X166410296Y-51830384D01*
X166418098Y-51830933D01*
X166509376Y-51833703D01*
X166593990Y-51825999D01*
X166684311Y-51804019D01*
X166792708Y-51763965D01*
X166931549Y-51702035D01*
X167113204Y-51614430D01*
X167239258Y-51556537D01*
X167427624Y-51489493D01*
X167618133Y-51450104D01*
X167830118Y-51434903D01*
X168082908Y-51440420D01*
X168398579Y-51473987D01*
X168709339Y-51550104D01*
X168974361Y-51667220D01*
X169194786Y-51825729D01*
X169251643Y-51885287D01*
X169306567Y-51973489D01*
X169321492Y-52049224D01*
X169291792Y-52099435D01*
X169262015Y-52090861D01*
X169200438Y-52047863D01*
X169122799Y-51979609D01*
X169086140Y-51946924D01*
X168912479Y-51831938D01*
X168696828Y-51735474D01*
X168454308Y-51661469D01*
X168200045Y-51613859D01*
X167949162Y-51596583D01*
X167716782Y-51613577D01*
X167701172Y-51616264D01*
X167558684Y-51651084D01*
X167403991Y-51703247D01*
X167255448Y-51765191D01*
X167131409Y-51829355D01*
X167050232Y-51888175D01*
X167035306Y-51919986D01*
X167034505Y-51980243D01*
X167050491Y-52073973D01*
X167084654Y-52207415D01*
X167138386Y-52386809D01*
X167213079Y-52618395D01*
X167218230Y-52633748D01*
X167277489Y-52790279D01*
X167357642Y-52978304D01*
X167450168Y-53179789D01*
X167546550Y-53376700D01*
X167638266Y-53551003D01*
X167716798Y-53684664D01*
X167809177Y-53828149D01*
X168102447Y-53865806D01*
X168265619Y-53887656D01*
X168448504Y-53916054D01*
X168585821Y-53944005D01*
X168687395Y-53974027D01*
X168763054Y-54008638D01*
X168822622Y-54050355D01*
X168868687Y-54094121D01*
X168960217Y-54231271D01*
X169002251Y-54384334D01*
X169001900Y-54391519D01*
X168994656Y-54539938D01*
G37*
G36*
X164610639Y-53384774D02*
G01*
X164618852Y-53446250D01*
X164641679Y-53540627D01*
X164683014Y-53612674D01*
X164755784Y-53689540D01*
X164808417Y-53737012D01*
X164974167Y-53866787D01*
X165175257Y-54003518D01*
X165395132Y-54136346D01*
X165617235Y-54254418D01*
X165652634Y-54271867D01*
X165808395Y-54350202D01*
X165917329Y-54408814D01*
X165987940Y-54452914D01*
X166028735Y-54487712D01*
X166048220Y-54518417D01*
X166048032Y-54538788D01*
X166020141Y-54545074D01*
X165956280Y-54534498D01*
X165848769Y-54505755D01*
X165689928Y-54457541D01*
X165598233Y-54426865D01*
X165254391Y-54276499D01*
X164898399Y-54066255D01*
X164865641Y-54044876D01*
X164770573Y-53987008D01*
X164700315Y-53950514D01*
X164668164Y-53942540D01*
X164667992Y-53942720D01*
X164653108Y-53980967D01*
X164631052Y-54062859D01*
X164606532Y-54170943D01*
X164587559Y-54252261D01*
X164507850Y-54482175D01*
X164401090Y-54663452D01*
X164269827Y-54792479D01*
X164116610Y-54865643D01*
X164030133Y-54879016D01*
X163864923Y-54859399D01*
X163693943Y-54788017D01*
X163526836Y-54669501D01*
X163373245Y-54508486D01*
X163345256Y-54471732D01*
X163299410Y-54402509D01*
X163281307Y-54360604D01*
X163280283Y-54351237D01*
X163262259Y-54347459D01*
X163256875Y-54357887D01*
X163244982Y-54417177D01*
X163237678Y-54505619D01*
X163216427Y-54637077D01*
X163163761Y-54718338D01*
X163080004Y-54745488D01*
X163033754Y-54734872D01*
X162953853Y-54678380D01*
X162857613Y-54570277D01*
X162741737Y-54407264D01*
X162631747Y-54241085D01*
X162648084Y-54585754D01*
X162650531Y-54643557D01*
X162651984Y-54829054D01*
X162638900Y-54964982D01*
X162608648Y-55060837D01*
X162558596Y-55126115D01*
X162486114Y-55170315D01*
X162415240Y-55198645D01*
X162350469Y-55208823D01*
X162286883Y-55188466D01*
X162198665Y-55134341D01*
X162175240Y-55118881D01*
X162139595Y-55094537D01*
X162105694Y-55068527D01*
X162069985Y-55036438D01*
X162028915Y-54993856D01*
X161978934Y-54936370D01*
X161916488Y-54859566D01*
X161838027Y-54759033D01*
X161739999Y-54630356D01*
X161618852Y-54469124D01*
X161471033Y-54270923D01*
X161292992Y-54031342D01*
X161081177Y-53745966D01*
X160928152Y-53540992D01*
X160745244Y-53298855D01*
X160562884Y-53060238D01*
X160385176Y-52830316D01*
X160216222Y-52614261D01*
X160060129Y-52417250D01*
X159920999Y-52244455D01*
X159802937Y-52101052D01*
X159710047Y-51992215D01*
X159646432Y-51923119D01*
X159616198Y-51898937D01*
X159604505Y-51907181D01*
X159609842Y-51939823D01*
X159637371Y-52004297D01*
X159690280Y-52107961D01*
X159771754Y-52258171D01*
X159801274Y-52310964D01*
X159922314Y-52513955D01*
X160058415Y-52724861D01*
X160203670Y-52935988D01*
X160352174Y-53139639D01*
X160498023Y-53328119D01*
X160635312Y-53493731D01*
X160758134Y-53628781D01*
X160860586Y-53725573D01*
X160936761Y-53776410D01*
X161009461Y-53822809D01*
X161073331Y-53920710D01*
X161086400Y-54044264D01*
X161082178Y-54071568D01*
X161052637Y-54126619D01*
X160982169Y-54151465D01*
X160934335Y-54162557D01*
X160899647Y-54193015D01*
X160899156Y-54259154D01*
X160912790Y-54335511D01*
X160938257Y-54424954D01*
X160946031Y-54451282D01*
X160960705Y-54543858D01*
X160966529Y-54651282D01*
X160962233Y-54718072D01*
X160915731Y-54856351D01*
X160816061Y-54965290D01*
X160660652Y-55048229D01*
X160623816Y-55060118D01*
X160491597Y-55084997D01*
X160322407Y-55100449D01*
X160134304Y-55106215D01*
X159945345Y-55102037D01*
X159773590Y-55087659D01*
X159637095Y-55062824D01*
X159585692Y-55048840D01*
X159404310Y-54994520D01*
X159267940Y-54944996D01*
X159182084Y-54902466D01*
X159152243Y-54869128D01*
X159169698Y-54854385D01*
X159239985Y-54835153D01*
X159354464Y-54817004D01*
X159502722Y-54801016D01*
X159674345Y-54788263D01*
X159858918Y-54779822D01*
X160046028Y-54776769D01*
X160212900Y-54775049D01*
X160379706Y-54767347D01*
X160498747Y-54752811D01*
X160578227Y-54730732D01*
X160688409Y-54684696D01*
X160667830Y-54410104D01*
X160664471Y-54365597D01*
X160654142Y-54232198D01*
X160645090Y-54120014D01*
X160638966Y-54049635D01*
X160636367Y-54033616D01*
X160603463Y-53948344D01*
X160547970Y-53861950D01*
X160431421Y-53716754D01*
X160155364Y-53355077D01*
X159923347Y-53021279D01*
X159730974Y-52708393D01*
X159573851Y-52409451D01*
X159447582Y-52117486D01*
X159403384Y-51994143D01*
X159355372Y-51817920D01*
X159338755Y-51680083D01*
X159353933Y-51585636D01*
X159401308Y-51539583D01*
X159443900Y-51534030D01*
X159520897Y-51551254D01*
X159522911Y-51552372D01*
X159580530Y-51598956D01*
X159672668Y-51690959D01*
X159795950Y-51824371D01*
X159947000Y-51995180D01*
X160122442Y-52199376D01*
X160318902Y-52432946D01*
X160533002Y-52691880D01*
X160761368Y-52972166D01*
X161000624Y-53269793D01*
X161247394Y-53580749D01*
X161498302Y-53901024D01*
X161665196Y-54114209D01*
X161855545Y-54353164D01*
X162012464Y-54544458D01*
X162137581Y-54689970D01*
X162232526Y-54791580D01*
X162298927Y-54851167D01*
X162338412Y-54870612D01*
X162359097Y-54860258D01*
X162385488Y-54799836D01*
X162400473Y-54694679D01*
X162403512Y-54555439D01*
X162394064Y-54392770D01*
X162371586Y-54217322D01*
X162340385Y-54040533D01*
X162308478Y-53900146D01*
X162273275Y-53795256D01*
X162230081Y-53712058D01*
X162174204Y-53636743D01*
X162126013Y-53581084D01*
X162078083Y-53540279D01*
X162032593Y-53533435D01*
X161968395Y-53551824D01*
X161885713Y-53575247D01*
X161757535Y-53580428D01*
X161665766Y-53534749D01*
X161610579Y-53438330D01*
X161593035Y-53298393D01*
X161785715Y-53298393D01*
X161799724Y-53328548D01*
X161853166Y-53363748D01*
X161872641Y-53366765D01*
X161894457Y-53356844D01*
X161875167Y-53309366D01*
X161863548Y-53290067D01*
X161822177Y-53249997D01*
X161790868Y-53252114D01*
X161785715Y-53298393D01*
X161593035Y-53298393D01*
X161592145Y-53291290D01*
X161594812Y-53218529D01*
X161616861Y-53122116D01*
X161666510Y-53071198D01*
X161750111Y-53056326D01*
X161823566Y-53074444D01*
X161933239Y-53134139D01*
X162059725Y-53226703D01*
X162191888Y-53343041D01*
X162205237Y-53356844D01*
X162318594Y-53474057D01*
X162428706Y-53610654D01*
X162562892Y-53795999D01*
X162706871Y-53991683D01*
X162826457Y-54150379D01*
X162918862Y-54268462D01*
X162981303Y-54342308D01*
X163010991Y-54368291D01*
X163024051Y-54351696D01*
X163019535Y-54297175D01*
X163004227Y-54217458D01*
X162988000Y-54102270D01*
X162972575Y-53968439D01*
X162959497Y-53832090D01*
X162950311Y-53709346D01*
X162946561Y-53616331D01*
X162949792Y-53569170D01*
X162968188Y-53545693D01*
X163025888Y-53525538D01*
X163029896Y-53525673D01*
X163069930Y-53546020D01*
X163109435Y-53607840D01*
X163154952Y-53721043D01*
X163247901Y-53944035D01*
X163365636Y-54157377D01*
X163496971Y-54339684D01*
X163636164Y-54485020D01*
X163777476Y-54587450D01*
X163915168Y-54641039D01*
X164043499Y-54639852D01*
X164131805Y-54588884D01*
X164216754Y-54487141D01*
X164292142Y-54346942D01*
X164352615Y-54180390D01*
X164392823Y-53999591D01*
X164407416Y-53816650D01*
X164401470Y-53711610D01*
X164375329Y-53628898D01*
X164318977Y-53550087D01*
X164230234Y-53435775D01*
X164108304Y-53252344D01*
X163979462Y-53034931D01*
X163851151Y-52797427D01*
X163730813Y-52553720D01*
X163625889Y-52317703D01*
X163543822Y-52103264D01*
X163531485Y-52065354D01*
X163491291Y-51907333D01*
X163464408Y-51743645D01*
X163451499Y-51587485D01*
X163451604Y-51579261D01*
X163594115Y-51579261D01*
X163611157Y-51725270D01*
X163663467Y-51919295D01*
X163748031Y-52148303D01*
X163861801Y-52404858D01*
X164001728Y-52681524D01*
X164164763Y-52970868D01*
X164178659Y-52994165D01*
X164239989Y-53092833D01*
X164289473Y-53166088D01*
X164317473Y-53199500D01*
X164326480Y-53202458D01*
X164340390Y-53174721D01*
X164336374Y-53098765D01*
X164316073Y-52982834D01*
X164281127Y-52835173D01*
X164233177Y-52664024D01*
X164173861Y-52477631D01*
X164129657Y-52358165D01*
X164055278Y-52185087D01*
X163969140Y-52006716D01*
X163878103Y-51835785D01*
X163789028Y-51685022D01*
X163708777Y-51567157D01*
X163644210Y-51494921D01*
X163638542Y-51490305D01*
X163609539Y-51475676D01*
X163596891Y-51501690D01*
X163594115Y-51579261D01*
X163451604Y-51579261D01*
X163453228Y-51452051D01*
X163470258Y-51350536D01*
X163503251Y-51296137D01*
X163567880Y-51274110D01*
X163654539Y-51296498D01*
X163753521Y-51374522D01*
X163868194Y-51510157D01*
X164020207Y-51737681D01*
X164185811Y-52043072D01*
X164334619Y-52378060D01*
X164459669Y-52725061D01*
X164553997Y-53066494D01*
X164573257Y-53174721D01*
X164610639Y-53384774D01*
G37*
G36*
X169914284Y-45986868D02*
G01*
X170005920Y-46269955D01*
X170115387Y-46610520D01*
X170206738Y-46899096D01*
X170280926Y-47139948D01*
X170338904Y-47337341D01*
X170381623Y-47495538D01*
X170410037Y-47618807D01*
X170425098Y-47711410D01*
X170427757Y-47777612D01*
X170418969Y-47821679D01*
X170399684Y-47847876D01*
X170370856Y-47860466D01*
X170333437Y-47863715D01*
X170302524Y-47859987D01*
X170265002Y-47838093D01*
X170230416Y-47789074D01*
X170194594Y-47704454D01*
X170153366Y-47575756D01*
X170102560Y-47394503D01*
X170067875Y-47267588D01*
X170009926Y-47059767D01*
X169952035Y-46856669D01*
X169897463Y-46669427D01*
X169849468Y-46509173D01*
X169811310Y-46387040D01*
X169786249Y-46314159D01*
X169749988Y-46221474D01*
X169721882Y-46294706D01*
X169705246Y-46362053D01*
X169688514Y-46468892D01*
X169675375Y-46591874D01*
X169671638Y-46632892D01*
X169633767Y-46865696D01*
X169572473Y-47052174D01*
X169489705Y-47187754D01*
X169387409Y-47267864D01*
X169274660Y-47296591D01*
X169122047Y-47299255D01*
X168957730Y-47274659D01*
X168803872Y-47224452D01*
X168724060Y-47192068D01*
X168652426Y-47169913D01*
X168620646Y-47169710D01*
X168620614Y-47169775D01*
X168614303Y-47210089D01*
X168608230Y-47294639D01*
X168603704Y-47405207D01*
X168600305Y-47474984D01*
X168573234Y-47646045D01*
X168517812Y-47767243D01*
X168430229Y-47844725D01*
X168306680Y-47884635D01*
X168252332Y-47888204D01*
X168106571Y-47856693D01*
X167943827Y-47770510D01*
X167767781Y-47632361D01*
X167582114Y-47444953D01*
X167390508Y-47210993D01*
X167324854Y-47125011D01*
X167255810Y-47037410D01*
X167208780Y-46981224D01*
X167191406Y-46965860D01*
X167193252Y-46978858D01*
X167204988Y-47043923D01*
X167225751Y-47153234D01*
X167253442Y-47295809D01*
X167285964Y-47460669D01*
X167380522Y-47936648D01*
X167579853Y-48205169D01*
X167703916Y-48378685D01*
X167904721Y-48689031D01*
X168081074Y-48999852D01*
X168225368Y-49297331D01*
X168329996Y-49567650D01*
X168375024Y-49732444D01*
X168404845Y-49910245D01*
X168407243Y-49959528D01*
X168412572Y-50069025D01*
X168397666Y-50195827D01*
X168359587Y-50277693D01*
X168300498Y-50316184D01*
X168190442Y-50334897D01*
X168141674Y-50332325D01*
X168079640Y-50313386D01*
X168016678Y-50266533D01*
X167934449Y-50180723D01*
X167840060Y-50060459D01*
X167713670Y-49856946D01*
X167588431Y-49611625D01*
X167469224Y-49336004D01*
X167360935Y-49041590D01*
X167268448Y-48739889D01*
X167196646Y-48442410D01*
X167195159Y-48435159D01*
X167512884Y-48435159D01*
X167518894Y-48490092D01*
X167543151Y-48587961D01*
X167582239Y-48719049D01*
X167632739Y-48873636D01*
X167691233Y-49042003D01*
X167754304Y-49214432D01*
X167818534Y-49381203D01*
X167880505Y-49532597D01*
X167936800Y-49658897D01*
X167984001Y-49750382D01*
X168006593Y-49787810D01*
X168070560Y-49885529D01*
X168126210Y-49960699D01*
X168190309Y-50037730D01*
X168190614Y-49959528D01*
X168190609Y-49956832D01*
X168177651Y-49850897D01*
X168143288Y-49705508D01*
X168092520Y-49537283D01*
X168030346Y-49362844D01*
X167961768Y-49198811D01*
X167930895Y-49134111D01*
X167869813Y-49014715D01*
X167798569Y-48882471D01*
X167723695Y-48748759D01*
X167651723Y-48624955D01*
X167589184Y-48522437D01*
X167542612Y-48452582D01*
X167518536Y-48426769D01*
X167512884Y-48435159D01*
X167195159Y-48435159D01*
X167180366Y-48363037D01*
X167151644Y-48222898D01*
X167123647Y-48086194D01*
X167107160Y-48010826D01*
X167085679Y-47942381D01*
X167053258Y-47882187D01*
X167001105Y-47817615D01*
X166920424Y-47736030D01*
X166802420Y-47624802D01*
X166797491Y-47620207D01*
X166687959Y-47520243D01*
X166594216Y-47438550D01*
X166526080Y-47383440D01*
X166493372Y-47363222D01*
X166480155Y-47380083D01*
X166487121Y-47433604D01*
X166503545Y-47496004D01*
X166528321Y-47651253D01*
X166536100Y-47757755D01*
X166541193Y-47827494D01*
X166539630Y-47997556D01*
X166536894Y-48036266D01*
X166521064Y-48137893D01*
X166486626Y-48213432D01*
X166422341Y-48291001D01*
X166387349Y-48327157D01*
X166326470Y-48376535D01*
X166265417Y-48393210D01*
X166176829Y-48387990D01*
X166154360Y-48384839D01*
X165996061Y-48326766D01*
X165841233Y-48206268D01*
X165689928Y-48023383D01*
X165637578Y-47951737D01*
X165586663Y-47889636D01*
X165558619Y-47865180D01*
X165549499Y-47877226D01*
X165536398Y-47935802D01*
X165527338Y-48026913D01*
X165525340Y-48057436D01*
X165512566Y-48146515D01*
X165485023Y-48199480D01*
X165433295Y-48237416D01*
X165406329Y-48250834D01*
X165351252Y-48263704D01*
X165298320Y-48249582D01*
X165243395Y-48203249D01*
X165182338Y-48119487D01*
X165111011Y-47993077D01*
X165025275Y-47818801D01*
X164920991Y-47591440D01*
X164854020Y-47445812D01*
X164735318Y-47203614D01*
X164621305Y-46990378D01*
X164515118Y-46810939D01*
X164419893Y-46670133D01*
X164338765Y-46572798D01*
X164274870Y-46523768D01*
X164231345Y-46527881D01*
X164229446Y-46548809D01*
X164244001Y-46622918D01*
X164276633Y-46741701D01*
X164324799Y-46897058D01*
X164385957Y-47080893D01*
X164457565Y-47285105D01*
X164537079Y-47501597D01*
X164599155Y-47670188D01*
X164648132Y-47814944D01*
X164676062Y-47918976D01*
X164684728Y-47991253D01*
X164675915Y-48040745D01*
X164651406Y-48076424D01*
X164639741Y-48086278D01*
X164561888Y-48111873D01*
X164471638Y-48102146D01*
X164399997Y-48059220D01*
X164373924Y-48019587D01*
X164326455Y-47931771D01*
X164267483Y-47812574D01*
X164204178Y-47676030D01*
X164159763Y-47577350D01*
X164057099Y-47352424D01*
X163970698Y-47169402D01*
X163894757Y-47016858D01*
X163823471Y-46883366D01*
X163751035Y-46757504D01*
X163671646Y-46627846D01*
X163644535Y-46584838D01*
X163532292Y-46414463D01*
X163444737Y-46296530D01*
X163379437Y-46228001D01*
X163333960Y-46205833D01*
X163319380Y-46221932D01*
X163315365Y-46292838D01*
X163328818Y-46416643D01*
X163359126Y-46589407D01*
X163405675Y-46807191D01*
X163467853Y-47066055D01*
X163471939Y-47082370D01*
X163527925Y-47316446D01*
X163565571Y-47501166D01*
X163585789Y-47646088D01*
X163589489Y-47760773D01*
X163577583Y-47854781D01*
X163550984Y-47937670D01*
X163543368Y-47955258D01*
X163478354Y-48061421D01*
X163389688Y-48129527D01*
X163265422Y-48165814D01*
X163093607Y-48176523D01*
X162965565Y-48173501D01*
X162859993Y-48159109D01*
X162760106Y-48126354D01*
X162636434Y-48068259D01*
X162549802Y-48021931D01*
X162319980Y-47865067D01*
X162115240Y-47667493D01*
X161923605Y-47418290D01*
X161832334Y-47279303D01*
X161774307Y-47178258D01*
X161752376Y-47117201D01*
X161764966Y-47091654D01*
X161810499Y-47097142D01*
X161843386Y-47110381D01*
X161938761Y-47160077D01*
X162068674Y-47236689D01*
X162222548Y-47333861D01*
X162389805Y-47445237D01*
X162394770Y-47448622D01*
X162621867Y-47591568D01*
X162824146Y-47692587D01*
X163015420Y-47758599D01*
X163069773Y-47772565D01*
X163141213Y-47784974D01*
X163182620Y-47776537D01*
X163213582Y-47746008D01*
X163214802Y-47744381D01*
X163233455Y-47702913D01*
X163242479Y-47637912D01*
X163241311Y-47543101D01*
X163229388Y-47412201D01*
X163206148Y-47238938D01*
X163171030Y-47017033D01*
X163123470Y-46740210D01*
X163107748Y-46634857D01*
X163096027Y-46435340D01*
X163111546Y-46270327D01*
X163152185Y-46144980D01*
X163215823Y-46064459D01*
X163300340Y-46033926D01*
X163403614Y-46058542D01*
X163405316Y-46059381D01*
X163472989Y-46110785D01*
X163565783Y-46205921D01*
X163675986Y-46335722D01*
X163795886Y-46491119D01*
X163917769Y-46663044D01*
X164047686Y-46854369D01*
X164048855Y-46642983D01*
X164056868Y-46501771D01*
X164083741Y-46401700D01*
X164133452Y-46347349D01*
X164210008Y-46330956D01*
X164268644Y-46341555D01*
X164381047Y-46406089D01*
X164510195Y-46527927D01*
X164654801Y-46705588D01*
X164813578Y-46937592D01*
X164985238Y-47222459D01*
X165051323Y-47336732D01*
X165116781Y-47447028D01*
X165166257Y-47527170D01*
X165192386Y-47564983D01*
X165199811Y-47571295D01*
X165217199Y-47558021D01*
X165217850Y-47488271D01*
X165201944Y-47365004D01*
X165169661Y-47191178D01*
X165166874Y-47177505D01*
X165135774Y-47019399D01*
X165135388Y-47016808D01*
X165406326Y-47016808D01*
X165504859Y-47213476D01*
X165609356Y-47406028D01*
X165742131Y-47617625D01*
X165878452Y-47804841D01*
X166006458Y-47950257D01*
X166069355Y-48008505D01*
X166137804Y-48062032D01*
X166179853Y-48082681D01*
X166222453Y-48062661D01*
X166258652Y-47993662D01*
X166278728Y-47887740D01*
X166282448Y-47757755D01*
X166269579Y-47616566D01*
X166239886Y-47477033D01*
X166193135Y-47352014D01*
X166192521Y-47350758D01*
X166084905Y-47178172D01*
X165956120Y-47049115D01*
X165814097Y-46968118D01*
X165666770Y-46939718D01*
X165522070Y-46968447D01*
X165406326Y-47016808D01*
X165135388Y-47016808D01*
X165119488Y-46910008D01*
X165119663Y-46837704D01*
X165137948Y-46790861D01*
X165175991Y-46757850D01*
X165235439Y-46727044D01*
X165245441Y-46722530D01*
X165375975Y-46688456D01*
X165541709Y-46676518D01*
X165721760Y-46685762D01*
X165895248Y-46715229D01*
X166041289Y-46763963D01*
X166058725Y-46772670D01*
X166154509Y-46831630D01*
X166281957Y-46921844D01*
X166429581Y-47034361D01*
X166585889Y-47160232D01*
X166739391Y-47290505D01*
X166878598Y-47416229D01*
X166949790Y-47478960D01*
X167005949Y-47513562D01*
X167028835Y-47500183D01*
X167021633Y-47439337D01*
X167001869Y-47342790D01*
X166978387Y-47195005D01*
X166955210Y-47020722D01*
X166934808Y-46838635D01*
X166919649Y-46667438D01*
X166917434Y-46634565D01*
X166915556Y-46489868D01*
X166932801Y-46396309D01*
X166971892Y-46345976D01*
X167035555Y-46330956D01*
X167039372Y-46331221D01*
X167084423Y-46362386D01*
X167144797Y-46447379D01*
X167222541Y-46589023D01*
X167293202Y-46720266D01*
X167471012Y-46999533D01*
X167666314Y-47244909D01*
X167871095Y-47446952D01*
X168077341Y-47596219D01*
X168077793Y-47596484D01*
X168170751Y-47645242D01*
X168232979Y-47660352D01*
X168283195Y-47646375D01*
X168316318Y-47621252D01*
X168369983Y-47529958D01*
X168399289Y-47396912D01*
X168404329Y-47232923D01*
X168385197Y-47048802D01*
X168341983Y-46855359D01*
X168274782Y-46663405D01*
X168250296Y-46595393D01*
X168227388Y-46485184D01*
X168228670Y-46396292D01*
X168255232Y-46346424D01*
X168312178Y-46332379D01*
X168369219Y-46368317D01*
X168426373Y-46459607D01*
X168486673Y-46609701D01*
X168517666Y-46694284D01*
X168580474Y-46829394D01*
X168652670Y-46924313D01*
X168747079Y-46993586D01*
X168876529Y-47051758D01*
X168947727Y-47076670D01*
X169103969Y-47109940D01*
X169223890Y-47098083D01*
X169312678Y-47040971D01*
X169370317Y-46952517D01*
X169422433Y-46824643D01*
X169460235Y-46682370D01*
X169475679Y-46549922D01*
X169478930Y-46499557D01*
X169494666Y-46385884D01*
X169518757Y-46266425D01*
X169560382Y-46092411D01*
X169394892Y-46005766D01*
X169338996Y-45972476D01*
X169210201Y-45876886D01*
X169064715Y-45750486D01*
X168916068Y-45606066D01*
X168777792Y-45456417D01*
X168663419Y-45314331D01*
X168595660Y-45217251D01*
X168459906Y-44990276D01*
X168353912Y-44764829D01*
X168278855Y-44547789D01*
X168235916Y-44346036D01*
X168229840Y-44232873D01*
X168416705Y-44232873D01*
X168436850Y-44381977D01*
X168482546Y-44548396D01*
X168547583Y-44711358D01*
X168665231Y-44939204D01*
X168809097Y-45165825D01*
X168970180Y-45379532D01*
X169139475Y-45568636D01*
X169307981Y-45721447D01*
X169466695Y-45826276D01*
X169508144Y-45847018D01*
X169578523Y-45880012D01*
X169613439Y-45893025D01*
X169617552Y-45891599D01*
X169618314Y-45862716D01*
X169596494Y-45792856D01*
X169550320Y-45677012D01*
X169478021Y-45510177D01*
X169453707Y-45454331D01*
X169423957Y-45382265D01*
X169412342Y-45348367D01*
X169411353Y-45341662D01*
X169390492Y-45285038D01*
X169347150Y-45188741D01*
X169287434Y-45064798D01*
X169217451Y-44925240D01*
X169143309Y-44782095D01*
X169071113Y-44647392D01*
X169006971Y-44533161D01*
X168956990Y-44451431D01*
X168940110Y-44426407D01*
X168843204Y-44294292D01*
X168743105Y-44174023D01*
X168649274Y-44075660D01*
X168571172Y-44009265D01*
X168518260Y-43984897D01*
X168503435Y-43986303D01*
X168450611Y-44025352D01*
X168421497Y-44110770D01*
X168416705Y-44232873D01*
X168229840Y-44232873D01*
X168226273Y-44166451D01*
X168251107Y-44015914D01*
X168311595Y-43901305D01*
X168408918Y-43829503D01*
X168464065Y-43811571D01*
X168545697Y-43811177D01*
X168633507Y-43849954D01*
X168743728Y-43932917D01*
X168766713Y-43953832D01*
X168855205Y-44052913D01*
X168959282Y-44190626D01*
X169069768Y-44353635D01*
X169177482Y-44528607D01*
X169273247Y-44702207D01*
X169279419Y-44714137D01*
X169343223Y-44828116D01*
X169385592Y-44883867D01*
X169406162Y-44881392D01*
X169404567Y-44820693D01*
X169380441Y-44701772D01*
X169367868Y-44642654D01*
X169357395Y-44564519D01*
X169361139Y-44526165D01*
X169364681Y-44523000D01*
X169402578Y-44526212D01*
X169448576Y-44589787D01*
X169502959Y-44714245D01*
X169566009Y-44900102D01*
X169587621Y-44969010D01*
X169635815Y-45121007D01*
X169696704Y-45311668D01*
X169766163Y-45528116D01*
X169840066Y-45757475D01*
X169874116Y-45862716D01*
X169914284Y-45986868D01*
G37*
X94932794Y-116771497D02*
X94932794Y-117246013D01*
X93887794Y-116771497D02*
X93887794Y-117246013D01*
X82320753Y-112284919D02*
X81846237Y-112284919D01*
X82320753Y-111239919D02*
X81846237Y-111239919D01*
X101745849Y-104590491D02*
X101271333Y-104590491D01*
X101745849Y-103545491D02*
X101271333Y-103545491D01*
X141205164Y-94600757D02*
X138205164Y-94600757D01*
X142205164Y-91360757D02*
X140205164Y-91360757D01*
X117451217Y-47550991D02*
X117170057Y-47550991D01*
X117451217Y-46530991D02*
X117170057Y-46530991D01*
X109876217Y-95260991D02*
X109595057Y-95260991D01*
X109876217Y-94240991D02*
X109595057Y-94240991D01*
X101448011Y-101627991D02*
X101729171Y-101627991D01*
X101448011Y-102647991D02*
X101729171Y-102647991D01*
X94628294Y-112690755D02*
X94628294Y-113490755D01*
X94628294Y-112690755D02*
X94628294Y-111890755D01*
X97748294Y-112690755D02*
X97748294Y-114490755D01*
X97748294Y-112690755D02*
X97748294Y-111890755D01*
X109595057Y-95820991D02*
X109876217Y-95820991D01*
X109595057Y-96840991D02*
X109876217Y-96840991D01*
X127219588Y-104685757D02*
X125819588Y-104685757D01*
X125819588Y-102365757D02*
X127719588Y-102365757D01*
X117859000Y-76662757D02*
X117643328Y-76662757D01*
X117859000Y-75942757D02*
X117643328Y-75942757D01*
X108138906Y-83233257D02*
X108613422Y-83233257D01*
X108138906Y-84278257D02*
X108613422Y-84278257D01*
X86415637Y-90020991D02*
X87015637Y-90020991D01*
X87715637Y-89320991D02*
X87715637Y-87920991D01*
X85715637Y-87920991D02*
X85715637Y-89320991D01*
X87015637Y-87220991D02*
X86415637Y-87220991D01*
X85715637Y-89320991D02*
G75*
G03*
X86415637Y-90020991I699999J-1D01*
G01*
X87015637Y-90020991D02*
G75*
G03*
X87715637Y-89320991I1J699999D01*
G01*
X86415637Y-87220991D02*
G75*
G03*
X85715637Y-87920991I0J-700000D01*
G01*
X87715637Y-87920991D02*
G75*
G03*
X87015637Y-87220991I-700000J0D01*
G01*
X88051091Y-100352991D02*
X87401091Y-100352991D01*
X88051091Y-100352991D02*
X88701091Y-100352991D01*
X88051091Y-103472991D02*
X86376091Y-103472991D01*
X88051091Y-103472991D02*
X88701091Y-103472991D01*
X198233588Y-90218491D02*
X196833588Y-90218491D01*
X196833588Y-87898491D02*
X198733588Y-87898491D01*
X150813137Y-107908249D02*
X150813137Y-107433733D01*
X151858137Y-107908249D02*
X151858137Y-107433733D01*
X90288881Y-73105991D02*
X90811385Y-73105991D01*
X90288881Y-74575991D02*
X90811385Y-74575991D01*
X82320753Y-108259205D02*
X81846237Y-108259205D01*
X82320753Y-107214205D02*
X81846237Y-107214205D01*
X106268379Y-47188491D02*
X106742895Y-47188491D01*
X106268379Y-48233491D02*
X106742895Y-48233491D01*
X141205164Y-89850757D02*
X143155164Y-89850757D01*
X141205164Y-89850757D02*
X139255164Y-89850757D01*
X141205164Y-79730757D02*
X144655164Y-79730757D01*
X141205164Y-79730757D02*
X139255164Y-79730757D01*
X111820637Y-47135991D02*
X109870637Y-47135991D01*
X111820637Y-47135991D02*
X113770637Y-47135991D01*
X111820637Y-52255991D02*
X108370637Y-52255991D01*
X111820637Y-52255991D02*
X113770637Y-52255991D01*
X198298588Y-107028491D02*
X196898588Y-107028491D01*
X196898588Y-104708491D02*
X198798588Y-104708491D01*
X159153588Y-73674491D02*
X160553588Y-73674491D01*
X160553588Y-75994491D02*
X158653588Y-75994491D01*
X125759164Y-79749757D02*
X125059164Y-79749757D01*
X112239164Y-79749757D02*
X112239164Y-78384757D01*
X111539164Y-79749757D02*
X112239164Y-79749757D01*
X125759164Y-80449757D02*
X125759164Y-79749757D01*
X111539164Y-80449757D02*
X111539164Y-79749757D01*
X125759164Y-93269757D02*
X125759164Y-93969757D01*
X111539164Y-93269757D02*
X111539164Y-93969757D01*
X125759164Y-93969757D02*
X125059164Y-93969757D01*
X111539164Y-93969757D02*
X112239164Y-93969757D01*
X210280686Y-95721991D02*
X213280686Y-95721991D01*
X209280686Y-98961991D02*
X211280686Y-98961991D01*
X198053588Y-81903491D02*
X196653588Y-81903491D01*
X196653588Y-79583491D02*
X198553588Y-79583491D01*
X160215846Y-85975491D02*
X159741330Y-85975491D01*
X160215846Y-84930491D02*
X159741330Y-84930491D01*
X191258137Y-48813733D02*
X191258137Y-49288249D01*
X190213137Y-48813733D02*
X190213137Y-49288249D01*
X149600637Y-109688491D02*
X149600637Y-106183491D01*
X146330637Y-109453491D02*
X146330637Y-106183491D01*
X146665637Y-109453491D02*
X146330637Y-109453491D01*
X146665637Y-106183491D02*
X146330637Y-106183491D01*
X149600637Y-106183491D02*
X149265637Y-106183491D01*
X197236330Y-94738991D02*
X197710846Y-94738991D01*
X197236330Y-95783991D02*
X197710846Y-95783991D01*
X82320753Y-116310633D02*
X81846237Y-116310633D01*
X82320753Y-115265633D02*
X81846237Y-115265633D01*
X82320753Y-106246348D02*
X81846237Y-106246348D01*
X82320753Y-105201348D02*
X81846237Y-105201348D01*
X196991330Y-77990991D02*
X197465846Y-77990991D01*
X196991330Y-79035991D02*
X197465846Y-79035991D01*
X82915057Y-46390991D02*
X83196217Y-46390991D01*
X82915057Y-47410991D02*
X83196217Y-47410991D01*
X87837511Y-98880991D02*
X88118671Y-98880991D01*
X87837511Y-99900991D02*
X88118671Y-99900991D01*
X155600637Y-109688491D02*
X155600637Y-106183491D01*
X152330637Y-109453491D02*
X152330637Y-106183491D01*
X152665637Y-109453491D02*
X152330637Y-109453491D01*
X152665637Y-106183491D02*
X152330637Y-106183491D01*
X155600637Y-106183491D02*
X155265637Y-106183491D01*
X96163591Y-104647991D02*
X98113591Y-104647991D01*
X96163591Y-104647991D02*
X94213591Y-104647991D01*
X96163591Y-99527991D02*
X99613591Y-99527991D01*
X96163591Y-99527991D02*
X94213591Y-99527991D01*
X185248137Y-48773733D02*
X185248137Y-49248249D01*
X184203137Y-48773733D02*
X184203137Y-49248249D01*
X160215846Y-102798491D02*
X159741330Y-102798491D01*
X160215846Y-101753491D02*
X159741330Y-101753491D01*
X144813137Y-107908249D02*
X144813137Y-107433733D01*
X145858137Y-107908249D02*
X145858137Y-107433733D01*
%LPC*%
D12*
X82136633Y-82625991D02*
G75*
G03*
X82136633Y-82625991I-375500J0D01*
G01*
X82136633Y-75641991D02*
G75*
G03*
X82136633Y-75641991I-375500J0D01*
G01*
X132884088Y-99220757D02*
G75*
G03*
X132884088Y-99220757I-375500J0D01*
G01*
X118280088Y-99220757D02*
G75*
G03*
X118280088Y-99220757I-375500J0D01*
G01*
D13*
X208035637Y-110340991D03*
D14*
X93173133Y-82320991D03*
D15*
X93173133Y-84860991D03*
D14*
X93173133Y-87400991D03*
X96348133Y-82320991D03*
X96348133Y-87400991D03*
D15*
X98253133Y-83844991D03*
X98253133Y-85876991D03*
D16*
X219439637Y-125808991D03*
X76905637Y-44750991D03*
D17*
X109431588Y-70247757D03*
D16*
X219439637Y-44750991D03*
D17*
X109431588Y-101235757D03*
X99173133Y-69620991D03*
X140419588Y-101235757D03*
D18*
X81761133Y-82625991D03*
X81761133Y-75641991D03*
D19*
X104915637Y-126000991D03*
X143415637Y-126000991D03*
D20*
X112165637Y-111500991D03*
D21*
X115165637Y-111500991D03*
X118165637Y-111500991D03*
X121165637Y-111500991D03*
X124165637Y-111500991D03*
X127165637Y-111500991D03*
X130165637Y-111500991D03*
X133165637Y-111500991D03*
X136165637Y-111500991D03*
X113665637Y-114000991D03*
X116665637Y-114000991D03*
X119665637Y-114000991D03*
X122665637Y-114000991D03*
X125665637Y-114000991D03*
X128665637Y-114000991D03*
X131665637Y-114000991D03*
X134665637Y-114000991D03*
X113665637Y-117000991D03*
X116665637Y-117000991D03*
X119665637Y-117000991D03*
X122665637Y-117000991D03*
X125665637Y-117000991D03*
X128665637Y-117000991D03*
X131665637Y-117000991D03*
X134665637Y-117000991D03*
X112165637Y-119500991D03*
X115165637Y-119500991D03*
X118165637Y-119500991D03*
X121165637Y-119500991D03*
X124165637Y-119500991D03*
X127165637Y-119500991D03*
X130165637Y-119500991D03*
X133165637Y-119500991D03*
X136165637Y-119500991D03*
D22*
X86625637Y-58710991D03*
X89165637Y-58710991D03*
X91705637Y-58710991D03*
X94245637Y-58710991D03*
X96785637Y-58710991D03*
X99325637Y-58710991D03*
X101865637Y-58710991D03*
X104405637Y-58710991D03*
X106945637Y-58710991D03*
X109485637Y-58710991D03*
X112025637Y-58710991D03*
X114565637Y-58710991D03*
X117105637Y-58710991D03*
X117105637Y-43470991D03*
X114565637Y-43470991D03*
X112025637Y-43470991D03*
X109485637Y-43470991D03*
X106945637Y-43470991D03*
X104405637Y-43470991D03*
X101865637Y-43470991D03*
X99325637Y-43470991D03*
X96785637Y-43470991D03*
X94245637Y-43470991D03*
X91705637Y-43470991D03*
X122185637Y-58710991D03*
X124725637Y-58710991D03*
X127265637Y-58710991D03*
X129805637Y-58710991D03*
X132345637Y-58710991D03*
X134885637Y-58710991D03*
X137425637Y-58710991D03*
X139965637Y-58710991D03*
X142505637Y-58710991D03*
X142505637Y-43470991D03*
X139965637Y-43470991D03*
X137425637Y-43470991D03*
X134885637Y-43470991D03*
X132345637Y-43470991D03*
X129805637Y-43470991D03*
X127265637Y-43470991D03*
X124725637Y-43470991D03*
X122185637Y-43470991D03*
X119645637Y-43470991D03*
X86625637Y-43470991D03*
X84085637Y-58710991D03*
X84085637Y-43470991D03*
X89165637Y-43470991D03*
X119645637Y-58710991D03*
D23*
X97055637Y-45925991D03*
X97055637Y-47925991D03*
X97055637Y-49925991D03*
X99055637Y-49925991D03*
X99055637Y-47925991D03*
X99055637Y-45925991D03*
D22*
X86625637Y-46010991D03*
X90435637Y-55670991D03*
X92975637Y-55670991D03*
X95515637Y-55670991D03*
X98055637Y-55670991D03*
X100595637Y-55670991D03*
X129805637Y-56170991D03*
X129805637Y-53630991D03*
X129805637Y-51090991D03*
X129805637Y-48550991D03*
X129805637Y-46010991D03*
D17*
X140419588Y-70247757D03*
X81087133Y-69620991D03*
D16*
X76905637Y-126200991D03*
D19*
X152115637Y-126000991D03*
X190615637Y-126000991D03*
D20*
X159365637Y-111500991D03*
D21*
X162365637Y-111500991D03*
X165365637Y-111500991D03*
X168365637Y-111500991D03*
X171365637Y-111500991D03*
X174365637Y-111500991D03*
X177365637Y-111500991D03*
X180365637Y-111500991D03*
X183365637Y-111500991D03*
X160865637Y-114000991D03*
X163865637Y-114000991D03*
X166865637Y-114000991D03*
X169865637Y-114000991D03*
X172865637Y-114000991D03*
X175865637Y-114000991D03*
X178865637Y-114000991D03*
X181865637Y-114000991D03*
X160865637Y-117000991D03*
X163865637Y-117000991D03*
X166865637Y-117000991D03*
X169865637Y-117000991D03*
X172865637Y-117000991D03*
X175865637Y-117000991D03*
X178865637Y-117000991D03*
X181865637Y-117000991D03*
X159365637Y-119500991D03*
X162365637Y-119500991D03*
X165365637Y-119500991D03*
X168365637Y-119500991D03*
X171365637Y-119500991D03*
X174365637Y-119500991D03*
X177365637Y-119500991D03*
X180365637Y-119500991D03*
X183365637Y-119500991D03*
D13*
X208046686Y-65341991D03*
D24*
X132511588Y-99220757D03*
X117901588Y-99220757D03*
D17*
X99173133Y-93770991D03*
X81087133Y-93770991D03*
D25*
X82908495Y-113775276D03*
X81258495Y-113775276D03*
D26*
X186655637Y-48215991D03*
X186655637Y-49865991D03*
D27*
X122325637Y-66260991D03*
X122325637Y-64610991D03*
D28*
X140005637Y-45680991D03*
X141555637Y-45680991D03*
D29*
X128181164Y-95575757D03*
X128181164Y-94025757D03*
D26*
X119783164Y-74143757D03*
X119783164Y-75793757D03*
X123849637Y-64610991D03*
X123849637Y-66260991D03*
D30*
X118125637Y-52310991D03*
X116575637Y-52310991D03*
D31*
X105685637Y-51670991D03*
X107335637Y-51670991D03*
D32*
X126681164Y-94035757D03*
X126681164Y-95585757D03*
D30*
X107260637Y-49680991D03*
X105710637Y-49680991D03*
D33*
X212075637Y-81126991D03*
X212075637Y-81776991D03*
X212075637Y-82426991D03*
X212075637Y-83076991D03*
X207675637Y-83076991D03*
X207675637Y-82426991D03*
X207675637Y-81776991D03*
X207675637Y-81126991D03*
D34*
X118725637Y-48730991D03*
X118725637Y-50630991D03*
X116850637Y-49680991D03*
D35*
X158903588Y-92261491D03*
X158903588Y-91611491D03*
X158903588Y-90961491D03*
X160803588Y-90961491D03*
X160803588Y-91611491D03*
X160803588Y-92261491D03*
D25*
X82908495Y-103710991D03*
X81258495Y-103710991D03*
D27*
X120575637Y-50425991D03*
X120575637Y-48775991D03*
D31*
X196583588Y-86828491D03*
X198233588Y-86828491D03*
D25*
X160803588Y-93841491D03*
X159153588Y-93841491D03*
D28*
X87248091Y-104460991D03*
X88798091Y-104460991D03*
D36*
X116143164Y-74437757D03*
X116143164Y-72237757D03*
X117843164Y-72237757D03*
X117843164Y-74437757D03*
D25*
X102343591Y-100107991D03*
X100693591Y-100107991D03*
X91503133Y-75937415D03*
X89853133Y-75937415D03*
D35*
X158903588Y-100695991D03*
X158903588Y-100045991D03*
X158903588Y-99395991D03*
X160803588Y-99395991D03*
X160803588Y-100045991D03*
X160803588Y-100695991D03*
X158903588Y-83872991D03*
X158903588Y-83222991D03*
X158903588Y-82572991D03*
X160803588Y-82572991D03*
X160803588Y-83222991D03*
X160803588Y-83872991D03*
D26*
X98691198Y-112085430D03*
X98691198Y-113735430D03*
X188635637Y-48225991D03*
X188635637Y-49875991D03*
D25*
X82908495Y-117800991D03*
X81258495Y-117800991D03*
D33*
X139005164Y-77975757D03*
X139005164Y-77325757D03*
X139005164Y-76675757D03*
X139005164Y-76025757D03*
X143405164Y-76025757D03*
X143405164Y-76675757D03*
X143405164Y-77325757D03*
X143405164Y-77975757D03*
D37*
X116510164Y-70459757D03*
X117470164Y-70459757D03*
D31*
X196648588Y-103638491D03*
X198298588Y-103638491D03*
D35*
X198548588Y-96841491D03*
X198548588Y-97491491D03*
X198548588Y-98141491D03*
X196648588Y-98141491D03*
X196648588Y-97491491D03*
X196648588Y-96841491D03*
D26*
X90991091Y-101160991D03*
X90991091Y-102810991D03*
D38*
X212581637Y-85422991D03*
X212581637Y-86692991D03*
X212581637Y-87962991D03*
X212581637Y-89232991D03*
X212581637Y-90502991D03*
X212581637Y-91772991D03*
X212581637Y-93042991D03*
X212581637Y-94312991D03*
X207631637Y-94312991D03*
X207631637Y-93042991D03*
X207631637Y-91772991D03*
X207631637Y-90502991D03*
X207631637Y-89232991D03*
X207631637Y-87962991D03*
X207631637Y-86692991D03*
X207631637Y-85422991D03*
D25*
X160803588Y-77064491D03*
X159153588Y-77064491D03*
D30*
X145145637Y-52530991D03*
X143595637Y-52530991D03*
D39*
X95904294Y-115992755D03*
X96554294Y-115992755D03*
X97204294Y-115992755D03*
X97204294Y-117892755D03*
X96554294Y-117892755D03*
X95904294Y-117892755D03*
D25*
X82908495Y-109749562D03*
X81258495Y-109749562D03*
D26*
X98728294Y-117453755D03*
X98728294Y-119103755D03*
D40*
X141375637Y-47880991D03*
X141375637Y-50180991D03*
D41*
X135075637Y-50180991D03*
D40*
X141375637Y-52480991D03*
D26*
X94410294Y-116183755D03*
X94410294Y-117833755D03*
D25*
X82908495Y-111762419D03*
X81258495Y-111762419D03*
X102333591Y-104067991D03*
X100683591Y-104067991D03*
D33*
X139005164Y-93955757D03*
X139005164Y-93305757D03*
X139005164Y-92655757D03*
X139005164Y-92005757D03*
X143405164Y-92005757D03*
X143405164Y-92655757D03*
X143405164Y-93305757D03*
X143405164Y-93955757D03*
D30*
X118085637Y-47040991D03*
X116535637Y-47040991D03*
X110510637Y-94750991D03*
X108960637Y-94750991D03*
D28*
X100813591Y-102137991D03*
X102363591Y-102137991D03*
D42*
X97138294Y-113828255D03*
X96188294Y-113828255D03*
X95238294Y-113828255D03*
X95238294Y-111553255D03*
X96188294Y-111553255D03*
X97138294Y-111553255D03*
D28*
X108960637Y-96330991D03*
X110510637Y-96330991D03*
D35*
X127469588Y-102875757D03*
X127469588Y-103525757D03*
X127469588Y-104175757D03*
X125569588Y-104175757D03*
X125569588Y-103525757D03*
X125569588Y-102875757D03*
D43*
X118231164Y-76302757D03*
X117271164Y-76302757D03*
D31*
X107551164Y-83755757D03*
X109201164Y-83755757D03*
D44*
X86715637Y-89270991D03*
D45*
X86715637Y-87970991D03*
D46*
X87113591Y-102862991D03*
X87113591Y-100962991D03*
X88988591Y-101912991D03*
D35*
X198483588Y-88408491D03*
X198483588Y-89058491D03*
X198483588Y-89708491D03*
X196583588Y-89708491D03*
X196583588Y-89058491D03*
X196583588Y-88408491D03*
D27*
X151335637Y-108495991D03*
X151335637Y-106845991D03*
D47*
X89600133Y-73840991D03*
X91500133Y-73840991D03*
D25*
X82908495Y-107736705D03*
X81258495Y-107736705D03*
D31*
X105680637Y-47710991D03*
X107330637Y-47710991D03*
D38*
X143680164Y-80345757D03*
X143680164Y-81615757D03*
X143680164Y-82885757D03*
X143680164Y-84155757D03*
X143680164Y-85425757D03*
X143680164Y-86695757D03*
X143680164Y-87965757D03*
X143680164Y-89235757D03*
X138730164Y-89235757D03*
X138730164Y-87965757D03*
X138730164Y-86695757D03*
X138730164Y-85425757D03*
X138730164Y-84155757D03*
X138730164Y-82885757D03*
X138730164Y-81615757D03*
X138730164Y-80345757D03*
D48*
X109345637Y-51600991D03*
X109345637Y-50330991D03*
X109345637Y-49060991D03*
X109345637Y-47790991D03*
X114295637Y-47790991D03*
X114295637Y-49060991D03*
X114295637Y-50330991D03*
X114295637Y-51600991D03*
D35*
X198548588Y-105218491D03*
X198548588Y-105868491D03*
X198548588Y-106518491D03*
X196648588Y-106518491D03*
X196648588Y-105868491D03*
X196648588Y-105218491D03*
X158903588Y-75484491D03*
X158903588Y-74834491D03*
X158903588Y-74184491D03*
X160803588Y-74184491D03*
X160803588Y-74834491D03*
X160803588Y-75484491D03*
D49*
X112649164Y-79184757D03*
X113149164Y-79184757D03*
X113649164Y-79184757D03*
X114149164Y-79184757D03*
X114649164Y-79184757D03*
X115149164Y-79184757D03*
X115649164Y-79184757D03*
X116149164Y-79184757D03*
X116649164Y-79184757D03*
X117149164Y-79184757D03*
X117649164Y-79184757D03*
X118149164Y-79184757D03*
X118649164Y-79184757D03*
X119149164Y-79184757D03*
X119649164Y-79184757D03*
X120149164Y-79184757D03*
X120649164Y-79184757D03*
X121149164Y-79184757D03*
X121649164Y-79184757D03*
X122149164Y-79184757D03*
X122649164Y-79184757D03*
X123149164Y-79184757D03*
X123649164Y-79184757D03*
X124149164Y-79184757D03*
X124649164Y-79184757D03*
D50*
X126324164Y-80859757D03*
X126324164Y-81359757D03*
X126324164Y-81859757D03*
X126324164Y-82359757D03*
X126324164Y-82859757D03*
X126324164Y-83359757D03*
X126324164Y-83859757D03*
X126324164Y-84359757D03*
X126324164Y-84859757D03*
X126324164Y-85359757D03*
X126324164Y-85859757D03*
X126324164Y-86359757D03*
X126324164Y-86859757D03*
X126324164Y-87359757D03*
X126324164Y-87859757D03*
X126324164Y-88359757D03*
X126324164Y-88859757D03*
X126324164Y-89359757D03*
X126324164Y-89859757D03*
X126324164Y-90359757D03*
X126324164Y-90859757D03*
X126324164Y-91359757D03*
X126324164Y-91859757D03*
X126324164Y-92359757D03*
X126324164Y-92859757D03*
D49*
X124649164Y-94534757D03*
X124149164Y-94534757D03*
X123649164Y-94534757D03*
X123149164Y-94534757D03*
X122649164Y-94534757D03*
X122149164Y-94534757D03*
X121649164Y-94534757D03*
X121149164Y-94534757D03*
X120649164Y-94534757D03*
X120149164Y-94534757D03*
X119649164Y-94534757D03*
X119149164Y-94534757D03*
X118649164Y-94534757D03*
X118149164Y-94534757D03*
X117649164Y-94534757D03*
X117149164Y-94534757D03*
X116649164Y-94534757D03*
X116149164Y-94534757D03*
X115649164Y-94534757D03*
X115149164Y-94534757D03*
X114649164Y-94534757D03*
X114149164Y-94534757D03*
X113649164Y-94534757D03*
X113149164Y-94534757D03*
X112649164Y-94534757D03*
D50*
X110974164Y-92859757D03*
X110974164Y-92359757D03*
X110974164Y-91859757D03*
X110974164Y-91359757D03*
X110974164Y-90859757D03*
X110974164Y-90359757D03*
X110974164Y-89859757D03*
X110974164Y-89359757D03*
X110974164Y-88859757D03*
X110974164Y-88359757D03*
X110974164Y-87859757D03*
X110974164Y-87359757D03*
X110974164Y-86859757D03*
X110974164Y-86359757D03*
X110974164Y-85859757D03*
X110974164Y-85359757D03*
X110974164Y-84859757D03*
X110974164Y-84359757D03*
X110974164Y-83859757D03*
X110974164Y-83359757D03*
X110974164Y-82859757D03*
X110974164Y-82359757D03*
X110974164Y-81859757D03*
X110974164Y-81359757D03*
X110974164Y-80859757D03*
D33*
X212480686Y-96366991D03*
X212480686Y-97016991D03*
X212480686Y-97666991D03*
X212480686Y-98316991D03*
X208080686Y-98316991D03*
X208080686Y-97666991D03*
X208080686Y-97016991D03*
X208080686Y-96366991D03*
D35*
X198303588Y-80093491D03*
X198303588Y-80743491D03*
X198303588Y-81393491D03*
X196403588Y-81393491D03*
X196403588Y-80743491D03*
X196403588Y-80093491D03*
D25*
X160803588Y-85452991D03*
X159153588Y-85452991D03*
D26*
X190735637Y-48225991D03*
X190735637Y-49875991D03*
D51*
X148955637Y-109253491D03*
X148295637Y-109253491D03*
X147635637Y-109253491D03*
X146975637Y-109253491D03*
D52*
X147965637Y-107260991D03*
D31*
X196648588Y-95261491D03*
X198298588Y-95261491D03*
D25*
X82908495Y-115788133D03*
X81258495Y-115788133D03*
X82908495Y-105723848D03*
X81258495Y-105723848D03*
D31*
X196403588Y-78513491D03*
X198053588Y-78513491D03*
D28*
X82280637Y-46900991D03*
X83830637Y-46900991D03*
X87203091Y-99390991D03*
X88753091Y-99390991D03*
D51*
X154955637Y-109253491D03*
X154295637Y-109253491D03*
X153635637Y-109253491D03*
X152975637Y-109253491D03*
D52*
X153965637Y-107260991D03*
D38*
X98638591Y-100182991D03*
X98638591Y-101452991D03*
X98638591Y-102722991D03*
X98638591Y-103992991D03*
X93688591Y-103992991D03*
X93688591Y-102722991D03*
X93688591Y-101452991D03*
X93688591Y-100182991D03*
D26*
X184725637Y-48185991D03*
X184725637Y-49835991D03*
D25*
X160803588Y-102275991D03*
X159153588Y-102275991D03*
D27*
X145335637Y-108495991D03*
X145335637Y-106845991D03*
%LPD*%
M02*
