%TF.GenerationSoftware,KiCad,Pcbnew,7.0.2*%
%TF.CreationDate,2024-09-16T15:06:01-05:00*%
%TF.ProjectId,PDM v3.0,50444d20-7633-42e3-902e-6b696361645f,rev?*%
%TF.SameCoordinates,Original*%
%TF.FileFunction,Drillmap*%
%TF.FilePolarity,Positive*%
%FSLAX45Y45*%
G04 Gerber Fmt 4.5, Leading zero omitted, Abs format (unit mm)*
G04 Created by KiCad (PCBNEW 7.0.2) date 2024-09-16 15:06:01*
%MOMM*%
%LPD*%
G01*
G04 APERTURE LIST*
%ADD10C,0.100000*%
%ADD11C,0.200000*%
%ADD12C,0.040000*%
%ADD13C,0.080000*%
%ADD14C,0.130000*%
%ADD15C,0.640000*%
G04 APERTURE END LIST*
D10*
X22000000Y-4007099D02*
X7621164Y-4007099D01*
X22401161Y-4408263D02*
G75*
G03*
X22000000Y-4007099I-401161J3D01*
G01*
X22401164Y-12669935D02*
X22401164Y-4408263D01*
X7621164Y-4007099D02*
G75*
G03*
X7220000Y-4408263I0J-401164D01*
G01*
X22000000Y-13071104D02*
G75*
G03*
X22401164Y-12669935I0J401164D01*
G01*
X7220000Y-4408263D02*
X7220000Y-12669935D01*
X7621164Y-13071099D02*
X22000000Y-13071099D01*
X7220001Y-12669935D02*
G75*
G03*
X7621164Y-13071099I401159J-5D01*
G01*
D11*
D12*
X7791313Y-8113099D02*
X7831313Y-8153099D01*
X7831313Y-8113099D02*
X7791313Y-8153099D01*
X7985849Y-11140813D02*
X8025849Y-11180813D01*
X8025849Y-11140813D02*
X7985849Y-11180813D01*
X7989705Y-10548155D02*
X8029705Y-10588155D01*
X8029705Y-10548155D02*
X7989705Y-10588155D01*
X7990540Y-10350008D02*
X8030540Y-10390008D01*
X8030540Y-10350008D02*
X7990540Y-10390008D01*
X7990557Y-11340770D02*
X8030557Y-11380770D01*
X8030557Y-11340770D02*
X7990557Y-11380770D01*
X7992666Y-11540823D02*
X8032666Y-11580823D01*
X8032666Y-11540823D02*
X7992666Y-11580823D01*
X7992849Y-10745813D02*
X8032849Y-10785813D01*
X8032849Y-10745813D02*
X7992849Y-10785813D01*
X7997573Y-10953536D02*
X8037573Y-10993536D01*
X8037573Y-10953536D02*
X7997573Y-10993536D01*
X8006056Y-11728607D02*
X8046056Y-11768607D01*
X8046056Y-11728607D02*
X8006056Y-11768607D01*
X8055564Y-4778099D02*
X8095564Y-4818099D01*
X8095564Y-4778099D02*
X8055564Y-4818099D01*
X8363064Y-4839099D02*
X8403064Y-4879099D01*
X8403064Y-4839099D02*
X8363064Y-4879099D01*
X8397666Y-8825746D02*
X8437666Y-8865746D01*
X8437666Y-8825746D02*
X8397666Y-8865746D01*
X8421850Y-10350813D02*
X8461850Y-10390813D01*
X8461850Y-10350813D02*
X8421850Y-10390813D01*
X8424850Y-11536813D02*
X8464850Y-11576813D01*
X8464850Y-11536813D02*
X8424850Y-11576813D01*
X8437850Y-11754813D02*
X8477850Y-11794813D01*
X8477850Y-11754813D02*
X8437850Y-11794813D01*
X8439850Y-11354813D02*
X8479850Y-11394813D01*
X8479850Y-11354813D02*
X8439850Y-11394813D01*
X8443850Y-11146813D02*
X8483850Y-11186813D01*
X8483850Y-11146813D02*
X8443850Y-11186813D01*
X8448850Y-10956813D02*
X8488850Y-10996813D01*
X8488850Y-10956813D02*
X8448850Y-10996813D01*
X8449850Y-10553813D02*
X8489850Y-10593813D01*
X8489850Y-10553813D02*
X8449850Y-10593813D01*
X8454850Y-10744813D02*
X8494850Y-10784813D01*
X8494850Y-10744813D02*
X8454850Y-10784813D01*
X8556313Y-7751099D02*
X8596313Y-7791099D01*
X8596313Y-7751099D02*
X8556313Y-7791099D01*
X8581313Y-8359297D02*
X8621313Y-8399297D01*
X8621313Y-8359297D02*
X8581313Y-8399297D01*
X8611658Y-10179337D02*
X8651658Y-10219337D01*
X8651658Y-10179337D02*
X8611658Y-10219337D01*
X8663263Y-7893099D02*
X8703263Y-7933099D01*
X8703263Y-7893099D02*
X8663263Y-7933099D01*
X8704666Y-9132746D02*
X8744666Y-9172746D01*
X8744666Y-9132746D02*
X8704666Y-9172746D01*
X8725564Y-11887099D02*
X8765564Y-11927099D01*
X8765564Y-11887099D02*
X8725564Y-11927099D01*
X8894513Y-8083899D02*
X8934513Y-8123899D01*
X8934513Y-8083899D02*
X8894513Y-8123899D01*
X8926313Y-7735099D02*
X8966313Y-7775099D01*
X8966313Y-7735099D02*
X8926313Y-7775099D01*
X8932572Y-9608107D02*
X8972572Y-9648107D01*
X8972572Y-9608107D02*
X8932572Y-9648107D01*
X8992110Y-9442574D02*
X9032110Y-9482574D01*
X9032110Y-9442574D02*
X8992110Y-9482574D01*
X8998564Y-10447099D02*
X9038564Y-10487099D01*
X9038564Y-10447099D02*
X8998564Y-10487099D01*
X9027564Y-9892099D02*
X9067564Y-9932099D01*
X9067564Y-9892099D02*
X9027564Y-9932099D01*
X9045107Y-9601567D02*
X9085107Y-9641567D01*
X9085107Y-9601567D02*
X9045107Y-9641567D01*
X9055433Y-9700983D02*
X9095433Y-9740983D01*
X9095433Y-9700983D02*
X9055433Y-9740983D01*
X9078313Y-8347099D02*
X9118313Y-8387099D01*
X9118313Y-8347099D02*
X9078313Y-8387099D01*
X9154848Y-9711308D02*
X9194848Y-9751308D01*
X9194848Y-9711308D02*
X9154848Y-9751308D01*
X9169564Y-11840099D02*
X9209564Y-11880099D01*
X9209564Y-11840099D02*
X9169564Y-11880099D01*
X9201313Y-6917099D02*
X9241313Y-6957099D01*
X9241313Y-6917099D02*
X9201313Y-6957099D01*
X9209564Y-9156099D02*
X9249564Y-9196099D01*
X9249564Y-9156099D02*
X9209564Y-9196099D01*
X9289599Y-9740064D02*
X9329599Y-9780064D01*
X9329599Y-9740064D02*
X9289599Y-9780064D01*
X9300509Y-9197559D02*
X9340509Y-9237559D01*
X9340509Y-9197559D02*
X9300509Y-9237559D01*
X9339886Y-9289426D02*
X9379886Y-9329426D01*
X9379886Y-9289426D02*
X9339886Y-9329426D01*
X9344829Y-11467166D02*
X9384829Y-11507166D01*
X9384829Y-11467166D02*
X9344829Y-11507166D01*
X9395629Y-11249075D02*
X9435629Y-11289075D01*
X9435629Y-11249075D02*
X9395629Y-11289075D01*
X9410561Y-9360101D02*
X9450561Y-9400101D01*
X9450561Y-9360101D02*
X9410561Y-9400101D01*
X9504819Y-9968428D02*
X9544819Y-10008428D01*
X9544819Y-9968428D02*
X9504819Y-10008428D01*
X9511564Y-10109099D02*
X9551564Y-10149099D01*
X9551564Y-10109099D02*
X9511564Y-10149099D01*
X9522288Y-9548630D02*
X9562288Y-9588630D01*
X9562288Y-9548630D02*
X9522288Y-9588630D01*
X9589620Y-11006543D02*
X9629620Y-11046543D01*
X9629620Y-11006543D02*
X9589620Y-11046543D01*
X9603564Y-10187099D02*
X9643564Y-10227099D01*
X9643564Y-10187099D02*
X9603564Y-10227099D01*
X9684564Y-10305099D02*
X9724564Y-10345099D01*
X9724564Y-10305099D02*
X9684564Y-10345099D01*
X9701231Y-9727502D02*
X9741231Y-9767502D01*
X9741231Y-9727502D02*
X9701231Y-9767502D01*
X9845313Y-8698099D02*
X9885313Y-8738099D01*
X9885313Y-8698099D02*
X9845313Y-8738099D01*
X9868564Y-11014099D02*
X9908564Y-11054099D01*
X9908564Y-11014099D02*
X9868564Y-11054099D01*
X9883564Y-9802452D02*
X9923564Y-9842452D01*
X9923564Y-9802452D02*
X9883564Y-9842452D01*
X9967564Y-11135099D02*
X10007564Y-11175099D01*
X10007564Y-11135099D02*
X9967564Y-11175099D01*
X10003950Y-10094104D02*
X10043950Y-10134104D01*
X10043950Y-10094104D02*
X10003950Y-10134104D01*
X10040564Y-11725099D02*
X10080564Y-11765099D01*
X10080564Y-11725099D02*
X10040564Y-11765099D01*
X10099564Y-9877402D02*
X10139564Y-9917402D01*
X10139564Y-9877402D02*
X10099564Y-9917402D01*
X10129514Y-8329059D02*
X10169514Y-8369059D01*
X10169514Y-8329059D02*
X10129514Y-8369059D01*
X10136061Y-10085601D02*
X10176061Y-10125601D01*
X10176061Y-10085601D02*
X10136061Y-10125601D01*
X10173564Y-10598099D02*
X10213564Y-10638099D01*
X10213564Y-10598099D02*
X10173564Y-10638099D01*
X10191023Y-8137640D02*
X10231023Y-8177640D01*
X10231023Y-8137640D02*
X10191023Y-8177640D01*
X10193439Y-8252224D02*
X10233439Y-8292224D01*
X10233439Y-8252224D02*
X10193439Y-8292224D01*
X10241564Y-11544099D02*
X10281564Y-11584099D01*
X10281564Y-11544099D02*
X10241564Y-11584099D01*
X10243564Y-8487099D02*
X10283564Y-8527099D01*
X10283564Y-8487099D02*
X10243564Y-8527099D01*
X10261564Y-9854099D02*
X10301564Y-9894099D01*
X10301564Y-9854099D02*
X10261564Y-9894099D01*
X10295564Y-10691099D02*
X10335564Y-10731099D01*
X10335564Y-10691099D02*
X10295564Y-10731099D01*
X10313564Y-10095099D02*
X10353564Y-10135099D01*
X10353564Y-10095099D02*
X10313564Y-10135099D01*
X10374564Y-9947099D02*
X10414564Y-9987099D01*
X10414564Y-9947099D02*
X10374564Y-9987099D01*
X10391064Y-4896599D02*
X10431064Y-4936599D01*
X10431064Y-4896599D02*
X10391064Y-4936599D01*
X10461014Y-5047599D02*
X10501014Y-5087599D01*
X10501014Y-5047599D02*
X10461014Y-5087599D01*
X10503564Y-12025099D02*
X10543564Y-12065099D01*
X10543564Y-12025099D02*
X10503564Y-12065099D01*
X10581564Y-12137149D02*
X10621564Y-12177149D01*
X10621564Y-12137149D02*
X10581564Y-12177149D01*
X10620116Y-8325576D02*
X10660116Y-8365576D01*
X10660116Y-8325576D02*
X10620116Y-8365576D01*
X10629564Y-5040099D02*
X10669564Y-5080099D01*
X10669564Y-5040099D02*
X10629564Y-5080099D01*
X10701064Y-9177604D02*
X10741064Y-9217604D01*
X10741064Y-9177604D02*
X10701064Y-9217604D01*
X10704112Y-9023149D02*
X10744112Y-9063149D01*
X10744112Y-9023149D02*
X10704112Y-9063149D01*
X10728564Y-8861099D02*
X10768564Y-8901099D01*
X10768564Y-8861099D02*
X10728564Y-8901099D01*
X10746564Y-9572099D02*
X10786564Y-9612099D01*
X10786564Y-9572099D02*
X10746564Y-9612099D01*
X10803561Y-9191026D02*
X10843561Y-9231026D01*
X10843561Y-9191026D02*
X10803561Y-9231026D01*
X10803766Y-8991026D02*
X10843766Y-9031026D01*
X10843766Y-8991026D02*
X10803766Y-9031026D01*
X10925232Y-8891026D02*
X10965232Y-8931026D01*
X10965232Y-8891026D02*
X10925232Y-8931026D01*
X10936564Y-9340926D02*
X10976564Y-9380926D01*
X10976564Y-9340926D02*
X10936564Y-9380926D01*
X10980564Y-6209099D02*
X11020564Y-6249099D01*
X11020564Y-6209099D02*
X10980564Y-6249099D01*
X11007116Y-7976576D02*
X11047116Y-8016576D01*
X11047116Y-7976576D02*
X11007116Y-8016576D01*
X11118064Y-5042599D02*
X11158064Y-5082599D01*
X11158064Y-5042599D02*
X11118064Y-5082599D01*
X11148116Y-7747576D02*
X11188116Y-7787576D01*
X11188116Y-7747576D02*
X11148116Y-7787576D01*
X11151116Y-7890576D02*
X11191116Y-7930576D01*
X11191116Y-7890576D02*
X11151116Y-7930576D01*
X11209272Y-9120391D02*
X11249272Y-9160391D01*
X11249272Y-9120391D02*
X11209272Y-9160391D01*
X11235564Y-8907099D02*
X11275564Y-8947099D01*
X11275564Y-8907099D02*
X11235564Y-8947099D01*
X11241564Y-10721099D02*
X11281564Y-10761099D01*
X11281564Y-10721099D02*
X11241564Y-10761099D01*
X11249564Y-9692099D02*
X11289564Y-9732099D01*
X11289564Y-9692099D02*
X11249564Y-9732099D01*
X11258009Y-9792099D02*
X11298009Y-9832099D01*
X11298009Y-9792099D02*
X11258009Y-9832099D01*
X11273116Y-9288576D02*
X11313116Y-9328576D01*
X11313116Y-9288576D02*
X11273116Y-9328576D01*
X11332564Y-6247099D02*
X11372564Y-6287099D01*
X11372564Y-6247099D02*
X11332564Y-6287099D01*
X11356116Y-8090576D02*
X11396116Y-8130576D01*
X11396116Y-8090576D02*
X11356116Y-8130576D01*
X11385959Y-10608576D02*
X11425959Y-10648576D01*
X11425959Y-10608576D02*
X11385959Y-10648576D01*
X11394916Y-9203576D02*
X11434916Y-9243576D01*
X11434916Y-9203576D02*
X11394916Y-9243576D01*
X11417066Y-8331049D02*
X11457066Y-8371049D01*
X11457066Y-8331049D02*
X11417066Y-8371049D01*
X11499564Y-4597099D02*
X11539564Y-4637099D01*
X11539564Y-4597099D02*
X11499564Y-4637099D01*
X11506116Y-7734576D02*
X11546116Y-7774576D01*
X11546116Y-7734576D02*
X11506116Y-7774576D01*
X11555564Y-7056099D02*
X11595564Y-7096099D01*
X11595564Y-7056099D02*
X11555564Y-7096099D01*
X11610752Y-8404454D02*
X11650752Y-8444454D01*
X11650752Y-8404454D02*
X11610752Y-8444454D01*
X11638064Y-5333599D02*
X11678064Y-5373599D01*
X11678064Y-5333599D02*
X11638064Y-5373599D01*
X11656074Y-10329609D02*
X11696074Y-10369609D01*
X11696074Y-10329609D02*
X11656074Y-10369609D01*
X11689116Y-8122576D02*
X11729116Y-8162576D01*
X11729116Y-8122576D02*
X11689116Y-8162576D01*
X11690079Y-8342580D02*
X11730079Y-8382580D01*
X11730079Y-8342580D02*
X11690079Y-8382580D01*
X11719966Y-7760849D02*
X11759966Y-7800849D01*
X11759966Y-7760849D02*
X11719966Y-7800849D01*
X11753116Y-9040576D02*
X11793116Y-9080576D01*
X11793116Y-9040576D02*
X11753116Y-9080576D01*
X11754119Y-8933578D02*
X11794119Y-8973578D01*
X11794119Y-8933578D02*
X11754119Y-8973578D01*
X11758634Y-8823067D02*
X11798634Y-8863067D01*
X11798634Y-8823067D02*
X11758634Y-8863067D01*
X11788116Y-8717626D02*
X11828116Y-8757626D01*
X11828116Y-8717626D02*
X11788116Y-8757626D01*
X11827564Y-10383999D02*
X11867564Y-10423999D01*
X11867564Y-10383999D02*
X11827564Y-10423999D01*
X11908564Y-8230099D02*
X11948564Y-8270099D01*
X11948564Y-8230099D02*
X11908564Y-8270099D01*
X11957564Y-4942099D02*
X11997564Y-4982099D01*
X11997564Y-4942099D02*
X11957564Y-4982099D01*
X11986564Y-9213099D02*
X12026564Y-9253099D01*
X12026564Y-9213099D02*
X11986564Y-9253099D01*
X12093564Y-6458099D02*
X12133564Y-6498099D01*
X12133564Y-6458099D02*
X12093564Y-6498099D01*
X12157564Y-9288049D02*
X12197564Y-9328049D01*
X12197564Y-9288049D02*
X12157564Y-9328049D01*
X12161116Y-7730576D02*
X12201116Y-7770576D01*
X12201116Y-7730576D02*
X12161116Y-7770576D01*
X12200116Y-8113576D02*
X12240116Y-8153576D01*
X12240116Y-8113576D02*
X12200116Y-8153576D01*
X12218564Y-12159099D02*
X12258564Y-12199099D01*
X12258564Y-12159099D02*
X12218564Y-12199099D01*
X12280116Y-7749576D02*
X12320116Y-7789576D01*
X12320116Y-7749576D02*
X12280116Y-7789576D01*
X12327959Y-10327576D02*
X12367959Y-10367576D01*
X12367959Y-10327576D02*
X12327959Y-10367576D01*
X12343116Y-8166576D02*
X12383116Y-8206576D01*
X12383116Y-8166576D02*
X12343116Y-8206576D01*
X12388564Y-10240099D02*
X12428564Y-10280099D01*
X12428564Y-10240099D02*
X12388564Y-10280099D01*
X12426564Y-10452099D02*
X12466564Y-10492099D01*
X12466564Y-10452099D02*
X12426564Y-10492099D01*
X12532871Y-9536501D02*
X12572871Y-9576501D01*
X12572871Y-9536501D02*
X12532871Y-9576501D01*
X12535116Y-9436576D02*
X12575116Y-9476576D01*
X12575116Y-9436576D02*
X12535116Y-9476576D01*
X12679564Y-6441099D02*
X12719564Y-6481099D01*
X12719564Y-6441099D02*
X12679564Y-6481099D01*
X12732116Y-7964576D02*
X12772116Y-8004576D01*
X12772116Y-7964576D02*
X12732116Y-8004576D01*
X12758116Y-8113576D02*
X12798116Y-8153576D01*
X12798116Y-8113576D02*
X12758116Y-8153576D01*
X12783466Y-8541026D02*
X12823466Y-8581026D01*
X12823466Y-8541026D02*
X12783466Y-8581026D01*
X12863564Y-10242099D02*
X12903564Y-10282099D01*
X12903564Y-10242099D02*
X12863564Y-10282099D01*
X12912023Y-8441081D02*
X12952023Y-8481081D01*
X12952023Y-8441081D02*
X12912023Y-8481081D01*
X12925825Y-8541026D02*
X12965825Y-8581026D01*
X12965825Y-8541026D02*
X12925825Y-8581026D01*
X12948166Y-8347719D02*
X12988166Y-8387719D01*
X12988166Y-8347719D02*
X12948166Y-8387719D01*
X12960959Y-10310576D02*
X13000959Y-10350576D01*
X13000959Y-10310576D02*
X12960959Y-10350576D01*
X13052146Y-10351502D02*
X13092146Y-10391502D01*
X13092146Y-10351502D02*
X13052146Y-10391502D01*
X13176934Y-9683576D02*
X13216934Y-9723576D01*
X13216934Y-9683576D02*
X13176934Y-9723576D01*
X13258564Y-5015099D02*
X13298564Y-5055099D01*
X13298564Y-5015099D02*
X13258564Y-5055099D01*
X13262564Y-5457099D02*
X13302564Y-5497099D01*
X13302564Y-5457099D02*
X13262564Y-5497099D01*
X13265380Y-9550835D02*
X13305380Y-9590835D01*
X13305380Y-9550835D02*
X13265380Y-9590835D01*
X13403959Y-10028201D02*
X13443959Y-10068201D01*
X13443959Y-10028201D02*
X13403959Y-10068201D01*
X13438909Y-7187597D02*
X13478909Y-7227597D01*
X13478909Y-7187597D02*
X13438909Y-7227597D01*
X13456956Y-8245573D02*
X13496956Y-8285573D01*
X13496956Y-8245573D02*
X13456956Y-8285573D01*
X13457381Y-7926983D02*
X13497381Y-7966983D01*
X13497381Y-7926983D02*
X13457381Y-7966983D01*
X13460589Y-9355626D02*
X13500589Y-9395626D01*
X13500589Y-9355626D02*
X13460589Y-9395626D01*
X13471564Y-9947576D02*
X13511564Y-9987576D01*
X13511564Y-9947576D02*
X13471564Y-9987576D01*
X13488909Y-7323531D02*
X13528909Y-7363531D01*
X13528909Y-7323531D02*
X13488909Y-7363531D01*
X13494982Y-9261779D02*
X13534982Y-9301779D01*
X13534982Y-9261779D02*
X13494982Y-9301779D01*
X13528561Y-7231783D02*
X13568561Y-7271783D01*
X13568561Y-7231783D02*
X13528561Y-7271783D01*
X13617959Y-8202576D02*
X13657959Y-8242576D01*
X13657959Y-8202576D02*
X13617959Y-8242576D01*
X13618884Y-8355501D02*
X13658884Y-8395501D01*
X13658884Y-8355501D02*
X13618884Y-8395501D01*
X13629394Y-7230672D02*
X13669394Y-7270672D01*
X13669394Y-7230672D02*
X13629394Y-7270672D01*
X13647646Y-7719149D02*
X13687646Y-7759149D01*
X13687646Y-7719149D02*
X13647646Y-7759149D01*
X13649031Y-9300626D02*
X13689031Y-9340626D01*
X13689031Y-9300626D02*
X13649031Y-9340626D01*
X13664959Y-8040576D02*
X13704959Y-8080576D01*
X13704959Y-8040576D02*
X13664959Y-8080576D01*
X13668909Y-8753499D02*
X13708909Y-8793499D01*
X13708909Y-8753499D02*
X13668909Y-8793499D01*
X13689542Y-9672997D02*
X13729542Y-9712997D01*
X13729542Y-9672997D02*
X13689542Y-9712997D01*
X13692380Y-8493997D02*
X13732380Y-8533997D01*
X13732380Y-8493997D02*
X13692380Y-8533997D01*
X13706959Y-9574576D02*
X13746959Y-9614576D01*
X13746959Y-9574576D02*
X13706959Y-9614576D01*
X13724959Y-9235626D02*
X13764959Y-9275626D01*
X13764959Y-9235626D02*
X13724959Y-9275626D01*
X13729959Y-9131576D02*
X13769959Y-9171576D01*
X13769959Y-9131576D02*
X13729959Y-9171576D01*
X13830564Y-4552099D02*
X13870564Y-4592099D01*
X13870564Y-4552099D02*
X13830564Y-4592099D01*
X13907316Y-9479076D02*
X13947316Y-9519076D01*
X13947316Y-9479076D02*
X13907316Y-9519076D01*
X13987275Y-8701626D02*
X14027275Y-8741626D01*
X14027275Y-8701626D02*
X13987275Y-8741626D01*
X13994901Y-7452444D02*
X14034901Y-7492444D01*
X14034901Y-7452444D02*
X13994901Y-7492444D01*
X14014959Y-8325576D02*
X14054959Y-8365576D01*
X14054959Y-8325576D02*
X14014959Y-8365576D01*
X14020959Y-8428576D02*
X14060959Y-8468576D01*
X14060959Y-8428576D02*
X14020959Y-8468576D01*
X14049033Y-8524502D02*
X14089033Y-8564502D01*
X14089033Y-8524502D02*
X14049033Y-8564502D01*
X14053959Y-7866576D02*
X14093959Y-7906576D01*
X14093959Y-7866576D02*
X14053959Y-7906576D01*
X14084894Y-7574511D02*
X14124894Y-7614511D01*
X14124894Y-7574511D02*
X14084894Y-7614511D01*
X14090635Y-9569314D02*
X14130635Y-9609314D01*
X14130635Y-9569314D02*
X14090635Y-9609314D01*
X14134529Y-8772146D02*
X14174529Y-8812146D01*
X14174529Y-8772146D02*
X14134529Y-8812146D01*
X14164959Y-8668576D02*
X14204959Y-8708576D01*
X14204959Y-8668576D02*
X14164959Y-8708576D01*
X14201959Y-8306576D02*
X14241959Y-8346576D01*
X14241959Y-8306576D02*
X14201959Y-8346576D01*
X14225564Y-8977099D02*
X14265564Y-9017099D01*
X14265564Y-8977099D02*
X14225564Y-9017099D01*
X14240959Y-9507576D02*
X14280959Y-9547576D01*
X14280959Y-9507576D02*
X14240959Y-9547576D01*
X14279959Y-7891576D02*
X14319959Y-7931576D01*
X14319959Y-7891576D02*
X14279959Y-7931576D01*
X14289959Y-7367576D02*
X14329959Y-7407576D01*
X14329959Y-7367576D02*
X14289959Y-7407576D01*
X14332564Y-5032099D02*
X14372564Y-5072099D01*
X14372564Y-5032099D02*
X14332564Y-5072099D01*
X14346564Y-9601099D02*
X14386564Y-9641099D01*
X14386564Y-9601099D02*
X14346564Y-9641099D01*
X14390990Y-9770526D02*
X14430990Y-9810526D01*
X14430990Y-9770526D02*
X14390990Y-9810526D01*
X14422009Y-7911576D02*
X14462009Y-7951576D01*
X14462009Y-7911576D02*
X14422009Y-7951576D01*
X14481959Y-7659576D02*
X14521959Y-7699576D01*
X14521959Y-7659576D02*
X14481959Y-7699576D01*
X14481959Y-9396576D02*
X14521959Y-9436576D01*
X14521959Y-9396576D02*
X14481959Y-9436576D01*
X14493564Y-9163099D02*
X14533564Y-9203099D01*
X14533564Y-9163099D02*
X14493564Y-9203099D01*
X14498564Y-8531099D02*
X14538564Y-8571099D01*
X14538564Y-8531099D02*
X14498564Y-8571099D01*
X14516564Y-5097099D02*
X14556564Y-5137099D01*
X14556564Y-5097099D02*
X14516564Y-5137099D01*
X14558061Y-8995597D02*
X14598061Y-9035597D01*
X14598061Y-8995597D02*
X14558061Y-9035597D01*
X14570061Y-9250601D02*
X14610061Y-9290601D01*
X14610061Y-9250601D02*
X14570061Y-9290601D01*
X14572564Y-7989099D02*
X14612564Y-8029099D01*
X14612564Y-7989099D02*
X14572564Y-8029099D01*
X14579564Y-7788099D02*
X14619564Y-7828099D01*
X14619564Y-7788099D02*
X14579564Y-7828099D01*
X14593564Y-10475099D02*
X14633564Y-10515099D01*
X14633564Y-10475099D02*
X14593564Y-10515099D01*
X14605564Y-8290099D02*
X14645564Y-8330099D01*
X14645564Y-8290099D02*
X14605564Y-8330099D01*
X14967564Y-10480099D02*
X15007564Y-10520099D01*
X15007564Y-10480099D02*
X14967564Y-10520099D01*
X15252564Y-10232099D02*
X15292564Y-10272099D01*
X15292564Y-10232099D02*
X15252564Y-10272099D01*
X15376564Y-10371099D02*
X15416564Y-10411099D01*
X15416564Y-10371099D02*
X15376564Y-10411099D01*
X15550564Y-5031099D02*
X15590564Y-5071099D01*
X15590564Y-5031099D02*
X15550564Y-5071099D01*
X15551564Y-5346049D02*
X15591564Y-5386049D01*
X15591564Y-5346049D02*
X15551564Y-5386049D01*
X15751564Y-7508499D02*
X15791564Y-7548499D01*
X15791564Y-7508499D02*
X15751564Y-7548499D01*
X15752113Y-8347349D02*
X15792113Y-8387349D01*
X15792113Y-8347349D02*
X15752113Y-8387349D01*
X15754568Y-9188854D02*
X15794568Y-9228854D01*
X15794568Y-9188854D02*
X15754568Y-9228854D01*
X15764064Y-4977099D02*
X15804064Y-5017099D01*
X15804064Y-4977099D02*
X15764064Y-5017099D01*
X15765359Y-10054749D02*
X15805359Y-10094749D01*
X15805359Y-10054749D02*
X15765359Y-10094749D01*
X15771564Y-9342099D02*
X15811564Y-9382099D01*
X15811564Y-9342099D02*
X15771564Y-9382099D01*
X15777564Y-8507099D02*
X15817564Y-8547099D01*
X15817564Y-8507099D02*
X15777564Y-8547099D01*
X15780564Y-7671099D02*
X15820564Y-7711099D01*
X15820564Y-7671099D02*
X15780564Y-7711099D01*
X15788359Y-10211299D02*
X15828359Y-10251299D01*
X15828359Y-10211299D02*
X15788359Y-10251299D01*
X15853564Y-7267099D02*
X15893564Y-7307099D01*
X15893564Y-7267099D02*
X15853564Y-7307099D01*
X15899564Y-8967099D02*
X15939564Y-9007099D01*
X15939564Y-8967099D02*
X15899564Y-9007099D01*
X15946064Y-4619099D02*
X15986064Y-4659099D01*
X15986064Y-4619099D02*
X15946064Y-4659099D01*
X16007564Y-8126099D02*
X16047564Y-8166099D01*
X16047564Y-8126099D02*
X16007564Y-8166099D01*
X16056064Y-4334099D02*
X16096064Y-4374099D01*
X16096064Y-4334099D02*
X16056064Y-4374099D01*
X16103064Y-4229099D02*
X16143064Y-4269099D01*
X16143064Y-4229099D02*
X16103064Y-4269099D01*
X16152310Y-10207464D02*
X16192310Y-10247464D01*
X16192310Y-10207464D02*
X16152310Y-10247464D01*
X16167564Y-8518099D02*
X16207564Y-8558099D01*
X16207564Y-8518099D02*
X16167564Y-8558099D01*
X16170564Y-7688099D02*
X16210564Y-7728099D01*
X16210564Y-7688099D02*
X16170564Y-7728099D01*
X16175564Y-12643099D02*
X16215564Y-12683099D01*
X16215564Y-12643099D02*
X16175564Y-12683099D01*
X16176564Y-8214099D02*
X16216564Y-8254099D01*
X16216564Y-8214099D02*
X16176564Y-8254099D01*
X16181564Y-7404099D02*
X16221564Y-7444099D01*
X16221564Y-7404099D02*
X16181564Y-7444099D01*
X16181564Y-9349099D02*
X16221564Y-9389099D01*
X16221564Y-9349099D02*
X16181564Y-9389099D01*
X16184859Y-9890099D02*
X16224859Y-9930099D01*
X16224859Y-9890099D02*
X16184859Y-9930099D01*
X16185564Y-9066099D02*
X16225564Y-9106099D01*
X16225564Y-9066099D02*
X16185564Y-9106099D01*
X16225571Y-10139472D02*
X16265571Y-10179472D01*
X16265571Y-10139472D02*
X16225571Y-10179472D01*
X16288564Y-8465099D02*
X16328564Y-8505099D01*
X16328564Y-8465099D02*
X16288564Y-8505099D01*
X16289564Y-7635099D02*
X16329564Y-7675099D01*
X16329564Y-7635099D02*
X16289564Y-7675099D01*
X16292564Y-9318099D02*
X16332564Y-9358099D01*
X16332564Y-9318099D02*
X16292564Y-9358099D01*
X16295859Y-9815099D02*
X16335859Y-9855099D01*
X16335859Y-9815099D02*
X16295859Y-9855099D01*
X16584359Y-7898649D02*
X16624359Y-7938649D01*
X16624359Y-7898649D02*
X16584359Y-7938649D01*
X16584359Y-8013649D02*
X16624359Y-8053649D01*
X16624359Y-8013649D02*
X16584359Y-8053649D01*
X16584359Y-8737499D02*
X16624359Y-8777499D01*
X16624359Y-8737499D02*
X16584359Y-8777499D01*
X16584359Y-8852499D02*
X16624359Y-8892499D01*
X16624359Y-8852499D02*
X16584359Y-8892499D01*
X16584359Y-9578649D02*
X16624359Y-9618649D01*
X16624359Y-9578649D02*
X16584359Y-9618649D01*
X16584359Y-9693649D02*
X16624359Y-9733649D01*
X16624359Y-9693649D02*
X16584359Y-9733649D01*
X16584359Y-10422099D02*
X16624359Y-10462099D01*
X16624359Y-10422099D02*
X16584359Y-10462099D01*
X16584359Y-10537099D02*
X16624359Y-10577099D01*
X16624359Y-10537099D02*
X16584359Y-10577099D01*
X16646564Y-8131099D02*
X16686564Y-8171099D01*
X16686564Y-8131099D02*
X16646564Y-8171099D01*
X16652564Y-9843099D02*
X16692564Y-9883099D01*
X16692564Y-9843099D02*
X16652564Y-9883099D01*
X16669564Y-8971099D02*
X16709564Y-9011099D01*
X16709564Y-8971099D02*
X16669564Y-9011099D01*
X16686564Y-7269099D02*
X16726564Y-7309099D01*
X16726564Y-7269099D02*
X16686564Y-7309099D01*
X16711359Y-7898649D02*
X16751359Y-7938649D01*
X16751359Y-7898649D02*
X16711359Y-7938649D01*
X16711359Y-8013649D02*
X16751359Y-8053649D01*
X16751359Y-8013649D02*
X16711359Y-8053649D01*
X16711359Y-8737499D02*
X16751359Y-8777499D01*
X16751359Y-8737499D02*
X16711359Y-8777499D01*
X16711359Y-8852499D02*
X16751359Y-8892499D01*
X16751359Y-8852499D02*
X16711359Y-8892499D01*
X16711359Y-9578649D02*
X16751359Y-9618649D01*
X16751359Y-9578649D02*
X16711359Y-9618649D01*
X16711359Y-9693649D02*
X16751359Y-9733649D01*
X16751359Y-9693649D02*
X16711359Y-9733649D01*
X16711359Y-10422099D02*
X16751359Y-10462099D01*
X16751359Y-10422099D02*
X16711359Y-10462099D01*
X16711359Y-10537099D02*
X16751359Y-10577099D01*
X16751359Y-10537099D02*
X16711359Y-10577099D01*
X16784156Y-5644049D02*
X16824156Y-5684049D01*
X16824156Y-5644049D02*
X16784156Y-5684049D01*
X16874000Y-7481000D02*
X16914000Y-7521000D01*
X16914000Y-7481000D02*
X16874000Y-7521000D01*
X16879021Y-5594049D02*
X16919021Y-5634049D01*
X16919021Y-5594049D02*
X16879021Y-5634049D01*
X16881000Y-8348000D02*
X16921000Y-8388000D01*
X16921000Y-8348000D02*
X16881000Y-8388000D01*
X16882000Y-9148000D02*
X16922000Y-9188000D01*
X16922000Y-9148000D02*
X16882000Y-9188000D01*
X16888000Y-10254000D02*
X16928000Y-10294000D01*
X16928000Y-10254000D02*
X16888000Y-10294000D01*
X16975564Y-5544049D02*
X17015564Y-5584049D01*
X17015564Y-5544049D02*
X16975564Y-5584049D01*
X17102662Y-5699723D02*
X17142662Y-5739723D01*
X17142662Y-5699723D02*
X17102662Y-5739723D01*
X17203603Y-5743999D02*
X17243603Y-5783999D01*
X17243603Y-5743999D02*
X17203603Y-5783999D01*
X17266042Y-5822047D02*
X17306042Y-5862047D01*
X17306042Y-5822047D02*
X17266042Y-5862047D01*
X17296510Y-5971997D02*
X17336510Y-6011997D01*
X17336510Y-5971997D02*
X17296510Y-6011997D01*
X17319064Y-4943099D02*
X17359064Y-4983099D01*
X17359064Y-4943099D02*
X17319064Y-4983099D01*
X17349564Y-5885049D02*
X17389564Y-5925049D01*
X17389564Y-5885049D02*
X17349564Y-5925049D01*
X17416564Y-12623099D02*
X17456564Y-12663099D01*
X17456564Y-12623099D02*
X17416564Y-12663099D01*
X17846064Y-4649099D02*
X17886064Y-4689099D01*
X17886064Y-4649099D02*
X17846064Y-4689099D01*
X18032061Y-5744099D02*
X18072061Y-5784099D01*
X18072061Y-5744099D02*
X18032061Y-5784099D01*
X18093224Y-5573002D02*
X18133224Y-5613001D01*
X18133224Y-5573002D02*
X18093224Y-5613001D01*
X18182677Y-5528412D02*
X18222677Y-5568412D01*
X18222677Y-5528412D02*
X18182677Y-5568412D01*
X18259564Y-5394099D02*
X18299564Y-5434099D01*
X18299564Y-5394099D02*
X18259564Y-5434099D01*
X18271564Y-5847149D02*
X18311564Y-5887149D01*
X18311564Y-5847149D02*
X18271564Y-5887149D01*
X18309564Y-4788099D02*
X18349564Y-4828099D01*
X18349564Y-4788099D02*
X18309564Y-4828099D01*
X18348564Y-5931149D02*
X18388564Y-5971149D01*
X18388564Y-5931149D02*
X18348564Y-5971149D01*
X18351564Y-5751099D02*
X18391564Y-5791099D01*
X18391564Y-5751099D02*
X18351564Y-5791099D01*
X18446564Y-5231099D02*
X18486564Y-5271099D01*
X18486564Y-5231099D02*
X18446564Y-5271099D01*
X18456564Y-12631099D02*
X18496564Y-12671099D01*
X18496564Y-12631099D02*
X18456564Y-12671099D01*
X18638614Y-5494049D02*
X18678614Y-5534049D01*
X18678614Y-5494049D02*
X18638614Y-5534049D01*
X18646564Y-5194149D02*
X18686564Y-5234149D01*
X18686564Y-5194149D02*
X18646564Y-5234149D01*
X18760564Y-5494049D02*
X18800564Y-5534049D01*
X18800564Y-5494049D02*
X18760564Y-5534049D01*
X18849564Y-5180099D02*
X18889564Y-5220099D01*
X18889564Y-5180099D02*
X18849564Y-5220099D01*
X18967564Y-7616099D02*
X19007564Y-7656099D01*
X19007564Y-7616099D02*
X18967564Y-7656099D01*
X18968269Y-7500849D02*
X19008269Y-7540849D01*
X19008269Y-7500849D02*
X18968269Y-7540849D01*
X18987564Y-8448099D02*
X19027564Y-8488099D01*
X19027564Y-8448099D02*
X18987564Y-8488099D01*
X18988269Y-8332849D02*
X19028269Y-8372849D01*
X19028269Y-8332849D02*
X18988269Y-8372849D01*
X18992564Y-9294099D02*
X19032564Y-9334099D01*
X19032564Y-9294099D02*
X18992564Y-9334099D01*
X18993269Y-9178849D02*
X19033269Y-9218849D01*
X19033269Y-9178849D02*
X18993269Y-9218849D01*
X18993859Y-10129349D02*
X19033859Y-10169349D01*
X19033859Y-10129349D02*
X18993859Y-10169349D01*
X18994564Y-10014099D02*
X19034564Y-10054099D01*
X19034564Y-10014099D02*
X18994564Y-10054099D01*
X19002964Y-8217499D02*
X19042964Y-8257499D01*
X19042964Y-8217499D02*
X19002964Y-8257499D01*
X19028364Y-9055699D02*
X19068364Y-9095699D01*
X19068364Y-9055699D02*
X19028364Y-9095699D01*
X19049564Y-5176099D02*
X19089564Y-5216099D01*
X19089564Y-5176099D02*
X19049564Y-5216099D01*
X19053764Y-9893899D02*
X19093764Y-9933899D01*
X19093764Y-9893899D02*
X19053764Y-9933899D01*
X19053764Y-10757499D02*
X19093764Y-10797499D01*
X19093764Y-10757499D02*
X19053764Y-10797499D01*
X19069564Y-5744049D02*
X19109564Y-5784049D01*
X19109564Y-5744049D02*
X19069564Y-5784049D01*
X19095564Y-7617099D02*
X19135564Y-7657099D01*
X19135564Y-7617099D02*
X19095564Y-7657099D01*
X19096269Y-7501849D02*
X19136269Y-7541849D01*
X19136269Y-7501849D02*
X19096269Y-7541849D01*
X19115564Y-8448099D02*
X19155564Y-8488099D01*
X19155564Y-8448099D02*
X19115564Y-8488099D01*
X19116269Y-8332849D02*
X19156269Y-8372849D01*
X19156269Y-8332849D02*
X19116269Y-8372849D01*
X19120859Y-10014099D02*
X19160859Y-10054099D01*
X19160859Y-10014099D02*
X19120859Y-10054099D01*
X19120859Y-10129349D02*
X19160859Y-10169349D01*
X19160859Y-10129349D02*
X19120859Y-10169349D01*
X19121564Y-9294099D02*
X19161564Y-9334099D01*
X19161564Y-9294099D02*
X19121564Y-9334099D01*
X19122269Y-9178849D02*
X19162269Y-9218849D01*
X19162269Y-9178849D02*
X19122269Y-9218849D01*
X19291564Y-11929099D02*
X19331564Y-11969099D01*
X19331564Y-11929099D02*
X19291564Y-11969099D01*
X19298564Y-6044049D02*
X19338564Y-6084049D01*
X19338564Y-6044049D02*
X19298564Y-6084049D01*
X19325564Y-11223099D02*
X19365564Y-11263099D01*
X19365564Y-11223099D02*
X19325564Y-11263099D01*
X19358564Y-10732099D02*
X19398564Y-10772099D01*
X19398564Y-10732099D02*
X19358564Y-10772099D01*
X19383964Y-7887299D02*
X19423964Y-7927299D01*
X19423964Y-7887299D02*
X19383964Y-7927299D01*
X19409364Y-8725499D02*
X19449364Y-8765499D01*
X19449364Y-8725499D02*
X19409364Y-8765499D01*
X19409364Y-9563699D02*
X19449364Y-9603699D01*
X19449364Y-9563699D02*
X19409364Y-9603699D01*
X19409364Y-10401899D02*
X19449364Y-10441899D01*
X19449364Y-10401899D02*
X19409364Y-10441899D01*
X19485564Y-7836499D02*
X19525564Y-7876499D01*
X19525564Y-7836499D02*
X19485564Y-7876499D01*
X19485564Y-8142549D02*
X19525564Y-8182549D01*
X19525564Y-8142549D02*
X19485564Y-8182549D01*
X19510964Y-8674699D02*
X19550964Y-8714699D01*
X19550964Y-8674699D02*
X19510964Y-8714699D01*
X19510964Y-8980749D02*
X19550964Y-9020749D01*
X19550964Y-8980749D02*
X19510964Y-9020749D01*
X19510964Y-9512899D02*
X19550964Y-9552899D01*
X19550964Y-9512899D02*
X19510964Y-9552899D01*
X19510964Y-9818949D02*
X19550964Y-9858949D01*
X19550964Y-9818949D02*
X19510964Y-9858949D01*
X19510964Y-10351099D02*
X19550964Y-10391099D01*
X19550964Y-10351099D02*
X19510964Y-10391099D01*
X19510964Y-10657149D02*
X19550964Y-10697149D01*
X19550964Y-10657149D02*
X19510964Y-10697149D01*
X19841164Y-8217499D02*
X19881164Y-8257499D01*
X19881164Y-8217499D02*
X19841164Y-8257499D01*
X19866564Y-9055699D02*
X19906564Y-9095699D01*
X19906564Y-9055699D02*
X19866564Y-9095699D01*
X19866564Y-9893899D02*
X19906564Y-9933899D01*
X19906564Y-9893899D02*
X19866564Y-9933899D01*
X19919564Y-8675949D02*
X19959564Y-8715949D01*
X19959564Y-8675949D02*
X19919564Y-8715949D01*
X19921564Y-9514099D02*
X19961564Y-9554099D01*
X19961564Y-9514099D02*
X19921564Y-9554099D01*
X19932441Y-7812349D02*
X19972441Y-7852349D01*
X19972441Y-7812349D02*
X19932441Y-7852349D01*
X19935054Y-7979399D02*
X19975054Y-8019399D01*
X19975054Y-7979399D02*
X19935054Y-8019399D01*
X19936514Y-8825849D02*
X19976514Y-8865849D01*
X19976514Y-8825849D02*
X19936514Y-8865849D01*
X19942764Y-9664942D02*
X19982764Y-9704942D01*
X19982764Y-9664942D02*
X19942764Y-9704942D01*
X19942764Y-10503499D02*
X19982764Y-10543499D01*
X19982764Y-10503499D02*
X19942764Y-10543499D01*
X19945564Y-10352099D02*
X19985564Y-10392099D01*
X19985564Y-10352099D02*
X19945564Y-10392099D01*
X20476164Y-9741499D02*
X20516164Y-9781499D01*
X20516164Y-9741499D02*
X20476164Y-9781499D01*
X20476164Y-9893899D02*
X20516164Y-9933899D01*
X20516164Y-9893899D02*
X20476164Y-9933899D01*
X20546157Y-8173478D02*
X20586157Y-8213478D01*
X20586157Y-8173478D02*
X20546157Y-8213478D01*
X20547898Y-7963499D02*
X20587898Y-8003499D01*
X20587898Y-7963499D02*
X20547898Y-8003499D01*
X20552364Y-8065099D02*
X20592364Y-8105099D01*
X20592364Y-8065099D02*
X20552364Y-8105099D01*
X20552364Y-10071699D02*
X20592364Y-10111699D01*
X20592364Y-10071699D02*
X20552364Y-10111699D01*
X20577764Y-8268299D02*
X20617764Y-8308299D01*
X20617764Y-8268299D02*
X20577764Y-8308299D01*
X20577764Y-8496899D02*
X20617764Y-8536899D01*
X20617764Y-8496899D02*
X20577764Y-8536899D01*
X20577764Y-8852499D02*
X20617764Y-8892499D01*
X20617764Y-8852499D02*
X20577764Y-8892499D01*
X20577764Y-8979499D02*
X20617764Y-9019499D01*
X20617764Y-8979499D02*
X20577764Y-9019499D01*
X20603064Y-10219599D02*
X20643064Y-10259599D01*
X20643064Y-10219599D02*
X20603064Y-10259599D01*
X20627314Y-9869099D02*
X20667314Y-9909099D01*
X20667314Y-9869099D02*
X20627314Y-9909099D01*
X20630761Y-9692897D02*
X20670761Y-9732897D01*
X20670761Y-9692897D02*
X20630761Y-9732897D01*
X20653964Y-7963499D02*
X20693964Y-8003499D01*
X20693964Y-7963499D02*
X20653964Y-8003499D01*
X20788069Y-10146649D02*
X20828069Y-10186649D01*
X20828069Y-10146649D02*
X20788069Y-10186649D01*
X20863019Y-9970099D02*
X20903019Y-10010099D01*
X20903019Y-9970099D02*
X20863019Y-10010099D01*
X20867815Y-8281446D02*
X20907815Y-8321446D01*
X20907815Y-8281446D02*
X20867815Y-8321446D01*
X20907964Y-8776299D02*
X20947964Y-8816299D01*
X20947964Y-8776299D02*
X20907964Y-8816299D01*
X20907964Y-9081099D02*
X20947964Y-9121099D01*
X20947964Y-9081099D02*
X20907964Y-9121099D01*
X20907964Y-9309699D02*
X20947964Y-9349699D01*
X20947964Y-9309699D02*
X20907964Y-9349699D01*
X20909294Y-9754272D02*
X20949294Y-9794272D01*
X20949294Y-9754272D02*
X20909294Y-9794272D01*
X20938736Y-8065475D02*
X20978736Y-8105475D01*
X20978736Y-8065475D02*
X20938736Y-8105475D01*
X20958764Y-8674699D02*
X20998764Y-8714699D01*
X20998764Y-8674699D02*
X20958764Y-8714699D01*
X20968156Y-8563088D02*
X21008156Y-8603088D01*
X21008156Y-8563088D02*
X20968156Y-8603088D01*
X21009564Y-9716099D02*
X21049564Y-9756099D01*
X21049564Y-9716099D02*
X21009564Y-9756099D01*
X21038669Y-8063599D02*
X21078669Y-8103599D01*
X21078669Y-8063599D02*
X21038669Y-8103599D01*
X21049564Y-8505099D02*
X21089564Y-8545099D01*
X21089564Y-8505099D02*
X21049564Y-8545099D01*
X21085764Y-9233499D02*
X21125764Y-9273499D01*
X21125764Y-9233499D02*
X21085764Y-9273499D01*
X21258845Y-8445776D02*
X21298845Y-8485776D01*
X21298845Y-8445776D02*
X21258845Y-8485776D01*
X21263564Y-9919299D02*
X21303564Y-9959299D01*
X21303564Y-9919299D02*
X21263564Y-9959299D01*
X21332330Y-8214461D02*
X21372330Y-8254461D01*
X21372330Y-8214461D02*
X21332330Y-8254461D01*
X21365164Y-7963499D02*
X21405164Y-8003499D01*
X21405164Y-7963499D02*
X21365164Y-8003499D01*
X21365164Y-8319099D02*
X21405164Y-8359099D01*
X21405164Y-8319099D02*
X21365164Y-8359099D01*
X21366414Y-9411299D02*
X21406414Y-9451299D01*
X21406414Y-9411299D02*
X21366414Y-9451299D01*
X21441364Y-9233499D02*
X21481364Y-9273499D01*
X21481364Y-9233499D02*
X21441364Y-9273499D01*
X21466764Y-7938099D02*
X21506764Y-7978099D01*
X21506764Y-7938099D02*
X21466764Y-7978099D01*
X21466764Y-8649299D02*
X21506764Y-8689299D01*
X21506764Y-8649299D02*
X21466764Y-8689299D01*
X21466764Y-9006149D02*
X21506764Y-9046149D01*
X21506764Y-9006149D02*
X21466764Y-9046149D01*
X21517564Y-8039699D02*
X21557564Y-8079699D01*
X21557564Y-8039699D02*
X21517564Y-8079699D01*
X21541714Y-8369899D02*
X21581714Y-8409899D01*
X21581714Y-8369899D02*
X21541714Y-8409899D01*
X21593764Y-8166699D02*
X21633764Y-8206699D01*
X21633764Y-8166699D02*
X21593764Y-8206699D01*
X21669964Y-8395299D02*
X21709964Y-8435299D01*
X21709964Y-8395299D02*
X21669964Y-8435299D01*
X21722961Y-8499097D02*
X21762961Y-8539097D01*
X21762961Y-8499097D02*
X21722961Y-8539097D01*
X21796964Y-8674699D02*
X21836964Y-8714699D01*
X21836964Y-8674699D02*
X21796964Y-8714699D01*
X21875361Y-9032497D02*
X21915361Y-9072497D01*
X21915361Y-9032497D02*
X21875361Y-9072497D01*
X21877559Y-8806095D02*
X21917559Y-8846095D01*
X21917559Y-8806095D02*
X21877559Y-8846095D01*
X21890710Y-9347349D02*
X21930710Y-9387349D01*
X21930710Y-9347349D02*
X21890710Y-9387349D01*
X21898564Y-9614499D02*
X21938564Y-9654499D01*
X21938564Y-9614499D02*
X21898564Y-9654499D01*
X21900761Y-8676897D02*
X21940761Y-8716897D01*
X21940761Y-8676897D02*
X21900761Y-8716897D01*
X21991859Y-9021995D02*
X22031859Y-9061995D01*
X22031859Y-9021995D02*
X21991859Y-9061995D01*
X22144259Y-9199795D02*
X22184259Y-9239795D01*
X22184259Y-9199795D02*
X22144259Y-9239795D01*
D13*
X9745564Y-4592599D02*
G75*
G03*
X9745564Y-4592599I-40000J0D01*
G01*
X9745564Y-4792599D02*
G75*
G03*
X9745564Y-4792599I-40000J0D01*
G01*
X9745564Y-4992599D02*
G75*
G03*
X9745564Y-4992599I-40000J0D01*
G01*
X9945564Y-4592599D02*
G75*
G03*
X9945564Y-4592599I-40000J0D01*
G01*
X9945564Y-4792599D02*
G75*
G03*
X9945564Y-4792599I-40000J0D01*
G01*
X9945564Y-4992599D02*
G75*
G03*
X9945564Y-4992599I-40000J0D01*
G01*
D10*
X8408564Y-4297099D02*
X8408564Y-4397099D01*
X8358564Y-4347099D02*
X8458564Y-4347099D01*
X8408564Y-5821099D02*
X8408564Y-5921099D01*
X8358564Y-5871099D02*
X8458564Y-5871099D01*
X8662564Y-4297099D02*
X8662564Y-4397099D01*
X8612564Y-4347099D02*
X8712564Y-4347099D01*
X8662564Y-4551099D02*
X8662564Y-4651099D01*
X8612564Y-4601099D02*
X8712564Y-4601099D01*
X8662564Y-5821099D02*
X8662564Y-5921099D01*
X8612564Y-5871099D02*
X8712564Y-5871099D01*
X8916564Y-4297099D02*
X8916564Y-4397099D01*
X8866564Y-4347099D02*
X8966564Y-4347099D01*
X8916564Y-5821099D02*
X8916564Y-5921099D01*
X8866564Y-5871099D02*
X8966564Y-5871099D01*
X9043564Y-5517099D02*
X9043564Y-5617099D01*
X8993564Y-5567099D02*
X9093564Y-5567099D01*
X9170564Y-4297099D02*
X9170564Y-4397099D01*
X9120564Y-4347099D02*
X9220564Y-4347099D01*
X9170564Y-5821099D02*
X9170564Y-5921099D01*
X9120564Y-5871099D02*
X9220564Y-5871099D01*
X9297564Y-5517099D02*
X9297564Y-5617099D01*
X9247564Y-5567099D02*
X9347564Y-5567099D01*
X9424564Y-4297099D02*
X9424564Y-4397099D01*
X9374564Y-4347099D02*
X9474564Y-4347099D01*
X9424564Y-5821099D02*
X9424564Y-5921099D01*
X9374564Y-5871099D02*
X9474564Y-5871099D01*
X9551564Y-5517099D02*
X9551564Y-5617099D01*
X9501564Y-5567099D02*
X9601564Y-5567099D01*
X9678564Y-4297099D02*
X9678564Y-4397099D01*
X9628564Y-4347099D02*
X9728564Y-4347099D01*
X9678564Y-5821099D02*
X9678564Y-5921099D01*
X9628564Y-5871099D02*
X9728564Y-5871099D01*
X9805564Y-5517099D02*
X9805564Y-5617099D01*
X9755564Y-5567099D02*
X9855564Y-5567099D01*
X9932564Y-4297099D02*
X9932564Y-4397099D01*
X9882564Y-4347099D02*
X9982564Y-4347099D01*
X9932564Y-5821099D02*
X9932564Y-5921099D01*
X9882564Y-5871099D02*
X9982564Y-5871099D01*
X10059564Y-5517099D02*
X10059564Y-5617099D01*
X10009564Y-5567099D02*
X10109564Y-5567099D01*
X10186564Y-4297099D02*
X10186564Y-4397099D01*
X10136564Y-4347099D02*
X10236564Y-4347099D01*
X10186564Y-5821099D02*
X10186564Y-5921099D01*
X10136564Y-5871099D02*
X10236564Y-5871099D01*
X10440564Y-4297099D02*
X10440564Y-4397099D01*
X10390564Y-4347099D02*
X10490564Y-4347099D01*
X10440564Y-5821099D02*
X10440564Y-5921099D01*
X10390564Y-5871099D02*
X10490564Y-5871099D01*
X10694564Y-4297099D02*
X10694564Y-4397099D01*
X10644564Y-4347099D02*
X10744564Y-4347099D01*
X10694564Y-5821099D02*
X10694564Y-5921099D01*
X10644564Y-5871099D02*
X10744564Y-5871099D01*
X10948564Y-4297099D02*
X10948564Y-4397099D01*
X10898564Y-4347099D02*
X10998564Y-4347099D01*
X10948564Y-5821099D02*
X10948564Y-5921099D01*
X10898564Y-5871099D02*
X10998564Y-5871099D01*
X11202564Y-4297099D02*
X11202564Y-4397099D01*
X11152564Y-4347099D02*
X11252564Y-4347099D01*
X11202564Y-5821099D02*
X11202564Y-5921099D01*
X11152564Y-5871099D02*
X11252564Y-5871099D01*
X11456564Y-4297099D02*
X11456564Y-4397099D01*
X11406564Y-4347099D02*
X11506564Y-4347099D01*
X11456564Y-5821099D02*
X11456564Y-5921099D01*
X11406564Y-5871099D02*
X11506564Y-5871099D01*
X11710564Y-4297099D02*
X11710564Y-4397099D01*
X11660564Y-4347099D02*
X11760564Y-4347099D01*
X11710564Y-5821099D02*
X11710564Y-5921099D01*
X11660564Y-5871099D02*
X11760564Y-5871099D01*
X11964564Y-4297099D02*
X11964564Y-4397099D01*
X11914564Y-4347099D02*
X12014564Y-4347099D01*
X11964564Y-5821099D02*
X11964564Y-5921099D01*
X11914564Y-5871099D02*
X12014564Y-5871099D01*
X12218564Y-4297099D02*
X12218564Y-4397099D01*
X12168564Y-4347099D02*
X12268564Y-4347099D01*
X12218564Y-5821099D02*
X12218564Y-5921099D01*
X12168564Y-5871099D02*
X12268564Y-5871099D01*
X12472564Y-4297099D02*
X12472564Y-4397099D01*
X12422564Y-4347099D02*
X12522564Y-4347099D01*
X12472564Y-5821099D02*
X12472564Y-5921099D01*
X12422564Y-5871099D02*
X12522564Y-5871099D01*
X12726564Y-4297099D02*
X12726564Y-4397099D01*
X12676564Y-4347099D02*
X12776564Y-4347099D01*
X12726564Y-5821099D02*
X12726564Y-5921099D01*
X12676564Y-5871099D02*
X12776564Y-5871099D01*
X12980564Y-4297099D02*
X12980564Y-4397099D01*
X12930564Y-4347099D02*
X13030564Y-4347099D01*
X12980564Y-4551099D02*
X12980564Y-4651099D01*
X12930564Y-4601099D02*
X13030564Y-4601099D01*
X12980564Y-4805099D02*
X12980564Y-4905099D01*
X12930564Y-4855099D02*
X13030564Y-4855099D01*
X12980564Y-5059099D02*
X12980564Y-5159099D01*
X12930564Y-5109099D02*
X13030564Y-5109099D01*
X12980564Y-5313099D02*
X12980564Y-5413099D01*
X12930564Y-5363099D02*
X13030564Y-5363099D01*
X12980564Y-5567099D02*
X12980564Y-5667099D01*
X12930564Y-5617099D02*
X13030564Y-5617099D01*
X12980564Y-5821099D02*
X12980564Y-5921099D01*
X12930564Y-5871099D02*
X13030564Y-5871099D01*
X13234564Y-4297099D02*
X13234564Y-4397099D01*
X13184564Y-4347099D02*
X13284564Y-4347099D01*
X13234564Y-5821099D02*
X13234564Y-5921099D01*
X13184564Y-5871099D02*
X13284564Y-5871099D01*
X13488564Y-4297099D02*
X13488564Y-4397099D01*
X13438564Y-4347099D02*
X13538564Y-4347099D01*
X13488564Y-5821099D02*
X13488564Y-5921099D01*
X13438564Y-5871099D02*
X13538564Y-5871099D01*
X13742564Y-4297099D02*
X13742564Y-4397099D01*
X13692564Y-4347099D02*
X13792564Y-4347099D01*
X13742564Y-5821099D02*
X13742564Y-5921099D01*
X13692564Y-5871099D02*
X13792564Y-5871099D01*
X13996564Y-4297099D02*
X13996564Y-4397099D01*
X13946564Y-4347099D02*
X14046564Y-4347099D01*
X13996564Y-5821099D02*
X13996564Y-5921099D01*
X13946564Y-5871099D02*
X14046564Y-5871099D01*
X14250564Y-4297099D02*
X14250564Y-4397099D01*
X14200564Y-4347099D02*
X14300564Y-4347099D01*
X14250564Y-5821099D02*
X14250564Y-5921099D01*
X14200564Y-5871099D02*
X14300564Y-5871099D01*
D14*
X11262526Y-11196061D02*
X11262526Y-11104137D01*
X11170601Y-11104137D01*
X11170601Y-11196061D01*
X11262526Y-11196061D01*
X11262526Y-11996061D02*
X11262526Y-11904137D01*
X11170601Y-11904137D01*
X11170601Y-11996061D01*
X11262526Y-11996061D01*
X11412526Y-11446061D02*
X11412526Y-11354137D01*
X11320601Y-11354137D01*
X11320601Y-11446061D01*
X11412526Y-11446061D01*
X11412526Y-11746061D02*
X11412526Y-11654137D01*
X11320601Y-11654137D01*
X11320601Y-11746061D01*
X11412526Y-11746061D01*
X11562526Y-11196061D02*
X11562526Y-11104137D01*
X11470601Y-11104137D01*
X11470601Y-11196061D01*
X11562526Y-11196061D01*
X11562526Y-11996061D02*
X11562526Y-11904137D01*
X11470601Y-11904137D01*
X11470601Y-11996061D01*
X11562526Y-11996061D01*
X11712526Y-11446061D02*
X11712526Y-11354137D01*
X11620601Y-11354137D01*
X11620601Y-11446061D01*
X11712526Y-11446061D01*
X11712526Y-11746061D02*
X11712526Y-11654137D01*
X11620601Y-11654137D01*
X11620601Y-11746061D01*
X11712526Y-11746061D01*
X11862526Y-11196061D02*
X11862526Y-11104137D01*
X11770601Y-11104137D01*
X11770601Y-11196061D01*
X11862526Y-11196061D01*
X11862526Y-11996061D02*
X11862526Y-11904137D01*
X11770601Y-11904137D01*
X11770601Y-11996061D01*
X11862526Y-11996061D01*
X12012526Y-11446061D02*
X12012526Y-11354137D01*
X11920601Y-11354137D01*
X11920601Y-11446061D01*
X12012526Y-11446061D01*
X12012526Y-11746061D02*
X12012526Y-11654137D01*
X11920601Y-11654137D01*
X11920601Y-11746061D01*
X12012526Y-11746061D01*
X12162526Y-11196061D02*
X12162526Y-11104137D01*
X12070601Y-11104137D01*
X12070601Y-11196061D01*
X12162526Y-11196061D01*
X12162526Y-11996061D02*
X12162526Y-11904137D01*
X12070601Y-11904137D01*
X12070601Y-11996061D01*
X12162526Y-11996061D01*
X12312526Y-11446061D02*
X12312526Y-11354137D01*
X12220601Y-11354137D01*
X12220601Y-11446061D01*
X12312526Y-11446061D01*
X12312526Y-11746061D02*
X12312526Y-11654137D01*
X12220601Y-11654137D01*
X12220601Y-11746061D01*
X12312526Y-11746061D01*
X12462526Y-11196061D02*
X12462526Y-11104137D01*
X12370601Y-11104137D01*
X12370601Y-11196061D01*
X12462526Y-11196061D01*
X12462526Y-11996061D02*
X12462526Y-11904137D01*
X12370601Y-11904137D01*
X12370601Y-11996061D01*
X12462526Y-11996061D01*
X12612526Y-11446061D02*
X12612526Y-11354137D01*
X12520601Y-11354137D01*
X12520601Y-11446061D01*
X12612526Y-11446061D01*
X12612526Y-11746061D02*
X12612526Y-11654137D01*
X12520601Y-11654137D01*
X12520601Y-11746061D01*
X12612526Y-11746061D01*
X12762526Y-11196061D02*
X12762526Y-11104137D01*
X12670601Y-11104137D01*
X12670601Y-11196061D01*
X12762526Y-11196061D01*
X12762526Y-11996061D02*
X12762526Y-11904137D01*
X12670601Y-11904137D01*
X12670601Y-11996061D01*
X12762526Y-11996061D01*
X12912526Y-11446061D02*
X12912526Y-11354137D01*
X12820601Y-11354137D01*
X12820601Y-11446061D01*
X12912526Y-11446061D01*
X12912526Y-11746061D02*
X12912526Y-11654137D01*
X12820601Y-11654137D01*
X12820601Y-11746061D01*
X12912526Y-11746061D01*
X13062526Y-11196061D02*
X13062526Y-11104137D01*
X12970601Y-11104137D01*
X12970601Y-11196061D01*
X13062526Y-11196061D01*
X13062526Y-11996061D02*
X13062526Y-11904137D01*
X12970601Y-11904137D01*
X12970601Y-11996061D01*
X13062526Y-11996061D01*
X13212526Y-11446061D02*
X13212526Y-11354137D01*
X13120601Y-11354137D01*
X13120601Y-11446061D01*
X13212526Y-11446061D01*
X13212526Y-11746061D02*
X13212526Y-11654137D01*
X13120601Y-11654137D01*
X13120601Y-11746061D01*
X13212526Y-11746061D01*
X13362526Y-11196061D02*
X13362526Y-11104137D01*
X13270601Y-11104137D01*
X13270601Y-11196061D01*
X13362526Y-11196061D01*
X13362526Y-11996061D02*
X13362526Y-11904137D01*
X13270601Y-11904137D01*
X13270601Y-11996061D01*
X13362526Y-11996061D01*
X13512526Y-11446061D02*
X13512526Y-11354137D01*
X13420601Y-11354137D01*
X13420601Y-11446061D01*
X13512526Y-11446061D01*
X13512526Y-11746061D02*
X13512526Y-11654137D01*
X13420601Y-11654137D01*
X13420601Y-11746061D01*
X13512526Y-11746061D01*
X13662526Y-11196061D02*
X13662526Y-11104137D01*
X13570601Y-11104137D01*
X13570601Y-11196061D01*
X13662526Y-11196061D01*
X13662526Y-11996061D02*
X13662526Y-11904137D01*
X13570601Y-11904137D01*
X13570601Y-11996061D01*
X13662526Y-11996061D01*
X15982526Y-11196061D02*
X15982526Y-11104137D01*
X15890601Y-11104137D01*
X15890601Y-11196061D01*
X15982526Y-11196061D01*
X15982526Y-11996061D02*
X15982526Y-11904137D01*
X15890601Y-11904137D01*
X15890601Y-11996061D01*
X15982526Y-11996061D01*
X16132526Y-11446061D02*
X16132526Y-11354137D01*
X16040601Y-11354137D01*
X16040601Y-11446061D01*
X16132526Y-11446061D01*
X16132526Y-11746061D02*
X16132526Y-11654137D01*
X16040601Y-11654137D01*
X16040601Y-11746061D01*
X16132526Y-11746061D01*
X16282526Y-11196061D02*
X16282526Y-11104137D01*
X16190601Y-11104137D01*
X16190601Y-11196061D01*
X16282526Y-11196061D01*
X16282526Y-11996061D02*
X16282526Y-11904137D01*
X16190601Y-11904137D01*
X16190601Y-11996061D01*
X16282526Y-11996061D01*
X16432526Y-11446061D02*
X16432526Y-11354137D01*
X16340601Y-11354137D01*
X16340601Y-11446061D01*
X16432526Y-11446061D01*
X16432526Y-11746061D02*
X16432526Y-11654137D01*
X16340601Y-11654137D01*
X16340601Y-11746061D01*
X16432526Y-11746061D01*
X16582526Y-11196061D02*
X16582526Y-11104137D01*
X16490601Y-11104137D01*
X16490601Y-11196061D01*
X16582526Y-11196061D01*
X16582526Y-11996061D02*
X16582526Y-11904137D01*
X16490601Y-11904137D01*
X16490601Y-11996061D01*
X16582526Y-11996061D01*
X16732526Y-11446061D02*
X16732526Y-11354137D01*
X16640601Y-11354137D01*
X16640601Y-11446061D01*
X16732526Y-11446061D01*
X16732526Y-11746061D02*
X16732526Y-11654137D01*
X16640601Y-11654137D01*
X16640601Y-11746061D01*
X16732526Y-11746061D01*
X16882526Y-11196061D02*
X16882526Y-11104137D01*
X16790601Y-11104137D01*
X16790601Y-11196061D01*
X16882526Y-11196061D01*
X16882526Y-11996061D02*
X16882526Y-11904137D01*
X16790601Y-11904137D01*
X16790601Y-11996061D01*
X16882526Y-11996061D01*
X17032526Y-11446061D02*
X17032526Y-11354137D01*
X16940601Y-11354137D01*
X16940601Y-11446061D01*
X17032526Y-11446061D01*
X17032526Y-11746061D02*
X17032526Y-11654137D01*
X16940601Y-11654137D01*
X16940601Y-11746061D01*
X17032526Y-11746061D01*
X17182526Y-11196061D02*
X17182526Y-11104137D01*
X17090601Y-11104137D01*
X17090601Y-11196061D01*
X17182526Y-11196061D01*
X17182526Y-11996061D02*
X17182526Y-11904137D01*
X17090601Y-11904137D01*
X17090601Y-11996061D01*
X17182526Y-11996061D01*
X17332526Y-11446061D02*
X17332526Y-11354137D01*
X17240601Y-11354137D01*
X17240601Y-11446061D01*
X17332526Y-11446061D01*
X17332526Y-11746061D02*
X17332526Y-11654137D01*
X17240601Y-11654137D01*
X17240601Y-11746061D01*
X17332526Y-11746061D01*
X17482526Y-11196061D02*
X17482526Y-11104137D01*
X17390601Y-11104137D01*
X17390601Y-11196061D01*
X17482526Y-11196061D01*
X17482526Y-11996061D02*
X17482526Y-11904137D01*
X17390601Y-11904137D01*
X17390601Y-11996061D01*
X17482526Y-11996061D01*
X17632526Y-11446061D02*
X17632526Y-11354137D01*
X17540601Y-11354137D01*
X17540601Y-11446061D01*
X17632526Y-11446061D01*
X17632526Y-11746061D02*
X17632526Y-11654137D01*
X17540601Y-11654137D01*
X17540601Y-11746061D01*
X17632526Y-11746061D01*
X17782526Y-11196061D02*
X17782526Y-11104137D01*
X17690601Y-11104137D01*
X17690601Y-11196061D01*
X17782526Y-11196061D01*
X17782526Y-11996061D02*
X17782526Y-11904137D01*
X17690601Y-11904137D01*
X17690601Y-11996061D01*
X17782526Y-11996061D01*
X17932526Y-11446061D02*
X17932526Y-11354137D01*
X17840601Y-11354137D01*
X17840601Y-11446061D01*
X17932526Y-11446061D01*
X17932526Y-11746061D02*
X17932526Y-11654137D01*
X17840601Y-11654137D01*
X17840601Y-11746061D01*
X17932526Y-11746061D01*
X18082526Y-11196061D02*
X18082526Y-11104137D01*
X17990601Y-11104137D01*
X17990601Y-11196061D01*
X18082526Y-11196061D01*
X18082526Y-11996061D02*
X18082526Y-11904137D01*
X17990601Y-11904137D01*
X17990601Y-11996061D01*
X18082526Y-11996061D01*
X18232526Y-11446061D02*
X18232526Y-11354137D01*
X18140601Y-11354137D01*
X18140601Y-11446061D01*
X18232526Y-11446061D01*
X18232526Y-11746061D02*
X18232526Y-11654137D01*
X18140601Y-11654137D01*
X18140601Y-11746061D01*
X18232526Y-11746061D01*
X18382526Y-11196061D02*
X18382526Y-11104137D01*
X18290601Y-11104137D01*
X18290601Y-11196061D01*
X18382526Y-11196061D01*
X18382526Y-11996061D02*
X18382526Y-11904137D01*
X18290601Y-11904137D01*
X18290601Y-11996061D01*
X18382526Y-11996061D01*
D15*
X20803564Y-11354099D02*
X21123564Y-11034099D01*
X20803564Y-10714099D01*
X20483564Y-11034099D01*
X20803564Y-11354099D01*
X20804669Y-6854199D02*
X21124669Y-6534199D01*
X20804669Y-6214199D01*
X20484669Y-6534199D01*
X20804669Y-6854199D01*
D11*
X7462619Y-13388623D02*
X7462619Y-13188623D01*
X7462619Y-13188623D02*
X7510238Y-13188623D01*
X7510238Y-13188623D02*
X7538809Y-13198147D01*
X7538809Y-13198147D02*
X7557857Y-13217194D01*
X7557857Y-13217194D02*
X7567381Y-13236242D01*
X7567381Y-13236242D02*
X7576905Y-13274337D01*
X7576905Y-13274337D02*
X7576905Y-13302909D01*
X7576905Y-13302909D02*
X7567381Y-13341004D01*
X7567381Y-13341004D02*
X7557857Y-13360051D01*
X7557857Y-13360051D02*
X7538809Y-13379099D01*
X7538809Y-13379099D02*
X7510238Y-13388623D01*
X7510238Y-13388623D02*
X7462619Y-13388623D01*
X7662619Y-13388623D02*
X7662619Y-13255289D01*
X7662619Y-13293385D02*
X7672143Y-13274337D01*
X7672143Y-13274337D02*
X7681667Y-13264813D01*
X7681667Y-13264813D02*
X7700714Y-13255289D01*
X7700714Y-13255289D02*
X7719762Y-13255289D01*
X7786428Y-13388623D02*
X7786428Y-13255289D01*
X7786428Y-13188623D02*
X7776905Y-13198147D01*
X7776905Y-13198147D02*
X7786428Y-13207670D01*
X7786428Y-13207670D02*
X7795952Y-13198147D01*
X7795952Y-13198147D02*
X7786428Y-13188623D01*
X7786428Y-13188623D02*
X7786428Y-13207670D01*
X7910238Y-13388623D02*
X7891190Y-13379099D01*
X7891190Y-13379099D02*
X7881667Y-13360051D01*
X7881667Y-13360051D02*
X7881667Y-13188623D01*
X8015000Y-13388623D02*
X7995952Y-13379099D01*
X7995952Y-13379099D02*
X7986428Y-13360051D01*
X7986428Y-13360051D02*
X7986428Y-13188623D01*
X8243571Y-13388623D02*
X8243571Y-13188623D01*
X8243571Y-13188623D02*
X8310238Y-13331480D01*
X8310238Y-13331480D02*
X8376905Y-13188623D01*
X8376905Y-13188623D02*
X8376905Y-13388623D01*
X8557857Y-13388623D02*
X8557857Y-13283861D01*
X8557857Y-13283861D02*
X8548333Y-13264813D01*
X8548333Y-13264813D02*
X8529286Y-13255289D01*
X8529286Y-13255289D02*
X8491190Y-13255289D01*
X8491190Y-13255289D02*
X8472143Y-13264813D01*
X8557857Y-13379099D02*
X8538810Y-13388623D01*
X8538810Y-13388623D02*
X8491190Y-13388623D01*
X8491190Y-13388623D02*
X8472143Y-13379099D01*
X8472143Y-13379099D02*
X8462619Y-13360051D01*
X8462619Y-13360051D02*
X8462619Y-13341004D01*
X8462619Y-13341004D02*
X8472143Y-13321956D01*
X8472143Y-13321956D02*
X8491190Y-13312432D01*
X8491190Y-13312432D02*
X8538810Y-13312432D01*
X8538810Y-13312432D02*
X8557857Y-13302909D01*
X8653095Y-13255289D02*
X8653095Y-13455289D01*
X8653095Y-13264813D02*
X8672143Y-13255289D01*
X8672143Y-13255289D02*
X8710238Y-13255289D01*
X8710238Y-13255289D02*
X8729286Y-13264813D01*
X8729286Y-13264813D02*
X8738810Y-13274337D01*
X8738810Y-13274337D02*
X8748333Y-13293385D01*
X8748333Y-13293385D02*
X8748333Y-13350528D01*
X8748333Y-13350528D02*
X8738810Y-13369575D01*
X8738810Y-13369575D02*
X8729286Y-13379099D01*
X8729286Y-13379099D02*
X8710238Y-13388623D01*
X8710238Y-13388623D02*
X8672143Y-13388623D01*
X8672143Y-13388623D02*
X8653095Y-13379099D01*
X8834048Y-13369575D02*
X8843571Y-13379099D01*
X8843571Y-13379099D02*
X8834048Y-13388623D01*
X8834048Y-13388623D02*
X8824524Y-13379099D01*
X8824524Y-13379099D02*
X8834048Y-13369575D01*
X8834048Y-13369575D02*
X8834048Y-13388623D01*
X8834048Y-13264813D02*
X8843571Y-13274337D01*
X8843571Y-13274337D02*
X8834048Y-13283861D01*
X8834048Y-13283861D02*
X8824524Y-13274337D01*
X8824524Y-13274337D02*
X8834048Y-13264813D01*
X8834048Y-13264813D02*
X8834048Y-13283861D01*
D12*
X7175000Y-13696099D02*
X7215000Y-13736099D01*
X7215000Y-13696099D02*
X7175000Y-13736099D01*
D11*
X7500714Y-13608623D02*
X7519762Y-13608623D01*
X7519762Y-13608623D02*
X7538809Y-13618147D01*
X7538809Y-13618147D02*
X7548333Y-13627670D01*
X7548333Y-13627670D02*
X7557857Y-13646718D01*
X7557857Y-13646718D02*
X7567381Y-13684813D01*
X7567381Y-13684813D02*
X7567381Y-13732432D01*
X7567381Y-13732432D02*
X7557857Y-13770528D01*
X7557857Y-13770528D02*
X7548333Y-13789575D01*
X7548333Y-13789575D02*
X7538809Y-13799099D01*
X7538809Y-13799099D02*
X7519762Y-13808623D01*
X7519762Y-13808623D02*
X7500714Y-13808623D01*
X7500714Y-13808623D02*
X7481667Y-13799099D01*
X7481667Y-13799099D02*
X7472143Y-13789575D01*
X7472143Y-13789575D02*
X7462619Y-13770528D01*
X7462619Y-13770528D02*
X7453095Y-13732432D01*
X7453095Y-13732432D02*
X7453095Y-13684813D01*
X7453095Y-13684813D02*
X7462619Y-13646718D01*
X7462619Y-13646718D02*
X7472143Y-13627670D01*
X7472143Y-13627670D02*
X7481667Y-13618147D01*
X7481667Y-13618147D02*
X7500714Y-13608623D01*
X7653095Y-13789575D02*
X7662619Y-13799099D01*
X7662619Y-13799099D02*
X7653095Y-13808623D01*
X7653095Y-13808623D02*
X7643571Y-13799099D01*
X7643571Y-13799099D02*
X7653095Y-13789575D01*
X7653095Y-13789575D02*
X7653095Y-13808623D01*
X7834048Y-13675289D02*
X7834048Y-13808623D01*
X7786428Y-13599099D02*
X7738809Y-13741956D01*
X7738809Y-13741956D02*
X7862619Y-13741956D01*
X7976905Y-13608623D02*
X7995952Y-13608623D01*
X7995952Y-13608623D02*
X8015000Y-13618147D01*
X8015000Y-13618147D02*
X8024524Y-13627670D01*
X8024524Y-13627670D02*
X8034048Y-13646718D01*
X8034048Y-13646718D02*
X8043571Y-13684813D01*
X8043571Y-13684813D02*
X8043571Y-13732432D01*
X8043571Y-13732432D02*
X8034048Y-13770528D01*
X8034048Y-13770528D02*
X8024524Y-13789575D01*
X8024524Y-13789575D02*
X8015000Y-13799099D01*
X8015000Y-13799099D02*
X7995952Y-13808623D01*
X7995952Y-13808623D02*
X7976905Y-13808623D01*
X7976905Y-13808623D02*
X7957857Y-13799099D01*
X7957857Y-13799099D02*
X7948333Y-13789575D01*
X7948333Y-13789575D02*
X7938809Y-13770528D01*
X7938809Y-13770528D02*
X7929286Y-13732432D01*
X7929286Y-13732432D02*
X7929286Y-13684813D01*
X7929286Y-13684813D02*
X7938809Y-13646718D01*
X7938809Y-13646718D02*
X7948333Y-13627670D01*
X7948333Y-13627670D02*
X7957857Y-13618147D01*
X7957857Y-13618147D02*
X7976905Y-13608623D01*
X8167381Y-13608623D02*
X8186429Y-13608623D01*
X8186429Y-13608623D02*
X8205476Y-13618147D01*
X8205476Y-13618147D02*
X8215000Y-13627670D01*
X8215000Y-13627670D02*
X8224524Y-13646718D01*
X8224524Y-13646718D02*
X8234048Y-13684813D01*
X8234048Y-13684813D02*
X8234048Y-13732432D01*
X8234048Y-13732432D02*
X8224524Y-13770528D01*
X8224524Y-13770528D02*
X8215000Y-13789575D01*
X8215000Y-13789575D02*
X8205476Y-13799099D01*
X8205476Y-13799099D02*
X8186429Y-13808623D01*
X8186429Y-13808623D02*
X8167381Y-13808623D01*
X8167381Y-13808623D02*
X8148333Y-13799099D01*
X8148333Y-13799099D02*
X8138809Y-13789575D01*
X8138809Y-13789575D02*
X8129286Y-13770528D01*
X8129286Y-13770528D02*
X8119762Y-13732432D01*
X8119762Y-13732432D02*
X8119762Y-13684813D01*
X8119762Y-13684813D02*
X8129286Y-13646718D01*
X8129286Y-13646718D02*
X8138809Y-13627670D01*
X8138809Y-13627670D02*
X8148333Y-13618147D01*
X8148333Y-13618147D02*
X8167381Y-13608623D01*
X8319762Y-13808623D02*
X8319762Y-13675289D01*
X8319762Y-13694337D02*
X8329286Y-13684813D01*
X8329286Y-13684813D02*
X8348333Y-13675289D01*
X8348333Y-13675289D02*
X8376905Y-13675289D01*
X8376905Y-13675289D02*
X8395952Y-13684813D01*
X8395952Y-13684813D02*
X8405476Y-13703861D01*
X8405476Y-13703861D02*
X8405476Y-13808623D01*
X8405476Y-13703861D02*
X8415000Y-13684813D01*
X8415000Y-13684813D02*
X8434048Y-13675289D01*
X8434048Y-13675289D02*
X8462619Y-13675289D01*
X8462619Y-13675289D02*
X8481667Y-13684813D01*
X8481667Y-13684813D02*
X8491191Y-13703861D01*
X8491191Y-13703861D02*
X8491191Y-13808623D01*
X8586429Y-13808623D02*
X8586429Y-13675289D01*
X8586429Y-13694337D02*
X8595952Y-13684813D01*
X8595952Y-13684813D02*
X8615000Y-13675289D01*
X8615000Y-13675289D02*
X8643572Y-13675289D01*
X8643572Y-13675289D02*
X8662619Y-13684813D01*
X8662619Y-13684813D02*
X8672143Y-13703861D01*
X8672143Y-13703861D02*
X8672143Y-13808623D01*
X8672143Y-13703861D02*
X8681667Y-13684813D01*
X8681667Y-13684813D02*
X8700714Y-13675289D01*
X8700714Y-13675289D02*
X8729286Y-13675289D01*
X8729286Y-13675289D02*
X8748333Y-13684813D01*
X8748333Y-13684813D02*
X8757857Y-13703861D01*
X8757857Y-13703861D02*
X8757857Y-13808623D01*
X9148333Y-13599099D02*
X8976905Y-13856242D01*
X9405476Y-13608623D02*
X9424524Y-13608623D01*
X9424524Y-13608623D02*
X9443572Y-13618147D01*
X9443572Y-13618147D02*
X9453095Y-13627670D01*
X9453095Y-13627670D02*
X9462619Y-13646718D01*
X9462619Y-13646718D02*
X9472143Y-13684813D01*
X9472143Y-13684813D02*
X9472143Y-13732432D01*
X9472143Y-13732432D02*
X9462619Y-13770528D01*
X9462619Y-13770528D02*
X9453095Y-13789575D01*
X9453095Y-13789575D02*
X9443572Y-13799099D01*
X9443572Y-13799099D02*
X9424524Y-13808623D01*
X9424524Y-13808623D02*
X9405476Y-13808623D01*
X9405476Y-13808623D02*
X9386429Y-13799099D01*
X9386429Y-13799099D02*
X9376905Y-13789575D01*
X9376905Y-13789575D02*
X9367381Y-13770528D01*
X9367381Y-13770528D02*
X9357857Y-13732432D01*
X9357857Y-13732432D02*
X9357857Y-13684813D01*
X9357857Y-13684813D02*
X9367381Y-13646718D01*
X9367381Y-13646718D02*
X9376905Y-13627670D01*
X9376905Y-13627670D02*
X9386429Y-13618147D01*
X9386429Y-13618147D02*
X9405476Y-13608623D01*
X9557857Y-13789575D02*
X9567381Y-13799099D01*
X9567381Y-13799099D02*
X9557857Y-13808623D01*
X9557857Y-13808623D02*
X9548334Y-13799099D01*
X9548334Y-13799099D02*
X9557857Y-13789575D01*
X9557857Y-13789575D02*
X9557857Y-13808623D01*
X9691191Y-13608623D02*
X9710238Y-13608623D01*
X9710238Y-13608623D02*
X9729286Y-13618147D01*
X9729286Y-13618147D02*
X9738810Y-13627670D01*
X9738810Y-13627670D02*
X9748334Y-13646718D01*
X9748334Y-13646718D02*
X9757857Y-13684813D01*
X9757857Y-13684813D02*
X9757857Y-13732432D01*
X9757857Y-13732432D02*
X9748334Y-13770528D01*
X9748334Y-13770528D02*
X9738810Y-13789575D01*
X9738810Y-13789575D02*
X9729286Y-13799099D01*
X9729286Y-13799099D02*
X9710238Y-13808623D01*
X9710238Y-13808623D02*
X9691191Y-13808623D01*
X9691191Y-13808623D02*
X9672143Y-13799099D01*
X9672143Y-13799099D02*
X9662619Y-13789575D01*
X9662619Y-13789575D02*
X9653095Y-13770528D01*
X9653095Y-13770528D02*
X9643572Y-13732432D01*
X9643572Y-13732432D02*
X9643572Y-13684813D01*
X9643572Y-13684813D02*
X9653095Y-13646718D01*
X9653095Y-13646718D02*
X9662619Y-13627670D01*
X9662619Y-13627670D02*
X9672143Y-13618147D01*
X9672143Y-13618147D02*
X9691191Y-13608623D01*
X9948334Y-13808623D02*
X9834048Y-13808623D01*
X9891191Y-13808623D02*
X9891191Y-13608623D01*
X9891191Y-13608623D02*
X9872143Y-13637194D01*
X9872143Y-13637194D02*
X9853095Y-13656242D01*
X9853095Y-13656242D02*
X9834048Y-13665766D01*
X10129286Y-13608623D02*
X10034048Y-13608623D01*
X10034048Y-13608623D02*
X10024524Y-13703861D01*
X10024524Y-13703861D02*
X10034048Y-13694337D01*
X10034048Y-13694337D02*
X10053095Y-13684813D01*
X10053095Y-13684813D02*
X10100715Y-13684813D01*
X10100715Y-13684813D02*
X10119762Y-13694337D01*
X10119762Y-13694337D02*
X10129286Y-13703861D01*
X10129286Y-13703861D02*
X10138810Y-13722909D01*
X10138810Y-13722909D02*
X10138810Y-13770528D01*
X10138810Y-13770528D02*
X10129286Y-13789575D01*
X10129286Y-13789575D02*
X10119762Y-13799099D01*
X10119762Y-13799099D02*
X10100715Y-13808623D01*
X10100715Y-13808623D02*
X10053095Y-13808623D01*
X10053095Y-13808623D02*
X10034048Y-13799099D01*
X10034048Y-13799099D02*
X10024524Y-13789575D01*
X10205476Y-13608623D02*
X10338810Y-13608623D01*
X10338810Y-13608623D02*
X10253095Y-13808623D01*
X10405476Y-13608623D02*
X10405476Y-13646718D01*
X10481667Y-13608623D02*
X10481667Y-13646718D01*
X10776905Y-13884813D02*
X10767381Y-13875289D01*
X10767381Y-13875289D02*
X10748334Y-13846718D01*
X10748334Y-13846718D02*
X10738810Y-13827670D01*
X10738810Y-13827670D02*
X10729286Y-13799099D01*
X10729286Y-13799099D02*
X10719762Y-13751480D01*
X10719762Y-13751480D02*
X10719762Y-13713385D01*
X10719762Y-13713385D02*
X10729286Y-13665766D01*
X10729286Y-13665766D02*
X10738810Y-13637194D01*
X10738810Y-13637194D02*
X10748334Y-13618147D01*
X10748334Y-13618147D02*
X10767381Y-13589575D01*
X10767381Y-13589575D02*
X10776905Y-13580051D01*
X10834048Y-13608623D02*
X10957857Y-13608623D01*
X10957857Y-13608623D02*
X10891191Y-13684813D01*
X10891191Y-13684813D02*
X10919762Y-13684813D01*
X10919762Y-13684813D02*
X10938810Y-13694337D01*
X10938810Y-13694337D02*
X10948334Y-13703861D01*
X10948334Y-13703861D02*
X10957857Y-13722909D01*
X10957857Y-13722909D02*
X10957857Y-13770528D01*
X10957857Y-13770528D02*
X10948334Y-13789575D01*
X10948334Y-13789575D02*
X10938810Y-13799099D01*
X10938810Y-13799099D02*
X10919762Y-13808623D01*
X10919762Y-13808623D02*
X10862619Y-13808623D01*
X10862619Y-13808623D02*
X10843572Y-13799099D01*
X10843572Y-13799099D02*
X10834048Y-13789575D01*
X11024524Y-13608623D02*
X11157857Y-13608623D01*
X11157857Y-13608623D02*
X11072143Y-13808623D01*
X11243572Y-13808623D02*
X11281667Y-13808623D01*
X11281667Y-13808623D02*
X11300715Y-13799099D01*
X11300715Y-13799099D02*
X11310238Y-13789575D01*
X11310238Y-13789575D02*
X11329286Y-13761004D01*
X11329286Y-13761004D02*
X11338810Y-13722909D01*
X11338810Y-13722909D02*
X11338810Y-13646718D01*
X11338810Y-13646718D02*
X11329286Y-13627670D01*
X11329286Y-13627670D02*
X11319762Y-13618147D01*
X11319762Y-13618147D02*
X11300715Y-13608623D01*
X11300715Y-13608623D02*
X11262619Y-13608623D01*
X11262619Y-13608623D02*
X11243572Y-13618147D01*
X11243572Y-13618147D02*
X11234048Y-13627670D01*
X11234048Y-13627670D02*
X11224524Y-13646718D01*
X11224524Y-13646718D02*
X11224524Y-13694337D01*
X11224524Y-13694337D02*
X11234048Y-13713385D01*
X11234048Y-13713385D02*
X11243572Y-13722909D01*
X11243572Y-13722909D02*
X11262619Y-13732432D01*
X11262619Y-13732432D02*
X11300715Y-13732432D01*
X11300715Y-13732432D02*
X11319762Y-13722909D01*
X11319762Y-13722909D02*
X11329286Y-13713385D01*
X11329286Y-13713385D02*
X11338810Y-13694337D01*
X11576905Y-13808623D02*
X11576905Y-13608623D01*
X11662619Y-13808623D02*
X11662619Y-13703861D01*
X11662619Y-13703861D02*
X11653096Y-13684813D01*
X11653096Y-13684813D02*
X11634048Y-13675289D01*
X11634048Y-13675289D02*
X11605476Y-13675289D01*
X11605476Y-13675289D02*
X11586429Y-13684813D01*
X11586429Y-13684813D02*
X11576905Y-13694337D01*
X11786429Y-13808623D02*
X11767381Y-13799099D01*
X11767381Y-13799099D02*
X11757857Y-13789575D01*
X11757857Y-13789575D02*
X11748334Y-13770528D01*
X11748334Y-13770528D02*
X11748334Y-13713385D01*
X11748334Y-13713385D02*
X11757857Y-13694337D01*
X11757857Y-13694337D02*
X11767381Y-13684813D01*
X11767381Y-13684813D02*
X11786429Y-13675289D01*
X11786429Y-13675289D02*
X11815000Y-13675289D01*
X11815000Y-13675289D02*
X11834048Y-13684813D01*
X11834048Y-13684813D02*
X11843572Y-13694337D01*
X11843572Y-13694337D02*
X11853096Y-13713385D01*
X11853096Y-13713385D02*
X11853096Y-13770528D01*
X11853096Y-13770528D02*
X11843572Y-13789575D01*
X11843572Y-13789575D02*
X11834048Y-13799099D01*
X11834048Y-13799099D02*
X11815000Y-13808623D01*
X11815000Y-13808623D02*
X11786429Y-13808623D01*
X11967381Y-13808623D02*
X11948334Y-13799099D01*
X11948334Y-13799099D02*
X11938810Y-13780051D01*
X11938810Y-13780051D02*
X11938810Y-13608623D01*
X12119762Y-13799099D02*
X12100715Y-13808623D01*
X12100715Y-13808623D02*
X12062619Y-13808623D01*
X12062619Y-13808623D02*
X12043572Y-13799099D01*
X12043572Y-13799099D02*
X12034048Y-13780051D01*
X12034048Y-13780051D02*
X12034048Y-13703861D01*
X12034048Y-13703861D02*
X12043572Y-13684813D01*
X12043572Y-13684813D02*
X12062619Y-13675289D01*
X12062619Y-13675289D02*
X12100715Y-13675289D01*
X12100715Y-13675289D02*
X12119762Y-13684813D01*
X12119762Y-13684813D02*
X12129286Y-13703861D01*
X12129286Y-13703861D02*
X12129286Y-13722909D01*
X12129286Y-13722909D02*
X12034048Y-13741956D01*
X12205477Y-13799099D02*
X12224524Y-13808623D01*
X12224524Y-13808623D02*
X12262619Y-13808623D01*
X12262619Y-13808623D02*
X12281667Y-13799099D01*
X12281667Y-13799099D02*
X12291191Y-13780051D01*
X12291191Y-13780051D02*
X12291191Y-13770528D01*
X12291191Y-13770528D02*
X12281667Y-13751480D01*
X12281667Y-13751480D02*
X12262619Y-13741956D01*
X12262619Y-13741956D02*
X12234048Y-13741956D01*
X12234048Y-13741956D02*
X12215000Y-13732432D01*
X12215000Y-13732432D02*
X12205477Y-13713385D01*
X12205477Y-13713385D02*
X12205477Y-13703861D01*
X12205477Y-13703861D02*
X12215000Y-13684813D01*
X12215000Y-13684813D02*
X12234048Y-13675289D01*
X12234048Y-13675289D02*
X12262619Y-13675289D01*
X12262619Y-13675289D02*
X12281667Y-13684813D01*
X12357858Y-13884813D02*
X12367381Y-13875289D01*
X12367381Y-13875289D02*
X12386429Y-13846718D01*
X12386429Y-13846718D02*
X12395953Y-13827670D01*
X12395953Y-13827670D02*
X12405477Y-13799099D01*
X12405477Y-13799099D02*
X12415000Y-13751480D01*
X12415000Y-13751480D02*
X12415000Y-13713385D01*
X12415000Y-13713385D02*
X12405477Y-13665766D01*
X12405477Y-13665766D02*
X12395953Y-13637194D01*
X12395953Y-13637194D02*
X12386429Y-13618147D01*
X12386429Y-13618147D02*
X12367381Y-13589575D01*
X12367381Y-13589575D02*
X12357858Y-13580051D01*
D13*
X7215000Y-13980099D02*
G75*
G03*
X7215000Y-13980099I-40000J0D01*
G01*
D11*
X7500714Y-13872623D02*
X7519762Y-13872623D01*
X7519762Y-13872623D02*
X7538809Y-13882147D01*
X7538809Y-13882147D02*
X7548333Y-13891670D01*
X7548333Y-13891670D02*
X7557857Y-13910718D01*
X7557857Y-13910718D02*
X7567381Y-13948813D01*
X7567381Y-13948813D02*
X7567381Y-13996432D01*
X7567381Y-13996432D02*
X7557857Y-14034528D01*
X7557857Y-14034528D02*
X7548333Y-14053575D01*
X7548333Y-14053575D02*
X7538809Y-14063099D01*
X7538809Y-14063099D02*
X7519762Y-14072623D01*
X7519762Y-14072623D02*
X7500714Y-14072623D01*
X7500714Y-14072623D02*
X7481667Y-14063099D01*
X7481667Y-14063099D02*
X7472143Y-14053575D01*
X7472143Y-14053575D02*
X7462619Y-14034528D01*
X7462619Y-14034528D02*
X7453095Y-13996432D01*
X7453095Y-13996432D02*
X7453095Y-13948813D01*
X7453095Y-13948813D02*
X7462619Y-13910718D01*
X7462619Y-13910718D02*
X7472143Y-13891670D01*
X7472143Y-13891670D02*
X7481667Y-13882147D01*
X7481667Y-13882147D02*
X7500714Y-13872623D01*
X7653095Y-14053575D02*
X7662619Y-14063099D01*
X7662619Y-14063099D02*
X7653095Y-14072623D01*
X7653095Y-14072623D02*
X7643571Y-14063099D01*
X7643571Y-14063099D02*
X7653095Y-14053575D01*
X7653095Y-14053575D02*
X7653095Y-14072623D01*
X7776905Y-13958337D02*
X7757857Y-13948813D01*
X7757857Y-13948813D02*
X7748333Y-13939289D01*
X7748333Y-13939289D02*
X7738809Y-13920242D01*
X7738809Y-13920242D02*
X7738809Y-13910718D01*
X7738809Y-13910718D02*
X7748333Y-13891670D01*
X7748333Y-13891670D02*
X7757857Y-13882147D01*
X7757857Y-13882147D02*
X7776905Y-13872623D01*
X7776905Y-13872623D02*
X7815000Y-13872623D01*
X7815000Y-13872623D02*
X7834048Y-13882147D01*
X7834048Y-13882147D02*
X7843571Y-13891670D01*
X7843571Y-13891670D02*
X7853095Y-13910718D01*
X7853095Y-13910718D02*
X7853095Y-13920242D01*
X7853095Y-13920242D02*
X7843571Y-13939289D01*
X7843571Y-13939289D02*
X7834048Y-13948813D01*
X7834048Y-13948813D02*
X7815000Y-13958337D01*
X7815000Y-13958337D02*
X7776905Y-13958337D01*
X7776905Y-13958337D02*
X7757857Y-13967861D01*
X7757857Y-13967861D02*
X7748333Y-13977385D01*
X7748333Y-13977385D02*
X7738809Y-13996432D01*
X7738809Y-13996432D02*
X7738809Y-14034528D01*
X7738809Y-14034528D02*
X7748333Y-14053575D01*
X7748333Y-14053575D02*
X7757857Y-14063099D01*
X7757857Y-14063099D02*
X7776905Y-14072623D01*
X7776905Y-14072623D02*
X7815000Y-14072623D01*
X7815000Y-14072623D02*
X7834048Y-14063099D01*
X7834048Y-14063099D02*
X7843571Y-14053575D01*
X7843571Y-14053575D02*
X7853095Y-14034528D01*
X7853095Y-14034528D02*
X7853095Y-13996432D01*
X7853095Y-13996432D02*
X7843571Y-13977385D01*
X7843571Y-13977385D02*
X7834048Y-13967861D01*
X7834048Y-13967861D02*
X7815000Y-13958337D01*
X7976905Y-13872623D02*
X7995952Y-13872623D01*
X7995952Y-13872623D02*
X8015000Y-13882147D01*
X8015000Y-13882147D02*
X8024524Y-13891670D01*
X8024524Y-13891670D02*
X8034048Y-13910718D01*
X8034048Y-13910718D02*
X8043571Y-13948813D01*
X8043571Y-13948813D02*
X8043571Y-13996432D01*
X8043571Y-13996432D02*
X8034048Y-14034528D01*
X8034048Y-14034528D02*
X8024524Y-14053575D01*
X8024524Y-14053575D02*
X8015000Y-14063099D01*
X8015000Y-14063099D02*
X7995952Y-14072623D01*
X7995952Y-14072623D02*
X7976905Y-14072623D01*
X7976905Y-14072623D02*
X7957857Y-14063099D01*
X7957857Y-14063099D02*
X7948333Y-14053575D01*
X7948333Y-14053575D02*
X7938809Y-14034528D01*
X7938809Y-14034528D02*
X7929286Y-13996432D01*
X7929286Y-13996432D02*
X7929286Y-13948813D01*
X7929286Y-13948813D02*
X7938809Y-13910718D01*
X7938809Y-13910718D02*
X7948333Y-13891670D01*
X7948333Y-13891670D02*
X7957857Y-13882147D01*
X7957857Y-13882147D02*
X7976905Y-13872623D01*
X8167381Y-13872623D02*
X8186429Y-13872623D01*
X8186429Y-13872623D02*
X8205476Y-13882147D01*
X8205476Y-13882147D02*
X8215000Y-13891670D01*
X8215000Y-13891670D02*
X8224524Y-13910718D01*
X8224524Y-13910718D02*
X8234048Y-13948813D01*
X8234048Y-13948813D02*
X8234048Y-13996432D01*
X8234048Y-13996432D02*
X8224524Y-14034528D01*
X8224524Y-14034528D02*
X8215000Y-14053575D01*
X8215000Y-14053575D02*
X8205476Y-14063099D01*
X8205476Y-14063099D02*
X8186429Y-14072623D01*
X8186429Y-14072623D02*
X8167381Y-14072623D01*
X8167381Y-14072623D02*
X8148333Y-14063099D01*
X8148333Y-14063099D02*
X8138809Y-14053575D01*
X8138809Y-14053575D02*
X8129286Y-14034528D01*
X8129286Y-14034528D02*
X8119762Y-13996432D01*
X8119762Y-13996432D02*
X8119762Y-13948813D01*
X8119762Y-13948813D02*
X8129286Y-13910718D01*
X8129286Y-13910718D02*
X8138809Y-13891670D01*
X8138809Y-13891670D02*
X8148333Y-13882147D01*
X8148333Y-13882147D02*
X8167381Y-13872623D01*
X8319762Y-14072623D02*
X8319762Y-13939289D01*
X8319762Y-13958337D02*
X8329286Y-13948813D01*
X8329286Y-13948813D02*
X8348333Y-13939289D01*
X8348333Y-13939289D02*
X8376905Y-13939289D01*
X8376905Y-13939289D02*
X8395952Y-13948813D01*
X8395952Y-13948813D02*
X8405476Y-13967861D01*
X8405476Y-13967861D02*
X8405476Y-14072623D01*
X8405476Y-13967861D02*
X8415000Y-13948813D01*
X8415000Y-13948813D02*
X8434048Y-13939289D01*
X8434048Y-13939289D02*
X8462619Y-13939289D01*
X8462619Y-13939289D02*
X8481667Y-13948813D01*
X8481667Y-13948813D02*
X8491191Y-13967861D01*
X8491191Y-13967861D02*
X8491191Y-14072623D01*
X8586429Y-14072623D02*
X8586429Y-13939289D01*
X8586429Y-13958337D02*
X8595952Y-13948813D01*
X8595952Y-13948813D02*
X8615000Y-13939289D01*
X8615000Y-13939289D02*
X8643572Y-13939289D01*
X8643572Y-13939289D02*
X8662619Y-13948813D01*
X8662619Y-13948813D02*
X8672143Y-13967861D01*
X8672143Y-13967861D02*
X8672143Y-14072623D01*
X8672143Y-13967861D02*
X8681667Y-13948813D01*
X8681667Y-13948813D02*
X8700714Y-13939289D01*
X8700714Y-13939289D02*
X8729286Y-13939289D01*
X8729286Y-13939289D02*
X8748333Y-13948813D01*
X8748333Y-13948813D02*
X8757857Y-13967861D01*
X8757857Y-13967861D02*
X8757857Y-14072623D01*
X9148333Y-13863099D02*
X8976905Y-14120242D01*
X9405476Y-13872623D02*
X9424524Y-13872623D01*
X9424524Y-13872623D02*
X9443572Y-13882147D01*
X9443572Y-13882147D02*
X9453095Y-13891670D01*
X9453095Y-13891670D02*
X9462619Y-13910718D01*
X9462619Y-13910718D02*
X9472143Y-13948813D01*
X9472143Y-13948813D02*
X9472143Y-13996432D01*
X9472143Y-13996432D02*
X9462619Y-14034528D01*
X9462619Y-14034528D02*
X9453095Y-14053575D01*
X9453095Y-14053575D02*
X9443572Y-14063099D01*
X9443572Y-14063099D02*
X9424524Y-14072623D01*
X9424524Y-14072623D02*
X9405476Y-14072623D01*
X9405476Y-14072623D02*
X9386429Y-14063099D01*
X9386429Y-14063099D02*
X9376905Y-14053575D01*
X9376905Y-14053575D02*
X9367381Y-14034528D01*
X9367381Y-14034528D02*
X9357857Y-13996432D01*
X9357857Y-13996432D02*
X9357857Y-13948813D01*
X9357857Y-13948813D02*
X9367381Y-13910718D01*
X9367381Y-13910718D02*
X9376905Y-13891670D01*
X9376905Y-13891670D02*
X9386429Y-13882147D01*
X9386429Y-13882147D02*
X9405476Y-13872623D01*
X9557857Y-14053575D02*
X9567381Y-14063099D01*
X9567381Y-14063099D02*
X9557857Y-14072623D01*
X9557857Y-14072623D02*
X9548334Y-14063099D01*
X9548334Y-14063099D02*
X9557857Y-14053575D01*
X9557857Y-14053575D02*
X9557857Y-14072623D01*
X9691191Y-13872623D02*
X9710238Y-13872623D01*
X9710238Y-13872623D02*
X9729286Y-13882147D01*
X9729286Y-13882147D02*
X9738810Y-13891670D01*
X9738810Y-13891670D02*
X9748334Y-13910718D01*
X9748334Y-13910718D02*
X9757857Y-13948813D01*
X9757857Y-13948813D02*
X9757857Y-13996432D01*
X9757857Y-13996432D02*
X9748334Y-14034528D01*
X9748334Y-14034528D02*
X9738810Y-14053575D01*
X9738810Y-14053575D02*
X9729286Y-14063099D01*
X9729286Y-14063099D02*
X9710238Y-14072623D01*
X9710238Y-14072623D02*
X9691191Y-14072623D01*
X9691191Y-14072623D02*
X9672143Y-14063099D01*
X9672143Y-14063099D02*
X9662619Y-14053575D01*
X9662619Y-14053575D02*
X9653095Y-14034528D01*
X9653095Y-14034528D02*
X9643572Y-13996432D01*
X9643572Y-13996432D02*
X9643572Y-13948813D01*
X9643572Y-13948813D02*
X9653095Y-13910718D01*
X9653095Y-13910718D02*
X9662619Y-13891670D01*
X9662619Y-13891670D02*
X9672143Y-13882147D01*
X9672143Y-13882147D02*
X9691191Y-13872623D01*
X9824524Y-13872623D02*
X9948334Y-13872623D01*
X9948334Y-13872623D02*
X9881667Y-13948813D01*
X9881667Y-13948813D02*
X9910238Y-13948813D01*
X9910238Y-13948813D02*
X9929286Y-13958337D01*
X9929286Y-13958337D02*
X9938810Y-13967861D01*
X9938810Y-13967861D02*
X9948334Y-13986909D01*
X9948334Y-13986909D02*
X9948334Y-14034528D01*
X9948334Y-14034528D02*
X9938810Y-14053575D01*
X9938810Y-14053575D02*
X9929286Y-14063099D01*
X9929286Y-14063099D02*
X9910238Y-14072623D01*
X9910238Y-14072623D02*
X9853095Y-14072623D01*
X9853095Y-14072623D02*
X9834048Y-14063099D01*
X9834048Y-14063099D02*
X9824524Y-14053575D01*
X10138810Y-14072623D02*
X10024524Y-14072623D01*
X10081667Y-14072623D02*
X10081667Y-13872623D01*
X10081667Y-13872623D02*
X10062619Y-13901194D01*
X10062619Y-13901194D02*
X10043572Y-13920242D01*
X10043572Y-13920242D02*
X10024524Y-13929766D01*
X10319762Y-13872623D02*
X10224524Y-13872623D01*
X10224524Y-13872623D02*
X10215000Y-13967861D01*
X10215000Y-13967861D02*
X10224524Y-13958337D01*
X10224524Y-13958337D02*
X10243572Y-13948813D01*
X10243572Y-13948813D02*
X10291191Y-13948813D01*
X10291191Y-13948813D02*
X10310238Y-13958337D01*
X10310238Y-13958337D02*
X10319762Y-13967861D01*
X10319762Y-13967861D02*
X10329286Y-13986909D01*
X10329286Y-13986909D02*
X10329286Y-14034528D01*
X10329286Y-14034528D02*
X10319762Y-14053575D01*
X10319762Y-14053575D02*
X10310238Y-14063099D01*
X10310238Y-14063099D02*
X10291191Y-14072623D01*
X10291191Y-14072623D02*
X10243572Y-14072623D01*
X10243572Y-14072623D02*
X10224524Y-14063099D01*
X10224524Y-14063099D02*
X10215000Y-14053575D01*
X10405476Y-13872623D02*
X10405476Y-13910718D01*
X10481667Y-13872623D02*
X10481667Y-13910718D01*
X10776905Y-14148813D02*
X10767381Y-14139289D01*
X10767381Y-14139289D02*
X10748334Y-14110718D01*
X10748334Y-14110718D02*
X10738810Y-14091670D01*
X10738810Y-14091670D02*
X10729286Y-14063099D01*
X10729286Y-14063099D02*
X10719762Y-14015480D01*
X10719762Y-14015480D02*
X10719762Y-13977385D01*
X10719762Y-13977385D02*
X10729286Y-13929766D01*
X10729286Y-13929766D02*
X10738810Y-13901194D01*
X10738810Y-13901194D02*
X10748334Y-13882147D01*
X10748334Y-13882147D02*
X10767381Y-13853575D01*
X10767381Y-13853575D02*
X10776905Y-13844051D01*
X10938810Y-13872623D02*
X10900715Y-13872623D01*
X10900715Y-13872623D02*
X10881667Y-13882147D01*
X10881667Y-13882147D02*
X10872143Y-13891670D01*
X10872143Y-13891670D02*
X10853096Y-13920242D01*
X10853096Y-13920242D02*
X10843572Y-13958337D01*
X10843572Y-13958337D02*
X10843572Y-14034528D01*
X10843572Y-14034528D02*
X10853096Y-14053575D01*
X10853096Y-14053575D02*
X10862619Y-14063099D01*
X10862619Y-14063099D02*
X10881667Y-14072623D01*
X10881667Y-14072623D02*
X10919762Y-14072623D01*
X10919762Y-14072623D02*
X10938810Y-14063099D01*
X10938810Y-14063099D02*
X10948334Y-14053575D01*
X10948334Y-14053575D02*
X10957857Y-14034528D01*
X10957857Y-14034528D02*
X10957857Y-13986909D01*
X10957857Y-13986909D02*
X10948334Y-13967861D01*
X10948334Y-13967861D02*
X10938810Y-13958337D01*
X10938810Y-13958337D02*
X10919762Y-13948813D01*
X10919762Y-13948813D02*
X10881667Y-13948813D01*
X10881667Y-13948813D02*
X10862619Y-13958337D01*
X10862619Y-13958337D02*
X10853096Y-13967861D01*
X10853096Y-13967861D02*
X10843572Y-13986909D01*
X11195953Y-14072623D02*
X11195953Y-13872623D01*
X11281667Y-14072623D02*
X11281667Y-13967861D01*
X11281667Y-13967861D02*
X11272143Y-13948813D01*
X11272143Y-13948813D02*
X11253096Y-13939289D01*
X11253096Y-13939289D02*
X11224524Y-13939289D01*
X11224524Y-13939289D02*
X11205476Y-13948813D01*
X11205476Y-13948813D02*
X11195953Y-13958337D01*
X11405476Y-14072623D02*
X11386429Y-14063099D01*
X11386429Y-14063099D02*
X11376905Y-14053575D01*
X11376905Y-14053575D02*
X11367381Y-14034528D01*
X11367381Y-14034528D02*
X11367381Y-13977385D01*
X11367381Y-13977385D02*
X11376905Y-13958337D01*
X11376905Y-13958337D02*
X11386429Y-13948813D01*
X11386429Y-13948813D02*
X11405476Y-13939289D01*
X11405476Y-13939289D02*
X11434048Y-13939289D01*
X11434048Y-13939289D02*
X11453096Y-13948813D01*
X11453096Y-13948813D02*
X11462619Y-13958337D01*
X11462619Y-13958337D02*
X11472143Y-13977385D01*
X11472143Y-13977385D02*
X11472143Y-14034528D01*
X11472143Y-14034528D02*
X11462619Y-14053575D01*
X11462619Y-14053575D02*
X11453096Y-14063099D01*
X11453096Y-14063099D02*
X11434048Y-14072623D01*
X11434048Y-14072623D02*
X11405476Y-14072623D01*
X11586429Y-14072623D02*
X11567381Y-14063099D01*
X11567381Y-14063099D02*
X11557857Y-14044051D01*
X11557857Y-14044051D02*
X11557857Y-13872623D01*
X11738810Y-14063099D02*
X11719762Y-14072623D01*
X11719762Y-14072623D02*
X11681667Y-14072623D01*
X11681667Y-14072623D02*
X11662619Y-14063099D01*
X11662619Y-14063099D02*
X11653096Y-14044051D01*
X11653096Y-14044051D02*
X11653096Y-13967861D01*
X11653096Y-13967861D02*
X11662619Y-13948813D01*
X11662619Y-13948813D02*
X11681667Y-13939289D01*
X11681667Y-13939289D02*
X11719762Y-13939289D01*
X11719762Y-13939289D02*
X11738810Y-13948813D01*
X11738810Y-13948813D02*
X11748334Y-13967861D01*
X11748334Y-13967861D02*
X11748334Y-13986909D01*
X11748334Y-13986909D02*
X11653096Y-14005956D01*
X11824524Y-14063099D02*
X11843572Y-14072623D01*
X11843572Y-14072623D02*
X11881667Y-14072623D01*
X11881667Y-14072623D02*
X11900715Y-14063099D01*
X11900715Y-14063099D02*
X11910238Y-14044051D01*
X11910238Y-14044051D02*
X11910238Y-14034528D01*
X11910238Y-14034528D02*
X11900715Y-14015480D01*
X11900715Y-14015480D02*
X11881667Y-14005956D01*
X11881667Y-14005956D02*
X11853096Y-14005956D01*
X11853096Y-14005956D02*
X11834048Y-13996432D01*
X11834048Y-13996432D02*
X11824524Y-13977385D01*
X11824524Y-13977385D02*
X11824524Y-13967861D01*
X11824524Y-13967861D02*
X11834048Y-13948813D01*
X11834048Y-13948813D02*
X11853096Y-13939289D01*
X11853096Y-13939289D02*
X11881667Y-13939289D01*
X11881667Y-13939289D02*
X11900715Y-13948813D01*
X11976905Y-14148813D02*
X11986429Y-14139289D01*
X11986429Y-14139289D02*
X12005477Y-14110718D01*
X12005477Y-14110718D02*
X12015000Y-14091670D01*
X12015000Y-14091670D02*
X12024524Y-14063099D01*
X12024524Y-14063099D02*
X12034048Y-14015480D01*
X12034048Y-14015480D02*
X12034048Y-13977385D01*
X12034048Y-13977385D02*
X12024524Y-13929766D01*
X12024524Y-13929766D02*
X12015000Y-13901194D01*
X12015000Y-13901194D02*
X12005477Y-13882147D01*
X12005477Y-13882147D02*
X11986429Y-13853575D01*
X11986429Y-13853575D02*
X11976905Y-13844051D01*
D10*
X7165000Y-14194099D02*
X7165000Y-14294099D01*
X7115000Y-14244099D02*
X7215000Y-14244099D01*
D11*
X7567381Y-14336623D02*
X7453095Y-14336623D01*
X7510238Y-14336623D02*
X7510238Y-14136623D01*
X7510238Y-14136623D02*
X7491190Y-14165194D01*
X7491190Y-14165194D02*
X7472143Y-14184242D01*
X7472143Y-14184242D02*
X7453095Y-14193766D01*
X7653095Y-14317575D02*
X7662619Y-14327099D01*
X7662619Y-14327099D02*
X7653095Y-14336623D01*
X7653095Y-14336623D02*
X7643571Y-14327099D01*
X7643571Y-14327099D02*
X7653095Y-14317575D01*
X7653095Y-14317575D02*
X7653095Y-14336623D01*
X7786428Y-14136623D02*
X7805476Y-14136623D01*
X7805476Y-14136623D02*
X7824524Y-14146147D01*
X7824524Y-14146147D02*
X7834048Y-14155670D01*
X7834048Y-14155670D02*
X7843571Y-14174718D01*
X7843571Y-14174718D02*
X7853095Y-14212813D01*
X7853095Y-14212813D02*
X7853095Y-14260432D01*
X7853095Y-14260432D02*
X7843571Y-14298528D01*
X7843571Y-14298528D02*
X7834048Y-14317575D01*
X7834048Y-14317575D02*
X7824524Y-14327099D01*
X7824524Y-14327099D02*
X7805476Y-14336623D01*
X7805476Y-14336623D02*
X7786428Y-14336623D01*
X7786428Y-14336623D02*
X7767381Y-14327099D01*
X7767381Y-14327099D02*
X7757857Y-14317575D01*
X7757857Y-14317575D02*
X7748333Y-14298528D01*
X7748333Y-14298528D02*
X7738809Y-14260432D01*
X7738809Y-14260432D02*
X7738809Y-14212813D01*
X7738809Y-14212813D02*
X7748333Y-14174718D01*
X7748333Y-14174718D02*
X7757857Y-14155670D01*
X7757857Y-14155670D02*
X7767381Y-14146147D01*
X7767381Y-14146147D02*
X7786428Y-14136623D01*
X7976905Y-14136623D02*
X7995952Y-14136623D01*
X7995952Y-14136623D02*
X8015000Y-14146147D01*
X8015000Y-14146147D02*
X8024524Y-14155670D01*
X8024524Y-14155670D02*
X8034048Y-14174718D01*
X8034048Y-14174718D02*
X8043571Y-14212813D01*
X8043571Y-14212813D02*
X8043571Y-14260432D01*
X8043571Y-14260432D02*
X8034048Y-14298528D01*
X8034048Y-14298528D02*
X8024524Y-14317575D01*
X8024524Y-14317575D02*
X8015000Y-14327099D01*
X8015000Y-14327099D02*
X7995952Y-14336623D01*
X7995952Y-14336623D02*
X7976905Y-14336623D01*
X7976905Y-14336623D02*
X7957857Y-14327099D01*
X7957857Y-14327099D02*
X7948333Y-14317575D01*
X7948333Y-14317575D02*
X7938809Y-14298528D01*
X7938809Y-14298528D02*
X7929286Y-14260432D01*
X7929286Y-14260432D02*
X7929286Y-14212813D01*
X7929286Y-14212813D02*
X7938809Y-14174718D01*
X7938809Y-14174718D02*
X7948333Y-14155670D01*
X7948333Y-14155670D02*
X7957857Y-14146147D01*
X7957857Y-14146147D02*
X7976905Y-14136623D01*
X8167381Y-14136623D02*
X8186429Y-14136623D01*
X8186429Y-14136623D02*
X8205476Y-14146147D01*
X8205476Y-14146147D02*
X8215000Y-14155670D01*
X8215000Y-14155670D02*
X8224524Y-14174718D01*
X8224524Y-14174718D02*
X8234048Y-14212813D01*
X8234048Y-14212813D02*
X8234048Y-14260432D01*
X8234048Y-14260432D02*
X8224524Y-14298528D01*
X8224524Y-14298528D02*
X8215000Y-14317575D01*
X8215000Y-14317575D02*
X8205476Y-14327099D01*
X8205476Y-14327099D02*
X8186429Y-14336623D01*
X8186429Y-14336623D02*
X8167381Y-14336623D01*
X8167381Y-14336623D02*
X8148333Y-14327099D01*
X8148333Y-14327099D02*
X8138809Y-14317575D01*
X8138809Y-14317575D02*
X8129286Y-14298528D01*
X8129286Y-14298528D02*
X8119762Y-14260432D01*
X8119762Y-14260432D02*
X8119762Y-14212813D01*
X8119762Y-14212813D02*
X8129286Y-14174718D01*
X8129286Y-14174718D02*
X8138809Y-14155670D01*
X8138809Y-14155670D02*
X8148333Y-14146147D01*
X8148333Y-14146147D02*
X8167381Y-14136623D01*
X8319762Y-14336623D02*
X8319762Y-14203289D01*
X8319762Y-14222337D02*
X8329286Y-14212813D01*
X8329286Y-14212813D02*
X8348333Y-14203289D01*
X8348333Y-14203289D02*
X8376905Y-14203289D01*
X8376905Y-14203289D02*
X8395952Y-14212813D01*
X8395952Y-14212813D02*
X8405476Y-14231861D01*
X8405476Y-14231861D02*
X8405476Y-14336623D01*
X8405476Y-14231861D02*
X8415000Y-14212813D01*
X8415000Y-14212813D02*
X8434048Y-14203289D01*
X8434048Y-14203289D02*
X8462619Y-14203289D01*
X8462619Y-14203289D02*
X8481667Y-14212813D01*
X8481667Y-14212813D02*
X8491191Y-14231861D01*
X8491191Y-14231861D02*
X8491191Y-14336623D01*
X8586429Y-14336623D02*
X8586429Y-14203289D01*
X8586429Y-14222337D02*
X8595952Y-14212813D01*
X8595952Y-14212813D02*
X8615000Y-14203289D01*
X8615000Y-14203289D02*
X8643572Y-14203289D01*
X8643572Y-14203289D02*
X8662619Y-14212813D01*
X8662619Y-14212813D02*
X8672143Y-14231861D01*
X8672143Y-14231861D02*
X8672143Y-14336623D01*
X8672143Y-14231861D02*
X8681667Y-14212813D01*
X8681667Y-14212813D02*
X8700714Y-14203289D01*
X8700714Y-14203289D02*
X8729286Y-14203289D01*
X8729286Y-14203289D02*
X8748333Y-14212813D01*
X8748333Y-14212813D02*
X8757857Y-14231861D01*
X8757857Y-14231861D02*
X8757857Y-14336623D01*
X9148333Y-14127099D02*
X8976905Y-14384242D01*
X9405476Y-14136623D02*
X9424524Y-14136623D01*
X9424524Y-14136623D02*
X9443572Y-14146147D01*
X9443572Y-14146147D02*
X9453095Y-14155670D01*
X9453095Y-14155670D02*
X9462619Y-14174718D01*
X9462619Y-14174718D02*
X9472143Y-14212813D01*
X9472143Y-14212813D02*
X9472143Y-14260432D01*
X9472143Y-14260432D02*
X9462619Y-14298528D01*
X9462619Y-14298528D02*
X9453095Y-14317575D01*
X9453095Y-14317575D02*
X9443572Y-14327099D01*
X9443572Y-14327099D02*
X9424524Y-14336623D01*
X9424524Y-14336623D02*
X9405476Y-14336623D01*
X9405476Y-14336623D02*
X9386429Y-14327099D01*
X9386429Y-14327099D02*
X9376905Y-14317575D01*
X9376905Y-14317575D02*
X9367381Y-14298528D01*
X9367381Y-14298528D02*
X9357857Y-14260432D01*
X9357857Y-14260432D02*
X9357857Y-14212813D01*
X9357857Y-14212813D02*
X9367381Y-14174718D01*
X9367381Y-14174718D02*
X9376905Y-14155670D01*
X9376905Y-14155670D02*
X9386429Y-14146147D01*
X9386429Y-14146147D02*
X9405476Y-14136623D01*
X9557857Y-14317575D02*
X9567381Y-14327099D01*
X9567381Y-14327099D02*
X9557857Y-14336623D01*
X9557857Y-14336623D02*
X9548334Y-14327099D01*
X9548334Y-14327099D02*
X9557857Y-14317575D01*
X9557857Y-14317575D02*
X9557857Y-14336623D01*
X9691191Y-14136623D02*
X9710238Y-14136623D01*
X9710238Y-14136623D02*
X9729286Y-14146147D01*
X9729286Y-14146147D02*
X9738810Y-14155670D01*
X9738810Y-14155670D02*
X9748334Y-14174718D01*
X9748334Y-14174718D02*
X9757857Y-14212813D01*
X9757857Y-14212813D02*
X9757857Y-14260432D01*
X9757857Y-14260432D02*
X9748334Y-14298528D01*
X9748334Y-14298528D02*
X9738810Y-14317575D01*
X9738810Y-14317575D02*
X9729286Y-14327099D01*
X9729286Y-14327099D02*
X9710238Y-14336623D01*
X9710238Y-14336623D02*
X9691191Y-14336623D01*
X9691191Y-14336623D02*
X9672143Y-14327099D01*
X9672143Y-14327099D02*
X9662619Y-14317575D01*
X9662619Y-14317575D02*
X9653095Y-14298528D01*
X9653095Y-14298528D02*
X9643572Y-14260432D01*
X9643572Y-14260432D02*
X9643572Y-14212813D01*
X9643572Y-14212813D02*
X9653095Y-14174718D01*
X9653095Y-14174718D02*
X9662619Y-14155670D01*
X9662619Y-14155670D02*
X9672143Y-14146147D01*
X9672143Y-14146147D02*
X9691191Y-14136623D01*
X9824524Y-14136623D02*
X9948334Y-14136623D01*
X9948334Y-14136623D02*
X9881667Y-14212813D01*
X9881667Y-14212813D02*
X9910238Y-14212813D01*
X9910238Y-14212813D02*
X9929286Y-14222337D01*
X9929286Y-14222337D02*
X9938810Y-14231861D01*
X9938810Y-14231861D02*
X9948334Y-14250909D01*
X9948334Y-14250909D02*
X9948334Y-14298528D01*
X9948334Y-14298528D02*
X9938810Y-14317575D01*
X9938810Y-14317575D02*
X9929286Y-14327099D01*
X9929286Y-14327099D02*
X9910238Y-14336623D01*
X9910238Y-14336623D02*
X9853095Y-14336623D01*
X9853095Y-14336623D02*
X9834048Y-14327099D01*
X9834048Y-14327099D02*
X9824524Y-14317575D01*
X10043572Y-14336623D02*
X10081667Y-14336623D01*
X10081667Y-14336623D02*
X10100715Y-14327099D01*
X10100715Y-14327099D02*
X10110238Y-14317575D01*
X10110238Y-14317575D02*
X10129286Y-14289004D01*
X10129286Y-14289004D02*
X10138810Y-14250909D01*
X10138810Y-14250909D02*
X10138810Y-14174718D01*
X10138810Y-14174718D02*
X10129286Y-14155670D01*
X10129286Y-14155670D02*
X10119762Y-14146147D01*
X10119762Y-14146147D02*
X10100715Y-14136623D01*
X10100715Y-14136623D02*
X10062619Y-14136623D01*
X10062619Y-14136623D02*
X10043572Y-14146147D01*
X10043572Y-14146147D02*
X10034048Y-14155670D01*
X10034048Y-14155670D02*
X10024524Y-14174718D01*
X10024524Y-14174718D02*
X10024524Y-14222337D01*
X10024524Y-14222337D02*
X10034048Y-14241385D01*
X10034048Y-14241385D02*
X10043572Y-14250909D01*
X10043572Y-14250909D02*
X10062619Y-14260432D01*
X10062619Y-14260432D02*
X10100715Y-14260432D01*
X10100715Y-14260432D02*
X10119762Y-14250909D01*
X10119762Y-14250909D02*
X10129286Y-14241385D01*
X10129286Y-14241385D02*
X10138810Y-14222337D01*
X10310238Y-14203289D02*
X10310238Y-14336623D01*
X10262619Y-14127099D02*
X10215000Y-14269956D01*
X10215000Y-14269956D02*
X10338810Y-14269956D01*
X10405476Y-14136623D02*
X10405476Y-14174718D01*
X10481667Y-14136623D02*
X10481667Y-14174718D01*
X10776905Y-14412813D02*
X10767381Y-14403289D01*
X10767381Y-14403289D02*
X10748334Y-14374718D01*
X10748334Y-14374718D02*
X10738810Y-14355670D01*
X10738810Y-14355670D02*
X10729286Y-14327099D01*
X10729286Y-14327099D02*
X10719762Y-14279480D01*
X10719762Y-14279480D02*
X10719762Y-14241385D01*
X10719762Y-14241385D02*
X10729286Y-14193766D01*
X10729286Y-14193766D02*
X10738810Y-14165194D01*
X10738810Y-14165194D02*
X10748334Y-14146147D01*
X10748334Y-14146147D02*
X10767381Y-14117575D01*
X10767381Y-14117575D02*
X10776905Y-14108051D01*
X10948334Y-14136623D02*
X10853096Y-14136623D01*
X10853096Y-14136623D02*
X10843572Y-14231861D01*
X10843572Y-14231861D02*
X10853096Y-14222337D01*
X10853096Y-14222337D02*
X10872143Y-14212813D01*
X10872143Y-14212813D02*
X10919762Y-14212813D01*
X10919762Y-14212813D02*
X10938810Y-14222337D01*
X10938810Y-14222337D02*
X10948334Y-14231861D01*
X10948334Y-14231861D02*
X10957857Y-14250909D01*
X10957857Y-14250909D02*
X10957857Y-14298528D01*
X10957857Y-14298528D02*
X10948334Y-14317575D01*
X10948334Y-14317575D02*
X10938810Y-14327099D01*
X10938810Y-14327099D02*
X10919762Y-14336623D01*
X10919762Y-14336623D02*
X10872143Y-14336623D01*
X10872143Y-14336623D02*
X10853096Y-14327099D01*
X10853096Y-14327099D02*
X10843572Y-14317575D01*
X11053096Y-14336623D02*
X11091191Y-14336623D01*
X11091191Y-14336623D02*
X11110238Y-14327099D01*
X11110238Y-14327099D02*
X11119762Y-14317575D01*
X11119762Y-14317575D02*
X11138810Y-14289004D01*
X11138810Y-14289004D02*
X11148334Y-14250909D01*
X11148334Y-14250909D02*
X11148334Y-14174718D01*
X11148334Y-14174718D02*
X11138810Y-14155670D01*
X11138810Y-14155670D02*
X11129286Y-14146147D01*
X11129286Y-14146147D02*
X11110238Y-14136623D01*
X11110238Y-14136623D02*
X11072143Y-14136623D01*
X11072143Y-14136623D02*
X11053096Y-14146147D01*
X11053096Y-14146147D02*
X11043572Y-14155670D01*
X11043572Y-14155670D02*
X11034048Y-14174718D01*
X11034048Y-14174718D02*
X11034048Y-14222337D01*
X11034048Y-14222337D02*
X11043572Y-14241385D01*
X11043572Y-14241385D02*
X11053096Y-14250909D01*
X11053096Y-14250909D02*
X11072143Y-14260432D01*
X11072143Y-14260432D02*
X11110238Y-14260432D01*
X11110238Y-14260432D02*
X11129286Y-14250909D01*
X11129286Y-14250909D02*
X11138810Y-14241385D01*
X11138810Y-14241385D02*
X11148334Y-14222337D01*
X11386429Y-14336623D02*
X11386429Y-14136623D01*
X11472143Y-14336623D02*
X11472143Y-14231861D01*
X11472143Y-14231861D02*
X11462619Y-14212813D01*
X11462619Y-14212813D02*
X11443572Y-14203289D01*
X11443572Y-14203289D02*
X11415000Y-14203289D01*
X11415000Y-14203289D02*
X11395953Y-14212813D01*
X11395953Y-14212813D02*
X11386429Y-14222337D01*
X11595953Y-14336623D02*
X11576905Y-14327099D01*
X11576905Y-14327099D02*
X11567381Y-14317575D01*
X11567381Y-14317575D02*
X11557857Y-14298528D01*
X11557857Y-14298528D02*
X11557857Y-14241385D01*
X11557857Y-14241385D02*
X11567381Y-14222337D01*
X11567381Y-14222337D02*
X11576905Y-14212813D01*
X11576905Y-14212813D02*
X11595953Y-14203289D01*
X11595953Y-14203289D02*
X11624524Y-14203289D01*
X11624524Y-14203289D02*
X11643572Y-14212813D01*
X11643572Y-14212813D02*
X11653096Y-14222337D01*
X11653096Y-14222337D02*
X11662619Y-14241385D01*
X11662619Y-14241385D02*
X11662619Y-14298528D01*
X11662619Y-14298528D02*
X11653096Y-14317575D01*
X11653096Y-14317575D02*
X11643572Y-14327099D01*
X11643572Y-14327099D02*
X11624524Y-14336623D01*
X11624524Y-14336623D02*
X11595953Y-14336623D01*
X11776905Y-14336623D02*
X11757857Y-14327099D01*
X11757857Y-14327099D02*
X11748334Y-14308051D01*
X11748334Y-14308051D02*
X11748334Y-14136623D01*
X11929286Y-14327099D02*
X11910238Y-14336623D01*
X11910238Y-14336623D02*
X11872143Y-14336623D01*
X11872143Y-14336623D02*
X11853096Y-14327099D01*
X11853096Y-14327099D02*
X11843572Y-14308051D01*
X11843572Y-14308051D02*
X11843572Y-14231861D01*
X11843572Y-14231861D02*
X11853096Y-14212813D01*
X11853096Y-14212813D02*
X11872143Y-14203289D01*
X11872143Y-14203289D02*
X11910238Y-14203289D01*
X11910238Y-14203289D02*
X11929286Y-14212813D01*
X11929286Y-14212813D02*
X11938810Y-14231861D01*
X11938810Y-14231861D02*
X11938810Y-14250909D01*
X11938810Y-14250909D02*
X11843572Y-14269956D01*
X12015000Y-14327099D02*
X12034048Y-14336623D01*
X12034048Y-14336623D02*
X12072143Y-14336623D01*
X12072143Y-14336623D02*
X12091191Y-14327099D01*
X12091191Y-14327099D02*
X12100715Y-14308051D01*
X12100715Y-14308051D02*
X12100715Y-14298528D01*
X12100715Y-14298528D02*
X12091191Y-14279480D01*
X12091191Y-14279480D02*
X12072143Y-14269956D01*
X12072143Y-14269956D02*
X12043572Y-14269956D01*
X12043572Y-14269956D02*
X12024524Y-14260432D01*
X12024524Y-14260432D02*
X12015000Y-14241385D01*
X12015000Y-14241385D02*
X12015000Y-14231861D01*
X12015000Y-14231861D02*
X12024524Y-14212813D01*
X12024524Y-14212813D02*
X12043572Y-14203289D01*
X12043572Y-14203289D02*
X12072143Y-14203289D01*
X12072143Y-14203289D02*
X12091191Y-14212813D01*
X12167381Y-14412813D02*
X12176905Y-14403289D01*
X12176905Y-14403289D02*
X12195953Y-14374718D01*
X12195953Y-14374718D02*
X12205477Y-14355670D01*
X12205477Y-14355670D02*
X12215000Y-14327099D01*
X12215000Y-14327099D02*
X12224524Y-14279480D01*
X12224524Y-14279480D02*
X12224524Y-14241385D01*
X12224524Y-14241385D02*
X12215000Y-14193766D01*
X12215000Y-14193766D02*
X12205477Y-14165194D01*
X12205477Y-14165194D02*
X12195953Y-14146147D01*
X12195953Y-14146147D02*
X12176905Y-14117575D01*
X12176905Y-14117575D02*
X12167381Y-14108051D01*
D14*
X7195962Y-14554061D02*
X7195962Y-14462137D01*
X7104038Y-14462137D01*
X7104038Y-14554061D01*
X7195962Y-14554061D01*
D11*
X7567381Y-14600623D02*
X7453095Y-14600623D01*
X7510238Y-14600623D02*
X7510238Y-14400623D01*
X7510238Y-14400623D02*
X7491190Y-14429194D01*
X7491190Y-14429194D02*
X7472143Y-14448242D01*
X7472143Y-14448242D02*
X7453095Y-14457766D01*
X7653095Y-14581575D02*
X7662619Y-14591099D01*
X7662619Y-14591099D02*
X7653095Y-14600623D01*
X7653095Y-14600623D02*
X7643571Y-14591099D01*
X7643571Y-14591099D02*
X7653095Y-14581575D01*
X7653095Y-14581575D02*
X7653095Y-14600623D01*
X7729286Y-14400623D02*
X7853095Y-14400623D01*
X7853095Y-14400623D02*
X7786428Y-14476813D01*
X7786428Y-14476813D02*
X7815000Y-14476813D01*
X7815000Y-14476813D02*
X7834048Y-14486337D01*
X7834048Y-14486337D02*
X7843571Y-14495861D01*
X7843571Y-14495861D02*
X7853095Y-14514909D01*
X7853095Y-14514909D02*
X7853095Y-14562528D01*
X7853095Y-14562528D02*
X7843571Y-14581575D01*
X7843571Y-14581575D02*
X7834048Y-14591099D01*
X7834048Y-14591099D02*
X7815000Y-14600623D01*
X7815000Y-14600623D02*
X7757857Y-14600623D01*
X7757857Y-14600623D02*
X7738809Y-14591099D01*
X7738809Y-14591099D02*
X7729286Y-14581575D01*
X7976905Y-14400623D02*
X7995952Y-14400623D01*
X7995952Y-14400623D02*
X8015000Y-14410147D01*
X8015000Y-14410147D02*
X8024524Y-14419670D01*
X8024524Y-14419670D02*
X8034048Y-14438718D01*
X8034048Y-14438718D02*
X8043571Y-14476813D01*
X8043571Y-14476813D02*
X8043571Y-14524432D01*
X8043571Y-14524432D02*
X8034048Y-14562528D01*
X8034048Y-14562528D02*
X8024524Y-14581575D01*
X8024524Y-14581575D02*
X8015000Y-14591099D01*
X8015000Y-14591099D02*
X7995952Y-14600623D01*
X7995952Y-14600623D02*
X7976905Y-14600623D01*
X7976905Y-14600623D02*
X7957857Y-14591099D01*
X7957857Y-14591099D02*
X7948333Y-14581575D01*
X7948333Y-14581575D02*
X7938809Y-14562528D01*
X7938809Y-14562528D02*
X7929286Y-14524432D01*
X7929286Y-14524432D02*
X7929286Y-14476813D01*
X7929286Y-14476813D02*
X7938809Y-14438718D01*
X7938809Y-14438718D02*
X7948333Y-14419670D01*
X7948333Y-14419670D02*
X7957857Y-14410147D01*
X7957857Y-14410147D02*
X7976905Y-14400623D01*
X8167381Y-14400623D02*
X8186429Y-14400623D01*
X8186429Y-14400623D02*
X8205476Y-14410147D01*
X8205476Y-14410147D02*
X8215000Y-14419670D01*
X8215000Y-14419670D02*
X8224524Y-14438718D01*
X8224524Y-14438718D02*
X8234048Y-14476813D01*
X8234048Y-14476813D02*
X8234048Y-14524432D01*
X8234048Y-14524432D02*
X8224524Y-14562528D01*
X8224524Y-14562528D02*
X8215000Y-14581575D01*
X8215000Y-14581575D02*
X8205476Y-14591099D01*
X8205476Y-14591099D02*
X8186429Y-14600623D01*
X8186429Y-14600623D02*
X8167381Y-14600623D01*
X8167381Y-14600623D02*
X8148333Y-14591099D01*
X8148333Y-14591099D02*
X8138809Y-14581575D01*
X8138809Y-14581575D02*
X8129286Y-14562528D01*
X8129286Y-14562528D02*
X8119762Y-14524432D01*
X8119762Y-14524432D02*
X8119762Y-14476813D01*
X8119762Y-14476813D02*
X8129286Y-14438718D01*
X8129286Y-14438718D02*
X8138809Y-14419670D01*
X8138809Y-14419670D02*
X8148333Y-14410147D01*
X8148333Y-14410147D02*
X8167381Y-14400623D01*
X8319762Y-14600623D02*
X8319762Y-14467289D01*
X8319762Y-14486337D02*
X8329286Y-14476813D01*
X8329286Y-14476813D02*
X8348333Y-14467289D01*
X8348333Y-14467289D02*
X8376905Y-14467289D01*
X8376905Y-14467289D02*
X8395952Y-14476813D01*
X8395952Y-14476813D02*
X8405476Y-14495861D01*
X8405476Y-14495861D02*
X8405476Y-14600623D01*
X8405476Y-14495861D02*
X8415000Y-14476813D01*
X8415000Y-14476813D02*
X8434048Y-14467289D01*
X8434048Y-14467289D02*
X8462619Y-14467289D01*
X8462619Y-14467289D02*
X8481667Y-14476813D01*
X8481667Y-14476813D02*
X8491191Y-14495861D01*
X8491191Y-14495861D02*
X8491191Y-14600623D01*
X8586429Y-14600623D02*
X8586429Y-14467289D01*
X8586429Y-14486337D02*
X8595952Y-14476813D01*
X8595952Y-14476813D02*
X8615000Y-14467289D01*
X8615000Y-14467289D02*
X8643572Y-14467289D01*
X8643572Y-14467289D02*
X8662619Y-14476813D01*
X8662619Y-14476813D02*
X8672143Y-14495861D01*
X8672143Y-14495861D02*
X8672143Y-14600623D01*
X8672143Y-14495861D02*
X8681667Y-14476813D01*
X8681667Y-14476813D02*
X8700714Y-14467289D01*
X8700714Y-14467289D02*
X8729286Y-14467289D01*
X8729286Y-14467289D02*
X8748333Y-14476813D01*
X8748333Y-14476813D02*
X8757857Y-14495861D01*
X8757857Y-14495861D02*
X8757857Y-14600623D01*
X9148333Y-14391099D02*
X8976905Y-14648242D01*
X9405476Y-14400623D02*
X9424524Y-14400623D01*
X9424524Y-14400623D02*
X9443572Y-14410147D01*
X9443572Y-14410147D02*
X9453095Y-14419670D01*
X9453095Y-14419670D02*
X9462619Y-14438718D01*
X9462619Y-14438718D02*
X9472143Y-14476813D01*
X9472143Y-14476813D02*
X9472143Y-14524432D01*
X9472143Y-14524432D02*
X9462619Y-14562528D01*
X9462619Y-14562528D02*
X9453095Y-14581575D01*
X9453095Y-14581575D02*
X9443572Y-14591099D01*
X9443572Y-14591099D02*
X9424524Y-14600623D01*
X9424524Y-14600623D02*
X9405476Y-14600623D01*
X9405476Y-14600623D02*
X9386429Y-14591099D01*
X9386429Y-14591099D02*
X9376905Y-14581575D01*
X9376905Y-14581575D02*
X9367381Y-14562528D01*
X9367381Y-14562528D02*
X9357857Y-14524432D01*
X9357857Y-14524432D02*
X9357857Y-14476813D01*
X9357857Y-14476813D02*
X9367381Y-14438718D01*
X9367381Y-14438718D02*
X9376905Y-14419670D01*
X9376905Y-14419670D02*
X9386429Y-14410147D01*
X9386429Y-14410147D02*
X9405476Y-14400623D01*
X9557857Y-14581575D02*
X9567381Y-14591099D01*
X9567381Y-14591099D02*
X9557857Y-14600623D01*
X9557857Y-14600623D02*
X9548334Y-14591099D01*
X9548334Y-14591099D02*
X9557857Y-14581575D01*
X9557857Y-14581575D02*
X9557857Y-14600623D01*
X9691191Y-14400623D02*
X9710238Y-14400623D01*
X9710238Y-14400623D02*
X9729286Y-14410147D01*
X9729286Y-14410147D02*
X9738810Y-14419670D01*
X9738810Y-14419670D02*
X9748334Y-14438718D01*
X9748334Y-14438718D02*
X9757857Y-14476813D01*
X9757857Y-14476813D02*
X9757857Y-14524432D01*
X9757857Y-14524432D02*
X9748334Y-14562528D01*
X9748334Y-14562528D02*
X9738810Y-14581575D01*
X9738810Y-14581575D02*
X9729286Y-14591099D01*
X9729286Y-14591099D02*
X9710238Y-14600623D01*
X9710238Y-14600623D02*
X9691191Y-14600623D01*
X9691191Y-14600623D02*
X9672143Y-14591099D01*
X9672143Y-14591099D02*
X9662619Y-14581575D01*
X9662619Y-14581575D02*
X9653095Y-14562528D01*
X9653095Y-14562528D02*
X9643572Y-14524432D01*
X9643572Y-14524432D02*
X9643572Y-14476813D01*
X9643572Y-14476813D02*
X9653095Y-14438718D01*
X9653095Y-14438718D02*
X9662619Y-14419670D01*
X9662619Y-14419670D02*
X9672143Y-14410147D01*
X9672143Y-14410147D02*
X9691191Y-14400623D01*
X9938810Y-14400623D02*
X9843572Y-14400623D01*
X9843572Y-14400623D02*
X9834048Y-14495861D01*
X9834048Y-14495861D02*
X9843572Y-14486337D01*
X9843572Y-14486337D02*
X9862619Y-14476813D01*
X9862619Y-14476813D02*
X9910238Y-14476813D01*
X9910238Y-14476813D02*
X9929286Y-14486337D01*
X9929286Y-14486337D02*
X9938810Y-14495861D01*
X9938810Y-14495861D02*
X9948334Y-14514909D01*
X9948334Y-14514909D02*
X9948334Y-14562528D01*
X9948334Y-14562528D02*
X9938810Y-14581575D01*
X9938810Y-14581575D02*
X9929286Y-14591099D01*
X9929286Y-14591099D02*
X9910238Y-14600623D01*
X9910238Y-14600623D02*
X9862619Y-14600623D01*
X9862619Y-14600623D02*
X9843572Y-14591099D01*
X9843572Y-14591099D02*
X9834048Y-14581575D01*
X10138810Y-14600623D02*
X10024524Y-14600623D01*
X10081667Y-14600623D02*
X10081667Y-14400623D01*
X10081667Y-14400623D02*
X10062619Y-14429194D01*
X10062619Y-14429194D02*
X10043572Y-14448242D01*
X10043572Y-14448242D02*
X10024524Y-14457766D01*
X10215000Y-14419670D02*
X10224524Y-14410147D01*
X10224524Y-14410147D02*
X10243572Y-14400623D01*
X10243572Y-14400623D02*
X10291191Y-14400623D01*
X10291191Y-14400623D02*
X10310238Y-14410147D01*
X10310238Y-14410147D02*
X10319762Y-14419670D01*
X10319762Y-14419670D02*
X10329286Y-14438718D01*
X10329286Y-14438718D02*
X10329286Y-14457766D01*
X10329286Y-14457766D02*
X10319762Y-14486337D01*
X10319762Y-14486337D02*
X10205476Y-14600623D01*
X10205476Y-14600623D02*
X10329286Y-14600623D01*
X10405476Y-14400623D02*
X10405476Y-14438718D01*
X10481667Y-14400623D02*
X10481667Y-14438718D01*
X10776905Y-14676813D02*
X10767381Y-14667289D01*
X10767381Y-14667289D02*
X10748334Y-14638718D01*
X10748334Y-14638718D02*
X10738810Y-14619670D01*
X10738810Y-14619670D02*
X10729286Y-14591099D01*
X10729286Y-14591099D02*
X10719762Y-14543480D01*
X10719762Y-14543480D02*
X10719762Y-14505385D01*
X10719762Y-14505385D02*
X10729286Y-14457766D01*
X10729286Y-14457766D02*
X10738810Y-14429194D01*
X10738810Y-14429194D02*
X10748334Y-14410147D01*
X10748334Y-14410147D02*
X10767381Y-14381575D01*
X10767381Y-14381575D02*
X10776905Y-14372051D01*
X10938810Y-14400623D02*
X10900715Y-14400623D01*
X10900715Y-14400623D02*
X10881667Y-14410147D01*
X10881667Y-14410147D02*
X10872143Y-14419670D01*
X10872143Y-14419670D02*
X10853096Y-14448242D01*
X10853096Y-14448242D02*
X10843572Y-14486337D01*
X10843572Y-14486337D02*
X10843572Y-14562528D01*
X10843572Y-14562528D02*
X10853096Y-14581575D01*
X10853096Y-14581575D02*
X10862619Y-14591099D01*
X10862619Y-14591099D02*
X10881667Y-14600623D01*
X10881667Y-14600623D02*
X10919762Y-14600623D01*
X10919762Y-14600623D02*
X10938810Y-14591099D01*
X10938810Y-14591099D02*
X10948334Y-14581575D01*
X10948334Y-14581575D02*
X10957857Y-14562528D01*
X10957857Y-14562528D02*
X10957857Y-14514909D01*
X10957857Y-14514909D02*
X10948334Y-14495861D01*
X10948334Y-14495861D02*
X10938810Y-14486337D01*
X10938810Y-14486337D02*
X10919762Y-14476813D01*
X10919762Y-14476813D02*
X10881667Y-14476813D01*
X10881667Y-14476813D02*
X10862619Y-14486337D01*
X10862619Y-14486337D02*
X10853096Y-14495861D01*
X10853096Y-14495861D02*
X10843572Y-14514909D01*
X11072143Y-14486337D02*
X11053096Y-14476813D01*
X11053096Y-14476813D02*
X11043572Y-14467289D01*
X11043572Y-14467289D02*
X11034048Y-14448242D01*
X11034048Y-14448242D02*
X11034048Y-14438718D01*
X11034048Y-14438718D02*
X11043572Y-14419670D01*
X11043572Y-14419670D02*
X11053096Y-14410147D01*
X11053096Y-14410147D02*
X11072143Y-14400623D01*
X11072143Y-14400623D02*
X11110238Y-14400623D01*
X11110238Y-14400623D02*
X11129286Y-14410147D01*
X11129286Y-14410147D02*
X11138810Y-14419670D01*
X11138810Y-14419670D02*
X11148334Y-14438718D01*
X11148334Y-14438718D02*
X11148334Y-14448242D01*
X11148334Y-14448242D02*
X11138810Y-14467289D01*
X11138810Y-14467289D02*
X11129286Y-14476813D01*
X11129286Y-14476813D02*
X11110238Y-14486337D01*
X11110238Y-14486337D02*
X11072143Y-14486337D01*
X11072143Y-14486337D02*
X11053096Y-14495861D01*
X11053096Y-14495861D02*
X11043572Y-14505385D01*
X11043572Y-14505385D02*
X11034048Y-14524432D01*
X11034048Y-14524432D02*
X11034048Y-14562528D01*
X11034048Y-14562528D02*
X11043572Y-14581575D01*
X11043572Y-14581575D02*
X11053096Y-14591099D01*
X11053096Y-14591099D02*
X11072143Y-14600623D01*
X11072143Y-14600623D02*
X11110238Y-14600623D01*
X11110238Y-14600623D02*
X11129286Y-14591099D01*
X11129286Y-14591099D02*
X11138810Y-14581575D01*
X11138810Y-14581575D02*
X11148334Y-14562528D01*
X11148334Y-14562528D02*
X11148334Y-14524432D01*
X11148334Y-14524432D02*
X11138810Y-14505385D01*
X11138810Y-14505385D02*
X11129286Y-14495861D01*
X11129286Y-14495861D02*
X11110238Y-14486337D01*
X11386429Y-14600623D02*
X11386429Y-14400623D01*
X11472143Y-14600623D02*
X11472143Y-14495861D01*
X11472143Y-14495861D02*
X11462619Y-14476813D01*
X11462619Y-14476813D02*
X11443572Y-14467289D01*
X11443572Y-14467289D02*
X11415000Y-14467289D01*
X11415000Y-14467289D02*
X11395953Y-14476813D01*
X11395953Y-14476813D02*
X11386429Y-14486337D01*
X11595953Y-14600623D02*
X11576905Y-14591099D01*
X11576905Y-14591099D02*
X11567381Y-14581575D01*
X11567381Y-14581575D02*
X11557857Y-14562528D01*
X11557857Y-14562528D02*
X11557857Y-14505385D01*
X11557857Y-14505385D02*
X11567381Y-14486337D01*
X11567381Y-14486337D02*
X11576905Y-14476813D01*
X11576905Y-14476813D02*
X11595953Y-14467289D01*
X11595953Y-14467289D02*
X11624524Y-14467289D01*
X11624524Y-14467289D02*
X11643572Y-14476813D01*
X11643572Y-14476813D02*
X11653096Y-14486337D01*
X11653096Y-14486337D02*
X11662619Y-14505385D01*
X11662619Y-14505385D02*
X11662619Y-14562528D01*
X11662619Y-14562528D02*
X11653096Y-14581575D01*
X11653096Y-14581575D02*
X11643572Y-14591099D01*
X11643572Y-14591099D02*
X11624524Y-14600623D01*
X11624524Y-14600623D02*
X11595953Y-14600623D01*
X11776905Y-14600623D02*
X11757857Y-14591099D01*
X11757857Y-14591099D02*
X11748334Y-14572051D01*
X11748334Y-14572051D02*
X11748334Y-14400623D01*
X11929286Y-14591099D02*
X11910238Y-14600623D01*
X11910238Y-14600623D02*
X11872143Y-14600623D01*
X11872143Y-14600623D02*
X11853096Y-14591099D01*
X11853096Y-14591099D02*
X11843572Y-14572051D01*
X11843572Y-14572051D02*
X11843572Y-14495861D01*
X11843572Y-14495861D02*
X11853096Y-14476813D01*
X11853096Y-14476813D02*
X11872143Y-14467289D01*
X11872143Y-14467289D02*
X11910238Y-14467289D01*
X11910238Y-14467289D02*
X11929286Y-14476813D01*
X11929286Y-14476813D02*
X11938810Y-14495861D01*
X11938810Y-14495861D02*
X11938810Y-14514909D01*
X11938810Y-14514909D02*
X11843572Y-14533956D01*
X12015000Y-14591099D02*
X12034048Y-14600623D01*
X12034048Y-14600623D02*
X12072143Y-14600623D01*
X12072143Y-14600623D02*
X12091191Y-14591099D01*
X12091191Y-14591099D02*
X12100715Y-14572051D01*
X12100715Y-14572051D02*
X12100715Y-14562528D01*
X12100715Y-14562528D02*
X12091191Y-14543480D01*
X12091191Y-14543480D02*
X12072143Y-14533956D01*
X12072143Y-14533956D02*
X12043572Y-14533956D01*
X12043572Y-14533956D02*
X12024524Y-14524432D01*
X12024524Y-14524432D02*
X12015000Y-14505385D01*
X12015000Y-14505385D02*
X12015000Y-14495861D01*
X12015000Y-14495861D02*
X12024524Y-14476813D01*
X12024524Y-14476813D02*
X12043572Y-14467289D01*
X12043572Y-14467289D02*
X12072143Y-14467289D01*
X12072143Y-14467289D02*
X12091191Y-14476813D01*
X12167381Y-14676813D02*
X12176905Y-14667289D01*
X12176905Y-14667289D02*
X12195953Y-14638718D01*
X12195953Y-14638718D02*
X12205477Y-14619670D01*
X12205477Y-14619670D02*
X12215000Y-14591099D01*
X12215000Y-14591099D02*
X12224524Y-14543480D01*
X12224524Y-14543480D02*
X12224524Y-14505385D01*
X12224524Y-14505385D02*
X12215000Y-14457766D01*
X12215000Y-14457766D02*
X12205477Y-14429194D01*
X12205477Y-14429194D02*
X12195953Y-14410147D01*
X12195953Y-14410147D02*
X12176905Y-14381575D01*
X12176905Y-14381575D02*
X12167381Y-14372051D01*
X7115000Y-14872099D02*
X7215000Y-14772099D01*
X7115000Y-14672099D01*
X7015000Y-14772099D01*
X7115000Y-14872099D01*
X7548333Y-14664623D02*
X7510238Y-14664623D01*
X7510238Y-14664623D02*
X7491190Y-14674147D01*
X7491190Y-14674147D02*
X7481667Y-14683670D01*
X7481667Y-14683670D02*
X7462619Y-14712242D01*
X7462619Y-14712242D02*
X7453095Y-14750337D01*
X7453095Y-14750337D02*
X7453095Y-14826528D01*
X7453095Y-14826528D02*
X7462619Y-14845575D01*
X7462619Y-14845575D02*
X7472143Y-14855099D01*
X7472143Y-14855099D02*
X7491190Y-14864623D01*
X7491190Y-14864623D02*
X7529286Y-14864623D01*
X7529286Y-14864623D02*
X7548333Y-14855099D01*
X7548333Y-14855099D02*
X7557857Y-14845575D01*
X7557857Y-14845575D02*
X7567381Y-14826528D01*
X7567381Y-14826528D02*
X7567381Y-14778909D01*
X7567381Y-14778909D02*
X7557857Y-14759861D01*
X7557857Y-14759861D02*
X7548333Y-14750337D01*
X7548333Y-14750337D02*
X7529286Y-14740813D01*
X7529286Y-14740813D02*
X7491190Y-14740813D01*
X7491190Y-14740813D02*
X7472143Y-14750337D01*
X7472143Y-14750337D02*
X7462619Y-14759861D01*
X7462619Y-14759861D02*
X7453095Y-14778909D01*
X7653095Y-14845575D02*
X7662619Y-14855099D01*
X7662619Y-14855099D02*
X7653095Y-14864623D01*
X7653095Y-14864623D02*
X7643571Y-14855099D01*
X7643571Y-14855099D02*
X7653095Y-14845575D01*
X7653095Y-14845575D02*
X7653095Y-14864623D01*
X7834048Y-14731289D02*
X7834048Y-14864623D01*
X7786428Y-14655099D02*
X7738809Y-14797956D01*
X7738809Y-14797956D02*
X7862619Y-14797956D01*
X7976905Y-14664623D02*
X7995952Y-14664623D01*
X7995952Y-14664623D02*
X8015000Y-14674147D01*
X8015000Y-14674147D02*
X8024524Y-14683670D01*
X8024524Y-14683670D02*
X8034048Y-14702718D01*
X8034048Y-14702718D02*
X8043571Y-14740813D01*
X8043571Y-14740813D02*
X8043571Y-14788432D01*
X8043571Y-14788432D02*
X8034048Y-14826528D01*
X8034048Y-14826528D02*
X8024524Y-14845575D01*
X8024524Y-14845575D02*
X8015000Y-14855099D01*
X8015000Y-14855099D02*
X7995952Y-14864623D01*
X7995952Y-14864623D02*
X7976905Y-14864623D01*
X7976905Y-14864623D02*
X7957857Y-14855099D01*
X7957857Y-14855099D02*
X7948333Y-14845575D01*
X7948333Y-14845575D02*
X7938809Y-14826528D01*
X7938809Y-14826528D02*
X7929286Y-14788432D01*
X7929286Y-14788432D02*
X7929286Y-14740813D01*
X7929286Y-14740813D02*
X7938809Y-14702718D01*
X7938809Y-14702718D02*
X7948333Y-14683670D01*
X7948333Y-14683670D02*
X7957857Y-14674147D01*
X7957857Y-14674147D02*
X7976905Y-14664623D01*
X8167381Y-14664623D02*
X8186429Y-14664623D01*
X8186429Y-14664623D02*
X8205476Y-14674147D01*
X8205476Y-14674147D02*
X8215000Y-14683670D01*
X8215000Y-14683670D02*
X8224524Y-14702718D01*
X8224524Y-14702718D02*
X8234048Y-14740813D01*
X8234048Y-14740813D02*
X8234048Y-14788432D01*
X8234048Y-14788432D02*
X8224524Y-14826528D01*
X8224524Y-14826528D02*
X8215000Y-14845575D01*
X8215000Y-14845575D02*
X8205476Y-14855099D01*
X8205476Y-14855099D02*
X8186429Y-14864623D01*
X8186429Y-14864623D02*
X8167381Y-14864623D01*
X8167381Y-14864623D02*
X8148333Y-14855099D01*
X8148333Y-14855099D02*
X8138809Y-14845575D01*
X8138809Y-14845575D02*
X8129286Y-14826528D01*
X8129286Y-14826528D02*
X8119762Y-14788432D01*
X8119762Y-14788432D02*
X8119762Y-14740813D01*
X8119762Y-14740813D02*
X8129286Y-14702718D01*
X8129286Y-14702718D02*
X8138809Y-14683670D01*
X8138809Y-14683670D02*
X8148333Y-14674147D01*
X8148333Y-14674147D02*
X8167381Y-14664623D01*
X8319762Y-14864623D02*
X8319762Y-14731289D01*
X8319762Y-14750337D02*
X8329286Y-14740813D01*
X8329286Y-14740813D02*
X8348333Y-14731289D01*
X8348333Y-14731289D02*
X8376905Y-14731289D01*
X8376905Y-14731289D02*
X8395952Y-14740813D01*
X8395952Y-14740813D02*
X8405476Y-14759861D01*
X8405476Y-14759861D02*
X8405476Y-14864623D01*
X8405476Y-14759861D02*
X8415000Y-14740813D01*
X8415000Y-14740813D02*
X8434048Y-14731289D01*
X8434048Y-14731289D02*
X8462619Y-14731289D01*
X8462619Y-14731289D02*
X8481667Y-14740813D01*
X8481667Y-14740813D02*
X8491191Y-14759861D01*
X8491191Y-14759861D02*
X8491191Y-14864623D01*
X8586429Y-14864623D02*
X8586429Y-14731289D01*
X8586429Y-14750337D02*
X8595952Y-14740813D01*
X8595952Y-14740813D02*
X8615000Y-14731289D01*
X8615000Y-14731289D02*
X8643572Y-14731289D01*
X8643572Y-14731289D02*
X8662619Y-14740813D01*
X8662619Y-14740813D02*
X8672143Y-14759861D01*
X8672143Y-14759861D02*
X8672143Y-14864623D01*
X8672143Y-14759861D02*
X8681667Y-14740813D01*
X8681667Y-14740813D02*
X8700714Y-14731289D01*
X8700714Y-14731289D02*
X8729286Y-14731289D01*
X8729286Y-14731289D02*
X8748333Y-14740813D01*
X8748333Y-14740813D02*
X8757857Y-14759861D01*
X8757857Y-14759861D02*
X8757857Y-14864623D01*
X9148333Y-14655099D02*
X8976905Y-14912242D01*
X9405476Y-14664623D02*
X9424524Y-14664623D01*
X9424524Y-14664623D02*
X9443572Y-14674147D01*
X9443572Y-14674147D02*
X9453095Y-14683670D01*
X9453095Y-14683670D02*
X9462619Y-14702718D01*
X9462619Y-14702718D02*
X9472143Y-14740813D01*
X9472143Y-14740813D02*
X9472143Y-14788432D01*
X9472143Y-14788432D02*
X9462619Y-14826528D01*
X9462619Y-14826528D02*
X9453095Y-14845575D01*
X9453095Y-14845575D02*
X9443572Y-14855099D01*
X9443572Y-14855099D02*
X9424524Y-14864623D01*
X9424524Y-14864623D02*
X9405476Y-14864623D01*
X9405476Y-14864623D02*
X9386429Y-14855099D01*
X9386429Y-14855099D02*
X9376905Y-14845575D01*
X9376905Y-14845575D02*
X9367381Y-14826528D01*
X9367381Y-14826528D02*
X9357857Y-14788432D01*
X9357857Y-14788432D02*
X9357857Y-14740813D01*
X9357857Y-14740813D02*
X9367381Y-14702718D01*
X9367381Y-14702718D02*
X9376905Y-14683670D01*
X9376905Y-14683670D02*
X9386429Y-14674147D01*
X9386429Y-14674147D02*
X9405476Y-14664623D01*
X9557857Y-14845575D02*
X9567381Y-14855099D01*
X9567381Y-14855099D02*
X9557857Y-14864623D01*
X9557857Y-14864623D02*
X9548334Y-14855099D01*
X9548334Y-14855099D02*
X9557857Y-14845575D01*
X9557857Y-14845575D02*
X9557857Y-14864623D01*
X9643572Y-14683670D02*
X9653095Y-14674147D01*
X9653095Y-14674147D02*
X9672143Y-14664623D01*
X9672143Y-14664623D02*
X9719762Y-14664623D01*
X9719762Y-14664623D02*
X9738810Y-14674147D01*
X9738810Y-14674147D02*
X9748334Y-14683670D01*
X9748334Y-14683670D02*
X9757857Y-14702718D01*
X9757857Y-14702718D02*
X9757857Y-14721766D01*
X9757857Y-14721766D02*
X9748334Y-14750337D01*
X9748334Y-14750337D02*
X9634048Y-14864623D01*
X9634048Y-14864623D02*
X9757857Y-14864623D01*
X9938810Y-14664623D02*
X9843572Y-14664623D01*
X9843572Y-14664623D02*
X9834048Y-14759861D01*
X9834048Y-14759861D02*
X9843572Y-14750337D01*
X9843572Y-14750337D02*
X9862619Y-14740813D01*
X9862619Y-14740813D02*
X9910238Y-14740813D01*
X9910238Y-14740813D02*
X9929286Y-14750337D01*
X9929286Y-14750337D02*
X9938810Y-14759861D01*
X9938810Y-14759861D02*
X9948334Y-14778909D01*
X9948334Y-14778909D02*
X9948334Y-14826528D01*
X9948334Y-14826528D02*
X9938810Y-14845575D01*
X9938810Y-14845575D02*
X9929286Y-14855099D01*
X9929286Y-14855099D02*
X9910238Y-14864623D01*
X9910238Y-14864623D02*
X9862619Y-14864623D01*
X9862619Y-14864623D02*
X9843572Y-14855099D01*
X9843572Y-14855099D02*
X9834048Y-14845575D01*
X10024524Y-14683670D02*
X10034048Y-14674147D01*
X10034048Y-14674147D02*
X10053095Y-14664623D01*
X10053095Y-14664623D02*
X10100715Y-14664623D01*
X10100715Y-14664623D02*
X10119762Y-14674147D01*
X10119762Y-14674147D02*
X10129286Y-14683670D01*
X10129286Y-14683670D02*
X10138810Y-14702718D01*
X10138810Y-14702718D02*
X10138810Y-14721766D01*
X10138810Y-14721766D02*
X10129286Y-14750337D01*
X10129286Y-14750337D02*
X10015000Y-14864623D01*
X10015000Y-14864623D02*
X10138810Y-14864623D01*
X10262619Y-14664623D02*
X10281667Y-14664623D01*
X10281667Y-14664623D02*
X10300715Y-14674147D01*
X10300715Y-14674147D02*
X10310238Y-14683670D01*
X10310238Y-14683670D02*
X10319762Y-14702718D01*
X10319762Y-14702718D02*
X10329286Y-14740813D01*
X10329286Y-14740813D02*
X10329286Y-14788432D01*
X10329286Y-14788432D02*
X10319762Y-14826528D01*
X10319762Y-14826528D02*
X10310238Y-14845575D01*
X10310238Y-14845575D02*
X10300715Y-14855099D01*
X10300715Y-14855099D02*
X10281667Y-14864623D01*
X10281667Y-14864623D02*
X10262619Y-14864623D01*
X10262619Y-14864623D02*
X10243572Y-14855099D01*
X10243572Y-14855099D02*
X10234048Y-14845575D01*
X10234048Y-14845575D02*
X10224524Y-14826528D01*
X10224524Y-14826528D02*
X10215000Y-14788432D01*
X10215000Y-14788432D02*
X10215000Y-14740813D01*
X10215000Y-14740813D02*
X10224524Y-14702718D01*
X10224524Y-14702718D02*
X10234048Y-14683670D01*
X10234048Y-14683670D02*
X10243572Y-14674147D01*
X10243572Y-14674147D02*
X10262619Y-14664623D01*
X10405476Y-14664623D02*
X10405476Y-14702718D01*
X10481667Y-14664623D02*
X10481667Y-14702718D01*
X10776905Y-14940813D02*
X10767381Y-14931289D01*
X10767381Y-14931289D02*
X10748334Y-14902718D01*
X10748334Y-14902718D02*
X10738810Y-14883670D01*
X10738810Y-14883670D02*
X10729286Y-14855099D01*
X10729286Y-14855099D02*
X10719762Y-14807480D01*
X10719762Y-14807480D02*
X10719762Y-14769385D01*
X10719762Y-14769385D02*
X10729286Y-14721766D01*
X10729286Y-14721766D02*
X10738810Y-14693194D01*
X10738810Y-14693194D02*
X10748334Y-14674147D01*
X10748334Y-14674147D02*
X10767381Y-14645575D01*
X10767381Y-14645575D02*
X10776905Y-14636051D01*
X10843572Y-14683670D02*
X10853096Y-14674147D01*
X10853096Y-14674147D02*
X10872143Y-14664623D01*
X10872143Y-14664623D02*
X10919762Y-14664623D01*
X10919762Y-14664623D02*
X10938810Y-14674147D01*
X10938810Y-14674147D02*
X10948334Y-14683670D01*
X10948334Y-14683670D02*
X10957857Y-14702718D01*
X10957857Y-14702718D02*
X10957857Y-14721766D01*
X10957857Y-14721766D02*
X10948334Y-14750337D01*
X10948334Y-14750337D02*
X10834048Y-14864623D01*
X10834048Y-14864623D02*
X10957857Y-14864623D01*
X11195953Y-14864623D02*
X11195953Y-14664623D01*
X11281667Y-14864623D02*
X11281667Y-14759861D01*
X11281667Y-14759861D02*
X11272143Y-14740813D01*
X11272143Y-14740813D02*
X11253096Y-14731289D01*
X11253096Y-14731289D02*
X11224524Y-14731289D01*
X11224524Y-14731289D02*
X11205476Y-14740813D01*
X11205476Y-14740813D02*
X11195953Y-14750337D01*
X11405476Y-14864623D02*
X11386429Y-14855099D01*
X11386429Y-14855099D02*
X11376905Y-14845575D01*
X11376905Y-14845575D02*
X11367381Y-14826528D01*
X11367381Y-14826528D02*
X11367381Y-14769385D01*
X11367381Y-14769385D02*
X11376905Y-14750337D01*
X11376905Y-14750337D02*
X11386429Y-14740813D01*
X11386429Y-14740813D02*
X11405476Y-14731289D01*
X11405476Y-14731289D02*
X11434048Y-14731289D01*
X11434048Y-14731289D02*
X11453096Y-14740813D01*
X11453096Y-14740813D02*
X11462619Y-14750337D01*
X11462619Y-14750337D02*
X11472143Y-14769385D01*
X11472143Y-14769385D02*
X11472143Y-14826528D01*
X11472143Y-14826528D02*
X11462619Y-14845575D01*
X11462619Y-14845575D02*
X11453096Y-14855099D01*
X11453096Y-14855099D02*
X11434048Y-14864623D01*
X11434048Y-14864623D02*
X11405476Y-14864623D01*
X11586429Y-14864623D02*
X11567381Y-14855099D01*
X11567381Y-14855099D02*
X11557857Y-14836051D01*
X11557857Y-14836051D02*
X11557857Y-14664623D01*
X11738810Y-14855099D02*
X11719762Y-14864623D01*
X11719762Y-14864623D02*
X11681667Y-14864623D01*
X11681667Y-14864623D02*
X11662619Y-14855099D01*
X11662619Y-14855099D02*
X11653096Y-14836051D01*
X11653096Y-14836051D02*
X11653096Y-14759861D01*
X11653096Y-14759861D02*
X11662619Y-14740813D01*
X11662619Y-14740813D02*
X11681667Y-14731289D01*
X11681667Y-14731289D02*
X11719762Y-14731289D01*
X11719762Y-14731289D02*
X11738810Y-14740813D01*
X11738810Y-14740813D02*
X11748334Y-14759861D01*
X11748334Y-14759861D02*
X11748334Y-14778909D01*
X11748334Y-14778909D02*
X11653096Y-14797956D01*
X11824524Y-14855099D02*
X11843572Y-14864623D01*
X11843572Y-14864623D02*
X11881667Y-14864623D01*
X11881667Y-14864623D02*
X11900715Y-14855099D01*
X11900715Y-14855099D02*
X11910238Y-14836051D01*
X11910238Y-14836051D02*
X11910238Y-14826528D01*
X11910238Y-14826528D02*
X11900715Y-14807480D01*
X11900715Y-14807480D02*
X11881667Y-14797956D01*
X11881667Y-14797956D02*
X11853096Y-14797956D01*
X11853096Y-14797956D02*
X11834048Y-14788432D01*
X11834048Y-14788432D02*
X11824524Y-14769385D01*
X11824524Y-14769385D02*
X11824524Y-14759861D01*
X11824524Y-14759861D02*
X11834048Y-14740813D01*
X11834048Y-14740813D02*
X11853096Y-14731289D01*
X11853096Y-14731289D02*
X11881667Y-14731289D01*
X11881667Y-14731289D02*
X11900715Y-14740813D01*
X11976905Y-14940813D02*
X11986429Y-14931289D01*
X11986429Y-14931289D02*
X12005477Y-14902718D01*
X12005477Y-14902718D02*
X12015000Y-14883670D01*
X12015000Y-14883670D02*
X12024524Y-14855099D01*
X12024524Y-14855099D02*
X12034048Y-14807480D01*
X12034048Y-14807480D02*
X12034048Y-14769385D01*
X12034048Y-14769385D02*
X12024524Y-14721766D01*
X12024524Y-14721766D02*
X12015000Y-14693194D01*
X12015000Y-14693194D02*
X12005477Y-14674147D01*
X12005477Y-14674147D02*
X11986429Y-14645575D01*
X11986429Y-14645575D02*
X11976905Y-14636051D01*
M02*
