G04 #@! TF.GenerationSoftware,KiCad,Pcbnew,7.0.2*
G04 #@! TF.CreationDate,2024-09-16T15:05:59-05:00*
G04 #@! TF.ProjectId,PDM v3.0,50444d20-7633-42e3-902e-6b696361645f,rev?*
G04 #@! TF.SameCoordinates,Original*
G04 #@! TF.FileFunction,Soldermask,Bot*
G04 #@! TF.FilePolarity,Negative*
%FSLAX46Y46*%
G04 Gerber Fmt 4.6, Leading zero omitted, Abs format (unit mm)*
G04 Created by KiCad (PCBNEW 7.0.2) date 2024-09-16 15:05:59*
%MOMM*%
%LPD*%
G01*
G04 APERTURE LIST*
G04 Aperture macros list*
%AMRoundRect*
0 Rectangle with rounded corners*
0 $1 Rounding radius*
0 $2 $3 $4 $5 $6 $7 $8 $9 X,Y pos of 4 corners*
0 Add a 4 corners polygon primitive as box body*
4,1,4,$2,$3,$4,$5,$6,$7,$8,$9,$2,$3,0*
0 Add four circle primitives for the rounded corners*
1,1,$1+$1,$2,$3*
1,1,$1+$1,$4,$5*
1,1,$1+$1,$6,$7*
1,1,$1+$1,$8,$9*
0 Add four rect primitives between the rounded corners*
20,1,$1+$1,$2,$3,$4,$5,0*
20,1,$1+$1,$4,$5,$6,$7,0*
20,1,$1+$1,$6,$7,$8,$9,0*
20,1,$1+$1,$8,$9,$2,$3,0*%
%AMFreePoly0*
4,1,19,0.500000,-0.750000,0.000000,-0.750000,0.000000,-0.744911,-0.071157,-0.744911,-0.207708,-0.704816,-0.327430,-0.627875,-0.420627,-0.520320,-0.479746,-0.390866,-0.500000,-0.250000,-0.500000,0.250000,-0.479746,0.390866,-0.420627,0.520320,-0.327430,0.627875,-0.207708,0.704816,-0.071157,0.744911,0.000000,0.744911,0.000000,0.750000,0.500000,0.750000,0.500000,-0.750000,0.500000,-0.750000,
$1*%
%AMFreePoly1*
4,1,19,0.000000,0.744911,0.071157,0.744911,0.207708,0.704816,0.327430,0.627875,0.420627,0.520320,0.479746,0.390866,0.500000,0.250000,0.500000,-0.250000,0.479746,-0.390866,0.420627,-0.520320,0.327430,-0.627875,0.207708,-0.704816,0.071157,-0.744911,0.000000,-0.744911,0.000000,-0.750000,-0.500000,-0.750000,-0.500000,0.750000,0.000000,0.750000,0.000000,0.744911,0.000000,0.744911,
$1*%
%AMFreePoly2*
4,1,21,1.372500,0.787500,0.862500,0.787500,0.862500,0.532500,1.372500,0.532500,1.372500,0.127500,0.862500,0.127500,0.862500,-0.127500,1.372500,-0.127500,1.372500,-0.532500,0.862500,-0.532500,0.862500,-0.787500,1.372500,-0.787500,1.372500,-1.195000,0.612500,-1.195000,0.612500,-1.117500,-0.862500,-1.117500,-0.862500,1.117500,0.612500,1.117500,0.612500,1.195000,1.372500,1.195000,
1.372500,0.787500,1.372500,0.787500,$1*%
G04 Aperture macros list end*
%ADD10C,0.751000*%
%ADD11C,12.800000*%
%ADD12C,2.374900*%
%ADD13C,0.990600*%
%ADD14C,3.200000*%
%ADD15C,3.700000*%
%ADD16C,1.400000*%
%ADD17C,3.300000*%
%ADD18RoundRect,0.102000X-0.975000X-0.975000X0.975000X-0.975000X0.975000X0.975000X-0.975000X0.975000X0*%
%ADD19C,2.154000*%
%ADD20O,1.700000X1.700000*%
%ADD21O,1.350000X1.350000*%
%ADD22C,1.420000*%
%ADD23RoundRect,0.200000X0.200000X0.275000X-0.200000X0.275000X-0.200000X-0.275000X0.200000X-0.275000X0*%
%ADD24RoundRect,0.200000X-0.275000X0.200000X-0.275000X-0.200000X0.275000X-0.200000X0.275000X0.200000X0*%
%ADD25RoundRect,0.200000X0.275000X-0.200000X0.275000X0.200000X-0.275000X0.200000X-0.275000X-0.200000X0*%
%ADD26RoundRect,0.225000X-0.225000X-0.250000X0.225000X-0.250000X0.225000X0.250000X-0.225000X0.250000X0*%
%ADD27RoundRect,0.225000X0.250000X-0.225000X0.250000X0.225000X-0.250000X0.225000X-0.250000X-0.225000X0*%
%ADD28RoundRect,0.225000X0.225000X0.250000X-0.225000X0.250000X-0.225000X-0.250000X0.225000X-0.250000X0*%
%ADD29RoundRect,0.200000X-0.200000X-0.275000X0.200000X-0.275000X0.200000X0.275000X-0.200000X0.275000X0*%
%ADD30RoundRect,0.225000X-0.250000X0.225000X-0.250000X-0.225000X0.250000X-0.225000X0.250000X0.225000X0*%
%ADD31R,1.450000X0.450000*%
%ADD32RoundRect,0.150000X0.587500X0.150000X-0.587500X0.150000X-0.587500X-0.150000X0.587500X-0.150000X0*%
%ADD33R,0.650000X0.400000*%
%ADD34R,1.200000X1.400000*%
%ADD35RoundRect,0.140000X-0.140000X-0.170000X0.140000X-0.170000X0.140000X0.170000X-0.140000X0.170000X0*%
%ADD36RoundRect,0.150000X0.825000X0.150000X-0.825000X0.150000X-0.825000X-0.150000X0.825000X-0.150000X0*%
%ADD37R,0.400000X0.650000*%
%ADD38R,2.000000X1.500000*%
%ADD39R,2.000000X3.800000*%
%ADD40RoundRect,0.150000X0.150000X-0.512500X0.150000X0.512500X-0.150000X0.512500X-0.150000X-0.512500X0*%
%ADD41RoundRect,0.140000X0.140000X0.170000X-0.140000X0.170000X-0.140000X-0.170000X0.140000X-0.170000X0*%
%ADD42FreePoly0,90.000000*%
%ADD43FreePoly1,90.000000*%
%ADD44RoundRect,0.150000X-0.587500X-0.150000X0.587500X-0.150000X0.587500X0.150000X-0.587500X0.150000X0*%
%ADD45RoundRect,0.250000X-0.250000X-0.475000X0.250000X-0.475000X0.250000X0.475000X-0.250000X0.475000X0*%
%ADD46RoundRect,0.150000X-0.825000X-0.150000X0.825000X-0.150000X0.825000X0.150000X-0.825000X0.150000X0*%
%ADD47RoundRect,0.075000X-0.075000X0.725000X-0.075000X-0.725000X0.075000X-0.725000X0.075000X0.725000X0*%
%ADD48RoundRect,0.075000X-0.725000X0.075000X-0.725000X-0.075000X0.725000X-0.075000X0.725000X0.075000X0*%
%ADD49R,0.405000X0.990000*%
%ADD50FreePoly2,90.000000*%
G04 APERTURE END LIST*
D10*
X82136633Y-82625991D02*
G75*
G03*
X82136633Y-82625991I-375500J0D01*
G01*
X82136633Y-75641991D02*
G75*
G03*
X82136633Y-75641991I-375500J0D01*
G01*
X132884088Y-99220757D02*
G75*
G03*
X132884088Y-99220757I-375500J0D01*
G01*
X118280088Y-99220757D02*
G75*
G03*
X118280088Y-99220757I-375500J0D01*
G01*
D11*
X208035637Y-110340991D03*
D12*
X93173133Y-82320991D03*
D13*
X93173133Y-84860991D03*
D12*
X93173133Y-87400991D03*
X96348133Y-82320991D03*
X96348133Y-87400991D03*
D13*
X98253133Y-83844991D03*
X98253133Y-85876991D03*
D14*
X219439637Y-125808991D03*
X76905637Y-44750991D03*
D15*
X109431588Y-70247757D03*
D14*
X219439637Y-44750991D03*
D15*
X109431588Y-101235757D03*
X99173133Y-69620991D03*
X140419588Y-101235757D03*
D16*
X81761133Y-82625991D03*
X81761133Y-75641991D03*
D17*
X104915637Y-126000991D03*
X143415637Y-126000991D03*
D18*
X112165637Y-111500991D03*
D19*
X115165637Y-111500991D03*
X118165637Y-111500991D03*
X121165637Y-111500991D03*
X124165637Y-111500991D03*
X127165637Y-111500991D03*
X130165637Y-111500991D03*
X133165637Y-111500991D03*
X136165637Y-111500991D03*
X113665637Y-114000991D03*
X116665637Y-114000991D03*
X119665637Y-114000991D03*
X122665637Y-114000991D03*
X125665637Y-114000991D03*
X128665637Y-114000991D03*
X131665637Y-114000991D03*
X134665637Y-114000991D03*
X113665637Y-117000991D03*
X116665637Y-117000991D03*
X119665637Y-117000991D03*
X122665637Y-117000991D03*
X125665637Y-117000991D03*
X128665637Y-117000991D03*
X131665637Y-117000991D03*
X134665637Y-117000991D03*
X112165637Y-119500991D03*
X115165637Y-119500991D03*
X118165637Y-119500991D03*
X121165637Y-119500991D03*
X124165637Y-119500991D03*
X127165637Y-119500991D03*
X130165637Y-119500991D03*
X133165637Y-119500991D03*
X136165637Y-119500991D03*
D20*
X86625637Y-58710991D03*
X89165637Y-58710991D03*
X91705637Y-58710991D03*
X94245637Y-58710991D03*
X96785637Y-58710991D03*
X99325637Y-58710991D03*
X101865637Y-58710991D03*
X104405637Y-58710991D03*
X106945637Y-58710991D03*
X109485637Y-58710991D03*
X112025637Y-58710991D03*
X114565637Y-58710991D03*
X117105637Y-58710991D03*
X117105637Y-43470991D03*
X114565637Y-43470991D03*
X112025637Y-43470991D03*
X109485637Y-43470991D03*
X106945637Y-43470991D03*
X104405637Y-43470991D03*
X101865637Y-43470991D03*
X99325637Y-43470991D03*
X96785637Y-43470991D03*
X94245637Y-43470991D03*
X91705637Y-43470991D03*
X122185637Y-58710991D03*
X124725637Y-58710991D03*
X127265637Y-58710991D03*
X129805637Y-58710991D03*
X132345637Y-58710991D03*
X134885637Y-58710991D03*
X137425637Y-58710991D03*
X139965637Y-58710991D03*
X142505637Y-58710991D03*
X142505637Y-43470991D03*
X139965637Y-43470991D03*
X137425637Y-43470991D03*
X134885637Y-43470991D03*
X132345637Y-43470991D03*
X129805637Y-43470991D03*
X127265637Y-43470991D03*
X124725637Y-43470991D03*
X122185637Y-43470991D03*
X119645637Y-43470991D03*
X86625637Y-43470991D03*
X84085637Y-58710991D03*
X84085637Y-43470991D03*
X89165637Y-43470991D03*
X119645637Y-58710991D03*
D21*
X97055637Y-45925991D03*
X97055637Y-47925991D03*
X97055637Y-49925991D03*
X99055637Y-49925991D03*
X99055637Y-47925991D03*
X99055637Y-45925991D03*
D20*
X86625637Y-46010991D03*
X90435637Y-55670991D03*
X92975637Y-55670991D03*
X95515637Y-55670991D03*
X98055637Y-55670991D03*
X100595637Y-55670991D03*
X129805637Y-56170991D03*
X129805637Y-53630991D03*
X129805637Y-51090991D03*
X129805637Y-48550991D03*
X129805637Y-46010991D03*
D15*
X140419588Y-70247757D03*
X81087133Y-69620991D03*
D14*
X76905637Y-126200991D03*
D17*
X152115637Y-126000991D03*
X190615637Y-126000991D03*
D18*
X159365637Y-111500991D03*
D19*
X162365637Y-111500991D03*
X165365637Y-111500991D03*
X168365637Y-111500991D03*
X171365637Y-111500991D03*
X174365637Y-111500991D03*
X177365637Y-111500991D03*
X180365637Y-111500991D03*
X183365637Y-111500991D03*
X160865637Y-114000991D03*
X163865637Y-114000991D03*
X166865637Y-114000991D03*
X169865637Y-114000991D03*
X172865637Y-114000991D03*
X175865637Y-114000991D03*
X178865637Y-114000991D03*
X181865637Y-114000991D03*
X160865637Y-117000991D03*
X163865637Y-117000991D03*
X166865637Y-117000991D03*
X169865637Y-117000991D03*
X172865637Y-117000991D03*
X175865637Y-117000991D03*
X178865637Y-117000991D03*
X181865637Y-117000991D03*
X159365637Y-119500991D03*
X162365637Y-119500991D03*
X165365637Y-119500991D03*
X168365637Y-119500991D03*
X171365637Y-119500991D03*
X174365637Y-119500991D03*
X177365637Y-119500991D03*
X180365637Y-119500991D03*
X183365637Y-119500991D03*
D11*
X208046686Y-65341991D03*
D22*
X132511588Y-99220757D03*
X117901588Y-99220757D03*
D15*
X99173133Y-93770991D03*
X81087133Y-93770991D03*
D23*
X82908495Y-113775276D03*
X81258495Y-113775276D03*
D24*
X186655637Y-48215991D03*
X186655637Y-49865991D03*
D25*
X122325637Y-66260991D03*
X122325637Y-64610991D03*
D26*
X140005637Y-45680991D03*
X141555637Y-45680991D03*
D27*
X128181164Y-95575757D03*
X128181164Y-94025757D03*
D24*
X119783164Y-74143757D03*
X119783164Y-75793757D03*
X123849637Y-64610991D03*
X123849637Y-66260991D03*
D28*
X118125637Y-52310991D03*
X116575637Y-52310991D03*
D29*
X105685637Y-51670991D03*
X107335637Y-51670991D03*
D30*
X126681164Y-94035757D03*
X126681164Y-95585757D03*
D28*
X107260637Y-49680991D03*
X105710637Y-49680991D03*
D31*
X212075637Y-81126991D03*
X212075637Y-81776991D03*
X212075637Y-82426991D03*
X212075637Y-83076991D03*
X207675637Y-83076991D03*
X207675637Y-82426991D03*
X207675637Y-81776991D03*
X207675637Y-81126991D03*
D32*
X118725637Y-48730991D03*
X118725637Y-50630991D03*
X116850637Y-49680991D03*
D33*
X158903588Y-92261491D03*
X158903588Y-91611491D03*
X158903588Y-90961491D03*
X160803588Y-90961491D03*
X160803588Y-91611491D03*
X160803588Y-92261491D03*
D23*
X82908495Y-103710991D03*
X81258495Y-103710991D03*
D25*
X120575637Y-50425991D03*
X120575637Y-48775991D03*
D29*
X196583588Y-86828491D03*
X198233588Y-86828491D03*
D23*
X160803588Y-93841491D03*
X159153588Y-93841491D03*
D26*
X87248091Y-104460991D03*
X88798091Y-104460991D03*
D34*
X116143164Y-74437757D03*
X116143164Y-72237757D03*
X117843164Y-72237757D03*
X117843164Y-74437757D03*
D23*
X102343591Y-100107991D03*
X100693591Y-100107991D03*
X91503133Y-75937415D03*
X89853133Y-75937415D03*
D33*
X158903588Y-100695991D03*
X158903588Y-100045991D03*
X158903588Y-99395991D03*
X160803588Y-99395991D03*
X160803588Y-100045991D03*
X160803588Y-100695991D03*
X158903588Y-83872991D03*
X158903588Y-83222991D03*
X158903588Y-82572991D03*
X160803588Y-82572991D03*
X160803588Y-83222991D03*
X160803588Y-83872991D03*
D24*
X98691198Y-112085430D03*
X98691198Y-113735430D03*
X188635637Y-48225991D03*
X188635637Y-49875991D03*
D23*
X82908495Y-117800991D03*
X81258495Y-117800991D03*
D31*
X139005164Y-77975757D03*
X139005164Y-77325757D03*
X139005164Y-76675757D03*
X139005164Y-76025757D03*
X143405164Y-76025757D03*
X143405164Y-76675757D03*
X143405164Y-77325757D03*
X143405164Y-77975757D03*
D35*
X116510164Y-70459757D03*
X117470164Y-70459757D03*
D29*
X196648588Y-103638491D03*
X198298588Y-103638491D03*
D33*
X198548588Y-96841491D03*
X198548588Y-97491491D03*
X198548588Y-98141491D03*
X196648588Y-98141491D03*
X196648588Y-97491491D03*
X196648588Y-96841491D03*
D24*
X90991091Y-101160991D03*
X90991091Y-102810991D03*
D36*
X212581637Y-85422991D03*
X212581637Y-86692991D03*
X212581637Y-87962991D03*
X212581637Y-89232991D03*
X212581637Y-90502991D03*
X212581637Y-91772991D03*
X212581637Y-93042991D03*
X212581637Y-94312991D03*
X207631637Y-94312991D03*
X207631637Y-93042991D03*
X207631637Y-91772991D03*
X207631637Y-90502991D03*
X207631637Y-89232991D03*
X207631637Y-87962991D03*
X207631637Y-86692991D03*
X207631637Y-85422991D03*
D23*
X160803588Y-77064491D03*
X159153588Y-77064491D03*
D28*
X145145637Y-52530991D03*
X143595637Y-52530991D03*
D37*
X95904294Y-115992755D03*
X96554294Y-115992755D03*
X97204294Y-115992755D03*
X97204294Y-117892755D03*
X96554294Y-117892755D03*
X95904294Y-117892755D03*
D23*
X82908495Y-109749562D03*
X81258495Y-109749562D03*
D24*
X98728294Y-117453755D03*
X98728294Y-119103755D03*
D38*
X141375637Y-47880991D03*
X141375637Y-50180991D03*
D39*
X135075637Y-50180991D03*
D38*
X141375637Y-52480991D03*
D24*
X94410294Y-116183755D03*
X94410294Y-117833755D03*
D23*
X82908495Y-111762419D03*
X81258495Y-111762419D03*
X102333591Y-104067991D03*
X100683591Y-104067991D03*
D31*
X139005164Y-93955757D03*
X139005164Y-93305757D03*
X139005164Y-92655757D03*
X139005164Y-92005757D03*
X143405164Y-92005757D03*
X143405164Y-92655757D03*
X143405164Y-93305757D03*
X143405164Y-93955757D03*
D28*
X118085637Y-47040991D03*
X116535637Y-47040991D03*
X110510637Y-94750991D03*
X108960637Y-94750991D03*
D26*
X100813591Y-102137991D03*
X102363591Y-102137991D03*
D40*
X97138294Y-113828255D03*
X96188294Y-113828255D03*
X95238294Y-113828255D03*
X95238294Y-111553255D03*
X96188294Y-111553255D03*
X97138294Y-111553255D03*
D26*
X108960637Y-96330991D03*
X110510637Y-96330991D03*
D33*
X127469588Y-102875757D03*
X127469588Y-103525757D03*
X127469588Y-104175757D03*
X125569588Y-104175757D03*
X125569588Y-103525757D03*
X125569588Y-102875757D03*
D41*
X118231164Y-76302757D03*
X117271164Y-76302757D03*
D29*
X107551164Y-83755757D03*
X109201164Y-83755757D03*
D42*
X86715637Y-89270991D03*
D43*
X86715637Y-87970991D03*
D44*
X87113591Y-102862991D03*
X87113591Y-100962991D03*
X88988591Y-101912991D03*
D33*
X198483588Y-88408491D03*
X198483588Y-89058491D03*
X198483588Y-89708491D03*
X196583588Y-89708491D03*
X196583588Y-89058491D03*
X196583588Y-88408491D03*
D25*
X151335637Y-108495991D03*
X151335637Y-106845991D03*
D45*
X89600133Y-73840991D03*
X91500133Y-73840991D03*
D23*
X82908495Y-107736705D03*
X81258495Y-107736705D03*
D29*
X105680637Y-47710991D03*
X107330637Y-47710991D03*
D36*
X143680164Y-80345757D03*
X143680164Y-81615757D03*
X143680164Y-82885757D03*
X143680164Y-84155757D03*
X143680164Y-85425757D03*
X143680164Y-86695757D03*
X143680164Y-87965757D03*
X143680164Y-89235757D03*
X138730164Y-89235757D03*
X138730164Y-87965757D03*
X138730164Y-86695757D03*
X138730164Y-85425757D03*
X138730164Y-84155757D03*
X138730164Y-82885757D03*
X138730164Y-81615757D03*
X138730164Y-80345757D03*
D46*
X109345637Y-51600991D03*
X109345637Y-50330991D03*
X109345637Y-49060991D03*
X109345637Y-47790991D03*
X114295637Y-47790991D03*
X114295637Y-49060991D03*
X114295637Y-50330991D03*
X114295637Y-51600991D03*
D33*
X198548588Y-105218491D03*
X198548588Y-105868491D03*
X198548588Y-106518491D03*
X196648588Y-106518491D03*
X196648588Y-105868491D03*
X196648588Y-105218491D03*
X158903588Y-75484491D03*
X158903588Y-74834491D03*
X158903588Y-74184491D03*
X160803588Y-74184491D03*
X160803588Y-74834491D03*
X160803588Y-75484491D03*
D47*
X112649164Y-79184757D03*
X113149164Y-79184757D03*
X113649164Y-79184757D03*
X114149164Y-79184757D03*
X114649164Y-79184757D03*
X115149164Y-79184757D03*
X115649164Y-79184757D03*
X116149164Y-79184757D03*
X116649164Y-79184757D03*
X117149164Y-79184757D03*
X117649164Y-79184757D03*
X118149164Y-79184757D03*
X118649164Y-79184757D03*
X119149164Y-79184757D03*
X119649164Y-79184757D03*
X120149164Y-79184757D03*
X120649164Y-79184757D03*
X121149164Y-79184757D03*
X121649164Y-79184757D03*
X122149164Y-79184757D03*
X122649164Y-79184757D03*
X123149164Y-79184757D03*
X123649164Y-79184757D03*
X124149164Y-79184757D03*
X124649164Y-79184757D03*
D48*
X126324164Y-80859757D03*
X126324164Y-81359757D03*
X126324164Y-81859757D03*
X126324164Y-82359757D03*
X126324164Y-82859757D03*
X126324164Y-83359757D03*
X126324164Y-83859757D03*
X126324164Y-84359757D03*
X126324164Y-84859757D03*
X126324164Y-85359757D03*
X126324164Y-85859757D03*
X126324164Y-86359757D03*
X126324164Y-86859757D03*
X126324164Y-87359757D03*
X126324164Y-87859757D03*
X126324164Y-88359757D03*
X126324164Y-88859757D03*
X126324164Y-89359757D03*
X126324164Y-89859757D03*
X126324164Y-90359757D03*
X126324164Y-90859757D03*
X126324164Y-91359757D03*
X126324164Y-91859757D03*
X126324164Y-92359757D03*
X126324164Y-92859757D03*
D47*
X124649164Y-94534757D03*
X124149164Y-94534757D03*
X123649164Y-94534757D03*
X123149164Y-94534757D03*
X122649164Y-94534757D03*
X122149164Y-94534757D03*
X121649164Y-94534757D03*
X121149164Y-94534757D03*
X120649164Y-94534757D03*
X120149164Y-94534757D03*
X119649164Y-94534757D03*
X119149164Y-94534757D03*
X118649164Y-94534757D03*
X118149164Y-94534757D03*
X117649164Y-94534757D03*
X117149164Y-94534757D03*
X116649164Y-94534757D03*
X116149164Y-94534757D03*
X115649164Y-94534757D03*
X115149164Y-94534757D03*
X114649164Y-94534757D03*
X114149164Y-94534757D03*
X113649164Y-94534757D03*
X113149164Y-94534757D03*
X112649164Y-94534757D03*
D48*
X110974164Y-92859757D03*
X110974164Y-92359757D03*
X110974164Y-91859757D03*
X110974164Y-91359757D03*
X110974164Y-90859757D03*
X110974164Y-90359757D03*
X110974164Y-89859757D03*
X110974164Y-89359757D03*
X110974164Y-88859757D03*
X110974164Y-88359757D03*
X110974164Y-87859757D03*
X110974164Y-87359757D03*
X110974164Y-86859757D03*
X110974164Y-86359757D03*
X110974164Y-85859757D03*
X110974164Y-85359757D03*
X110974164Y-84859757D03*
X110974164Y-84359757D03*
X110974164Y-83859757D03*
X110974164Y-83359757D03*
X110974164Y-82859757D03*
X110974164Y-82359757D03*
X110974164Y-81859757D03*
X110974164Y-81359757D03*
X110974164Y-80859757D03*
D31*
X212480686Y-96366991D03*
X212480686Y-97016991D03*
X212480686Y-97666991D03*
X212480686Y-98316991D03*
X208080686Y-98316991D03*
X208080686Y-97666991D03*
X208080686Y-97016991D03*
X208080686Y-96366991D03*
D33*
X198303588Y-80093491D03*
X198303588Y-80743491D03*
X198303588Y-81393491D03*
X196403588Y-81393491D03*
X196403588Y-80743491D03*
X196403588Y-80093491D03*
D23*
X160803588Y-85452991D03*
X159153588Y-85452991D03*
D24*
X190735637Y-48225991D03*
X190735637Y-49875991D03*
D49*
X148955637Y-109253491D03*
X148295637Y-109253491D03*
X147635637Y-109253491D03*
X146975637Y-109253491D03*
D50*
X147965637Y-107260991D03*
D29*
X196648588Y-95261491D03*
X198298588Y-95261491D03*
D23*
X82908495Y-115788133D03*
X81258495Y-115788133D03*
X82908495Y-105723848D03*
X81258495Y-105723848D03*
D29*
X196403588Y-78513491D03*
X198053588Y-78513491D03*
D26*
X82280637Y-46900991D03*
X83830637Y-46900991D03*
X87203091Y-99390991D03*
X88753091Y-99390991D03*
D49*
X154955637Y-109253491D03*
X154295637Y-109253491D03*
X153635637Y-109253491D03*
X152975637Y-109253491D03*
D50*
X153965637Y-107260991D03*
D36*
X98638591Y-100182991D03*
X98638591Y-101452991D03*
X98638591Y-102722991D03*
X98638591Y-103992991D03*
X93688591Y-103992991D03*
X93688591Y-102722991D03*
X93688591Y-101452991D03*
X93688591Y-100182991D03*
D24*
X184725637Y-48185991D03*
X184725637Y-49835991D03*
D23*
X160803588Y-102275991D03*
X159153588Y-102275991D03*
D25*
X145335637Y-108495991D03*
X145335637Y-106845991D03*
M02*
