%TF.GenerationSoftware,KiCad,Pcbnew,9.0.0*%
%TF.CreationDate,2026-02-21T16:02:36-06:00*%
%TF.ProjectId,TCMv3.0s,54434d76-332e-4307-932e-6b696361645f,rev?*%
%TF.SameCoordinates,Original*%
%TF.FileFunction,Legend,Top*%
%TF.FilePolarity,Positive*%
%FSLAX46Y46*%
G04 Gerber Fmt 4.6, Leading zero omitted, Abs format (unit mm)*
G04 Created by KiCad (PCBNEW 9.0.0) date 2026-02-21 16:02:36*
%MOMM*%
%LPD*%
G01*
G04 APERTURE LIST*
%ADD10C,0.150000*%
%ADD11C,0.120000*%
G04 APERTURE END LIST*
D10*
X148033333Y-83359580D02*
X147985714Y-83407200D01*
X147985714Y-83407200D02*
X147842857Y-83454819D01*
X147842857Y-83454819D02*
X147747619Y-83454819D01*
X147747619Y-83454819D02*
X147604762Y-83407200D01*
X147604762Y-83407200D02*
X147509524Y-83311961D01*
X147509524Y-83311961D02*
X147461905Y-83216723D01*
X147461905Y-83216723D02*
X147414286Y-83026247D01*
X147414286Y-83026247D02*
X147414286Y-82883390D01*
X147414286Y-82883390D02*
X147461905Y-82692914D01*
X147461905Y-82692914D02*
X147509524Y-82597676D01*
X147509524Y-82597676D02*
X147604762Y-82502438D01*
X147604762Y-82502438D02*
X147747619Y-82454819D01*
X147747619Y-82454819D02*
X147842857Y-82454819D01*
X147842857Y-82454819D02*
X147985714Y-82502438D01*
X147985714Y-82502438D02*
X148033333Y-82550057D01*
X148604762Y-82883390D02*
X148509524Y-82835771D01*
X148509524Y-82835771D02*
X148461905Y-82788152D01*
X148461905Y-82788152D02*
X148414286Y-82692914D01*
X148414286Y-82692914D02*
X148414286Y-82645295D01*
X148414286Y-82645295D02*
X148461905Y-82550057D01*
X148461905Y-82550057D02*
X148509524Y-82502438D01*
X148509524Y-82502438D02*
X148604762Y-82454819D01*
X148604762Y-82454819D02*
X148795238Y-82454819D01*
X148795238Y-82454819D02*
X148890476Y-82502438D01*
X148890476Y-82502438D02*
X148938095Y-82550057D01*
X148938095Y-82550057D02*
X148985714Y-82645295D01*
X148985714Y-82645295D02*
X148985714Y-82692914D01*
X148985714Y-82692914D02*
X148938095Y-82788152D01*
X148938095Y-82788152D02*
X148890476Y-82835771D01*
X148890476Y-82835771D02*
X148795238Y-82883390D01*
X148795238Y-82883390D02*
X148604762Y-82883390D01*
X148604762Y-82883390D02*
X148509524Y-82931009D01*
X148509524Y-82931009D02*
X148461905Y-82978628D01*
X148461905Y-82978628D02*
X148414286Y-83073866D01*
X148414286Y-83073866D02*
X148414286Y-83264342D01*
X148414286Y-83264342D02*
X148461905Y-83359580D01*
X148461905Y-83359580D02*
X148509524Y-83407200D01*
X148509524Y-83407200D02*
X148604762Y-83454819D01*
X148604762Y-83454819D02*
X148795238Y-83454819D01*
X148795238Y-83454819D02*
X148890476Y-83407200D01*
X148890476Y-83407200D02*
X148938095Y-83359580D01*
X148938095Y-83359580D02*
X148985714Y-83264342D01*
X148985714Y-83264342D02*
X148985714Y-83073866D01*
X148985714Y-83073866D02*
X148938095Y-82978628D01*
X148938095Y-82978628D02*
X148890476Y-82931009D01*
X148890476Y-82931009D02*
X148795238Y-82883390D01*
X160133333Y-86659580D02*
X160085714Y-86707200D01*
X160085714Y-86707200D02*
X159942857Y-86754819D01*
X159942857Y-86754819D02*
X159847619Y-86754819D01*
X159847619Y-86754819D02*
X159704762Y-86707200D01*
X159704762Y-86707200D02*
X159609524Y-86611961D01*
X159609524Y-86611961D02*
X159561905Y-86516723D01*
X159561905Y-86516723D02*
X159514286Y-86326247D01*
X159514286Y-86326247D02*
X159514286Y-86183390D01*
X159514286Y-86183390D02*
X159561905Y-85992914D01*
X159561905Y-85992914D02*
X159609524Y-85897676D01*
X159609524Y-85897676D02*
X159704762Y-85802438D01*
X159704762Y-85802438D02*
X159847619Y-85754819D01*
X159847619Y-85754819D02*
X159942857Y-85754819D01*
X159942857Y-85754819D02*
X160085714Y-85802438D01*
X160085714Y-85802438D02*
X160133333Y-85850057D01*
X160990476Y-85754819D02*
X160800000Y-85754819D01*
X160800000Y-85754819D02*
X160704762Y-85802438D01*
X160704762Y-85802438D02*
X160657143Y-85850057D01*
X160657143Y-85850057D02*
X160561905Y-85992914D01*
X160561905Y-85992914D02*
X160514286Y-86183390D01*
X160514286Y-86183390D02*
X160514286Y-86564342D01*
X160514286Y-86564342D02*
X160561905Y-86659580D01*
X160561905Y-86659580D02*
X160609524Y-86707200D01*
X160609524Y-86707200D02*
X160704762Y-86754819D01*
X160704762Y-86754819D02*
X160895238Y-86754819D01*
X160895238Y-86754819D02*
X160990476Y-86707200D01*
X160990476Y-86707200D02*
X161038095Y-86659580D01*
X161038095Y-86659580D02*
X161085714Y-86564342D01*
X161085714Y-86564342D02*
X161085714Y-86326247D01*
X161085714Y-86326247D02*
X161038095Y-86231009D01*
X161038095Y-86231009D02*
X160990476Y-86183390D01*
X160990476Y-86183390D02*
X160895238Y-86135771D01*
X160895238Y-86135771D02*
X160704762Y-86135771D01*
X160704762Y-86135771D02*
X160609524Y-86183390D01*
X160609524Y-86183390D02*
X160561905Y-86231009D01*
X160561905Y-86231009D02*
X160514286Y-86326247D01*
X142833333Y-75454819D02*
X142500000Y-74978628D01*
X142261905Y-75454819D02*
X142261905Y-74454819D01*
X142261905Y-74454819D02*
X142642857Y-74454819D01*
X142642857Y-74454819D02*
X142738095Y-74502438D01*
X142738095Y-74502438D02*
X142785714Y-74550057D01*
X142785714Y-74550057D02*
X142833333Y-74645295D01*
X142833333Y-74645295D02*
X142833333Y-74788152D01*
X142833333Y-74788152D02*
X142785714Y-74883390D01*
X142785714Y-74883390D02*
X142738095Y-74931009D01*
X142738095Y-74931009D02*
X142642857Y-74978628D01*
X142642857Y-74978628D02*
X142261905Y-74978628D01*
X143785714Y-75454819D02*
X143214286Y-75454819D01*
X143500000Y-75454819D02*
X143500000Y-74454819D01*
X143500000Y-74454819D02*
X143404762Y-74597676D01*
X143404762Y-74597676D02*
X143309524Y-74692914D01*
X143309524Y-74692914D02*
X143214286Y-74740533D01*
X128704416Y-130542319D02*
X128371083Y-130066128D01*
X128132988Y-130542319D02*
X128132988Y-129542319D01*
X128132988Y-129542319D02*
X128513940Y-129542319D01*
X128513940Y-129542319D02*
X128609178Y-129589938D01*
X128609178Y-129589938D02*
X128656797Y-129637557D01*
X128656797Y-129637557D02*
X128704416Y-129732795D01*
X128704416Y-129732795D02*
X128704416Y-129875652D01*
X128704416Y-129875652D02*
X128656797Y-129970890D01*
X128656797Y-129970890D02*
X128609178Y-130018509D01*
X128609178Y-130018509D02*
X128513940Y-130066128D01*
X128513940Y-130066128D02*
X128132988Y-130066128D01*
X129656797Y-130542319D02*
X129085369Y-130542319D01*
X129371083Y-130542319D02*
X129371083Y-129542319D01*
X129371083Y-129542319D02*
X129275845Y-129685176D01*
X129275845Y-129685176D02*
X129180607Y-129780414D01*
X129180607Y-129780414D02*
X129085369Y-129828033D01*
X130561559Y-129542319D02*
X130085369Y-129542319D01*
X130085369Y-129542319D02*
X130037750Y-130018509D01*
X130037750Y-130018509D02*
X130085369Y-129970890D01*
X130085369Y-129970890D02*
X130180607Y-129923271D01*
X130180607Y-129923271D02*
X130418702Y-129923271D01*
X130418702Y-129923271D02*
X130513940Y-129970890D01*
X130513940Y-129970890D02*
X130561559Y-130018509D01*
X130561559Y-130018509D02*
X130609178Y-130113747D01*
X130609178Y-130113747D02*
X130609178Y-130351842D01*
X130609178Y-130351842D02*
X130561559Y-130447080D01*
X130561559Y-130447080D02*
X130513940Y-130494700D01*
X130513940Y-130494700D02*
X130418702Y-130542319D01*
X130418702Y-130542319D02*
X130180607Y-130542319D01*
X130180607Y-130542319D02*
X130085369Y-130494700D01*
X130085369Y-130494700D02*
X130037750Y-130447080D01*
X116357142Y-67534580D02*
X116309523Y-67582200D01*
X116309523Y-67582200D02*
X116166666Y-67629819D01*
X116166666Y-67629819D02*
X116071428Y-67629819D01*
X116071428Y-67629819D02*
X115928571Y-67582200D01*
X115928571Y-67582200D02*
X115833333Y-67486961D01*
X115833333Y-67486961D02*
X115785714Y-67391723D01*
X115785714Y-67391723D02*
X115738095Y-67201247D01*
X115738095Y-67201247D02*
X115738095Y-67058390D01*
X115738095Y-67058390D02*
X115785714Y-66867914D01*
X115785714Y-66867914D02*
X115833333Y-66772676D01*
X115833333Y-66772676D02*
X115928571Y-66677438D01*
X115928571Y-66677438D02*
X116071428Y-66629819D01*
X116071428Y-66629819D02*
X116166666Y-66629819D01*
X116166666Y-66629819D02*
X116309523Y-66677438D01*
X116309523Y-66677438D02*
X116357142Y-66725057D01*
X116738095Y-66725057D02*
X116785714Y-66677438D01*
X116785714Y-66677438D02*
X116880952Y-66629819D01*
X116880952Y-66629819D02*
X117119047Y-66629819D01*
X117119047Y-66629819D02*
X117214285Y-66677438D01*
X117214285Y-66677438D02*
X117261904Y-66725057D01*
X117261904Y-66725057D02*
X117309523Y-66820295D01*
X117309523Y-66820295D02*
X117309523Y-66915533D01*
X117309523Y-66915533D02*
X117261904Y-67058390D01*
X117261904Y-67058390D02*
X116690476Y-67629819D01*
X116690476Y-67629819D02*
X117309523Y-67629819D01*
X117690476Y-66725057D02*
X117738095Y-66677438D01*
X117738095Y-66677438D02*
X117833333Y-66629819D01*
X117833333Y-66629819D02*
X118071428Y-66629819D01*
X118071428Y-66629819D02*
X118166666Y-66677438D01*
X118166666Y-66677438D02*
X118214285Y-66725057D01*
X118214285Y-66725057D02*
X118261904Y-66820295D01*
X118261904Y-66820295D02*
X118261904Y-66915533D01*
X118261904Y-66915533D02*
X118214285Y-67058390D01*
X118214285Y-67058390D02*
X117642857Y-67629819D01*
X117642857Y-67629819D02*
X118261904Y-67629819D01*
X129685369Y-125144319D02*
X130256797Y-125144319D01*
X129971083Y-126144319D02*
X129971083Y-125144319D01*
X130590131Y-126144319D02*
X130590131Y-125144319D01*
X130590131Y-125144319D02*
X130971083Y-125144319D01*
X130971083Y-125144319D02*
X131066321Y-125191938D01*
X131066321Y-125191938D02*
X131113940Y-125239557D01*
X131113940Y-125239557D02*
X131161559Y-125334795D01*
X131161559Y-125334795D02*
X131161559Y-125477652D01*
X131161559Y-125477652D02*
X131113940Y-125572890D01*
X131113940Y-125572890D02*
X131066321Y-125620509D01*
X131066321Y-125620509D02*
X130971083Y-125668128D01*
X130971083Y-125668128D02*
X130590131Y-125668128D01*
X131732988Y-125572890D02*
X131637750Y-125525271D01*
X131637750Y-125525271D02*
X131590131Y-125477652D01*
X131590131Y-125477652D02*
X131542512Y-125382414D01*
X131542512Y-125382414D02*
X131542512Y-125334795D01*
X131542512Y-125334795D02*
X131590131Y-125239557D01*
X131590131Y-125239557D02*
X131637750Y-125191938D01*
X131637750Y-125191938D02*
X131732988Y-125144319D01*
X131732988Y-125144319D02*
X131923464Y-125144319D01*
X131923464Y-125144319D02*
X132018702Y-125191938D01*
X132018702Y-125191938D02*
X132066321Y-125239557D01*
X132066321Y-125239557D02*
X132113940Y-125334795D01*
X132113940Y-125334795D02*
X132113940Y-125382414D01*
X132113940Y-125382414D02*
X132066321Y-125477652D01*
X132066321Y-125477652D02*
X132018702Y-125525271D01*
X132018702Y-125525271D02*
X131923464Y-125572890D01*
X131923464Y-125572890D02*
X131732988Y-125572890D01*
X131732988Y-125572890D02*
X131637750Y-125620509D01*
X131637750Y-125620509D02*
X131590131Y-125668128D01*
X131590131Y-125668128D02*
X131542512Y-125763366D01*
X131542512Y-125763366D02*
X131542512Y-125953842D01*
X131542512Y-125953842D02*
X131590131Y-126049080D01*
X131590131Y-126049080D02*
X131637750Y-126096700D01*
X131637750Y-126096700D02*
X131732988Y-126144319D01*
X131732988Y-126144319D02*
X131923464Y-126144319D01*
X131923464Y-126144319D02*
X132018702Y-126096700D01*
X132018702Y-126096700D02*
X132066321Y-126049080D01*
X132066321Y-126049080D02*
X132113940Y-125953842D01*
X132113940Y-125953842D02*
X132113940Y-125763366D01*
X132113940Y-125763366D02*
X132066321Y-125668128D01*
X132066321Y-125668128D02*
X132018702Y-125620509D01*
X132018702Y-125620509D02*
X131923464Y-125572890D01*
X135633333Y-61349819D02*
X135157143Y-61349819D01*
X135157143Y-61349819D02*
X135157143Y-60349819D01*
X136490476Y-61349819D02*
X135919048Y-61349819D01*
X136204762Y-61349819D02*
X136204762Y-60349819D01*
X136204762Y-60349819D02*
X136109524Y-60492676D01*
X136109524Y-60492676D02*
X136014286Y-60587914D01*
X136014286Y-60587914D02*
X135919048Y-60635533D01*
X138956142Y-91253819D02*
X138622809Y-90777628D01*
X138384714Y-91253819D02*
X138384714Y-90253819D01*
X138384714Y-90253819D02*
X138765666Y-90253819D01*
X138765666Y-90253819D02*
X138860904Y-90301438D01*
X138860904Y-90301438D02*
X138908523Y-90349057D01*
X138908523Y-90349057D02*
X138956142Y-90444295D01*
X138956142Y-90444295D02*
X138956142Y-90587152D01*
X138956142Y-90587152D02*
X138908523Y-90682390D01*
X138908523Y-90682390D02*
X138860904Y-90730009D01*
X138860904Y-90730009D02*
X138765666Y-90777628D01*
X138765666Y-90777628D02*
X138384714Y-90777628D01*
X139908523Y-91253819D02*
X139337095Y-91253819D01*
X139622809Y-91253819D02*
X139622809Y-90253819D01*
X139622809Y-90253819D02*
X139527571Y-90396676D01*
X139527571Y-90396676D02*
X139432333Y-90491914D01*
X139432333Y-90491914D02*
X139337095Y-90539533D01*
X140289476Y-90349057D02*
X140337095Y-90301438D01*
X140337095Y-90301438D02*
X140432333Y-90253819D01*
X140432333Y-90253819D02*
X140670428Y-90253819D01*
X140670428Y-90253819D02*
X140765666Y-90301438D01*
X140765666Y-90301438D02*
X140813285Y-90349057D01*
X140813285Y-90349057D02*
X140860904Y-90444295D01*
X140860904Y-90444295D02*
X140860904Y-90539533D01*
X140860904Y-90539533D02*
X140813285Y-90682390D01*
X140813285Y-90682390D02*
X140241857Y-91253819D01*
X140241857Y-91253819D02*
X140860904Y-91253819D01*
X176157142Y-88854819D02*
X175823809Y-88378628D01*
X175585714Y-88854819D02*
X175585714Y-87854819D01*
X175585714Y-87854819D02*
X175966666Y-87854819D01*
X175966666Y-87854819D02*
X176061904Y-87902438D01*
X176061904Y-87902438D02*
X176109523Y-87950057D01*
X176109523Y-87950057D02*
X176157142Y-88045295D01*
X176157142Y-88045295D02*
X176157142Y-88188152D01*
X176157142Y-88188152D02*
X176109523Y-88283390D01*
X176109523Y-88283390D02*
X176061904Y-88331009D01*
X176061904Y-88331009D02*
X175966666Y-88378628D01*
X175966666Y-88378628D02*
X175585714Y-88378628D01*
X177109523Y-88854819D02*
X176538095Y-88854819D01*
X176823809Y-88854819D02*
X176823809Y-87854819D01*
X176823809Y-87854819D02*
X176728571Y-87997676D01*
X176728571Y-87997676D02*
X176633333Y-88092914D01*
X176633333Y-88092914D02*
X176538095Y-88140533D01*
X177442857Y-87854819D02*
X178061904Y-87854819D01*
X178061904Y-87854819D02*
X177728571Y-88235771D01*
X177728571Y-88235771D02*
X177871428Y-88235771D01*
X177871428Y-88235771D02*
X177966666Y-88283390D01*
X177966666Y-88283390D02*
X178014285Y-88331009D01*
X178014285Y-88331009D02*
X178061904Y-88426247D01*
X178061904Y-88426247D02*
X178061904Y-88664342D01*
X178061904Y-88664342D02*
X178014285Y-88759580D01*
X178014285Y-88759580D02*
X177966666Y-88807200D01*
X177966666Y-88807200D02*
X177871428Y-88854819D01*
X177871428Y-88854819D02*
X177585714Y-88854819D01*
X177585714Y-88854819D02*
X177490476Y-88807200D01*
X177490476Y-88807200D02*
X177442857Y-88759580D01*
X136857142Y-55834580D02*
X136809523Y-55882200D01*
X136809523Y-55882200D02*
X136666666Y-55929819D01*
X136666666Y-55929819D02*
X136571428Y-55929819D01*
X136571428Y-55929819D02*
X136428571Y-55882200D01*
X136428571Y-55882200D02*
X136333333Y-55786961D01*
X136333333Y-55786961D02*
X136285714Y-55691723D01*
X136285714Y-55691723D02*
X136238095Y-55501247D01*
X136238095Y-55501247D02*
X136238095Y-55358390D01*
X136238095Y-55358390D02*
X136285714Y-55167914D01*
X136285714Y-55167914D02*
X136333333Y-55072676D01*
X136333333Y-55072676D02*
X136428571Y-54977438D01*
X136428571Y-54977438D02*
X136571428Y-54929819D01*
X136571428Y-54929819D02*
X136666666Y-54929819D01*
X136666666Y-54929819D02*
X136809523Y-54977438D01*
X136809523Y-54977438D02*
X136857142Y-55025057D01*
X137238095Y-55025057D02*
X137285714Y-54977438D01*
X137285714Y-54977438D02*
X137380952Y-54929819D01*
X137380952Y-54929819D02*
X137619047Y-54929819D01*
X137619047Y-54929819D02*
X137714285Y-54977438D01*
X137714285Y-54977438D02*
X137761904Y-55025057D01*
X137761904Y-55025057D02*
X137809523Y-55120295D01*
X137809523Y-55120295D02*
X137809523Y-55215533D01*
X137809523Y-55215533D02*
X137761904Y-55358390D01*
X137761904Y-55358390D02*
X137190476Y-55929819D01*
X137190476Y-55929819D02*
X137809523Y-55929819D01*
X138666666Y-54929819D02*
X138476190Y-54929819D01*
X138476190Y-54929819D02*
X138380952Y-54977438D01*
X138380952Y-54977438D02*
X138333333Y-55025057D01*
X138333333Y-55025057D02*
X138238095Y-55167914D01*
X138238095Y-55167914D02*
X138190476Y-55358390D01*
X138190476Y-55358390D02*
X138190476Y-55739342D01*
X138190476Y-55739342D02*
X138238095Y-55834580D01*
X138238095Y-55834580D02*
X138285714Y-55882200D01*
X138285714Y-55882200D02*
X138380952Y-55929819D01*
X138380952Y-55929819D02*
X138571428Y-55929819D01*
X138571428Y-55929819D02*
X138666666Y-55882200D01*
X138666666Y-55882200D02*
X138714285Y-55834580D01*
X138714285Y-55834580D02*
X138761904Y-55739342D01*
X138761904Y-55739342D02*
X138761904Y-55501247D01*
X138761904Y-55501247D02*
X138714285Y-55406009D01*
X138714285Y-55406009D02*
X138666666Y-55358390D01*
X138666666Y-55358390D02*
X138571428Y-55310771D01*
X138571428Y-55310771D02*
X138380952Y-55310771D01*
X138380952Y-55310771D02*
X138285714Y-55358390D01*
X138285714Y-55358390D02*
X138238095Y-55406009D01*
X138238095Y-55406009D02*
X138190476Y-55501247D01*
X141607142Y-84109580D02*
X141559523Y-84157200D01*
X141559523Y-84157200D02*
X141416666Y-84204819D01*
X141416666Y-84204819D02*
X141321428Y-84204819D01*
X141321428Y-84204819D02*
X141178571Y-84157200D01*
X141178571Y-84157200D02*
X141083333Y-84061961D01*
X141083333Y-84061961D02*
X141035714Y-83966723D01*
X141035714Y-83966723D02*
X140988095Y-83776247D01*
X140988095Y-83776247D02*
X140988095Y-83633390D01*
X140988095Y-83633390D02*
X141035714Y-83442914D01*
X141035714Y-83442914D02*
X141083333Y-83347676D01*
X141083333Y-83347676D02*
X141178571Y-83252438D01*
X141178571Y-83252438D02*
X141321428Y-83204819D01*
X141321428Y-83204819D02*
X141416666Y-83204819D01*
X141416666Y-83204819D02*
X141559523Y-83252438D01*
X141559523Y-83252438D02*
X141607142Y-83300057D01*
X142559523Y-84204819D02*
X141988095Y-84204819D01*
X142273809Y-84204819D02*
X142273809Y-83204819D01*
X142273809Y-83204819D02*
X142178571Y-83347676D01*
X142178571Y-83347676D02*
X142083333Y-83442914D01*
X142083333Y-83442914D02*
X141988095Y-83490533D01*
X143178571Y-83204819D02*
X143273809Y-83204819D01*
X143273809Y-83204819D02*
X143369047Y-83252438D01*
X143369047Y-83252438D02*
X143416666Y-83300057D01*
X143416666Y-83300057D02*
X143464285Y-83395295D01*
X143464285Y-83395295D02*
X143511904Y-83585771D01*
X143511904Y-83585771D02*
X143511904Y-83823866D01*
X143511904Y-83823866D02*
X143464285Y-84014342D01*
X143464285Y-84014342D02*
X143416666Y-84109580D01*
X143416666Y-84109580D02*
X143369047Y-84157200D01*
X143369047Y-84157200D02*
X143273809Y-84204819D01*
X143273809Y-84204819D02*
X143178571Y-84204819D01*
X143178571Y-84204819D02*
X143083333Y-84157200D01*
X143083333Y-84157200D02*
X143035714Y-84109580D01*
X143035714Y-84109580D02*
X142988095Y-84014342D01*
X142988095Y-84014342D02*
X142940476Y-83823866D01*
X142940476Y-83823866D02*
X142940476Y-83585771D01*
X142940476Y-83585771D02*
X142988095Y-83395295D01*
X142988095Y-83395295D02*
X143035714Y-83300057D01*
X143035714Y-83300057D02*
X143083333Y-83252438D01*
X143083333Y-83252438D02*
X143178571Y-83204819D01*
X124433333Y-127059580D02*
X124385714Y-127107200D01*
X124385714Y-127107200D02*
X124242857Y-127154819D01*
X124242857Y-127154819D02*
X124147619Y-127154819D01*
X124147619Y-127154819D02*
X124004762Y-127107200D01*
X124004762Y-127107200D02*
X123909524Y-127011961D01*
X123909524Y-127011961D02*
X123861905Y-126916723D01*
X123861905Y-126916723D02*
X123814286Y-126726247D01*
X123814286Y-126726247D02*
X123814286Y-126583390D01*
X123814286Y-126583390D02*
X123861905Y-126392914D01*
X123861905Y-126392914D02*
X123909524Y-126297676D01*
X123909524Y-126297676D02*
X124004762Y-126202438D01*
X124004762Y-126202438D02*
X124147619Y-126154819D01*
X124147619Y-126154819D02*
X124242857Y-126154819D01*
X124242857Y-126154819D02*
X124385714Y-126202438D01*
X124385714Y-126202438D02*
X124433333Y-126250057D01*
X124814286Y-126250057D02*
X124861905Y-126202438D01*
X124861905Y-126202438D02*
X124957143Y-126154819D01*
X124957143Y-126154819D02*
X125195238Y-126154819D01*
X125195238Y-126154819D02*
X125290476Y-126202438D01*
X125290476Y-126202438D02*
X125338095Y-126250057D01*
X125338095Y-126250057D02*
X125385714Y-126345295D01*
X125385714Y-126345295D02*
X125385714Y-126440533D01*
X125385714Y-126440533D02*
X125338095Y-126583390D01*
X125338095Y-126583390D02*
X124766667Y-127154819D01*
X124766667Y-127154819D02*
X125385714Y-127154819D01*
X155957142Y-90659580D02*
X155909523Y-90707200D01*
X155909523Y-90707200D02*
X155766666Y-90754819D01*
X155766666Y-90754819D02*
X155671428Y-90754819D01*
X155671428Y-90754819D02*
X155528571Y-90707200D01*
X155528571Y-90707200D02*
X155433333Y-90611961D01*
X155433333Y-90611961D02*
X155385714Y-90516723D01*
X155385714Y-90516723D02*
X155338095Y-90326247D01*
X155338095Y-90326247D02*
X155338095Y-90183390D01*
X155338095Y-90183390D02*
X155385714Y-89992914D01*
X155385714Y-89992914D02*
X155433333Y-89897676D01*
X155433333Y-89897676D02*
X155528571Y-89802438D01*
X155528571Y-89802438D02*
X155671428Y-89754819D01*
X155671428Y-89754819D02*
X155766666Y-89754819D01*
X155766666Y-89754819D02*
X155909523Y-89802438D01*
X155909523Y-89802438D02*
X155957142Y-89850057D01*
X156909523Y-90754819D02*
X156338095Y-90754819D01*
X156623809Y-90754819D02*
X156623809Y-89754819D01*
X156623809Y-89754819D02*
X156528571Y-89897676D01*
X156528571Y-89897676D02*
X156433333Y-89992914D01*
X156433333Y-89992914D02*
X156338095Y-90040533D01*
X157385714Y-90754819D02*
X157576190Y-90754819D01*
X157576190Y-90754819D02*
X157671428Y-90707200D01*
X157671428Y-90707200D02*
X157719047Y-90659580D01*
X157719047Y-90659580D02*
X157814285Y-90516723D01*
X157814285Y-90516723D02*
X157861904Y-90326247D01*
X157861904Y-90326247D02*
X157861904Y-89945295D01*
X157861904Y-89945295D02*
X157814285Y-89850057D01*
X157814285Y-89850057D02*
X157766666Y-89802438D01*
X157766666Y-89802438D02*
X157671428Y-89754819D01*
X157671428Y-89754819D02*
X157480952Y-89754819D01*
X157480952Y-89754819D02*
X157385714Y-89802438D01*
X157385714Y-89802438D02*
X157338095Y-89850057D01*
X157338095Y-89850057D02*
X157290476Y-89945295D01*
X157290476Y-89945295D02*
X157290476Y-90183390D01*
X157290476Y-90183390D02*
X157338095Y-90278628D01*
X157338095Y-90278628D02*
X157385714Y-90326247D01*
X157385714Y-90326247D02*
X157480952Y-90373866D01*
X157480952Y-90373866D02*
X157671428Y-90373866D01*
X157671428Y-90373866D02*
X157766666Y-90326247D01*
X157766666Y-90326247D02*
X157814285Y-90278628D01*
X157814285Y-90278628D02*
X157861904Y-90183390D01*
X119833333Y-130554819D02*
X119500000Y-130078628D01*
X119261905Y-130554819D02*
X119261905Y-129554819D01*
X119261905Y-129554819D02*
X119642857Y-129554819D01*
X119642857Y-129554819D02*
X119738095Y-129602438D01*
X119738095Y-129602438D02*
X119785714Y-129650057D01*
X119785714Y-129650057D02*
X119833333Y-129745295D01*
X119833333Y-129745295D02*
X119833333Y-129888152D01*
X119833333Y-129888152D02*
X119785714Y-129983390D01*
X119785714Y-129983390D02*
X119738095Y-130031009D01*
X119738095Y-130031009D02*
X119642857Y-130078628D01*
X119642857Y-130078628D02*
X119261905Y-130078628D01*
X120166667Y-129554819D02*
X120785714Y-129554819D01*
X120785714Y-129554819D02*
X120452381Y-129935771D01*
X120452381Y-129935771D02*
X120595238Y-129935771D01*
X120595238Y-129935771D02*
X120690476Y-129983390D01*
X120690476Y-129983390D02*
X120738095Y-130031009D01*
X120738095Y-130031009D02*
X120785714Y-130126247D01*
X120785714Y-130126247D02*
X120785714Y-130364342D01*
X120785714Y-130364342D02*
X120738095Y-130459580D01*
X120738095Y-130459580D02*
X120690476Y-130507200D01*
X120690476Y-130507200D02*
X120595238Y-130554819D01*
X120595238Y-130554819D02*
X120309524Y-130554819D01*
X120309524Y-130554819D02*
X120214286Y-130507200D01*
X120214286Y-130507200D02*
X120166667Y-130459580D01*
X109983333Y-121254819D02*
X109650000Y-120778628D01*
X109411905Y-121254819D02*
X109411905Y-120254819D01*
X109411905Y-120254819D02*
X109792857Y-120254819D01*
X109792857Y-120254819D02*
X109888095Y-120302438D01*
X109888095Y-120302438D02*
X109935714Y-120350057D01*
X109935714Y-120350057D02*
X109983333Y-120445295D01*
X109983333Y-120445295D02*
X109983333Y-120588152D01*
X109983333Y-120588152D02*
X109935714Y-120683390D01*
X109935714Y-120683390D02*
X109888095Y-120731009D01*
X109888095Y-120731009D02*
X109792857Y-120778628D01*
X109792857Y-120778628D02*
X109411905Y-120778628D01*
X110888095Y-120254819D02*
X110411905Y-120254819D01*
X110411905Y-120254819D02*
X110364286Y-120731009D01*
X110364286Y-120731009D02*
X110411905Y-120683390D01*
X110411905Y-120683390D02*
X110507143Y-120635771D01*
X110507143Y-120635771D02*
X110745238Y-120635771D01*
X110745238Y-120635771D02*
X110840476Y-120683390D01*
X110840476Y-120683390D02*
X110888095Y-120731009D01*
X110888095Y-120731009D02*
X110935714Y-120826247D01*
X110935714Y-120826247D02*
X110935714Y-121064342D01*
X110935714Y-121064342D02*
X110888095Y-121159580D01*
X110888095Y-121159580D02*
X110840476Y-121207200D01*
X110840476Y-121207200D02*
X110745238Y-121254819D01*
X110745238Y-121254819D02*
X110507143Y-121254819D01*
X110507143Y-121254819D02*
X110411905Y-121207200D01*
X110411905Y-121207200D02*
X110364286Y-121159580D01*
X144657142Y-96259580D02*
X144609523Y-96307200D01*
X144609523Y-96307200D02*
X144466666Y-96354819D01*
X144466666Y-96354819D02*
X144371428Y-96354819D01*
X144371428Y-96354819D02*
X144228571Y-96307200D01*
X144228571Y-96307200D02*
X144133333Y-96211961D01*
X144133333Y-96211961D02*
X144085714Y-96116723D01*
X144085714Y-96116723D02*
X144038095Y-95926247D01*
X144038095Y-95926247D02*
X144038095Y-95783390D01*
X144038095Y-95783390D02*
X144085714Y-95592914D01*
X144085714Y-95592914D02*
X144133333Y-95497676D01*
X144133333Y-95497676D02*
X144228571Y-95402438D01*
X144228571Y-95402438D02*
X144371428Y-95354819D01*
X144371428Y-95354819D02*
X144466666Y-95354819D01*
X144466666Y-95354819D02*
X144609523Y-95402438D01*
X144609523Y-95402438D02*
X144657142Y-95450057D01*
X145609523Y-96354819D02*
X145038095Y-96354819D01*
X145323809Y-96354819D02*
X145323809Y-95354819D01*
X145323809Y-95354819D02*
X145228571Y-95497676D01*
X145228571Y-95497676D02*
X145133333Y-95592914D01*
X145133333Y-95592914D02*
X145038095Y-95640533D01*
X145990476Y-95450057D02*
X146038095Y-95402438D01*
X146038095Y-95402438D02*
X146133333Y-95354819D01*
X146133333Y-95354819D02*
X146371428Y-95354819D01*
X146371428Y-95354819D02*
X146466666Y-95402438D01*
X146466666Y-95402438D02*
X146514285Y-95450057D01*
X146514285Y-95450057D02*
X146561904Y-95545295D01*
X146561904Y-95545295D02*
X146561904Y-95640533D01*
X146561904Y-95640533D02*
X146514285Y-95783390D01*
X146514285Y-95783390D02*
X145942857Y-96354819D01*
X145942857Y-96354819D02*
X146561904Y-96354819D01*
X153916666Y-95431009D02*
X153583333Y-95431009D01*
X153583333Y-95954819D02*
X153583333Y-94954819D01*
X153583333Y-94954819D02*
X154059523Y-94954819D01*
X154773809Y-95431009D02*
X154916666Y-95478628D01*
X154916666Y-95478628D02*
X154964285Y-95526247D01*
X154964285Y-95526247D02*
X155011904Y-95621485D01*
X155011904Y-95621485D02*
X155011904Y-95764342D01*
X155011904Y-95764342D02*
X154964285Y-95859580D01*
X154964285Y-95859580D02*
X154916666Y-95907200D01*
X154916666Y-95907200D02*
X154821428Y-95954819D01*
X154821428Y-95954819D02*
X154440476Y-95954819D01*
X154440476Y-95954819D02*
X154440476Y-94954819D01*
X154440476Y-94954819D02*
X154773809Y-94954819D01*
X154773809Y-94954819D02*
X154869047Y-95002438D01*
X154869047Y-95002438D02*
X154916666Y-95050057D01*
X154916666Y-95050057D02*
X154964285Y-95145295D01*
X154964285Y-95145295D02*
X154964285Y-95240533D01*
X154964285Y-95240533D02*
X154916666Y-95335771D01*
X154916666Y-95335771D02*
X154869047Y-95383390D01*
X154869047Y-95383390D02*
X154773809Y-95431009D01*
X154773809Y-95431009D02*
X154440476Y-95431009D01*
X155964285Y-95954819D02*
X155392857Y-95954819D01*
X155678571Y-95954819D02*
X155678571Y-94954819D01*
X155678571Y-94954819D02*
X155583333Y-95097676D01*
X155583333Y-95097676D02*
X155488095Y-95192914D01*
X155488095Y-95192914D02*
X155392857Y-95240533D01*
X127061905Y-59829819D02*
X127633333Y-59829819D01*
X127347619Y-60829819D02*
X127347619Y-59829819D01*
X127966667Y-60829819D02*
X127966667Y-59829819D01*
X127966667Y-59829819D02*
X128347619Y-59829819D01*
X128347619Y-59829819D02*
X128442857Y-59877438D01*
X128442857Y-59877438D02*
X128490476Y-59925057D01*
X128490476Y-59925057D02*
X128538095Y-60020295D01*
X128538095Y-60020295D02*
X128538095Y-60163152D01*
X128538095Y-60163152D02*
X128490476Y-60258390D01*
X128490476Y-60258390D02*
X128442857Y-60306009D01*
X128442857Y-60306009D02*
X128347619Y-60353628D01*
X128347619Y-60353628D02*
X127966667Y-60353628D01*
X129490476Y-60829819D02*
X128919048Y-60829819D01*
X129204762Y-60829819D02*
X129204762Y-59829819D01*
X129204762Y-59829819D02*
X129109524Y-59972676D01*
X129109524Y-59972676D02*
X129014286Y-60067914D01*
X129014286Y-60067914D02*
X128919048Y-60115533D01*
X130347619Y-60163152D02*
X130347619Y-60829819D01*
X130109524Y-59782200D02*
X129871429Y-60496485D01*
X129871429Y-60496485D02*
X130490476Y-60496485D01*
X109708333Y-130254819D02*
X109375000Y-129778628D01*
X109136905Y-130254819D02*
X109136905Y-129254819D01*
X109136905Y-129254819D02*
X109517857Y-129254819D01*
X109517857Y-129254819D02*
X109613095Y-129302438D01*
X109613095Y-129302438D02*
X109660714Y-129350057D01*
X109660714Y-129350057D02*
X109708333Y-129445295D01*
X109708333Y-129445295D02*
X109708333Y-129588152D01*
X109708333Y-129588152D02*
X109660714Y-129683390D01*
X109660714Y-129683390D02*
X109613095Y-129731009D01*
X109613095Y-129731009D02*
X109517857Y-129778628D01*
X109517857Y-129778628D02*
X109136905Y-129778628D01*
X110565476Y-129588152D02*
X110565476Y-130254819D01*
X110327381Y-129207200D02*
X110089286Y-129921485D01*
X110089286Y-129921485D02*
X110708333Y-129921485D01*
X113857142Y-117809580D02*
X113809523Y-117857200D01*
X113809523Y-117857200D02*
X113666666Y-117904819D01*
X113666666Y-117904819D02*
X113571428Y-117904819D01*
X113571428Y-117904819D02*
X113428571Y-117857200D01*
X113428571Y-117857200D02*
X113333333Y-117761961D01*
X113333333Y-117761961D02*
X113285714Y-117666723D01*
X113285714Y-117666723D02*
X113238095Y-117476247D01*
X113238095Y-117476247D02*
X113238095Y-117333390D01*
X113238095Y-117333390D02*
X113285714Y-117142914D01*
X113285714Y-117142914D02*
X113333333Y-117047676D01*
X113333333Y-117047676D02*
X113428571Y-116952438D01*
X113428571Y-116952438D02*
X113571428Y-116904819D01*
X113571428Y-116904819D02*
X113666666Y-116904819D01*
X113666666Y-116904819D02*
X113809523Y-116952438D01*
X113809523Y-116952438D02*
X113857142Y-117000057D01*
X114809523Y-117904819D02*
X114238095Y-117904819D01*
X114523809Y-117904819D02*
X114523809Y-116904819D01*
X114523809Y-116904819D02*
X114428571Y-117047676D01*
X114428571Y-117047676D02*
X114333333Y-117142914D01*
X114333333Y-117142914D02*
X114238095Y-117190533D01*
X115380952Y-117333390D02*
X115285714Y-117285771D01*
X115285714Y-117285771D02*
X115238095Y-117238152D01*
X115238095Y-117238152D02*
X115190476Y-117142914D01*
X115190476Y-117142914D02*
X115190476Y-117095295D01*
X115190476Y-117095295D02*
X115238095Y-117000057D01*
X115238095Y-117000057D02*
X115285714Y-116952438D01*
X115285714Y-116952438D02*
X115380952Y-116904819D01*
X115380952Y-116904819D02*
X115571428Y-116904819D01*
X115571428Y-116904819D02*
X115666666Y-116952438D01*
X115666666Y-116952438D02*
X115714285Y-117000057D01*
X115714285Y-117000057D02*
X115761904Y-117095295D01*
X115761904Y-117095295D02*
X115761904Y-117142914D01*
X115761904Y-117142914D02*
X115714285Y-117238152D01*
X115714285Y-117238152D02*
X115666666Y-117285771D01*
X115666666Y-117285771D02*
X115571428Y-117333390D01*
X115571428Y-117333390D02*
X115380952Y-117333390D01*
X115380952Y-117333390D02*
X115285714Y-117381009D01*
X115285714Y-117381009D02*
X115238095Y-117428628D01*
X115238095Y-117428628D02*
X115190476Y-117523866D01*
X115190476Y-117523866D02*
X115190476Y-117714342D01*
X115190476Y-117714342D02*
X115238095Y-117809580D01*
X115238095Y-117809580D02*
X115285714Y-117857200D01*
X115285714Y-117857200D02*
X115380952Y-117904819D01*
X115380952Y-117904819D02*
X115571428Y-117904819D01*
X115571428Y-117904819D02*
X115666666Y-117857200D01*
X115666666Y-117857200D02*
X115714285Y-117809580D01*
X115714285Y-117809580D02*
X115761904Y-117714342D01*
X115761904Y-117714342D02*
X115761904Y-117523866D01*
X115761904Y-117523866D02*
X115714285Y-117428628D01*
X115714285Y-117428628D02*
X115666666Y-117381009D01*
X115666666Y-117381009D02*
X115571428Y-117333390D01*
X124566666Y-54906009D02*
X124233333Y-54906009D01*
X124233333Y-55429819D02*
X124233333Y-54429819D01*
X124233333Y-54429819D02*
X124709523Y-54429819D01*
X125614285Y-55429819D02*
X125042857Y-55429819D01*
X125328571Y-55429819D02*
X125328571Y-54429819D01*
X125328571Y-54429819D02*
X125233333Y-54572676D01*
X125233333Y-54572676D02*
X125138095Y-54667914D01*
X125138095Y-54667914D02*
X125042857Y-54715533D01*
X138316666Y-95054819D02*
X138316666Y-95769104D01*
X138316666Y-95769104D02*
X138269047Y-95911961D01*
X138269047Y-95911961D02*
X138173809Y-96007200D01*
X138173809Y-96007200D02*
X138030952Y-96054819D01*
X138030952Y-96054819D02*
X137935714Y-96054819D01*
X138792857Y-96054819D02*
X138792857Y-95054819D01*
X138792857Y-95054819D02*
X139173809Y-95054819D01*
X139173809Y-95054819D02*
X139269047Y-95102438D01*
X139269047Y-95102438D02*
X139316666Y-95150057D01*
X139316666Y-95150057D02*
X139364285Y-95245295D01*
X139364285Y-95245295D02*
X139364285Y-95388152D01*
X139364285Y-95388152D02*
X139316666Y-95483390D01*
X139316666Y-95483390D02*
X139269047Y-95531009D01*
X139269047Y-95531009D02*
X139173809Y-95578628D01*
X139173809Y-95578628D02*
X138792857Y-95578628D01*
X139697619Y-95054819D02*
X140316666Y-95054819D01*
X140316666Y-95054819D02*
X139983333Y-95435771D01*
X139983333Y-95435771D02*
X140126190Y-95435771D01*
X140126190Y-95435771D02*
X140221428Y-95483390D01*
X140221428Y-95483390D02*
X140269047Y-95531009D01*
X140269047Y-95531009D02*
X140316666Y-95626247D01*
X140316666Y-95626247D02*
X140316666Y-95864342D01*
X140316666Y-95864342D02*
X140269047Y-95959580D01*
X140269047Y-95959580D02*
X140221428Y-96007200D01*
X140221428Y-96007200D02*
X140126190Y-96054819D01*
X140126190Y-96054819D02*
X139840476Y-96054819D01*
X139840476Y-96054819D02*
X139745238Y-96007200D01*
X139745238Y-96007200D02*
X139697619Y-95959580D01*
X157857142Y-92759580D02*
X157809523Y-92807200D01*
X157809523Y-92807200D02*
X157666666Y-92854819D01*
X157666666Y-92854819D02*
X157571428Y-92854819D01*
X157571428Y-92854819D02*
X157428571Y-92807200D01*
X157428571Y-92807200D02*
X157333333Y-92711961D01*
X157333333Y-92711961D02*
X157285714Y-92616723D01*
X157285714Y-92616723D02*
X157238095Y-92426247D01*
X157238095Y-92426247D02*
X157238095Y-92283390D01*
X157238095Y-92283390D02*
X157285714Y-92092914D01*
X157285714Y-92092914D02*
X157333333Y-91997676D01*
X157333333Y-91997676D02*
X157428571Y-91902438D01*
X157428571Y-91902438D02*
X157571428Y-91854819D01*
X157571428Y-91854819D02*
X157666666Y-91854819D01*
X157666666Y-91854819D02*
X157809523Y-91902438D01*
X157809523Y-91902438D02*
X157857142Y-91950057D01*
X158809523Y-92854819D02*
X158238095Y-92854819D01*
X158523809Y-92854819D02*
X158523809Y-91854819D01*
X158523809Y-91854819D02*
X158428571Y-91997676D01*
X158428571Y-91997676D02*
X158333333Y-92092914D01*
X158333333Y-92092914D02*
X158238095Y-92140533D01*
X159761904Y-92854819D02*
X159190476Y-92854819D01*
X159476190Y-92854819D02*
X159476190Y-91854819D01*
X159476190Y-91854819D02*
X159380952Y-91997676D01*
X159380952Y-91997676D02*
X159285714Y-92092914D01*
X159285714Y-92092914D02*
X159190476Y-92140533D01*
X119957142Y-67534580D02*
X119909523Y-67582200D01*
X119909523Y-67582200D02*
X119766666Y-67629819D01*
X119766666Y-67629819D02*
X119671428Y-67629819D01*
X119671428Y-67629819D02*
X119528571Y-67582200D01*
X119528571Y-67582200D02*
X119433333Y-67486961D01*
X119433333Y-67486961D02*
X119385714Y-67391723D01*
X119385714Y-67391723D02*
X119338095Y-67201247D01*
X119338095Y-67201247D02*
X119338095Y-67058390D01*
X119338095Y-67058390D02*
X119385714Y-66867914D01*
X119385714Y-66867914D02*
X119433333Y-66772676D01*
X119433333Y-66772676D02*
X119528571Y-66677438D01*
X119528571Y-66677438D02*
X119671428Y-66629819D01*
X119671428Y-66629819D02*
X119766666Y-66629819D01*
X119766666Y-66629819D02*
X119909523Y-66677438D01*
X119909523Y-66677438D02*
X119957142Y-66725057D01*
X120338095Y-66725057D02*
X120385714Y-66677438D01*
X120385714Y-66677438D02*
X120480952Y-66629819D01*
X120480952Y-66629819D02*
X120719047Y-66629819D01*
X120719047Y-66629819D02*
X120814285Y-66677438D01*
X120814285Y-66677438D02*
X120861904Y-66725057D01*
X120861904Y-66725057D02*
X120909523Y-66820295D01*
X120909523Y-66820295D02*
X120909523Y-66915533D01*
X120909523Y-66915533D02*
X120861904Y-67058390D01*
X120861904Y-67058390D02*
X120290476Y-67629819D01*
X120290476Y-67629819D02*
X120909523Y-67629819D01*
X121242857Y-66629819D02*
X121861904Y-66629819D01*
X121861904Y-66629819D02*
X121528571Y-67010771D01*
X121528571Y-67010771D02*
X121671428Y-67010771D01*
X121671428Y-67010771D02*
X121766666Y-67058390D01*
X121766666Y-67058390D02*
X121814285Y-67106009D01*
X121814285Y-67106009D02*
X121861904Y-67201247D01*
X121861904Y-67201247D02*
X121861904Y-67439342D01*
X121861904Y-67439342D02*
X121814285Y-67534580D01*
X121814285Y-67534580D02*
X121766666Y-67582200D01*
X121766666Y-67582200D02*
X121671428Y-67629819D01*
X121671428Y-67629819D02*
X121385714Y-67629819D01*
X121385714Y-67629819D02*
X121290476Y-67582200D01*
X121290476Y-67582200D02*
X121242857Y-67534580D01*
X150033333Y-78054819D02*
X149700000Y-77578628D01*
X149461905Y-78054819D02*
X149461905Y-77054819D01*
X149461905Y-77054819D02*
X149842857Y-77054819D01*
X149842857Y-77054819D02*
X149938095Y-77102438D01*
X149938095Y-77102438D02*
X149985714Y-77150057D01*
X149985714Y-77150057D02*
X150033333Y-77245295D01*
X150033333Y-77245295D02*
X150033333Y-77388152D01*
X150033333Y-77388152D02*
X149985714Y-77483390D01*
X149985714Y-77483390D02*
X149938095Y-77531009D01*
X149938095Y-77531009D02*
X149842857Y-77578628D01*
X149842857Y-77578628D02*
X149461905Y-77578628D01*
X150414286Y-77150057D02*
X150461905Y-77102438D01*
X150461905Y-77102438D02*
X150557143Y-77054819D01*
X150557143Y-77054819D02*
X150795238Y-77054819D01*
X150795238Y-77054819D02*
X150890476Y-77102438D01*
X150890476Y-77102438D02*
X150938095Y-77150057D01*
X150938095Y-77150057D02*
X150985714Y-77245295D01*
X150985714Y-77245295D02*
X150985714Y-77340533D01*
X150985714Y-77340533D02*
X150938095Y-77483390D01*
X150938095Y-77483390D02*
X150366667Y-78054819D01*
X150366667Y-78054819D02*
X150985714Y-78054819D01*
X109983333Y-123004819D02*
X109650000Y-122528628D01*
X109411905Y-123004819D02*
X109411905Y-122004819D01*
X109411905Y-122004819D02*
X109792857Y-122004819D01*
X109792857Y-122004819D02*
X109888095Y-122052438D01*
X109888095Y-122052438D02*
X109935714Y-122100057D01*
X109935714Y-122100057D02*
X109983333Y-122195295D01*
X109983333Y-122195295D02*
X109983333Y-122338152D01*
X109983333Y-122338152D02*
X109935714Y-122433390D01*
X109935714Y-122433390D02*
X109888095Y-122481009D01*
X109888095Y-122481009D02*
X109792857Y-122528628D01*
X109792857Y-122528628D02*
X109411905Y-122528628D01*
X110554762Y-122433390D02*
X110459524Y-122385771D01*
X110459524Y-122385771D02*
X110411905Y-122338152D01*
X110411905Y-122338152D02*
X110364286Y-122242914D01*
X110364286Y-122242914D02*
X110364286Y-122195295D01*
X110364286Y-122195295D02*
X110411905Y-122100057D01*
X110411905Y-122100057D02*
X110459524Y-122052438D01*
X110459524Y-122052438D02*
X110554762Y-122004819D01*
X110554762Y-122004819D02*
X110745238Y-122004819D01*
X110745238Y-122004819D02*
X110840476Y-122052438D01*
X110840476Y-122052438D02*
X110888095Y-122100057D01*
X110888095Y-122100057D02*
X110935714Y-122195295D01*
X110935714Y-122195295D02*
X110935714Y-122242914D01*
X110935714Y-122242914D02*
X110888095Y-122338152D01*
X110888095Y-122338152D02*
X110840476Y-122385771D01*
X110840476Y-122385771D02*
X110745238Y-122433390D01*
X110745238Y-122433390D02*
X110554762Y-122433390D01*
X110554762Y-122433390D02*
X110459524Y-122481009D01*
X110459524Y-122481009D02*
X110411905Y-122528628D01*
X110411905Y-122528628D02*
X110364286Y-122623866D01*
X110364286Y-122623866D02*
X110364286Y-122814342D01*
X110364286Y-122814342D02*
X110411905Y-122909580D01*
X110411905Y-122909580D02*
X110459524Y-122957200D01*
X110459524Y-122957200D02*
X110554762Y-123004819D01*
X110554762Y-123004819D02*
X110745238Y-123004819D01*
X110745238Y-123004819D02*
X110840476Y-122957200D01*
X110840476Y-122957200D02*
X110888095Y-122909580D01*
X110888095Y-122909580D02*
X110935714Y-122814342D01*
X110935714Y-122814342D02*
X110935714Y-122623866D01*
X110935714Y-122623866D02*
X110888095Y-122528628D01*
X110888095Y-122528628D02*
X110840476Y-122481009D01*
X110840476Y-122481009D02*
X110745238Y-122433390D01*
X133479416Y-127217080D02*
X133431797Y-127264700D01*
X133431797Y-127264700D02*
X133288940Y-127312319D01*
X133288940Y-127312319D02*
X133193702Y-127312319D01*
X133193702Y-127312319D02*
X133050845Y-127264700D01*
X133050845Y-127264700D02*
X132955607Y-127169461D01*
X132955607Y-127169461D02*
X132907988Y-127074223D01*
X132907988Y-127074223D02*
X132860369Y-126883747D01*
X132860369Y-126883747D02*
X132860369Y-126740890D01*
X132860369Y-126740890D02*
X132907988Y-126550414D01*
X132907988Y-126550414D02*
X132955607Y-126455176D01*
X132955607Y-126455176D02*
X133050845Y-126359938D01*
X133050845Y-126359938D02*
X133193702Y-126312319D01*
X133193702Y-126312319D02*
X133288940Y-126312319D01*
X133288940Y-126312319D02*
X133431797Y-126359938D01*
X133431797Y-126359938D02*
X133479416Y-126407557D01*
X134431797Y-127312319D02*
X133860369Y-127312319D01*
X134146083Y-127312319D02*
X134146083Y-126312319D01*
X134146083Y-126312319D02*
X134050845Y-126455176D01*
X134050845Y-126455176D02*
X133955607Y-126550414D01*
X133955607Y-126550414D02*
X133860369Y-126598033D01*
X134765131Y-126312319D02*
X135431797Y-126312319D01*
X135431797Y-126312319D02*
X135003226Y-127312319D01*
X111461905Y-58531819D02*
X112033333Y-58531819D01*
X111747619Y-59531819D02*
X111747619Y-58531819D01*
X112366667Y-59531819D02*
X112366667Y-58531819D01*
X112366667Y-58531819D02*
X112747619Y-58531819D01*
X112747619Y-58531819D02*
X112842857Y-58579438D01*
X112842857Y-58579438D02*
X112890476Y-58627057D01*
X112890476Y-58627057D02*
X112938095Y-58722295D01*
X112938095Y-58722295D02*
X112938095Y-58865152D01*
X112938095Y-58865152D02*
X112890476Y-58960390D01*
X112890476Y-58960390D02*
X112842857Y-59008009D01*
X112842857Y-59008009D02*
X112747619Y-59055628D01*
X112747619Y-59055628D02*
X112366667Y-59055628D01*
X113890476Y-59531819D02*
X113319048Y-59531819D01*
X113604762Y-59531819D02*
X113604762Y-58531819D01*
X113604762Y-58531819D02*
X113509524Y-58674676D01*
X113509524Y-58674676D02*
X113414286Y-58769914D01*
X113414286Y-58769914D02*
X113319048Y-58817533D01*
X114271429Y-58627057D02*
X114319048Y-58579438D01*
X114319048Y-58579438D02*
X114414286Y-58531819D01*
X114414286Y-58531819D02*
X114652381Y-58531819D01*
X114652381Y-58531819D02*
X114747619Y-58579438D01*
X114747619Y-58579438D02*
X114795238Y-58627057D01*
X114795238Y-58627057D02*
X114842857Y-58722295D01*
X114842857Y-58722295D02*
X114842857Y-58817533D01*
X114842857Y-58817533D02*
X114795238Y-58960390D01*
X114795238Y-58960390D02*
X114223810Y-59531819D01*
X114223810Y-59531819D02*
X114842857Y-59531819D01*
X128704416Y-132342319D02*
X128371083Y-131866128D01*
X128132988Y-132342319D02*
X128132988Y-131342319D01*
X128132988Y-131342319D02*
X128513940Y-131342319D01*
X128513940Y-131342319D02*
X128609178Y-131389938D01*
X128609178Y-131389938D02*
X128656797Y-131437557D01*
X128656797Y-131437557D02*
X128704416Y-131532795D01*
X128704416Y-131532795D02*
X128704416Y-131675652D01*
X128704416Y-131675652D02*
X128656797Y-131770890D01*
X128656797Y-131770890D02*
X128609178Y-131818509D01*
X128609178Y-131818509D02*
X128513940Y-131866128D01*
X128513940Y-131866128D02*
X128132988Y-131866128D01*
X129656797Y-132342319D02*
X129085369Y-132342319D01*
X129371083Y-132342319D02*
X129371083Y-131342319D01*
X129371083Y-131342319D02*
X129275845Y-131485176D01*
X129275845Y-131485176D02*
X129180607Y-131580414D01*
X129180607Y-131580414D02*
X129085369Y-131628033D01*
X130513940Y-131342319D02*
X130323464Y-131342319D01*
X130323464Y-131342319D02*
X130228226Y-131389938D01*
X130228226Y-131389938D02*
X130180607Y-131437557D01*
X130180607Y-131437557D02*
X130085369Y-131580414D01*
X130085369Y-131580414D02*
X130037750Y-131770890D01*
X130037750Y-131770890D02*
X130037750Y-132151842D01*
X130037750Y-132151842D02*
X130085369Y-132247080D01*
X130085369Y-132247080D02*
X130132988Y-132294700D01*
X130132988Y-132294700D02*
X130228226Y-132342319D01*
X130228226Y-132342319D02*
X130418702Y-132342319D01*
X130418702Y-132342319D02*
X130513940Y-132294700D01*
X130513940Y-132294700D02*
X130561559Y-132247080D01*
X130561559Y-132247080D02*
X130609178Y-132151842D01*
X130609178Y-132151842D02*
X130609178Y-131913747D01*
X130609178Y-131913747D02*
X130561559Y-131818509D01*
X130561559Y-131818509D02*
X130513940Y-131770890D01*
X130513940Y-131770890D02*
X130418702Y-131723271D01*
X130418702Y-131723271D02*
X130228226Y-131723271D01*
X130228226Y-131723271D02*
X130132988Y-131770890D01*
X130132988Y-131770890D02*
X130085369Y-131818509D01*
X130085369Y-131818509D02*
X130037750Y-131913747D01*
X166703095Y-75978744D02*
X167274523Y-75978744D01*
X166988809Y-76978744D02*
X166988809Y-75978744D01*
X168179285Y-76883505D02*
X168131666Y-76931125D01*
X168131666Y-76931125D02*
X167988809Y-76978744D01*
X167988809Y-76978744D02*
X167893571Y-76978744D01*
X167893571Y-76978744D02*
X167750714Y-76931125D01*
X167750714Y-76931125D02*
X167655476Y-76835886D01*
X167655476Y-76835886D02*
X167607857Y-76740648D01*
X167607857Y-76740648D02*
X167560238Y-76550172D01*
X167560238Y-76550172D02*
X167560238Y-76407315D01*
X167560238Y-76407315D02*
X167607857Y-76216839D01*
X167607857Y-76216839D02*
X167655476Y-76121601D01*
X167655476Y-76121601D02*
X167750714Y-76026363D01*
X167750714Y-76026363D02*
X167893571Y-75978744D01*
X167893571Y-75978744D02*
X167988809Y-75978744D01*
X167988809Y-75978744D02*
X168131666Y-76026363D01*
X168131666Y-76026363D02*
X168179285Y-76073982D01*
X169131666Y-76978744D02*
X168560238Y-76978744D01*
X168845952Y-76978744D02*
X168845952Y-75978744D01*
X168845952Y-75978744D02*
X168750714Y-76121601D01*
X168750714Y-76121601D02*
X168655476Y-76216839D01*
X168655476Y-76216839D02*
X168560238Y-76264458D01*
X130757142Y-55559580D02*
X130709523Y-55607200D01*
X130709523Y-55607200D02*
X130566666Y-55654819D01*
X130566666Y-55654819D02*
X130471428Y-55654819D01*
X130471428Y-55654819D02*
X130328571Y-55607200D01*
X130328571Y-55607200D02*
X130233333Y-55511961D01*
X130233333Y-55511961D02*
X130185714Y-55416723D01*
X130185714Y-55416723D02*
X130138095Y-55226247D01*
X130138095Y-55226247D02*
X130138095Y-55083390D01*
X130138095Y-55083390D02*
X130185714Y-54892914D01*
X130185714Y-54892914D02*
X130233333Y-54797676D01*
X130233333Y-54797676D02*
X130328571Y-54702438D01*
X130328571Y-54702438D02*
X130471428Y-54654819D01*
X130471428Y-54654819D02*
X130566666Y-54654819D01*
X130566666Y-54654819D02*
X130709523Y-54702438D01*
X130709523Y-54702438D02*
X130757142Y-54750057D01*
X131138095Y-54750057D02*
X131185714Y-54702438D01*
X131185714Y-54702438D02*
X131280952Y-54654819D01*
X131280952Y-54654819D02*
X131519047Y-54654819D01*
X131519047Y-54654819D02*
X131614285Y-54702438D01*
X131614285Y-54702438D02*
X131661904Y-54750057D01*
X131661904Y-54750057D02*
X131709523Y-54845295D01*
X131709523Y-54845295D02*
X131709523Y-54940533D01*
X131709523Y-54940533D02*
X131661904Y-55083390D01*
X131661904Y-55083390D02*
X131090476Y-55654819D01*
X131090476Y-55654819D02*
X131709523Y-55654819D01*
X132280952Y-55083390D02*
X132185714Y-55035771D01*
X132185714Y-55035771D02*
X132138095Y-54988152D01*
X132138095Y-54988152D02*
X132090476Y-54892914D01*
X132090476Y-54892914D02*
X132090476Y-54845295D01*
X132090476Y-54845295D02*
X132138095Y-54750057D01*
X132138095Y-54750057D02*
X132185714Y-54702438D01*
X132185714Y-54702438D02*
X132280952Y-54654819D01*
X132280952Y-54654819D02*
X132471428Y-54654819D01*
X132471428Y-54654819D02*
X132566666Y-54702438D01*
X132566666Y-54702438D02*
X132614285Y-54750057D01*
X132614285Y-54750057D02*
X132661904Y-54845295D01*
X132661904Y-54845295D02*
X132661904Y-54892914D01*
X132661904Y-54892914D02*
X132614285Y-54988152D01*
X132614285Y-54988152D02*
X132566666Y-55035771D01*
X132566666Y-55035771D02*
X132471428Y-55083390D01*
X132471428Y-55083390D02*
X132280952Y-55083390D01*
X132280952Y-55083390D02*
X132185714Y-55131009D01*
X132185714Y-55131009D02*
X132138095Y-55178628D01*
X132138095Y-55178628D02*
X132090476Y-55273866D01*
X132090476Y-55273866D02*
X132090476Y-55464342D01*
X132090476Y-55464342D02*
X132138095Y-55559580D01*
X132138095Y-55559580D02*
X132185714Y-55607200D01*
X132185714Y-55607200D02*
X132280952Y-55654819D01*
X132280952Y-55654819D02*
X132471428Y-55654819D01*
X132471428Y-55654819D02*
X132566666Y-55607200D01*
X132566666Y-55607200D02*
X132614285Y-55559580D01*
X132614285Y-55559580D02*
X132661904Y-55464342D01*
X132661904Y-55464342D02*
X132661904Y-55273866D01*
X132661904Y-55273866D02*
X132614285Y-55178628D01*
X132614285Y-55178628D02*
X132566666Y-55131009D01*
X132566666Y-55131009D02*
X132471428Y-55083390D01*
X133757142Y-55834580D02*
X133709523Y-55882200D01*
X133709523Y-55882200D02*
X133566666Y-55929819D01*
X133566666Y-55929819D02*
X133471428Y-55929819D01*
X133471428Y-55929819D02*
X133328571Y-55882200D01*
X133328571Y-55882200D02*
X133233333Y-55786961D01*
X133233333Y-55786961D02*
X133185714Y-55691723D01*
X133185714Y-55691723D02*
X133138095Y-55501247D01*
X133138095Y-55501247D02*
X133138095Y-55358390D01*
X133138095Y-55358390D02*
X133185714Y-55167914D01*
X133185714Y-55167914D02*
X133233333Y-55072676D01*
X133233333Y-55072676D02*
X133328571Y-54977438D01*
X133328571Y-54977438D02*
X133471428Y-54929819D01*
X133471428Y-54929819D02*
X133566666Y-54929819D01*
X133566666Y-54929819D02*
X133709523Y-54977438D01*
X133709523Y-54977438D02*
X133757142Y-55025057D01*
X134138095Y-55025057D02*
X134185714Y-54977438D01*
X134185714Y-54977438D02*
X134280952Y-54929819D01*
X134280952Y-54929819D02*
X134519047Y-54929819D01*
X134519047Y-54929819D02*
X134614285Y-54977438D01*
X134614285Y-54977438D02*
X134661904Y-55025057D01*
X134661904Y-55025057D02*
X134709523Y-55120295D01*
X134709523Y-55120295D02*
X134709523Y-55215533D01*
X134709523Y-55215533D02*
X134661904Y-55358390D01*
X134661904Y-55358390D02*
X134090476Y-55929819D01*
X134090476Y-55929819D02*
X134709523Y-55929819D01*
X135042857Y-54929819D02*
X135709523Y-54929819D01*
X135709523Y-54929819D02*
X135280952Y-55929819D01*
X123178095Y-60692219D02*
X123178095Y-61501742D01*
X123178095Y-61501742D02*
X123225714Y-61596980D01*
X123225714Y-61596980D02*
X123273333Y-61644600D01*
X123273333Y-61644600D02*
X123368571Y-61692219D01*
X123368571Y-61692219D02*
X123559047Y-61692219D01*
X123559047Y-61692219D02*
X123654285Y-61644600D01*
X123654285Y-61644600D02*
X123701904Y-61596980D01*
X123701904Y-61596980D02*
X123749523Y-61501742D01*
X123749523Y-61501742D02*
X123749523Y-60692219D01*
X124654285Y-61025552D02*
X124654285Y-61692219D01*
X124416190Y-60644600D02*
X124178095Y-61358885D01*
X124178095Y-61358885D02*
X124797142Y-61358885D01*
X137033333Y-84909580D02*
X136985714Y-84957200D01*
X136985714Y-84957200D02*
X136842857Y-85004819D01*
X136842857Y-85004819D02*
X136747619Y-85004819D01*
X136747619Y-85004819D02*
X136604762Y-84957200D01*
X136604762Y-84957200D02*
X136509524Y-84861961D01*
X136509524Y-84861961D02*
X136461905Y-84766723D01*
X136461905Y-84766723D02*
X136414286Y-84576247D01*
X136414286Y-84576247D02*
X136414286Y-84433390D01*
X136414286Y-84433390D02*
X136461905Y-84242914D01*
X136461905Y-84242914D02*
X136509524Y-84147676D01*
X136509524Y-84147676D02*
X136604762Y-84052438D01*
X136604762Y-84052438D02*
X136747619Y-84004819D01*
X136747619Y-84004819D02*
X136842857Y-84004819D01*
X136842857Y-84004819D02*
X136985714Y-84052438D01*
X136985714Y-84052438D02*
X137033333Y-84100057D01*
X137890476Y-84338152D02*
X137890476Y-85004819D01*
X137652381Y-83957200D02*
X137414286Y-84671485D01*
X137414286Y-84671485D02*
X138033333Y-84671485D01*
X141857142Y-93759580D02*
X141809523Y-93807200D01*
X141809523Y-93807200D02*
X141666666Y-93854819D01*
X141666666Y-93854819D02*
X141571428Y-93854819D01*
X141571428Y-93854819D02*
X141428571Y-93807200D01*
X141428571Y-93807200D02*
X141333333Y-93711961D01*
X141333333Y-93711961D02*
X141285714Y-93616723D01*
X141285714Y-93616723D02*
X141238095Y-93426247D01*
X141238095Y-93426247D02*
X141238095Y-93283390D01*
X141238095Y-93283390D02*
X141285714Y-93092914D01*
X141285714Y-93092914D02*
X141333333Y-92997676D01*
X141333333Y-92997676D02*
X141428571Y-92902438D01*
X141428571Y-92902438D02*
X141571428Y-92854819D01*
X141571428Y-92854819D02*
X141666666Y-92854819D01*
X141666666Y-92854819D02*
X141809523Y-92902438D01*
X141809523Y-92902438D02*
X141857142Y-92950057D01*
X142238095Y-92950057D02*
X142285714Y-92902438D01*
X142285714Y-92902438D02*
X142380952Y-92854819D01*
X142380952Y-92854819D02*
X142619047Y-92854819D01*
X142619047Y-92854819D02*
X142714285Y-92902438D01*
X142714285Y-92902438D02*
X142761904Y-92950057D01*
X142761904Y-92950057D02*
X142809523Y-93045295D01*
X142809523Y-93045295D02*
X142809523Y-93140533D01*
X142809523Y-93140533D02*
X142761904Y-93283390D01*
X142761904Y-93283390D02*
X142190476Y-93854819D01*
X142190476Y-93854819D02*
X142809523Y-93854819D01*
X143428571Y-92854819D02*
X143523809Y-92854819D01*
X143523809Y-92854819D02*
X143619047Y-92902438D01*
X143619047Y-92902438D02*
X143666666Y-92950057D01*
X143666666Y-92950057D02*
X143714285Y-93045295D01*
X143714285Y-93045295D02*
X143761904Y-93235771D01*
X143761904Y-93235771D02*
X143761904Y-93473866D01*
X143761904Y-93473866D02*
X143714285Y-93664342D01*
X143714285Y-93664342D02*
X143666666Y-93759580D01*
X143666666Y-93759580D02*
X143619047Y-93807200D01*
X143619047Y-93807200D02*
X143523809Y-93854819D01*
X143523809Y-93854819D02*
X143428571Y-93854819D01*
X143428571Y-93854819D02*
X143333333Y-93807200D01*
X143333333Y-93807200D02*
X143285714Y-93759580D01*
X143285714Y-93759580D02*
X143238095Y-93664342D01*
X143238095Y-93664342D02*
X143190476Y-93473866D01*
X143190476Y-93473866D02*
X143190476Y-93235771D01*
X143190476Y-93235771D02*
X143238095Y-93045295D01*
X143238095Y-93045295D02*
X143285714Y-92950057D01*
X143285714Y-92950057D02*
X143333333Y-92902438D01*
X143333333Y-92902438D02*
X143428571Y-92854819D01*
X130466666Y-77954819D02*
X130466666Y-78669104D01*
X130466666Y-78669104D02*
X130419047Y-78811961D01*
X130419047Y-78811961D02*
X130323809Y-78907200D01*
X130323809Y-78907200D02*
X130180952Y-78954819D01*
X130180952Y-78954819D02*
X130085714Y-78954819D01*
X130942857Y-78954819D02*
X130942857Y-77954819D01*
X130942857Y-77954819D02*
X131323809Y-77954819D01*
X131323809Y-77954819D02*
X131419047Y-78002438D01*
X131419047Y-78002438D02*
X131466666Y-78050057D01*
X131466666Y-78050057D02*
X131514285Y-78145295D01*
X131514285Y-78145295D02*
X131514285Y-78288152D01*
X131514285Y-78288152D02*
X131466666Y-78383390D01*
X131466666Y-78383390D02*
X131419047Y-78431009D01*
X131419047Y-78431009D02*
X131323809Y-78478628D01*
X131323809Y-78478628D02*
X130942857Y-78478628D01*
X131895238Y-78050057D02*
X131942857Y-78002438D01*
X131942857Y-78002438D02*
X132038095Y-77954819D01*
X132038095Y-77954819D02*
X132276190Y-77954819D01*
X132276190Y-77954819D02*
X132371428Y-78002438D01*
X132371428Y-78002438D02*
X132419047Y-78050057D01*
X132419047Y-78050057D02*
X132466666Y-78145295D01*
X132466666Y-78145295D02*
X132466666Y-78240533D01*
X132466666Y-78240533D02*
X132419047Y-78383390D01*
X132419047Y-78383390D02*
X131847619Y-78954819D01*
X131847619Y-78954819D02*
X132466666Y-78954819D01*
X114108333Y-126759580D02*
X114060714Y-126807200D01*
X114060714Y-126807200D02*
X113917857Y-126854819D01*
X113917857Y-126854819D02*
X113822619Y-126854819D01*
X113822619Y-126854819D02*
X113679762Y-126807200D01*
X113679762Y-126807200D02*
X113584524Y-126711961D01*
X113584524Y-126711961D02*
X113536905Y-126616723D01*
X113536905Y-126616723D02*
X113489286Y-126426247D01*
X113489286Y-126426247D02*
X113489286Y-126283390D01*
X113489286Y-126283390D02*
X113536905Y-126092914D01*
X113536905Y-126092914D02*
X113584524Y-125997676D01*
X113584524Y-125997676D02*
X113679762Y-125902438D01*
X113679762Y-125902438D02*
X113822619Y-125854819D01*
X113822619Y-125854819D02*
X113917857Y-125854819D01*
X113917857Y-125854819D02*
X114060714Y-125902438D01*
X114060714Y-125902438D02*
X114108333Y-125950057D01*
X114441667Y-125854819D02*
X115060714Y-125854819D01*
X115060714Y-125854819D02*
X114727381Y-126235771D01*
X114727381Y-126235771D02*
X114870238Y-126235771D01*
X114870238Y-126235771D02*
X114965476Y-126283390D01*
X114965476Y-126283390D02*
X115013095Y-126331009D01*
X115013095Y-126331009D02*
X115060714Y-126426247D01*
X115060714Y-126426247D02*
X115060714Y-126664342D01*
X115060714Y-126664342D02*
X115013095Y-126759580D01*
X115013095Y-126759580D02*
X114965476Y-126807200D01*
X114965476Y-126807200D02*
X114870238Y-126854819D01*
X114870238Y-126854819D02*
X114584524Y-126854819D01*
X114584524Y-126854819D02*
X114489286Y-126807200D01*
X114489286Y-126807200D02*
X114441667Y-126759580D01*
X109813095Y-124856819D02*
X110384523Y-124856819D01*
X110098809Y-125856819D02*
X110098809Y-124856819D01*
X110717857Y-125856819D02*
X110717857Y-124856819D01*
X110717857Y-124856819D02*
X111098809Y-124856819D01*
X111098809Y-124856819D02*
X111194047Y-124904438D01*
X111194047Y-124904438D02*
X111241666Y-124952057D01*
X111241666Y-124952057D02*
X111289285Y-125047295D01*
X111289285Y-125047295D02*
X111289285Y-125190152D01*
X111289285Y-125190152D02*
X111241666Y-125285390D01*
X111241666Y-125285390D02*
X111194047Y-125333009D01*
X111194047Y-125333009D02*
X111098809Y-125380628D01*
X111098809Y-125380628D02*
X110717857Y-125380628D01*
X111622619Y-124856819D02*
X112241666Y-124856819D01*
X112241666Y-124856819D02*
X111908333Y-125237771D01*
X111908333Y-125237771D02*
X112051190Y-125237771D01*
X112051190Y-125237771D02*
X112146428Y-125285390D01*
X112146428Y-125285390D02*
X112194047Y-125333009D01*
X112194047Y-125333009D02*
X112241666Y-125428247D01*
X112241666Y-125428247D02*
X112241666Y-125666342D01*
X112241666Y-125666342D02*
X112194047Y-125761580D01*
X112194047Y-125761580D02*
X112146428Y-125809200D01*
X112146428Y-125809200D02*
X112051190Y-125856819D01*
X112051190Y-125856819D02*
X111765476Y-125856819D01*
X111765476Y-125856819D02*
X111670238Y-125809200D01*
X111670238Y-125809200D02*
X111622619Y-125761580D01*
X142857142Y-60129819D02*
X142523809Y-59653628D01*
X142285714Y-60129819D02*
X142285714Y-59129819D01*
X142285714Y-59129819D02*
X142666666Y-59129819D01*
X142666666Y-59129819D02*
X142761904Y-59177438D01*
X142761904Y-59177438D02*
X142809523Y-59225057D01*
X142809523Y-59225057D02*
X142857142Y-59320295D01*
X142857142Y-59320295D02*
X142857142Y-59463152D01*
X142857142Y-59463152D02*
X142809523Y-59558390D01*
X142809523Y-59558390D02*
X142761904Y-59606009D01*
X142761904Y-59606009D02*
X142666666Y-59653628D01*
X142666666Y-59653628D02*
X142285714Y-59653628D01*
X143809523Y-60129819D02*
X143238095Y-60129819D01*
X143523809Y-60129819D02*
X143523809Y-59129819D01*
X143523809Y-59129819D02*
X143428571Y-59272676D01*
X143428571Y-59272676D02*
X143333333Y-59367914D01*
X143333333Y-59367914D02*
X143238095Y-59415533D01*
X144380952Y-59558390D02*
X144285714Y-59510771D01*
X144285714Y-59510771D02*
X144238095Y-59463152D01*
X144238095Y-59463152D02*
X144190476Y-59367914D01*
X144190476Y-59367914D02*
X144190476Y-59320295D01*
X144190476Y-59320295D02*
X144238095Y-59225057D01*
X144238095Y-59225057D02*
X144285714Y-59177438D01*
X144285714Y-59177438D02*
X144380952Y-59129819D01*
X144380952Y-59129819D02*
X144571428Y-59129819D01*
X144571428Y-59129819D02*
X144666666Y-59177438D01*
X144666666Y-59177438D02*
X144714285Y-59225057D01*
X144714285Y-59225057D02*
X144761904Y-59320295D01*
X144761904Y-59320295D02*
X144761904Y-59367914D01*
X144761904Y-59367914D02*
X144714285Y-59463152D01*
X144714285Y-59463152D02*
X144666666Y-59510771D01*
X144666666Y-59510771D02*
X144571428Y-59558390D01*
X144571428Y-59558390D02*
X144380952Y-59558390D01*
X144380952Y-59558390D02*
X144285714Y-59606009D01*
X144285714Y-59606009D02*
X144238095Y-59653628D01*
X144238095Y-59653628D02*
X144190476Y-59748866D01*
X144190476Y-59748866D02*
X144190476Y-59939342D01*
X144190476Y-59939342D02*
X144238095Y-60034580D01*
X144238095Y-60034580D02*
X144285714Y-60082200D01*
X144285714Y-60082200D02*
X144380952Y-60129819D01*
X144380952Y-60129819D02*
X144571428Y-60129819D01*
X144571428Y-60129819D02*
X144666666Y-60082200D01*
X144666666Y-60082200D02*
X144714285Y-60034580D01*
X144714285Y-60034580D02*
X144761904Y-59939342D01*
X144761904Y-59939342D02*
X144761904Y-59748866D01*
X144761904Y-59748866D02*
X144714285Y-59653628D01*
X144714285Y-59653628D02*
X144666666Y-59606009D01*
X144666666Y-59606009D02*
X144571428Y-59558390D01*
X116511905Y-122554819D02*
X116511905Y-121554819D01*
X116511905Y-121554819D02*
X116750000Y-121554819D01*
X116750000Y-121554819D02*
X116892857Y-121602438D01*
X116892857Y-121602438D02*
X116988095Y-121697676D01*
X116988095Y-121697676D02*
X117035714Y-121792914D01*
X117035714Y-121792914D02*
X117083333Y-121983390D01*
X117083333Y-121983390D02*
X117083333Y-122126247D01*
X117083333Y-122126247D02*
X117035714Y-122316723D01*
X117035714Y-122316723D02*
X116988095Y-122411961D01*
X116988095Y-122411961D02*
X116892857Y-122507200D01*
X116892857Y-122507200D02*
X116750000Y-122554819D01*
X116750000Y-122554819D02*
X116511905Y-122554819D01*
X117988095Y-121554819D02*
X117511905Y-121554819D01*
X117511905Y-121554819D02*
X117464286Y-122031009D01*
X117464286Y-122031009D02*
X117511905Y-121983390D01*
X117511905Y-121983390D02*
X117607143Y-121935771D01*
X117607143Y-121935771D02*
X117845238Y-121935771D01*
X117845238Y-121935771D02*
X117940476Y-121983390D01*
X117940476Y-121983390D02*
X117988095Y-122031009D01*
X117988095Y-122031009D02*
X118035714Y-122126247D01*
X118035714Y-122126247D02*
X118035714Y-122364342D01*
X118035714Y-122364342D02*
X117988095Y-122459580D01*
X117988095Y-122459580D02*
X117940476Y-122507200D01*
X117940476Y-122507200D02*
X117845238Y-122554819D01*
X117845238Y-122554819D02*
X117607143Y-122554819D01*
X117607143Y-122554819D02*
X117511905Y-122507200D01*
X117511905Y-122507200D02*
X117464286Y-122459580D01*
X110238095Y-115906819D02*
X110809523Y-115906819D01*
X110523809Y-116906819D02*
X110523809Y-115906819D01*
X111142857Y-116906819D02*
X111142857Y-115906819D01*
X111142857Y-115906819D02*
X111523809Y-115906819D01*
X111523809Y-115906819D02*
X111619047Y-115954438D01*
X111619047Y-115954438D02*
X111666666Y-116002057D01*
X111666666Y-116002057D02*
X111714285Y-116097295D01*
X111714285Y-116097295D02*
X111714285Y-116240152D01*
X111714285Y-116240152D02*
X111666666Y-116335390D01*
X111666666Y-116335390D02*
X111619047Y-116383009D01*
X111619047Y-116383009D02*
X111523809Y-116430628D01*
X111523809Y-116430628D02*
X111142857Y-116430628D01*
X112571428Y-116240152D02*
X112571428Y-116906819D01*
X112333333Y-115859200D02*
X112095238Y-116573485D01*
X112095238Y-116573485D02*
X112714285Y-116573485D01*
X147661905Y-75454819D02*
X147661905Y-74454819D01*
X147661905Y-74454819D02*
X147900000Y-74454819D01*
X147900000Y-74454819D02*
X148042857Y-74502438D01*
X148042857Y-74502438D02*
X148138095Y-74597676D01*
X148138095Y-74597676D02*
X148185714Y-74692914D01*
X148185714Y-74692914D02*
X148233333Y-74883390D01*
X148233333Y-74883390D02*
X148233333Y-75026247D01*
X148233333Y-75026247D02*
X148185714Y-75216723D01*
X148185714Y-75216723D02*
X148138095Y-75311961D01*
X148138095Y-75311961D02*
X148042857Y-75407200D01*
X148042857Y-75407200D02*
X147900000Y-75454819D01*
X147900000Y-75454819D02*
X147661905Y-75454819D01*
X149185714Y-75454819D02*
X148614286Y-75454819D01*
X148900000Y-75454819D02*
X148900000Y-74454819D01*
X148900000Y-74454819D02*
X148804762Y-74597676D01*
X148804762Y-74597676D02*
X148709524Y-74692914D01*
X148709524Y-74692914D02*
X148614286Y-74740533D01*
X120138095Y-125156819D02*
X120709523Y-125156819D01*
X120423809Y-126156819D02*
X120423809Y-125156819D01*
X121042857Y-126156819D02*
X121042857Y-125156819D01*
X121042857Y-125156819D02*
X121423809Y-125156819D01*
X121423809Y-125156819D02*
X121519047Y-125204438D01*
X121519047Y-125204438D02*
X121566666Y-125252057D01*
X121566666Y-125252057D02*
X121614285Y-125347295D01*
X121614285Y-125347295D02*
X121614285Y-125490152D01*
X121614285Y-125490152D02*
X121566666Y-125585390D01*
X121566666Y-125585390D02*
X121519047Y-125633009D01*
X121519047Y-125633009D02*
X121423809Y-125680628D01*
X121423809Y-125680628D02*
X121042857Y-125680628D01*
X121995238Y-125252057D02*
X122042857Y-125204438D01*
X122042857Y-125204438D02*
X122138095Y-125156819D01*
X122138095Y-125156819D02*
X122376190Y-125156819D01*
X122376190Y-125156819D02*
X122471428Y-125204438D01*
X122471428Y-125204438D02*
X122519047Y-125252057D01*
X122519047Y-125252057D02*
X122566666Y-125347295D01*
X122566666Y-125347295D02*
X122566666Y-125442533D01*
X122566666Y-125442533D02*
X122519047Y-125585390D01*
X122519047Y-125585390D02*
X121947619Y-126156819D01*
X121947619Y-126156819D02*
X122566666Y-126156819D01*
X170599405Y-91254819D02*
X170599405Y-90254819D01*
X170599405Y-90254819D02*
X170837500Y-90254819D01*
X170837500Y-90254819D02*
X170980357Y-90302438D01*
X170980357Y-90302438D02*
X171075595Y-90397676D01*
X171075595Y-90397676D02*
X171123214Y-90492914D01*
X171123214Y-90492914D02*
X171170833Y-90683390D01*
X171170833Y-90683390D02*
X171170833Y-90826247D01*
X171170833Y-90826247D02*
X171123214Y-91016723D01*
X171123214Y-91016723D02*
X171075595Y-91111961D01*
X171075595Y-91111961D02*
X170980357Y-91207200D01*
X170980357Y-91207200D02*
X170837500Y-91254819D01*
X170837500Y-91254819D02*
X170599405Y-91254819D01*
X171647024Y-91254819D02*
X171837500Y-91254819D01*
X171837500Y-91254819D02*
X171932738Y-91207200D01*
X171932738Y-91207200D02*
X171980357Y-91159580D01*
X171980357Y-91159580D02*
X172075595Y-91016723D01*
X172075595Y-91016723D02*
X172123214Y-90826247D01*
X172123214Y-90826247D02*
X172123214Y-90445295D01*
X172123214Y-90445295D02*
X172075595Y-90350057D01*
X172075595Y-90350057D02*
X172027976Y-90302438D01*
X172027976Y-90302438D02*
X171932738Y-90254819D01*
X171932738Y-90254819D02*
X171742262Y-90254819D01*
X171742262Y-90254819D02*
X171647024Y-90302438D01*
X171647024Y-90302438D02*
X171599405Y-90350057D01*
X171599405Y-90350057D02*
X171551786Y-90445295D01*
X171551786Y-90445295D02*
X171551786Y-90683390D01*
X171551786Y-90683390D02*
X171599405Y-90778628D01*
X171599405Y-90778628D02*
X171647024Y-90826247D01*
X171647024Y-90826247D02*
X171742262Y-90873866D01*
X171742262Y-90873866D02*
X171932738Y-90873866D01*
X171932738Y-90873866D02*
X172027976Y-90826247D01*
X172027976Y-90826247D02*
X172075595Y-90778628D01*
X172075595Y-90778628D02*
X172123214Y-90683390D01*
X150538095Y-82654819D02*
X150538095Y-83464342D01*
X150538095Y-83464342D02*
X150585714Y-83559580D01*
X150585714Y-83559580D02*
X150633333Y-83607200D01*
X150633333Y-83607200D02*
X150728571Y-83654819D01*
X150728571Y-83654819D02*
X150919047Y-83654819D01*
X150919047Y-83654819D02*
X151014285Y-83607200D01*
X151014285Y-83607200D02*
X151061904Y-83559580D01*
X151061904Y-83559580D02*
X151109523Y-83464342D01*
X151109523Y-83464342D02*
X151109523Y-82654819D01*
X151490476Y-82654819D02*
X152109523Y-82654819D01*
X152109523Y-82654819D02*
X151776190Y-83035771D01*
X151776190Y-83035771D02*
X151919047Y-83035771D01*
X151919047Y-83035771D02*
X152014285Y-83083390D01*
X152014285Y-83083390D02*
X152061904Y-83131009D01*
X152061904Y-83131009D02*
X152109523Y-83226247D01*
X152109523Y-83226247D02*
X152109523Y-83464342D01*
X152109523Y-83464342D02*
X152061904Y-83559580D01*
X152061904Y-83559580D02*
X152014285Y-83607200D01*
X152014285Y-83607200D02*
X151919047Y-83654819D01*
X151919047Y-83654819D02*
X151633333Y-83654819D01*
X151633333Y-83654819D02*
X151538095Y-83607200D01*
X151538095Y-83607200D02*
X151490476Y-83559580D01*
X164238095Y-84454819D02*
X164238095Y-85264342D01*
X164238095Y-85264342D02*
X164285714Y-85359580D01*
X164285714Y-85359580D02*
X164333333Y-85407200D01*
X164333333Y-85407200D02*
X164428571Y-85454819D01*
X164428571Y-85454819D02*
X164619047Y-85454819D01*
X164619047Y-85454819D02*
X164714285Y-85407200D01*
X164714285Y-85407200D02*
X164761904Y-85359580D01*
X164761904Y-85359580D02*
X164809523Y-85264342D01*
X164809523Y-85264342D02*
X164809523Y-84454819D01*
X165809523Y-85454819D02*
X165238095Y-85454819D01*
X165523809Y-85454819D02*
X165523809Y-84454819D01*
X165523809Y-84454819D02*
X165428571Y-84597676D01*
X165428571Y-84597676D02*
X165333333Y-84692914D01*
X165333333Y-84692914D02*
X165238095Y-84740533D01*
X136332988Y-131542319D02*
X136332988Y-130542319D01*
X136332988Y-130542319D02*
X136571083Y-130542319D01*
X136571083Y-130542319D02*
X136713940Y-130589938D01*
X136713940Y-130589938D02*
X136809178Y-130685176D01*
X136809178Y-130685176D02*
X136856797Y-130780414D01*
X136856797Y-130780414D02*
X136904416Y-130970890D01*
X136904416Y-130970890D02*
X136904416Y-131113747D01*
X136904416Y-131113747D02*
X136856797Y-131304223D01*
X136856797Y-131304223D02*
X136809178Y-131399461D01*
X136809178Y-131399461D02*
X136713940Y-131494700D01*
X136713940Y-131494700D02*
X136571083Y-131542319D01*
X136571083Y-131542319D02*
X136332988Y-131542319D01*
X137856797Y-131542319D02*
X137285369Y-131542319D01*
X137571083Y-131542319D02*
X137571083Y-130542319D01*
X137571083Y-130542319D02*
X137475845Y-130685176D01*
X137475845Y-130685176D02*
X137380607Y-130780414D01*
X137380607Y-130780414D02*
X137285369Y-130828033D01*
X138475845Y-130542319D02*
X138571083Y-130542319D01*
X138571083Y-130542319D02*
X138666321Y-130589938D01*
X138666321Y-130589938D02*
X138713940Y-130637557D01*
X138713940Y-130637557D02*
X138761559Y-130732795D01*
X138761559Y-130732795D02*
X138809178Y-130923271D01*
X138809178Y-130923271D02*
X138809178Y-131161366D01*
X138809178Y-131161366D02*
X138761559Y-131351842D01*
X138761559Y-131351842D02*
X138713940Y-131447080D01*
X138713940Y-131447080D02*
X138666321Y-131494700D01*
X138666321Y-131494700D02*
X138571083Y-131542319D01*
X138571083Y-131542319D02*
X138475845Y-131542319D01*
X138475845Y-131542319D02*
X138380607Y-131494700D01*
X138380607Y-131494700D02*
X138332988Y-131447080D01*
X138332988Y-131447080D02*
X138285369Y-131351842D01*
X138285369Y-131351842D02*
X138237750Y-131161366D01*
X138237750Y-131161366D02*
X138237750Y-130923271D01*
X138237750Y-130923271D02*
X138285369Y-130732795D01*
X138285369Y-130732795D02*
X138332988Y-130637557D01*
X138332988Y-130637557D02*
X138380607Y-130589938D01*
X138380607Y-130589938D02*
X138475845Y-130542319D01*
X142857142Y-61829819D02*
X142523809Y-61353628D01*
X142285714Y-61829819D02*
X142285714Y-60829819D01*
X142285714Y-60829819D02*
X142666666Y-60829819D01*
X142666666Y-60829819D02*
X142761904Y-60877438D01*
X142761904Y-60877438D02*
X142809523Y-60925057D01*
X142809523Y-60925057D02*
X142857142Y-61020295D01*
X142857142Y-61020295D02*
X142857142Y-61163152D01*
X142857142Y-61163152D02*
X142809523Y-61258390D01*
X142809523Y-61258390D02*
X142761904Y-61306009D01*
X142761904Y-61306009D02*
X142666666Y-61353628D01*
X142666666Y-61353628D02*
X142285714Y-61353628D01*
X143809523Y-61829819D02*
X143238095Y-61829819D01*
X143523809Y-61829819D02*
X143523809Y-60829819D01*
X143523809Y-60829819D02*
X143428571Y-60972676D01*
X143428571Y-60972676D02*
X143333333Y-61067914D01*
X143333333Y-61067914D02*
X143238095Y-61115533D01*
X144142857Y-60829819D02*
X144809523Y-60829819D01*
X144809523Y-60829819D02*
X144380952Y-61829819D01*
X127457142Y-74354819D02*
X127123809Y-73878628D01*
X126885714Y-74354819D02*
X126885714Y-73354819D01*
X126885714Y-73354819D02*
X127266666Y-73354819D01*
X127266666Y-73354819D02*
X127361904Y-73402438D01*
X127361904Y-73402438D02*
X127409523Y-73450057D01*
X127409523Y-73450057D02*
X127457142Y-73545295D01*
X127457142Y-73545295D02*
X127457142Y-73688152D01*
X127457142Y-73688152D02*
X127409523Y-73783390D01*
X127409523Y-73783390D02*
X127361904Y-73831009D01*
X127361904Y-73831009D02*
X127266666Y-73878628D01*
X127266666Y-73878628D02*
X126885714Y-73878628D01*
X128409523Y-74354819D02*
X127838095Y-74354819D01*
X128123809Y-74354819D02*
X128123809Y-73354819D01*
X128123809Y-73354819D02*
X128028571Y-73497676D01*
X128028571Y-73497676D02*
X127933333Y-73592914D01*
X127933333Y-73592914D02*
X127838095Y-73640533D01*
X129028571Y-73354819D02*
X129123809Y-73354819D01*
X129123809Y-73354819D02*
X129219047Y-73402438D01*
X129219047Y-73402438D02*
X129266666Y-73450057D01*
X129266666Y-73450057D02*
X129314285Y-73545295D01*
X129314285Y-73545295D02*
X129361904Y-73735771D01*
X129361904Y-73735771D02*
X129361904Y-73973866D01*
X129361904Y-73973866D02*
X129314285Y-74164342D01*
X129314285Y-74164342D02*
X129266666Y-74259580D01*
X129266666Y-74259580D02*
X129219047Y-74307200D01*
X129219047Y-74307200D02*
X129123809Y-74354819D01*
X129123809Y-74354819D02*
X129028571Y-74354819D01*
X129028571Y-74354819D02*
X128933333Y-74307200D01*
X128933333Y-74307200D02*
X128885714Y-74259580D01*
X128885714Y-74259580D02*
X128838095Y-74164342D01*
X128838095Y-74164342D02*
X128790476Y-73973866D01*
X128790476Y-73973866D02*
X128790476Y-73735771D01*
X128790476Y-73735771D02*
X128838095Y-73545295D01*
X128838095Y-73545295D02*
X128885714Y-73450057D01*
X128885714Y-73450057D02*
X128933333Y-73402438D01*
X128933333Y-73402438D02*
X129028571Y-73354819D01*
X128157142Y-65634580D02*
X128109523Y-65682200D01*
X128109523Y-65682200D02*
X127966666Y-65729819D01*
X127966666Y-65729819D02*
X127871428Y-65729819D01*
X127871428Y-65729819D02*
X127728571Y-65682200D01*
X127728571Y-65682200D02*
X127633333Y-65586961D01*
X127633333Y-65586961D02*
X127585714Y-65491723D01*
X127585714Y-65491723D02*
X127538095Y-65301247D01*
X127538095Y-65301247D02*
X127538095Y-65158390D01*
X127538095Y-65158390D02*
X127585714Y-64967914D01*
X127585714Y-64967914D02*
X127633333Y-64872676D01*
X127633333Y-64872676D02*
X127728571Y-64777438D01*
X127728571Y-64777438D02*
X127871428Y-64729819D01*
X127871428Y-64729819D02*
X127966666Y-64729819D01*
X127966666Y-64729819D02*
X128109523Y-64777438D01*
X128109523Y-64777438D02*
X128157142Y-64825057D01*
X128538095Y-64825057D02*
X128585714Y-64777438D01*
X128585714Y-64777438D02*
X128680952Y-64729819D01*
X128680952Y-64729819D02*
X128919047Y-64729819D01*
X128919047Y-64729819D02*
X129014285Y-64777438D01*
X129014285Y-64777438D02*
X129061904Y-64825057D01*
X129061904Y-64825057D02*
X129109523Y-64920295D01*
X129109523Y-64920295D02*
X129109523Y-65015533D01*
X129109523Y-65015533D02*
X129061904Y-65158390D01*
X129061904Y-65158390D02*
X128490476Y-65729819D01*
X128490476Y-65729819D02*
X129109523Y-65729819D01*
X130014285Y-64729819D02*
X129538095Y-64729819D01*
X129538095Y-64729819D02*
X129490476Y-65206009D01*
X129490476Y-65206009D02*
X129538095Y-65158390D01*
X129538095Y-65158390D02*
X129633333Y-65110771D01*
X129633333Y-65110771D02*
X129871428Y-65110771D01*
X129871428Y-65110771D02*
X129966666Y-65158390D01*
X129966666Y-65158390D02*
X130014285Y-65206009D01*
X130014285Y-65206009D02*
X130061904Y-65301247D01*
X130061904Y-65301247D02*
X130061904Y-65539342D01*
X130061904Y-65539342D02*
X130014285Y-65634580D01*
X130014285Y-65634580D02*
X129966666Y-65682200D01*
X129966666Y-65682200D02*
X129871428Y-65729819D01*
X129871428Y-65729819D02*
X129633333Y-65729819D01*
X129633333Y-65729819D02*
X129538095Y-65682200D01*
X129538095Y-65682200D02*
X129490476Y-65634580D01*
X124611905Y-133854819D02*
X124611905Y-132854819D01*
X124611905Y-132854819D02*
X124850000Y-132854819D01*
X124850000Y-132854819D02*
X124992857Y-132902438D01*
X124992857Y-132902438D02*
X125088095Y-132997676D01*
X125088095Y-132997676D02*
X125135714Y-133092914D01*
X125135714Y-133092914D02*
X125183333Y-133283390D01*
X125183333Y-133283390D02*
X125183333Y-133426247D01*
X125183333Y-133426247D02*
X125135714Y-133616723D01*
X125135714Y-133616723D02*
X125088095Y-133711961D01*
X125088095Y-133711961D02*
X124992857Y-133807200D01*
X124992857Y-133807200D02*
X124850000Y-133854819D01*
X124850000Y-133854819D02*
X124611905Y-133854819D01*
X125516667Y-132854819D02*
X126135714Y-132854819D01*
X126135714Y-132854819D02*
X125802381Y-133235771D01*
X125802381Y-133235771D02*
X125945238Y-133235771D01*
X125945238Y-133235771D02*
X126040476Y-133283390D01*
X126040476Y-133283390D02*
X126088095Y-133331009D01*
X126088095Y-133331009D02*
X126135714Y-133426247D01*
X126135714Y-133426247D02*
X126135714Y-133664342D01*
X126135714Y-133664342D02*
X126088095Y-133759580D01*
X126088095Y-133759580D02*
X126040476Y-133807200D01*
X126040476Y-133807200D02*
X125945238Y-133854819D01*
X125945238Y-133854819D02*
X125659524Y-133854819D01*
X125659524Y-133854819D02*
X125564286Y-133807200D01*
X125564286Y-133807200D02*
X125516667Y-133759580D01*
X128057142Y-62434580D02*
X128009523Y-62482200D01*
X128009523Y-62482200D02*
X127866666Y-62529819D01*
X127866666Y-62529819D02*
X127771428Y-62529819D01*
X127771428Y-62529819D02*
X127628571Y-62482200D01*
X127628571Y-62482200D02*
X127533333Y-62386961D01*
X127533333Y-62386961D02*
X127485714Y-62291723D01*
X127485714Y-62291723D02*
X127438095Y-62101247D01*
X127438095Y-62101247D02*
X127438095Y-61958390D01*
X127438095Y-61958390D02*
X127485714Y-61767914D01*
X127485714Y-61767914D02*
X127533333Y-61672676D01*
X127533333Y-61672676D02*
X127628571Y-61577438D01*
X127628571Y-61577438D02*
X127771428Y-61529819D01*
X127771428Y-61529819D02*
X127866666Y-61529819D01*
X127866666Y-61529819D02*
X128009523Y-61577438D01*
X128009523Y-61577438D02*
X128057142Y-61625057D01*
X128438095Y-61625057D02*
X128485714Y-61577438D01*
X128485714Y-61577438D02*
X128580952Y-61529819D01*
X128580952Y-61529819D02*
X128819047Y-61529819D01*
X128819047Y-61529819D02*
X128914285Y-61577438D01*
X128914285Y-61577438D02*
X128961904Y-61625057D01*
X128961904Y-61625057D02*
X129009523Y-61720295D01*
X129009523Y-61720295D02*
X129009523Y-61815533D01*
X129009523Y-61815533D02*
X128961904Y-61958390D01*
X128961904Y-61958390D02*
X128390476Y-62529819D01*
X128390476Y-62529819D02*
X129009523Y-62529819D01*
X129866666Y-61863152D02*
X129866666Y-62529819D01*
X129628571Y-61482200D02*
X129390476Y-62196485D01*
X129390476Y-62196485D02*
X130009523Y-62196485D01*
X145583333Y-79579580D02*
X145535714Y-79627200D01*
X145535714Y-79627200D02*
X145392857Y-79674819D01*
X145392857Y-79674819D02*
X145297619Y-79674819D01*
X145297619Y-79674819D02*
X145154762Y-79627200D01*
X145154762Y-79627200D02*
X145059524Y-79531961D01*
X145059524Y-79531961D02*
X145011905Y-79436723D01*
X145011905Y-79436723D02*
X144964286Y-79246247D01*
X144964286Y-79246247D02*
X144964286Y-79103390D01*
X144964286Y-79103390D02*
X145011905Y-78912914D01*
X145011905Y-78912914D02*
X145059524Y-78817676D01*
X145059524Y-78817676D02*
X145154762Y-78722438D01*
X145154762Y-78722438D02*
X145297619Y-78674819D01*
X145297619Y-78674819D02*
X145392857Y-78674819D01*
X145392857Y-78674819D02*
X145535714Y-78722438D01*
X145535714Y-78722438D02*
X145583333Y-78770057D01*
X145916667Y-78674819D02*
X146583333Y-78674819D01*
X146583333Y-78674819D02*
X146154762Y-79674819D01*
X131722809Y-87977628D02*
X131722809Y-88453819D01*
X131389476Y-87453819D02*
X131722809Y-87977628D01*
X131722809Y-87977628D02*
X132056142Y-87453819D01*
X132913285Y-88453819D02*
X132341857Y-88453819D01*
X132627571Y-88453819D02*
X132627571Y-87453819D01*
X132627571Y-87453819D02*
X132532333Y-87596676D01*
X132532333Y-87596676D02*
X132437095Y-87691914D01*
X132437095Y-87691914D02*
X132341857Y-87739533D01*
X111361905Y-71329819D02*
X111933333Y-71329819D01*
X111647619Y-72329819D02*
X111647619Y-71329819D01*
X112266667Y-72329819D02*
X112266667Y-71329819D01*
X112266667Y-71329819D02*
X112647619Y-71329819D01*
X112647619Y-71329819D02*
X112742857Y-71377438D01*
X112742857Y-71377438D02*
X112790476Y-71425057D01*
X112790476Y-71425057D02*
X112838095Y-71520295D01*
X112838095Y-71520295D02*
X112838095Y-71663152D01*
X112838095Y-71663152D02*
X112790476Y-71758390D01*
X112790476Y-71758390D02*
X112742857Y-71806009D01*
X112742857Y-71806009D02*
X112647619Y-71853628D01*
X112647619Y-71853628D02*
X112266667Y-71853628D01*
X113790476Y-72329819D02*
X113219048Y-72329819D01*
X113504762Y-72329819D02*
X113504762Y-71329819D01*
X113504762Y-71329819D02*
X113409524Y-71472676D01*
X113409524Y-71472676D02*
X113314286Y-71567914D01*
X113314286Y-71567914D02*
X113219048Y-71615533D01*
X114123810Y-71329819D02*
X114742857Y-71329819D01*
X114742857Y-71329819D02*
X114409524Y-71710771D01*
X114409524Y-71710771D02*
X114552381Y-71710771D01*
X114552381Y-71710771D02*
X114647619Y-71758390D01*
X114647619Y-71758390D02*
X114695238Y-71806009D01*
X114695238Y-71806009D02*
X114742857Y-71901247D01*
X114742857Y-71901247D02*
X114742857Y-72139342D01*
X114742857Y-72139342D02*
X114695238Y-72234580D01*
X114695238Y-72234580D02*
X114647619Y-72282200D01*
X114647619Y-72282200D02*
X114552381Y-72329819D01*
X114552381Y-72329819D02*
X114266667Y-72329819D01*
X114266667Y-72329819D02*
X114171429Y-72282200D01*
X114171429Y-72282200D02*
X114123810Y-72234580D01*
X109708333Y-132054819D02*
X109375000Y-131578628D01*
X109136905Y-132054819D02*
X109136905Y-131054819D01*
X109136905Y-131054819D02*
X109517857Y-131054819D01*
X109517857Y-131054819D02*
X109613095Y-131102438D01*
X109613095Y-131102438D02*
X109660714Y-131150057D01*
X109660714Y-131150057D02*
X109708333Y-131245295D01*
X109708333Y-131245295D02*
X109708333Y-131388152D01*
X109708333Y-131388152D02*
X109660714Y-131483390D01*
X109660714Y-131483390D02*
X109613095Y-131531009D01*
X109613095Y-131531009D02*
X109517857Y-131578628D01*
X109517857Y-131578628D02*
X109136905Y-131578628D01*
X110041667Y-131054819D02*
X110708333Y-131054819D01*
X110708333Y-131054819D02*
X110279762Y-132054819D01*
X119833333Y-132354819D02*
X119500000Y-131878628D01*
X119261905Y-132354819D02*
X119261905Y-131354819D01*
X119261905Y-131354819D02*
X119642857Y-131354819D01*
X119642857Y-131354819D02*
X119738095Y-131402438D01*
X119738095Y-131402438D02*
X119785714Y-131450057D01*
X119785714Y-131450057D02*
X119833333Y-131545295D01*
X119833333Y-131545295D02*
X119833333Y-131688152D01*
X119833333Y-131688152D02*
X119785714Y-131783390D01*
X119785714Y-131783390D02*
X119738095Y-131831009D01*
X119738095Y-131831009D02*
X119642857Y-131878628D01*
X119642857Y-131878628D02*
X119261905Y-131878628D01*
X120690476Y-131354819D02*
X120500000Y-131354819D01*
X120500000Y-131354819D02*
X120404762Y-131402438D01*
X120404762Y-131402438D02*
X120357143Y-131450057D01*
X120357143Y-131450057D02*
X120261905Y-131592914D01*
X120261905Y-131592914D02*
X120214286Y-131783390D01*
X120214286Y-131783390D02*
X120214286Y-132164342D01*
X120214286Y-132164342D02*
X120261905Y-132259580D01*
X120261905Y-132259580D02*
X120309524Y-132307200D01*
X120309524Y-132307200D02*
X120404762Y-132354819D01*
X120404762Y-132354819D02*
X120595238Y-132354819D01*
X120595238Y-132354819D02*
X120690476Y-132307200D01*
X120690476Y-132307200D02*
X120738095Y-132259580D01*
X120738095Y-132259580D02*
X120785714Y-132164342D01*
X120785714Y-132164342D02*
X120785714Y-131926247D01*
X120785714Y-131926247D02*
X120738095Y-131831009D01*
X120738095Y-131831009D02*
X120690476Y-131783390D01*
X120690476Y-131783390D02*
X120595238Y-131735771D01*
X120595238Y-131735771D02*
X120404762Y-131735771D01*
X120404762Y-131735771D02*
X120309524Y-131783390D01*
X120309524Y-131783390D02*
X120261905Y-131831009D01*
X120261905Y-131831009D02*
X120214286Y-131926247D01*
X112557142Y-67534580D02*
X112509523Y-67582200D01*
X112509523Y-67582200D02*
X112366666Y-67629819D01*
X112366666Y-67629819D02*
X112271428Y-67629819D01*
X112271428Y-67629819D02*
X112128571Y-67582200D01*
X112128571Y-67582200D02*
X112033333Y-67486961D01*
X112033333Y-67486961D02*
X111985714Y-67391723D01*
X111985714Y-67391723D02*
X111938095Y-67201247D01*
X111938095Y-67201247D02*
X111938095Y-67058390D01*
X111938095Y-67058390D02*
X111985714Y-66867914D01*
X111985714Y-66867914D02*
X112033333Y-66772676D01*
X112033333Y-66772676D02*
X112128571Y-66677438D01*
X112128571Y-66677438D02*
X112271428Y-66629819D01*
X112271428Y-66629819D02*
X112366666Y-66629819D01*
X112366666Y-66629819D02*
X112509523Y-66677438D01*
X112509523Y-66677438D02*
X112557142Y-66725057D01*
X112938095Y-66725057D02*
X112985714Y-66677438D01*
X112985714Y-66677438D02*
X113080952Y-66629819D01*
X113080952Y-66629819D02*
X113319047Y-66629819D01*
X113319047Y-66629819D02*
X113414285Y-66677438D01*
X113414285Y-66677438D02*
X113461904Y-66725057D01*
X113461904Y-66725057D02*
X113509523Y-66820295D01*
X113509523Y-66820295D02*
X113509523Y-66915533D01*
X113509523Y-66915533D02*
X113461904Y-67058390D01*
X113461904Y-67058390D02*
X112890476Y-67629819D01*
X112890476Y-67629819D02*
X113509523Y-67629819D01*
X114461904Y-67629819D02*
X113890476Y-67629819D01*
X114176190Y-67629819D02*
X114176190Y-66629819D01*
X114176190Y-66629819D02*
X114080952Y-66772676D01*
X114080952Y-66772676D02*
X113985714Y-66867914D01*
X113985714Y-66867914D02*
X113890476Y-66915533D01*
X126004761Y-80900057D02*
X125909523Y-80852438D01*
X125909523Y-80852438D02*
X125814285Y-80757200D01*
X125814285Y-80757200D02*
X125671428Y-80614342D01*
X125671428Y-80614342D02*
X125576190Y-80566723D01*
X125576190Y-80566723D02*
X125480952Y-80566723D01*
X125528571Y-80804819D02*
X125433333Y-80757200D01*
X125433333Y-80757200D02*
X125338095Y-80661961D01*
X125338095Y-80661961D02*
X125290476Y-80471485D01*
X125290476Y-80471485D02*
X125290476Y-80138152D01*
X125290476Y-80138152D02*
X125338095Y-79947676D01*
X125338095Y-79947676D02*
X125433333Y-79852438D01*
X125433333Y-79852438D02*
X125528571Y-79804819D01*
X125528571Y-79804819D02*
X125719047Y-79804819D01*
X125719047Y-79804819D02*
X125814285Y-79852438D01*
X125814285Y-79852438D02*
X125909523Y-79947676D01*
X125909523Y-79947676D02*
X125957142Y-80138152D01*
X125957142Y-80138152D02*
X125957142Y-80471485D01*
X125957142Y-80471485D02*
X125909523Y-80661961D01*
X125909523Y-80661961D02*
X125814285Y-80757200D01*
X125814285Y-80757200D02*
X125719047Y-80804819D01*
X125719047Y-80804819D02*
X125528571Y-80804819D01*
X126814285Y-80138152D02*
X126814285Y-80804819D01*
X126576190Y-79757200D02*
X126338095Y-80471485D01*
X126338095Y-80471485D02*
X126957142Y-80471485D01*
X119666666Y-79754819D02*
X119666666Y-80469104D01*
X119666666Y-80469104D02*
X119619047Y-80611961D01*
X119619047Y-80611961D02*
X119523809Y-80707200D01*
X119523809Y-80707200D02*
X119380952Y-80754819D01*
X119380952Y-80754819D02*
X119285714Y-80754819D01*
X120142857Y-80754819D02*
X120142857Y-79754819D01*
X120142857Y-79754819D02*
X120523809Y-79754819D01*
X120523809Y-79754819D02*
X120619047Y-79802438D01*
X120619047Y-79802438D02*
X120666666Y-79850057D01*
X120666666Y-79850057D02*
X120714285Y-79945295D01*
X120714285Y-79945295D02*
X120714285Y-80088152D01*
X120714285Y-80088152D02*
X120666666Y-80183390D01*
X120666666Y-80183390D02*
X120619047Y-80231009D01*
X120619047Y-80231009D02*
X120523809Y-80278628D01*
X120523809Y-80278628D02*
X120142857Y-80278628D01*
X121666666Y-80754819D02*
X121095238Y-80754819D01*
X121380952Y-80754819D02*
X121380952Y-79754819D01*
X121380952Y-79754819D02*
X121285714Y-79897676D01*
X121285714Y-79897676D02*
X121190476Y-79992914D01*
X121190476Y-79992914D02*
X121095238Y-80040533D01*
X122933333Y-80754819D02*
X122600000Y-80278628D01*
X122361905Y-80754819D02*
X122361905Y-79754819D01*
X122361905Y-79754819D02*
X122742857Y-79754819D01*
X122742857Y-79754819D02*
X122838095Y-79802438D01*
X122838095Y-79802438D02*
X122885714Y-79850057D01*
X122885714Y-79850057D02*
X122933333Y-79945295D01*
X122933333Y-79945295D02*
X122933333Y-80088152D01*
X122933333Y-80088152D02*
X122885714Y-80183390D01*
X122885714Y-80183390D02*
X122838095Y-80231009D01*
X122838095Y-80231009D02*
X122742857Y-80278628D01*
X122742857Y-80278628D02*
X122361905Y-80278628D01*
X123409524Y-80754819D02*
X123600000Y-80754819D01*
X123600000Y-80754819D02*
X123695238Y-80707200D01*
X123695238Y-80707200D02*
X123742857Y-80659580D01*
X123742857Y-80659580D02*
X123838095Y-80516723D01*
X123838095Y-80516723D02*
X123885714Y-80326247D01*
X123885714Y-80326247D02*
X123885714Y-79945295D01*
X123885714Y-79945295D02*
X123838095Y-79850057D01*
X123838095Y-79850057D02*
X123790476Y-79802438D01*
X123790476Y-79802438D02*
X123695238Y-79754819D01*
X123695238Y-79754819D02*
X123504762Y-79754819D01*
X123504762Y-79754819D02*
X123409524Y-79802438D01*
X123409524Y-79802438D02*
X123361905Y-79850057D01*
X123361905Y-79850057D02*
X123314286Y-79945295D01*
X123314286Y-79945295D02*
X123314286Y-80183390D01*
X123314286Y-80183390D02*
X123361905Y-80278628D01*
X123361905Y-80278628D02*
X123409524Y-80326247D01*
X123409524Y-80326247D02*
X123504762Y-80373866D01*
X123504762Y-80373866D02*
X123695238Y-80373866D01*
X123695238Y-80373866D02*
X123790476Y-80326247D01*
X123790476Y-80326247D02*
X123838095Y-80278628D01*
X123838095Y-80278628D02*
X123885714Y-80183390D01*
X136632333Y-91208580D02*
X136584714Y-91256200D01*
X136584714Y-91256200D02*
X136441857Y-91303819D01*
X136441857Y-91303819D02*
X136346619Y-91303819D01*
X136346619Y-91303819D02*
X136203762Y-91256200D01*
X136203762Y-91256200D02*
X136108524Y-91160961D01*
X136108524Y-91160961D02*
X136060905Y-91065723D01*
X136060905Y-91065723D02*
X136013286Y-90875247D01*
X136013286Y-90875247D02*
X136013286Y-90732390D01*
X136013286Y-90732390D02*
X136060905Y-90541914D01*
X136060905Y-90541914D02*
X136108524Y-90446676D01*
X136108524Y-90446676D02*
X136203762Y-90351438D01*
X136203762Y-90351438D02*
X136346619Y-90303819D01*
X136346619Y-90303819D02*
X136441857Y-90303819D01*
X136441857Y-90303819D02*
X136584714Y-90351438D01*
X136584714Y-90351438D02*
X136632333Y-90399057D01*
X137537095Y-90303819D02*
X137060905Y-90303819D01*
X137060905Y-90303819D02*
X137013286Y-90780009D01*
X137013286Y-90780009D02*
X137060905Y-90732390D01*
X137060905Y-90732390D02*
X137156143Y-90684771D01*
X137156143Y-90684771D02*
X137394238Y-90684771D01*
X137394238Y-90684771D02*
X137489476Y-90732390D01*
X137489476Y-90732390D02*
X137537095Y-90780009D01*
X137537095Y-90780009D02*
X137584714Y-90875247D01*
X137584714Y-90875247D02*
X137584714Y-91113342D01*
X137584714Y-91113342D02*
X137537095Y-91208580D01*
X137537095Y-91208580D02*
X137489476Y-91256200D01*
X137489476Y-91256200D02*
X137394238Y-91303819D01*
X137394238Y-91303819D02*
X137156143Y-91303819D01*
X137156143Y-91303819D02*
X137060905Y-91256200D01*
X137060905Y-91256200D02*
X137013286Y-91208580D01*
X116511905Y-131504819D02*
X116511905Y-130504819D01*
X116511905Y-130504819D02*
X116750000Y-130504819D01*
X116750000Y-130504819D02*
X116892857Y-130552438D01*
X116892857Y-130552438D02*
X116988095Y-130647676D01*
X116988095Y-130647676D02*
X117035714Y-130742914D01*
X117035714Y-130742914D02*
X117083333Y-130933390D01*
X117083333Y-130933390D02*
X117083333Y-131076247D01*
X117083333Y-131076247D02*
X117035714Y-131266723D01*
X117035714Y-131266723D02*
X116988095Y-131361961D01*
X116988095Y-131361961D02*
X116892857Y-131457200D01*
X116892857Y-131457200D02*
X116750000Y-131504819D01*
X116750000Y-131504819D02*
X116511905Y-131504819D01*
X117940476Y-130838152D02*
X117940476Y-131504819D01*
X117702381Y-130457200D02*
X117464286Y-131171485D01*
X117464286Y-131171485D02*
X118083333Y-131171485D01*
X152083333Y-96259580D02*
X152035714Y-96307200D01*
X152035714Y-96307200D02*
X151892857Y-96354819D01*
X151892857Y-96354819D02*
X151797619Y-96354819D01*
X151797619Y-96354819D02*
X151654762Y-96307200D01*
X151654762Y-96307200D02*
X151559524Y-96211961D01*
X151559524Y-96211961D02*
X151511905Y-96116723D01*
X151511905Y-96116723D02*
X151464286Y-95926247D01*
X151464286Y-95926247D02*
X151464286Y-95783390D01*
X151464286Y-95783390D02*
X151511905Y-95592914D01*
X151511905Y-95592914D02*
X151559524Y-95497676D01*
X151559524Y-95497676D02*
X151654762Y-95402438D01*
X151654762Y-95402438D02*
X151797619Y-95354819D01*
X151797619Y-95354819D02*
X151892857Y-95354819D01*
X151892857Y-95354819D02*
X152035714Y-95402438D01*
X152035714Y-95402438D02*
X152083333Y-95450057D01*
X152559524Y-96354819D02*
X152750000Y-96354819D01*
X152750000Y-96354819D02*
X152845238Y-96307200D01*
X152845238Y-96307200D02*
X152892857Y-96259580D01*
X152892857Y-96259580D02*
X152988095Y-96116723D01*
X152988095Y-96116723D02*
X153035714Y-95926247D01*
X153035714Y-95926247D02*
X153035714Y-95545295D01*
X153035714Y-95545295D02*
X152988095Y-95450057D01*
X152988095Y-95450057D02*
X152940476Y-95402438D01*
X152940476Y-95402438D02*
X152845238Y-95354819D01*
X152845238Y-95354819D02*
X152654762Y-95354819D01*
X152654762Y-95354819D02*
X152559524Y-95402438D01*
X152559524Y-95402438D02*
X152511905Y-95450057D01*
X152511905Y-95450057D02*
X152464286Y-95545295D01*
X152464286Y-95545295D02*
X152464286Y-95783390D01*
X152464286Y-95783390D02*
X152511905Y-95878628D01*
X152511905Y-95878628D02*
X152559524Y-95926247D01*
X152559524Y-95926247D02*
X152654762Y-95973866D01*
X152654762Y-95973866D02*
X152845238Y-95973866D01*
X152845238Y-95973866D02*
X152940476Y-95926247D01*
X152940476Y-95926247D02*
X152988095Y-95878628D01*
X152988095Y-95878628D02*
X153035714Y-95783390D01*
D11*
%TO.C,C8*%
X145609420Y-82490000D02*
X145890580Y-82490000D01*
X145609420Y-83510000D02*
X145890580Y-83510000D01*
%TO.C,C6*%
X159890000Y-88540580D02*
X159890000Y-88259420D01*
X160910000Y-88540580D02*
X160910000Y-88259420D01*
%TO.C,R1*%
X144277500Y-74762742D02*
X144277500Y-75237258D01*
X145322500Y-74762742D02*
X145322500Y-75237258D01*
%TO.C,R15*%
X132784532Y-129565000D02*
X132310016Y-129565000D01*
X132784532Y-130610000D02*
X132310016Y-130610000D01*
%TO.C,C22*%
X116265000Y-64313748D02*
X116265000Y-64836252D01*
X117735000Y-64313748D02*
X117735000Y-64836252D01*
%TO.C,TP8*%
X132147274Y-127687500D02*
G75*
G02*
X129747274Y-127687500I-1200000J0D01*
G01*
X129747274Y-127687500D02*
G75*
G02*
X132147274Y-127687500I1200000J0D01*
G01*
%TO.C,L1*%
X134143000Y-61975000D02*
X132385490Y-63732510D01*
X134143000Y-61975000D02*
X137457000Y-61975000D01*
X134143000Y-69975000D02*
X132385490Y-68217490D01*
X134143000Y-69975000D02*
X137457000Y-69975000D01*
X137457000Y-61975000D02*
X139214510Y-63732510D01*
X137457000Y-69975000D02*
X139214510Y-68217490D01*
%TO.C,R12*%
X138976500Y-88361742D02*
X138976500Y-88836258D01*
X140021500Y-88361742D02*
X140021500Y-88836258D01*
%TO.C,R13*%
X173877500Y-88162742D02*
X173877500Y-88637258D01*
X174922500Y-88162742D02*
X174922500Y-88637258D01*
%TO.C,C26*%
X136765000Y-58236252D02*
X136765000Y-57713748D01*
X138235000Y-58236252D02*
X138235000Y-57713748D01*
%TO.C,C10*%
X141740000Y-86140580D02*
X141740000Y-85859420D01*
X142760000Y-86140580D02*
X142760000Y-85859420D01*
%TO.C,C2*%
X124459420Y-127790000D02*
X124740580Y-127790000D01*
X124459420Y-128810000D02*
X124740580Y-128810000D01*
%TO.C,C19*%
X153790000Y-91340580D02*
X153790000Y-91059420D01*
X154810000Y-91340580D02*
X154810000Y-91059420D01*
%TO.C,R3*%
X123037258Y-129577500D02*
X122562742Y-129577500D01*
X123037258Y-130622500D02*
X122562742Y-130622500D01*
%TO.C,R5*%
X113137258Y-120277500D02*
X112662742Y-120277500D01*
X113137258Y-121322500D02*
X112662742Y-121322500D01*
%TO.C,C12*%
X146990000Y-95759420D02*
X146990000Y-96040580D01*
X148010000Y-95759420D02*
X148010000Y-96040580D01*
%TO.C,FB1*%
X154390000Y-93857836D02*
X154390000Y-93642164D01*
X155110000Y-93857836D02*
X155110000Y-93642164D01*
%TO.C,TP14*%
X133200000Y-61575000D02*
G75*
G02*
X130800000Y-61575000I-1200000J0D01*
G01*
X130800000Y-61575000D02*
G75*
G02*
X133200000Y-61575000I1200000J0D01*
G01*
%TO.C,R4*%
X112912258Y-129277500D02*
X112437742Y-129277500D01*
X112912258Y-130322500D02*
X112437742Y-130322500D01*
%TO.C,C18*%
X114471920Y-118540000D02*
X114753080Y-118540000D01*
X114471920Y-119560000D02*
X114753080Y-119560000D01*
%TO.C,F1*%
X126090000Y-55577064D02*
X126090000Y-54372936D01*
X127910000Y-55577064D02*
X127910000Y-54372936D01*
%TO.C,JP3*%
X137750000Y-93700000D02*
X137750000Y-93100000D01*
X138450000Y-92400000D02*
X139850000Y-92400000D01*
X139850000Y-94400000D02*
X138450000Y-94400000D01*
X140550000Y-93100000D02*
X140550000Y-93700000D01*
X137750000Y-93100000D02*
G75*
G02*
X138450000Y-92400000I700000J0D01*
G01*
X138450000Y-94400000D02*
G75*
G02*
X137750000Y-93700000I0J700000D01*
G01*
X139850000Y-92400000D02*
G75*
G02*
X140550000Y-93100000I1J-699999D01*
G01*
X140550000Y-93700000D02*
G75*
G02*
X139850000Y-94400000I-699999J-1D01*
G01*
%TO.C,C11*%
X155690000Y-92540580D02*
X155690000Y-92259420D01*
X156710000Y-92540580D02*
X156710000Y-92259420D01*
%TO.C,C23*%
X120090000Y-64434420D02*
X120090000Y-64715580D01*
X121110000Y-64434420D02*
X121110000Y-64715580D01*
%TO.C,R2*%
X147877500Y-77362742D02*
X147877500Y-77837258D01*
X148922500Y-77362742D02*
X148922500Y-77837258D01*
%TO.C,R8*%
X113137258Y-122027500D02*
X112662742Y-122027500D01*
X113137258Y-123072500D02*
X112662742Y-123072500D01*
%TO.C,C17*%
X133981694Y-127777500D02*
X134262854Y-127777500D01*
X133981694Y-128797500D02*
X134262854Y-128797500D01*
%TO.C,TP12*%
X114400000Y-61075000D02*
G75*
G02*
X112000000Y-61075000I-1200000J0D01*
G01*
X112000000Y-61075000D02*
G75*
G02*
X114400000Y-61075000I1200000J0D01*
G01*
%TO.C,R16*%
X132784532Y-131365000D02*
X132310016Y-131365000D01*
X132784532Y-132410000D02*
X132310016Y-132410000D01*
%TO.C,C28*%
X130565000Y-58236252D02*
X130565000Y-57713748D01*
X132035000Y-58236252D02*
X132035000Y-57713748D01*
%TO.C,C27*%
X133665000Y-58236252D02*
X133665000Y-57713748D01*
X135135000Y-58236252D02*
X135135000Y-57713748D01*
%TO.C,U4*%
X122940000Y-62425000D02*
X124680000Y-62425000D01*
X123200000Y-64825000D02*
X124680000Y-64825000D01*
%TO.C,C4*%
X136889000Y-86956836D02*
X136889000Y-86741164D01*
X137609000Y-86956836D02*
X137609000Y-86741164D01*
%TO.C,C20*%
X141490000Y-90740580D02*
X141490000Y-90459420D01*
X142510000Y-90740580D02*
X142510000Y-90459420D01*
%TO.C,JP2*%
X130300000Y-76800000D02*
X130300000Y-74000000D01*
X131000000Y-73350000D02*
X131600000Y-73350000D01*
X131600000Y-77450000D02*
X131000000Y-77450000D01*
X132300000Y-74000000D02*
X132300000Y-76800000D01*
X132500000Y-76600000D02*
X132800000Y-76300000D01*
X132500000Y-76600000D02*
X132800000Y-76900000D01*
X132800000Y-76900000D02*
X132800000Y-76300000D01*
X130300000Y-74050000D02*
G75*
G02*
X131000000Y-73350000I700000J0D01*
G01*
X131000000Y-77450000D02*
G75*
G02*
X130300000Y-76750000I-1J699999D01*
G01*
X131600000Y-73350000D02*
G75*
G02*
X132300000Y-74050000I0J-700000D01*
G01*
X132300000Y-76750000D02*
G75*
G02*
X131600000Y-77450000I-699999J-1D01*
G01*
%TO.C,C3*%
X114134420Y-127490000D02*
X114415580Y-127490000D01*
X114134420Y-128510000D02*
X114415580Y-128510000D01*
%TO.C,TP3*%
X112275000Y-127400000D02*
G75*
G02*
X109875000Y-127400000I-1200000J0D01*
G01*
X109875000Y-127400000D02*
G75*
G02*
X112275000Y-127400000I1200000J0D01*
G01*
%TO.C,R18*%
X140737258Y-59152500D02*
X140262742Y-59152500D01*
X140737258Y-60197500D02*
X140262742Y-60197500D01*
%TO.C,D5*%
X114665000Y-120315000D02*
X114665000Y-122600000D01*
X116135000Y-120315000D02*
X114665000Y-120315000D01*
X116135000Y-122600000D02*
X116135000Y-120315000D01*
%TO.C,TP4*%
X112700000Y-118450000D02*
G75*
G02*
X110300000Y-118450000I-1200000J0D01*
G01*
X110300000Y-118450000D02*
G75*
G02*
X112700000Y-118450000I1200000J0D01*
G01*
%TO.C,D1*%
X145865000Y-74200000D02*
X145865000Y-76485000D01*
X145865000Y-76485000D02*
X147335000Y-76485000D01*
X147335000Y-76485000D02*
X147335000Y-74200000D01*
%TO.C,TP2*%
X122600000Y-127700000D02*
G75*
G02*
X120200000Y-127700000I-1200000J0D01*
G01*
X120200000Y-127700000D02*
G75*
G02*
X122600000Y-127700000I1200000J0D01*
G01*
%TO.C,D9*%
X171337500Y-86840000D02*
X170687500Y-86840000D01*
X171337500Y-86840000D02*
X171987500Y-86840000D01*
X171337500Y-89960000D02*
X170687500Y-89960000D01*
X171337500Y-89960000D02*
X171987500Y-89960000D01*
X172740000Y-90240000D02*
X172260000Y-90240000D01*
X172500000Y-89910000D01*
X172740000Y-90240000D01*
G36*
X172740000Y-90240000D02*
G01*
X172260000Y-90240000D01*
X172500000Y-89910000D01*
X172740000Y-90240000D01*
G37*
%TO.C,U3*%
X144640000Y-85380000D02*
X144640000Y-85830000D01*
X144640000Y-92600000D02*
X144640000Y-92150000D01*
X145090000Y-85380000D02*
X144640000Y-85380000D01*
X145090000Y-92600000D02*
X144640000Y-92600000D01*
X151410000Y-85380000D02*
X151860000Y-85380000D01*
X151410000Y-92600000D02*
X151860000Y-92600000D01*
X151860000Y-85380000D02*
X151860000Y-85830000D01*
X151860000Y-92600000D02*
X151860000Y-92150000D01*
X144050000Y-85830000D02*
X143710000Y-85360000D01*
X144390000Y-85360000D01*
X144050000Y-85830000D01*
G36*
X144050000Y-85830000D02*
G01*
X143710000Y-85360000D01*
X144390000Y-85360000D01*
X144050000Y-85830000D01*
G37*
%TO.C,U1*%
X165000000Y-85840000D02*
X163050000Y-85840000D01*
X165000000Y-85840000D02*
X166950000Y-85840000D01*
X165000000Y-90960000D02*
X163050000Y-90960000D01*
X165000000Y-90960000D02*
X166950000Y-90960000D01*
X162300000Y-85935000D02*
X162060000Y-85605000D01*
X162540000Y-85605000D01*
X162300000Y-85935000D01*
G36*
X162300000Y-85935000D02*
G01*
X162060000Y-85605000D01*
X162540000Y-85605000D01*
X162300000Y-85935000D01*
G37*
%TO.C,D10*%
X134412274Y-129602500D02*
X134412274Y-131887500D01*
X135882274Y-129602500D02*
X134412274Y-129602500D01*
X135882274Y-131887500D02*
X135882274Y-129602500D01*
%TO.C,R17*%
X140262742Y-60852500D02*
X140737258Y-60852500D01*
X140262742Y-61897500D02*
X140737258Y-61897500D01*
%TO.C,R10*%
X128177500Y-76062742D02*
X128177500Y-76537258D01*
X129222500Y-76062742D02*
X129222500Y-76537258D01*
%TO.C,C25*%
X125790000Y-65415580D02*
X125790000Y-65134420D01*
X126810000Y-65415580D02*
X126810000Y-65134420D01*
%TO.C,D3*%
X124665000Y-129615000D02*
X124665000Y-131900000D01*
X126135000Y-129615000D02*
X124665000Y-129615000D01*
X126135000Y-131900000D02*
X126135000Y-129615000D01*
%TO.C,C24*%
X125790000Y-62215580D02*
X125790000Y-61934420D01*
X126810000Y-62215580D02*
X126810000Y-61934420D01*
%TO.C,C7*%
X145488748Y-80165000D02*
X146011252Y-80165000D01*
X145488748Y-81635000D02*
X146011252Y-81635000D01*
%TO.C,Y1*%
X133349000Y-85849000D02*
X133349000Y-89849000D01*
X136649000Y-85849000D02*
X133349000Y-85849000D01*
%TO.C,TP13*%
X114300000Y-69575000D02*
G75*
G02*
X111900000Y-69575000I-1200000J0D01*
G01*
X111900000Y-69575000D02*
G75*
G02*
X114300000Y-69575000I1200000J0D01*
G01*
%TO.C,R7*%
X112912258Y-131077500D02*
X112437742Y-131077500D01*
X112912258Y-132122500D02*
X112437742Y-132122500D01*
%TO.C,R6*%
X123037258Y-131377500D02*
X122562742Y-131377500D01*
X123037258Y-132422500D02*
X122562742Y-132422500D01*
%TO.C,C21*%
X112465000Y-64413748D02*
X112465000Y-64936252D01*
X113935000Y-64413748D02*
X113935000Y-64936252D01*
%TO.C,Q4*%
X126800000Y-76940000D02*
X125400000Y-76940000D01*
X126810000Y-79260000D02*
X125400000Y-79260000D01*
X127420000Y-79540000D02*
X126940000Y-79540000D01*
X127180000Y-79210000D01*
X127420000Y-79540000D01*
G36*
X127420000Y-79540000D02*
G01*
X126940000Y-79540000D01*
X127180000Y-79210000D01*
X127420000Y-79540000D01*
G37*
%TO.C,JP1*%
X119500000Y-78600000D02*
X119500000Y-75800000D01*
X120200000Y-75150000D02*
X120800000Y-75150000D01*
X120800000Y-79250000D02*
X120200000Y-79250000D01*
X121500000Y-75800000D02*
X121500000Y-78600000D01*
X121700000Y-78400000D02*
X122000000Y-78100000D01*
X121700000Y-78400000D02*
X122000000Y-78700000D01*
X122000000Y-78700000D02*
X122000000Y-78100000D01*
X119500000Y-75850000D02*
G75*
G02*
X120200000Y-75150000I700000J0D01*
G01*
X120200000Y-79250000D02*
G75*
G02*
X119500000Y-78550000I-1J699999D01*
G01*
X120800000Y-75150000D02*
G75*
G02*
X121500000Y-75850000I0J-700000D01*
G01*
X121500000Y-78550000D02*
G75*
G02*
X120800000Y-79250000I-699999J-1D01*
G01*
%TO.C,R9*%
X122577500Y-77862742D02*
X122577500Y-78337258D01*
X123622500Y-77862742D02*
X123622500Y-78337258D01*
%TO.C,C5*%
X136889000Y-89206836D02*
X136889000Y-88991164D01*
X137609000Y-89206836D02*
X137609000Y-88991164D01*
%TO.C,D4*%
X114540000Y-129315000D02*
X114540000Y-131600000D01*
X116010000Y-129315000D02*
X114540000Y-129315000D01*
X116010000Y-131600000D02*
X116010000Y-129315000D01*
%TO.C,C9*%
X150190000Y-95759420D02*
X150190000Y-96040580D01*
X151210000Y-95759420D02*
X151210000Y-96040580D01*
%TD*%
M02*
