%TF.GenerationSoftware,KiCad,Pcbnew,9.0.0*%
%TF.CreationDate,2026-02-21T16:02:36-06:00*%
%TF.ProjectId,TCMv3.0s,54434d76-332e-4307-932e-6b696361645f,rev?*%
%TF.SameCoordinates,Original*%
%TF.FileFunction,Paste,Top*%
%TF.FilePolarity,Positive*%
%FSLAX46Y46*%
G04 Gerber Fmt 4.6, Leading zero omitted, Abs format (unit mm)*
G04 Created by KiCad (PCBNEW 9.0.0) date 2026-02-21 16:02:36*
%MOMM*%
%LPD*%
G01*
G04 APERTURE LIST*
G04 Aperture macros list*
%AMRoundRect*
0 Rectangle with rounded corners*
0 $1 Rounding radius*
0 $2 $3 $4 $5 $6 $7 $8 $9 X,Y pos of 4 corners*
0 Add a 4 corners polygon primitive as box body*
4,1,4,$2,$3,$4,$5,$6,$7,$8,$9,$2,$3,0*
0 Add four circle primitives for the rounded corners*
1,1,$1+$1,$2,$3*
1,1,$1+$1,$4,$5*
1,1,$1+$1,$6,$7*
1,1,$1+$1,$8,$9*
0 Add four rect primitives between the rounded corners*
20,1,$1+$1,$2,$3,$4,$5,0*
20,1,$1+$1,$4,$5,$6,$7,0*
20,1,$1+$1,$6,$7,$8,$9,0*
20,1,$1+$1,$8,$9,$2,$3,0*%
G04 Aperture macros list end*
%ADD10RoundRect,0.225000X-0.225000X-0.250000X0.225000X-0.250000X0.225000X0.250000X-0.225000X0.250000X0*%
%ADD11RoundRect,0.225000X0.250000X-0.225000X0.250000X0.225000X-0.250000X0.225000X-0.250000X-0.225000X0*%
%ADD12RoundRect,0.200000X-0.275000X0.200000X-0.275000X-0.200000X0.275000X-0.200000X0.275000X0.200000X0*%
%ADD13RoundRect,0.200000X0.200000X0.275000X-0.200000X0.275000X-0.200000X-0.275000X0.200000X-0.275000X0*%
%ADD14RoundRect,0.250000X-0.475000X0.250000X-0.475000X-0.250000X0.475000X-0.250000X0.475000X0.250000X0*%
%ADD15RoundRect,0.500000X-0.500000X-1.100000X0.500000X-1.100000X0.500000X1.100000X-0.500000X1.100000X0*%
%ADD16RoundRect,0.250000X0.475000X-0.250000X0.475000X0.250000X-0.475000X0.250000X-0.475000X-0.250000X0*%
%ADD17RoundRect,0.225000X-0.250000X0.225000X-0.250000X-0.225000X0.250000X-0.225000X0.250000X0.225000X0*%
%ADD18RoundRect,0.140000X0.170000X-0.140000X0.170000X0.140000X-0.170000X0.140000X-0.170000X-0.140000X0*%
%ADD19RoundRect,0.250000X0.625000X-0.375000X0.625000X0.375000X-0.625000X0.375000X-0.625000X-0.375000X0*%
%ADD20C,0.787400*%
%ADD21R,0.670000X0.300000*%
%ADD22RoundRect,0.218750X-0.256250X0.218750X-0.256250X-0.218750X0.256250X-0.218750X0.256250X0.218750X0*%
%ADD23RoundRect,0.218750X0.256250X-0.218750X0.256250X0.218750X-0.256250X0.218750X-0.256250X-0.218750X0*%
%ADD24RoundRect,0.150000X0.587500X0.150000X-0.587500X0.150000X-0.587500X-0.150000X0.587500X-0.150000X0*%
%ADD25RoundRect,0.075000X-0.662500X-0.075000X0.662500X-0.075000X0.662500X0.075000X-0.662500X0.075000X0*%
%ADD26RoundRect,0.075000X-0.075000X-0.662500X0.075000X-0.662500X0.075000X0.662500X-0.075000X0.662500X0*%
%ADD27RoundRect,0.150000X-0.825000X-0.150000X0.825000X-0.150000X0.825000X0.150000X-0.825000X0.150000X0*%
%ADD28RoundRect,0.200000X-0.200000X-0.275000X0.200000X-0.275000X0.200000X0.275000X-0.200000X0.275000X0*%
%ADD29RoundRect,0.250000X-0.250000X-0.475000X0.250000X-0.475000X0.250000X0.475000X-0.250000X0.475000X0*%
%ADD30R,1.200000X1.400000*%
%ADD31RoundRect,0.100000X0.225000X0.100000X-0.225000X0.100000X-0.225000X-0.100000X0.225000X-0.100000X0*%
G04 APERTURE END LIST*
D10*
%TO.C,C8*%
X144975000Y-83000000D03*
X146525000Y-83000000D03*
%TD*%
D11*
%TO.C,C6*%
X160400000Y-89175000D03*
X160400000Y-87625000D03*
%TD*%
D12*
%TO.C,R1*%
X144800000Y-74175000D03*
X144800000Y-75825000D03*
%TD*%
D13*
%TO.C,R15*%
X133372274Y-130087500D03*
X131722274Y-130087500D03*
%TD*%
D14*
%TO.C,C22*%
X117000000Y-63625000D03*
X117000000Y-65525000D03*
%TD*%
D15*
%TO.C,L1*%
X131900000Y-65975000D03*
X139700000Y-65975000D03*
%TD*%
D12*
%TO.C,R12*%
X139499000Y-87774000D03*
X139499000Y-89424000D03*
%TD*%
%TO.C,R13*%
X174400000Y-87575000D03*
X174400000Y-89225000D03*
%TD*%
D16*
%TO.C,C26*%
X137500000Y-58925000D03*
X137500000Y-57025000D03*
%TD*%
D11*
%TO.C,C10*%
X142250000Y-86775000D03*
X142250000Y-85225000D03*
%TD*%
D10*
%TO.C,C2*%
X123825000Y-128300000D03*
X125375000Y-128300000D03*
%TD*%
D11*
%TO.C,C19*%
X154300000Y-91975000D03*
X154300000Y-90425000D03*
%TD*%
D13*
%TO.C,R3*%
X123625000Y-130100000D03*
X121975000Y-130100000D03*
%TD*%
%TO.C,R5*%
X113725000Y-120800000D03*
X112075000Y-120800000D03*
%TD*%
D17*
%TO.C,C12*%
X147500000Y-95125000D03*
X147500000Y-96675000D03*
%TD*%
D18*
%TO.C,FB1*%
X154750000Y-94230000D03*
X154750000Y-93270000D03*
%TD*%
D13*
%TO.C,R4*%
X113500000Y-129800000D03*
X111850000Y-129800000D03*
%TD*%
D10*
%TO.C,C18*%
X113837500Y-119050000D03*
X115387500Y-119050000D03*
%TD*%
D19*
%TO.C,F1*%
X127000000Y-56375000D03*
X127000000Y-53575000D03*
%TD*%
D11*
%TO.C,C11*%
X156200000Y-93175000D03*
X156200000Y-91625000D03*
%TD*%
D17*
%TO.C,C23*%
X120600000Y-63800000D03*
X120600000Y-65350000D03*
%TD*%
D12*
%TO.C,R2*%
X148400000Y-76775000D03*
X148400000Y-78425000D03*
%TD*%
D13*
%TO.C,R8*%
X113725000Y-122550000D03*
X112075000Y-122550000D03*
%TD*%
D10*
%TO.C,C17*%
X133347274Y-128287500D03*
X134897274Y-128287500D03*
%TD*%
D13*
%TO.C,R16*%
X133372274Y-131887500D03*
X131722274Y-131887500D03*
%TD*%
D20*
%TO.C,TC1*%
X167330000Y-71000000D03*
X168600000Y-71000000D03*
X167330000Y-72270000D03*
X168600000Y-72270000D03*
X167330000Y-73540000D03*
X168600000Y-73540000D03*
%TD*%
D16*
%TO.C,C28*%
X131300000Y-58925000D03*
X131300000Y-57025000D03*
%TD*%
%TO.C,C27*%
X134400000Y-58925000D03*
X134400000Y-57025000D03*
%TD*%
D21*
%TO.C,U4*%
X123200000Y-62875000D03*
X123200000Y-63375000D03*
X123200000Y-63875000D03*
X123200000Y-64375000D03*
X124680000Y-64375000D03*
X124680000Y-63875000D03*
X124680000Y-63375000D03*
X124680000Y-62875000D03*
%TD*%
D18*
%TO.C,C4*%
X137249000Y-87329000D03*
X137249000Y-86369000D03*
%TD*%
D11*
%TO.C,C20*%
X142000000Y-91375000D03*
X142000000Y-89825000D03*
%TD*%
D10*
%TO.C,C3*%
X113500000Y-128000000D03*
X115050000Y-128000000D03*
%TD*%
D13*
%TO.C,R18*%
X141325000Y-59675000D03*
X139675000Y-59675000D03*
%TD*%
D22*
%TO.C,D5*%
X115400000Y-121012500D03*
X115400000Y-122587500D03*
%TD*%
D23*
%TO.C,D1*%
X146600000Y-75787500D03*
X146600000Y-74212500D03*
%TD*%
D24*
%TO.C,D9*%
X172275000Y-89350000D03*
X172275000Y-87450000D03*
X170400000Y-88400000D03*
%TD*%
D25*
%TO.C,U3*%
X144087500Y-86240000D03*
X144087500Y-86740000D03*
X144087500Y-87240000D03*
X144087500Y-87740000D03*
X144087500Y-88240000D03*
X144087500Y-88740000D03*
X144087500Y-89240000D03*
X144087500Y-89740000D03*
X144087500Y-90240000D03*
X144087500Y-90740000D03*
X144087500Y-91240000D03*
X144087500Y-91740000D03*
D26*
X145500000Y-93152500D03*
X146000000Y-93152500D03*
X146500000Y-93152500D03*
X147000000Y-93152500D03*
X147500000Y-93152500D03*
X148000000Y-93152500D03*
X148500000Y-93152500D03*
X149000000Y-93152500D03*
X149500000Y-93152500D03*
X150000000Y-93152500D03*
X150500000Y-93152500D03*
X151000000Y-93152500D03*
D25*
X152412500Y-91740000D03*
X152412500Y-91240000D03*
X152412500Y-90740000D03*
X152412500Y-90240000D03*
X152412500Y-89740000D03*
X152412500Y-89240000D03*
X152412500Y-88740000D03*
X152412500Y-88240000D03*
X152412500Y-87740000D03*
X152412500Y-87240000D03*
X152412500Y-86740000D03*
X152412500Y-86240000D03*
D26*
X151000000Y-84827500D03*
X150500000Y-84827500D03*
X150000000Y-84827500D03*
X149500000Y-84827500D03*
X149000000Y-84827500D03*
X148500000Y-84827500D03*
X148000000Y-84827500D03*
X147500000Y-84827500D03*
X147000000Y-84827500D03*
X146500000Y-84827500D03*
X146000000Y-84827500D03*
X145500000Y-84827500D03*
%TD*%
D27*
%TO.C,U1*%
X162525000Y-86495000D03*
X162525000Y-87765000D03*
X162525000Y-89035000D03*
X162525000Y-90305000D03*
X167475000Y-90305000D03*
X167475000Y-89035000D03*
X167475000Y-87765000D03*
X167475000Y-86495000D03*
%TD*%
D22*
%TO.C,D10*%
X135147274Y-130300000D03*
X135147274Y-131875000D03*
%TD*%
D28*
%TO.C,R17*%
X139675000Y-61375000D03*
X141325000Y-61375000D03*
%TD*%
D12*
%TO.C,R10*%
X128700000Y-75475000D03*
X128700000Y-77125000D03*
%TD*%
D11*
%TO.C,C25*%
X126300000Y-66050000D03*
X126300000Y-64500000D03*
%TD*%
D22*
%TO.C,D3*%
X125400000Y-130312500D03*
X125400000Y-131887500D03*
%TD*%
D11*
%TO.C,C24*%
X126300000Y-62850000D03*
X126300000Y-61300000D03*
%TD*%
D29*
%TO.C,C7*%
X144800000Y-80900000D03*
X146700000Y-80900000D03*
%TD*%
D30*
%TO.C,Y1*%
X134149000Y-86749000D03*
X134149000Y-88949000D03*
X135849000Y-88949000D03*
X135849000Y-86749000D03*
%TD*%
D13*
%TO.C,R7*%
X113500000Y-131600000D03*
X111850000Y-131600000D03*
%TD*%
%TO.C,R6*%
X123625000Y-131900000D03*
X121975000Y-131900000D03*
%TD*%
D14*
%TO.C,C21*%
X113200000Y-63725000D03*
X113200000Y-65625000D03*
%TD*%
D31*
%TO.C,Q4*%
X127050000Y-78750000D03*
X127050000Y-78100000D03*
X127050000Y-77450000D03*
X125150000Y-77450000D03*
X125150000Y-78100000D03*
X125150000Y-78750000D03*
%TD*%
D12*
%TO.C,R9*%
X123100000Y-77275000D03*
X123100000Y-78925000D03*
%TD*%
D18*
%TO.C,C5*%
X137249000Y-89579000D03*
X137249000Y-88619000D03*
%TD*%
D22*
%TO.C,D4*%
X115275000Y-130012500D03*
X115275000Y-131587500D03*
%TD*%
D17*
%TO.C,C9*%
X150700000Y-95125000D03*
X150700000Y-96675000D03*
%TD*%
M02*
