M48
; DRILL file {KiCad 9.0.0} date 2026-02-21T16:02:28-0600
; FORMAT={-:-/ absolute / metric / decimal}
; #@! TF.CreationDate,2026-02-21T16:02:28-06:00
; #@! TF.GenerationSoftware,Kicad,Pcbnew,9.0.0
; #@! TF.FileFunction,MixedPlating,1,4
FMAT,2
METRIC
; #@! TA.AperFunction,Plated,PTH,ViaDrill
T1C0.300
; #@! TA.AperFunction,Plated,PTH,ViaDrill
T2C0.500
; #@! TA.AperFunction,Plated,PTH,ComponentDrill
T3C1.200
; #@! TA.AperFunction,Plated,PTH,ComponentDrill
T4C3.000
; #@! TA.AperFunction,NonPlated,NPTH,ComponentDrill
T5C0.991
; #@! TA.AperFunction,NonPlated,NPTH,ComponentDrill
T6C2.375
%
G90
G05
T1
X116.1Y-77.3
X116.55Y-130.0
X116.675Y-121.012
X122.1Y-122.3
X124.25Y-78.05
X126.575Y-130.287
X128.95Y-78.35
X130.5Y-81.7
X130.6Y-113.9
X132.5Y-129.113
X133.5Y-95.7
X135.75Y-129.113
X136.659Y-130.19
X138.8Y-103.6
X139.8Y-101.5
X140.6Y-100.3
X145.2Y-86.2
X145.447Y-87.065
X145.5Y-89.8
X145.9Y-88.8
X146.7Y-86.4
X146.743Y-88.484
X147.5Y-87.083
X147.643Y-88.483
X148.4Y-86.4
X148.525Y-95.136
X148.6Y-88.583
X148.986Y-87.083
X149.2Y-90.2
X149.405Y-96.705
X149.449Y-83.549
X149.49Y-88.713
X149.6Y-91.9
X150.0Y-86.6
X150.217Y-89.514
X150.491Y-90.919
X150.5Y-80.5
X150.5Y-91.9
X151.1Y-86.495
X151.125Y-90.28
X152.0Y-79.8
X155.9Y-96.7
X157.3Y-95.6
X158.6Y-113.9
X162.6Y-79.799
X165.6Y-86.495
X165.837Y-67.129
X171.3Y-76.3
X173.4Y-77.6
T2
X111.1Y-132.8
X112.075Y-123.912
X115.8Y-126.6
X116.775Y-119.012
X118.65Y-78.5
X121.975Y-133.287
X121.998Y-65.468
X126.3Y-60.3
X126.575Y-128.287
X127.0Y-52.5
X128.15Y-79.15
X130.1Y-56.1
X131.622Y-133.2
X133.25Y-76.7
X136.222Y-128.3
X136.75Y-93.4
X137.3Y-85.5
X138.2Y-88.4
X140.7Y-85.2
X144.8Y-77.1
X147.5Y-97.5
X149.9Y-76.1
X153.935Y-94.325
X157.5Y-91.4
X158.5Y-87.5
X158.5Y-88.7
X164.75Y-75.75
X167.2Y-133.0
X168.9Y-68.3
X171.8Y-88.4
T3
X107.82Y-137.27
X107.82Y-143.62
X112.02Y-137.27
X112.02Y-143.62
X116.22Y-137.27
X116.22Y-143.62
X120.42Y-137.27
X120.42Y-143.62
X124.62Y-137.27
X124.62Y-143.62
X128.82Y-137.27
X128.82Y-143.62
X162.88Y-137.27
X162.88Y-143.62
X167.08Y-137.27
X167.08Y-143.62
X171.28Y-137.27
X171.28Y-143.62
X175.48Y-137.27
X175.48Y-143.62
X179.68Y-137.27
X179.68Y-143.62
X183.88Y-137.27
X183.88Y-143.62
T4
X145.85Y-141.66
T5
X166.949Y-74.81
X167.965Y-69.73
X168.981Y-74.81
T6
X165.425Y-69.73
X165.425Y-72.905
X170.505Y-69.73
X170.505Y-72.905
M30
