%TF.GenerationSoftware,KiCad,Pcbnew,9.0.0*%
%TF.CreationDate,2026-02-21T16:02:36-06:00*%
%TF.ProjectId,TCMv3.0s,54434d76-332e-4307-932e-6b696361645f,rev?*%
%TF.SameCoordinates,Original*%
%TF.FileFunction,Copper,L2,Inr*%
%TF.FilePolarity,Positive*%
%FSLAX46Y46*%
G04 Gerber Fmt 4.6, Leading zero omitted, Abs format (unit mm)*
G04 Created by KiCad (PCBNEW 9.0.0) date 2026-02-21 16:02:36*
%MOMM*%
%LPD*%
G01*
G04 APERTURE LIST*
%TA.AperFunction,ComponentPad*%
%ADD10C,5.500000*%
%TD*%
%TA.AperFunction,ComponentPad*%
%ADD11C,2.000000*%
%TD*%
%TA.AperFunction,ViaPad*%
%ADD12C,0.700000*%
%TD*%
G04 APERTURE END LIST*
D10*
%TO.N,*%
%TO.C,J2*%
X145850000Y-141660000D03*
D11*
%TO.N,+5V*%
X128820000Y-143620000D03*
%TO.N,GND*%
X124620000Y-143620000D03*
%TO.N,CAN_H*%
X120420000Y-143620000D03*
%TO.N,CAN_L*%
X116220000Y-143620000D03*
%TO.N,UART_RX*%
X112020000Y-143620000D03*
%TO.N,UART_TX*%
X107820000Y-143620000D03*
%TO.N,UP_PADDLE*%
X107820000Y-137270000D03*
%TO.N,DOWN_PADDLE*%
X112020000Y-137270000D03*
%TO.N,~{DOWN_PADDLE}*%
X116220000Y-137270000D03*
%TO.N,NEUTRAL_PEG*%
X120420000Y-137270000D03*
%TO.N,ECU_UP*%
X124620000Y-137270000D03*
%TO.N,ECU_DOWN*%
X128820000Y-137270000D03*
%TO.N,+5V*%
X162880000Y-137270000D03*
%TO.N,GND*%
X167080000Y-137270000D03*
%TO.N,GPIO0*%
X171280000Y-137270000D03*
%TO.N,GPIO1*%
X175480000Y-137270000D03*
%TO.N,GPIO2*%
X179680000Y-137270000D03*
%TO.N,GPIO3*%
X183880000Y-137270000D03*
%TO.N,GPIO4*%
X183880000Y-143620000D03*
%TO.N,GPIO5*%
X179680000Y-143620000D03*
%TO.N,GPIO6*%
X175480000Y-143620000D03*
%TO.N,GPIO7*%
X171280000Y-143620000D03*
%TO.N,GPIO8*%
X167080000Y-143620000D03*
%TO.N,GPIO9*%
X162880000Y-143620000D03*
%TD*%
D12*
%TO.N,+3V3*%
X168900000Y-68300000D03*
%TO.N,GND*%
X164750000Y-75750000D03*
%TO.N,UART_RX*%
X135750000Y-129113500D03*
%TO.N,~{DOWN_PADDLE}*%
X126575000Y-130287500D03*
X122100000Y-122300000D03*
X147642700Y-88482988D03*
%TO.N,GPIO7*%
X157300000Y-95600000D03*
X155900000Y-96700000D03*
X150491179Y-90918982D03*
%TO.N,GPIO9*%
X149599998Y-91900484D03*
X158600000Y-113900000D03*
%TO.N,GPIO4*%
X152000000Y-79800000D03*
X162600000Y-79799000D03*
%TO.N,GPIO3*%
X150500000Y-80500000D03*
%TO.N,GPIO0*%
X150000000Y-86600000D03*
%TO.N,GPIO1*%
X149449235Y-83549235D03*
%TO.N,GPIO5*%
X148400000Y-86400000D03*
%TO.N,GPIO8*%
X151125002Y-90280020D03*
%TO.N,GND*%
X121998367Y-65467757D03*
X145500000Y-89800000D03*
X145447250Y-87065374D03*
X150500000Y-91900000D03*
X126575000Y-128287500D03*
X130100000Y-56100000D03*
X171800000Y-88400000D03*
X140700000Y-85200000D03*
X138200000Y-88400000D03*
X136222274Y-128300000D03*
X116775000Y-119012500D03*
X149900000Y-76100000D03*
X115800000Y-126600000D03*
X158500000Y-87500000D03*
X147500000Y-97500000D03*
X137300000Y-85500000D03*
X128150000Y-79150000D03*
X126300000Y-60300000D03*
X157500000Y-91400000D03*
X167200000Y-133000000D03*
%TO.N,UP_PADDLE*%
X116675000Y-121012500D03*
X145900000Y-88800000D03*
%TO.N,DOWN_PADDLE*%
X116550000Y-130000000D03*
X146742698Y-88483988D03*
%TO.N,+3V3*%
X121975000Y-133287500D03*
X112075000Y-123912500D03*
X153935051Y-94325001D03*
X133250000Y-76700000D03*
X145200000Y-86200000D03*
X149490348Y-88713230D03*
X118650000Y-78500000D03*
X127000000Y-52500000D03*
X111100000Y-132800000D03*
X144800000Y-77100000D03*
X136750000Y-93400000D03*
X131622274Y-133200000D03*
X158500000Y-88700000D03*
%TO.N,NEUTRAL_PEG*%
X136659213Y-130189553D03*
X148599843Y-88582831D03*
X130600000Y-113900000D03*
%TO.N,+5V*%
X116100000Y-77300000D03*
%TO.N,NRST*%
X147500000Y-87082988D03*
X165837481Y-67129424D03*
%TO.N,SWO*%
X171300000Y-76300000D03*
X139800000Y-101500000D03*
X173400000Y-77600000D03*
X149405025Y-96705025D03*
%TO.N,CAN_STBY*%
X165600000Y-86495000D03*
X151100000Y-86495000D03*
%TO.N,GPIO2*%
X148986113Y-87082988D03*
%TO.N,GPIO6*%
X146700000Y-86400000D03*
%TO.N,UART_TX*%
X150216933Y-89514407D03*
%TO.N,ECU_UP_STM*%
X148525000Y-95135554D03*
X130500000Y-81700000D03*
X128950000Y-78350000D03*
X138800000Y-103600000D03*
%TO.N,ECU_DOWN_STM*%
X149200000Y-90200000D03*
X133500000Y-95700000D03*
X140600000Y-100300000D03*
X124250000Y-78050000D03*
%TO.N,UART_RX*%
X132500000Y-129113500D03*
%TD*%
%TA.AperFunction,Conductor*%
%TO.N,GND*%
G36*
X185129418Y-44970816D02*
G01*
X185329561Y-44985130D01*
X185347063Y-44987647D01*
X185538797Y-45029355D01*
X185555755Y-45034334D01*
X185739609Y-45102909D01*
X185755701Y-45110259D01*
X185927904Y-45204288D01*
X185942784Y-45213849D01*
X186099867Y-45331441D01*
X186113237Y-45343027D01*
X186251972Y-45481762D01*
X186263558Y-45495132D01*
X186381146Y-45652210D01*
X186390711Y-45667095D01*
X186484740Y-45839298D01*
X186492090Y-45855390D01*
X186560662Y-46039236D01*
X186565646Y-46056212D01*
X186607351Y-46247931D01*
X186609869Y-46265442D01*
X186624184Y-46465580D01*
X186624500Y-46474427D01*
X186624500Y-144065572D01*
X186624184Y-144074419D01*
X186609869Y-144274557D01*
X186607351Y-144292068D01*
X186565646Y-144483787D01*
X186560662Y-144500763D01*
X186492090Y-144684609D01*
X186484740Y-144700701D01*
X186390711Y-144872904D01*
X186381146Y-144887789D01*
X186263558Y-145044867D01*
X186251972Y-145058237D01*
X186113237Y-145196972D01*
X186099867Y-145208558D01*
X185942789Y-145326146D01*
X185927904Y-145335711D01*
X185755701Y-145429740D01*
X185739609Y-145437090D01*
X185555763Y-145505662D01*
X185538787Y-145510646D01*
X185347068Y-145552351D01*
X185329557Y-145554869D01*
X185148779Y-145567799D01*
X185129417Y-145569184D01*
X185120572Y-145569500D01*
X106579428Y-145569500D01*
X106570582Y-145569184D01*
X106548622Y-145567613D01*
X106370442Y-145554869D01*
X106352931Y-145552351D01*
X106161212Y-145510646D01*
X106144236Y-145505662D01*
X105960390Y-145437090D01*
X105944298Y-145429740D01*
X105772095Y-145335711D01*
X105757210Y-145326146D01*
X105600132Y-145208558D01*
X105586762Y-145196972D01*
X105448027Y-145058237D01*
X105436441Y-145044867D01*
X105410765Y-145010568D01*
X105318849Y-144887784D01*
X105309288Y-144872904D01*
X105215259Y-144700701D01*
X105207909Y-144684609D01*
X105139334Y-144500755D01*
X105134355Y-144483797D01*
X105092647Y-144292063D01*
X105090130Y-144274556D01*
X105090089Y-144273987D01*
X105075816Y-144074418D01*
X105075500Y-144065572D01*
X105075500Y-143501902D01*
X106319500Y-143501902D01*
X106319500Y-143738097D01*
X106356446Y-143971368D01*
X106429433Y-144195996D01*
X106478385Y-144292068D01*
X106536657Y-144406433D01*
X106675483Y-144597510D01*
X106842490Y-144764517D01*
X107033567Y-144903343D01*
X107132991Y-144954002D01*
X107244003Y-145010566D01*
X107244005Y-145010566D01*
X107244008Y-145010568D01*
X107349569Y-145044867D01*
X107468631Y-145083553D01*
X107701903Y-145120500D01*
X107701908Y-145120500D01*
X107938097Y-145120500D01*
X108171368Y-145083553D01*
X108249282Y-145058237D01*
X108395992Y-145010568D01*
X108606433Y-144903343D01*
X108797510Y-144764517D01*
X108964517Y-144597510D01*
X109103343Y-144406433D01*
X109210568Y-144195992D01*
X109283553Y-143971368D01*
X109303483Y-143845535D01*
X109320500Y-143738097D01*
X109320500Y-143501902D01*
X110519500Y-143501902D01*
X110519500Y-143738097D01*
X110556446Y-143971368D01*
X110629433Y-144195996D01*
X110678385Y-144292068D01*
X110736657Y-144406433D01*
X110875483Y-144597510D01*
X111042490Y-144764517D01*
X111233567Y-144903343D01*
X111332991Y-144954002D01*
X111444003Y-145010566D01*
X111444005Y-145010566D01*
X111444008Y-145010568D01*
X111549569Y-145044867D01*
X111668631Y-145083553D01*
X111901903Y-145120500D01*
X111901908Y-145120500D01*
X112138097Y-145120500D01*
X112371368Y-145083553D01*
X112449282Y-145058237D01*
X112595992Y-145010568D01*
X112806433Y-144903343D01*
X112997510Y-144764517D01*
X113164517Y-144597510D01*
X113303343Y-144406433D01*
X113410568Y-144195992D01*
X113483553Y-143971368D01*
X113503483Y-143845535D01*
X113520500Y-143738097D01*
X113520500Y-143501902D01*
X114719500Y-143501902D01*
X114719500Y-143738097D01*
X114756446Y-143971368D01*
X114829433Y-144195996D01*
X114878385Y-144292068D01*
X114936657Y-144406433D01*
X115075483Y-144597510D01*
X115242490Y-144764517D01*
X115433567Y-144903343D01*
X115532991Y-144954002D01*
X115644003Y-145010566D01*
X115644005Y-145010566D01*
X115644008Y-145010568D01*
X115749569Y-145044867D01*
X115868631Y-145083553D01*
X116101903Y-145120500D01*
X116101908Y-145120500D01*
X116338097Y-145120500D01*
X116571368Y-145083553D01*
X116649282Y-145058237D01*
X116795992Y-145010568D01*
X117006433Y-144903343D01*
X117197510Y-144764517D01*
X117364517Y-144597510D01*
X117503343Y-144406433D01*
X117610568Y-144195992D01*
X117683553Y-143971368D01*
X117703483Y-143845535D01*
X117720500Y-143738097D01*
X117720500Y-143501902D01*
X118919500Y-143501902D01*
X118919500Y-143738097D01*
X118956446Y-143971368D01*
X119029433Y-144195996D01*
X119078385Y-144292068D01*
X119136657Y-144406433D01*
X119275483Y-144597510D01*
X119442490Y-144764517D01*
X119633567Y-144903343D01*
X119732991Y-144954002D01*
X119844003Y-145010566D01*
X119844005Y-145010566D01*
X119844008Y-145010568D01*
X119949569Y-145044867D01*
X120068631Y-145083553D01*
X120301903Y-145120500D01*
X120301908Y-145120500D01*
X120538097Y-145120500D01*
X120771368Y-145083553D01*
X120849282Y-145058237D01*
X120995992Y-145010568D01*
X121206433Y-144903343D01*
X121397510Y-144764517D01*
X121564517Y-144597510D01*
X121703343Y-144406433D01*
X121810568Y-144195992D01*
X121883553Y-143971368D01*
X121903483Y-143845535D01*
X121920500Y-143738097D01*
X121920500Y-143501947D01*
X123120000Y-143501947D01*
X123120000Y-143738052D01*
X123156934Y-143971247D01*
X123229897Y-144195802D01*
X123337087Y-144406174D01*
X123397338Y-144489104D01*
X123397340Y-144489105D01*
X124055387Y-143831058D01*
X124060889Y-143851591D01*
X124139881Y-143988408D01*
X124251592Y-144100119D01*
X124388409Y-144179111D01*
X124408940Y-144184612D01*
X123750893Y-144842658D01*
X123833828Y-144902914D01*
X124044197Y-145010102D01*
X124268752Y-145083065D01*
X124268751Y-145083065D01*
X124501948Y-145120000D01*
X124738052Y-145120000D01*
X124971247Y-145083065D01*
X125195802Y-145010102D01*
X125406163Y-144902918D01*
X125406169Y-144902914D01*
X125489104Y-144842658D01*
X125489105Y-144842658D01*
X124831058Y-144184612D01*
X124851591Y-144179111D01*
X124988408Y-144100119D01*
X125100119Y-143988408D01*
X125179111Y-143851591D01*
X125184612Y-143831059D01*
X125842658Y-144489105D01*
X125842658Y-144489104D01*
X125902914Y-144406169D01*
X125902918Y-144406163D01*
X126010102Y-144195802D01*
X126083065Y-143971247D01*
X126120000Y-143738052D01*
X126120000Y-143501947D01*
X126119993Y-143501902D01*
X127319500Y-143501902D01*
X127319500Y-143738097D01*
X127356446Y-143971368D01*
X127429433Y-144195996D01*
X127478385Y-144292068D01*
X127536657Y-144406433D01*
X127675483Y-144597510D01*
X127842490Y-144764517D01*
X128033567Y-144903343D01*
X128132991Y-144954002D01*
X128244003Y-145010566D01*
X128244005Y-145010566D01*
X128244008Y-145010568D01*
X128349569Y-145044867D01*
X128468631Y-145083553D01*
X128701903Y-145120500D01*
X128701908Y-145120500D01*
X128938097Y-145120500D01*
X129171368Y-145083553D01*
X129249282Y-145058237D01*
X129395992Y-145010568D01*
X129606433Y-144903343D01*
X129797510Y-144764517D01*
X129964517Y-144597510D01*
X130103343Y-144406433D01*
X130210568Y-144195992D01*
X130283553Y-143971368D01*
X130303483Y-143845535D01*
X130320500Y-143738097D01*
X130320500Y-143501902D01*
X130283553Y-143268631D01*
X130212986Y-143051451D01*
X130210568Y-143044008D01*
X130210566Y-143044005D01*
X130210566Y-143044003D01*
X130103477Y-142833830D01*
X130103343Y-142833567D01*
X129964517Y-142642490D01*
X129797510Y-142475483D01*
X129606433Y-142336657D01*
X129395996Y-142229433D01*
X129171368Y-142156446D01*
X128938097Y-142119500D01*
X128938092Y-142119500D01*
X128701908Y-142119500D01*
X128701903Y-142119500D01*
X128468631Y-142156446D01*
X128244003Y-142229433D01*
X128033566Y-142336657D01*
X127950047Y-142397338D01*
X127842490Y-142475483D01*
X127842488Y-142475485D01*
X127842487Y-142475485D01*
X127675485Y-142642487D01*
X127675485Y-142642488D01*
X127675483Y-142642490D01*
X127615862Y-142724550D01*
X127536657Y-142833566D01*
X127429433Y-143044003D01*
X127356446Y-143268631D01*
X127319500Y-143501902D01*
X126119993Y-143501902D01*
X126083065Y-143268752D01*
X126010102Y-143044197D01*
X125902914Y-142833828D01*
X125842658Y-142750894D01*
X125842658Y-142750893D01*
X125184612Y-143408940D01*
X125179111Y-143388409D01*
X125100119Y-143251592D01*
X124988408Y-143139881D01*
X124851591Y-143060889D01*
X124831059Y-143055387D01*
X125489105Y-142397340D01*
X125489104Y-142397338D01*
X125406174Y-142337087D01*
X125195802Y-142229897D01*
X124971247Y-142156934D01*
X124971248Y-142156934D01*
X124738052Y-142120000D01*
X124501948Y-142120000D01*
X124268752Y-142156934D01*
X124044197Y-142229897D01*
X123833830Y-142337084D01*
X123750894Y-142397340D01*
X124408941Y-143055387D01*
X124388409Y-143060889D01*
X124251592Y-143139881D01*
X124139881Y-143251592D01*
X124060889Y-143388409D01*
X124055387Y-143408941D01*
X123397340Y-142750894D01*
X123337084Y-142833830D01*
X123229897Y-143044197D01*
X123156934Y-143268752D01*
X123120000Y-143501947D01*
X121920500Y-143501947D01*
X121920500Y-143501902D01*
X121883553Y-143268631D01*
X121812986Y-143051451D01*
X121810568Y-143044008D01*
X121810566Y-143044005D01*
X121810566Y-143044003D01*
X121703477Y-142833830D01*
X121703343Y-142833567D01*
X121564517Y-142642490D01*
X121397510Y-142475483D01*
X121206433Y-142336657D01*
X120995996Y-142229433D01*
X120771368Y-142156446D01*
X120538097Y-142119500D01*
X120538092Y-142119500D01*
X120301908Y-142119500D01*
X120301903Y-142119500D01*
X120068631Y-142156446D01*
X119844003Y-142229433D01*
X119633566Y-142336657D01*
X119550047Y-142397338D01*
X119442490Y-142475483D01*
X119442488Y-142475485D01*
X119442487Y-142475485D01*
X119275485Y-142642487D01*
X119275485Y-142642488D01*
X119275483Y-142642490D01*
X119215862Y-142724550D01*
X119136657Y-142833566D01*
X119029433Y-143044003D01*
X118956446Y-143268631D01*
X118919500Y-143501902D01*
X117720500Y-143501902D01*
X117683553Y-143268631D01*
X117612986Y-143051451D01*
X117610568Y-143044008D01*
X117610566Y-143044005D01*
X117610566Y-143044003D01*
X117503477Y-142833830D01*
X117503343Y-142833567D01*
X117364517Y-142642490D01*
X117197510Y-142475483D01*
X117006433Y-142336657D01*
X116795996Y-142229433D01*
X116571368Y-142156446D01*
X116338097Y-142119500D01*
X116338092Y-142119500D01*
X116101908Y-142119500D01*
X116101903Y-142119500D01*
X115868631Y-142156446D01*
X115644003Y-142229433D01*
X115433566Y-142336657D01*
X115350047Y-142397338D01*
X115242490Y-142475483D01*
X115242488Y-142475485D01*
X115242487Y-142475485D01*
X115075485Y-142642487D01*
X115075485Y-142642488D01*
X115075483Y-142642490D01*
X115015862Y-142724550D01*
X114936657Y-142833566D01*
X114829433Y-143044003D01*
X114756446Y-143268631D01*
X114719500Y-143501902D01*
X113520500Y-143501902D01*
X113483553Y-143268631D01*
X113412986Y-143051451D01*
X113410568Y-143044008D01*
X113410566Y-143044005D01*
X113410566Y-143044003D01*
X113303477Y-142833830D01*
X113303343Y-142833567D01*
X113164517Y-142642490D01*
X112997510Y-142475483D01*
X112806433Y-142336657D01*
X112595996Y-142229433D01*
X112371368Y-142156446D01*
X112138097Y-142119500D01*
X112138092Y-142119500D01*
X111901908Y-142119500D01*
X111901903Y-142119500D01*
X111668631Y-142156446D01*
X111444003Y-142229433D01*
X111233566Y-142336657D01*
X111150047Y-142397338D01*
X111042490Y-142475483D01*
X111042488Y-142475485D01*
X111042487Y-142475485D01*
X110875485Y-142642487D01*
X110875485Y-142642488D01*
X110875483Y-142642490D01*
X110815862Y-142724550D01*
X110736657Y-142833566D01*
X110629433Y-143044003D01*
X110556446Y-143268631D01*
X110519500Y-143501902D01*
X109320500Y-143501902D01*
X109283553Y-143268631D01*
X109212986Y-143051451D01*
X109210568Y-143044008D01*
X109210566Y-143044005D01*
X109210566Y-143044003D01*
X109103477Y-142833830D01*
X109103343Y-142833567D01*
X108964517Y-142642490D01*
X108797510Y-142475483D01*
X108606433Y-142336657D01*
X108395996Y-142229433D01*
X108171368Y-142156446D01*
X107938097Y-142119500D01*
X107938092Y-142119500D01*
X107701908Y-142119500D01*
X107701903Y-142119500D01*
X107468631Y-142156446D01*
X107244003Y-142229433D01*
X107033566Y-142336657D01*
X106950047Y-142397338D01*
X106842490Y-142475483D01*
X106842488Y-142475485D01*
X106842487Y-142475485D01*
X106675485Y-142642487D01*
X106675485Y-142642488D01*
X106675483Y-142642490D01*
X106615862Y-142724550D01*
X106536657Y-142833566D01*
X106429433Y-143044003D01*
X106356446Y-143268631D01*
X106319500Y-143501902D01*
X105075500Y-143501902D01*
X105075500Y-141500316D01*
X142599500Y-141500316D01*
X142599500Y-141819683D01*
X142630803Y-142137522D01*
X142693109Y-142450754D01*
X142785820Y-142756382D01*
X142817900Y-142833830D01*
X142895014Y-143020000D01*
X142908040Y-143051446D01*
X142908042Y-143051451D01*
X143058584Y-143333094D01*
X143058601Y-143333122D01*
X143236012Y-143598638D01*
X143236029Y-143598661D01*
X143438638Y-143845540D01*
X143664459Y-144071361D01*
X143664464Y-144071365D01*
X143664465Y-144071366D01*
X143911344Y-144273975D01*
X143911351Y-144273980D01*
X143911361Y-144273987D01*
X144176877Y-144451398D01*
X144176882Y-144451401D01*
X144176894Y-144451409D01*
X144176903Y-144451413D01*
X144176905Y-144451415D01*
X144458548Y-144601957D01*
X144458550Y-144601957D01*
X144458556Y-144601961D01*
X144753619Y-144724180D01*
X145059240Y-144816889D01*
X145372477Y-144879196D01*
X145690313Y-144910500D01*
X145690316Y-144910500D01*
X146009684Y-144910500D01*
X146009687Y-144910500D01*
X146327523Y-144879196D01*
X146640760Y-144816889D01*
X146946381Y-144724180D01*
X147241444Y-144601961D01*
X147523106Y-144451409D01*
X147788656Y-144273975D01*
X148035535Y-144071366D01*
X148261366Y-143845535D01*
X148463975Y-143598656D01*
X148528624Y-143501902D01*
X161379500Y-143501902D01*
X161379500Y-143738097D01*
X161416446Y-143971368D01*
X161489433Y-144195996D01*
X161538385Y-144292068D01*
X161596657Y-144406433D01*
X161735483Y-144597510D01*
X161902490Y-144764517D01*
X162093567Y-144903343D01*
X162192991Y-144954002D01*
X162304003Y-145010566D01*
X162304005Y-145010566D01*
X162304008Y-145010568D01*
X162409569Y-145044867D01*
X162528631Y-145083553D01*
X162761903Y-145120500D01*
X162761908Y-145120500D01*
X162998097Y-145120500D01*
X163231368Y-145083553D01*
X163309282Y-145058237D01*
X163455992Y-145010568D01*
X163666433Y-144903343D01*
X163857510Y-144764517D01*
X164024517Y-144597510D01*
X164163343Y-144406433D01*
X164270568Y-144195992D01*
X164343553Y-143971368D01*
X164363483Y-143845535D01*
X164380500Y-143738097D01*
X164380500Y-143501902D01*
X165579500Y-143501902D01*
X165579500Y-143738097D01*
X165616446Y-143971368D01*
X165689433Y-144195996D01*
X165738385Y-144292068D01*
X165796657Y-144406433D01*
X165935483Y-144597510D01*
X166102490Y-144764517D01*
X166293567Y-144903343D01*
X166392991Y-144954002D01*
X166504003Y-145010566D01*
X166504005Y-145010566D01*
X166504008Y-145010568D01*
X166609569Y-145044867D01*
X166728631Y-145083553D01*
X166961903Y-145120500D01*
X166961908Y-145120500D01*
X167198097Y-145120500D01*
X167431368Y-145083553D01*
X167509282Y-145058237D01*
X167655992Y-145010568D01*
X167866433Y-144903343D01*
X168057510Y-144764517D01*
X168224517Y-144597510D01*
X168363343Y-144406433D01*
X168470568Y-144195992D01*
X168543553Y-143971368D01*
X168563483Y-143845535D01*
X168580500Y-143738097D01*
X168580500Y-143501902D01*
X169779500Y-143501902D01*
X169779500Y-143738097D01*
X169816446Y-143971368D01*
X169889433Y-144195996D01*
X169938385Y-144292068D01*
X169996657Y-144406433D01*
X170135483Y-144597510D01*
X170302490Y-144764517D01*
X170493567Y-144903343D01*
X170592991Y-144954002D01*
X170704003Y-145010566D01*
X170704005Y-145010566D01*
X170704008Y-145010568D01*
X170809569Y-145044867D01*
X170928631Y-145083553D01*
X171161903Y-145120500D01*
X171161908Y-145120500D01*
X171398097Y-145120500D01*
X171631368Y-145083553D01*
X171709282Y-145058237D01*
X171855992Y-145010568D01*
X172066433Y-144903343D01*
X172257510Y-144764517D01*
X172424517Y-144597510D01*
X172563343Y-144406433D01*
X172670568Y-144195992D01*
X172743553Y-143971368D01*
X172763483Y-143845535D01*
X172780500Y-143738097D01*
X172780500Y-143501902D01*
X173979500Y-143501902D01*
X173979500Y-143738097D01*
X174016446Y-143971368D01*
X174089433Y-144195996D01*
X174138385Y-144292068D01*
X174196657Y-144406433D01*
X174335483Y-144597510D01*
X174502490Y-144764517D01*
X174693567Y-144903343D01*
X174792991Y-144954002D01*
X174904003Y-145010566D01*
X174904005Y-145010566D01*
X174904008Y-145010568D01*
X175009569Y-145044867D01*
X175128631Y-145083553D01*
X175361903Y-145120500D01*
X175361908Y-145120500D01*
X175598097Y-145120500D01*
X175831368Y-145083553D01*
X175909282Y-145058237D01*
X176055992Y-145010568D01*
X176266433Y-144903343D01*
X176457510Y-144764517D01*
X176624517Y-144597510D01*
X176763343Y-144406433D01*
X176870568Y-144195992D01*
X176943553Y-143971368D01*
X176963483Y-143845535D01*
X176980500Y-143738097D01*
X176980500Y-143501902D01*
X178179500Y-143501902D01*
X178179500Y-143738097D01*
X178216446Y-143971368D01*
X178289433Y-144195996D01*
X178338385Y-144292068D01*
X178396657Y-144406433D01*
X178535483Y-144597510D01*
X178702490Y-144764517D01*
X178893567Y-144903343D01*
X178992991Y-144954002D01*
X179104003Y-145010566D01*
X179104005Y-145010566D01*
X179104008Y-145010568D01*
X179209569Y-145044867D01*
X179328631Y-145083553D01*
X179561903Y-145120500D01*
X179561908Y-145120500D01*
X179798097Y-145120500D01*
X180031368Y-145083553D01*
X180109282Y-145058237D01*
X180255992Y-145010568D01*
X180466433Y-144903343D01*
X180657510Y-144764517D01*
X180824517Y-144597510D01*
X180963343Y-144406433D01*
X181070568Y-144195992D01*
X181143553Y-143971368D01*
X181163483Y-143845535D01*
X181180500Y-143738097D01*
X181180500Y-143501902D01*
X182379500Y-143501902D01*
X182379500Y-143738097D01*
X182416446Y-143971368D01*
X182489433Y-144195996D01*
X182538385Y-144292068D01*
X182596657Y-144406433D01*
X182735483Y-144597510D01*
X182902490Y-144764517D01*
X183093567Y-144903343D01*
X183192991Y-144954002D01*
X183304003Y-145010566D01*
X183304005Y-145010566D01*
X183304008Y-145010568D01*
X183409569Y-145044867D01*
X183528631Y-145083553D01*
X183761903Y-145120500D01*
X183761908Y-145120500D01*
X183998097Y-145120500D01*
X184231368Y-145083553D01*
X184309282Y-145058237D01*
X184455992Y-145010568D01*
X184666433Y-144903343D01*
X184857510Y-144764517D01*
X185024517Y-144597510D01*
X185163343Y-144406433D01*
X185270568Y-144195992D01*
X185343553Y-143971368D01*
X185363483Y-143845535D01*
X185380500Y-143738097D01*
X185380500Y-143501902D01*
X185343553Y-143268631D01*
X185272986Y-143051451D01*
X185270568Y-143044008D01*
X185270566Y-143044005D01*
X185270566Y-143044003D01*
X185163477Y-142833830D01*
X185163343Y-142833567D01*
X185024517Y-142642490D01*
X184857510Y-142475483D01*
X184666433Y-142336657D01*
X184455996Y-142229433D01*
X184231368Y-142156446D01*
X183998097Y-142119500D01*
X183998092Y-142119500D01*
X183761908Y-142119500D01*
X183761903Y-142119500D01*
X183528631Y-142156446D01*
X183304003Y-142229433D01*
X183093566Y-142336657D01*
X183010047Y-142397338D01*
X182902490Y-142475483D01*
X182902488Y-142475485D01*
X182902487Y-142475485D01*
X182735485Y-142642487D01*
X182735485Y-142642488D01*
X182735483Y-142642490D01*
X182675862Y-142724550D01*
X182596657Y-142833566D01*
X182489433Y-143044003D01*
X182416446Y-143268631D01*
X182379500Y-143501902D01*
X181180500Y-143501902D01*
X181143553Y-143268631D01*
X181072986Y-143051451D01*
X181070568Y-143044008D01*
X181070566Y-143044005D01*
X181070566Y-143044003D01*
X180963477Y-142833830D01*
X180963343Y-142833567D01*
X180824517Y-142642490D01*
X180657510Y-142475483D01*
X180466433Y-142336657D01*
X180255996Y-142229433D01*
X180031368Y-142156446D01*
X179798097Y-142119500D01*
X179798092Y-142119500D01*
X179561908Y-142119500D01*
X179561903Y-142119500D01*
X179328631Y-142156446D01*
X179104003Y-142229433D01*
X178893566Y-142336657D01*
X178810047Y-142397338D01*
X178702490Y-142475483D01*
X178702488Y-142475485D01*
X178702487Y-142475485D01*
X178535485Y-142642487D01*
X178535485Y-142642488D01*
X178535483Y-142642490D01*
X178475862Y-142724550D01*
X178396657Y-142833566D01*
X178289433Y-143044003D01*
X178216446Y-143268631D01*
X178179500Y-143501902D01*
X176980500Y-143501902D01*
X176943553Y-143268631D01*
X176872986Y-143051451D01*
X176870568Y-143044008D01*
X176870566Y-143044005D01*
X176870566Y-143044003D01*
X176763477Y-142833830D01*
X176763343Y-142833567D01*
X176624517Y-142642490D01*
X176457510Y-142475483D01*
X176266433Y-142336657D01*
X176055996Y-142229433D01*
X175831368Y-142156446D01*
X175598097Y-142119500D01*
X175598092Y-142119500D01*
X175361908Y-142119500D01*
X175361903Y-142119500D01*
X175128631Y-142156446D01*
X174904003Y-142229433D01*
X174693566Y-142336657D01*
X174610047Y-142397338D01*
X174502490Y-142475483D01*
X174502488Y-142475485D01*
X174502487Y-142475485D01*
X174335485Y-142642487D01*
X174335485Y-142642488D01*
X174335483Y-142642490D01*
X174275862Y-142724550D01*
X174196657Y-142833566D01*
X174089433Y-143044003D01*
X174016446Y-143268631D01*
X173979500Y-143501902D01*
X172780500Y-143501902D01*
X172743553Y-143268631D01*
X172672986Y-143051451D01*
X172670568Y-143044008D01*
X172670566Y-143044005D01*
X172670566Y-143044003D01*
X172563477Y-142833830D01*
X172563343Y-142833567D01*
X172424517Y-142642490D01*
X172257510Y-142475483D01*
X172066433Y-142336657D01*
X171855996Y-142229433D01*
X171631368Y-142156446D01*
X171398097Y-142119500D01*
X171398092Y-142119500D01*
X171161908Y-142119500D01*
X171161903Y-142119500D01*
X170928631Y-142156446D01*
X170704003Y-142229433D01*
X170493566Y-142336657D01*
X170410047Y-142397338D01*
X170302490Y-142475483D01*
X170302488Y-142475485D01*
X170302487Y-142475485D01*
X170135485Y-142642487D01*
X170135485Y-142642488D01*
X170135483Y-142642490D01*
X170075862Y-142724550D01*
X169996657Y-142833566D01*
X169889433Y-143044003D01*
X169816446Y-143268631D01*
X169779500Y-143501902D01*
X168580500Y-143501902D01*
X168543553Y-143268631D01*
X168472986Y-143051451D01*
X168470568Y-143044008D01*
X168470566Y-143044005D01*
X168470566Y-143044003D01*
X168363477Y-142833830D01*
X168363343Y-142833567D01*
X168224517Y-142642490D01*
X168057510Y-142475483D01*
X167866433Y-142336657D01*
X167655996Y-142229433D01*
X167431368Y-142156446D01*
X167198097Y-142119500D01*
X167198092Y-142119500D01*
X166961908Y-142119500D01*
X166961903Y-142119500D01*
X166728631Y-142156446D01*
X166504003Y-142229433D01*
X166293566Y-142336657D01*
X166210047Y-142397338D01*
X166102490Y-142475483D01*
X166102488Y-142475485D01*
X166102487Y-142475485D01*
X165935485Y-142642487D01*
X165935485Y-142642488D01*
X165935483Y-142642490D01*
X165875862Y-142724550D01*
X165796657Y-142833566D01*
X165689433Y-143044003D01*
X165616446Y-143268631D01*
X165579500Y-143501902D01*
X164380500Y-143501902D01*
X164343553Y-143268631D01*
X164272986Y-143051451D01*
X164270568Y-143044008D01*
X164270566Y-143044005D01*
X164270566Y-143044003D01*
X164163477Y-142833830D01*
X164163343Y-142833567D01*
X164024517Y-142642490D01*
X163857510Y-142475483D01*
X163666433Y-142336657D01*
X163455996Y-142229433D01*
X163231368Y-142156446D01*
X162998097Y-142119500D01*
X162998092Y-142119500D01*
X162761908Y-142119500D01*
X162761903Y-142119500D01*
X162528631Y-142156446D01*
X162304003Y-142229433D01*
X162093566Y-142336657D01*
X162010047Y-142397338D01*
X161902490Y-142475483D01*
X161902488Y-142475485D01*
X161902487Y-142475485D01*
X161735485Y-142642487D01*
X161735485Y-142642488D01*
X161735483Y-142642490D01*
X161675862Y-142724550D01*
X161596657Y-142833566D01*
X161489433Y-143044003D01*
X161416446Y-143268631D01*
X161379500Y-143501902D01*
X148528624Y-143501902D01*
X148641409Y-143333106D01*
X148791961Y-143051444D01*
X148914180Y-142756381D01*
X149006889Y-142450760D01*
X149069196Y-142137523D01*
X149100500Y-141819687D01*
X149100500Y-141500313D01*
X149069196Y-141182477D01*
X149006889Y-140869240D01*
X148914180Y-140563619D01*
X148791961Y-140268556D01*
X148641409Y-139986894D01*
X148641398Y-139986877D01*
X148463987Y-139721361D01*
X148463980Y-139721351D01*
X148463975Y-139721344D01*
X148261366Y-139474465D01*
X148261365Y-139474464D01*
X148261361Y-139474459D01*
X148035540Y-139248638D01*
X147788661Y-139046029D01*
X147788638Y-139046012D01*
X147523122Y-138868601D01*
X147523094Y-138868584D01*
X147241451Y-138718042D01*
X147241446Y-138718040D01*
X146946382Y-138595820D01*
X146640754Y-138503109D01*
X146327521Y-138440803D01*
X146327522Y-138440803D01*
X146088141Y-138417227D01*
X146009687Y-138409500D01*
X145690313Y-138409500D01*
X145617822Y-138416639D01*
X145372477Y-138440803D01*
X145059245Y-138503109D01*
X144753617Y-138595820D01*
X144458553Y-138718040D01*
X144458548Y-138718042D01*
X144176905Y-138868584D01*
X144176877Y-138868601D01*
X143911361Y-139046012D01*
X143911338Y-139046029D01*
X143664459Y-139248638D01*
X143438638Y-139474459D01*
X143236029Y-139721338D01*
X143236012Y-139721361D01*
X143058601Y-139986877D01*
X143058584Y-139986905D01*
X142908042Y-140268548D01*
X142908040Y-140268553D01*
X142785820Y-140563617D01*
X142693109Y-140869245D01*
X142630803Y-141182477D01*
X142599500Y-141500316D01*
X105075500Y-141500316D01*
X105075500Y-137151902D01*
X106319500Y-137151902D01*
X106319500Y-137388097D01*
X106356446Y-137621368D01*
X106429433Y-137845996D01*
X106536519Y-138056163D01*
X106536657Y-138056433D01*
X106675483Y-138247510D01*
X106842490Y-138414517D01*
X107033567Y-138553343D01*
X107116933Y-138595820D01*
X107244003Y-138660566D01*
X107244005Y-138660566D01*
X107244008Y-138660568D01*
X107364412Y-138699689D01*
X107468631Y-138733553D01*
X107701903Y-138770500D01*
X107701908Y-138770500D01*
X107938097Y-138770500D01*
X108171368Y-138733553D01*
X108172870Y-138733065D01*
X108395992Y-138660568D01*
X108606433Y-138553343D01*
X108797510Y-138414517D01*
X108964517Y-138247510D01*
X109103343Y-138056433D01*
X109210568Y-137845992D01*
X109283553Y-137621368D01*
X109302524Y-137501591D01*
X109320500Y-137388097D01*
X109320500Y-137151902D01*
X110519500Y-137151902D01*
X110519500Y-137388097D01*
X110556446Y-137621368D01*
X110629433Y-137845996D01*
X110736519Y-138056163D01*
X110736657Y-138056433D01*
X110875483Y-138247510D01*
X111042490Y-138414517D01*
X111233567Y-138553343D01*
X111316933Y-138595820D01*
X111444003Y-138660566D01*
X111444005Y-138660566D01*
X111444008Y-138660568D01*
X111564412Y-138699689D01*
X111668631Y-138733553D01*
X111901903Y-138770500D01*
X111901908Y-138770500D01*
X112138097Y-138770500D01*
X112371368Y-138733553D01*
X112372870Y-138733065D01*
X112595992Y-138660568D01*
X112806433Y-138553343D01*
X112997510Y-138414517D01*
X113164517Y-138247510D01*
X113303343Y-138056433D01*
X113410568Y-137845992D01*
X113483553Y-137621368D01*
X113502524Y-137501591D01*
X113520500Y-137388097D01*
X113520500Y-137151902D01*
X114719500Y-137151902D01*
X114719500Y-137388097D01*
X114756446Y-137621368D01*
X114829433Y-137845996D01*
X114936519Y-138056163D01*
X114936657Y-138056433D01*
X115075483Y-138247510D01*
X115242490Y-138414517D01*
X115433567Y-138553343D01*
X115516933Y-138595820D01*
X115644003Y-138660566D01*
X115644005Y-138660566D01*
X115644008Y-138660568D01*
X115764412Y-138699689D01*
X115868631Y-138733553D01*
X116101903Y-138770500D01*
X116101908Y-138770500D01*
X116338097Y-138770500D01*
X116571368Y-138733553D01*
X116572870Y-138733065D01*
X116795992Y-138660568D01*
X117006433Y-138553343D01*
X117197510Y-138414517D01*
X117364517Y-138247510D01*
X117503343Y-138056433D01*
X117610568Y-137845992D01*
X117683553Y-137621368D01*
X117702524Y-137501591D01*
X117720500Y-137388097D01*
X117720500Y-137151902D01*
X118919500Y-137151902D01*
X118919500Y-137388097D01*
X118956446Y-137621368D01*
X119029433Y-137845996D01*
X119136519Y-138056163D01*
X119136657Y-138056433D01*
X119275483Y-138247510D01*
X119442490Y-138414517D01*
X119633567Y-138553343D01*
X119716933Y-138595820D01*
X119844003Y-138660566D01*
X119844005Y-138660566D01*
X119844008Y-138660568D01*
X119964412Y-138699689D01*
X120068631Y-138733553D01*
X120301903Y-138770500D01*
X120301908Y-138770500D01*
X120538097Y-138770500D01*
X120771368Y-138733553D01*
X120772870Y-138733065D01*
X120995992Y-138660568D01*
X121206433Y-138553343D01*
X121397510Y-138414517D01*
X121564517Y-138247510D01*
X121703343Y-138056433D01*
X121810568Y-137845992D01*
X121883553Y-137621368D01*
X121902524Y-137501591D01*
X121920500Y-137388097D01*
X121920500Y-137151902D01*
X123119500Y-137151902D01*
X123119500Y-137388097D01*
X123156446Y-137621368D01*
X123229433Y-137845996D01*
X123336519Y-138056163D01*
X123336657Y-138056433D01*
X123475483Y-138247510D01*
X123642490Y-138414517D01*
X123833567Y-138553343D01*
X123916933Y-138595820D01*
X124044003Y-138660566D01*
X124044005Y-138660566D01*
X124044008Y-138660568D01*
X124164412Y-138699689D01*
X124268631Y-138733553D01*
X124501903Y-138770500D01*
X124501908Y-138770500D01*
X124738097Y-138770500D01*
X124971368Y-138733553D01*
X124972870Y-138733065D01*
X125195992Y-138660568D01*
X125406433Y-138553343D01*
X125597510Y-138414517D01*
X125764517Y-138247510D01*
X125903343Y-138056433D01*
X126010568Y-137845992D01*
X126083553Y-137621368D01*
X126102524Y-137501591D01*
X126120500Y-137388097D01*
X126120500Y-137151902D01*
X127319500Y-137151902D01*
X127319500Y-137388097D01*
X127356446Y-137621368D01*
X127429433Y-137845996D01*
X127536519Y-138056163D01*
X127536657Y-138056433D01*
X127675483Y-138247510D01*
X127842490Y-138414517D01*
X128033567Y-138553343D01*
X128116933Y-138595820D01*
X128244003Y-138660566D01*
X128244005Y-138660566D01*
X128244008Y-138660568D01*
X128364412Y-138699689D01*
X128468631Y-138733553D01*
X128701903Y-138770500D01*
X128701908Y-138770500D01*
X128938097Y-138770500D01*
X129171368Y-138733553D01*
X129172870Y-138733065D01*
X129395992Y-138660568D01*
X129606433Y-138553343D01*
X129797510Y-138414517D01*
X129964517Y-138247510D01*
X130103343Y-138056433D01*
X130210568Y-137845992D01*
X130283553Y-137621368D01*
X130302524Y-137501591D01*
X130320500Y-137388097D01*
X130320500Y-137151902D01*
X161379500Y-137151902D01*
X161379500Y-137388097D01*
X161416446Y-137621368D01*
X161489433Y-137845996D01*
X161596519Y-138056163D01*
X161596657Y-138056433D01*
X161735483Y-138247510D01*
X161902490Y-138414517D01*
X162093567Y-138553343D01*
X162176933Y-138595820D01*
X162304003Y-138660566D01*
X162304005Y-138660566D01*
X162304008Y-138660568D01*
X162424412Y-138699689D01*
X162528631Y-138733553D01*
X162761903Y-138770500D01*
X162761908Y-138770500D01*
X162998097Y-138770500D01*
X163231368Y-138733553D01*
X163232870Y-138733065D01*
X163455992Y-138660568D01*
X163666433Y-138553343D01*
X163857510Y-138414517D01*
X164024517Y-138247510D01*
X164163343Y-138056433D01*
X164270568Y-137845992D01*
X164343553Y-137621368D01*
X164362524Y-137501591D01*
X164380500Y-137388097D01*
X164380500Y-137151947D01*
X165580000Y-137151947D01*
X165580000Y-137388052D01*
X165616934Y-137621247D01*
X165689897Y-137845802D01*
X165797087Y-138056174D01*
X165857338Y-138139104D01*
X165857340Y-138139105D01*
X166515387Y-137481058D01*
X166520889Y-137501591D01*
X166599881Y-137638408D01*
X166711592Y-137750119D01*
X166848409Y-137829111D01*
X166868940Y-137834612D01*
X166210893Y-138492658D01*
X166293828Y-138552914D01*
X166504197Y-138660102D01*
X166728752Y-138733065D01*
X166728751Y-138733065D01*
X166961948Y-138770000D01*
X167198052Y-138770000D01*
X167431247Y-138733065D01*
X167655802Y-138660102D01*
X167866163Y-138552918D01*
X167866169Y-138552914D01*
X167949104Y-138492658D01*
X167949105Y-138492658D01*
X167291058Y-137834612D01*
X167311591Y-137829111D01*
X167448408Y-137750119D01*
X167560119Y-137638408D01*
X167639111Y-137501591D01*
X167644612Y-137481058D01*
X168302658Y-138139105D01*
X168302658Y-138139104D01*
X168362914Y-138056169D01*
X168362918Y-138056163D01*
X168470102Y-137845802D01*
X168543065Y-137621247D01*
X168580000Y-137388052D01*
X168580000Y-137151947D01*
X168579993Y-137151902D01*
X169779500Y-137151902D01*
X169779500Y-137388097D01*
X169816446Y-137621368D01*
X169889433Y-137845996D01*
X169996519Y-138056163D01*
X169996657Y-138056433D01*
X170135483Y-138247510D01*
X170302490Y-138414517D01*
X170493567Y-138553343D01*
X170576933Y-138595820D01*
X170704003Y-138660566D01*
X170704005Y-138660566D01*
X170704008Y-138660568D01*
X170824412Y-138699689D01*
X170928631Y-138733553D01*
X171161903Y-138770500D01*
X171161908Y-138770500D01*
X171398097Y-138770500D01*
X171631368Y-138733553D01*
X171632870Y-138733065D01*
X171855992Y-138660568D01*
X172066433Y-138553343D01*
X172257510Y-138414517D01*
X172424517Y-138247510D01*
X172563343Y-138056433D01*
X172670568Y-137845992D01*
X172743553Y-137621368D01*
X172762524Y-137501591D01*
X172780500Y-137388097D01*
X172780500Y-137151902D01*
X173979500Y-137151902D01*
X173979500Y-137388097D01*
X174016446Y-137621368D01*
X174089433Y-137845996D01*
X174196519Y-138056163D01*
X174196657Y-138056433D01*
X174335483Y-138247510D01*
X174502490Y-138414517D01*
X174693567Y-138553343D01*
X174776933Y-138595820D01*
X174904003Y-138660566D01*
X174904005Y-138660566D01*
X174904008Y-138660568D01*
X175024412Y-138699689D01*
X175128631Y-138733553D01*
X175361903Y-138770500D01*
X175361908Y-138770500D01*
X175598097Y-138770500D01*
X175831368Y-138733553D01*
X175832870Y-138733065D01*
X176055992Y-138660568D01*
X176266433Y-138553343D01*
X176457510Y-138414517D01*
X176624517Y-138247510D01*
X176763343Y-138056433D01*
X176870568Y-137845992D01*
X176943553Y-137621368D01*
X176962524Y-137501591D01*
X176980500Y-137388097D01*
X176980500Y-137151902D01*
X178179500Y-137151902D01*
X178179500Y-137388097D01*
X178216446Y-137621368D01*
X178289433Y-137845996D01*
X178396519Y-138056163D01*
X178396657Y-138056433D01*
X178535483Y-138247510D01*
X178702490Y-138414517D01*
X178893567Y-138553343D01*
X178976933Y-138595820D01*
X179104003Y-138660566D01*
X179104005Y-138660566D01*
X179104008Y-138660568D01*
X179224412Y-138699689D01*
X179328631Y-138733553D01*
X179561903Y-138770500D01*
X179561908Y-138770500D01*
X179798097Y-138770500D01*
X180031368Y-138733553D01*
X180032870Y-138733065D01*
X180255992Y-138660568D01*
X180466433Y-138553343D01*
X180657510Y-138414517D01*
X180824517Y-138247510D01*
X180963343Y-138056433D01*
X181070568Y-137845992D01*
X181143553Y-137621368D01*
X181162524Y-137501591D01*
X181180500Y-137388097D01*
X181180500Y-137151902D01*
X182379500Y-137151902D01*
X182379500Y-137388097D01*
X182416446Y-137621368D01*
X182489433Y-137845996D01*
X182596519Y-138056163D01*
X182596657Y-138056433D01*
X182735483Y-138247510D01*
X182902490Y-138414517D01*
X183093567Y-138553343D01*
X183176933Y-138595820D01*
X183304003Y-138660566D01*
X183304005Y-138660566D01*
X183304008Y-138660568D01*
X183424412Y-138699689D01*
X183528631Y-138733553D01*
X183761903Y-138770500D01*
X183761908Y-138770500D01*
X183998097Y-138770500D01*
X184231368Y-138733553D01*
X184232870Y-138733065D01*
X184455992Y-138660568D01*
X184666433Y-138553343D01*
X184857510Y-138414517D01*
X185024517Y-138247510D01*
X185163343Y-138056433D01*
X185270568Y-137845992D01*
X185343553Y-137621368D01*
X185362524Y-137501591D01*
X185380500Y-137388097D01*
X185380500Y-137151902D01*
X185343553Y-136918631D01*
X185270566Y-136694003D01*
X185163477Y-136483830D01*
X185163343Y-136483567D01*
X185024517Y-136292490D01*
X184857510Y-136125483D01*
X184666433Y-135986657D01*
X184455996Y-135879433D01*
X184231368Y-135806446D01*
X183998097Y-135769500D01*
X183998092Y-135769500D01*
X183761908Y-135769500D01*
X183761903Y-135769500D01*
X183528631Y-135806446D01*
X183304003Y-135879433D01*
X183093566Y-135986657D01*
X183010047Y-136047338D01*
X182902490Y-136125483D01*
X182902488Y-136125485D01*
X182902487Y-136125485D01*
X182735485Y-136292487D01*
X182735485Y-136292488D01*
X182735483Y-136292490D01*
X182675862Y-136374550D01*
X182596657Y-136483566D01*
X182489433Y-136694003D01*
X182416446Y-136918631D01*
X182379500Y-137151902D01*
X181180500Y-137151902D01*
X181143553Y-136918631D01*
X181070566Y-136694003D01*
X180963477Y-136483830D01*
X180963343Y-136483567D01*
X180824517Y-136292490D01*
X180657510Y-136125483D01*
X180466433Y-135986657D01*
X180255996Y-135879433D01*
X180031368Y-135806446D01*
X179798097Y-135769500D01*
X179798092Y-135769500D01*
X179561908Y-135769500D01*
X179561903Y-135769500D01*
X179328631Y-135806446D01*
X179104003Y-135879433D01*
X178893566Y-135986657D01*
X178810047Y-136047338D01*
X178702490Y-136125483D01*
X178702488Y-136125485D01*
X178702487Y-136125485D01*
X178535485Y-136292487D01*
X178535485Y-136292488D01*
X178535483Y-136292490D01*
X178475862Y-136374550D01*
X178396657Y-136483566D01*
X178289433Y-136694003D01*
X178216446Y-136918631D01*
X178179500Y-137151902D01*
X176980500Y-137151902D01*
X176943553Y-136918631D01*
X176870566Y-136694003D01*
X176763477Y-136483830D01*
X176763343Y-136483567D01*
X176624517Y-136292490D01*
X176457510Y-136125483D01*
X176266433Y-135986657D01*
X176055996Y-135879433D01*
X175831368Y-135806446D01*
X175598097Y-135769500D01*
X175598092Y-135769500D01*
X175361908Y-135769500D01*
X175361903Y-135769500D01*
X175128631Y-135806446D01*
X174904003Y-135879433D01*
X174693566Y-135986657D01*
X174610047Y-136047338D01*
X174502490Y-136125483D01*
X174502488Y-136125485D01*
X174502487Y-136125485D01*
X174335485Y-136292487D01*
X174335485Y-136292488D01*
X174335483Y-136292490D01*
X174275862Y-136374550D01*
X174196657Y-136483566D01*
X174089433Y-136694003D01*
X174016446Y-136918631D01*
X173979500Y-137151902D01*
X172780500Y-137151902D01*
X172743553Y-136918631D01*
X172670566Y-136694003D01*
X172563477Y-136483830D01*
X172563343Y-136483567D01*
X172424517Y-136292490D01*
X172257510Y-136125483D01*
X172066433Y-135986657D01*
X171855996Y-135879433D01*
X171631368Y-135806446D01*
X171398097Y-135769500D01*
X171398092Y-135769500D01*
X171161908Y-135769500D01*
X171161903Y-135769500D01*
X170928631Y-135806446D01*
X170704003Y-135879433D01*
X170493566Y-135986657D01*
X170410047Y-136047338D01*
X170302490Y-136125483D01*
X170302488Y-136125485D01*
X170302487Y-136125485D01*
X170135485Y-136292487D01*
X170135485Y-136292488D01*
X170135483Y-136292490D01*
X170075862Y-136374550D01*
X169996657Y-136483566D01*
X169889433Y-136694003D01*
X169816446Y-136918631D01*
X169779500Y-137151902D01*
X168579993Y-137151902D01*
X168543065Y-136918752D01*
X168470102Y-136694197D01*
X168362914Y-136483828D01*
X168302658Y-136400894D01*
X168302658Y-136400893D01*
X167644612Y-137058940D01*
X167639111Y-137038409D01*
X167560119Y-136901592D01*
X167448408Y-136789881D01*
X167311591Y-136710889D01*
X167291059Y-136705387D01*
X167949105Y-136047340D01*
X167949104Y-136047338D01*
X167866174Y-135987087D01*
X167655802Y-135879897D01*
X167431247Y-135806934D01*
X167431248Y-135806934D01*
X167198052Y-135770000D01*
X166961948Y-135770000D01*
X166728752Y-135806934D01*
X166504197Y-135879897D01*
X166293830Y-135987084D01*
X166210894Y-136047340D01*
X166868941Y-136705387D01*
X166848409Y-136710889D01*
X166711592Y-136789881D01*
X166599881Y-136901592D01*
X166520889Y-137038409D01*
X166515387Y-137058941D01*
X165857340Y-136400894D01*
X165797084Y-136483830D01*
X165689897Y-136694197D01*
X165616934Y-136918752D01*
X165580000Y-137151947D01*
X164380500Y-137151947D01*
X164380500Y-137151902D01*
X164343553Y-136918631D01*
X164270566Y-136694003D01*
X164163477Y-136483830D01*
X164163343Y-136483567D01*
X164024517Y-136292490D01*
X163857510Y-136125483D01*
X163666433Y-135986657D01*
X163455996Y-135879433D01*
X163231368Y-135806446D01*
X162998097Y-135769500D01*
X162998092Y-135769500D01*
X162761908Y-135769500D01*
X162761903Y-135769500D01*
X162528631Y-135806446D01*
X162304003Y-135879433D01*
X162093566Y-135986657D01*
X162010047Y-136047338D01*
X161902490Y-136125483D01*
X161902488Y-136125485D01*
X161902487Y-136125485D01*
X161735485Y-136292487D01*
X161735485Y-136292488D01*
X161735483Y-136292490D01*
X161675862Y-136374550D01*
X161596657Y-136483566D01*
X161489433Y-136694003D01*
X161416446Y-136918631D01*
X161379500Y-137151902D01*
X130320500Y-137151902D01*
X130283553Y-136918631D01*
X130210566Y-136694003D01*
X130103477Y-136483830D01*
X130103343Y-136483567D01*
X129964517Y-136292490D01*
X129797510Y-136125483D01*
X129606433Y-135986657D01*
X129395996Y-135879433D01*
X129171368Y-135806446D01*
X128938097Y-135769500D01*
X128938092Y-135769500D01*
X128701908Y-135769500D01*
X128701903Y-135769500D01*
X128468631Y-135806446D01*
X128244003Y-135879433D01*
X128033566Y-135986657D01*
X127950047Y-136047338D01*
X127842490Y-136125483D01*
X127842488Y-136125485D01*
X127842487Y-136125485D01*
X127675485Y-136292487D01*
X127675485Y-136292488D01*
X127675483Y-136292490D01*
X127615862Y-136374550D01*
X127536657Y-136483566D01*
X127429433Y-136694003D01*
X127356446Y-136918631D01*
X127319500Y-137151902D01*
X126120500Y-137151902D01*
X126083553Y-136918631D01*
X126010566Y-136694003D01*
X125903477Y-136483830D01*
X125903343Y-136483567D01*
X125764517Y-136292490D01*
X125597510Y-136125483D01*
X125406433Y-135986657D01*
X125195996Y-135879433D01*
X124971368Y-135806446D01*
X124738097Y-135769500D01*
X124738092Y-135769500D01*
X124501908Y-135769500D01*
X124501903Y-135769500D01*
X124268631Y-135806446D01*
X124044003Y-135879433D01*
X123833566Y-135986657D01*
X123750047Y-136047338D01*
X123642490Y-136125483D01*
X123642488Y-136125485D01*
X123642487Y-136125485D01*
X123475485Y-136292487D01*
X123475485Y-136292488D01*
X123475483Y-136292490D01*
X123415862Y-136374550D01*
X123336657Y-136483566D01*
X123229433Y-136694003D01*
X123156446Y-136918631D01*
X123119500Y-137151902D01*
X121920500Y-137151902D01*
X121883553Y-136918631D01*
X121810566Y-136694003D01*
X121703477Y-136483830D01*
X121703343Y-136483567D01*
X121564517Y-136292490D01*
X121397510Y-136125483D01*
X121206433Y-135986657D01*
X120995996Y-135879433D01*
X120771368Y-135806446D01*
X120538097Y-135769500D01*
X120538092Y-135769500D01*
X120301908Y-135769500D01*
X120301903Y-135769500D01*
X120068631Y-135806446D01*
X119844003Y-135879433D01*
X119633566Y-135986657D01*
X119550047Y-136047338D01*
X119442490Y-136125483D01*
X119442488Y-136125485D01*
X119442487Y-136125485D01*
X119275485Y-136292487D01*
X119275485Y-136292488D01*
X119275483Y-136292490D01*
X119215862Y-136374550D01*
X119136657Y-136483566D01*
X119029433Y-136694003D01*
X118956446Y-136918631D01*
X118919500Y-137151902D01*
X117720500Y-137151902D01*
X117683553Y-136918631D01*
X117610566Y-136694003D01*
X117503477Y-136483830D01*
X117503343Y-136483567D01*
X117364517Y-136292490D01*
X117197510Y-136125483D01*
X117006433Y-135986657D01*
X116795996Y-135879433D01*
X116571368Y-135806446D01*
X116338097Y-135769500D01*
X116338092Y-135769500D01*
X116101908Y-135769500D01*
X116101903Y-135769500D01*
X115868631Y-135806446D01*
X115644003Y-135879433D01*
X115433566Y-135986657D01*
X115350047Y-136047338D01*
X115242490Y-136125483D01*
X115242488Y-136125485D01*
X115242487Y-136125485D01*
X115075485Y-136292487D01*
X115075485Y-136292488D01*
X115075483Y-136292490D01*
X115015862Y-136374550D01*
X114936657Y-136483566D01*
X114829433Y-136694003D01*
X114756446Y-136918631D01*
X114719500Y-137151902D01*
X113520500Y-137151902D01*
X113483553Y-136918631D01*
X113410566Y-136694003D01*
X113303477Y-136483830D01*
X113303343Y-136483567D01*
X113164517Y-136292490D01*
X112997510Y-136125483D01*
X112806433Y-135986657D01*
X112595996Y-135879433D01*
X112371368Y-135806446D01*
X112138097Y-135769500D01*
X112138092Y-135769500D01*
X111901908Y-135769500D01*
X111901903Y-135769500D01*
X111668631Y-135806446D01*
X111444003Y-135879433D01*
X111233566Y-135986657D01*
X111150047Y-136047338D01*
X111042490Y-136125483D01*
X111042488Y-136125485D01*
X111042487Y-136125485D01*
X110875485Y-136292487D01*
X110875485Y-136292488D01*
X110875483Y-136292490D01*
X110815862Y-136374550D01*
X110736657Y-136483566D01*
X110629433Y-136694003D01*
X110556446Y-136918631D01*
X110519500Y-137151902D01*
X109320500Y-137151902D01*
X109283553Y-136918631D01*
X109210566Y-136694003D01*
X109103477Y-136483830D01*
X109103343Y-136483567D01*
X108964517Y-136292490D01*
X108797510Y-136125483D01*
X108606433Y-135986657D01*
X108395996Y-135879433D01*
X108171368Y-135806446D01*
X107938097Y-135769500D01*
X107938092Y-135769500D01*
X107701908Y-135769500D01*
X107701903Y-135769500D01*
X107468631Y-135806446D01*
X107244003Y-135879433D01*
X107033566Y-135986657D01*
X106950047Y-136047338D01*
X106842490Y-136125483D01*
X106842488Y-136125485D01*
X106842487Y-136125485D01*
X106675485Y-136292487D01*
X106675485Y-136292488D01*
X106675483Y-136292490D01*
X106615862Y-136374550D01*
X106536657Y-136483566D01*
X106429433Y-136694003D01*
X106356446Y-136918631D01*
X106319500Y-137151902D01*
X105075500Y-137151902D01*
X105075500Y-132716228D01*
X110249500Y-132716228D01*
X110249500Y-132883771D01*
X110282182Y-133048074D01*
X110282184Y-133048082D01*
X110346295Y-133202860D01*
X110439373Y-133342162D01*
X110557837Y-133460626D01*
X110650494Y-133522537D01*
X110697137Y-133553703D01*
X110851918Y-133617816D01*
X111016228Y-133650499D01*
X111016232Y-133650500D01*
X111016233Y-133650500D01*
X111183768Y-133650500D01*
X111183769Y-133650499D01*
X111348082Y-133617816D01*
X111502863Y-133553703D01*
X111642162Y-133460626D01*
X111760626Y-133342162D01*
X111853125Y-133203728D01*
X121124500Y-133203728D01*
X121124500Y-133371271D01*
X121157182Y-133535574D01*
X121157184Y-133535582D01*
X121221295Y-133690360D01*
X121314373Y-133829662D01*
X121432837Y-133948126D01*
X121525494Y-134010037D01*
X121572137Y-134041203D01*
X121726918Y-134105316D01*
X121891228Y-134137999D01*
X121891232Y-134138000D01*
X121891233Y-134138000D01*
X122058768Y-134138000D01*
X122058769Y-134137999D01*
X122223082Y-134105316D01*
X122377863Y-134041203D01*
X122517162Y-133948126D01*
X122635626Y-133829662D01*
X122728703Y-133690363D01*
X122792816Y-133535582D01*
X122825500Y-133371267D01*
X122825500Y-133203733D01*
X122825326Y-133202860D01*
X122811696Y-133134332D01*
X122808095Y-133116228D01*
X130771774Y-133116228D01*
X130771774Y-133283771D01*
X130804456Y-133448074D01*
X130804458Y-133448082D01*
X130868569Y-133602860D01*
X130961647Y-133742162D01*
X131080111Y-133860626D01*
X131172768Y-133922537D01*
X131219411Y-133953703D01*
X131374192Y-134017816D01*
X131538502Y-134050499D01*
X131538506Y-134050500D01*
X131538507Y-134050500D01*
X131706042Y-134050500D01*
X131706043Y-134050499D01*
X131870356Y-134017816D01*
X132025137Y-133953703D01*
X132164436Y-133860626D01*
X132282900Y-133742162D01*
X132375977Y-133602863D01*
X132440090Y-133448082D01*
X132472774Y-133283767D01*
X132472774Y-133116233D01*
X132440090Y-132951918D01*
X132375977Y-132797137D01*
X132341365Y-132745337D01*
X132282900Y-132657837D01*
X132164436Y-132539373D01*
X132025134Y-132446295D01*
X131870356Y-132382184D01*
X131870348Y-132382182D01*
X131706045Y-132349500D01*
X131706041Y-132349500D01*
X131538507Y-132349500D01*
X131538502Y-132349500D01*
X131374199Y-132382182D01*
X131374191Y-132382184D01*
X131219413Y-132446295D01*
X131080111Y-132539373D01*
X130961647Y-132657837D01*
X130868569Y-132797139D01*
X130804458Y-132951917D01*
X130804456Y-132951925D01*
X130771774Y-133116228D01*
X122808095Y-133116228D01*
X122794539Y-133048082D01*
X122792816Y-133039418D01*
X122728703Y-132884637D01*
X122697537Y-132837994D01*
X122635626Y-132745337D01*
X122517162Y-132626873D01*
X122377860Y-132533795D01*
X122223082Y-132469684D01*
X122223074Y-132469682D01*
X122058771Y-132437000D01*
X122058767Y-132437000D01*
X121891233Y-132437000D01*
X121891228Y-132437000D01*
X121726925Y-132469682D01*
X121726917Y-132469684D01*
X121572139Y-132533795D01*
X121432837Y-132626873D01*
X121314373Y-132745337D01*
X121221295Y-132884639D01*
X121157184Y-133039417D01*
X121157182Y-133039425D01*
X121124500Y-133203728D01*
X111853125Y-133203728D01*
X111853703Y-133202863D01*
X111917816Y-133048082D01*
X111950500Y-132883767D01*
X111950500Y-132716233D01*
X111917816Y-132551918D01*
X111853703Y-132397137D01*
X111821873Y-132349500D01*
X111760626Y-132257837D01*
X111642162Y-132139373D01*
X111502860Y-132046295D01*
X111348082Y-131982184D01*
X111348074Y-131982182D01*
X111183771Y-131949500D01*
X111183767Y-131949500D01*
X111016233Y-131949500D01*
X111016228Y-131949500D01*
X110851925Y-131982182D01*
X110851917Y-131982184D01*
X110697139Y-132046295D01*
X110557837Y-132139373D01*
X110439373Y-132257837D01*
X110346295Y-132397139D01*
X110282184Y-132551917D01*
X110282182Y-132551925D01*
X110249500Y-132716228D01*
X105075500Y-132716228D01*
X105075500Y-129916228D01*
X115699500Y-129916228D01*
X115699500Y-130083771D01*
X115732182Y-130248074D01*
X115732184Y-130248082D01*
X115796295Y-130402860D01*
X115889373Y-130542162D01*
X116007837Y-130660626D01*
X116052342Y-130690363D01*
X116147137Y-130753703D01*
X116301918Y-130817816D01*
X116464619Y-130850179D01*
X116466228Y-130850499D01*
X116466232Y-130850500D01*
X116466233Y-130850500D01*
X116633768Y-130850500D01*
X116633769Y-130850499D01*
X116798082Y-130817816D01*
X116952863Y-130753703D01*
X117092162Y-130660626D01*
X117210626Y-130542162D01*
X117303703Y-130402863D01*
X117367816Y-130248082D01*
X117372134Y-130226370D01*
X117376638Y-130203728D01*
X125724500Y-130203728D01*
X125724500Y-130371271D01*
X125757182Y-130535574D01*
X125757184Y-130535582D01*
X125821295Y-130690360D01*
X125914373Y-130829662D01*
X126032837Y-130948126D01*
X126121500Y-131007368D01*
X126172137Y-131041203D01*
X126326918Y-131105316D01*
X126491228Y-131137999D01*
X126491232Y-131138000D01*
X126491233Y-131138000D01*
X126658768Y-131138000D01*
X126658769Y-131137999D01*
X126823082Y-131105316D01*
X126977863Y-131041203D01*
X127117162Y-130948126D01*
X127235626Y-130829662D01*
X127328703Y-130690363D01*
X127392816Y-130535582D01*
X127425500Y-130371267D01*
X127425500Y-130203733D01*
X127392816Y-130039418D01*
X127328703Y-129884637D01*
X127254862Y-129774126D01*
X127235626Y-129745337D01*
X127117162Y-129626873D01*
X126977860Y-129533795D01*
X126823082Y-129469684D01*
X126823074Y-129469682D01*
X126658771Y-129437000D01*
X126658767Y-129437000D01*
X126491233Y-129437000D01*
X126491228Y-129437000D01*
X126326925Y-129469682D01*
X126326917Y-129469684D01*
X126172139Y-129533795D01*
X126032837Y-129626873D01*
X125914373Y-129745337D01*
X125821295Y-129884639D01*
X125757184Y-130039417D01*
X125757182Y-130039425D01*
X125724500Y-130203728D01*
X117376638Y-130203728D01*
X117382656Y-130173478D01*
X117382661Y-130173450D01*
X117396121Y-130105781D01*
X117400500Y-130083767D01*
X117400500Y-129916233D01*
X117367816Y-129751918D01*
X117303703Y-129597137D01*
X117272537Y-129550494D01*
X117210626Y-129457837D01*
X117092162Y-129339373D01*
X116952860Y-129246295D01*
X116798082Y-129182184D01*
X116798074Y-129182182D01*
X116633771Y-129149500D01*
X116633767Y-129149500D01*
X116466233Y-129149500D01*
X116466228Y-129149500D01*
X116301925Y-129182182D01*
X116301917Y-129182184D01*
X116147139Y-129246295D01*
X116007837Y-129339373D01*
X115889373Y-129457837D01*
X115796295Y-129597139D01*
X115732184Y-129751917D01*
X115732182Y-129751925D01*
X115699500Y-129916228D01*
X105075500Y-129916228D01*
X105075500Y-129029728D01*
X131649500Y-129029728D01*
X131649500Y-129197271D01*
X131682182Y-129361574D01*
X131682184Y-129361582D01*
X131746295Y-129516360D01*
X131839373Y-129655662D01*
X131957837Y-129774126D01*
X132050494Y-129836037D01*
X132097137Y-129867203D01*
X132251918Y-129931316D01*
X132412950Y-129963347D01*
X132416228Y-129963999D01*
X132416232Y-129964000D01*
X132416233Y-129964000D01*
X132583768Y-129964000D01*
X132583769Y-129963999D01*
X132748082Y-129931316D01*
X132902863Y-129867203D01*
X133042162Y-129774126D01*
X133160626Y-129655662D01*
X133253703Y-129516363D01*
X133317816Y-129361582D01*
X133350500Y-129197267D01*
X133350500Y-129029733D01*
X133350499Y-129029728D01*
X134899500Y-129029728D01*
X134899500Y-129197271D01*
X134932182Y-129361574D01*
X134932184Y-129361582D01*
X134996295Y-129516360D01*
X135089373Y-129655662D01*
X135207837Y-129774126D01*
X135300494Y-129836037D01*
X135347137Y-129867203D01*
X135501918Y-129931316D01*
X135662950Y-129963347D01*
X135666228Y-129963999D01*
X135666232Y-129964000D01*
X135685865Y-129964000D01*
X135752904Y-129983685D01*
X135798659Y-130036489D01*
X135809268Y-130100157D01*
X135808713Y-130105790D01*
X135808713Y-130273324D01*
X135841395Y-130437627D01*
X135841397Y-130437635D01*
X135905508Y-130592413D01*
X135998586Y-130731715D01*
X136117050Y-130850179D01*
X136209707Y-130912090D01*
X136256350Y-130943256D01*
X136411131Y-131007369D01*
X136575441Y-131040052D01*
X136575445Y-131040053D01*
X136575446Y-131040053D01*
X136742981Y-131040053D01*
X136742982Y-131040052D01*
X136907295Y-131007369D01*
X137062076Y-130943256D01*
X137201375Y-130850179D01*
X137319839Y-130731715D01*
X137412916Y-130592416D01*
X137477029Y-130437635D01*
X137509713Y-130273320D01*
X137509713Y-130105786D01*
X137477029Y-129941471D01*
X137412916Y-129786690D01*
X137325366Y-129655662D01*
X137319839Y-129647390D01*
X137201375Y-129528926D01*
X137062073Y-129435848D01*
X136907295Y-129371737D01*
X136907287Y-129371735D01*
X136742984Y-129339053D01*
X136742980Y-129339053D01*
X136723348Y-129339053D01*
X136656309Y-129319368D01*
X136610554Y-129266564D01*
X136599945Y-129202896D01*
X136600499Y-129197271D01*
X136600500Y-129197267D01*
X136600500Y-129029733D01*
X136567816Y-128865418D01*
X136503703Y-128710637D01*
X136472537Y-128663994D01*
X136410626Y-128571337D01*
X136292162Y-128452873D01*
X136152860Y-128359795D01*
X135998082Y-128295684D01*
X135998074Y-128295682D01*
X135833771Y-128263000D01*
X135833767Y-128263000D01*
X135666233Y-128263000D01*
X135666228Y-128263000D01*
X135501925Y-128295682D01*
X135501917Y-128295684D01*
X135347139Y-128359795D01*
X135207837Y-128452873D01*
X135089373Y-128571337D01*
X134996295Y-128710639D01*
X134932184Y-128865417D01*
X134932182Y-128865425D01*
X134899500Y-129029728D01*
X133350499Y-129029728D01*
X133317816Y-128865418D01*
X133253703Y-128710637D01*
X133222537Y-128663994D01*
X133160626Y-128571337D01*
X133042162Y-128452873D01*
X132902860Y-128359795D01*
X132748082Y-128295684D01*
X132748074Y-128295682D01*
X132583771Y-128263000D01*
X132583767Y-128263000D01*
X132416233Y-128263000D01*
X132416228Y-128263000D01*
X132251925Y-128295682D01*
X132251917Y-128295684D01*
X132097139Y-128359795D01*
X131957837Y-128452873D01*
X131839373Y-128571337D01*
X131746295Y-128710639D01*
X131682184Y-128865417D01*
X131682182Y-128865425D01*
X131649500Y-129029728D01*
X105075500Y-129029728D01*
X105075500Y-123828728D01*
X111224500Y-123828728D01*
X111224500Y-123996271D01*
X111257182Y-124160574D01*
X111257184Y-124160582D01*
X111321295Y-124315360D01*
X111414373Y-124454662D01*
X111532837Y-124573126D01*
X111625494Y-124635037D01*
X111672137Y-124666203D01*
X111826918Y-124730316D01*
X111991228Y-124762999D01*
X111991232Y-124763000D01*
X111991233Y-124763000D01*
X112158768Y-124763000D01*
X112158769Y-124762999D01*
X112323082Y-124730316D01*
X112477863Y-124666203D01*
X112617162Y-124573126D01*
X112735626Y-124454662D01*
X112828703Y-124315363D01*
X112892816Y-124160582D01*
X112925500Y-123996267D01*
X112925500Y-123828733D01*
X112892816Y-123664418D01*
X112828703Y-123509637D01*
X112797537Y-123462994D01*
X112735626Y-123370337D01*
X112617162Y-123251873D01*
X112477860Y-123158795D01*
X112323082Y-123094684D01*
X112323074Y-123094682D01*
X112158771Y-123062000D01*
X112158767Y-123062000D01*
X111991233Y-123062000D01*
X111991228Y-123062000D01*
X111826925Y-123094682D01*
X111826917Y-123094684D01*
X111672139Y-123158795D01*
X111532837Y-123251873D01*
X111414373Y-123370337D01*
X111321295Y-123509639D01*
X111257184Y-123664417D01*
X111257182Y-123664425D01*
X111224500Y-123828728D01*
X105075500Y-123828728D01*
X105075500Y-122216228D01*
X121249500Y-122216228D01*
X121249500Y-122383771D01*
X121282182Y-122548074D01*
X121282184Y-122548082D01*
X121346295Y-122702860D01*
X121439373Y-122842162D01*
X121557837Y-122960626D01*
X121650494Y-123022537D01*
X121697137Y-123053703D01*
X121697138Y-123053703D01*
X121697139Y-123053704D01*
X121732201Y-123068227D01*
X121851918Y-123117816D01*
X122016228Y-123150499D01*
X122016232Y-123150500D01*
X122016233Y-123150500D01*
X122183768Y-123150500D01*
X122183769Y-123150499D01*
X122348082Y-123117816D01*
X122502863Y-123053703D01*
X122642162Y-122960626D01*
X122760626Y-122842162D01*
X122853703Y-122702863D01*
X122917816Y-122548082D01*
X122950500Y-122383767D01*
X122950500Y-122216233D01*
X122917816Y-122051918D01*
X122853703Y-121897137D01*
X122809055Y-121830317D01*
X122760626Y-121757837D01*
X122642162Y-121639373D01*
X122502860Y-121546295D01*
X122348082Y-121482184D01*
X122348074Y-121482182D01*
X122183771Y-121449500D01*
X122183767Y-121449500D01*
X122016233Y-121449500D01*
X122016228Y-121449500D01*
X121851925Y-121482182D01*
X121851917Y-121482184D01*
X121697139Y-121546295D01*
X121557837Y-121639373D01*
X121439373Y-121757837D01*
X121346295Y-121897139D01*
X121282184Y-122051917D01*
X121282182Y-122051925D01*
X121249500Y-122216228D01*
X105075500Y-122216228D01*
X105075500Y-120928728D01*
X115824500Y-120928728D01*
X115824500Y-121096271D01*
X115857182Y-121260574D01*
X115857184Y-121260582D01*
X115921295Y-121415360D01*
X116014373Y-121554662D01*
X116132837Y-121673126D01*
X116225494Y-121735037D01*
X116272137Y-121766203D01*
X116426918Y-121830316D01*
X116591228Y-121862999D01*
X116591232Y-121863000D01*
X116591233Y-121863000D01*
X116758768Y-121863000D01*
X116758769Y-121862999D01*
X116923082Y-121830316D01*
X117077863Y-121766203D01*
X117217162Y-121673126D01*
X117335626Y-121554662D01*
X117428703Y-121415363D01*
X117492816Y-121260582D01*
X117525500Y-121096267D01*
X117525500Y-120928733D01*
X117492816Y-120764418D01*
X117428703Y-120609637D01*
X117397537Y-120562994D01*
X117335626Y-120470337D01*
X117217162Y-120351873D01*
X117077860Y-120258795D01*
X116923082Y-120194684D01*
X116923074Y-120194682D01*
X116758771Y-120162000D01*
X116758767Y-120162000D01*
X116591233Y-120162000D01*
X116591228Y-120162000D01*
X116426925Y-120194682D01*
X116426917Y-120194684D01*
X116272139Y-120258795D01*
X116132837Y-120351873D01*
X116014373Y-120470337D01*
X115921295Y-120609639D01*
X115857184Y-120764417D01*
X115857182Y-120764425D01*
X115824500Y-120928728D01*
X105075500Y-120928728D01*
X105075500Y-113816228D01*
X129749500Y-113816228D01*
X129749500Y-113983771D01*
X129782182Y-114148074D01*
X129782184Y-114148082D01*
X129846295Y-114302860D01*
X129939373Y-114442162D01*
X130057837Y-114560626D01*
X130150494Y-114622537D01*
X130197137Y-114653703D01*
X130351918Y-114717816D01*
X130516228Y-114750499D01*
X130516232Y-114750500D01*
X130516233Y-114750500D01*
X130683768Y-114750500D01*
X130683769Y-114750499D01*
X130848082Y-114717816D01*
X131002863Y-114653703D01*
X131142162Y-114560626D01*
X131260626Y-114442162D01*
X131353703Y-114302863D01*
X131417816Y-114148082D01*
X131450500Y-113983767D01*
X131450500Y-113816233D01*
X131450499Y-113816228D01*
X157749500Y-113816228D01*
X157749500Y-113983771D01*
X157782182Y-114148074D01*
X157782184Y-114148082D01*
X157846295Y-114302860D01*
X157939373Y-114442162D01*
X158057837Y-114560626D01*
X158150494Y-114622537D01*
X158197137Y-114653703D01*
X158351918Y-114717816D01*
X158516228Y-114750499D01*
X158516232Y-114750500D01*
X158516233Y-114750500D01*
X158683768Y-114750500D01*
X158683769Y-114750499D01*
X158848082Y-114717816D01*
X159002863Y-114653703D01*
X159142162Y-114560626D01*
X159260626Y-114442162D01*
X159353703Y-114302863D01*
X159417816Y-114148082D01*
X159450500Y-113983767D01*
X159450500Y-113816233D01*
X159417816Y-113651918D01*
X159353703Y-113497137D01*
X159322537Y-113450494D01*
X159260626Y-113357837D01*
X159142162Y-113239373D01*
X159002860Y-113146295D01*
X158848082Y-113082184D01*
X158848074Y-113082182D01*
X158683771Y-113049500D01*
X158683767Y-113049500D01*
X158516233Y-113049500D01*
X158516228Y-113049500D01*
X158351925Y-113082182D01*
X158351917Y-113082184D01*
X158197139Y-113146295D01*
X158057837Y-113239373D01*
X157939373Y-113357837D01*
X157846295Y-113497139D01*
X157782184Y-113651917D01*
X157782182Y-113651925D01*
X157749500Y-113816228D01*
X131450499Y-113816228D01*
X131417816Y-113651918D01*
X131353703Y-113497137D01*
X131322537Y-113450494D01*
X131260626Y-113357837D01*
X131142162Y-113239373D01*
X131002860Y-113146295D01*
X130848082Y-113082184D01*
X130848074Y-113082182D01*
X130683771Y-113049500D01*
X130683767Y-113049500D01*
X130516233Y-113049500D01*
X130516228Y-113049500D01*
X130351925Y-113082182D01*
X130351917Y-113082184D01*
X130197139Y-113146295D01*
X130057837Y-113239373D01*
X129939373Y-113357837D01*
X129846295Y-113497139D01*
X129782184Y-113651917D01*
X129782182Y-113651925D01*
X129749500Y-113816228D01*
X105075500Y-113816228D01*
X105075500Y-103516228D01*
X137949500Y-103516228D01*
X137949500Y-103683771D01*
X137982182Y-103848074D01*
X137982184Y-103848082D01*
X138046295Y-104002860D01*
X138139373Y-104142162D01*
X138257837Y-104260626D01*
X138350494Y-104322537D01*
X138397137Y-104353703D01*
X138551918Y-104417816D01*
X138716228Y-104450499D01*
X138716232Y-104450500D01*
X138716233Y-104450500D01*
X138883768Y-104450500D01*
X138883769Y-104450499D01*
X139048082Y-104417816D01*
X139202863Y-104353703D01*
X139342162Y-104260626D01*
X139460626Y-104142162D01*
X139553703Y-104002863D01*
X139617816Y-103848082D01*
X139650500Y-103683767D01*
X139650500Y-103516233D01*
X139617816Y-103351918D01*
X139553703Y-103197137D01*
X139522537Y-103150494D01*
X139460626Y-103057837D01*
X139342162Y-102939373D01*
X139202860Y-102846295D01*
X139048082Y-102782184D01*
X139048074Y-102782182D01*
X138883771Y-102749500D01*
X138883767Y-102749500D01*
X138716233Y-102749500D01*
X138716228Y-102749500D01*
X138551925Y-102782182D01*
X138551917Y-102782184D01*
X138397139Y-102846295D01*
X138257837Y-102939373D01*
X138139373Y-103057837D01*
X138046295Y-103197139D01*
X137982184Y-103351917D01*
X137982182Y-103351925D01*
X137949500Y-103516228D01*
X105075500Y-103516228D01*
X105075500Y-101416228D01*
X138949500Y-101416228D01*
X138949500Y-101583771D01*
X138982182Y-101748074D01*
X138982184Y-101748082D01*
X139046295Y-101902860D01*
X139139373Y-102042162D01*
X139257837Y-102160626D01*
X139350494Y-102222537D01*
X139397137Y-102253703D01*
X139551918Y-102317816D01*
X139716228Y-102350499D01*
X139716232Y-102350500D01*
X139716233Y-102350500D01*
X139883768Y-102350500D01*
X139883769Y-102350499D01*
X140048082Y-102317816D01*
X140202863Y-102253703D01*
X140342162Y-102160626D01*
X140460626Y-102042162D01*
X140553703Y-101902863D01*
X140617816Y-101748082D01*
X140650500Y-101583767D01*
X140650500Y-101416233D01*
X140625112Y-101288596D01*
X140631339Y-101219005D01*
X140674202Y-101163827D01*
X140722533Y-101142788D01*
X140848082Y-101117816D01*
X141002863Y-101053703D01*
X141142162Y-100960626D01*
X141260626Y-100842162D01*
X141353703Y-100702863D01*
X141417816Y-100548082D01*
X141450500Y-100383767D01*
X141450500Y-100216233D01*
X141417816Y-100051918D01*
X141353703Y-99897137D01*
X141322537Y-99850494D01*
X141260626Y-99757837D01*
X141142162Y-99639373D01*
X141002860Y-99546295D01*
X140848082Y-99482184D01*
X140848074Y-99482182D01*
X140683771Y-99449500D01*
X140683767Y-99449500D01*
X140516233Y-99449500D01*
X140516228Y-99449500D01*
X140351925Y-99482182D01*
X140351917Y-99482184D01*
X140197139Y-99546295D01*
X140057837Y-99639373D01*
X139939373Y-99757837D01*
X139846295Y-99897139D01*
X139782184Y-100051917D01*
X139782182Y-100051925D01*
X139749500Y-100216228D01*
X139749500Y-100216232D01*
X139749500Y-100216233D01*
X139749500Y-100383767D01*
X139749501Y-100383771D01*
X139774888Y-100511404D01*
X139768660Y-100580995D01*
X139725796Y-100636172D01*
X139677462Y-100657211D01*
X139551923Y-100682182D01*
X139551917Y-100682184D01*
X139397139Y-100746295D01*
X139257837Y-100839373D01*
X139139373Y-100957837D01*
X139046295Y-101097139D01*
X138982184Y-101251917D01*
X138982182Y-101251925D01*
X138949500Y-101416228D01*
X105075500Y-101416228D01*
X105075500Y-95616228D01*
X132649500Y-95616228D01*
X132649500Y-95783771D01*
X132682182Y-95948074D01*
X132682184Y-95948082D01*
X132746295Y-96102860D01*
X132839373Y-96242162D01*
X132957837Y-96360626D01*
X133043430Y-96417817D01*
X133097137Y-96453703D01*
X133097138Y-96453703D01*
X133097139Y-96453704D01*
X133104959Y-96456943D01*
X133251918Y-96517816D01*
X133416228Y-96550499D01*
X133416232Y-96550500D01*
X133416233Y-96550500D01*
X133583768Y-96550500D01*
X133583769Y-96550499D01*
X133748082Y-96517816D01*
X133902863Y-96453703D01*
X134042162Y-96360626D01*
X134160626Y-96242162D01*
X134253703Y-96102863D01*
X134317816Y-95948082D01*
X134350500Y-95783767D01*
X134350500Y-95616233D01*
X134317816Y-95451918D01*
X134253703Y-95297137D01*
X134222537Y-95250494D01*
X134160626Y-95157837D01*
X134054571Y-95051782D01*
X147674500Y-95051782D01*
X147674500Y-95219325D01*
X147707182Y-95383628D01*
X147707184Y-95383636D01*
X147771295Y-95538414D01*
X147864373Y-95677716D01*
X147982837Y-95796180D01*
X148060547Y-95848104D01*
X148122137Y-95889257D01*
X148276918Y-95953370D01*
X148438232Y-95985457D01*
X148441228Y-95986053D01*
X148441232Y-95986054D01*
X148441233Y-95986054D01*
X148608768Y-95986054D01*
X148614830Y-95985457D01*
X148614970Y-95986882D01*
X148677408Y-95992464D01*
X148732589Y-96035322D01*
X148755840Y-96101210D01*
X148739778Y-96169208D01*
X148735120Y-96176748D01*
X148651323Y-96302159D01*
X148651321Y-96302163D01*
X148587209Y-96456942D01*
X148587207Y-96456950D01*
X148554525Y-96621253D01*
X148554525Y-96788796D01*
X148587207Y-96953099D01*
X148587209Y-96953107D01*
X148651320Y-97107885D01*
X148744398Y-97247187D01*
X148862862Y-97365651D01*
X148955519Y-97427562D01*
X149002162Y-97458728D01*
X149156943Y-97522841D01*
X149321253Y-97555524D01*
X149321257Y-97555525D01*
X149321258Y-97555525D01*
X149488793Y-97555525D01*
X149488794Y-97555524D01*
X149653107Y-97522841D01*
X149807888Y-97458728D01*
X149947187Y-97365651D01*
X150065651Y-97247187D01*
X150158728Y-97107888D01*
X150222841Y-96953107D01*
X150255525Y-96788792D01*
X150255525Y-96621258D01*
X150254524Y-96616228D01*
X155049500Y-96616228D01*
X155049500Y-96783771D01*
X155082182Y-96948074D01*
X155082184Y-96948082D01*
X155146295Y-97102860D01*
X155239373Y-97242162D01*
X155357837Y-97360626D01*
X155450494Y-97422537D01*
X155497137Y-97453703D01*
X155497138Y-97453703D01*
X155497139Y-97453704D01*
X155532201Y-97468227D01*
X155651918Y-97517816D01*
X155816228Y-97550499D01*
X155816232Y-97550500D01*
X155816233Y-97550500D01*
X155983768Y-97550500D01*
X155983769Y-97550499D01*
X156148082Y-97517816D01*
X156302863Y-97453703D01*
X156442162Y-97360626D01*
X156560626Y-97242162D01*
X156653703Y-97102863D01*
X156717816Y-96948082D01*
X156750500Y-96783767D01*
X156750500Y-96616233D01*
X156725683Y-96491467D01*
X156731910Y-96421876D01*
X156774773Y-96366698D01*
X156840663Y-96343454D01*
X156894753Y-96352715D01*
X156897135Y-96353701D01*
X156897137Y-96353703D01*
X157051918Y-96417816D01*
X157216228Y-96450499D01*
X157216232Y-96450500D01*
X157216233Y-96450500D01*
X157383768Y-96450500D01*
X157383769Y-96450499D01*
X157548082Y-96417816D01*
X157702863Y-96353703D01*
X157842162Y-96260626D01*
X157960626Y-96142162D01*
X158053703Y-96002863D01*
X158117816Y-95848082D01*
X158150500Y-95683767D01*
X158150500Y-95516233D01*
X158117816Y-95351918D01*
X158053703Y-95197137D01*
X157974569Y-95078705D01*
X157960626Y-95057837D01*
X157842162Y-94939373D01*
X157702860Y-94846295D01*
X157548082Y-94782184D01*
X157548074Y-94782182D01*
X157383771Y-94749500D01*
X157383767Y-94749500D01*
X157216233Y-94749500D01*
X157216228Y-94749500D01*
X157051925Y-94782182D01*
X157051917Y-94782184D01*
X156897139Y-94846295D01*
X156757837Y-94939373D01*
X156639373Y-95057837D01*
X156546295Y-95197139D01*
X156482184Y-95351917D01*
X156482182Y-95351925D01*
X156449500Y-95516228D01*
X156449500Y-95516232D01*
X156449500Y-95516233D01*
X156449500Y-95683767D01*
X156449501Y-95683771D01*
X156474317Y-95808533D01*
X156468089Y-95878124D01*
X156425225Y-95933301D01*
X156359335Y-95956545D01*
X156305246Y-95947284D01*
X156148082Y-95882184D01*
X156148074Y-95882182D01*
X155983771Y-95849500D01*
X155983767Y-95849500D01*
X155816233Y-95849500D01*
X155816228Y-95849500D01*
X155651925Y-95882182D01*
X155651917Y-95882184D01*
X155497139Y-95946295D01*
X155357837Y-96039373D01*
X155239373Y-96157837D01*
X155146295Y-96297139D01*
X155082184Y-96451917D01*
X155082182Y-96451925D01*
X155049500Y-96616228D01*
X150254524Y-96616228D01*
X150222841Y-96456943D01*
X150158728Y-96302162D01*
X150069891Y-96169208D01*
X150065651Y-96162862D01*
X149947187Y-96044398D01*
X149807885Y-95951320D01*
X149653107Y-95887209D01*
X149653099Y-95887207D01*
X149488796Y-95854525D01*
X149488792Y-95854525D01*
X149321258Y-95854525D01*
X149321257Y-95854525D01*
X149315195Y-95855122D01*
X149315055Y-95853702D01*
X149252590Y-95848104D01*
X149197418Y-95805233D01*
X149174183Y-95739340D01*
X149190260Y-95671345D01*
X149194891Y-95663849D01*
X149278703Y-95538417D01*
X149342816Y-95383636D01*
X149375500Y-95219321D01*
X149375500Y-95051787D01*
X149342816Y-94887472D01*
X149278703Y-94732691D01*
X149247537Y-94686048D01*
X149185626Y-94593391D01*
X149067162Y-94474927D01*
X148927860Y-94381849D01*
X148850252Y-94349703D01*
X148773082Y-94317738D01*
X148773074Y-94317736D01*
X148608771Y-94285054D01*
X148608767Y-94285054D01*
X148441233Y-94285054D01*
X148441228Y-94285054D01*
X148276925Y-94317736D01*
X148276917Y-94317738D01*
X148122139Y-94381849D01*
X147982837Y-94474927D01*
X147864373Y-94593391D01*
X147771295Y-94732693D01*
X147707184Y-94887471D01*
X147707182Y-94887479D01*
X147674500Y-95051782D01*
X134054571Y-95051782D01*
X134042162Y-95039373D01*
X133902860Y-94946295D01*
X133748082Y-94882184D01*
X133748074Y-94882182D01*
X133583771Y-94849500D01*
X133583767Y-94849500D01*
X133416233Y-94849500D01*
X133416228Y-94849500D01*
X133251925Y-94882182D01*
X133251917Y-94882184D01*
X133097139Y-94946295D01*
X132957837Y-95039373D01*
X132839373Y-95157837D01*
X132746295Y-95297139D01*
X132682184Y-95451917D01*
X132682182Y-95451925D01*
X132649500Y-95616228D01*
X105075500Y-95616228D01*
X105075500Y-93316228D01*
X135899500Y-93316228D01*
X135899500Y-93483771D01*
X135932182Y-93648074D01*
X135932184Y-93648082D01*
X135996295Y-93802860D01*
X136089373Y-93942162D01*
X136207837Y-94060626D01*
X136300494Y-94122537D01*
X136347137Y-94153703D01*
X136501918Y-94217816D01*
X136666228Y-94250499D01*
X136666232Y-94250500D01*
X136666233Y-94250500D01*
X136833768Y-94250500D01*
X136833769Y-94250499D01*
X136880374Y-94241229D01*
X153084551Y-94241229D01*
X153084551Y-94408772D01*
X153117233Y-94573075D01*
X153117235Y-94573083D01*
X153181346Y-94727861D01*
X153274424Y-94867163D01*
X153392888Y-94985627D01*
X153473325Y-95039373D01*
X153532188Y-95078704D01*
X153686969Y-95142817D01*
X153851279Y-95175500D01*
X153851283Y-95175501D01*
X153851284Y-95175501D01*
X154018819Y-95175501D01*
X154018820Y-95175500D01*
X154183133Y-95142817D01*
X154337914Y-95078704D01*
X154477213Y-94985627D01*
X154595677Y-94867163D01*
X154688754Y-94727864D01*
X154752867Y-94573083D01*
X154785551Y-94408768D01*
X154785551Y-94241234D01*
X154752867Y-94076919D01*
X154688754Y-93922138D01*
X154609055Y-93802860D01*
X154595677Y-93782838D01*
X154477213Y-93664374D01*
X154337911Y-93571296D01*
X154183133Y-93507185D01*
X154183125Y-93507183D01*
X154018822Y-93474501D01*
X154018818Y-93474501D01*
X153851284Y-93474501D01*
X153851279Y-93474501D01*
X153686976Y-93507183D01*
X153686968Y-93507185D01*
X153532190Y-93571296D01*
X153392888Y-93664374D01*
X153274424Y-93782838D01*
X153181346Y-93922140D01*
X153117235Y-94076918D01*
X153117233Y-94076926D01*
X153084551Y-94241229D01*
X136880374Y-94241229D01*
X136998082Y-94217816D01*
X137152863Y-94153703D01*
X137292162Y-94060626D01*
X137410626Y-93942162D01*
X137503703Y-93802863D01*
X137567816Y-93648082D01*
X137600500Y-93483767D01*
X137600500Y-93316233D01*
X137567816Y-93151918D01*
X137503703Y-92997137D01*
X137472537Y-92950494D01*
X137410626Y-92857837D01*
X137292162Y-92739373D01*
X137152860Y-92646295D01*
X136998082Y-92582184D01*
X136998074Y-92582182D01*
X136833771Y-92549500D01*
X136833767Y-92549500D01*
X136666233Y-92549500D01*
X136666228Y-92549500D01*
X136501925Y-92582182D01*
X136501917Y-92582184D01*
X136347139Y-92646295D01*
X136207837Y-92739373D01*
X136089373Y-92857837D01*
X135996295Y-92997139D01*
X135932184Y-93151917D01*
X135932182Y-93151925D01*
X135899500Y-93316228D01*
X105075500Y-93316228D01*
X105075500Y-86116228D01*
X144349500Y-86116228D01*
X144349500Y-86283771D01*
X144382182Y-86448074D01*
X144382184Y-86448082D01*
X144446295Y-86602860D01*
X144539373Y-86742162D01*
X144657837Y-86860626D01*
X144750494Y-86922537D01*
X144797137Y-86953703D01*
X144951918Y-87017816D01*
X145116228Y-87050499D01*
X145116232Y-87050500D01*
X145116233Y-87050500D01*
X145283768Y-87050500D01*
X145283769Y-87050499D01*
X145448082Y-87017816D01*
X145602863Y-86953703D01*
X145742162Y-86860626D01*
X145780828Y-86821960D01*
X145842150Y-86788474D01*
X145911842Y-86793458D01*
X145967776Y-86835328D01*
X145971612Y-86840750D01*
X146039370Y-86942157D01*
X146039376Y-86942165D01*
X146157837Y-87060626D01*
X146250494Y-87122537D01*
X146297137Y-87153703D01*
X146451918Y-87217816D01*
X146510599Y-87229488D01*
X146587514Y-87244788D01*
X146594778Y-87248588D01*
X146602972Y-87248915D01*
X146625286Y-87264546D01*
X146649425Y-87277173D01*
X146654957Y-87285330D01*
X146660198Y-87289002D01*
X146669722Y-87307103D01*
X146678081Y-87319430D01*
X146681558Y-87327925D01*
X146682184Y-87331070D01*
X146738410Y-87466810D01*
X146738520Y-87467079D01*
X146742084Y-87501590D01*
X146745792Y-87536071D01*
X146745671Y-87536311D01*
X146745699Y-87536579D01*
X146730076Y-87567466D01*
X146714517Y-87598550D01*
X146714285Y-87598687D01*
X146714164Y-87598927D01*
X146684285Y-87616486D01*
X146654428Y-87634202D01*
X146653963Y-87634307D01*
X146653927Y-87634329D01*
X146653877Y-87634327D01*
X146647953Y-87635671D01*
X146494623Y-87666170D01*
X146494615Y-87666172D01*
X146339837Y-87730283D01*
X146200535Y-87823361D01*
X146200532Y-87823364D01*
X146106228Y-87917669D01*
X146044905Y-87951154D01*
X145994361Y-87951606D01*
X145983773Y-87949500D01*
X145983767Y-87949500D01*
X145816233Y-87949500D01*
X145816228Y-87949500D01*
X145651925Y-87982182D01*
X145651917Y-87982184D01*
X145497139Y-88046295D01*
X145357837Y-88139373D01*
X145239373Y-88257837D01*
X145146295Y-88397139D01*
X145082184Y-88551917D01*
X145082182Y-88551925D01*
X145049500Y-88716228D01*
X145049500Y-88883771D01*
X145082182Y-89048074D01*
X145082184Y-89048082D01*
X145146295Y-89202860D01*
X145239373Y-89342162D01*
X145357837Y-89460626D01*
X145443430Y-89517817D01*
X145497137Y-89553703D01*
X145651918Y-89617816D01*
X145816228Y-89650499D01*
X145816232Y-89650500D01*
X145816233Y-89650500D01*
X145983768Y-89650500D01*
X145983769Y-89650499D01*
X146148082Y-89617816D01*
X146302863Y-89553703D01*
X146442162Y-89460626D01*
X146536470Y-89366317D01*
X146597791Y-89332833D01*
X146648343Y-89332382D01*
X146658930Y-89334488D01*
X146658931Y-89334488D01*
X146826466Y-89334488D01*
X146826467Y-89334487D01*
X146990780Y-89301804D01*
X147145561Y-89237691D01*
X147145563Y-89237689D01*
X147146453Y-89237321D01*
X147215922Y-89229852D01*
X147241355Y-89237319D01*
X147394618Y-89300804D01*
X147539940Y-89329710D01*
X147558928Y-89333487D01*
X147558932Y-89333488D01*
X147558933Y-89333488D01*
X147726468Y-89333488D01*
X147726469Y-89333487D01*
X147890782Y-89300804D01*
X147985559Y-89261545D01*
X148055025Y-89254076D01*
X148101901Y-89273004D01*
X148196980Y-89336534D01*
X148351761Y-89400647D01*
X148397953Y-89409835D01*
X148495236Y-89429186D01*
X148557147Y-89461570D01*
X148591721Y-89522286D01*
X148587982Y-89592056D01*
X148558728Y-89638482D01*
X148539373Y-89657837D01*
X148446295Y-89797139D01*
X148382184Y-89951917D01*
X148382182Y-89951925D01*
X148349500Y-90116228D01*
X148349500Y-90283771D01*
X148382182Y-90448074D01*
X148382184Y-90448082D01*
X148446295Y-90602860D01*
X148539373Y-90742162D01*
X148657837Y-90860626D01*
X148750494Y-90922537D01*
X148797137Y-90953703D01*
X148951918Y-91017816D01*
X148997935Y-91026969D01*
X149059845Y-91059352D01*
X149094420Y-91120068D01*
X149090681Y-91189837D01*
X149061426Y-91236267D01*
X148939371Y-91358322D01*
X148846293Y-91497623D01*
X148782182Y-91652401D01*
X148782180Y-91652409D01*
X148749498Y-91816712D01*
X148749498Y-91984255D01*
X148782180Y-92148558D01*
X148782182Y-92148566D01*
X148846293Y-92303344D01*
X148939371Y-92442646D01*
X149057835Y-92561110D01*
X149089372Y-92582182D01*
X149197135Y-92654187D01*
X149351916Y-92718300D01*
X149516226Y-92750983D01*
X149516230Y-92750984D01*
X149516231Y-92750984D01*
X149683766Y-92750984D01*
X149683767Y-92750983D01*
X149848080Y-92718300D01*
X150002861Y-92654187D01*
X150142160Y-92561110D01*
X150260624Y-92442646D01*
X150353701Y-92303347D01*
X150417814Y-92148566D01*
X150450498Y-91984251D01*
X150450498Y-91893482D01*
X150470183Y-91826443D01*
X150522987Y-91780688D01*
X150568945Y-91770689D01*
X150568885Y-91770079D01*
X150574126Y-91769562D01*
X150574498Y-91769482D01*
X150574947Y-91769482D01*
X150574948Y-91769481D01*
X150739261Y-91736798D01*
X150894042Y-91672685D01*
X151033341Y-91579608D01*
X151151805Y-91461144D01*
X151244882Y-91321845D01*
X151308995Y-91167064D01*
X151308995Y-91167061D01*
X151310680Y-91162995D01*
X151354521Y-91108592D01*
X151377784Y-91095889D01*
X151527865Y-91033723D01*
X151667164Y-90940646D01*
X151785628Y-90822182D01*
X151878705Y-90682883D01*
X151942818Y-90528102D01*
X151975502Y-90363787D01*
X151975502Y-90196253D01*
X151942818Y-90031938D01*
X151878705Y-89877157D01*
X151847539Y-89830514D01*
X151785628Y-89737857D01*
X151667164Y-89619393D01*
X151527862Y-89526315D01*
X151373084Y-89462204D01*
X151373076Y-89462202D01*
X151208773Y-89429520D01*
X151208769Y-89429520D01*
X151168974Y-89429520D01*
X151101935Y-89409835D01*
X151056180Y-89357031D01*
X151047358Y-89329716D01*
X151034749Y-89266325D01*
X150970636Y-89111544D01*
X150928227Y-89048074D01*
X150877559Y-88972244D01*
X150759095Y-88853780D01*
X150619793Y-88760702D01*
X150536864Y-88726352D01*
X150536862Y-88726351D01*
X150465015Y-88696591D01*
X150423167Y-88688266D01*
X150415702Y-88685766D01*
X150393240Y-88670106D01*
X150368986Y-88657419D01*
X150364998Y-88650416D01*
X150358387Y-88645807D01*
X150347958Y-88620493D01*
X150345529Y-88616228D01*
X157649500Y-88616228D01*
X157649500Y-88783771D01*
X157682182Y-88948074D01*
X157682184Y-88948082D01*
X157746295Y-89102860D01*
X157839373Y-89242162D01*
X157957837Y-89360626D01*
X158017732Y-89400646D01*
X158097137Y-89453703D01*
X158251918Y-89517816D01*
X158416228Y-89550499D01*
X158416232Y-89550500D01*
X158416233Y-89550500D01*
X158583768Y-89550500D01*
X158583769Y-89550499D01*
X158748082Y-89517816D01*
X158902863Y-89453703D01*
X159042162Y-89360626D01*
X159160626Y-89242162D01*
X159253703Y-89102863D01*
X159317816Y-88948082D01*
X159350500Y-88783767D01*
X159350500Y-88616233D01*
X159317816Y-88451918D01*
X159253703Y-88297137D01*
X159222537Y-88250494D01*
X159160626Y-88157837D01*
X159042162Y-88039373D01*
X158902860Y-87946295D01*
X158748082Y-87882184D01*
X158748074Y-87882182D01*
X158583771Y-87849500D01*
X158583767Y-87849500D01*
X158416233Y-87849500D01*
X158416228Y-87849500D01*
X158251925Y-87882182D01*
X158251917Y-87882184D01*
X158097139Y-87946295D01*
X157957837Y-88039373D01*
X157839373Y-88157837D01*
X157746295Y-88297139D01*
X157682184Y-88451917D01*
X157682182Y-88451925D01*
X157649500Y-88616228D01*
X150345529Y-88616228D01*
X150334412Y-88596704D01*
X150333483Y-88592440D01*
X150308164Y-88465148D01*
X150244051Y-88310367D01*
X150208951Y-88257837D01*
X150150974Y-88171067D01*
X150032510Y-88052603D01*
X149893208Y-87959525D01*
X149738430Y-87895414D01*
X149738422Y-87895412D01*
X149664057Y-87880620D01*
X149662615Y-87879865D01*
X149660991Y-87879970D01*
X149631769Y-87863731D01*
X149602146Y-87848236D01*
X149601340Y-87846821D01*
X149599918Y-87846031D01*
X149584106Y-87816557D01*
X149567572Y-87787520D01*
X149567659Y-87785896D01*
X149566889Y-87784461D01*
X149569522Y-87751118D01*
X149571311Y-87717750D01*
X149572304Y-87715908D01*
X149572391Y-87714808D01*
X149575412Y-87710144D01*
X149589535Y-87683958D01*
X149594620Y-87677268D01*
X149646739Y-87625150D01*
X149737439Y-87489408D01*
X149739720Y-87486408D01*
X149764918Y-87467834D01*
X149788943Y-87447757D01*
X149792819Y-87447270D01*
X149795963Y-87444953D01*
X149827202Y-87442951D01*
X149858267Y-87439050D01*
X149862578Y-87439827D01*
X149916233Y-87450500D01*
X150083768Y-87450500D01*
X150083769Y-87450499D01*
X150248082Y-87417816D01*
X150402863Y-87353703D01*
X150542162Y-87260626D01*
X150542164Y-87260623D01*
X150546866Y-87256765D01*
X150548307Y-87258520D01*
X150600709Y-87229885D01*
X150670403Y-87234847D01*
X150696003Y-87247945D01*
X150697137Y-87248703D01*
X150851918Y-87312816D01*
X151016228Y-87345499D01*
X151016232Y-87345500D01*
X151016233Y-87345500D01*
X151183768Y-87345500D01*
X151183769Y-87345499D01*
X151348082Y-87312816D01*
X151502863Y-87248703D01*
X151642162Y-87155626D01*
X151760626Y-87037162D01*
X151853703Y-86897863D01*
X151917816Y-86743082D01*
X151950500Y-86578767D01*
X151950500Y-86411233D01*
X151950499Y-86411228D01*
X164749500Y-86411228D01*
X164749500Y-86578771D01*
X164782182Y-86743074D01*
X164782184Y-86743082D01*
X164846295Y-86897860D01*
X164939373Y-87037162D01*
X165057837Y-87155626D01*
X165111383Y-87191404D01*
X165197137Y-87248703D01*
X165197138Y-87248703D01*
X165197139Y-87248704D01*
X165201475Y-87250500D01*
X165351918Y-87312816D01*
X165516228Y-87345499D01*
X165516232Y-87345500D01*
X165516233Y-87345500D01*
X165683768Y-87345500D01*
X165683769Y-87345499D01*
X165848082Y-87312816D01*
X166002863Y-87248703D01*
X166142162Y-87155626D01*
X166260626Y-87037162D01*
X166353703Y-86897863D01*
X166417816Y-86743082D01*
X166450500Y-86578767D01*
X166450500Y-86411233D01*
X166417816Y-86246918D01*
X166353703Y-86092137D01*
X166310014Y-86026752D01*
X166260626Y-85952837D01*
X166142162Y-85834373D01*
X166002860Y-85741295D01*
X165848082Y-85677184D01*
X165848074Y-85677182D01*
X165683771Y-85644500D01*
X165683767Y-85644500D01*
X165516233Y-85644500D01*
X165516228Y-85644500D01*
X165351925Y-85677182D01*
X165351917Y-85677184D01*
X165197139Y-85741295D01*
X165057837Y-85834373D01*
X164939373Y-85952837D01*
X164846295Y-86092139D01*
X164782184Y-86246917D01*
X164782182Y-86246925D01*
X164749500Y-86411228D01*
X151950499Y-86411228D01*
X151917816Y-86246918D01*
X151853703Y-86092137D01*
X151810014Y-86026752D01*
X151760626Y-85952837D01*
X151642162Y-85834373D01*
X151502860Y-85741295D01*
X151348082Y-85677184D01*
X151348074Y-85677182D01*
X151183771Y-85644500D01*
X151183767Y-85644500D01*
X151016233Y-85644500D01*
X151016228Y-85644500D01*
X150851925Y-85677182D01*
X150851917Y-85677184D01*
X150697139Y-85741295D01*
X150557841Y-85834371D01*
X150553134Y-85838235D01*
X150551702Y-85836490D01*
X150499213Y-85865131D01*
X150429522Y-85860124D01*
X150404003Y-85847059D01*
X150402863Y-85846297D01*
X150402858Y-85846295D01*
X150248082Y-85782184D01*
X150248074Y-85782182D01*
X150083771Y-85749500D01*
X150083767Y-85749500D01*
X149916233Y-85749500D01*
X149916228Y-85749500D01*
X149751925Y-85782182D01*
X149751917Y-85782184D01*
X149597139Y-85846295D01*
X149457838Y-85939373D01*
X149357087Y-86040124D01*
X149295764Y-86073608D01*
X149226072Y-86068624D01*
X149170139Y-86026752D01*
X149154843Y-85999891D01*
X149153703Y-85997137D01*
X149091200Y-85903595D01*
X149060626Y-85857837D01*
X148942162Y-85739373D01*
X148802860Y-85646295D01*
X148648082Y-85582184D01*
X148648074Y-85582182D01*
X148483771Y-85549500D01*
X148483767Y-85549500D01*
X148316233Y-85549500D01*
X148316228Y-85549500D01*
X148151925Y-85582182D01*
X148151917Y-85582184D01*
X147997139Y-85646295D01*
X147857837Y-85739373D01*
X147739373Y-85857837D01*
X147653102Y-85986953D01*
X147599490Y-86031758D01*
X147530165Y-86040465D01*
X147467138Y-86010311D01*
X147446898Y-85986953D01*
X147360626Y-85857837D01*
X147242162Y-85739373D01*
X147102860Y-85646295D01*
X146948082Y-85582184D01*
X146948074Y-85582182D01*
X146783771Y-85549500D01*
X146783767Y-85549500D01*
X146616233Y-85549500D01*
X146616228Y-85549500D01*
X146451925Y-85582182D01*
X146451917Y-85582184D01*
X146297139Y-85646295D01*
X146157837Y-85739373D01*
X146119169Y-85778041D01*
X146057846Y-85811526D01*
X145988154Y-85806540D01*
X145932221Y-85764668D01*
X145928402Y-85759272D01*
X145860626Y-85657838D01*
X145860625Y-85657837D01*
X145860624Y-85657835D01*
X145742162Y-85539373D01*
X145602860Y-85446295D01*
X145448082Y-85382184D01*
X145448074Y-85382182D01*
X145283771Y-85349500D01*
X145283767Y-85349500D01*
X145116233Y-85349500D01*
X145116228Y-85349500D01*
X144951925Y-85382182D01*
X144951917Y-85382184D01*
X144797139Y-85446295D01*
X144657837Y-85539373D01*
X144539373Y-85657837D01*
X144446295Y-85797139D01*
X144382184Y-85951917D01*
X144382182Y-85951925D01*
X144349500Y-86116228D01*
X105075500Y-86116228D01*
X105075500Y-83465463D01*
X148598735Y-83465463D01*
X148598735Y-83633006D01*
X148631417Y-83797309D01*
X148631419Y-83797317D01*
X148695530Y-83952095D01*
X148788608Y-84091397D01*
X148907072Y-84209861D01*
X148999729Y-84271772D01*
X149046372Y-84302938D01*
X149201153Y-84367051D01*
X149365463Y-84399734D01*
X149365467Y-84399735D01*
X149365468Y-84399735D01*
X149533003Y-84399735D01*
X149533004Y-84399734D01*
X149697317Y-84367051D01*
X149852098Y-84302938D01*
X149991397Y-84209861D01*
X150109861Y-84091397D01*
X150202938Y-83952098D01*
X150267051Y-83797317D01*
X150299735Y-83633002D01*
X150299735Y-83465468D01*
X150267051Y-83301153D01*
X150202938Y-83146372D01*
X150171772Y-83099729D01*
X150109861Y-83007072D01*
X149991397Y-82888608D01*
X149852095Y-82795530D01*
X149697317Y-82731419D01*
X149697309Y-82731417D01*
X149533006Y-82698735D01*
X149533002Y-82698735D01*
X149365468Y-82698735D01*
X149365463Y-82698735D01*
X149201160Y-82731417D01*
X149201152Y-82731419D01*
X149046374Y-82795530D01*
X148907072Y-82888608D01*
X148788608Y-83007072D01*
X148695530Y-83146374D01*
X148631419Y-83301152D01*
X148631417Y-83301160D01*
X148598735Y-83465463D01*
X105075500Y-83465463D01*
X105075500Y-81616228D01*
X129649500Y-81616228D01*
X129649500Y-81783771D01*
X129682182Y-81948074D01*
X129682184Y-81948082D01*
X129746295Y-82102860D01*
X129839373Y-82242162D01*
X129957837Y-82360626D01*
X130050494Y-82422537D01*
X130097137Y-82453703D01*
X130251918Y-82517816D01*
X130416228Y-82550499D01*
X130416232Y-82550500D01*
X130416233Y-82550500D01*
X130583768Y-82550500D01*
X130583769Y-82550499D01*
X130748082Y-82517816D01*
X130902863Y-82453703D01*
X131042162Y-82360626D01*
X131160626Y-82242162D01*
X131253703Y-82102863D01*
X131317816Y-81948082D01*
X131350500Y-81783767D01*
X131350500Y-81616233D01*
X131317816Y-81451918D01*
X131253703Y-81297137D01*
X131222537Y-81250494D01*
X131160626Y-81157837D01*
X131042162Y-81039373D01*
X130902860Y-80946295D01*
X130748082Y-80882184D01*
X130748074Y-80882182D01*
X130583771Y-80849500D01*
X130583767Y-80849500D01*
X130416233Y-80849500D01*
X130416228Y-80849500D01*
X130251925Y-80882182D01*
X130251917Y-80882184D01*
X130097139Y-80946295D01*
X129957837Y-81039373D01*
X129839373Y-81157837D01*
X129746295Y-81297139D01*
X129682184Y-81451917D01*
X129682182Y-81451925D01*
X129649500Y-81616228D01*
X105075500Y-81616228D01*
X105075500Y-80416228D01*
X149649500Y-80416228D01*
X149649500Y-80583771D01*
X149682182Y-80748074D01*
X149682184Y-80748082D01*
X149746295Y-80902860D01*
X149839373Y-81042162D01*
X149957837Y-81160626D01*
X150050494Y-81222537D01*
X150097137Y-81253703D01*
X150251918Y-81317816D01*
X150416228Y-81350499D01*
X150416232Y-81350500D01*
X150416233Y-81350500D01*
X150583768Y-81350500D01*
X150583769Y-81350499D01*
X150748082Y-81317816D01*
X150902863Y-81253703D01*
X151042162Y-81160626D01*
X151160626Y-81042162D01*
X151253703Y-80902863D01*
X151317816Y-80748082D01*
X151348509Y-80593775D01*
X151380892Y-80531868D01*
X151441607Y-80497294D01*
X151511377Y-80501033D01*
X151539015Y-80514867D01*
X151597137Y-80553703D01*
X151751918Y-80617816D01*
X151911201Y-80649499D01*
X151916228Y-80650499D01*
X151916232Y-80650500D01*
X151916233Y-80650500D01*
X152083768Y-80650500D01*
X152083769Y-80650499D01*
X152248082Y-80617816D01*
X152402863Y-80553703D01*
X152542162Y-80460626D01*
X152660626Y-80342162D01*
X152753703Y-80202863D01*
X152817816Y-80048082D01*
X152850500Y-79883767D01*
X152850500Y-79716233D01*
X152850500Y-79716230D01*
X152850301Y-79715228D01*
X161749500Y-79715228D01*
X161749500Y-79882771D01*
X161782182Y-80047074D01*
X161782184Y-80047082D01*
X161846295Y-80201860D01*
X161939373Y-80341162D01*
X162057837Y-80459626D01*
X162140512Y-80514867D01*
X162197137Y-80552703D01*
X162197138Y-80552703D01*
X162197139Y-80552704D01*
X162232201Y-80567227D01*
X162351918Y-80616816D01*
X162516228Y-80649499D01*
X162516232Y-80649500D01*
X162516233Y-80649500D01*
X162683768Y-80649500D01*
X162683769Y-80649499D01*
X162848082Y-80616816D01*
X163002863Y-80552703D01*
X163142162Y-80459626D01*
X163260626Y-80341162D01*
X163353703Y-80201863D01*
X163417816Y-80047082D01*
X163450500Y-79882767D01*
X163450500Y-79715233D01*
X163417816Y-79550918D01*
X163353703Y-79396137D01*
X163301371Y-79317817D01*
X163260626Y-79256837D01*
X163142162Y-79138373D01*
X163002860Y-79045295D01*
X162848082Y-78981184D01*
X162848074Y-78981182D01*
X162683771Y-78948500D01*
X162683767Y-78948500D01*
X162516233Y-78948500D01*
X162516228Y-78948500D01*
X162351925Y-78981182D01*
X162351917Y-78981184D01*
X162197139Y-79045295D01*
X162057837Y-79138373D01*
X161939373Y-79256837D01*
X161846295Y-79396139D01*
X161782184Y-79550917D01*
X161782182Y-79550925D01*
X161749500Y-79715228D01*
X152850301Y-79715228D01*
X152817817Y-79551925D01*
X152817816Y-79551918D01*
X152753703Y-79397137D01*
X152700702Y-79317815D01*
X152660626Y-79257837D01*
X152542162Y-79139373D01*
X152402860Y-79046295D01*
X152248082Y-78982184D01*
X152248074Y-78982182D01*
X152083771Y-78949500D01*
X152083767Y-78949500D01*
X151916233Y-78949500D01*
X151916228Y-78949500D01*
X151751925Y-78982182D01*
X151751917Y-78982184D01*
X151597139Y-79046295D01*
X151457837Y-79139373D01*
X151339373Y-79257837D01*
X151246295Y-79397139D01*
X151182184Y-79551917D01*
X151182182Y-79551925D01*
X151151491Y-79706220D01*
X151119106Y-79768131D01*
X151058391Y-79802705D01*
X150988621Y-79798966D01*
X150960984Y-79785132D01*
X150935540Y-79768131D01*
X150902863Y-79746297D01*
X150902860Y-79746295D01*
X150902859Y-79746295D01*
X150748082Y-79682184D01*
X150748074Y-79682182D01*
X150583771Y-79649500D01*
X150583767Y-79649500D01*
X150416233Y-79649500D01*
X150416228Y-79649500D01*
X150251925Y-79682182D01*
X150251917Y-79682184D01*
X150097139Y-79746295D01*
X149957837Y-79839373D01*
X149839373Y-79957837D01*
X149746295Y-80097139D01*
X149682184Y-80251917D01*
X149682182Y-80251925D01*
X149649500Y-80416228D01*
X105075500Y-80416228D01*
X105075500Y-78416228D01*
X117799500Y-78416228D01*
X117799500Y-78583771D01*
X117832182Y-78748074D01*
X117832184Y-78748082D01*
X117896295Y-78902860D01*
X117989373Y-79042162D01*
X118107837Y-79160626D01*
X118167512Y-79200499D01*
X118247137Y-79253703D01*
X118247138Y-79253703D01*
X118247139Y-79253704D01*
X118282201Y-79268227D01*
X118401918Y-79317816D01*
X118566228Y-79350499D01*
X118566232Y-79350500D01*
X118566233Y-79350500D01*
X118733768Y-79350500D01*
X118733769Y-79350499D01*
X118898082Y-79317816D01*
X119052863Y-79253703D01*
X119192162Y-79160626D01*
X119310626Y-79042162D01*
X119403703Y-78902863D01*
X119467816Y-78748082D01*
X119500500Y-78583767D01*
X119500500Y-78416233D01*
X119467816Y-78251918D01*
X119405686Y-78101925D01*
X119403704Y-78097139D01*
X119403703Y-78097137D01*
X119316232Y-77966228D01*
X123399500Y-77966228D01*
X123399500Y-78133771D01*
X123432182Y-78298074D01*
X123432184Y-78298082D01*
X123496295Y-78452860D01*
X123589373Y-78592162D01*
X123707837Y-78710626D01*
X123771045Y-78752860D01*
X123847137Y-78803703D01*
X124001918Y-78867816D01*
X124124315Y-78892162D01*
X124166228Y-78900499D01*
X124166232Y-78900500D01*
X124166233Y-78900500D01*
X124333768Y-78900500D01*
X124333769Y-78900499D01*
X124498082Y-78867816D01*
X124652863Y-78803703D01*
X124792162Y-78710626D01*
X124910626Y-78592162D01*
X125003703Y-78452863D01*
X125067816Y-78298082D01*
X125074152Y-78266228D01*
X128099500Y-78266228D01*
X128099500Y-78433771D01*
X128132182Y-78598074D01*
X128132184Y-78598082D01*
X128196295Y-78752860D01*
X128289373Y-78892162D01*
X128407837Y-79010626D01*
X128461220Y-79046295D01*
X128547137Y-79103703D01*
X128701918Y-79167816D01*
X128866228Y-79200499D01*
X128866232Y-79200500D01*
X128866233Y-79200500D01*
X129033768Y-79200500D01*
X129033769Y-79200499D01*
X129198082Y-79167816D01*
X129352863Y-79103703D01*
X129492162Y-79010626D01*
X129610626Y-78892162D01*
X129703703Y-78752863D01*
X129767816Y-78598082D01*
X129800500Y-78433767D01*
X129800500Y-78266233D01*
X129767816Y-78101918D01*
X129711613Y-77966233D01*
X129703704Y-77947139D01*
X129684110Y-77917815D01*
X129641272Y-77853703D01*
X129610626Y-77807837D01*
X129492162Y-77689373D01*
X129352860Y-77596295D01*
X129198082Y-77532184D01*
X129198074Y-77532182D01*
X129033771Y-77499500D01*
X129033767Y-77499500D01*
X128866233Y-77499500D01*
X128866228Y-77499500D01*
X128701925Y-77532182D01*
X128701917Y-77532184D01*
X128547139Y-77596295D01*
X128407837Y-77689373D01*
X128289373Y-77807837D01*
X128196295Y-77947139D01*
X128132184Y-78101917D01*
X128132182Y-78101925D01*
X128099500Y-78266228D01*
X125074152Y-78266228D01*
X125100500Y-78133767D01*
X125100500Y-77966233D01*
X125067816Y-77801918D01*
X125003703Y-77647137D01*
X124939132Y-77550500D01*
X124910626Y-77507837D01*
X124792162Y-77389373D01*
X124652860Y-77296295D01*
X124498082Y-77232184D01*
X124498074Y-77232182D01*
X124333771Y-77199500D01*
X124333767Y-77199500D01*
X124166233Y-77199500D01*
X124166228Y-77199500D01*
X124001925Y-77232182D01*
X124001917Y-77232184D01*
X123847139Y-77296295D01*
X123707837Y-77389373D01*
X123589373Y-77507837D01*
X123496295Y-77647139D01*
X123432184Y-77801917D01*
X123432182Y-77801925D01*
X123399500Y-77966228D01*
X119316232Y-77966228D01*
X119310626Y-77957838D01*
X119310625Y-77957837D01*
X119310624Y-77957835D01*
X119192162Y-77839373D01*
X119052860Y-77746295D01*
X118898082Y-77682184D01*
X118898074Y-77682182D01*
X118733771Y-77649500D01*
X118733767Y-77649500D01*
X118566233Y-77649500D01*
X118566228Y-77649500D01*
X118401925Y-77682182D01*
X118401917Y-77682184D01*
X118247139Y-77746295D01*
X118107837Y-77839373D01*
X117989373Y-77957837D01*
X117896295Y-78097139D01*
X117832184Y-78251917D01*
X117832182Y-78251925D01*
X117799500Y-78416228D01*
X105075500Y-78416228D01*
X105075500Y-77216228D01*
X115249500Y-77216228D01*
X115249500Y-77383771D01*
X115282182Y-77548074D01*
X115282184Y-77548082D01*
X115346295Y-77702860D01*
X115439373Y-77842162D01*
X115557837Y-77960626D01*
X115566229Y-77966233D01*
X115697137Y-78053703D01*
X115851918Y-78117816D01*
X115974315Y-78142162D01*
X116016228Y-78150499D01*
X116016232Y-78150500D01*
X116016233Y-78150500D01*
X116183768Y-78150500D01*
X116183769Y-78150499D01*
X116348082Y-78117816D01*
X116502863Y-78053703D01*
X116642162Y-77960626D01*
X116760626Y-77842162D01*
X116853703Y-77702863D01*
X116917816Y-77548082D01*
X116950500Y-77383767D01*
X116950500Y-77216233D01*
X116917816Y-77051918D01*
X116853703Y-76897137D01*
X116777952Y-76783768D01*
X116760626Y-76757837D01*
X116642162Y-76639373D01*
X116607523Y-76616228D01*
X132399500Y-76616228D01*
X132399500Y-76783771D01*
X132432182Y-76948074D01*
X132432184Y-76948082D01*
X132496295Y-77102860D01*
X132589373Y-77242162D01*
X132707837Y-77360626D01*
X132750862Y-77389374D01*
X132847137Y-77453703D01*
X132847138Y-77453703D01*
X132847139Y-77453704D01*
X132868831Y-77462689D01*
X133001918Y-77517816D01*
X133154037Y-77548074D01*
X133166228Y-77550499D01*
X133166232Y-77550500D01*
X133166233Y-77550500D01*
X133333768Y-77550500D01*
X133333769Y-77550499D01*
X133498082Y-77517816D01*
X133652863Y-77453703D01*
X133792162Y-77360626D01*
X133910626Y-77242162D01*
X134003703Y-77102863D01*
X134039589Y-77016228D01*
X143949500Y-77016228D01*
X143949500Y-77183771D01*
X143982182Y-77348074D01*
X143982184Y-77348082D01*
X144046295Y-77502860D01*
X144139373Y-77642162D01*
X144257837Y-77760626D01*
X144319646Y-77801925D01*
X144397137Y-77853703D01*
X144551918Y-77917816D01*
X144699326Y-77947137D01*
X144716228Y-77950499D01*
X144716232Y-77950500D01*
X144716233Y-77950500D01*
X144883768Y-77950500D01*
X144883769Y-77950499D01*
X145048082Y-77917816D01*
X145202863Y-77853703D01*
X145342162Y-77760626D01*
X145460626Y-77642162D01*
X145544773Y-77516228D01*
X172549500Y-77516228D01*
X172549500Y-77683771D01*
X172582182Y-77848074D01*
X172582184Y-77848082D01*
X172646295Y-78002860D01*
X172739373Y-78142162D01*
X172857837Y-78260626D01*
X172950494Y-78322537D01*
X172997137Y-78353703D01*
X173151918Y-78417816D01*
X173316228Y-78450499D01*
X173316232Y-78450500D01*
X173316233Y-78450500D01*
X173483768Y-78450500D01*
X173483769Y-78450499D01*
X173648082Y-78417816D01*
X173802863Y-78353703D01*
X173942162Y-78260626D01*
X174060626Y-78142162D01*
X174153703Y-78002863D01*
X174217816Y-77848082D01*
X174250500Y-77683767D01*
X174250500Y-77516233D01*
X174217816Y-77351918D01*
X174161613Y-77216233D01*
X174153704Y-77197139D01*
X174060626Y-77057837D01*
X173942162Y-76939373D01*
X173802860Y-76846295D01*
X173648082Y-76782184D01*
X173648074Y-76782182D01*
X173483771Y-76749500D01*
X173483767Y-76749500D01*
X173316233Y-76749500D01*
X173316228Y-76749500D01*
X173151925Y-76782182D01*
X173151917Y-76782184D01*
X172997139Y-76846295D01*
X172857837Y-76939373D01*
X172739373Y-77057837D01*
X172646295Y-77197139D01*
X172582184Y-77351917D01*
X172582182Y-77351925D01*
X172549500Y-77516228D01*
X145544773Y-77516228D01*
X145553703Y-77502863D01*
X145617816Y-77348082D01*
X145650500Y-77183767D01*
X145650500Y-77016233D01*
X145617816Y-76851918D01*
X145553703Y-76697137D01*
X145515106Y-76639373D01*
X145460626Y-76557837D01*
X145342162Y-76439373D01*
X145202860Y-76346295D01*
X145150729Y-76324702D01*
X145048082Y-76282184D01*
X145048074Y-76282182D01*
X144883771Y-76249500D01*
X144883767Y-76249500D01*
X144716233Y-76249500D01*
X144716228Y-76249500D01*
X144551925Y-76282182D01*
X144551917Y-76282184D01*
X144397139Y-76346295D01*
X144257837Y-76439373D01*
X144139373Y-76557837D01*
X144046295Y-76697139D01*
X143982184Y-76851917D01*
X143982182Y-76851925D01*
X143949500Y-77016228D01*
X134039589Y-77016228D01*
X134067816Y-76948082D01*
X134100500Y-76783767D01*
X134100500Y-76616233D01*
X134067816Y-76451918D01*
X134003703Y-76297137D01*
X133971873Y-76249500D01*
X133949641Y-76216228D01*
X170449500Y-76216228D01*
X170449500Y-76383771D01*
X170482182Y-76548074D01*
X170482184Y-76548082D01*
X170546295Y-76702860D01*
X170639373Y-76842162D01*
X170757837Y-76960626D01*
X170841052Y-77016228D01*
X170897137Y-77053703D01*
X170897138Y-77053703D01*
X170897139Y-77053704D01*
X170932201Y-77068227D01*
X171051918Y-77117816D01*
X171216228Y-77150499D01*
X171216232Y-77150500D01*
X171216233Y-77150500D01*
X171383768Y-77150500D01*
X171383769Y-77150499D01*
X171548082Y-77117816D01*
X171702863Y-77053703D01*
X171842162Y-76960626D01*
X171960626Y-76842162D01*
X172053703Y-76702863D01*
X172117816Y-76548082D01*
X172150500Y-76383767D01*
X172150500Y-76216233D01*
X172117816Y-76051918D01*
X172053703Y-75897137D01*
X172021873Y-75849500D01*
X171960626Y-75757837D01*
X171842162Y-75639373D01*
X171702860Y-75546295D01*
X171548082Y-75482184D01*
X171548074Y-75482182D01*
X171383771Y-75449500D01*
X171383767Y-75449500D01*
X171216233Y-75449500D01*
X171216228Y-75449500D01*
X171051925Y-75482182D01*
X171051917Y-75482184D01*
X170897139Y-75546295D01*
X170757837Y-75639373D01*
X170639373Y-75757837D01*
X170546295Y-75897139D01*
X170482184Y-76051917D01*
X170482182Y-76051925D01*
X170449500Y-76216228D01*
X133949641Y-76216228D01*
X133910626Y-76157837D01*
X133792162Y-76039373D01*
X133652860Y-75946295D01*
X133498082Y-75882184D01*
X133498074Y-75882182D01*
X133333771Y-75849500D01*
X133333767Y-75849500D01*
X133166233Y-75849500D01*
X133166228Y-75849500D01*
X133001925Y-75882182D01*
X133001917Y-75882184D01*
X132847139Y-75946295D01*
X132707837Y-76039373D01*
X132589373Y-76157837D01*
X132496295Y-76297139D01*
X132432184Y-76451917D01*
X132432182Y-76451925D01*
X132399500Y-76616228D01*
X116607523Y-76616228D01*
X116502860Y-76546295D01*
X116348082Y-76482184D01*
X116348074Y-76482182D01*
X116183771Y-76449500D01*
X116183767Y-76449500D01*
X116016233Y-76449500D01*
X116016228Y-76449500D01*
X115851925Y-76482182D01*
X115851917Y-76482184D01*
X115697139Y-76546295D01*
X115557837Y-76639373D01*
X115439373Y-76757837D01*
X115346295Y-76897139D01*
X115282184Y-77051917D01*
X115282182Y-77051925D01*
X115249500Y-77216228D01*
X105075500Y-77216228D01*
X105075500Y-74736540D01*
X166203200Y-74736540D01*
X166203200Y-74883459D01*
X166231858Y-75027534D01*
X166231861Y-75027544D01*
X166288078Y-75163266D01*
X166288083Y-75163275D01*
X166369698Y-75285419D01*
X166369701Y-75285423D01*
X166473576Y-75389298D01*
X166473580Y-75389301D01*
X166595724Y-75470916D01*
X166595730Y-75470919D01*
X166595731Y-75470920D01*
X166731458Y-75527140D01*
X166875540Y-75555799D01*
X166875544Y-75555800D01*
X166875545Y-75555800D01*
X167022456Y-75555800D01*
X167022457Y-75555799D01*
X167166542Y-75527140D01*
X167302269Y-75470920D01*
X167424420Y-75389301D01*
X167528301Y-75285420D01*
X167609920Y-75163269D01*
X167666140Y-75027542D01*
X167694800Y-74883455D01*
X167694800Y-74736545D01*
X167694799Y-74736540D01*
X168235200Y-74736540D01*
X168235200Y-74883459D01*
X168263858Y-75027534D01*
X168263861Y-75027544D01*
X168320078Y-75163266D01*
X168320083Y-75163275D01*
X168401698Y-75285419D01*
X168401701Y-75285423D01*
X168505576Y-75389298D01*
X168505580Y-75389301D01*
X168627724Y-75470916D01*
X168627730Y-75470919D01*
X168627731Y-75470920D01*
X168763458Y-75527140D01*
X168907540Y-75555799D01*
X168907544Y-75555800D01*
X168907545Y-75555800D01*
X169054456Y-75555800D01*
X169054457Y-75555799D01*
X169198542Y-75527140D01*
X169334269Y-75470920D01*
X169456420Y-75389301D01*
X169560301Y-75285420D01*
X169641920Y-75163269D01*
X169698140Y-75027542D01*
X169726800Y-74883455D01*
X169726800Y-74736545D01*
X169698140Y-74592458D01*
X169641920Y-74456731D01*
X169641919Y-74456730D01*
X169641916Y-74456724D01*
X169560301Y-74334580D01*
X169560298Y-74334576D01*
X169456423Y-74230701D01*
X169456419Y-74230698D01*
X169334275Y-74149083D01*
X169334266Y-74149078D01*
X169198544Y-74092861D01*
X169198545Y-74092861D01*
X169198542Y-74092860D01*
X169198538Y-74092859D01*
X169198534Y-74092858D01*
X169054459Y-74064200D01*
X169054455Y-74064200D01*
X168907545Y-74064200D01*
X168907540Y-74064200D01*
X168763465Y-74092858D01*
X168763455Y-74092861D01*
X168627733Y-74149078D01*
X168627724Y-74149083D01*
X168505580Y-74230698D01*
X168505576Y-74230701D01*
X168401701Y-74334576D01*
X168401698Y-74334580D01*
X168320083Y-74456724D01*
X168320078Y-74456733D01*
X168263861Y-74592455D01*
X168263858Y-74592465D01*
X168235200Y-74736540D01*
X167694799Y-74736540D01*
X167666140Y-74592458D01*
X167609920Y-74456731D01*
X167609919Y-74456730D01*
X167609916Y-74456724D01*
X167528301Y-74334580D01*
X167528298Y-74334576D01*
X167424423Y-74230701D01*
X167424419Y-74230698D01*
X167302275Y-74149083D01*
X167302266Y-74149078D01*
X167166544Y-74092861D01*
X167166545Y-74092861D01*
X167166542Y-74092860D01*
X167166538Y-74092859D01*
X167166534Y-74092858D01*
X167022459Y-74064200D01*
X167022455Y-74064200D01*
X166875545Y-74064200D01*
X166875540Y-74064200D01*
X166731465Y-74092858D01*
X166731455Y-74092861D01*
X166595733Y-74149078D01*
X166595724Y-74149083D01*
X166473580Y-74230698D01*
X166473576Y-74230701D01*
X166369701Y-74334576D01*
X166369698Y-74334580D01*
X166288083Y-74456724D01*
X166288078Y-74456733D01*
X166231861Y-74592455D01*
X166231858Y-74592465D01*
X166203200Y-74736540D01*
X105075500Y-74736540D01*
X105075500Y-72791831D01*
X163987050Y-72791831D01*
X163987050Y-73018168D01*
X164022458Y-73241722D01*
X164022458Y-73241725D01*
X164092398Y-73456978D01*
X164092400Y-73456981D01*
X164195155Y-73658650D01*
X164328193Y-73841761D01*
X164488239Y-74001807D01*
X164671350Y-74134845D01*
X164873019Y-74237600D01*
X164873021Y-74237601D01*
X165073801Y-74302837D01*
X165088279Y-74307542D01*
X165311831Y-74342950D01*
X165311832Y-74342950D01*
X165538168Y-74342950D01*
X165538169Y-74342950D01*
X165761721Y-74307542D01*
X165761724Y-74307541D01*
X165761725Y-74307541D01*
X165976978Y-74237601D01*
X165976978Y-74237600D01*
X165976981Y-74237600D01*
X166178650Y-74134845D01*
X166361761Y-74001807D01*
X166521807Y-73841761D01*
X166654845Y-73658650D01*
X166757600Y-73456981D01*
X166827542Y-73241721D01*
X166862950Y-73018169D01*
X166862950Y-72791831D01*
X169067050Y-72791831D01*
X169067050Y-73018168D01*
X169102458Y-73241722D01*
X169102458Y-73241725D01*
X169172398Y-73456978D01*
X169172400Y-73456981D01*
X169275155Y-73658650D01*
X169408193Y-73841761D01*
X169568239Y-74001807D01*
X169751350Y-74134845D01*
X169953019Y-74237600D01*
X169953021Y-74237601D01*
X170153801Y-74302837D01*
X170168279Y-74307542D01*
X170391831Y-74342950D01*
X170391832Y-74342950D01*
X170618168Y-74342950D01*
X170618169Y-74342950D01*
X170841721Y-74307542D01*
X170841724Y-74307541D01*
X170841725Y-74307541D01*
X171056978Y-74237601D01*
X171056978Y-74237600D01*
X171056981Y-74237600D01*
X171258650Y-74134845D01*
X171441761Y-74001807D01*
X171601807Y-73841761D01*
X171734845Y-73658650D01*
X171837600Y-73456981D01*
X171907542Y-73241721D01*
X171942950Y-73018169D01*
X171942950Y-72791831D01*
X171907542Y-72568279D01*
X171907541Y-72568275D01*
X171907541Y-72568274D01*
X171837601Y-72353021D01*
X171837599Y-72353018D01*
X171734844Y-72151349D01*
X171601807Y-71968239D01*
X171441761Y-71808193D01*
X171258650Y-71675155D01*
X171056981Y-71572400D01*
X171056978Y-71572398D01*
X170841723Y-71502458D01*
X170692686Y-71478852D01*
X170618169Y-71467050D01*
X170391831Y-71467050D01*
X170317313Y-71478852D01*
X170168277Y-71502458D01*
X170168274Y-71502458D01*
X169953021Y-71572398D01*
X169953018Y-71572400D01*
X169751349Y-71675155D01*
X169646878Y-71751058D01*
X169568239Y-71808193D01*
X169568237Y-71808195D01*
X169568236Y-71808195D01*
X169408195Y-71968236D01*
X169408195Y-71968237D01*
X169408193Y-71968239D01*
X169351058Y-72046878D01*
X169275155Y-72151349D01*
X169172400Y-72353018D01*
X169172398Y-72353021D01*
X169102458Y-72568274D01*
X169102458Y-72568277D01*
X169067050Y-72791831D01*
X166862950Y-72791831D01*
X166827542Y-72568279D01*
X166827541Y-72568275D01*
X166827541Y-72568274D01*
X166757601Y-72353021D01*
X166757599Y-72353018D01*
X166654844Y-72151349D01*
X166521807Y-71968239D01*
X166361761Y-71808193D01*
X166178650Y-71675155D01*
X165976981Y-71572400D01*
X165976978Y-71572398D01*
X165761723Y-71502458D01*
X165612686Y-71478852D01*
X165538169Y-71467050D01*
X165311831Y-71467050D01*
X165237313Y-71478852D01*
X165088277Y-71502458D01*
X165088274Y-71502458D01*
X164873021Y-71572398D01*
X164873018Y-71572400D01*
X164671349Y-71675155D01*
X164566878Y-71751058D01*
X164488239Y-71808193D01*
X164488237Y-71808195D01*
X164488236Y-71808195D01*
X164328195Y-71968236D01*
X164328195Y-71968237D01*
X164328193Y-71968239D01*
X164271058Y-72046878D01*
X164195155Y-72151349D01*
X164092400Y-72353018D01*
X164092398Y-72353021D01*
X164022458Y-72568274D01*
X164022458Y-72568277D01*
X163987050Y-72791831D01*
X105075500Y-72791831D01*
X105075500Y-69616831D01*
X163987050Y-69616831D01*
X163987050Y-69843168D01*
X164022458Y-70066722D01*
X164022458Y-70066725D01*
X164092398Y-70281978D01*
X164092400Y-70281981D01*
X164195155Y-70483650D01*
X164328193Y-70666761D01*
X164488239Y-70826807D01*
X164671350Y-70959845D01*
X164873019Y-71062600D01*
X164873021Y-71062601D01*
X165073801Y-71127837D01*
X165088279Y-71132542D01*
X165311831Y-71167950D01*
X165311832Y-71167950D01*
X165538168Y-71167950D01*
X165538169Y-71167950D01*
X165761721Y-71132542D01*
X165761724Y-71132541D01*
X165761725Y-71132541D01*
X165976978Y-71062601D01*
X165976978Y-71062600D01*
X165976981Y-71062600D01*
X166178650Y-70959845D01*
X166361761Y-70826807D01*
X166521807Y-70666761D01*
X166654845Y-70483650D01*
X166757600Y-70281981D01*
X166782476Y-70205420D01*
X166827541Y-70066725D01*
X166827541Y-70066724D01*
X166827542Y-70066721D01*
X166862950Y-69843169D01*
X166862950Y-69656540D01*
X167219200Y-69656540D01*
X167219200Y-69803459D01*
X167247858Y-69947534D01*
X167247861Y-69947544D01*
X167304078Y-70083266D01*
X167304083Y-70083275D01*
X167385698Y-70205419D01*
X167385701Y-70205423D01*
X167489576Y-70309298D01*
X167489580Y-70309301D01*
X167611724Y-70390916D01*
X167611730Y-70390919D01*
X167611731Y-70390920D01*
X167747458Y-70447140D01*
X167891540Y-70475799D01*
X167891544Y-70475800D01*
X167891545Y-70475800D01*
X168038456Y-70475800D01*
X168038457Y-70475799D01*
X168182542Y-70447140D01*
X168318269Y-70390920D01*
X168440420Y-70309301D01*
X168544301Y-70205420D01*
X168625920Y-70083269D01*
X168682140Y-69947542D01*
X168710800Y-69803455D01*
X168710800Y-69656545D01*
X168682140Y-69512458D01*
X168625920Y-69376731D01*
X168625919Y-69376730D01*
X168625916Y-69376724D01*
X168588733Y-69321076D01*
X168567855Y-69254399D01*
X168586339Y-69187018D01*
X168638318Y-69140328D01*
X168707288Y-69129152D01*
X168716026Y-69130568D01*
X168765094Y-69140328D01*
X168816230Y-69150499D01*
X168816232Y-69150500D01*
X168816233Y-69150500D01*
X168983764Y-69150500D01*
X168983767Y-69150500D01*
X168987491Y-69149759D01*
X168989481Y-69149937D01*
X168989830Y-69149903D01*
X168989836Y-69149969D01*
X169057080Y-69155985D01*
X169112259Y-69198846D01*
X169135506Y-69264735D01*
X169129615Y-69309693D01*
X169102459Y-69393270D01*
X169102458Y-69393277D01*
X169067050Y-69616831D01*
X169067050Y-69843168D01*
X169102458Y-70066722D01*
X169102458Y-70066725D01*
X169172398Y-70281978D01*
X169172400Y-70281981D01*
X169275155Y-70483650D01*
X169408193Y-70666761D01*
X169568239Y-70826807D01*
X169751350Y-70959845D01*
X169953019Y-71062600D01*
X169953021Y-71062601D01*
X170153801Y-71127837D01*
X170168279Y-71132542D01*
X170391831Y-71167950D01*
X170391832Y-71167950D01*
X170618168Y-71167950D01*
X170618169Y-71167950D01*
X170841721Y-71132542D01*
X170841724Y-71132541D01*
X170841725Y-71132541D01*
X171056978Y-71062601D01*
X171056978Y-71062600D01*
X171056981Y-71062600D01*
X171258650Y-70959845D01*
X171441761Y-70826807D01*
X171601807Y-70666761D01*
X171734845Y-70483650D01*
X171837600Y-70281981D01*
X171862476Y-70205420D01*
X171907541Y-70066725D01*
X171907541Y-70066724D01*
X171907542Y-70066721D01*
X171942950Y-69843169D01*
X171942950Y-69616831D01*
X171907542Y-69393279D01*
X171907541Y-69393275D01*
X171907541Y-69393274D01*
X171837601Y-69178021D01*
X171837599Y-69178018D01*
X171823681Y-69150701D01*
X171734845Y-68976350D01*
X171601807Y-68793239D01*
X171441761Y-68633193D01*
X171258650Y-68500155D01*
X171056981Y-68397400D01*
X171056978Y-68397398D01*
X170841723Y-68327458D01*
X170692686Y-68303852D01*
X170618169Y-68292050D01*
X170391831Y-68292050D01*
X170317313Y-68303852D01*
X170168277Y-68327458D01*
X170168274Y-68327458D01*
X169953021Y-68397398D01*
X169953017Y-68397400D01*
X169930793Y-68408724D01*
X169862124Y-68421619D01*
X169797384Y-68395341D01*
X169757128Y-68338234D01*
X169750500Y-68298238D01*
X169750500Y-68216232D01*
X169750499Y-68216228D01*
X169717817Y-68051925D01*
X169717816Y-68051918D01*
X169653703Y-67897137D01*
X169622537Y-67850494D01*
X169560626Y-67757837D01*
X169442162Y-67639373D01*
X169302860Y-67546295D01*
X169148082Y-67482184D01*
X169148074Y-67482182D01*
X168983771Y-67449500D01*
X168983767Y-67449500D01*
X168816233Y-67449500D01*
X168816228Y-67449500D01*
X168651925Y-67482182D01*
X168651917Y-67482184D01*
X168497139Y-67546295D01*
X168357837Y-67639373D01*
X168239373Y-67757837D01*
X168146295Y-67897139D01*
X168082184Y-68051917D01*
X168082182Y-68051925D01*
X168049500Y-68216228D01*
X168049500Y-68383771D01*
X168076705Y-68520538D01*
X168082184Y-68548082D01*
X168146297Y-68702863D01*
X168195481Y-68776471D01*
X168213308Y-68803152D01*
X168234185Y-68869829D01*
X168215700Y-68937209D01*
X168163721Y-68983899D01*
X168094751Y-68995075D01*
X168086015Y-68993660D01*
X168077134Y-68991893D01*
X168038455Y-68984200D01*
X167891545Y-68984200D01*
X167891540Y-68984200D01*
X167747465Y-69012858D01*
X167747455Y-69012861D01*
X167611733Y-69069078D01*
X167611724Y-69069083D01*
X167489580Y-69150698D01*
X167489576Y-69150701D01*
X167385701Y-69254576D01*
X167385698Y-69254580D01*
X167304083Y-69376724D01*
X167304078Y-69376733D01*
X167247861Y-69512455D01*
X167247858Y-69512465D01*
X167219200Y-69656540D01*
X166862950Y-69656540D01*
X166862950Y-69616831D01*
X166827542Y-69393279D01*
X166827541Y-69393275D01*
X166827541Y-69393274D01*
X166757601Y-69178021D01*
X166757599Y-69178018D01*
X166743681Y-69150701D01*
X166654845Y-68976350D01*
X166521807Y-68793239D01*
X166361761Y-68633193D01*
X166178650Y-68500155D01*
X165976981Y-68397400D01*
X165976978Y-68397398D01*
X165761723Y-68327458D01*
X165612686Y-68303852D01*
X165538169Y-68292050D01*
X165311831Y-68292050D01*
X165237313Y-68303852D01*
X165088277Y-68327458D01*
X165088274Y-68327458D01*
X164873021Y-68397398D01*
X164873018Y-68397400D01*
X164671349Y-68500155D01*
X164605395Y-68548074D01*
X164488239Y-68633193D01*
X164488237Y-68633195D01*
X164488236Y-68633195D01*
X164328195Y-68793236D01*
X164328195Y-68793237D01*
X164328193Y-68793239D01*
X164272547Y-68869829D01*
X164195155Y-68976349D01*
X164092400Y-69178018D01*
X164092398Y-69178021D01*
X164022458Y-69393274D01*
X164022458Y-69393277D01*
X163987050Y-69616831D01*
X105075500Y-69616831D01*
X105075500Y-67045652D01*
X164986981Y-67045652D01*
X164986981Y-67213195D01*
X165019663Y-67377498D01*
X165019665Y-67377506D01*
X165083776Y-67532284D01*
X165176854Y-67671586D01*
X165295318Y-67790050D01*
X165387975Y-67851961D01*
X165434618Y-67883127D01*
X165589399Y-67947240D01*
X165753709Y-67979923D01*
X165753713Y-67979924D01*
X165753714Y-67979924D01*
X165921249Y-67979924D01*
X165921250Y-67979923D01*
X166085563Y-67947240D01*
X166240344Y-67883127D01*
X166379643Y-67790050D01*
X166498107Y-67671586D01*
X166591184Y-67532287D01*
X166655297Y-67377506D01*
X166687981Y-67213191D01*
X166687981Y-67045657D01*
X166655297Y-66881342D01*
X166591184Y-66726561D01*
X166560018Y-66679918D01*
X166498107Y-66587261D01*
X166379643Y-66468797D01*
X166240341Y-66375719D01*
X166085563Y-66311608D01*
X166085555Y-66311606D01*
X165921252Y-66278924D01*
X165921248Y-66278924D01*
X165753714Y-66278924D01*
X165753709Y-66278924D01*
X165589406Y-66311606D01*
X165589398Y-66311608D01*
X165434620Y-66375719D01*
X165295318Y-66468797D01*
X165176854Y-66587261D01*
X165083776Y-66726563D01*
X165019665Y-66881341D01*
X165019663Y-66881349D01*
X164986981Y-67045652D01*
X105075500Y-67045652D01*
X105075500Y-52416228D01*
X126149500Y-52416228D01*
X126149500Y-52583771D01*
X126182182Y-52748074D01*
X126182184Y-52748082D01*
X126246295Y-52902860D01*
X126339373Y-53042162D01*
X126457837Y-53160626D01*
X126550494Y-53222537D01*
X126597137Y-53253703D01*
X126751918Y-53317816D01*
X126916228Y-53350499D01*
X126916232Y-53350500D01*
X126916233Y-53350500D01*
X127083768Y-53350500D01*
X127083769Y-53350499D01*
X127248082Y-53317816D01*
X127402863Y-53253703D01*
X127542162Y-53160626D01*
X127660626Y-53042162D01*
X127753703Y-52902863D01*
X127817816Y-52748082D01*
X127850500Y-52583767D01*
X127850500Y-52416233D01*
X127817816Y-52251918D01*
X127753703Y-52097137D01*
X127722537Y-52050494D01*
X127660626Y-51957837D01*
X127542162Y-51839373D01*
X127402860Y-51746295D01*
X127248082Y-51682184D01*
X127248074Y-51682182D01*
X127083771Y-51649500D01*
X127083767Y-51649500D01*
X126916233Y-51649500D01*
X126916228Y-51649500D01*
X126751925Y-51682182D01*
X126751917Y-51682184D01*
X126597139Y-51746295D01*
X126457837Y-51839373D01*
X126339373Y-51957837D01*
X126246295Y-52097139D01*
X126182184Y-52251917D01*
X126182182Y-52251925D01*
X126149500Y-52416228D01*
X105075500Y-52416228D01*
X105075500Y-46474427D01*
X105075816Y-46465581D01*
X105090130Y-46265443D01*
X105090131Y-46265434D01*
X105092646Y-46247938D01*
X105134356Y-46056199D01*
X105139333Y-46039248D01*
X105207911Y-45855385D01*
X105215259Y-45839298D01*
X105277815Y-45724734D01*
X105309291Y-45667089D01*
X105318845Y-45652221D01*
X105436448Y-45495123D01*
X105448020Y-45481769D01*
X105586769Y-45343020D01*
X105600123Y-45331448D01*
X105757221Y-45213845D01*
X105772089Y-45204291D01*
X105944298Y-45110258D01*
X105960385Y-45102911D01*
X106144248Y-45034333D01*
X106161199Y-45029356D01*
X106352938Y-44987646D01*
X106370436Y-44985130D01*
X106570582Y-44970816D01*
X106579428Y-44970500D01*
X106640892Y-44970500D01*
X144784108Y-44970500D01*
X146784108Y-44970500D01*
X185059108Y-44970500D01*
X185120572Y-44970500D01*
X185129418Y-44970816D01*
G37*
%TD.AperFunction*%
%TD*%
M02*
