%TF.GenerationSoftware,KiCad,Pcbnew,9.0.0*%
%TF.CreationDate,2026-02-21T16:02:36-06:00*%
%TF.ProjectId,TCMv3.0s,54434d76-332e-4307-932e-6b696361645f,rev?*%
%TF.SameCoordinates,Original*%
%TF.FileFunction,Copper,L4,Bot*%
%TF.FilePolarity,Positive*%
%FSLAX46Y46*%
G04 Gerber Fmt 4.6, Leading zero omitted, Abs format (unit mm)*
G04 Created by KiCad (PCBNEW 9.0.0) date 2026-02-21 16:02:36*
%MOMM*%
%LPD*%
G01*
G04 APERTURE LIST*
%TA.AperFunction,ComponentPad*%
%ADD10C,5.500000*%
%TD*%
%TA.AperFunction,ComponentPad*%
%ADD11C,2.000000*%
%TD*%
%TA.AperFunction,ViaPad*%
%ADD12C,0.700000*%
%TD*%
%TA.AperFunction,Conductor*%
%ADD13C,0.300000*%
%TD*%
%TA.AperFunction,Conductor*%
%ADD14C,0.500000*%
%TD*%
G04 APERTURE END LIST*
D10*
%TO.P,J2,*%
%TO.N,*%
X145850000Y-141660000D03*
D11*
%TO.P,J2,1,Pin_1*%
%TO.N,+5V*%
X128820000Y-143620000D03*
%TO.P,J2,2,Pin_2*%
%TO.N,GND*%
X124620000Y-143620000D03*
%TO.P,J2,3,Pin_3*%
%TO.N,CAN_H*%
X120420000Y-143620000D03*
%TO.P,J2,4,Pin_4*%
%TO.N,CAN_L*%
X116220000Y-143620000D03*
%TO.P,J2,5,Pin_5*%
%TO.N,UART_RX*%
X112020000Y-143620000D03*
%TO.P,J2,6,Pin_6*%
%TO.N,UART_TX*%
X107820000Y-143620000D03*
%TO.P,J2,7,Pin_7*%
%TO.N,UP_PADDLE*%
X107820000Y-137270000D03*
%TO.P,J2,8,Pin_8*%
%TO.N,DOWN_PADDLE*%
X112020000Y-137270000D03*
%TO.P,J2,9,Pin_9*%
%TO.N,~{DOWN_PADDLE}*%
X116220000Y-137270000D03*
%TO.P,J2,10,Pin_10*%
%TO.N,NEUTRAL_PEG*%
X120420000Y-137270000D03*
%TO.P,J2,11,Pin_11*%
%TO.N,ECU_UP*%
X124620000Y-137270000D03*
%TO.P,J2,12,Pin_12*%
%TO.N,ECU_DOWN*%
X128820000Y-137270000D03*
%TO.P,J2,13,Pin_13*%
%TO.N,+5V*%
X162880000Y-137270000D03*
%TO.P,J2,14,Pin_14*%
%TO.N,GND*%
X167080000Y-137270000D03*
%TO.P,J2,15,Pin_15*%
%TO.N,GPIO0*%
X171280000Y-137270000D03*
%TO.P,J2,16,Pin_16*%
%TO.N,GPIO1*%
X175480000Y-137270000D03*
%TO.P,J2,17,Pin_17*%
%TO.N,GPIO2*%
X179680000Y-137270000D03*
%TO.P,J2,18,Pin_18*%
%TO.N,GPIO3*%
X183880000Y-137270000D03*
%TO.P,J2,19,Pin_19*%
%TO.N,GPIO4*%
X183880000Y-143620000D03*
%TO.P,J2,20,Pin_20*%
%TO.N,GPIO5*%
X179680000Y-143620000D03*
%TO.P,J2,21,Pin_21*%
%TO.N,GPIO6*%
X175480000Y-143620000D03*
%TO.P,J2,22,Pin_22*%
%TO.N,GPIO7*%
X171280000Y-143620000D03*
%TO.P,J2,23,Pin_23*%
%TO.N,GPIO8*%
X167080000Y-143620000D03*
%TO.P,J2,24,Pin_24*%
%TO.N,GPIO9*%
X162880000Y-143620000D03*
%TD*%
D12*
%TO.N,+3V3*%
X168900000Y-68300000D03*
%TO.N,GND*%
X164750000Y-75750000D03*
%TO.N,UART_RX*%
X135750000Y-129113500D03*
%TO.N,~{DOWN_PADDLE}*%
X126575000Y-130287500D03*
X122100000Y-122300000D03*
X147642700Y-88482988D03*
%TO.N,GPIO7*%
X157300000Y-95600000D03*
X155900000Y-96700000D03*
X150491179Y-90918982D03*
%TO.N,GPIO9*%
X149599998Y-91900484D03*
X158600000Y-113900000D03*
%TO.N,GPIO4*%
X152000000Y-79800000D03*
X162600000Y-79799000D03*
%TO.N,GPIO3*%
X150500000Y-80500000D03*
%TO.N,GPIO0*%
X150000000Y-86600000D03*
%TO.N,GPIO1*%
X149449235Y-83549235D03*
%TO.N,GPIO5*%
X148400000Y-86400000D03*
%TO.N,GPIO8*%
X151125002Y-90280020D03*
%TO.N,GND*%
X121998367Y-65467757D03*
X145500000Y-89800000D03*
X145447250Y-87065374D03*
X150500000Y-91900000D03*
X126575000Y-128287500D03*
X130100000Y-56100000D03*
X171800000Y-88400000D03*
X140700000Y-85200000D03*
X138200000Y-88400000D03*
X136222274Y-128300000D03*
X116775000Y-119012500D03*
X149900000Y-76100000D03*
X115800000Y-126600000D03*
X158500000Y-87500000D03*
X147500000Y-97500000D03*
X137300000Y-85500000D03*
X128150000Y-79150000D03*
X126300000Y-60300000D03*
X157500000Y-91400000D03*
X167200000Y-133000000D03*
%TO.N,UP_PADDLE*%
X116675000Y-121012500D03*
X145900000Y-88800000D03*
%TO.N,DOWN_PADDLE*%
X116550000Y-130000000D03*
X146742698Y-88483988D03*
%TO.N,+3V3*%
X121975000Y-133287500D03*
X112075000Y-123912500D03*
X153935051Y-94325001D03*
X133250000Y-76700000D03*
X145200000Y-86200000D03*
X149490348Y-88713230D03*
X118650000Y-78500000D03*
X127000000Y-52500000D03*
X111100000Y-132800000D03*
X144800000Y-77100000D03*
X136750000Y-93400000D03*
X131622274Y-133200000D03*
X158500000Y-88700000D03*
%TO.N,NEUTRAL_PEG*%
X136659213Y-130189553D03*
X148599843Y-88582831D03*
X130600000Y-113900000D03*
%TO.N,+5V*%
X116100000Y-77300000D03*
%TO.N,NRST*%
X147500000Y-87082988D03*
X165837481Y-67129424D03*
%TO.N,SWO*%
X171300000Y-76300000D03*
X139800000Y-101500000D03*
X173400000Y-77600000D03*
X149405025Y-96705025D03*
%TO.N,CAN_STBY*%
X165600000Y-86495000D03*
X151100000Y-86495000D03*
%TO.N,GPIO2*%
X148986113Y-87082988D03*
%TO.N,GPIO6*%
X146700000Y-86400000D03*
%TO.N,UART_TX*%
X150216933Y-89514407D03*
%TO.N,ECU_UP_STM*%
X148525000Y-95135554D03*
X130500000Y-81700000D03*
X128950000Y-78350000D03*
X138800000Y-103600000D03*
%TO.N,ECU_DOWN_STM*%
X149200000Y-90200000D03*
X133500000Y-95700000D03*
X140600000Y-100300000D03*
X124250000Y-78050000D03*
%TO.N,UART_RX*%
X132500000Y-129113500D03*
%TD*%
D13*
%TO.N,UART_RX*%
X135750000Y-129113500D02*
X132500000Y-129113500D01*
%TO.N,~{DOWN_PADDLE}*%
X122100000Y-122300000D02*
X122100000Y-117004540D01*
X147443698Y-88774352D02*
X147443698Y-88681990D01*
X122100000Y-117004540D02*
X146950218Y-92154322D01*
X116671364Y-137270000D02*
X116220000Y-137270000D01*
X147443698Y-88681990D02*
X147642700Y-88482988D01*
X123202500Y-130287500D02*
X116220000Y-137270000D01*
X147243698Y-88974352D02*
X147443698Y-88774352D01*
X147243698Y-91445802D02*
X147243698Y-88974352D01*
X147243698Y-91860843D02*
X147243698Y-91860842D01*
X126575000Y-130287500D02*
X123202500Y-130287500D01*
X147243698Y-91456302D02*
X147243698Y-91445802D01*
X146950219Y-92154322D02*
X147243698Y-91860843D01*
X146950218Y-92154322D02*
X146950219Y-92154322D01*
X147243698Y-91860842D02*
X147243698Y-91456302D01*
%TO.N,GPIO7*%
X150491179Y-90918982D02*
X150510346Y-90918982D01*
X151201000Y-92582314D02*
X155318686Y-96700000D01*
X157300000Y-95600000D02*
X157800000Y-95600000D01*
X151201000Y-91609636D02*
X151201000Y-92582314D01*
X159900000Y-132240000D02*
X171280000Y-143620000D01*
X155318686Y-96700000D02*
X155900000Y-96700000D01*
X150510346Y-90918982D02*
X151201000Y-91609636D01*
X159900000Y-97700000D02*
X159900000Y-132240000D01*
X157800000Y-95600000D02*
X159900000Y-97700000D01*
%TO.N,GPIO9*%
X149599998Y-91991362D02*
X158600000Y-100991364D01*
X158600000Y-100991364D02*
X158600000Y-113900000D01*
X149599998Y-91900484D02*
X149599998Y-91991362D01*
%TO.N,GPIO4*%
X162600000Y-79799000D02*
X152001000Y-79799000D01*
X152001000Y-79799000D02*
X152000000Y-79800000D01*
%TO.N,GPIO3*%
X162721924Y-80500000D02*
X183880000Y-101658076D01*
X183880000Y-101658076D02*
X183880000Y-137270000D01*
X150500000Y-80500000D02*
X162721924Y-80500000D01*
%TO.N,GPIO0*%
X171280000Y-91183636D02*
X165890364Y-85794000D01*
X150806000Y-85794000D02*
X150000000Y-86600000D01*
X165890364Y-85794000D02*
X150806000Y-85794000D01*
X171280000Y-137270000D02*
X171280000Y-91183636D01*
%TO.N,GPIO1*%
X175480000Y-137270000D02*
X175480000Y-94675116D01*
X175480000Y-94675116D02*
X164354119Y-83549235D01*
X164354119Y-83549235D02*
X149449235Y-83549235D01*
%TO.N,GPIO5*%
X148792364Y-87783988D02*
X148695749Y-87783988D01*
X148285113Y-86514887D02*
X148400000Y-86400000D01*
X149008376Y-88000000D02*
X148792364Y-87783988D01*
X169929000Y-139979603D02*
X169929000Y-106837636D01*
X169929000Y-106837636D02*
X151091364Y-88000000D01*
X151091364Y-88000000D02*
X149008376Y-88000000D01*
X178329000Y-144971000D02*
X174920397Y-144971000D01*
X174920397Y-144971000D02*
X169929000Y-139979603D01*
X148695749Y-87783988D02*
X148285113Y-87373352D01*
X148285113Y-87373352D02*
X148285113Y-86514887D01*
X179680000Y-143620000D02*
X178329000Y-144971000D01*
%TO.N,GPIO8*%
X151125002Y-90280020D02*
X151125002Y-90525002D01*
X151125002Y-90525002D02*
X159301000Y-98701000D01*
X159301000Y-135841000D02*
X167080000Y-143620000D01*
X159301000Y-98701000D02*
X159301000Y-135841000D01*
%TO.N,GND*%
X137360213Y-129437939D02*
X136222274Y-128300000D01*
X137360213Y-130879787D02*
X137360213Y-129437939D01*
X124620000Y-143620000D02*
X137360213Y-130879787D01*
%TO.N,UP_PADDLE*%
X146201000Y-91486500D02*
X146201000Y-89101000D01*
X116675000Y-128415000D02*
X107820000Y-137270000D01*
X116675000Y-121012500D02*
X146201000Y-91486500D01*
X116675000Y-121012500D02*
X116675000Y-128415000D01*
X146201000Y-89101000D02*
X145900000Y-88800000D01*
%TO.N,DOWN_PADDLE*%
X117500000Y-129050000D02*
X117500000Y-120896020D01*
X146742698Y-91653322D02*
X146742698Y-88483988D01*
X116550000Y-132740000D02*
X112020000Y-137270000D01*
X116550000Y-130000000D02*
X117500000Y-129050000D01*
X117500000Y-120896020D02*
X146742698Y-91653322D01*
X116550000Y-130000000D02*
X116550000Y-132740000D01*
%TO.N,NEUTRAL_PEG*%
X130600000Y-113900000D02*
X130600000Y-109213062D01*
X147500000Y-92313062D02*
X147744698Y-92068364D01*
X147744698Y-91653323D02*
X147744698Y-91653321D01*
X121030000Y-137270000D02*
X120420000Y-137270000D01*
X147744698Y-91663823D02*
X147744698Y-91653323D01*
X147744698Y-92068364D02*
X147744698Y-92068363D01*
X130600000Y-109213062D02*
X147157740Y-92655323D01*
X147744698Y-91238281D02*
X147744698Y-89437976D01*
X147744698Y-89437976D02*
X148599843Y-88582831D01*
X147744698Y-92068363D02*
X147744698Y-91663823D01*
X147157740Y-92655323D02*
X147157739Y-92655322D01*
X147157739Y-92655322D02*
X147451219Y-92361844D01*
X147744698Y-91248781D02*
X147744698Y-91238281D01*
X136659213Y-130189553D02*
X128110447Y-130189553D01*
X128110447Y-130189553D02*
X121030000Y-137270000D01*
X147451219Y-92361844D02*
X147500000Y-92313062D01*
X147744698Y-91653321D02*
X147744698Y-91248781D01*
D14*
%TO.N,+5V*%
X128820000Y-143620000D02*
X127369000Y-145071000D01*
X107218976Y-145071000D02*
X106369000Y-144221024D01*
X106369000Y-144221024D02*
X106369000Y-87031000D01*
X106369000Y-87031000D02*
X116100000Y-77300000D01*
X127369000Y-145071000D02*
X107218976Y-145071000D01*
D13*
%TO.N,NRST*%
X143800000Y-84591595D02*
X161291595Y-67100000D01*
X161291595Y-67100000D02*
X165700000Y-67100000D01*
X147500000Y-87082988D02*
X146816614Y-87766374D01*
X143800000Y-86409488D02*
X143800000Y-84591595D01*
X145156886Y-87766374D02*
X143800000Y-86409488D01*
X146816614Y-87766374D02*
X145156886Y-87766374D01*
%TO.N,SWO*%
X173400000Y-77600000D02*
X172600000Y-77600000D01*
X172600000Y-77600000D02*
X171300000Y-76300000D01*
X149405025Y-96705025D02*
X150499000Y-95611049D01*
X149500116Y-93500000D02*
X149000000Y-93500000D01*
X150499000Y-95299000D02*
X150499000Y-94498884D01*
X150499000Y-94498884D02*
X149500116Y-93500000D01*
X141000000Y-101500000D02*
X139800000Y-101500000D01*
X149000000Y-93500000D02*
X141000000Y-101500000D01*
X150499000Y-95611049D02*
X150499000Y-95299000D01*
%TO.N,CAN_STBY*%
X151100000Y-86495000D02*
X165600000Y-86495000D01*
%TO.N,GPIO2*%
X179680000Y-137270000D02*
X179680000Y-98166596D01*
X179680000Y-98166596D02*
X163012404Y-81499000D01*
X148309636Y-81499000D02*
X147899000Y-81909636D01*
X147899000Y-81909636D02*
X147899000Y-84907636D01*
X149101000Y-86109636D02*
X149101000Y-86968101D01*
X149101000Y-86968101D02*
X148986113Y-87082988D01*
X163012404Y-81499000D02*
X148309636Y-81499000D01*
X147899000Y-84907636D02*
X149101000Y-86109636D01*
%TO.N,GPIO6*%
X184439603Y-138621000D02*
X185231000Y-137829603D01*
X146700000Y-82400116D02*
X146700000Y-86400000D01*
X150300116Y-78800000D02*
X146700000Y-82400116D01*
X180479000Y-138621000D02*
X184439603Y-138621000D01*
X163191364Y-78800000D02*
X150300116Y-78800000D01*
X175480000Y-143620000D02*
X180479000Y-138621000D01*
X185231000Y-137829603D02*
X185231000Y-100839636D01*
X185231000Y-100839636D02*
X163191364Y-78800000D01*
%TO.N,UART_TX*%
X148898998Y-91610120D02*
X148900000Y-91609118D01*
X149309634Y-92601484D02*
X148898998Y-92190848D01*
X150216933Y-90201864D02*
X150216933Y-89514407D01*
X148900000Y-91609118D02*
X148900000Y-91518797D01*
X118000000Y-129100000D02*
X151000000Y-96100000D01*
X151000000Y-94291364D02*
X149310120Y-92601484D01*
X118000000Y-133440000D02*
X118000000Y-129100000D01*
X148900000Y-91518797D02*
X150216933Y-90201864D01*
X107820000Y-143620000D02*
X118000000Y-133440000D01*
X151000000Y-96100000D02*
X151000000Y-94291364D01*
X148898998Y-92190848D02*
X148898998Y-91610120D01*
X149310120Y-92601484D02*
X149309634Y-92601484D01*
%TO.N,ECU_UP_STM*%
X130500000Y-81700000D02*
X130500000Y-79900000D01*
X130500000Y-79900000D02*
X128950000Y-78350000D01*
X148524999Y-95135555D02*
X148364445Y-95135555D01*
X148364445Y-95135555D02*
X139900000Y-103600000D01*
X139900000Y-103600000D02*
X138800000Y-103600000D01*
X148525000Y-95135554D02*
X148524999Y-95135555D01*
%TO.N,ECU_DOWN_STM*%
X133500000Y-95700000D02*
X124250000Y-86450000D01*
X141689208Y-99310792D02*
X140700000Y-100300000D01*
X124250000Y-86450000D02*
X124250000Y-78050000D01*
X140700000Y-100300000D02*
X140600000Y-100300000D01*
X148245698Y-92754302D02*
X141689208Y-99310792D01*
X149200000Y-90200000D02*
X148245698Y-91154302D01*
X148245698Y-91154302D02*
X148245698Y-92754302D01*
%TD*%
M02*
