G04 #@! TF.GenerationSoftware,KiCad,Pcbnew,7.0.8*
G04 #@! TF.CreationDate,2024-01-30T17:06:19-06:00*
G04 #@! TF.ProjectId,PDM_2024_TestBoard,50444d5f-3230-4323-945f-54657374426f,rev?*
G04 #@! TF.SameCoordinates,Original*
G04 #@! TF.FileFunction,Copper,L4,Bot*
G04 #@! TF.FilePolarity,Positive*
%FSLAX46Y46*%
G04 Gerber Fmt 4.6, Leading zero omitted, Abs format (unit mm)*
G04 Created by KiCad (PCBNEW 7.0.8) date 2024-01-30 17:06:19*
%MOMM*%
%LPD*%
G01*
G04 APERTURE LIST*
G04 #@! TA.AperFunction,ComponentPad*
%ADD10C,2.800000*%
G04 #@! TD*
G04 #@! TA.AperFunction,ViaPad*
%ADD11C,0.800000*%
G04 #@! TD*
G04 #@! TA.AperFunction,Conductor*
%ADD12C,0.300000*%
G04 #@! TD*
G04 #@! TA.AperFunction,Conductor*
%ADD13C,0.635000*%
G04 #@! TD*
G04 APERTURE END LIST*
D10*
X134874000Y-33274000D03*
X84328000Y-53340000D03*
X106934000Y-77724000D03*
X120904000Y-75946000D03*
D11*
X108331000Y-69735500D03*
X136779000Y-47371000D03*
X105537000Y-80518000D03*
X108077000Y-61214000D03*
X94742000Y-40767000D03*
X101898477Y-68789523D03*
X105791000Y-60833000D03*
X102362000Y-61341000D03*
X136779000Y-42799000D03*
X119761000Y-59055000D03*
X116459000Y-66802000D03*
X103759000Y-76708000D03*
X117602000Y-81407000D03*
X104902000Y-61976000D03*
X106807000Y-41910000D03*
X106807000Y-61595000D03*
X104902000Y-41910000D03*
X101854000Y-74422000D03*
X101854000Y-70358000D03*
X124206000Y-30988000D03*
X126746000Y-32766000D03*
X101092000Y-41656000D03*
X102870000Y-35306000D03*
X124206000Y-42418000D03*
X124206000Y-59690000D03*
X103886000Y-41148000D03*
X102222500Y-65786000D03*
X106680000Y-70357500D03*
X111760000Y-33528000D03*
X129794000Y-59309000D03*
X118110000Y-31242000D03*
X112014000Y-81153000D03*
X112014000Y-83566000D03*
X98806000Y-81534000D03*
X98806000Y-83947000D03*
X111760000Y-40640000D03*
X115062000Y-61976000D03*
X88900000Y-72898000D03*
X101854000Y-76962000D03*
X122174000Y-66548000D03*
X115062000Y-34798000D03*
X115557500Y-65786000D03*
X111760000Y-36322000D03*
X107188000Y-81280000D03*
X96647000Y-27940000D03*
X114808000Y-74930000D03*
X91948000Y-78740000D03*
X103124000Y-82550000D03*
X84074000Y-78740000D03*
X101092000Y-83693000D03*
X130937000Y-63119000D03*
X109220000Y-61468000D03*
X84328000Y-63754000D03*
X102108000Y-63246000D03*
X137668000Y-68326000D03*
X115062000Y-73152000D03*
X119126000Y-68072000D03*
X109728000Y-69342000D03*
X115062000Y-63246000D03*
X84074000Y-68580000D03*
X101852767Y-67791066D03*
X114566500Y-64516000D03*
D12*
X104902000Y-41910000D02*
X104902000Y-61976000D01*
X106807000Y-41910000D02*
X106807000Y-61595000D01*
X101854000Y-70358000D02*
X101854000Y-74422000D01*
X101102767Y-69606767D02*
X101102767Y-41666767D01*
X101102767Y-41666767D02*
X101092000Y-41656000D01*
X124206000Y-59690000D02*
X124206000Y-42418000D01*
X101854000Y-70358000D02*
X101102767Y-69606767D01*
X102222500Y-65786000D02*
X103886000Y-64122500D01*
X103886000Y-64122500D02*
X103886000Y-41148000D01*
X117856000Y-33528000D02*
X111760000Y-33528000D01*
X126226000Y-41898000D02*
X117856000Y-33528000D01*
X126226000Y-64782000D02*
X126226000Y-41898000D01*
X119888000Y-71120000D02*
X126226000Y-64782000D01*
X107442500Y-71120000D02*
X119888000Y-71120000D01*
X106680000Y-70357500D02*
X107442500Y-71120000D01*
X129794000Y-41402000D02*
X119634000Y-31242000D01*
X119634000Y-31242000D02*
X118110000Y-31242000D01*
X129794000Y-59309000D02*
X129794000Y-41402000D01*
X115062000Y-61976000D02*
X115062000Y-43942000D01*
X115062000Y-43942000D02*
X111760000Y-40640000D01*
X115062000Y-34798000D02*
X122174000Y-41910000D01*
X105410000Y-73406000D02*
X101854000Y-76962000D01*
X118237000Y-70485000D02*
X107868161Y-70485000D01*
X122174000Y-66548000D02*
X118237000Y-70485000D01*
X122174000Y-41910000D02*
X122174000Y-66548000D01*
X105906000Y-69608000D02*
X105410000Y-70104000D01*
X101854000Y-76962000D02*
X92964000Y-76962000D01*
X107868161Y-70485000D02*
X106991161Y-69608000D01*
X105410000Y-70104000D02*
X105410000Y-73406000D01*
X106991161Y-69608000D02*
X105906000Y-69608000D01*
X92964000Y-76962000D02*
X88900000Y-72898000D01*
X115824000Y-65519500D02*
X115824000Y-40386000D01*
X115824000Y-40386000D02*
X111760000Y-36322000D01*
X115557500Y-65786000D02*
X115824000Y-65519500D01*
X109728000Y-78740000D02*
X109728000Y-75438000D01*
D13*
X92329000Y-45466000D02*
X84455000Y-53340000D01*
X92837000Y-27940000D02*
X92329000Y-28448000D01*
X96647000Y-27940000D02*
X92837000Y-27940000D01*
D12*
X109728000Y-75438000D02*
X110236000Y-74930000D01*
X107188000Y-81280000D02*
X109728000Y-78740000D01*
D13*
X84455000Y-53340000D02*
X84328000Y-53340000D01*
D12*
X110236000Y-74930000D02*
X114808000Y-74930000D01*
D13*
X92329000Y-28448000D02*
X92329000Y-45466000D01*
D12*
X115062000Y-73152000D02*
X132842000Y-73152000D01*
X132842000Y-73152000D02*
X137668000Y-68326000D01*
X113284000Y-69342000D02*
X109728000Y-69342000D01*
X115062000Y-67564000D02*
X118618000Y-67564000D01*
X114807500Y-65475339D02*
X114807500Y-66096661D01*
X118618000Y-67564000D02*
X119126000Y-68072000D01*
X115062000Y-63246000D02*
X115316000Y-63500000D01*
X115316000Y-64966839D02*
X114807500Y-65475339D01*
X115316000Y-63500000D02*
X115316000Y-64966839D01*
X115062000Y-67564000D02*
X113284000Y-69342000D01*
X114807500Y-66096661D02*
X115062000Y-66351161D01*
X115062000Y-66351161D02*
X115062000Y-67564000D01*
X101852767Y-67791066D02*
X102575833Y-67068000D01*
X112014500Y-67068000D02*
X114566500Y-64516000D01*
X102575833Y-67068000D02*
X112014500Y-67068000D01*
G04 #@! TA.AperFunction,Conductor*
G36*
X139194019Y-26797633D02*
G01*
X139223188Y-26799544D01*
X139275780Y-26802991D01*
X139461833Y-26816298D01*
X139469475Y-26817328D01*
X139587233Y-26840752D01*
X139734306Y-26872746D01*
X139741052Y-26874618D01*
X139861739Y-26915585D01*
X139949811Y-26948435D01*
X139996528Y-26965860D01*
X140002284Y-26968345D01*
X140085937Y-27009598D01*
X140119386Y-27026093D01*
X140243587Y-27093912D01*
X140248314Y-27096773D01*
X140336727Y-27155849D01*
X140356885Y-27169318D01*
X140359595Y-27171236D01*
X140373392Y-27181564D01*
X140470895Y-27254553D01*
X140474603Y-27257560D01*
X140573200Y-27344027D01*
X140576146Y-27346786D01*
X140674211Y-27444851D01*
X140676971Y-27447798D01*
X140763430Y-27546385D01*
X140766451Y-27550111D01*
X140849762Y-27661403D01*
X140851680Y-27664113D01*
X140924220Y-27772676D01*
X140927086Y-27777410D01*
X140994906Y-27901613D01*
X141052652Y-28018712D01*
X141055138Y-28024470D01*
X141105409Y-28159247D01*
X141110510Y-28174272D01*
X141146378Y-28279939D01*
X141148253Y-28286694D01*
X141180247Y-28433766D01*
X141203667Y-28551507D01*
X141204702Y-28559187D01*
X141218017Y-28745354D01*
X141223367Y-28826967D01*
X141223500Y-28831024D01*
X141223500Y-44072000D01*
X141203815Y-44139039D01*
X141151011Y-44184794D01*
X141099500Y-44196000D01*
X130568500Y-44196000D01*
X130501461Y-44176315D01*
X130455706Y-44123511D01*
X130444500Y-44072000D01*
X130444500Y-41487503D01*
X130446268Y-41471491D01*
X130446026Y-41471469D01*
X130446760Y-41463706D01*
X130444500Y-41391782D01*
X130444500Y-41361078D01*
X130444500Y-41361075D01*
X130443579Y-41353792D01*
X130443123Y-41347987D01*
X130441598Y-41299431D01*
X130435675Y-41279045D01*
X130431729Y-41259990D01*
X130429071Y-41238943D01*
X130428346Y-41237111D01*
X130411186Y-41193772D01*
X130409297Y-41188252D01*
X130404637Y-41172214D01*
X130395744Y-41141602D01*
X130384940Y-41123334D01*
X130376378Y-41105856D01*
X130368568Y-41086129D01*
X130368565Y-41086125D01*
X130340014Y-41046827D01*
X130336811Y-41041951D01*
X130321363Y-41015830D01*
X130312081Y-41000135D01*
X130312079Y-41000133D01*
X130312078Y-41000131D01*
X130297075Y-40985129D01*
X130284435Y-40970330D01*
X130271961Y-40953160D01*
X130234528Y-40922194D01*
X130230206Y-40918260D01*
X122077946Y-32766000D01*
X125840540Y-32766000D01*
X125860326Y-32954256D01*
X125860327Y-32954259D01*
X125918818Y-33134277D01*
X125918821Y-33134284D01*
X126013467Y-33298216D01*
X126068193Y-33358995D01*
X126140129Y-33438888D01*
X126293265Y-33550148D01*
X126293270Y-33550151D01*
X126466192Y-33627142D01*
X126466197Y-33627144D01*
X126651354Y-33666500D01*
X126651355Y-33666500D01*
X126840644Y-33666500D01*
X126840646Y-33666500D01*
X127025803Y-33627144D01*
X127198730Y-33550151D01*
X127351871Y-33438888D01*
X127478533Y-33298216D01*
X127492514Y-33274001D01*
X132969147Y-33274001D01*
X132988536Y-33545090D01*
X132988537Y-33545097D01*
X133046305Y-33810654D01*
X133141285Y-34065306D01*
X133141287Y-34065310D01*
X133271532Y-34303835D01*
X133271537Y-34303843D01*
X133365320Y-34429124D01*
X133365321Y-34429124D01*
X134233859Y-33560586D01*
X134293680Y-33674566D01*
X134406405Y-33801806D01*
X134546305Y-33898371D01*
X134587542Y-33914010D01*
X133718874Y-34782677D01*
X133718875Y-34782678D01*
X133844156Y-34876462D01*
X133844164Y-34876467D01*
X134082689Y-35006712D01*
X134082693Y-35006714D01*
X134337345Y-35101694D01*
X134602902Y-35159462D01*
X134602909Y-35159463D01*
X134873999Y-35178853D01*
X134874001Y-35178853D01*
X135145090Y-35159463D01*
X135145097Y-35159462D01*
X135410654Y-35101694D01*
X135665306Y-35006714D01*
X135665310Y-35006712D01*
X135903835Y-34876467D01*
X135903843Y-34876462D01*
X136029123Y-34782678D01*
X136029124Y-34782677D01*
X135160458Y-33914010D01*
X135201695Y-33898371D01*
X135341595Y-33801806D01*
X135454320Y-33674566D01*
X135514140Y-33560587D01*
X136382677Y-34429124D01*
X136382678Y-34429123D01*
X136476462Y-34303843D01*
X136476467Y-34303835D01*
X136606712Y-34065310D01*
X136606714Y-34065306D01*
X136701694Y-33810654D01*
X136759462Y-33545097D01*
X136759463Y-33545090D01*
X136778853Y-33274001D01*
X136778853Y-33273998D01*
X136759463Y-33002909D01*
X136759462Y-33002902D01*
X136701694Y-32737345D01*
X136606714Y-32482693D01*
X136606712Y-32482689D01*
X136476467Y-32244164D01*
X136476462Y-32244156D01*
X136382678Y-32118875D01*
X136382677Y-32118874D01*
X135514139Y-32987412D01*
X135454320Y-32873434D01*
X135341595Y-32746194D01*
X135201695Y-32649629D01*
X135160457Y-32633989D01*
X136029124Y-31765321D01*
X136029124Y-31765320D01*
X135903843Y-31671537D01*
X135903835Y-31671532D01*
X135665310Y-31541287D01*
X135665306Y-31541285D01*
X135410654Y-31446305D01*
X135145097Y-31388537D01*
X135145090Y-31388536D01*
X134874001Y-31369147D01*
X134873999Y-31369147D01*
X134602909Y-31388536D01*
X134602902Y-31388537D01*
X134337345Y-31446305D01*
X134082693Y-31541285D01*
X134082689Y-31541287D01*
X133844164Y-31671532D01*
X133718875Y-31765321D01*
X134587543Y-32633989D01*
X134546305Y-32649629D01*
X134406405Y-32746194D01*
X134293680Y-32873434D01*
X134233859Y-32987413D01*
X133365321Y-32118875D01*
X133271532Y-32244164D01*
X133141287Y-32482689D01*
X133141285Y-32482693D01*
X133046305Y-32737345D01*
X132988537Y-33002902D01*
X132988536Y-33002909D01*
X132969147Y-33273998D01*
X132969147Y-33274001D01*
X127492514Y-33274001D01*
X127573179Y-33134284D01*
X127631674Y-32954256D01*
X127651460Y-32766000D01*
X127631674Y-32577744D01*
X127573179Y-32397716D01*
X127478533Y-32233784D01*
X127351871Y-32093112D01*
X127351870Y-32093111D01*
X127198734Y-31981851D01*
X127198729Y-31981848D01*
X127025807Y-31904857D01*
X127025802Y-31904855D01*
X126880001Y-31873865D01*
X126840646Y-31865500D01*
X126651354Y-31865500D01*
X126618897Y-31872398D01*
X126466197Y-31904855D01*
X126466192Y-31904857D01*
X126293270Y-31981848D01*
X126293265Y-31981851D01*
X126140129Y-32093111D01*
X126013466Y-32233785D01*
X125918821Y-32397715D01*
X125918818Y-32397722D01*
X125860327Y-32577740D01*
X125860326Y-32577744D01*
X125840540Y-32766000D01*
X122077946Y-32766000D01*
X120299946Y-30988000D01*
X123300540Y-30988000D01*
X123320326Y-31176256D01*
X123320327Y-31176259D01*
X123378818Y-31356277D01*
X123378821Y-31356284D01*
X123473467Y-31520216D01*
X123554559Y-31610277D01*
X123600129Y-31660888D01*
X123753265Y-31772148D01*
X123753270Y-31772151D01*
X123926192Y-31849142D01*
X123926197Y-31849144D01*
X124111354Y-31888500D01*
X124111355Y-31888500D01*
X124300644Y-31888500D01*
X124300646Y-31888500D01*
X124485803Y-31849144D01*
X124658730Y-31772151D01*
X124811871Y-31660888D01*
X124938533Y-31520216D01*
X125033179Y-31356284D01*
X125091674Y-31176256D01*
X125111460Y-30988000D01*
X125091674Y-30799744D01*
X125033179Y-30619716D01*
X124938533Y-30455784D01*
X124811871Y-30315112D01*
X124811870Y-30315111D01*
X124658734Y-30203851D01*
X124658729Y-30203848D01*
X124485807Y-30126857D01*
X124485802Y-30126855D01*
X124340001Y-30095865D01*
X124300646Y-30087500D01*
X124111354Y-30087500D01*
X124078897Y-30094398D01*
X123926197Y-30126855D01*
X123926192Y-30126857D01*
X123753270Y-30203848D01*
X123753265Y-30203851D01*
X123600129Y-30315111D01*
X123473466Y-30455785D01*
X123378821Y-30619715D01*
X123378818Y-30619722D01*
X123320327Y-30799740D01*
X123320326Y-30799744D01*
X123300540Y-30988000D01*
X120299946Y-30988000D01*
X120154434Y-30842488D01*
X120144361Y-30829914D01*
X120144174Y-30830070D01*
X120139201Y-30824059D01*
X120086756Y-30774810D01*
X120065035Y-30753089D01*
X120059240Y-30748594D01*
X120054798Y-30744799D01*
X120019396Y-30711554D01*
X120019388Y-30711548D01*
X120000792Y-30701325D01*
X119984531Y-30690644D01*
X119967763Y-30677637D01*
X119944295Y-30667482D01*
X119923178Y-30658343D01*
X119917956Y-30655786D01*
X119875368Y-30632373D01*
X119875365Y-30632372D01*
X119854801Y-30627092D01*
X119836396Y-30620790D01*
X119816927Y-30612365D01*
X119816921Y-30612363D01*
X119768951Y-30604766D01*
X119763236Y-30603582D01*
X119746772Y-30599355D01*
X119716180Y-30591500D01*
X119716177Y-30591500D01*
X119694955Y-30591500D01*
X119675555Y-30589973D01*
X119654596Y-30586653D01*
X119654595Y-30586653D01*
X119630786Y-30588903D01*
X119606230Y-30591225D01*
X119600392Y-30591500D01*
X118786975Y-30591500D01*
X118719936Y-30571815D01*
X118714090Y-30567818D01*
X118562734Y-30457851D01*
X118562729Y-30457848D01*
X118389807Y-30380857D01*
X118389802Y-30380855D01*
X118244001Y-30349865D01*
X118204646Y-30341500D01*
X118015354Y-30341500D01*
X117982897Y-30348398D01*
X117830197Y-30380855D01*
X117830192Y-30380857D01*
X117657270Y-30457848D01*
X117657265Y-30457851D01*
X117504129Y-30569111D01*
X117377466Y-30709785D01*
X117282821Y-30873715D01*
X117282818Y-30873722D01*
X117224327Y-31053740D01*
X117224326Y-31053744D01*
X117204540Y-31242000D01*
X117224326Y-31430256D01*
X117224327Y-31430259D01*
X117282818Y-31610277D01*
X117282821Y-31610284D01*
X117377467Y-31774216D01*
X117444931Y-31849142D01*
X117504129Y-31914888D01*
X117657265Y-32026148D01*
X117657270Y-32026151D01*
X117830192Y-32103142D01*
X117830197Y-32103144D01*
X118015354Y-32142500D01*
X118015355Y-32142500D01*
X118204644Y-32142500D01*
X118204646Y-32142500D01*
X118389803Y-32103144D01*
X118562730Y-32026151D01*
X118714090Y-31916182D01*
X118779896Y-31892702D01*
X118786975Y-31892500D01*
X119313192Y-31892500D01*
X119380231Y-31912185D01*
X119400873Y-31928819D01*
X129107181Y-41635126D01*
X129140666Y-41696449D01*
X129143500Y-41722807D01*
X129143500Y-44072000D01*
X129123815Y-44139039D01*
X129071011Y-44184794D01*
X129019500Y-44196000D01*
X127000500Y-44196000D01*
X126933461Y-44176315D01*
X126887706Y-44123511D01*
X126876500Y-44072000D01*
X126876500Y-41983503D01*
X126878268Y-41967491D01*
X126878026Y-41967469D01*
X126878760Y-41959706D01*
X126876500Y-41887782D01*
X126876500Y-41857078D01*
X126876500Y-41857075D01*
X126875579Y-41849792D01*
X126875123Y-41843987D01*
X126873598Y-41795431D01*
X126867676Y-41775050D01*
X126863731Y-41755995D01*
X126861072Y-41734949D01*
X126861071Y-41734948D01*
X126861071Y-41734942D01*
X126843189Y-41689779D01*
X126841300Y-41684259D01*
X126836205Y-41666723D01*
X126827745Y-41637602D01*
X126825527Y-41633851D01*
X126816936Y-41619324D01*
X126808378Y-41601855D01*
X126800568Y-41582129D01*
X126772006Y-41542818D01*
X126768818Y-41537964D01*
X126744081Y-41496135D01*
X126729075Y-41481129D01*
X126716435Y-41466330D01*
X126703961Y-41449160D01*
X126666528Y-41418194D01*
X126662206Y-41414260D01*
X118376434Y-33128488D01*
X118366361Y-33115914D01*
X118366174Y-33116070D01*
X118361201Y-33110059D01*
X118308756Y-33060810D01*
X118287035Y-33039089D01*
X118281240Y-33034594D01*
X118276798Y-33030799D01*
X118241396Y-32997554D01*
X118241388Y-32997548D01*
X118222792Y-32987325D01*
X118206531Y-32976644D01*
X118189763Y-32963637D01*
X118166295Y-32953482D01*
X118145178Y-32944343D01*
X118139956Y-32941786D01*
X118097368Y-32918373D01*
X118097365Y-32918372D01*
X118076801Y-32913092D01*
X118058396Y-32906790D01*
X118038927Y-32898365D01*
X118038921Y-32898363D01*
X117990951Y-32890766D01*
X117985236Y-32889582D01*
X117968772Y-32885355D01*
X117938180Y-32877500D01*
X117938177Y-32877500D01*
X117916955Y-32877500D01*
X117897555Y-32875973D01*
X117876596Y-32872653D01*
X117876595Y-32872653D01*
X117852786Y-32874903D01*
X117828230Y-32877225D01*
X117822392Y-32877500D01*
X112436975Y-32877500D01*
X112369936Y-32857815D01*
X112364090Y-32853818D01*
X112212734Y-32743851D01*
X112212729Y-32743848D01*
X112039807Y-32666857D01*
X112039802Y-32666855D01*
X111894001Y-32635865D01*
X111854646Y-32627500D01*
X111665354Y-32627500D01*
X111632897Y-32634398D01*
X111480197Y-32666855D01*
X111480192Y-32666857D01*
X111307270Y-32743848D01*
X111307265Y-32743851D01*
X111154129Y-32855111D01*
X111027466Y-32995785D01*
X110932821Y-33159715D01*
X110932818Y-33159722D01*
X110895687Y-33274001D01*
X110874326Y-33339744D01*
X110854540Y-33528000D01*
X110874326Y-33716256D01*
X110874327Y-33716259D01*
X110932818Y-33896277D01*
X110932821Y-33896284D01*
X111027467Y-34060216D01*
X111032054Y-34065310D01*
X111154129Y-34200888D01*
X111307265Y-34312148D01*
X111307270Y-34312151D01*
X111480192Y-34389142D01*
X111480197Y-34389144D01*
X111665354Y-34428500D01*
X111665355Y-34428500D01*
X111854644Y-34428500D01*
X111854646Y-34428500D01*
X112039803Y-34389144D01*
X112212730Y-34312151D01*
X112364090Y-34202182D01*
X112429896Y-34178702D01*
X112436975Y-34178500D01*
X114165086Y-34178500D01*
X114232125Y-34198185D01*
X114277880Y-34250989D01*
X114287824Y-34320147D01*
X114272474Y-34364498D01*
X114235164Y-34429123D01*
X114234820Y-34429718D01*
X114234818Y-34429722D01*
X114204884Y-34521851D01*
X114176326Y-34609744D01*
X114156540Y-34798000D01*
X114176326Y-34986256D01*
X114176327Y-34986259D01*
X114234818Y-35166277D01*
X114234821Y-35166284D01*
X114329467Y-35330216D01*
X114411660Y-35421500D01*
X114456129Y-35470888D01*
X114609265Y-35582148D01*
X114609270Y-35582151D01*
X114782192Y-35659142D01*
X114782197Y-35659144D01*
X114967354Y-35698500D01*
X114991192Y-35698500D01*
X115058231Y-35718185D01*
X115078873Y-35734819D01*
X121487181Y-42143127D01*
X121520666Y-42204450D01*
X121523500Y-42230808D01*
X121523500Y-44072000D01*
X121503815Y-44139039D01*
X121451011Y-44184794D01*
X121399500Y-44196000D01*
X116598500Y-44196000D01*
X116531461Y-44176315D01*
X116485706Y-44123511D01*
X116474500Y-44072000D01*
X116474500Y-40471502D01*
X116476268Y-40455489D01*
X116476026Y-40455467D01*
X116476758Y-40447711D01*
X116476760Y-40447704D01*
X116474500Y-40375796D01*
X116474500Y-40345075D01*
X116473579Y-40337788D01*
X116473122Y-40331979D01*
X116471597Y-40283431D01*
X116465676Y-40263053D01*
X116461731Y-40244004D01*
X116459071Y-40222942D01*
X116441185Y-40177769D01*
X116439296Y-40172249D01*
X116425743Y-40125600D01*
X116414940Y-40107334D01*
X116406378Y-40089856D01*
X116398568Y-40070129D01*
X116398565Y-40070125D01*
X116370014Y-40030827D01*
X116366811Y-40025951D01*
X116342081Y-39984135D01*
X116342079Y-39984133D01*
X116342078Y-39984131D01*
X116327075Y-39969129D01*
X116314435Y-39954330D01*
X116301961Y-39937160D01*
X116264528Y-39906194D01*
X116260206Y-39902260D01*
X112694808Y-36336862D01*
X112661323Y-36275539D01*
X112659168Y-36262141D01*
X112653320Y-36206500D01*
X112645674Y-36133744D01*
X112587179Y-35953716D01*
X112492533Y-35789784D01*
X112365871Y-35649112D01*
X112365870Y-35649111D01*
X112212734Y-35537851D01*
X112212729Y-35537848D01*
X112039807Y-35460857D01*
X112039802Y-35460855D01*
X111894001Y-35429865D01*
X111854646Y-35421500D01*
X111665354Y-35421500D01*
X111632897Y-35428398D01*
X111480197Y-35460855D01*
X111480192Y-35460857D01*
X111307270Y-35537848D01*
X111307265Y-35537851D01*
X111154129Y-35649111D01*
X111027466Y-35789785D01*
X110932821Y-35953715D01*
X110932818Y-35953722D01*
X110888491Y-36090148D01*
X110874326Y-36133744D01*
X110854540Y-36322000D01*
X110874326Y-36510256D01*
X110874327Y-36510259D01*
X110932818Y-36690277D01*
X110932821Y-36690284D01*
X111027467Y-36854216D01*
X111154129Y-36994888D01*
X111307265Y-37106148D01*
X111307270Y-37106151D01*
X111480192Y-37183142D01*
X111480197Y-37183144D01*
X111665354Y-37222500D01*
X111689192Y-37222500D01*
X111756231Y-37242185D01*
X111776873Y-37258819D01*
X115137181Y-40619127D01*
X115170666Y-40680450D01*
X115173500Y-40706808D01*
X115173500Y-42834192D01*
X115153815Y-42901231D01*
X115101011Y-42946986D01*
X115031853Y-42956930D01*
X114968297Y-42927905D01*
X114961819Y-42921873D01*
X112694808Y-40654862D01*
X112661323Y-40593539D01*
X112659168Y-40580141D01*
X112647750Y-40471502D01*
X112645674Y-40451744D01*
X112587179Y-40271716D01*
X112492533Y-40107784D01*
X112365871Y-39967112D01*
X112324650Y-39937163D01*
X112212734Y-39855851D01*
X112212729Y-39855848D01*
X112039807Y-39778857D01*
X112039802Y-39778855D01*
X111894001Y-39747865D01*
X111854646Y-39739500D01*
X111665354Y-39739500D01*
X111632897Y-39746398D01*
X111480197Y-39778855D01*
X111480192Y-39778857D01*
X111307270Y-39855848D01*
X111307265Y-39855851D01*
X111154129Y-39967111D01*
X111027466Y-40107785D01*
X110932821Y-40271715D01*
X110932818Y-40271722D01*
X110875638Y-40447705D01*
X110874326Y-40451744D01*
X110854540Y-40640000D01*
X110874326Y-40828256D01*
X110874327Y-40828259D01*
X110932818Y-41008277D01*
X110932821Y-41008284D01*
X111027467Y-41172216D01*
X111142012Y-41299431D01*
X111154129Y-41312888D01*
X111307265Y-41424148D01*
X111307270Y-41424151D01*
X111480192Y-41501142D01*
X111480197Y-41501144D01*
X111665354Y-41540500D01*
X111689192Y-41540500D01*
X111756231Y-41560185D01*
X111776873Y-41576819D01*
X114184373Y-43984319D01*
X114217858Y-44045642D01*
X114212874Y-44115334D01*
X114171002Y-44171267D01*
X114105538Y-44195684D01*
X114096692Y-44196000D01*
X107581500Y-44196000D01*
X107514461Y-44176315D01*
X107468706Y-44123511D01*
X107457500Y-44072000D01*
X107457500Y-42580921D01*
X107477185Y-42513882D01*
X107489351Y-42497948D01*
X107539533Y-42442216D01*
X107634179Y-42278284D01*
X107692674Y-42098256D01*
X107712460Y-41910000D01*
X107692674Y-41721744D01*
X107634179Y-41541716D01*
X107539533Y-41377784D01*
X107412871Y-41237112D01*
X107412870Y-41237111D01*
X107259734Y-41125851D01*
X107259729Y-41125848D01*
X107086807Y-41048857D01*
X107086802Y-41048855D01*
X106941001Y-41017865D01*
X106901646Y-41009500D01*
X106712354Y-41009500D01*
X106679897Y-41016398D01*
X106527197Y-41048855D01*
X106527192Y-41048857D01*
X106354270Y-41125848D01*
X106354265Y-41125851D01*
X106201129Y-41237111D01*
X106074466Y-41377785D01*
X105979821Y-41541715D01*
X105979818Y-41541722D01*
X105972431Y-41564459D01*
X105932993Y-41622135D01*
X105868635Y-41649333D01*
X105799789Y-41637418D01*
X105748313Y-41590174D01*
X105736569Y-41564459D01*
X105729181Y-41541722D01*
X105729180Y-41541721D01*
X105729179Y-41541716D01*
X105634533Y-41377784D01*
X105507871Y-41237112D01*
X105507870Y-41237111D01*
X105354734Y-41125851D01*
X105354729Y-41125848D01*
X105181807Y-41048857D01*
X105181802Y-41048855D01*
X105036001Y-41017865D01*
X104996646Y-41009500D01*
X104877932Y-41009500D01*
X104810893Y-40989815D01*
X104765138Y-40937011D01*
X104760001Y-40923818D01*
X104713181Y-40779722D01*
X104713180Y-40779721D01*
X104713179Y-40779716D01*
X104618533Y-40615784D01*
X104491871Y-40475112D01*
X104491870Y-40475111D01*
X104338734Y-40363851D01*
X104338729Y-40363848D01*
X104165807Y-40286857D01*
X104165802Y-40286855D01*
X104009730Y-40253682D01*
X103980646Y-40247500D01*
X103791354Y-40247500D01*
X103762270Y-40253682D01*
X103606197Y-40286855D01*
X103606192Y-40286857D01*
X103433270Y-40363848D01*
X103433265Y-40363851D01*
X103280129Y-40475111D01*
X103153466Y-40615785D01*
X103058821Y-40779715D01*
X103058818Y-40779722D01*
X103011999Y-40923818D01*
X103000326Y-40959744D01*
X102980540Y-41148000D01*
X103000326Y-41336256D01*
X103000327Y-41336259D01*
X103058818Y-41516277D01*
X103058821Y-41516284D01*
X103145676Y-41666723D01*
X103153467Y-41680216D01*
X103191816Y-41722807D01*
X103203649Y-41735948D01*
X103233880Y-41798940D01*
X103235500Y-41818921D01*
X103235500Y-44072000D01*
X103215815Y-44139039D01*
X103163011Y-44184794D01*
X103111500Y-44196000D01*
X101877267Y-44196000D01*
X101810228Y-44176315D01*
X101764473Y-44123511D01*
X101753267Y-44072000D01*
X101753267Y-42314963D01*
X101772952Y-42247924D01*
X101785118Y-42231990D01*
X101824533Y-42188216D01*
X101919179Y-42024284D01*
X101977674Y-41844256D01*
X101997460Y-41656000D01*
X101977674Y-41467744D01*
X101919179Y-41287716D01*
X101824533Y-41123784D01*
X101697871Y-40983112D01*
X101665708Y-40959744D01*
X101544734Y-40871851D01*
X101544729Y-40871848D01*
X101371807Y-40794857D01*
X101371802Y-40794855D01*
X101226001Y-40763865D01*
X101186646Y-40755500D01*
X100997354Y-40755500D01*
X100964897Y-40762398D01*
X100812197Y-40794855D01*
X100812192Y-40794857D01*
X100639270Y-40871848D01*
X100639265Y-40871851D01*
X100486129Y-40983111D01*
X100359466Y-41123785D01*
X100264821Y-41287715D01*
X100264818Y-41287722D01*
X100207638Y-41463706D01*
X100206326Y-41467744D01*
X100186540Y-41656000D01*
X100206326Y-41844256D01*
X100206327Y-41844259D01*
X100264818Y-42024277D01*
X100264821Y-42024284D01*
X100349334Y-42170666D01*
X100359467Y-42188216D01*
X100420418Y-42255908D01*
X100450647Y-42318898D01*
X100452267Y-42338879D01*
X100452267Y-44072000D01*
X100432582Y-44139039D01*
X100379778Y-44184794D01*
X100328267Y-44196000D01*
X93271000Y-44196000D01*
X93203961Y-44176315D01*
X93158206Y-44123511D01*
X93147000Y-44072000D01*
X93147000Y-35306000D01*
X101964540Y-35306000D01*
X101984326Y-35494256D01*
X101984327Y-35494259D01*
X102042818Y-35674277D01*
X102042821Y-35674284D01*
X102137467Y-35838216D01*
X102264129Y-35978888D01*
X102417265Y-36090148D01*
X102417270Y-36090151D01*
X102590192Y-36167142D01*
X102590197Y-36167144D01*
X102775354Y-36206500D01*
X102775355Y-36206500D01*
X102964644Y-36206500D01*
X102964646Y-36206500D01*
X103149803Y-36167144D01*
X103322730Y-36090151D01*
X103475871Y-35978888D01*
X103602533Y-35838216D01*
X103697179Y-35674284D01*
X103755674Y-35494256D01*
X103775460Y-35306000D01*
X103755674Y-35117744D01*
X103697179Y-34937716D01*
X103602533Y-34773784D01*
X103475871Y-34633112D01*
X103475870Y-34633111D01*
X103322734Y-34521851D01*
X103322729Y-34521848D01*
X103149807Y-34444857D01*
X103149802Y-34444855D01*
X103004001Y-34413865D01*
X102964646Y-34405500D01*
X102775354Y-34405500D01*
X102742897Y-34412398D01*
X102590197Y-34444855D01*
X102590192Y-34444857D01*
X102417270Y-34521848D01*
X102417265Y-34521851D01*
X102264129Y-34633111D01*
X102137466Y-34773785D01*
X102042821Y-34937715D01*
X102042818Y-34937722D01*
X101989541Y-35101694D01*
X101984326Y-35117744D01*
X101964540Y-35306000D01*
X93147000Y-35306000D01*
X93147000Y-28882000D01*
X93166685Y-28814961D01*
X93219489Y-28769206D01*
X93271000Y-28758000D01*
X96243938Y-28758000D01*
X96294374Y-28768721D01*
X96331405Y-28785208D01*
X96367197Y-28801144D01*
X96552354Y-28840500D01*
X96552355Y-28840500D01*
X96741644Y-28840500D01*
X96741646Y-28840500D01*
X96926803Y-28801144D01*
X97099730Y-28724151D01*
X97252871Y-28612888D01*
X97379533Y-28472216D01*
X97474179Y-28308284D01*
X97532674Y-28128256D01*
X97552460Y-27940000D01*
X97532674Y-27751744D01*
X97474179Y-27571716D01*
X97379533Y-27407784D01*
X97252871Y-27267112D01*
X97239735Y-27257568D01*
X97099734Y-27155851D01*
X97099729Y-27155848D01*
X96926807Y-27078857D01*
X96926802Y-27078855D01*
X96757124Y-27042790D01*
X96695642Y-27009598D01*
X96661866Y-26948435D01*
X96666518Y-26878720D01*
X96708123Y-26822588D01*
X96773470Y-26797859D01*
X96782905Y-26797500D01*
X139189964Y-26797500D01*
X139194019Y-26797633D01*
G37*
G04 #@! TD.AperFunction*
G04 #@! TA.AperFunction,Conductor*
G36*
X99638039Y-78759685D02*
G01*
X99683794Y-78812489D01*
X99695000Y-78864000D01*
X99695000Y-84711499D01*
X99675315Y-84778538D01*
X99622511Y-84824293D01*
X99571000Y-84835499D01*
X97914000Y-84835499D01*
X97846961Y-84815814D01*
X97801206Y-84763010D01*
X97790000Y-84711499D01*
X97790000Y-78864000D01*
X97809685Y-78796961D01*
X97862489Y-78751206D01*
X97914000Y-78740000D01*
X99571000Y-78740000D01*
X99638039Y-78759685D01*
G37*
G04 #@! TD.AperFunction*
G04 #@! TA.AperFunction,Conductor*
G36*
X112846039Y-78505685D02*
G01*
X112891794Y-78558489D01*
X112903000Y-78610000D01*
X112903000Y-84711499D01*
X112883315Y-84778538D01*
X112830511Y-84824293D01*
X112779000Y-84835499D01*
X111122000Y-84835499D01*
X111054961Y-84815814D01*
X111009206Y-84763010D01*
X110998000Y-84711499D01*
X110998000Y-78610000D01*
X111017685Y-78542961D01*
X111070489Y-78497206D01*
X111122000Y-78486000D01*
X112779000Y-78486000D01*
X112846039Y-78505685D01*
G37*
G04 #@! TD.AperFunction*
M02*
