G04 #@! TF.GenerationSoftware,KiCad,Pcbnew,7.0.8*
G04 #@! TF.CreationDate,2024-01-30T17:06:19-06:00*
G04 #@! TF.ProjectId,PDM_2024_TestBoard,50444d5f-3230-4323-945f-54657374426f,rev?*
G04 #@! TF.SameCoordinates,Original*
G04 #@! TF.FileFunction,Copper,L1,Top*
G04 #@! TF.FilePolarity,Positive*
%FSLAX46Y46*%
G04 Gerber Fmt 4.6, Leading zero omitted, Abs format (unit mm)*
G04 Created by KiCad (PCBNEW 7.0.8) date 2024-01-30 17:06:19*
%MOMM*%
%LPD*%
G01*
G04 APERTURE LIST*
G04 Aperture macros list*
%AMRoundRect*
0 Rectangle with rounded corners*
0 $1 Rounding radius*
0 $2 $3 $4 $5 $6 $7 $8 $9 X,Y pos of 4 corners*
0 Add a 4 corners polygon primitive as box body*
4,1,4,$2,$3,$4,$5,$6,$7,$8,$9,$2,$3,0*
0 Add four circle primitives for the rounded corners*
1,1,$1+$1,$2,$3*
1,1,$1+$1,$4,$5*
1,1,$1+$1,$6,$7*
1,1,$1+$1,$8,$9*
0 Add four rect primitives between the rounded corners*
20,1,$1+$1,$2,$3,$4,$5,0*
20,1,$1+$1,$4,$5,$6,$7,0*
20,1,$1+$1,$6,$7,$8,$9,0*
20,1,$1+$1,$8,$9,$2,$3,0*%
%AMFreePoly0*
4,1,21,1.372500,0.787500,0.862500,0.787500,0.862500,0.532500,1.372500,0.532500,1.372500,0.127500,0.862500,0.127500,0.862500,-0.127500,1.372500,-0.127500,1.372500,-0.532500,0.862500,-0.532500,0.862500,-0.787500,1.372500,-0.787500,1.372500,-1.195000,0.612500,-1.195000,0.612500,-1.117500,-0.862500,-1.117500,-0.862500,1.117500,0.612500,1.117500,0.612500,1.195000,1.372500,1.195000,
1.372500,0.787500,1.372500,0.787500,$1*%
G04 Aperture macros list end*
G04 #@! TA.AperFunction,SMDPad,CuDef*
%ADD10C,2.000000*%
G04 #@! TD*
G04 #@! TA.AperFunction,SMDPad,CuDef*
%ADD11RoundRect,0.225000X-0.250000X0.225000X-0.250000X-0.225000X0.250000X-0.225000X0.250000X0.225000X0*%
G04 #@! TD*
G04 #@! TA.AperFunction,ComponentPad*
%ADD12C,2.800000*%
G04 #@! TD*
G04 #@! TA.AperFunction,SMDPad,CuDef*
%ADD13RoundRect,0.200000X-0.200000X-0.275000X0.200000X-0.275000X0.200000X0.275000X-0.200000X0.275000X0*%
G04 #@! TD*
G04 #@! TA.AperFunction,SMDPad,CuDef*
%ADD14R,1.450000X0.450000*%
G04 #@! TD*
G04 #@! TA.AperFunction,SMDPad,CuDef*
%ADD15RoundRect,0.825000X1.625000X-0.825000X1.625000X0.825000X-1.625000X0.825000X-1.625000X-0.825000X0*%
G04 #@! TD*
G04 #@! TA.AperFunction,SMDPad,CuDef*
%ADD16RoundRect,0.250000X-0.375000X-0.625000X0.375000X-0.625000X0.375000X0.625000X-0.375000X0.625000X0*%
G04 #@! TD*
G04 #@! TA.AperFunction,SMDPad,CuDef*
%ADD17RoundRect,0.200000X0.275000X-0.200000X0.275000X0.200000X-0.275000X0.200000X-0.275000X-0.200000X0*%
G04 #@! TD*
G04 #@! TA.AperFunction,SMDPad,CuDef*
%ADD18RoundRect,0.100000X-0.637500X-0.100000X0.637500X-0.100000X0.637500X0.100000X-0.637500X0.100000X0*%
G04 #@! TD*
G04 #@! TA.AperFunction,SMDPad,CuDef*
%ADD19RoundRect,0.250000X-1.425000X0.362500X-1.425000X-0.362500X1.425000X-0.362500X1.425000X0.362500X0*%
G04 #@! TD*
G04 #@! TA.AperFunction,SMDPad,CuDef*
%ADD20RoundRect,0.225000X0.250000X-0.225000X0.250000X0.225000X-0.250000X0.225000X-0.250000X-0.225000X0*%
G04 #@! TD*
G04 #@! TA.AperFunction,SMDPad,CuDef*
%ADD21RoundRect,0.225000X-0.225000X-0.250000X0.225000X-0.250000X0.225000X0.250000X-0.225000X0.250000X0*%
G04 #@! TD*
G04 #@! TA.AperFunction,SMDPad,CuDef*
%ADD22RoundRect,0.225000X0.225000X0.250000X-0.225000X0.250000X-0.225000X-0.250000X0.225000X-0.250000X0*%
G04 #@! TD*
G04 #@! TA.AperFunction,SMDPad,CuDef*
%ADD23RoundRect,0.225000X-0.375000X0.225000X-0.375000X-0.225000X0.375000X-0.225000X0.375000X0.225000X0*%
G04 #@! TD*
G04 #@! TA.AperFunction,SMDPad,CuDef*
%ADD24R,0.650000X0.400000*%
G04 #@! TD*
G04 #@! TA.AperFunction,SMDPad,CuDef*
%ADD25RoundRect,0.200000X-0.275000X0.200000X-0.275000X-0.200000X0.275000X-0.200000X0.275000X0.200000X0*%
G04 #@! TD*
G04 #@! TA.AperFunction,SMDPad,CuDef*
%ADD26R,0.405000X0.990000*%
G04 #@! TD*
G04 #@! TA.AperFunction,SMDPad,CuDef*
%ADD27FreePoly0,90.000000*%
G04 #@! TD*
G04 #@! TA.AperFunction,SMDPad,CuDef*
%ADD28R,0.300000X0.670000*%
G04 #@! TD*
G04 #@! TA.AperFunction,SMDPad,CuDef*
%ADD29RoundRect,0.250000X0.250000X0.475000X-0.250000X0.475000X-0.250000X-0.475000X0.250000X-0.475000X0*%
G04 #@! TD*
G04 #@! TA.AperFunction,ViaPad*
%ADD30C,0.800000*%
G04 #@! TD*
G04 #@! TA.AperFunction,Conductor*
%ADD31C,0.300000*%
G04 #@! TD*
G04 #@! TA.AperFunction,Conductor*
%ADD32C,0.635000*%
G04 #@! TD*
G04 #@! TA.AperFunction,Conductor*
%ADD33C,1.000000*%
G04 #@! TD*
G04 #@! TA.AperFunction,Conductor*
%ADD34C,0.400000*%
G04 #@! TD*
G04 #@! TA.AperFunction,Conductor*
%ADD35C,2.500000*%
G04 #@! TD*
G04 APERTURE END LIST*
D10*
X114681000Y-83185000D03*
D11*
X101092000Y-37667000D03*
X101092000Y-39217000D03*
D12*
X134874000Y-33274000D03*
D10*
X84074000Y-78740000D03*
D13*
X117667000Y-39370000D03*
X119317000Y-39370000D03*
D10*
X137668000Y-68326000D03*
X130302000Y-77978000D03*
X137414000Y-63500000D03*
D14*
X108118000Y-73619000D03*
X108118000Y-72969000D03*
X108118000Y-72319000D03*
X108118000Y-71669000D03*
X103718000Y-71669000D03*
X103718000Y-72319000D03*
X103718000Y-72969000D03*
X103718000Y-73619000D03*
D15*
X85344000Y-29640000D03*
X85344000Y-40640000D03*
D16*
X98168000Y-35052000D03*
X100968000Y-35052000D03*
D17*
X99060000Y-39267000D03*
X99060000Y-37617000D03*
X116332000Y-75882000D03*
X116332000Y-74232000D03*
D12*
X84328000Y-53340000D03*
D18*
X117025500Y-61225000D03*
X117025500Y-61875000D03*
X117025500Y-62525000D03*
X117025500Y-63175000D03*
X117025500Y-63825000D03*
X117025500Y-64475000D03*
X117025500Y-65125000D03*
X117025500Y-65775000D03*
X122750500Y-65775000D03*
X122750500Y-65125000D03*
X122750500Y-64475000D03*
X122750500Y-63825000D03*
X122750500Y-63175000D03*
X122750500Y-62525000D03*
X122750500Y-61875000D03*
X122750500Y-61225000D03*
D10*
X88900000Y-72898000D03*
X130810000Y-68072000D03*
D19*
X112268000Y-67649500D03*
X112268000Y-73574500D03*
D12*
X106934000Y-77724000D03*
D17*
X107188000Y-64770000D03*
X107188000Y-63120000D03*
X104902000Y-64770000D03*
X104902000Y-63120000D03*
D10*
X111760000Y-40640000D03*
D18*
X116957000Y-33184000D03*
X116957000Y-33834000D03*
X116957000Y-34484000D03*
X116957000Y-35134000D03*
X116957000Y-35784000D03*
X116957000Y-36434000D03*
X116957000Y-37084000D03*
X122682000Y-37084000D03*
X122682000Y-36434000D03*
X122682000Y-35784000D03*
X122682000Y-35134000D03*
X122682000Y-34484000D03*
X122682000Y-33834000D03*
X122682000Y-33184000D03*
D20*
X92964000Y-39217000D03*
X92964000Y-37667000D03*
D10*
X111760000Y-36322000D03*
D21*
X121399000Y-31496000D03*
X122949000Y-31496000D03*
D10*
X84074000Y-68580000D03*
D22*
X104915000Y-70104000D03*
X103365000Y-70104000D03*
D10*
X138176000Y-77724000D03*
D17*
X103378000Y-64770000D03*
X103378000Y-63120000D03*
D21*
X102844000Y-75438000D03*
X104394000Y-75438000D03*
D23*
X108204000Y-29084000D03*
X108204000Y-32384000D03*
D10*
X92964000Y-68326000D03*
D19*
X99086000Y-67649500D03*
X99086000Y-73574500D03*
D10*
X120142000Y-42926000D03*
D23*
X110998000Y-28958000D03*
X110998000Y-32258000D03*
D14*
X108204000Y-68285000D03*
X108204000Y-67635000D03*
X108204000Y-66985000D03*
X108204000Y-66335000D03*
X103804000Y-66335000D03*
X103804000Y-66985000D03*
X103804000Y-67635000D03*
X103804000Y-68285000D03*
D13*
X120778000Y-39370000D03*
X122428000Y-39370000D03*
D17*
X108712000Y-64770000D03*
X108712000Y-63120000D03*
D11*
X94996000Y-37667000D03*
X94996000Y-39217000D03*
D24*
X117697000Y-79640000D03*
X117697000Y-78990000D03*
X117697000Y-78340000D03*
X115797000Y-78340000D03*
X115797000Y-78990000D03*
X115797000Y-79640000D03*
D25*
X125222000Y-33274000D03*
X125222000Y-34924000D03*
D26*
X98096000Y-79248000D03*
X98756000Y-79248000D03*
X99416000Y-79248000D03*
X100076000Y-79248000D03*
D27*
X99086000Y-77255500D03*
D26*
X111278000Y-79248000D03*
X111938000Y-79248000D03*
X112598000Y-79248000D03*
X113258000Y-79248000D03*
D27*
X112268000Y-77255500D03*
D22*
X95276000Y-32092000D03*
X93726000Y-32092000D03*
D10*
X115062000Y-30734000D03*
X134366000Y-72898000D03*
D13*
X102299000Y-81280000D03*
X103949000Y-81280000D03*
D28*
X95114000Y-34400000D03*
X94614000Y-34400000D03*
X94114000Y-34400000D03*
X93614000Y-34400000D03*
X93614000Y-35880000D03*
X94114000Y-35880000D03*
X94614000Y-35880000D03*
X95114000Y-35880000D03*
D10*
X104140000Y-30988000D03*
D25*
X97028000Y-37617000D03*
X97028000Y-39267000D03*
D24*
X104074000Y-79390000D03*
X104074000Y-78740000D03*
X104074000Y-78090000D03*
X102174000Y-78090000D03*
X102174000Y-78740000D03*
X102174000Y-79390000D03*
D29*
X95438000Y-29806000D03*
X93538000Y-29806000D03*
D10*
X92964000Y-64008000D03*
X84328000Y-63754000D03*
D12*
X120904000Y-75946000D03*
D22*
X122695000Y-59690000D03*
X121145000Y-59690000D03*
D10*
X130937000Y-63119000D03*
X91948000Y-78740000D03*
X99314000Y-30988000D03*
X94488000Y-82296000D03*
D30*
X108331000Y-69735500D03*
X136779000Y-47371000D03*
X105537000Y-80518000D03*
X108077000Y-61214000D03*
X94742000Y-40767000D03*
X101898477Y-68789523D03*
X105791000Y-60833000D03*
X102362000Y-61341000D03*
X136779000Y-42799000D03*
X119761000Y-59055000D03*
X116459000Y-66802000D03*
X103759000Y-76708000D03*
X117602000Y-81407000D03*
X104902000Y-61976000D03*
X106807000Y-41910000D03*
X106807000Y-61595000D03*
X104902000Y-41910000D03*
X101854000Y-74422000D03*
X101854000Y-70358000D03*
X124206000Y-30988000D03*
X126746000Y-32766000D03*
X101092000Y-41656000D03*
X102870000Y-35306000D03*
X124206000Y-42418000D03*
X124206000Y-59690000D03*
X103886000Y-41148000D03*
X102222500Y-65786000D03*
X106680000Y-70357500D03*
X111760000Y-33528000D03*
X129794000Y-59309000D03*
X118110000Y-31242000D03*
X112014000Y-81153000D03*
X112014000Y-83566000D03*
X98806000Y-81534000D03*
X98806000Y-83947000D03*
X111760000Y-40640000D03*
X115062000Y-61976000D03*
X88900000Y-72898000D03*
X101854000Y-76962000D03*
X122174000Y-66548000D03*
X115062000Y-34798000D03*
X115557500Y-65786000D03*
X111760000Y-36322000D03*
X107188000Y-81280000D03*
X96647000Y-27940000D03*
X114808000Y-74930000D03*
X91948000Y-78740000D03*
X103124000Y-82550000D03*
X84074000Y-78740000D03*
X101092000Y-83693000D03*
X130937000Y-63119000D03*
X109220000Y-61468000D03*
X84328000Y-63754000D03*
X102108000Y-63246000D03*
X137668000Y-68326000D03*
X115062000Y-73152000D03*
X119126000Y-68072000D03*
X109728000Y-69342000D03*
X115062000Y-63246000D03*
X84074000Y-68580000D03*
X101852767Y-67791066D03*
X114566500Y-64516000D03*
D31*
X108077000Y-61214000D02*
X108077000Y-62485000D01*
X103378000Y-62357000D02*
X102362000Y-61341000D01*
X92671000Y-32092000D02*
X92583000Y-32004000D01*
X120396000Y-59690000D02*
X119761000Y-59055000D01*
X108331000Y-71456000D02*
X108118000Y-71669000D01*
X108204000Y-66335000D02*
X107179000Y-66335000D01*
X94996000Y-40513000D02*
X94742000Y-40767000D01*
X105918000Y-60960000D02*
X105791000Y-60833000D01*
X116840000Y-66802000D02*
X116459000Y-66802000D01*
X105918000Y-65074000D02*
X105918000Y-61722000D01*
X95046000Y-39267000D02*
X94996000Y-39217000D01*
X116957000Y-37084000D02*
X115951000Y-37084000D01*
X93614000Y-34400000D02*
X93614000Y-34051000D01*
X93726000Y-32092000D02*
X92671000Y-32092000D01*
X103378000Y-63120000D02*
X103378000Y-62357000D01*
X108331000Y-69735500D02*
X108331000Y-71456000D01*
X93614000Y-34051000D02*
X92837000Y-33274000D01*
X104394000Y-76073000D02*
X103759000Y-76708000D01*
X117025500Y-65775000D02*
X117025500Y-66616500D01*
X105918000Y-61722000D02*
X105918000Y-60960000D01*
X104394000Y-75438000D02*
X104394000Y-76073000D01*
X117602000Y-81407000D02*
X117697000Y-81312000D01*
X107179000Y-66335000D02*
X105918000Y-65074000D01*
X121145000Y-59690000D02*
X120396000Y-59690000D01*
X117697000Y-81312000D02*
X117697000Y-79640000D01*
X117025500Y-66616500D02*
X116840000Y-66802000D01*
X97028000Y-39267000D02*
X95046000Y-39267000D01*
X101898477Y-68789523D02*
X102050523Y-68789523D01*
X102050523Y-68789523D02*
X103365000Y-70104000D01*
X104409000Y-79390000D02*
X104074000Y-79390000D01*
X94996000Y-39217000D02*
X94996000Y-40513000D01*
X108077000Y-62485000D02*
X108712000Y-63120000D01*
X105537000Y-80518000D02*
X104409000Y-79390000D01*
D32*
X86487000Y-41783000D02*
X96544000Y-41783000D01*
X96544000Y-41783000D02*
X99060000Y-39267000D01*
X99060000Y-39267000D02*
X99492000Y-39267000D01*
X85344000Y-40640000D02*
X86487000Y-41783000D01*
X98168000Y-35052000D02*
X98477000Y-35052000D01*
X98477000Y-35052000D02*
X101092000Y-37667000D01*
X99492000Y-39267000D02*
X101092000Y-37667000D01*
D31*
X104902000Y-63120000D02*
X104902000Y-61976000D01*
X122949000Y-31496000D02*
X123698000Y-31496000D01*
D33*
X102616000Y-35052000D02*
X102870000Y-35306000D01*
D31*
X107188000Y-61976000D02*
X106807000Y-61595000D01*
X101854000Y-74930000D02*
X101854000Y-74422000D01*
X122695000Y-59690000D02*
X124206000Y-59690000D01*
X104915000Y-70104000D02*
X104915000Y-69396000D01*
D34*
X99314000Y-30988000D02*
X101092000Y-32766000D01*
D31*
X122750500Y-59745500D02*
X122695000Y-59690000D01*
D33*
X100968000Y-35052000D02*
X102616000Y-35052000D01*
D31*
X102425000Y-70929000D02*
X101854000Y-70358000D01*
X122949000Y-32917000D02*
X122682000Y-33184000D01*
X118402198Y-63825000D02*
X117025500Y-63825000D01*
X122750500Y-61225000D02*
X121002198Y-61225000D01*
X102844000Y-75438000D02*
X102362000Y-75438000D01*
X102844000Y-75438000D02*
X102844000Y-74493000D01*
D34*
X101092000Y-34928000D02*
X100968000Y-35052000D01*
D31*
X122949000Y-31496000D02*
X122949000Y-32917000D01*
D34*
X101092000Y-32766000D02*
X101092000Y-34928000D01*
D31*
X125222000Y-33274000D02*
X126238000Y-33274000D01*
X104915000Y-70104000D02*
X104090000Y-70929000D01*
X102362000Y-75438000D02*
X101854000Y-74930000D01*
X104915000Y-69396000D02*
X103804000Y-68285000D01*
X107188000Y-63120000D02*
X107188000Y-61976000D01*
X102844000Y-74493000D02*
X103718000Y-73619000D01*
X104090000Y-70929000D02*
X102425000Y-70929000D01*
X122750500Y-61225000D02*
X122750500Y-59745500D01*
X121002198Y-61225000D02*
X118402198Y-63825000D01*
X123698000Y-31496000D02*
X124206000Y-30988000D01*
X126238000Y-33274000D02*
X126746000Y-32766000D01*
X125132000Y-33184000D02*
X125222000Y-33274000D01*
X104831000Y-72969000D02*
X105715000Y-72085000D01*
X105715000Y-72085000D02*
X105715000Y-67246000D01*
X105536000Y-32384000D02*
X104140000Y-30988000D01*
X103886000Y-38354000D02*
X108204000Y-34036000D01*
X103141183Y-65786000D02*
X103690183Y-66335000D01*
X103718000Y-72969000D02*
X104831000Y-72969000D01*
X105715000Y-67246000D02*
X104804000Y-66335000D01*
X108204000Y-32384000D02*
X105536000Y-32384000D01*
X103690183Y-66335000D02*
X103804000Y-66335000D01*
X104804000Y-66335000D02*
X103804000Y-66335000D01*
X102222500Y-65786000D02*
X103141183Y-65786000D01*
X103886000Y-41148000D02*
X103886000Y-38354000D01*
X108204000Y-34036000D02*
X108204000Y-32384000D01*
X106680000Y-73206000D02*
X106680000Y-67509000D01*
X110998000Y-32258000D02*
X113538000Y-32258000D01*
X110998000Y-32766000D02*
X110998000Y-32258000D01*
X107093000Y-73619000D02*
X106680000Y-73206000D01*
X108118000Y-73619000D02*
X107093000Y-73619000D01*
X107204000Y-66985000D02*
X108204000Y-66985000D01*
X111760000Y-33528000D02*
X110998000Y-32766000D01*
X106680000Y-67509000D02*
X107204000Y-66985000D01*
X113538000Y-32258000D02*
X115062000Y-30734000D01*
X120904000Y-76408000D02*
X120904000Y-75946000D01*
X117697000Y-78990000D02*
X118322000Y-78990000D01*
X118322000Y-78990000D02*
X120904000Y-76408000D01*
X122428000Y-73660000D02*
X119634000Y-73660000D01*
X118364000Y-74930000D02*
X118364000Y-77673000D01*
X138176000Y-77724000D02*
X135414563Y-74962563D01*
X117697000Y-78340000D02*
X115797000Y-78340000D01*
X118364000Y-77673000D02*
X117697000Y-78340000D01*
X123730563Y-74962563D02*
X122428000Y-73660000D01*
X135414563Y-74962563D02*
X123730563Y-74962563D01*
X119634000Y-73660000D02*
X118364000Y-74930000D01*
X122026604Y-63175000D02*
X117602000Y-67599604D01*
X117602000Y-67599604D02*
X117602000Y-76581000D01*
X115122000Y-78940000D02*
X115172000Y-78990000D01*
X117094000Y-77089000D02*
X115823000Y-77089000D01*
X115172000Y-78990000D02*
X115797000Y-78990000D01*
X134366000Y-72898000D02*
X134366000Y-69088000D01*
X116957000Y-32395000D02*
X116957000Y-33184000D01*
X115823000Y-77089000D02*
X115122000Y-77790000D01*
X134366000Y-69088000D02*
X128453000Y-63175000D01*
X129667000Y-59309000D02*
X125801000Y-63175000D01*
X125801000Y-63175000D02*
X122750500Y-63175000D01*
X118110000Y-31242000D02*
X116957000Y-32395000D01*
X122750500Y-63175000D02*
X122026604Y-63175000D01*
X115122000Y-77790000D02*
X115122000Y-78940000D01*
X129794000Y-59309000D02*
X129667000Y-59309000D01*
X117602000Y-76581000D02*
X117094000Y-77089000D01*
X128453000Y-63175000D02*
X125801000Y-63175000D01*
X113650000Y-79640000D02*
X113258000Y-79248000D01*
X113258000Y-78893000D02*
X116269000Y-75882000D01*
X116586000Y-82550000D02*
X115797000Y-81761000D01*
X115797000Y-79640000D02*
X113650000Y-79640000D01*
X115797000Y-81761000D02*
X115797000Y-79640000D01*
X130302000Y-77978000D02*
X130302000Y-79756000D01*
X116269000Y-75882000D02*
X116332000Y-75882000D01*
X127508000Y-82550000D02*
X116586000Y-82550000D01*
X130302000Y-79756000D02*
X127508000Y-82550000D01*
X113258000Y-79248000D02*
X113258000Y-78893000D01*
X112598000Y-79248000D02*
X112598000Y-80340000D01*
X114681000Y-83185000D02*
X112776000Y-83185000D01*
X104699000Y-78740000D02*
X104074000Y-78740000D01*
X105715000Y-77724000D02*
X104699000Y-78740000D01*
X106934000Y-77724000D02*
X105715000Y-77724000D01*
X94488000Y-82296000D02*
X98044000Y-82296000D01*
X99416000Y-79248000D02*
X99416000Y-80162000D01*
X115062000Y-61976000D02*
X115611000Y-62525000D01*
X115611000Y-62525000D02*
X117025500Y-62525000D01*
X116957000Y-33834000D02*
X116026000Y-33834000D01*
X101346000Y-78487000D02*
X101599000Y-78740000D01*
X122174000Y-66351500D02*
X122750500Y-65775000D01*
X101346000Y-77470000D02*
X101346000Y-78487000D01*
X101854000Y-76962000D02*
X101346000Y-77470000D01*
X101599000Y-78740000D02*
X102174000Y-78740000D01*
X116026000Y-33834000D02*
X115062000Y-34798000D01*
X122174000Y-66548000D02*
X122174000Y-66351500D01*
X116301604Y-65125000D02*
X117025500Y-65125000D01*
X115740896Y-65602604D02*
X115824000Y-65602604D01*
X115824000Y-65602604D02*
X116301604Y-65125000D01*
X115557500Y-65786000D02*
X115740896Y-65602604D01*
X99086000Y-68860000D02*
X99086000Y-67649500D01*
X103718000Y-71669000D02*
X101895000Y-71669000D01*
D32*
X95438000Y-29806000D02*
X95438000Y-29149000D01*
D31*
X115634000Y-74930000D02*
X116332000Y-74232000D01*
D35*
X99060000Y-67623500D02*
X99086000Y-67649500D01*
D31*
X132588000Y-57912000D02*
X113538000Y-57912000D01*
X103949000Y-81280000D02*
X105918000Y-81280000D01*
X101895000Y-71669000D02*
X99086000Y-68860000D01*
X108118000Y-72319000D02*
X109143000Y-72319000D01*
X97028000Y-68072000D02*
X92964000Y-64008000D01*
X112268000Y-69194000D02*
X112268000Y-67649500D01*
D35*
X99060000Y-66040000D02*
X99060000Y-67623500D01*
D31*
X95276000Y-32587000D02*
X95276000Y-32092000D01*
X94114000Y-33749000D02*
X95276000Y-32587000D01*
X99086000Y-67649500D02*
X98663500Y-68072000D01*
X105918000Y-81280000D02*
X107188000Y-81280000D01*
X137414000Y-63500000D02*
X137414000Y-62738000D01*
X98663500Y-68072000D02*
X97028000Y-68072000D01*
X116332000Y-71713500D02*
X112268000Y-67649500D01*
X114808000Y-74930000D02*
X115634000Y-74930000D01*
D32*
X95276000Y-29780000D02*
X95276000Y-32092000D01*
D35*
X112268000Y-66040000D02*
X112268000Y-67649500D01*
D31*
X109143000Y-72319000D02*
X112268000Y-69194000D01*
X94114000Y-34400000D02*
X94114000Y-33749000D01*
D32*
X95438000Y-29149000D02*
X96647000Y-27940000D01*
D31*
X137414000Y-62738000D02*
X132588000Y-57912000D01*
X116332000Y-74232000D02*
X116332000Y-71713500D01*
X103124000Y-82550000D02*
X103124000Y-78090000D01*
X103124000Y-78090000D02*
X102174000Y-78090000D01*
X104074000Y-78090000D02*
X103124000Y-78090000D01*
X102174000Y-79390000D02*
X100218000Y-79390000D01*
X100218000Y-79390000D02*
X100076000Y-79248000D01*
X102174000Y-79390000D02*
X102174000Y-81155000D01*
X102174000Y-81155000D02*
X102299000Y-81280000D01*
X101092000Y-82487000D02*
X102299000Y-81280000D01*
X101092000Y-83693000D02*
X101092000Y-82487000D01*
X108204000Y-67635000D02*
X109229000Y-67635000D01*
X109229000Y-67635000D02*
X109279000Y-67585000D01*
X109537000Y-63945000D02*
X109537000Y-61785000D01*
X108712000Y-64770000D02*
X107188000Y-64770000D01*
X109279000Y-67585000D02*
X109279000Y-65337000D01*
X108712000Y-64770000D02*
X109537000Y-63945000D01*
X109537000Y-61785000D02*
X109220000Y-61468000D01*
X109279000Y-65337000D02*
X108712000Y-64770000D01*
X102164000Y-66985000D02*
X103804000Y-66985000D01*
X104902000Y-64770000D02*
X103378000Y-64770000D01*
X103378000Y-64770000D02*
X103378000Y-64516000D01*
X101831669Y-64770000D02*
X101473000Y-65128669D01*
X101473000Y-65128669D02*
X101473000Y-66294000D01*
X101473000Y-66294000D02*
X102164000Y-66985000D01*
X103378000Y-64770000D02*
X101831669Y-64770000D01*
X103378000Y-64516000D02*
X102108000Y-63246000D01*
X94996000Y-37667000D02*
X94614000Y-37285000D01*
X94614000Y-37285000D02*
X94614000Y-35880000D01*
X94114000Y-35880000D02*
X94114000Y-38067000D01*
X94114000Y-38067000D02*
X92964000Y-39217000D01*
X92964000Y-36530000D02*
X93614000Y-35880000D01*
X92964000Y-37667000D02*
X92964000Y-36530000D01*
D32*
X87374000Y-29640000D02*
X93446500Y-35712500D01*
D31*
X111662500Y-72969000D02*
X112268000Y-73574500D01*
D35*
X112268000Y-75184000D02*
X112268000Y-73574500D01*
D31*
X108118000Y-72969000D02*
X111662500Y-72969000D01*
X114639500Y-73574500D02*
X115062000Y-73152000D01*
X112268000Y-73574500D02*
X114639500Y-73574500D01*
X109261000Y-69342000D02*
X108204000Y-68285000D01*
X116230604Y-63246000D02*
X116301604Y-63175000D01*
X109728000Y-69342000D02*
X109261000Y-69342000D01*
X115062000Y-63246000D02*
X116230604Y-63246000D01*
X116301604Y-63175000D02*
X117025500Y-63175000D01*
X119126000Y-68072000D02*
X130810000Y-68072000D01*
D35*
X99086000Y-75057000D02*
X99086000Y-73574500D01*
D31*
X98155500Y-72644000D02*
X97536000Y-72644000D01*
X97536000Y-72644000D02*
X93218000Y-68326000D01*
X101437500Y-73574500D02*
X99086000Y-73574500D01*
X93218000Y-68326000D02*
X92964000Y-68326000D01*
X99086000Y-73574500D02*
X98155500Y-72644000D01*
X103718000Y-72319000D02*
X102693000Y-72319000D01*
X102693000Y-72319000D02*
X101437500Y-73574500D01*
X117025500Y-64475000D02*
X114607500Y-64475000D01*
X114607500Y-64475000D02*
X114566500Y-64516000D01*
X103804000Y-67635000D02*
X102008833Y-67635000D01*
X102008833Y-67635000D02*
X101852767Y-67791066D01*
X120142000Y-40006000D02*
X120142000Y-42926000D01*
X120778000Y-39370000D02*
X119317000Y-39370000D01*
X120778000Y-39370000D02*
X120142000Y-40006000D01*
D32*
X99060000Y-37617000D02*
X97028000Y-37617000D01*
D31*
X96851000Y-37617000D02*
X95114000Y-35880000D01*
X123405896Y-35134000D02*
X122682000Y-35134000D01*
X123487896Y-35052000D02*
X123405896Y-35134000D01*
X122682000Y-34484000D02*
X116957000Y-34484000D01*
X116957000Y-36434000D02*
X116957000Y-34484000D01*
X125222000Y-34924000D02*
X125094000Y-35052000D01*
X125094000Y-35052000D02*
X123487896Y-35052000D01*
X122682000Y-35134000D02*
X122682000Y-34484000D01*
X122682000Y-39116000D02*
X122428000Y-39370000D01*
X122682000Y-37084000D02*
X122682000Y-39116000D01*
G04 #@! TA.AperFunction,Conductor*
G36*
X100838000Y-64969855D02*
G01*
X100836465Y-64989306D01*
X100835759Y-64993753D01*
X100834578Y-64999449D01*
X100822500Y-65046491D01*
X100822500Y-65067713D01*
X100820973Y-65087113D01*
X100817653Y-65108072D01*
X100822225Y-65156436D01*
X100822500Y-65162275D01*
X100822500Y-66208494D01*
X100820732Y-66224505D01*
X100820974Y-66224528D01*
X100820240Y-66232294D01*
X100822500Y-66304203D01*
X100822500Y-66334920D01*
X100822501Y-66334940D01*
X100823418Y-66342206D01*
X100823876Y-66348024D01*
X100825402Y-66396567D01*
X100826623Y-66404270D01*
X100825326Y-66404475D01*
X100825143Y-66466258D01*
X100787195Y-66524924D01*
X100723553Y-66553761D01*
X100667270Y-66548678D01*
X100663702Y-66547495D01*
X100663690Y-66547493D01*
X100560986Y-66537000D01*
X99336000Y-66537000D01*
X99336000Y-67775500D01*
X99316315Y-67842539D01*
X99263511Y-67888294D01*
X99212000Y-67899500D01*
X98960000Y-67899500D01*
X98892961Y-67879815D01*
X98847206Y-67827011D01*
X98836000Y-67775500D01*
X98836000Y-66537000D01*
X97611028Y-66537000D01*
X97611012Y-66537001D01*
X97508302Y-66547494D01*
X97445004Y-66568469D01*
X97375175Y-66570871D01*
X97315133Y-66535139D01*
X97283941Y-66472618D01*
X97282000Y-66450763D01*
X97282000Y-59944000D01*
X100838000Y-59944000D01*
X100838000Y-64969855D01*
G37*
G04 #@! TD.AperFunction*
G04 #@! TA.AperFunction,Conductor*
G36*
X113989039Y-46755685D02*
G01*
X114034794Y-46808489D01*
X114046000Y-46860000D01*
X114046000Y-59944000D01*
X105952781Y-59944000D01*
X105927001Y-59941290D01*
X105885646Y-59932500D01*
X105696354Y-59932500D01*
X105654999Y-59941290D01*
X105629219Y-59944000D01*
X79118000Y-59944000D01*
X79050961Y-59924315D01*
X79005206Y-59871511D01*
X78994000Y-59820000D01*
X78994000Y-53340001D01*
X82423147Y-53340001D01*
X82442536Y-53611090D01*
X82442537Y-53611097D01*
X82500305Y-53876654D01*
X82595285Y-54131306D01*
X82595287Y-54131310D01*
X82725532Y-54369835D01*
X82725537Y-54369843D01*
X82819320Y-54495124D01*
X82819321Y-54495124D01*
X83687859Y-53626586D01*
X83747680Y-53740566D01*
X83860405Y-53867806D01*
X84000305Y-53964371D01*
X84041542Y-53980010D01*
X83172874Y-54848677D01*
X83172875Y-54848678D01*
X83298156Y-54942462D01*
X83298164Y-54942467D01*
X83536689Y-55072712D01*
X83536693Y-55072714D01*
X83791345Y-55167694D01*
X84056902Y-55225462D01*
X84056909Y-55225463D01*
X84327999Y-55244853D01*
X84328001Y-55244853D01*
X84599090Y-55225463D01*
X84599097Y-55225462D01*
X84864654Y-55167694D01*
X85119306Y-55072714D01*
X85119310Y-55072712D01*
X85357835Y-54942467D01*
X85357843Y-54942462D01*
X85483123Y-54848678D01*
X85483124Y-54848677D01*
X84614458Y-53980010D01*
X84655695Y-53964371D01*
X84795595Y-53867806D01*
X84908320Y-53740566D01*
X84968140Y-53626587D01*
X85836677Y-54495124D01*
X85836678Y-54495123D01*
X85930462Y-54369843D01*
X85930467Y-54369835D01*
X86060712Y-54131310D01*
X86060714Y-54131306D01*
X86155694Y-53876654D01*
X86213462Y-53611097D01*
X86213463Y-53611090D01*
X86232853Y-53340001D01*
X86232853Y-53339998D01*
X86213463Y-53068909D01*
X86213462Y-53068902D01*
X86155694Y-52803345D01*
X86060714Y-52548693D01*
X86060712Y-52548689D01*
X85930467Y-52310164D01*
X85930462Y-52310156D01*
X85836678Y-52184875D01*
X85836677Y-52184874D01*
X84968139Y-53053412D01*
X84908320Y-52939434D01*
X84795595Y-52812194D01*
X84655695Y-52715629D01*
X84614457Y-52699989D01*
X85483124Y-51831321D01*
X85483124Y-51831320D01*
X85357843Y-51737537D01*
X85357835Y-51737532D01*
X85119310Y-51607287D01*
X85119306Y-51607285D01*
X84864654Y-51512305D01*
X84599097Y-51454537D01*
X84599090Y-51454536D01*
X84328001Y-51435147D01*
X84327999Y-51435147D01*
X84056909Y-51454536D01*
X84056902Y-51454537D01*
X83791345Y-51512305D01*
X83536693Y-51607285D01*
X83536689Y-51607287D01*
X83298164Y-51737532D01*
X83172875Y-51831321D01*
X84041543Y-52699989D01*
X84000305Y-52715629D01*
X83860405Y-52812194D01*
X83747680Y-52939434D01*
X83687859Y-53053413D01*
X82819321Y-52184875D01*
X82725532Y-52310164D01*
X82595287Y-52548689D01*
X82595285Y-52548693D01*
X82500305Y-52803345D01*
X82442537Y-53068902D01*
X82442536Y-53068909D01*
X82423147Y-53339998D01*
X82423147Y-53340001D01*
X78994000Y-53340001D01*
X78994000Y-46860000D01*
X79013685Y-46792961D01*
X79066489Y-46747206D01*
X79118000Y-46736000D01*
X113922000Y-46736000D01*
X113989039Y-46755685D01*
G37*
G04 #@! TD.AperFunction*
G04 #@! TA.AperFunction,Conductor*
G36*
X99279039Y-73344185D02*
G01*
X99324794Y-73396989D01*
X99336000Y-73448500D01*
X99336000Y-74686999D01*
X100560972Y-74686999D01*
X100560978Y-74686998D01*
X100565376Y-74686549D01*
X100634070Y-74699312D01*
X100684958Y-74747188D01*
X100701885Y-74814976D01*
X100695626Y-74849118D01*
X100330000Y-75945999D01*
X100330000Y-78108000D01*
X100310315Y-78175039D01*
X100257511Y-78220794D01*
X100206000Y-78232000D01*
X97914000Y-78232000D01*
X97846961Y-78212315D01*
X97801206Y-78159511D01*
X97790000Y-78108000D01*
X97790000Y-75946000D01*
X97790000Y-75945999D01*
X97422538Y-74843616D01*
X97420014Y-74773795D01*
X97455639Y-74713690D01*
X97518104Y-74682387D01*
X97552780Y-74681049D01*
X97611021Y-74686999D01*
X98835999Y-74686999D01*
X98836000Y-74686998D01*
X98836000Y-73448500D01*
X98855685Y-73381461D01*
X98908489Y-73335706D01*
X98960000Y-73324500D01*
X99212000Y-73324500D01*
X99279039Y-73344185D01*
G37*
G04 #@! TD.AperFunction*
G04 #@! TA.AperFunction,Conductor*
G36*
X114046000Y-63717905D02*
G01*
X114026315Y-63784944D01*
X113994886Y-63818223D01*
X113960626Y-63843114D01*
X113960623Y-63843116D01*
X113833966Y-63983785D01*
X113739321Y-64147715D01*
X113739318Y-64147722D01*
X113680827Y-64327740D01*
X113680826Y-64327744D01*
X113661040Y-64516000D01*
X113680826Y-64704256D01*
X113680827Y-64704259D01*
X113739318Y-64884277D01*
X113739321Y-64884284D01*
X113833967Y-65048216D01*
X113960629Y-65188888D01*
X113960628Y-65188888D01*
X113979196Y-65202378D01*
X113994885Y-65213776D01*
X114037550Y-65269104D01*
X114046000Y-65314094D01*
X114046000Y-66442148D01*
X114026315Y-66509187D01*
X113973511Y-66554942D01*
X113904353Y-66564886D01*
X113882997Y-66559854D01*
X113845701Y-66547495D01*
X113845690Y-66547493D01*
X113742986Y-66537000D01*
X112518000Y-66537000D01*
X112518000Y-67775500D01*
X112498315Y-67842539D01*
X112445511Y-67888294D01*
X112394000Y-67899500D01*
X112142000Y-67899500D01*
X112074961Y-67879815D01*
X112029206Y-67827011D01*
X112018000Y-67775500D01*
X112018000Y-66537000D01*
X110793028Y-66537000D01*
X110793012Y-66537001D01*
X110690303Y-66547494D01*
X110653002Y-66559854D01*
X110583174Y-66562254D01*
X110523132Y-66526522D01*
X110491941Y-66464001D01*
X110490000Y-66442147D01*
X110490000Y-59944000D01*
X114046000Y-59944000D01*
X114046000Y-63717905D01*
G37*
G04 #@! TD.AperFunction*
G04 #@! TA.AperFunction,Conductor*
G36*
X96578134Y-26817185D02*
G01*
X96623889Y-26869989D01*
X96633833Y-26939147D01*
X96604808Y-27002703D01*
X96546030Y-27040477D01*
X96536876Y-27042790D01*
X96367197Y-27078855D01*
X96367192Y-27078857D01*
X96194270Y-27155848D01*
X96194265Y-27155851D01*
X96041129Y-27267111D01*
X95914466Y-27407785D01*
X95819821Y-27571714D01*
X95819820Y-27571718D01*
X95810423Y-27600638D01*
X95780174Y-27649998D01*
X94924760Y-28505413D01*
X94794417Y-28635755D01*
X94794414Y-28635759D01*
X94771673Y-28671950D01*
X94767648Y-28677623D01*
X94740999Y-28711039D01*
X94738973Y-28714264D01*
X94721665Y-28735966D01*
X94595284Y-28862348D01*
X94595283Y-28862349D01*
X94593241Y-28865661D01*
X94591247Y-28867453D01*
X94590807Y-28868011D01*
X94590711Y-28867935D01*
X94541291Y-28912383D01*
X94472328Y-28923602D01*
X94408247Y-28895755D01*
X94382168Y-28865656D01*
X94380319Y-28862659D01*
X94380316Y-28862655D01*
X94256345Y-28738684D01*
X94107124Y-28646643D01*
X94107119Y-28646641D01*
X93940697Y-28591494D01*
X93940690Y-28591493D01*
X93837986Y-28581000D01*
X93788000Y-28581000D01*
X93788000Y-29932000D01*
X93768315Y-29999039D01*
X93715511Y-30044794D01*
X93664000Y-30056000D01*
X92538001Y-30056000D01*
X92538001Y-30330986D01*
X92548494Y-30433697D01*
X92603641Y-30600119D01*
X92603643Y-30600124D01*
X92695684Y-30749345D01*
X92819654Y-30873315D01*
X92968875Y-30965356D01*
X92968882Y-30965359D01*
X93088790Y-31005092D01*
X93146235Y-31044864D01*
X93173059Y-31109380D01*
X93160744Y-31178156D01*
X93114885Y-31228336D01*
X93048268Y-31269426D01*
X92928427Y-31389267D01*
X92928424Y-31389271D01*
X92839457Y-31533507D01*
X92839452Y-31533518D01*
X92786144Y-31694393D01*
X92776000Y-31793677D01*
X92776000Y-31842000D01*
X93852000Y-31842000D01*
X93919039Y-31861685D01*
X93964794Y-31914489D01*
X93976000Y-31966000D01*
X93976000Y-32218000D01*
X93956315Y-32285039D01*
X93903511Y-32330794D01*
X93852000Y-32342000D01*
X92776001Y-32342000D01*
X92776001Y-32390322D01*
X92786144Y-32489607D01*
X92839452Y-32650481D01*
X92839457Y-32650492D01*
X92928424Y-32794728D01*
X92928427Y-32794732D01*
X93048267Y-32914572D01*
X93048271Y-32914575D01*
X93192507Y-33003542D01*
X93192518Y-33003547D01*
X93353393Y-33056855D01*
X93452683Y-33066999D01*
X93575536Y-33066999D01*
X93642576Y-33086683D01*
X93688331Y-33139487D01*
X93698275Y-33208645D01*
X93669251Y-33272201D01*
X93665931Y-33275881D01*
X93646810Y-33296243D01*
X93625089Y-33317964D01*
X93625078Y-33317977D01*
X93620587Y-33323765D01*
X93616801Y-33328197D01*
X93583552Y-33363606D01*
X93573322Y-33382213D01*
X93562646Y-33398464D01*
X93549640Y-33415232D01*
X93549636Y-33415239D01*
X93530347Y-33459811D01*
X93527777Y-33465059D01*
X93507533Y-33501882D01*
X93457987Y-33551146D01*
X93412128Y-33565434D01*
X93356626Y-33571401D01*
X93356620Y-33571403D01*
X93221913Y-33621645D01*
X93221906Y-33621649D01*
X93106812Y-33707809D01*
X93106809Y-33707812D01*
X93020649Y-33822906D01*
X93020645Y-33822913D01*
X93004701Y-33865663D01*
X92962830Y-33921597D01*
X92897365Y-33946014D01*
X92829092Y-33931162D01*
X92800838Y-33910011D01*
X88446827Y-29556000D01*
X92538000Y-29556000D01*
X93288000Y-29556000D01*
X93288000Y-28581000D01*
X93287999Y-28580999D01*
X93238029Y-28581000D01*
X93238011Y-28581001D01*
X93135302Y-28591494D01*
X92968880Y-28646641D01*
X92968875Y-28646643D01*
X92819654Y-28738684D01*
X92695684Y-28862654D01*
X92603643Y-29011875D01*
X92603641Y-29011880D01*
X92548494Y-29178302D01*
X92548493Y-29178309D01*
X92538000Y-29281013D01*
X92538000Y-29556000D01*
X88446827Y-29556000D01*
X88330818Y-29439991D01*
X88297333Y-29378668D01*
X88294499Y-29352310D01*
X88294499Y-28757130D01*
X88292851Y-28738288D01*
X88279349Y-28583950D01*
X88219320Y-28359921D01*
X88121301Y-28149718D01*
X87988270Y-27959731D01*
X87824269Y-27795730D01*
X87634282Y-27662699D01*
X87424079Y-27564680D01*
X87424076Y-27564679D01*
X87424074Y-27564678D01*
X87200051Y-27504651D01*
X87200044Y-27504650D01*
X87026871Y-27489500D01*
X83661130Y-27489501D01*
X83487950Y-27504651D01*
X83263925Y-27564678D01*
X83263921Y-27564680D01*
X83186809Y-27600638D01*
X83053718Y-27662699D01*
X82863730Y-27795730D01*
X82699730Y-27959730D01*
X82566699Y-28149718D01*
X82468681Y-28359919D01*
X82468678Y-28359925D01*
X82408651Y-28583948D01*
X82408650Y-28583955D01*
X82399837Y-28684692D01*
X82393500Y-28757129D01*
X82393501Y-30522870D01*
X82408651Y-30696050D01*
X82423015Y-30749656D01*
X82468678Y-30920074D01*
X82468679Y-30920076D01*
X82468680Y-30920079D01*
X82566699Y-31130282D01*
X82699730Y-31320269D01*
X82863731Y-31484270D01*
X83053718Y-31617301D01*
X83263921Y-31715320D01*
X83487950Y-31775349D01*
X83661129Y-31790500D01*
X87026870Y-31790499D01*
X87200050Y-31775349D01*
X87424079Y-31715320D01*
X87634282Y-31617301D01*
X87824269Y-31484270D01*
X87855176Y-31453361D01*
X87916496Y-31419878D01*
X87986188Y-31424862D01*
X88030537Y-31453363D01*
X92487932Y-35910759D01*
X92521417Y-35972082D01*
X92516433Y-36041774D01*
X92487935Y-36086118D01*
X92475089Y-36098964D01*
X92475078Y-36098977D01*
X92470587Y-36104765D01*
X92466801Y-36109197D01*
X92433552Y-36144606D01*
X92423322Y-36163213D01*
X92412646Y-36179464D01*
X92399640Y-36196232D01*
X92399636Y-36196238D01*
X92380348Y-36240811D01*
X92377777Y-36246058D01*
X92354372Y-36288630D01*
X92354372Y-36288631D01*
X92349091Y-36309199D01*
X92342791Y-36327601D01*
X92334364Y-36347073D01*
X92326766Y-36395047D01*
X92325581Y-36400770D01*
X92313500Y-36447818D01*
X92313500Y-36469044D01*
X92311973Y-36488444D01*
X92308653Y-36509403D01*
X92313225Y-36557767D01*
X92313500Y-36563606D01*
X92313500Y-36767452D01*
X92293815Y-36834491D01*
X92266410Y-36864719D01*
X92260958Y-36869029D01*
X92141029Y-36988959D01*
X92052001Y-37133294D01*
X92051996Y-37133305D01*
X91998651Y-37294290D01*
X91988500Y-37393647D01*
X91988500Y-37940337D01*
X91988501Y-37940355D01*
X91998650Y-38039707D01*
X91998651Y-38039710D01*
X92051996Y-38200694D01*
X92052001Y-38200705D01*
X92141029Y-38345040D01*
X92141032Y-38345044D01*
X92150307Y-38354319D01*
X92183792Y-38415642D01*
X92178808Y-38485334D01*
X92150307Y-38529681D01*
X92141032Y-38538955D01*
X92141029Y-38538959D01*
X92052001Y-38683294D01*
X92051996Y-38683305D01*
X91998651Y-38844290D01*
X91988500Y-38943647D01*
X91988500Y-39490337D01*
X91988501Y-39490355D01*
X91998650Y-39589707D01*
X91998651Y-39589710D01*
X92051996Y-39750694D01*
X92052001Y-39750705D01*
X92141029Y-39895040D01*
X92141032Y-39895044D01*
X92260955Y-40014967D01*
X92260959Y-40014970D01*
X92405294Y-40103998D01*
X92405297Y-40103999D01*
X92405303Y-40104003D01*
X92566292Y-40157349D01*
X92665655Y-40167500D01*
X93262344Y-40167499D01*
X93262352Y-40167498D01*
X93262355Y-40167498D01*
X93329980Y-40160590D01*
X93361708Y-40157349D01*
X93522697Y-40104003D01*
X93667044Y-40014968D01*
X93786968Y-39895044D01*
X93874758Y-39752715D01*
X93926702Y-39705995D01*
X93995665Y-39694772D01*
X94059747Y-39722616D01*
X94085831Y-39752719D01*
X94173424Y-39894728D01*
X94173427Y-39894732D01*
X94293267Y-40014572D01*
X94293271Y-40014575D01*
X94437507Y-40103542D01*
X94437518Y-40103547D01*
X94598393Y-40156855D01*
X94697683Y-40166999D01*
X94745999Y-40166998D01*
X94746000Y-40166998D01*
X94746000Y-39091000D01*
X94765685Y-39023961D01*
X94818489Y-38978206D01*
X94870000Y-38967000D01*
X95122000Y-38967000D01*
X95189039Y-38986685D01*
X95234794Y-39039489D01*
X95246000Y-39091000D01*
X95246000Y-40166999D01*
X95294308Y-40166999D01*
X95294322Y-40166998D01*
X95393607Y-40156855D01*
X95554481Y-40103547D01*
X95554492Y-40103542D01*
X95698728Y-40014575D01*
X95698732Y-40014572D01*
X95818572Y-39894732D01*
X95818575Y-39894728D01*
X95901374Y-39760492D01*
X95953322Y-39713767D01*
X96022284Y-39702546D01*
X96086366Y-39730389D01*
X96113029Y-39761439D01*
X96197927Y-39901877D01*
X96318122Y-40022072D01*
X96463604Y-40110019D01*
X96463603Y-40110019D01*
X96625894Y-40160590D01*
X96625893Y-40160590D01*
X96696424Y-40166999D01*
X96703799Y-40166999D01*
X96770840Y-40186677D01*
X96816600Y-40239476D01*
X96826551Y-40308634D01*
X96797532Y-40372193D01*
X96791492Y-40378680D01*
X96241493Y-40928681D01*
X96180170Y-40962166D01*
X96153812Y-40965000D01*
X88418500Y-40965000D01*
X88351461Y-40945315D01*
X88305706Y-40892511D01*
X88294500Y-40841000D01*
X88294499Y-39757130D01*
X88279349Y-39583950D01*
X88219320Y-39359921D01*
X88121301Y-39149718D01*
X87988270Y-38959731D01*
X87824269Y-38795730D01*
X87634282Y-38662699D01*
X87424079Y-38564680D01*
X87424076Y-38564679D01*
X87424074Y-38564678D01*
X87200051Y-38504651D01*
X87200044Y-38504650D01*
X87026871Y-38489500D01*
X83661130Y-38489501D01*
X83487950Y-38504651D01*
X83263925Y-38564678D01*
X83263921Y-38564680D01*
X83215785Y-38587126D01*
X83053718Y-38662699D01*
X82863730Y-38795730D01*
X82699730Y-38959730D01*
X82566699Y-39149718D01*
X82468681Y-39359919D01*
X82468678Y-39359925D01*
X82408651Y-39583948D01*
X82408650Y-39583955D01*
X82397167Y-39715215D01*
X82393500Y-39757129D01*
X82393501Y-41522870D01*
X82405981Y-41665523D01*
X82408651Y-41696049D01*
X82468678Y-41920074D01*
X82468679Y-41920076D01*
X82468680Y-41920079D01*
X82566699Y-42130282D01*
X82699730Y-42320269D01*
X82863731Y-42484270D01*
X83053718Y-42617301D01*
X83263921Y-42715320D01*
X83487950Y-42775349D01*
X83661129Y-42790500D01*
X87026870Y-42790499D01*
X87200050Y-42775349D01*
X87424079Y-42715320D01*
X87634282Y-42617301D01*
X87634283Y-42617300D01*
X87639188Y-42615013D01*
X87639659Y-42616024D01*
X87695742Y-42601000D01*
X96636162Y-42601000D01*
X96636166Y-42601000D01*
X96677861Y-42591482D01*
X96684683Y-42590323D01*
X96727174Y-42585537D01*
X96753600Y-42576289D01*
X96767516Y-42571420D01*
X96774205Y-42569493D01*
X96791457Y-42565555D01*
X96815878Y-42559982D01*
X96854392Y-42541433D01*
X96860798Y-42538779D01*
X96901163Y-42524656D01*
X96937369Y-42501905D01*
X96943427Y-42498556D01*
X96981956Y-42480003D01*
X97015374Y-42453351D01*
X97021040Y-42449331D01*
X97057242Y-42426585D01*
X97187585Y-42296242D01*
X97187585Y-42296240D01*
X97197793Y-42286033D01*
X97197794Y-42286030D01*
X97827825Y-41656000D01*
X100186540Y-41656000D01*
X100206326Y-41844256D01*
X100206327Y-41844259D01*
X100264818Y-42024277D01*
X100264821Y-42024284D01*
X100359467Y-42188216D01*
X100478368Y-42320269D01*
X100486129Y-42328888D01*
X100639265Y-42440148D01*
X100639270Y-42440151D01*
X100812192Y-42517142D01*
X100812197Y-42517144D01*
X100997354Y-42556500D01*
X100997355Y-42556500D01*
X101186644Y-42556500D01*
X101186646Y-42556500D01*
X101371803Y-42517144D01*
X101544730Y-42440151D01*
X101697871Y-42328888D01*
X101824533Y-42188216D01*
X101919179Y-42024284D01*
X101977674Y-41844256D01*
X101997460Y-41656000D01*
X101977674Y-41467744D01*
X101919179Y-41287716D01*
X101824533Y-41123784D01*
X101697871Y-40983112D01*
X101672942Y-40965000D01*
X101544734Y-40871851D01*
X101544729Y-40871848D01*
X101371807Y-40794857D01*
X101371802Y-40794855D01*
X101226001Y-40763865D01*
X101186646Y-40755500D01*
X100997354Y-40755500D01*
X100964897Y-40762398D01*
X100812197Y-40794855D01*
X100812192Y-40794857D01*
X100639270Y-40871848D01*
X100639265Y-40871851D01*
X100486129Y-40983111D01*
X100359466Y-41123785D01*
X100264821Y-41287715D01*
X100264818Y-41287722D01*
X100206327Y-41467740D01*
X100206326Y-41467744D01*
X100186540Y-41656000D01*
X97827825Y-41656000D01*
X99280008Y-40203819D01*
X99341331Y-40170334D01*
X99367689Y-40167500D01*
X99391613Y-40167500D01*
X99391616Y-40167500D01*
X99462196Y-40161086D01*
X99624606Y-40110478D01*
X99625366Y-40110019D01*
X99645273Y-40097984D01*
X99699757Y-40065046D01*
X99736316Y-40050272D01*
X99763878Y-40043982D01*
X99802392Y-40025433D01*
X99808798Y-40022779D01*
X99849163Y-40008656D01*
X99885369Y-39985905D01*
X99891427Y-39982556D01*
X99929956Y-39964003D01*
X99963374Y-39937351D01*
X99969040Y-39933331D01*
X100005242Y-39910585D01*
X100063799Y-39852027D01*
X100125120Y-39818544D01*
X100194812Y-39823528D01*
X100250746Y-39865399D01*
X100257018Y-39874613D01*
X100269428Y-39894733D01*
X100389267Y-40014572D01*
X100389271Y-40014575D01*
X100533507Y-40103542D01*
X100533518Y-40103547D01*
X100694393Y-40156855D01*
X100793683Y-40166999D01*
X100841999Y-40166998D01*
X100842000Y-40166998D01*
X100842000Y-39467000D01*
X101342000Y-39467000D01*
X101342000Y-40166999D01*
X101390308Y-40166999D01*
X101390322Y-40166998D01*
X101489607Y-40156855D01*
X101650481Y-40103547D01*
X101650492Y-40103542D01*
X101794728Y-40014575D01*
X101794732Y-40014572D01*
X101914572Y-39894732D01*
X101914575Y-39894728D01*
X102003542Y-39750492D01*
X102003547Y-39750481D01*
X102056855Y-39589606D01*
X102066999Y-39490322D01*
X102067000Y-39490309D01*
X102067000Y-39467000D01*
X101342000Y-39467000D01*
X100842000Y-39467000D01*
X100842000Y-39125188D01*
X100861685Y-39058149D01*
X100878317Y-39037508D01*
X100912509Y-39003317D01*
X100973833Y-38969833D01*
X101000189Y-38967000D01*
X102066999Y-38967000D01*
X102066999Y-38943692D01*
X102066998Y-38943677D01*
X102056855Y-38844392D01*
X102003547Y-38683518D01*
X102003542Y-38683507D01*
X101914575Y-38539271D01*
X101914572Y-38539267D01*
X101905339Y-38530034D01*
X101871854Y-38468711D01*
X101876838Y-38399019D01*
X101905343Y-38354668D01*
X101914968Y-38345044D01*
X102004003Y-38200697D01*
X102057349Y-38039708D01*
X102067500Y-37940345D01*
X102067499Y-37393656D01*
X102057349Y-37294292D01*
X102004003Y-37133303D01*
X102003999Y-37133297D01*
X102003998Y-37133294D01*
X101914970Y-36988959D01*
X101914967Y-36988955D01*
X101795044Y-36869032D01*
X101795040Y-36869029D01*
X101650705Y-36780001D01*
X101650699Y-36779998D01*
X101650697Y-36779997D01*
X101631157Y-36773522D01*
X101489709Y-36726651D01*
X101390352Y-36716500D01*
X101390345Y-36716500D01*
X101349689Y-36716500D01*
X101282650Y-36696815D01*
X101262008Y-36680181D01*
X101221007Y-36639180D01*
X101187522Y-36577857D01*
X101192506Y-36508165D01*
X101234378Y-36452232D01*
X101299842Y-36427815D01*
X101308688Y-36427499D01*
X101393002Y-36427499D01*
X101393008Y-36427499D01*
X101495797Y-36416999D01*
X101662334Y-36361814D01*
X101811656Y-36269712D01*
X101935712Y-36145656D01*
X101956839Y-36111402D01*
X102008787Y-36064679D01*
X102062378Y-36052500D01*
X102158148Y-36052500D01*
X102225187Y-36072185D01*
X102236509Y-36080398D01*
X102316593Y-36145698D01*
X102496951Y-36239909D01*
X102692582Y-36295886D01*
X102881117Y-36310243D01*
X102895475Y-36311337D01*
X102895476Y-36311337D01*
X103097321Y-36285631D01*
X103097321Y-36285630D01*
X103097328Y-36285630D01*
X103289872Y-36219816D01*
X103465227Y-36116590D01*
X103616213Y-35980179D01*
X103736649Y-35816167D01*
X103821605Y-35631268D01*
X103824399Y-35619230D01*
X103867602Y-35433053D01*
X103868673Y-35390765D01*
X103872756Y-35229637D01*
X103836858Y-35029347D01*
X103761377Y-34840383D01*
X103761372Y-34840376D01*
X103761370Y-34840371D01*
X103649403Y-34670482D01*
X103649400Y-34670478D01*
X103332449Y-34353529D01*
X103271061Y-34288949D01*
X103271060Y-34288948D01*
X103270867Y-34288814D01*
X103237780Y-34265784D01*
X103220709Y-34253902D01*
X103216944Y-34251064D01*
X103212395Y-34247355D01*
X103201405Y-34238393D01*
X103169408Y-34212302D01*
X103169406Y-34212300D01*
X103138959Y-34196397D01*
X103132251Y-34192334D01*
X103104049Y-34172705D01*
X103104046Y-34172703D01*
X103104045Y-34172703D01*
X103104041Y-34172701D01*
X103047680Y-34148514D01*
X103043424Y-34146493D01*
X102989057Y-34118094D01*
X102989050Y-34118091D01*
X102989049Y-34118091D01*
X102983008Y-34116362D01*
X102956030Y-34108642D01*
X102948630Y-34106008D01*
X102917057Y-34092459D01*
X102917058Y-34092459D01*
X102856966Y-34080109D01*
X102852391Y-34078986D01*
X102793420Y-34062113D01*
X102793425Y-34062113D01*
X102759158Y-34059503D01*
X102751380Y-34058412D01*
X102717742Y-34051500D01*
X102717741Y-34051500D01*
X102656402Y-34051500D01*
X102651695Y-34051321D01*
X102646121Y-34050896D01*
X102590524Y-34046662D01*
X102570589Y-34049201D01*
X102556440Y-34051003D01*
X102548611Y-34051500D01*
X102062378Y-34051500D01*
X101995339Y-34031815D01*
X101956839Y-33992597D01*
X101935712Y-33958344D01*
X101828818Y-33851450D01*
X101795334Y-33790127D01*
X101792500Y-33763769D01*
X101792500Y-32789047D01*
X101792613Y-32785302D01*
X101796358Y-32723394D01*
X101785175Y-32662371D01*
X101784613Y-32658674D01*
X101781217Y-32630707D01*
X101777140Y-32597128D01*
X101773548Y-32587656D01*
X101767521Y-32566034D01*
X101765695Y-32556071D01*
X101765695Y-32556069D01*
X101740224Y-32499476D01*
X101738817Y-32496079D01*
X101716818Y-32438070D01*
X101716816Y-32438068D01*
X101716816Y-32438066D01*
X101711062Y-32429731D01*
X101700034Y-32410177D01*
X101695880Y-32400947D01*
X101695878Y-32400944D01*
X101657621Y-32352112D01*
X101655427Y-32349130D01*
X101620183Y-32298071D01*
X101573750Y-32256935D01*
X101571056Y-32254399D01*
X100799092Y-31482435D01*
X100765607Y-31421112D01*
X100766567Y-31364316D01*
X100799108Y-31235821D01*
X100799728Y-31228336D01*
X100819643Y-30988005D01*
X102634357Y-30988005D01*
X102654890Y-31235812D01*
X102654892Y-31235824D01*
X102715936Y-31476881D01*
X102815826Y-31704606D01*
X102951833Y-31912782D01*
X102953772Y-31914888D01*
X103120256Y-32095738D01*
X103316491Y-32248474D01*
X103316493Y-32248475D01*
X103510458Y-32353444D01*
X103535190Y-32366828D01*
X103770386Y-32447571D01*
X104015665Y-32488500D01*
X104264335Y-32488500D01*
X104509614Y-32447571D01*
X104562966Y-32429254D01*
X104632762Y-32426104D01*
X104690909Y-32458855D01*
X105015564Y-32783510D01*
X105025635Y-32796080D01*
X105025822Y-32795926D01*
X105030796Y-32801937D01*
X105030798Y-32801940D01*
X105059345Y-32828748D01*
X105083243Y-32851190D01*
X105104967Y-32872913D01*
X105110757Y-32877405D01*
X105115197Y-32881197D01*
X105142903Y-32907214D01*
X105150607Y-32914448D01*
X105150610Y-32914450D01*
X105150612Y-32914451D01*
X105169207Y-32924674D01*
X105185468Y-32935356D01*
X105200227Y-32946804D01*
X105202236Y-32948362D01*
X105246811Y-32967651D01*
X105252050Y-32970217D01*
X105294632Y-32993627D01*
X105315204Y-32998908D01*
X105333594Y-33005205D01*
X105353074Y-33013635D01*
X105401050Y-33021233D01*
X105406747Y-33022413D01*
X105453823Y-33034500D01*
X105475051Y-33034500D01*
X105494448Y-33036026D01*
X105515403Y-33039345D01*
X105515404Y-33039346D01*
X105515404Y-33039345D01*
X105515405Y-33039346D01*
X105563761Y-33034775D01*
X105569599Y-33034500D01*
X107177126Y-33034500D01*
X107244165Y-33054185D01*
X107264807Y-33070819D01*
X107375956Y-33181968D01*
X107494599Y-33255148D01*
X107541321Y-33307094D01*
X107553500Y-33360685D01*
X107553500Y-33715191D01*
X107533815Y-33782230D01*
X107517181Y-33802872D01*
X103486484Y-37833568D01*
X103473910Y-37843643D01*
X103474065Y-37843830D01*
X103468059Y-37848798D01*
X103444754Y-37873616D01*
X103418809Y-37901244D01*
X103407949Y-37912104D01*
X103397088Y-37922965D01*
X103397078Y-37922977D01*
X103392587Y-37928765D01*
X103388801Y-37933197D01*
X103355552Y-37968606D01*
X103345322Y-37987213D01*
X103334646Y-38003464D01*
X103321640Y-38020232D01*
X103321636Y-38020238D01*
X103302348Y-38064811D01*
X103299777Y-38070058D01*
X103276372Y-38112630D01*
X103276372Y-38112631D01*
X103271091Y-38133199D01*
X103264791Y-38151601D01*
X103256364Y-38171073D01*
X103248766Y-38219047D01*
X103247581Y-38224770D01*
X103235500Y-38271818D01*
X103235500Y-38293044D01*
X103233973Y-38312444D01*
X103230653Y-38333403D01*
X103235225Y-38381767D01*
X103235500Y-38387606D01*
X103235500Y-40477078D01*
X103215815Y-40544117D01*
X103203650Y-40560050D01*
X103153466Y-40615785D01*
X103058821Y-40779715D01*
X103058818Y-40779722D01*
X103028884Y-40871851D01*
X103000326Y-40959744D01*
X102980540Y-41148000D01*
X103000326Y-41336256D01*
X103000327Y-41336259D01*
X103058818Y-41516277D01*
X103058821Y-41516284D01*
X103153467Y-41680216D01*
X103277764Y-41818261D01*
X103280129Y-41820888D01*
X103433265Y-41932148D01*
X103433270Y-41932151D01*
X103606192Y-42009142D01*
X103606197Y-42009144D01*
X103791354Y-42048500D01*
X103791355Y-42048500D01*
X103910068Y-42048500D01*
X103977107Y-42068185D01*
X104022862Y-42120989D01*
X104027999Y-42134182D01*
X104074818Y-42278277D01*
X104074821Y-42278284D01*
X104169467Y-42442216D01*
X104275504Y-42559982D01*
X104296129Y-42582888D01*
X104449265Y-42694148D01*
X104449270Y-42694151D01*
X104622192Y-42771142D01*
X104622197Y-42771144D01*
X104807354Y-42810500D01*
X104807355Y-42810500D01*
X104996644Y-42810500D01*
X104996646Y-42810500D01*
X105181803Y-42771144D01*
X105354730Y-42694151D01*
X105507871Y-42582888D01*
X105634533Y-42442216D01*
X105729179Y-42278284D01*
X105736569Y-42255541D01*
X105776006Y-42197865D01*
X105840364Y-42170666D01*
X105909210Y-42182580D01*
X105960687Y-42229824D01*
X105972431Y-42255541D01*
X105979817Y-42278275D01*
X105979821Y-42278284D01*
X106074467Y-42442216D01*
X106180504Y-42559982D01*
X106201129Y-42582888D01*
X106354265Y-42694148D01*
X106354270Y-42694151D01*
X106527192Y-42771142D01*
X106527197Y-42771144D01*
X106712354Y-42810500D01*
X106712355Y-42810500D01*
X106901644Y-42810500D01*
X106901646Y-42810500D01*
X107086803Y-42771144D01*
X107259730Y-42694151D01*
X107412871Y-42582888D01*
X107539533Y-42442216D01*
X107634179Y-42278284D01*
X107692674Y-42098256D01*
X107712460Y-41910000D01*
X107692674Y-41721744D01*
X107634179Y-41541716D01*
X107539533Y-41377784D01*
X107412871Y-41237112D01*
X107412870Y-41237111D01*
X107259734Y-41125851D01*
X107259729Y-41125848D01*
X107086807Y-41048857D01*
X107086802Y-41048855D01*
X106941001Y-41017865D01*
X106901646Y-41009500D01*
X106712354Y-41009500D01*
X106679897Y-41016398D01*
X106527197Y-41048855D01*
X106527192Y-41048857D01*
X106354270Y-41125848D01*
X106354265Y-41125851D01*
X106201129Y-41237111D01*
X106074466Y-41377785D01*
X105979821Y-41541715D01*
X105979818Y-41541722D01*
X105972431Y-41564459D01*
X105932993Y-41622135D01*
X105868635Y-41649333D01*
X105799789Y-41637418D01*
X105748313Y-41590174D01*
X105736569Y-41564459D01*
X105729181Y-41541722D01*
X105729180Y-41541721D01*
X105729179Y-41541716D01*
X105634533Y-41377784D01*
X105507871Y-41237112D01*
X105507870Y-41237111D01*
X105354734Y-41125851D01*
X105354729Y-41125848D01*
X105181807Y-41048857D01*
X105181802Y-41048855D01*
X105036001Y-41017865D01*
X104996646Y-41009500D01*
X104877932Y-41009500D01*
X104810893Y-40989815D01*
X104765138Y-40937011D01*
X104760001Y-40923818D01*
X104713181Y-40779722D01*
X104713180Y-40779721D01*
X104713179Y-40779716D01*
X104632517Y-40640005D01*
X110254357Y-40640005D01*
X110274890Y-40887812D01*
X110274892Y-40887824D01*
X110335936Y-41128881D01*
X110435826Y-41356606D01*
X110571833Y-41564782D01*
X110571836Y-41564785D01*
X110740256Y-41747738D01*
X110936491Y-41900474D01*
X110936493Y-41900475D01*
X111137295Y-42009144D01*
X111155190Y-42018828D01*
X111298962Y-42068185D01*
X111386555Y-42098256D01*
X111390386Y-42099571D01*
X111635665Y-42140500D01*
X111884335Y-42140500D01*
X112129614Y-42099571D01*
X112364810Y-42018828D01*
X112583509Y-41900474D01*
X112779744Y-41747738D01*
X112948164Y-41564785D01*
X113084173Y-41356607D01*
X113184063Y-41128881D01*
X113245108Y-40887821D01*
X113245109Y-40887812D01*
X113265643Y-40640005D01*
X113265643Y-40639994D01*
X113245109Y-40392187D01*
X113245107Y-40392175D01*
X113184063Y-40151118D01*
X113084173Y-39923393D01*
X112948166Y-39715217D01*
X112860512Y-39620000D01*
X116767001Y-39620000D01*
X116767001Y-39701582D01*
X116773408Y-39772102D01*
X116773409Y-39772107D01*
X116823981Y-39934396D01*
X116911927Y-40079877D01*
X117032122Y-40200072D01*
X117177604Y-40288019D01*
X117177603Y-40288019D01*
X117339894Y-40338590D01*
X117339893Y-40338590D01*
X117410408Y-40344998D01*
X117410426Y-40344999D01*
X117416999Y-40344998D01*
X117417000Y-40344998D01*
X117417000Y-39620000D01*
X116767001Y-39620000D01*
X112860512Y-39620000D01*
X112779744Y-39532262D01*
X112583509Y-39379526D01*
X112583507Y-39379525D01*
X112583506Y-39379524D01*
X112364811Y-39261172D01*
X112364802Y-39261169D01*
X112129616Y-39180429D01*
X111884335Y-39139500D01*
X111635665Y-39139500D01*
X111390383Y-39180429D01*
X111155197Y-39261169D01*
X111155188Y-39261172D01*
X110936493Y-39379524D01*
X110740257Y-39532261D01*
X110571833Y-39715217D01*
X110435826Y-39923393D01*
X110335936Y-40151118D01*
X110274892Y-40392175D01*
X110274890Y-40392187D01*
X110254357Y-40639994D01*
X110254357Y-40640005D01*
X104632517Y-40640005D01*
X104618533Y-40615784D01*
X104568350Y-40560050D01*
X104538120Y-40497058D01*
X104536500Y-40477078D01*
X104536500Y-39120000D01*
X116767000Y-39120000D01*
X117417000Y-39120000D01*
X117417000Y-38395000D01*
X117416999Y-38394999D01*
X117410436Y-38395000D01*
X117410417Y-38395001D01*
X117339897Y-38401408D01*
X117339892Y-38401409D01*
X117177603Y-38451981D01*
X117032122Y-38539927D01*
X116911927Y-38660122D01*
X116823980Y-38805604D01*
X116773409Y-38967893D01*
X116767000Y-39038427D01*
X116767000Y-39120000D01*
X104536500Y-39120000D01*
X104536500Y-38674807D01*
X104556185Y-38607768D01*
X104572814Y-38587131D01*
X106837939Y-36322005D01*
X110254357Y-36322005D01*
X110274890Y-36569812D01*
X110274892Y-36569824D01*
X110335936Y-36810881D01*
X110435826Y-37038606D01*
X110571833Y-37246782D01*
X110571836Y-37246785D01*
X110740256Y-37429738D01*
X110936491Y-37582474D01*
X111155190Y-37700828D01*
X111390386Y-37781571D01*
X111635665Y-37822500D01*
X111884335Y-37822500D01*
X112129614Y-37781571D01*
X112364810Y-37700828D01*
X112583509Y-37582474D01*
X112779744Y-37429738D01*
X112948164Y-37246785D01*
X113084173Y-37038607D01*
X113184063Y-36810881D01*
X113245108Y-36569821D01*
X113245109Y-36569812D01*
X113265643Y-36322005D01*
X113265643Y-36321994D01*
X113245109Y-36074187D01*
X113245107Y-36074175D01*
X113184063Y-35833118D01*
X113084173Y-35605393D01*
X112948166Y-35397217D01*
X112861128Y-35302669D01*
X112779744Y-35214262D01*
X112583509Y-35061526D01*
X112583507Y-35061525D01*
X112583506Y-35061524D01*
X112364811Y-34943172D01*
X112364802Y-34943169D01*
X112129616Y-34862429D01*
X111884335Y-34821500D01*
X111635665Y-34821500D01*
X111390383Y-34862429D01*
X111155197Y-34943169D01*
X111155188Y-34943172D01*
X110936493Y-35061524D01*
X110740257Y-35214261D01*
X110571833Y-35397217D01*
X110435826Y-35605393D01*
X110335936Y-35833118D01*
X110274892Y-36074175D01*
X110274890Y-36074187D01*
X110254357Y-36321994D01*
X110254357Y-36322005D01*
X106837939Y-36322005D01*
X108603513Y-34556431D01*
X108616079Y-34546365D01*
X108615925Y-34546178D01*
X108621937Y-34541204D01*
X108621937Y-34541203D01*
X108621940Y-34541202D01*
X108671190Y-34488755D01*
X108692911Y-34467035D01*
X108697401Y-34461245D01*
X108701183Y-34456815D01*
X108734448Y-34421393D01*
X108744674Y-34402790D01*
X108755353Y-34386533D01*
X108768362Y-34369764D01*
X108787656Y-34325175D01*
X108790212Y-34319956D01*
X108813627Y-34277368D01*
X108818905Y-34256806D01*
X108825207Y-34238399D01*
X108833635Y-34218927D01*
X108841233Y-34170953D01*
X108842414Y-34165247D01*
X108854500Y-34118177D01*
X108854500Y-34096949D01*
X108856027Y-34077549D01*
X108856804Y-34072642D01*
X108859346Y-34056595D01*
X108854775Y-34008238D01*
X108854500Y-34002400D01*
X108854500Y-33360685D01*
X108874185Y-33293646D01*
X108913399Y-33255149D01*
X109032044Y-33181968D01*
X109151968Y-33062044D01*
X109241003Y-32917697D01*
X109294349Y-32756708D01*
X109304500Y-32657345D01*
X109304500Y-32531337D01*
X109897500Y-32531337D01*
X109897501Y-32531355D01*
X109907650Y-32630707D01*
X109907651Y-32630710D01*
X109960996Y-32791694D01*
X109961001Y-32791705D01*
X110050029Y-32936040D01*
X110050032Y-32936044D01*
X110169955Y-33055967D01*
X110169959Y-33055970D01*
X110314294Y-33144998D01*
X110314297Y-33144999D01*
X110314303Y-33145003D01*
X110475292Y-33198349D01*
X110475295Y-33198349D01*
X110479068Y-33199157D01*
X110532163Y-33224868D01*
X110557476Y-33245809D01*
X110561775Y-33249721D01*
X110709846Y-33397791D01*
X110825191Y-33513136D01*
X110858676Y-33574459D01*
X110860830Y-33587850D01*
X110874326Y-33716256D01*
X110874327Y-33716259D01*
X110932818Y-33896277D01*
X110932821Y-33896284D01*
X111027467Y-34060216D01*
X111124577Y-34168067D01*
X111154129Y-34200888D01*
X111307265Y-34312148D01*
X111307270Y-34312151D01*
X111480192Y-34389142D01*
X111480197Y-34389144D01*
X111665354Y-34428500D01*
X111665355Y-34428500D01*
X111854644Y-34428500D01*
X111854646Y-34428500D01*
X112039803Y-34389144D01*
X112212730Y-34312151D01*
X112365871Y-34200888D01*
X112492533Y-34060216D01*
X112587179Y-33896284D01*
X112645674Y-33716256D01*
X112665460Y-33528000D01*
X112645674Y-33339744D01*
X112587179Y-33159716D01*
X112549525Y-33094498D01*
X112533055Y-33026599D01*
X112555907Y-32960572D01*
X112610829Y-32917382D01*
X112656914Y-32908500D01*
X113452495Y-32908500D01*
X113468505Y-32910267D01*
X113468528Y-32910026D01*
X113476289Y-32910758D01*
X113476296Y-32910760D01*
X113548203Y-32908500D01*
X113578925Y-32908500D01*
X113586190Y-32907581D01*
X113592016Y-32907122D01*
X113640569Y-32905597D01*
X113660956Y-32899673D01*
X113679996Y-32895731D01*
X113701058Y-32893071D01*
X113746235Y-32875183D01*
X113751735Y-32873300D01*
X113798398Y-32859744D01*
X113816665Y-32848939D01*
X113834136Y-32840380D01*
X113853871Y-32832568D01*
X113893177Y-32804010D01*
X113898043Y-32800813D01*
X113939865Y-32776081D01*
X113954870Y-32761075D01*
X113969668Y-32748436D01*
X113972754Y-32746194D01*
X113986837Y-32735963D01*
X114017809Y-32698522D01*
X114021723Y-32694221D01*
X114511091Y-32204853D01*
X114572412Y-32171370D01*
X114639032Y-32175254D01*
X114649412Y-32178818D01*
X114692385Y-32193571D01*
X114937665Y-32234500D01*
X115186335Y-32234500D01*
X115431614Y-32193571D01*
X115666810Y-32112828D01*
X115885509Y-31994474D01*
X116081744Y-31841738D01*
X116250164Y-31658785D01*
X116386173Y-31450607D01*
X116486063Y-31222881D01*
X116547108Y-30981821D01*
X116547109Y-30981812D01*
X116567643Y-30734005D01*
X116567643Y-30733994D01*
X116547109Y-30486187D01*
X116547107Y-30486175D01*
X116486063Y-30245118D01*
X116386173Y-30017393D01*
X116250166Y-29809217D01*
X116174962Y-29727524D01*
X116081744Y-29626262D01*
X115885509Y-29473526D01*
X115885507Y-29473525D01*
X115885506Y-29473524D01*
X115666811Y-29355172D01*
X115666802Y-29355169D01*
X115431616Y-29274429D01*
X115186335Y-29233500D01*
X114937665Y-29233500D01*
X114692383Y-29274429D01*
X114457197Y-29355169D01*
X114457188Y-29355172D01*
X114238493Y-29473524D01*
X114042257Y-29626261D01*
X113873833Y-29809217D01*
X113737826Y-30017393D01*
X113637936Y-30245118D01*
X113576892Y-30486175D01*
X113576890Y-30486187D01*
X113556357Y-30733994D01*
X113556357Y-30734005D01*
X113576890Y-30981812D01*
X113576892Y-30981824D01*
X113623719Y-31166737D01*
X113621094Y-31236557D01*
X113591194Y-31284858D01*
X113304871Y-31571182D01*
X113243551Y-31604666D01*
X113217192Y-31607500D01*
X112024874Y-31607500D01*
X111957835Y-31587815D01*
X111937193Y-31571181D01*
X111826044Y-31460032D01*
X111826040Y-31460029D01*
X111681705Y-31371001D01*
X111681699Y-31370998D01*
X111681697Y-31370997D01*
X111637275Y-31356277D01*
X111520709Y-31317651D01*
X111421346Y-31307500D01*
X110574662Y-31307500D01*
X110574644Y-31307501D01*
X110475292Y-31317650D01*
X110475289Y-31317651D01*
X110314305Y-31370996D01*
X110314294Y-31371001D01*
X110169959Y-31460029D01*
X110169955Y-31460032D01*
X110050032Y-31579955D01*
X110050029Y-31579959D01*
X109961001Y-31724294D01*
X109960996Y-31724305D01*
X109907651Y-31885290D01*
X109897500Y-31984647D01*
X109897500Y-32531337D01*
X109304500Y-32531337D01*
X109304499Y-32110656D01*
X109304278Y-32108496D01*
X109294349Y-32011292D01*
X109294348Y-32011289D01*
X109282057Y-31974197D01*
X109241003Y-31850303D01*
X109240999Y-31850297D01*
X109240998Y-31850294D01*
X109151970Y-31705959D01*
X109151967Y-31705955D01*
X109032044Y-31586032D01*
X109032040Y-31586029D01*
X108887705Y-31497001D01*
X108887699Y-31496998D01*
X108887697Y-31496997D01*
X108849286Y-31484269D01*
X108726709Y-31443651D01*
X108627346Y-31433500D01*
X107780662Y-31433500D01*
X107780644Y-31433501D01*
X107681292Y-31443650D01*
X107681289Y-31443651D01*
X107520305Y-31496996D01*
X107520294Y-31497001D01*
X107375959Y-31586029D01*
X107375955Y-31586032D01*
X107264807Y-31697181D01*
X107203484Y-31730666D01*
X107177126Y-31733500D01*
X105856808Y-31733500D01*
X105789769Y-31713815D01*
X105769127Y-31697181D01*
X105610805Y-31538859D01*
X105577320Y-31477536D01*
X105578279Y-31420739D01*
X105625108Y-31235821D01*
X105625728Y-31228336D01*
X105645643Y-30988005D01*
X105645643Y-30987994D01*
X105625109Y-30740187D01*
X105625107Y-30740175D01*
X105564063Y-30499118D01*
X105464173Y-30271393D01*
X105328166Y-30063217D01*
X105301268Y-30033998D01*
X105159744Y-29880262D01*
X104963509Y-29727526D01*
X104963507Y-29727525D01*
X104963506Y-29727524D01*
X104744811Y-29609172D01*
X104744802Y-29609169D01*
X104509616Y-29528429D01*
X104264335Y-29487500D01*
X104015665Y-29487500D01*
X103770383Y-29528429D01*
X103535197Y-29609169D01*
X103535188Y-29609172D01*
X103316493Y-29727524D01*
X103120257Y-29880261D01*
X102951833Y-30063217D01*
X102815826Y-30271393D01*
X102715936Y-30499118D01*
X102654892Y-30740175D01*
X102654890Y-30740187D01*
X102634357Y-30987994D01*
X102634357Y-30988005D01*
X100819643Y-30988005D01*
X100819643Y-30987994D01*
X100799109Y-30740187D01*
X100799107Y-30740175D01*
X100738063Y-30499118D01*
X100638173Y-30271393D01*
X100502166Y-30063217D01*
X100475268Y-30033998D01*
X100333744Y-29880262D01*
X100137509Y-29727526D01*
X100137507Y-29727525D01*
X100137506Y-29727524D01*
X99918811Y-29609172D01*
X99918802Y-29609169D01*
X99683616Y-29528429D01*
X99438335Y-29487500D01*
X99189665Y-29487500D01*
X98944383Y-29528429D01*
X98709197Y-29609169D01*
X98709188Y-29609172D01*
X98490493Y-29727524D01*
X98294257Y-29880261D01*
X98125833Y-30063217D01*
X97989826Y-30271393D01*
X97889936Y-30499118D01*
X97828892Y-30740175D01*
X97828890Y-30740187D01*
X97808357Y-30987994D01*
X97808357Y-30988005D01*
X97828890Y-31235812D01*
X97828892Y-31235824D01*
X97889936Y-31476881D01*
X97989826Y-31704606D01*
X98125833Y-31912782D01*
X98127772Y-31914888D01*
X98294256Y-32095738D01*
X98490491Y-32248474D01*
X98490493Y-32248475D01*
X98684458Y-32353444D01*
X98709190Y-32366828D01*
X98944386Y-32447571D01*
X99189665Y-32488500D01*
X99438335Y-32488500D01*
X99683614Y-32447571D01*
X99684319Y-32447328D01*
X99684624Y-32447315D01*
X99688576Y-32446314D01*
X99688781Y-32447127D01*
X99754113Y-32444173D01*
X99812269Y-32476926D01*
X100355181Y-33019838D01*
X100388666Y-33081161D01*
X100391500Y-33107519D01*
X100391500Y-33613598D01*
X100371815Y-33680637D01*
X100319011Y-33726392D01*
X100306506Y-33731303D01*
X100273668Y-33742184D01*
X100124342Y-33834289D01*
X100000289Y-33958342D01*
X99908187Y-34107663D01*
X99908185Y-34107668D01*
X99889112Y-34165228D01*
X99853001Y-34274203D01*
X99853001Y-34274204D01*
X99853000Y-34274204D01*
X99842500Y-34376983D01*
X99842500Y-34961312D01*
X99822815Y-35028351D01*
X99770011Y-35074106D01*
X99700853Y-35084050D01*
X99637297Y-35055025D01*
X99630819Y-35048993D01*
X99329818Y-34747992D01*
X99296333Y-34686669D01*
X99293499Y-34660311D01*
X99293499Y-34376998D01*
X99293498Y-34376981D01*
X99282999Y-34274203D01*
X99282998Y-34274200D01*
X99276272Y-34253902D01*
X99227814Y-34107666D01*
X99135712Y-33958344D01*
X99011656Y-33834288D01*
X98897062Y-33763606D01*
X98862336Y-33742187D01*
X98862331Y-33742185D01*
X98829491Y-33731303D01*
X98695797Y-33687001D01*
X98695795Y-33687000D01*
X98593010Y-33676500D01*
X97742998Y-33676500D01*
X97742980Y-33676501D01*
X97640203Y-33687000D01*
X97640200Y-33687001D01*
X97473668Y-33742185D01*
X97473663Y-33742187D01*
X97324342Y-33834289D01*
X97200289Y-33958342D01*
X97108187Y-34107663D01*
X97108185Y-34107668D01*
X97089112Y-34165228D01*
X97053001Y-34274203D01*
X97053001Y-34274204D01*
X97053000Y-34274204D01*
X97042500Y-34376983D01*
X97042500Y-35727001D01*
X97042501Y-35727018D01*
X97053000Y-35829796D01*
X97053001Y-35829799D01*
X97100150Y-35972082D01*
X97108186Y-35996334D01*
X97200288Y-36145656D01*
X97324344Y-36269712D01*
X97473666Y-36361814D01*
X97640203Y-36416999D01*
X97742991Y-36427500D01*
X98593008Y-36427499D01*
X98627538Y-36423971D01*
X98696230Y-36436740D01*
X98727822Y-36459648D01*
X98776113Y-36507939D01*
X98809598Y-36569262D01*
X98804614Y-36638954D01*
X98762742Y-36694887D01*
X98699655Y-36719110D01*
X98657804Y-36722914D01*
X98549530Y-36756652D01*
X98495393Y-36773522D01*
X98488157Y-36777896D01*
X98482829Y-36781117D01*
X98418681Y-36799000D01*
X97669319Y-36799000D01*
X97605170Y-36781117D01*
X97592606Y-36773522D01*
X97430196Y-36722914D01*
X97430194Y-36722913D01*
X97430192Y-36722913D01*
X97380778Y-36718423D01*
X97359616Y-36716500D01*
X97359613Y-36716500D01*
X96921808Y-36716500D01*
X96854769Y-36696815D01*
X96834127Y-36680181D01*
X95800818Y-35646872D01*
X95767333Y-35585549D01*
X95764499Y-35559191D01*
X95764499Y-35497129D01*
X95764498Y-35497123D01*
X95758091Y-35437516D01*
X95707797Y-35302671D01*
X95707796Y-35302669D01*
X95685863Y-35273370D01*
X95641650Y-35214310D01*
X95617234Y-35148847D01*
X95632085Y-35080574D01*
X95641651Y-35065689D01*
X95707796Y-34977331D01*
X95758091Y-34842483D01*
X95764500Y-34782873D01*
X95764499Y-34017128D01*
X95758091Y-33957517D01*
X95750385Y-33936857D01*
X95707797Y-33822671D01*
X95707793Y-33822664D01*
X95621547Y-33707455D01*
X95621544Y-33707452D01*
X95506335Y-33621206D01*
X95506329Y-33621203D01*
X95436133Y-33595021D01*
X95380200Y-33553149D01*
X95355783Y-33487685D01*
X95370635Y-33419412D01*
X95391783Y-33391161D01*
X95675513Y-33107431D01*
X95688079Y-33097365D01*
X95687925Y-33097178D01*
X95693933Y-33092206D01*
X95693940Y-33092202D01*
X95740355Y-33042773D01*
X95791744Y-33009951D01*
X95809697Y-33004003D01*
X95810437Y-33003547D01*
X95899904Y-32948362D01*
X95954044Y-32914968D01*
X96073968Y-32795044D01*
X96163003Y-32650697D01*
X96216349Y-32489708D01*
X96226500Y-32390345D01*
X96226499Y-31793656D01*
X96223604Y-31765320D01*
X96216349Y-31694292D01*
X96216348Y-31694289D01*
X96190837Y-31617301D01*
X96163003Y-31533303D01*
X96162999Y-31533297D01*
X96162998Y-31533294D01*
X96112462Y-31451363D01*
X96094000Y-31386266D01*
X96094000Y-30981564D01*
X96113685Y-30914525D01*
X96152905Y-30876025D01*
X96156656Y-30873712D01*
X96280712Y-30749656D01*
X96372814Y-30600334D01*
X96427999Y-30433797D01*
X96438500Y-30331009D01*
X96438499Y-29356686D01*
X96445160Y-29334000D01*
X107104001Y-29334000D01*
X107104001Y-29357322D01*
X107114144Y-29456607D01*
X107167452Y-29617481D01*
X107167457Y-29617492D01*
X107256424Y-29761728D01*
X107256427Y-29761732D01*
X107376267Y-29881572D01*
X107376271Y-29881575D01*
X107520507Y-29970542D01*
X107520518Y-29970547D01*
X107681393Y-30023855D01*
X107780683Y-30033999D01*
X107953999Y-30033999D01*
X107954000Y-30033998D01*
X107954000Y-29334000D01*
X108454000Y-29334000D01*
X108454000Y-30033999D01*
X108627308Y-30033999D01*
X108627322Y-30033998D01*
X108726607Y-30023855D01*
X108887481Y-29970547D01*
X108887492Y-29970542D01*
X109031728Y-29881575D01*
X109031732Y-29881572D01*
X109151572Y-29761732D01*
X109151575Y-29761728D01*
X109240542Y-29617492D01*
X109240547Y-29617481D01*
X109293855Y-29456606D01*
X109303999Y-29357322D01*
X109304000Y-29357309D01*
X109304000Y-29334000D01*
X108454000Y-29334000D01*
X107954000Y-29334000D01*
X107104001Y-29334000D01*
X96445160Y-29334000D01*
X96458183Y-29289648D01*
X96474813Y-29269011D01*
X96535824Y-29208000D01*
X109898001Y-29208000D01*
X109898001Y-29231322D01*
X109908144Y-29330607D01*
X109961452Y-29491481D01*
X109961457Y-29491492D01*
X110050424Y-29635728D01*
X110050427Y-29635732D01*
X110170267Y-29755572D01*
X110170271Y-29755575D01*
X110314507Y-29844542D01*
X110314518Y-29844547D01*
X110475393Y-29897855D01*
X110574683Y-29907999D01*
X110747999Y-29907999D01*
X110748000Y-29907998D01*
X110748000Y-29208000D01*
X111248000Y-29208000D01*
X111248000Y-29907999D01*
X111421308Y-29907999D01*
X111421322Y-29907998D01*
X111520607Y-29897855D01*
X111681481Y-29844547D01*
X111681492Y-29844542D01*
X111825728Y-29755575D01*
X111825732Y-29755572D01*
X111945572Y-29635732D01*
X111945575Y-29635728D01*
X112034542Y-29491492D01*
X112034547Y-29491481D01*
X112087855Y-29330606D01*
X112097999Y-29231322D01*
X112098000Y-29231309D01*
X112098000Y-29208000D01*
X111248000Y-29208000D01*
X110748000Y-29208000D01*
X109898001Y-29208000D01*
X96535824Y-29208000D01*
X96909824Y-28834000D01*
X107104000Y-28834000D01*
X107954000Y-28834000D01*
X107954000Y-28134000D01*
X108454000Y-28134000D01*
X108454000Y-28834000D01*
X109303999Y-28834000D01*
X109303999Y-28810692D01*
X109303998Y-28810677D01*
X109293855Y-28711392D01*
X109292731Y-28708000D01*
X109898000Y-28708000D01*
X110748000Y-28708000D01*
X110748000Y-28008000D01*
X111248000Y-28008000D01*
X111248000Y-28708000D01*
X112097999Y-28708000D01*
X112097999Y-28684692D01*
X112097998Y-28684677D01*
X112087855Y-28585392D01*
X112034547Y-28424518D01*
X112034542Y-28424507D01*
X111945575Y-28280271D01*
X111945572Y-28280267D01*
X111825732Y-28160427D01*
X111825728Y-28160424D01*
X111681492Y-28071457D01*
X111681481Y-28071452D01*
X111520606Y-28018144D01*
X111421322Y-28008000D01*
X111248000Y-28008000D01*
X110748000Y-28008000D01*
X110574693Y-28008000D01*
X110574676Y-28008001D01*
X110475392Y-28018144D01*
X110314518Y-28071452D01*
X110314507Y-28071457D01*
X110170271Y-28160424D01*
X110170267Y-28160427D01*
X110050427Y-28280267D01*
X110050424Y-28280271D01*
X109961457Y-28424507D01*
X109961452Y-28424518D01*
X109908144Y-28585393D01*
X109898000Y-28684677D01*
X109898000Y-28708000D01*
X109292731Y-28708000D01*
X109240547Y-28550518D01*
X109240542Y-28550507D01*
X109151575Y-28406271D01*
X109151572Y-28406267D01*
X109031732Y-28286427D01*
X109031728Y-28286424D01*
X108887492Y-28197457D01*
X108887481Y-28197452D01*
X108726606Y-28144144D01*
X108627322Y-28134000D01*
X108454000Y-28134000D01*
X107954000Y-28134000D01*
X107780693Y-28134000D01*
X107780676Y-28134001D01*
X107681392Y-28144144D01*
X107520518Y-28197452D01*
X107520507Y-28197457D01*
X107376271Y-28286424D01*
X107376267Y-28286427D01*
X107256427Y-28406267D01*
X107256424Y-28406271D01*
X107167457Y-28550507D01*
X107167452Y-28550518D01*
X107114144Y-28711393D01*
X107104000Y-28810677D01*
X107104000Y-28834000D01*
X96909824Y-28834000D01*
X96939175Y-28804649D01*
X96976417Y-28779054D01*
X96996460Y-28770129D01*
X97099730Y-28724151D01*
X97252871Y-28612888D01*
X97379533Y-28472216D01*
X97474179Y-28308284D01*
X97532674Y-28128256D01*
X97552460Y-27940000D01*
X97532674Y-27751744D01*
X97474179Y-27571716D01*
X97379533Y-27407784D01*
X97252871Y-27267112D01*
X97239735Y-27257568D01*
X97099734Y-27155851D01*
X97099729Y-27155848D01*
X96926807Y-27078857D01*
X96926802Y-27078855D01*
X96757124Y-27042790D01*
X96695642Y-27009598D01*
X96661866Y-26948435D01*
X96666518Y-26878720D01*
X96708123Y-26822588D01*
X96773470Y-26797859D01*
X96782905Y-26797500D01*
X139189964Y-26797500D01*
X139194019Y-26797633D01*
X139223188Y-26799544D01*
X139275780Y-26802991D01*
X139461833Y-26816298D01*
X139469475Y-26817328D01*
X139587233Y-26840752D01*
X139734306Y-26872746D01*
X139741052Y-26874618D01*
X139861739Y-26915585D01*
X139949811Y-26948435D01*
X139996528Y-26965860D01*
X140002284Y-26968345D01*
X140085937Y-27009598D01*
X140119386Y-27026093D01*
X140243587Y-27093912D01*
X140248314Y-27096773D01*
X140336727Y-27155849D01*
X140356885Y-27169318D01*
X140359595Y-27171236D01*
X140416999Y-27214207D01*
X140470895Y-27254553D01*
X140474603Y-27257560D01*
X140520268Y-27297607D01*
X140573200Y-27344027D01*
X140576146Y-27346786D01*
X140674211Y-27444851D01*
X140676968Y-27447794D01*
X140713543Y-27489501D01*
X140763430Y-27546385D01*
X140766451Y-27550111D01*
X140849762Y-27661403D01*
X140851680Y-27664113D01*
X140924220Y-27772676D01*
X140927086Y-27777410D01*
X140994906Y-27901613D01*
X141052652Y-28018712D01*
X141055138Y-28024470D01*
X141105409Y-28159247D01*
X141105809Y-28160424D01*
X141146378Y-28279939D01*
X141148253Y-28286694D01*
X141180247Y-28433766D01*
X141203667Y-28551507D01*
X141204702Y-28559187D01*
X141218017Y-28745354D01*
X141223367Y-28826967D01*
X141223500Y-28831024D01*
X141223500Y-44072000D01*
X141203815Y-44139039D01*
X141151011Y-44184794D01*
X141099500Y-44196000D01*
X121295063Y-44196000D01*
X121228024Y-44176315D01*
X121182269Y-44123511D01*
X121172325Y-44054353D01*
X121201350Y-43990797D01*
X121203833Y-43988017D01*
X121330164Y-43850785D01*
X121466173Y-43642607D01*
X121566063Y-43414881D01*
X121627108Y-43173821D01*
X121633980Y-43090888D01*
X121647643Y-42926005D01*
X121647643Y-42925994D01*
X121627109Y-42678187D01*
X121627107Y-42678175D01*
X121566063Y-42437118D01*
X121557677Y-42418000D01*
X123300540Y-42418000D01*
X123320326Y-42606256D01*
X123320327Y-42606259D01*
X123378818Y-42786277D01*
X123378821Y-42786284D01*
X123473467Y-42950216D01*
X123600129Y-43090888D01*
X123753265Y-43202148D01*
X123753270Y-43202151D01*
X123926192Y-43279142D01*
X123926197Y-43279144D01*
X124111354Y-43318500D01*
X124111355Y-43318500D01*
X124300644Y-43318500D01*
X124300646Y-43318500D01*
X124485803Y-43279144D01*
X124658730Y-43202151D01*
X124811871Y-43090888D01*
X124938533Y-42950216D01*
X125033179Y-42786284D01*
X125091674Y-42606256D01*
X125111460Y-42418000D01*
X125091674Y-42229744D01*
X125033179Y-42049716D01*
X124938533Y-41885784D01*
X124811871Y-41745112D01*
X124779708Y-41721744D01*
X124658734Y-41633851D01*
X124658729Y-41633848D01*
X124485807Y-41556857D01*
X124485802Y-41556855D01*
X124325905Y-41522869D01*
X124300646Y-41517500D01*
X124111354Y-41517500D01*
X124086095Y-41522869D01*
X123926197Y-41556855D01*
X123926192Y-41556857D01*
X123753270Y-41633848D01*
X123753265Y-41633851D01*
X123600129Y-41745111D01*
X123473466Y-41885785D01*
X123378821Y-42049715D01*
X123378818Y-42049722D01*
X123333820Y-42188214D01*
X123320326Y-42229744D01*
X123300540Y-42418000D01*
X121557677Y-42418000D01*
X121466173Y-42209393D01*
X121330166Y-42001217D01*
X121255468Y-41920074D01*
X121161744Y-41818262D01*
X120965509Y-41665526D01*
X120965508Y-41665525D01*
X120965505Y-41665523D01*
X120965498Y-41665519D01*
X120857482Y-41607063D01*
X120807891Y-41557844D01*
X120792500Y-41498009D01*
X120792500Y-40469500D01*
X120812185Y-40402461D01*
X120864989Y-40356706D01*
X120916500Y-40345500D01*
X121034613Y-40345500D01*
X121034616Y-40345500D01*
X121105196Y-40339086D01*
X121267606Y-40288478D01*
X121413185Y-40200472D01*
X121462539Y-40151118D01*
X121515319Y-40098339D01*
X121576642Y-40064854D01*
X121646334Y-40069838D01*
X121690681Y-40098339D01*
X121792811Y-40200469D01*
X121792813Y-40200470D01*
X121792815Y-40200472D01*
X121938394Y-40288478D01*
X122100804Y-40339086D01*
X122171384Y-40345500D01*
X122171387Y-40345500D01*
X122684613Y-40345500D01*
X122684616Y-40345500D01*
X122755196Y-40339086D01*
X122917606Y-40288478D01*
X123063185Y-40200472D01*
X123183472Y-40080185D01*
X123271478Y-39934606D01*
X123322086Y-39772196D01*
X123328500Y-39701616D01*
X123328500Y-39229418D01*
X123332394Y-39198586D01*
X123332500Y-39198177D01*
X123332500Y-39176949D01*
X123334027Y-39157549D01*
X123335267Y-39149718D01*
X123337346Y-39136595D01*
X123332775Y-39088238D01*
X123332500Y-39082400D01*
X123332500Y-37896715D01*
X123352185Y-37829676D01*
X123404989Y-37783921D01*
X123440313Y-37773776D01*
X123476262Y-37769044D01*
X123622341Y-37708536D01*
X123747782Y-37612282D01*
X123844036Y-37486841D01*
X123904544Y-37340762D01*
X123920000Y-37223361D01*
X123919999Y-36944640D01*
X123904544Y-36827238D01*
X123904542Y-36827234D01*
X123896205Y-36807106D01*
X123895934Y-36806454D01*
X123888465Y-36736986D01*
X123895935Y-36711545D01*
X123904544Y-36690762D01*
X123920000Y-36573361D01*
X123919999Y-36294640D01*
X123904544Y-36177238D01*
X123904542Y-36177234D01*
X123895935Y-36156455D01*
X123888465Y-36086986D01*
X123895935Y-36061545D01*
X123904544Y-36040762D01*
X123920000Y-35923361D01*
X123920000Y-35826500D01*
X123939685Y-35759461D01*
X123992489Y-35713706D01*
X124044000Y-35702500D01*
X124515340Y-35702500D01*
X124579489Y-35720382D01*
X124657394Y-35767478D01*
X124819804Y-35818086D01*
X124890384Y-35824500D01*
X124890387Y-35824500D01*
X125553613Y-35824500D01*
X125553616Y-35824500D01*
X125624196Y-35818086D01*
X125786606Y-35767478D01*
X125932185Y-35679472D01*
X126052472Y-35559185D01*
X126140478Y-35413606D01*
X126191086Y-35251196D01*
X126197500Y-35180616D01*
X126197500Y-34667384D01*
X126191086Y-34596804D01*
X126140478Y-34434394D01*
X126052472Y-34288815D01*
X126052470Y-34288813D01*
X126052469Y-34288811D01*
X125950338Y-34186680D01*
X125916853Y-34125357D01*
X125921837Y-34055665D01*
X125950337Y-34011319D01*
X126000839Y-33960818D01*
X126062162Y-33927334D01*
X126088519Y-33924500D01*
X126152495Y-33924500D01*
X126168505Y-33926267D01*
X126168528Y-33926026D01*
X126176289Y-33926758D01*
X126176296Y-33926760D01*
X126248203Y-33924500D01*
X126278925Y-33924500D01*
X126286190Y-33923581D01*
X126292016Y-33923122D01*
X126340569Y-33921597D01*
X126360956Y-33915673D01*
X126379996Y-33911731D01*
X126401058Y-33909071D01*
X126446235Y-33891183D01*
X126451735Y-33889300D01*
X126498398Y-33875744D01*
X126516665Y-33864939D01*
X126534136Y-33856380D01*
X126553871Y-33848568D01*
X126593177Y-33820010D01*
X126598043Y-33816813D01*
X126639865Y-33792081D01*
X126654870Y-33777075D01*
X126669668Y-33764436D01*
X126670586Y-33763769D01*
X126686837Y-33751963D01*
X126717808Y-33714523D01*
X126721718Y-33710226D01*
X126729134Y-33702810D01*
X126790460Y-33669331D01*
X126816807Y-33666500D01*
X126840644Y-33666500D01*
X126840646Y-33666500D01*
X127025803Y-33627144D01*
X127198730Y-33550151D01*
X127351871Y-33438888D01*
X127478533Y-33298216D01*
X127492514Y-33274001D01*
X132969147Y-33274001D01*
X132988536Y-33545090D01*
X132988537Y-33545097D01*
X133046305Y-33810654D01*
X133141285Y-34065306D01*
X133141287Y-34065310D01*
X133271532Y-34303835D01*
X133271537Y-34303843D01*
X133365320Y-34429124D01*
X133365321Y-34429124D01*
X134233859Y-33560586D01*
X134293680Y-33674566D01*
X134406405Y-33801806D01*
X134546305Y-33898371D01*
X134587542Y-33914010D01*
X133718874Y-34782677D01*
X133718875Y-34782678D01*
X133844156Y-34876462D01*
X133844164Y-34876467D01*
X134082689Y-35006712D01*
X134082693Y-35006714D01*
X134337345Y-35101694D01*
X134602902Y-35159462D01*
X134602909Y-35159463D01*
X134873999Y-35178853D01*
X134874001Y-35178853D01*
X135145090Y-35159463D01*
X135145097Y-35159462D01*
X135410654Y-35101694D01*
X135665306Y-35006714D01*
X135665310Y-35006712D01*
X135903835Y-34876467D01*
X135903843Y-34876462D01*
X136029123Y-34782678D01*
X136029124Y-34782677D01*
X135160458Y-33914010D01*
X135201695Y-33898371D01*
X135341595Y-33801806D01*
X135454320Y-33674566D01*
X135514140Y-33560587D01*
X136382677Y-34429124D01*
X136382678Y-34429123D01*
X136476462Y-34303843D01*
X136476467Y-34303835D01*
X136606712Y-34065310D01*
X136606714Y-34065306D01*
X136701694Y-33810654D01*
X136759462Y-33545097D01*
X136759463Y-33545090D01*
X136778853Y-33274001D01*
X136778853Y-33273998D01*
X136759463Y-33002909D01*
X136759462Y-33002902D01*
X136701694Y-32737345D01*
X136606714Y-32482693D01*
X136606712Y-32482689D01*
X136476467Y-32244164D01*
X136476462Y-32244156D01*
X136382678Y-32118875D01*
X136382677Y-32118874D01*
X135514139Y-32987412D01*
X135454320Y-32873434D01*
X135341595Y-32746194D01*
X135201695Y-32649629D01*
X135160457Y-32633989D01*
X136029124Y-31765321D01*
X136029124Y-31765320D01*
X135903843Y-31671537D01*
X135903835Y-31671532D01*
X135665310Y-31541287D01*
X135665306Y-31541285D01*
X135410654Y-31446305D01*
X135145097Y-31388537D01*
X135145090Y-31388536D01*
X134874001Y-31369147D01*
X134873999Y-31369147D01*
X134602909Y-31388536D01*
X134602902Y-31388537D01*
X134337345Y-31446305D01*
X134082693Y-31541285D01*
X134082689Y-31541287D01*
X133844164Y-31671532D01*
X133718875Y-31765321D01*
X134587543Y-32633989D01*
X134546305Y-32649629D01*
X134406405Y-32746194D01*
X134293680Y-32873434D01*
X134233859Y-32987413D01*
X133365321Y-32118875D01*
X133271532Y-32244164D01*
X133141287Y-32482689D01*
X133141285Y-32482693D01*
X133046305Y-32737345D01*
X132988537Y-33002902D01*
X132988536Y-33002909D01*
X132969147Y-33273998D01*
X132969147Y-33274001D01*
X127492514Y-33274001D01*
X127573179Y-33134284D01*
X127631674Y-32954256D01*
X127651460Y-32766000D01*
X127631674Y-32577744D01*
X127573179Y-32397716D01*
X127478533Y-32233784D01*
X127351871Y-32093112D01*
X127351870Y-32093111D01*
X127198734Y-31981851D01*
X127198729Y-31981848D01*
X127025807Y-31904857D01*
X127025802Y-31904855D01*
X126880001Y-31873865D01*
X126840646Y-31865500D01*
X126651354Y-31865500D01*
X126618897Y-31872398D01*
X126466197Y-31904855D01*
X126466192Y-31904857D01*
X126293270Y-31981848D01*
X126293265Y-31981851D01*
X126140129Y-32093111D01*
X126013466Y-32233785D01*
X125932198Y-32374546D01*
X125881631Y-32422762D01*
X125813024Y-32435985D01*
X125787922Y-32430932D01*
X125721315Y-32410177D01*
X125624196Y-32379914D01*
X125553616Y-32373500D01*
X124890384Y-32373500D01*
X124871145Y-32375248D01*
X124819807Y-32379913D01*
X124657393Y-32430522D01*
X124511811Y-32518530D01*
X124391530Y-32638811D01*
X124303522Y-32784393D01*
X124252913Y-32946807D01*
X124246500Y-33017386D01*
X124246500Y-33530613D01*
X124252913Y-33601192D01*
X124252913Y-33601194D01*
X124252914Y-33601196D01*
X124303522Y-33763606D01*
X124362508Y-33861181D01*
X124391530Y-33909188D01*
X124493661Y-34011319D01*
X124527146Y-34072642D01*
X124522162Y-34142334D01*
X124493661Y-34186681D01*
X124391531Y-34288810D01*
X124391528Y-34288814D01*
X124359587Y-34341651D01*
X124308059Y-34388838D01*
X124253471Y-34401500D01*
X124036230Y-34401500D01*
X123969191Y-34381815D01*
X123923436Y-34329011D01*
X123913291Y-34293684D01*
X123912668Y-34288949D01*
X123904544Y-34227238D01*
X123895934Y-34206454D01*
X123888465Y-34136986D01*
X123895935Y-34111545D01*
X123904544Y-34090762D01*
X123920000Y-33973361D01*
X123919999Y-33694640D01*
X123918993Y-33687001D01*
X123916295Y-33666500D01*
X123904544Y-33577238D01*
X123904542Y-33577234D01*
X123895935Y-33556455D01*
X123888465Y-33486986D01*
X123895935Y-33461545D01*
X123896653Y-33459811D01*
X123904544Y-33440762D01*
X123920000Y-33323361D01*
X123919999Y-33044640D01*
X123919999Y-33044638D01*
X123919999Y-33044636D01*
X123904546Y-32927246D01*
X123904544Y-32927239D01*
X123904544Y-32927238D01*
X123844036Y-32781159D01*
X123747782Y-32655718D01*
X123648012Y-32579162D01*
X123606811Y-32522735D01*
X123599500Y-32480787D01*
X123599500Y-32397874D01*
X123619185Y-32330835D01*
X123635819Y-32310193D01*
X123690304Y-32255708D01*
X123746968Y-32199044D01*
X123751651Y-32191450D01*
X123803597Y-32144725D01*
X123841653Y-32133522D01*
X123861058Y-32131071D01*
X123906235Y-32113183D01*
X123911735Y-32111300D01*
X123958398Y-32097744D01*
X123976665Y-32086939D01*
X123994136Y-32078380D01*
X124013871Y-32070568D01*
X124053177Y-32042010D01*
X124058043Y-32038813D01*
X124099865Y-32014081D01*
X124114870Y-31999075D01*
X124129668Y-31986436D01*
X124146837Y-31973963D01*
X124177808Y-31936523D01*
X124181718Y-31932226D01*
X124189134Y-31924810D01*
X124250460Y-31891331D01*
X124276807Y-31888500D01*
X124300644Y-31888500D01*
X124300646Y-31888500D01*
X124485803Y-31849144D01*
X124658730Y-31772151D01*
X124811871Y-31660888D01*
X124938533Y-31520216D01*
X125033179Y-31356284D01*
X125091674Y-31176256D01*
X125111460Y-30988000D01*
X125091674Y-30799744D01*
X125033179Y-30619716D01*
X124938533Y-30455784D01*
X124811871Y-30315112D01*
X124715534Y-30245119D01*
X124658734Y-30203851D01*
X124658729Y-30203848D01*
X124485807Y-30126857D01*
X124485802Y-30126855D01*
X124340001Y-30095865D01*
X124300646Y-30087500D01*
X124111354Y-30087500D01*
X124078897Y-30094398D01*
X123926197Y-30126855D01*
X123926192Y-30126857D01*
X123753270Y-30203848D01*
X123753265Y-30203851D01*
X123600129Y-30315111D01*
X123473466Y-30455785D01*
X123463316Y-30473364D01*
X123412747Y-30521578D01*
X123344139Y-30534798D01*
X123328450Y-30531496D01*
X123328328Y-30532068D01*
X123321709Y-30530651D01*
X123222346Y-30520500D01*
X122675662Y-30520500D01*
X122675644Y-30520501D01*
X122576292Y-30530650D01*
X122576289Y-30530651D01*
X122415305Y-30583996D01*
X122415294Y-30584001D01*
X122270959Y-30673029D01*
X122270953Y-30673033D01*
X122261324Y-30682663D01*
X122200000Y-30716146D01*
X122130308Y-30711159D01*
X122085965Y-30682660D01*
X122076732Y-30673427D01*
X122076728Y-30673424D01*
X121932492Y-30584457D01*
X121932481Y-30584452D01*
X121771606Y-30531144D01*
X121672322Y-30521000D01*
X121649000Y-30521000D01*
X121649000Y-32479059D01*
X121672789Y-32522626D01*
X121667805Y-32592318D01*
X121627114Y-32647356D01*
X121616221Y-32655715D01*
X121616219Y-32655716D01*
X121616218Y-32655718D01*
X121583365Y-32698533D01*
X121519963Y-32781160D01*
X121459456Y-32927237D01*
X121459455Y-32927239D01*
X121444000Y-33044638D01*
X121444000Y-33323363D01*
X121459453Y-33440753D01*
X121459457Y-33440765D01*
X121468066Y-33461550D01*
X121475533Y-33531019D01*
X121468066Y-33556450D01*
X121459457Y-33577234D01*
X121459455Y-33577239D01*
X121444001Y-33694629D01*
X121444000Y-33694645D01*
X121444000Y-33709500D01*
X121424315Y-33776539D01*
X121371511Y-33822294D01*
X121320000Y-33833500D01*
X118318999Y-33833500D01*
X118251960Y-33813815D01*
X118206205Y-33761011D01*
X118194999Y-33709500D01*
X118194999Y-33694638D01*
X118191295Y-33666500D01*
X118179544Y-33577238D01*
X118179542Y-33577234D01*
X118170935Y-33556455D01*
X118163465Y-33486986D01*
X118170935Y-33461545D01*
X118171653Y-33459811D01*
X118179544Y-33440762D01*
X118195000Y-33323361D01*
X118194999Y-33044640D01*
X118194999Y-33044638D01*
X118194999Y-33044636D01*
X118179546Y-32927246D01*
X118179544Y-32927239D01*
X118179544Y-32927238D01*
X118119036Y-32781159D01*
X118022782Y-32655718D01*
X118022780Y-32655717D01*
X118022780Y-32655716D01*
X117904918Y-32565278D01*
X117863715Y-32508850D01*
X117859560Y-32439104D01*
X117892720Y-32379225D01*
X118093128Y-32178816D01*
X118154451Y-32145334D01*
X118180808Y-32142500D01*
X118204644Y-32142500D01*
X118204646Y-32142500D01*
X118389803Y-32103144D01*
X118562730Y-32026151D01*
X118715871Y-31914888D01*
X118842533Y-31774216D01*
X118858823Y-31746000D01*
X120449001Y-31746000D01*
X120449001Y-31794322D01*
X120459144Y-31893607D01*
X120512452Y-32054481D01*
X120512457Y-32054492D01*
X120601424Y-32198728D01*
X120601427Y-32198732D01*
X120721267Y-32318572D01*
X120721271Y-32318575D01*
X120865507Y-32407542D01*
X120865518Y-32407547D01*
X121026393Y-32460855D01*
X121125683Y-32470999D01*
X121149000Y-32470998D01*
X121149000Y-31746000D01*
X120449001Y-31746000D01*
X118858823Y-31746000D01*
X118937179Y-31610284D01*
X118995674Y-31430256D01*
X119015040Y-31246000D01*
X120449000Y-31246000D01*
X121149000Y-31246000D01*
X121149000Y-30520999D01*
X121125693Y-30521000D01*
X121125674Y-30521001D01*
X121026392Y-30531144D01*
X120865518Y-30584452D01*
X120865507Y-30584457D01*
X120721271Y-30673424D01*
X120721267Y-30673427D01*
X120601427Y-30793267D01*
X120601424Y-30793271D01*
X120512457Y-30937507D01*
X120512452Y-30937518D01*
X120459144Y-31098393D01*
X120449000Y-31197677D01*
X120449000Y-31246000D01*
X119015040Y-31246000D01*
X119015460Y-31242000D01*
X118995674Y-31053744D01*
X118937179Y-30873716D01*
X118842533Y-30709784D01*
X118715871Y-30569112D01*
X118715870Y-30569111D01*
X118562734Y-30457851D01*
X118562729Y-30457848D01*
X118389807Y-30380857D01*
X118389802Y-30380855D01*
X118244001Y-30349865D01*
X118204646Y-30341500D01*
X118015354Y-30341500D01*
X117982897Y-30348398D01*
X117830197Y-30380855D01*
X117830192Y-30380857D01*
X117657270Y-30457848D01*
X117657265Y-30457851D01*
X117504129Y-30569111D01*
X117377466Y-30709785D01*
X117282821Y-30873715D01*
X117282818Y-30873722D01*
X117224327Y-31053739D01*
X117224326Y-31053741D01*
X117210831Y-31182142D01*
X117184246Y-31246757D01*
X117175191Y-31256861D01*
X116557483Y-31874569D01*
X116544910Y-31884643D01*
X116545065Y-31884830D01*
X116539059Y-31889798D01*
X116524920Y-31904855D01*
X116489809Y-31942244D01*
X116478949Y-31953104D01*
X116468088Y-31963965D01*
X116468078Y-31963977D01*
X116463587Y-31969765D01*
X116459801Y-31974197D01*
X116426552Y-32009606D01*
X116416322Y-32028213D01*
X116405646Y-32044464D01*
X116392640Y-32061232D01*
X116392636Y-32061238D01*
X116373348Y-32105811D01*
X116370777Y-32111058D01*
X116347372Y-32153630D01*
X116347372Y-32153631D01*
X116342091Y-32174199D01*
X116335791Y-32192601D01*
X116327364Y-32212073D01*
X116319766Y-32260047D01*
X116318581Y-32265770D01*
X116306500Y-32312818D01*
X116306500Y-32334044D01*
X116304973Y-32353444D01*
X116301652Y-32374405D01*
X116301608Y-32375823D01*
X116301260Y-32376882D01*
X116300432Y-32382112D01*
X116299588Y-32381978D01*
X116279822Y-32442210D01*
X116225604Y-32486280D01*
X116193854Y-32494859D01*
X116162745Y-32498954D01*
X116162737Y-32498956D01*
X116016660Y-32559463D01*
X115891218Y-32655718D01*
X115794963Y-32781160D01*
X115734456Y-32927237D01*
X115734455Y-32927239D01*
X115719643Y-33039755D01*
X115719001Y-33044636D01*
X115719000Y-33044645D01*
X115719000Y-33189086D01*
X115699315Y-33256125D01*
X115658125Y-33295816D01*
X115624131Y-33315921D01*
X115609126Y-33330926D01*
X115594336Y-33343558D01*
X115577167Y-33356032D01*
X115577165Y-33356034D01*
X115546194Y-33393470D01*
X115542262Y-33397791D01*
X115078873Y-33861181D01*
X115017550Y-33894666D01*
X114991192Y-33897500D01*
X114967354Y-33897500D01*
X114934897Y-33904398D01*
X114782197Y-33936855D01*
X114782192Y-33936857D01*
X114609270Y-34013848D01*
X114609265Y-34013851D01*
X114456129Y-34125111D01*
X114329466Y-34265785D01*
X114234821Y-34429715D01*
X114234818Y-34429722D01*
X114176327Y-34609740D01*
X114176326Y-34609744D01*
X114156540Y-34798000D01*
X114176326Y-34986256D01*
X114176327Y-34986259D01*
X114234818Y-35166277D01*
X114234821Y-35166284D01*
X114329467Y-35330216D01*
X114426081Y-35437516D01*
X114456129Y-35470888D01*
X114609265Y-35582148D01*
X114609270Y-35582151D01*
X114782192Y-35659142D01*
X114782197Y-35659144D01*
X114967354Y-35698500D01*
X114967355Y-35698500D01*
X115156644Y-35698500D01*
X115156646Y-35698500D01*
X115341803Y-35659144D01*
X115514730Y-35582151D01*
X115522111Y-35576788D01*
X115587914Y-35553306D01*
X115655969Y-35569127D01*
X115704667Y-35619230D01*
X115719000Y-35677103D01*
X115719000Y-35923363D01*
X115734453Y-36040753D01*
X115734457Y-36040765D01*
X115743066Y-36061550D01*
X115750533Y-36131019D01*
X115743066Y-36156450D01*
X115734457Y-36177234D01*
X115734455Y-36177239D01*
X115719000Y-36294638D01*
X115719000Y-36573363D01*
X115734453Y-36690753D01*
X115734456Y-36690762D01*
X115743337Y-36712203D01*
X115750804Y-36781673D01*
X115743338Y-36807103D01*
X115734943Y-36827370D01*
X115727487Y-36884000D01*
X115770000Y-36884000D01*
X115837039Y-36903685D01*
X115868375Y-36932513D01*
X115891215Y-36962279D01*
X115891216Y-36962280D01*
X115891218Y-36962282D01*
X116016659Y-37058536D01*
X116016660Y-37058536D01*
X116020684Y-37061624D01*
X116061886Y-37118052D01*
X116066041Y-37187798D01*
X116031829Y-37248719D01*
X115970111Y-37281471D01*
X115945197Y-37284000D01*
X115727490Y-37284000D01*
X115727488Y-37284001D01*
X115734942Y-37340627D01*
X115734944Y-37340633D01*
X115795399Y-37486585D01*
X115891575Y-37611924D01*
X116016913Y-37708100D01*
X116162865Y-37768554D01*
X116162869Y-37768555D01*
X116280176Y-37783999D01*
X116756999Y-37783999D01*
X116757000Y-37783998D01*
X116757000Y-37258499D01*
X116776685Y-37191460D01*
X116829489Y-37145705D01*
X116880997Y-37134499D01*
X117033001Y-37134499D01*
X117100039Y-37154184D01*
X117145794Y-37206988D01*
X117157000Y-37258499D01*
X117157000Y-37783999D01*
X117633824Y-37783999D01*
X117751128Y-37768557D01*
X117751133Y-37768555D01*
X117897085Y-37708100D01*
X118022424Y-37611924D01*
X118118600Y-37486586D01*
X118179055Y-37340631D01*
X118186512Y-37284000D01*
X117968803Y-37284000D01*
X117901764Y-37264315D01*
X117856009Y-37211511D01*
X117846065Y-37142353D01*
X117875090Y-37078797D01*
X117893316Y-37061624D01*
X117897339Y-37058536D01*
X117897341Y-37058536D01*
X118022782Y-36962282D01*
X118036321Y-36944638D01*
X118045625Y-36932513D01*
X118102053Y-36891310D01*
X118144000Y-36884000D01*
X118186510Y-36884000D01*
X118186511Y-36883998D01*
X118179058Y-36827377D01*
X118179054Y-36827365D01*
X118170663Y-36807106D01*
X118163194Y-36737637D01*
X118170664Y-36712199D01*
X118170935Y-36711545D01*
X118179544Y-36690762D01*
X118195000Y-36573361D01*
X118194999Y-36294640D01*
X118179544Y-36177238D01*
X118179542Y-36177234D01*
X118170935Y-36156455D01*
X118163465Y-36086986D01*
X118170935Y-36061545D01*
X118179544Y-36040762D01*
X118195000Y-35923361D01*
X118194999Y-35644640D01*
X118193239Y-35631274D01*
X118187220Y-35585549D01*
X118179544Y-35527238D01*
X118179542Y-35527234D01*
X118170935Y-35506455D01*
X118163465Y-35436986D01*
X118170935Y-35411545D01*
X118179544Y-35390762D01*
X118195000Y-35273361D01*
X118195000Y-35258500D01*
X118214685Y-35191461D01*
X118267489Y-35145706D01*
X118319000Y-35134500D01*
X121320001Y-35134500D01*
X121387040Y-35154185D01*
X121432795Y-35206989D01*
X121444001Y-35258500D01*
X121444001Y-35273363D01*
X121459453Y-35390753D01*
X121459457Y-35390765D01*
X121468066Y-35411550D01*
X121475533Y-35481019D01*
X121468066Y-35506450D01*
X121459457Y-35527234D01*
X121459455Y-35527239D01*
X121444000Y-35644638D01*
X121444000Y-35923363D01*
X121459453Y-36040753D01*
X121459457Y-36040765D01*
X121468066Y-36061550D01*
X121475533Y-36131019D01*
X121468066Y-36156450D01*
X121459457Y-36177234D01*
X121459455Y-36177239D01*
X121444000Y-36294638D01*
X121444000Y-36573363D01*
X121459453Y-36690753D01*
X121459457Y-36690765D01*
X121468066Y-36711550D01*
X121475533Y-36781019D01*
X121468066Y-36806450D01*
X121459457Y-36827234D01*
X121459455Y-36827239D01*
X121444000Y-36944638D01*
X121444000Y-37223363D01*
X121459453Y-37340753D01*
X121459456Y-37340762D01*
X121519964Y-37486841D01*
X121616218Y-37612282D01*
X121741659Y-37708536D01*
X121887738Y-37769044D01*
X121923685Y-37773776D01*
X121987581Y-37802042D01*
X122026053Y-37860366D01*
X122031500Y-37896715D01*
X122031500Y-38331268D01*
X122011815Y-38398307D01*
X121959011Y-38444062D01*
X121944391Y-38449653D01*
X121938396Y-38451521D01*
X121938394Y-38451521D01*
X121938394Y-38451522D01*
X121937635Y-38451981D01*
X121792811Y-38539530D01*
X121792810Y-38539531D01*
X121690681Y-38641661D01*
X121629358Y-38675146D01*
X121559666Y-38670162D01*
X121515319Y-38641661D01*
X121413188Y-38539530D01*
X121412243Y-38538959D01*
X121267606Y-38451522D01*
X121105196Y-38400914D01*
X121105194Y-38400913D01*
X121105192Y-38400913D01*
X121055778Y-38396423D01*
X121034616Y-38394500D01*
X120521384Y-38394500D01*
X120502145Y-38396248D01*
X120450807Y-38400913D01*
X120288393Y-38451522D01*
X120142811Y-38539530D01*
X120142810Y-38539531D01*
X120135181Y-38547161D01*
X120073858Y-38580646D01*
X120004166Y-38575662D01*
X119959819Y-38547161D01*
X119952188Y-38539530D01*
X119951243Y-38538959D01*
X119806606Y-38451522D01*
X119644196Y-38400914D01*
X119644194Y-38400913D01*
X119644192Y-38400913D01*
X119594778Y-38396423D01*
X119573616Y-38394500D01*
X119060384Y-38394500D01*
X119041145Y-38396248D01*
X118989807Y-38400913D01*
X118827393Y-38451522D01*
X118681811Y-38539530D01*
X118681810Y-38539531D01*
X118579327Y-38642015D01*
X118518004Y-38675500D01*
X118448312Y-38670516D01*
X118403965Y-38642015D01*
X118301877Y-38539927D01*
X118156395Y-38451980D01*
X118156396Y-38451980D01*
X117994105Y-38401409D01*
X117994106Y-38401409D01*
X117923572Y-38395000D01*
X117917000Y-38395000D01*
X117917000Y-40344999D01*
X117923581Y-40344999D01*
X117994102Y-40338591D01*
X117994107Y-40338590D01*
X118156396Y-40288018D01*
X118301877Y-40200072D01*
X118301878Y-40200071D01*
X118403963Y-40097985D01*
X118465286Y-40064499D01*
X118534977Y-40069483D01*
X118579326Y-40097984D01*
X118681811Y-40200469D01*
X118681813Y-40200470D01*
X118681815Y-40200472D01*
X118827394Y-40288478D01*
X118989804Y-40339086D01*
X119060384Y-40345500D01*
X119367500Y-40345500D01*
X119434539Y-40365185D01*
X119480294Y-40417989D01*
X119491500Y-40469500D01*
X119491500Y-41498009D01*
X119471815Y-41565048D01*
X119426518Y-41607063D01*
X119318501Y-41665519D01*
X119318494Y-41665523D01*
X119122257Y-41818261D01*
X118953833Y-42001217D01*
X118817826Y-42209393D01*
X118717936Y-42437118D01*
X118656892Y-42678175D01*
X118656890Y-42678187D01*
X118636357Y-42925994D01*
X118636357Y-42926005D01*
X118656890Y-43173812D01*
X118656892Y-43173824D01*
X118717936Y-43414881D01*
X118817826Y-43642606D01*
X118953833Y-43850782D01*
X119080167Y-43988017D01*
X119111089Y-44050672D01*
X119103229Y-44120098D01*
X119059082Y-44174253D01*
X118992664Y-44195944D01*
X118988937Y-44196000D01*
X77340500Y-44196000D01*
X77273461Y-44176315D01*
X77227706Y-44123511D01*
X77216500Y-44072000D01*
X77216500Y-28831035D01*
X77216633Y-28826980D01*
X77219161Y-28788400D01*
X77221989Y-28745252D01*
X77235299Y-28559162D01*
X77236327Y-28551530D01*
X77259761Y-28433721D01*
X77291748Y-28286683D01*
X77293615Y-28279956D01*
X77334592Y-28159241D01*
X77384863Y-28024462D01*
X77387338Y-28018729D01*
X77445103Y-27901593D01*
X77512921Y-27777395D01*
X77515760Y-27772704D01*
X77588346Y-27664073D01*
X77590219Y-27661426D01*
X77673573Y-27550078D01*
X77676538Y-27546421D01*
X77763061Y-27447761D01*
X77765756Y-27444883D01*
X77863883Y-27346756D01*
X77866761Y-27344061D01*
X77965421Y-27257538D01*
X77969078Y-27254573D01*
X78080426Y-27171219D01*
X78083073Y-27169346D01*
X78191704Y-27096760D01*
X78196395Y-27093921D01*
X78320593Y-27026103D01*
X78437729Y-26968338D01*
X78443462Y-26965863D01*
X78578241Y-26915592D01*
X78698956Y-26874615D01*
X78705683Y-26872748D01*
X78852721Y-26840761D01*
X78970530Y-26817327D01*
X78978162Y-26816299D01*
X79164339Y-26802983D01*
X79200972Y-26800582D01*
X79245981Y-26797633D01*
X79250036Y-26797500D01*
X96511095Y-26797500D01*
X96578134Y-26817185D01*
G37*
G04 #@! TD.AperFunction*
G04 #@! TA.AperFunction,Conductor*
G36*
X99316039Y-79065185D02*
G01*
X99361794Y-79117989D01*
X99373000Y-79169500D01*
X99373000Y-79326500D01*
X99353315Y-79393539D01*
X99300511Y-79439294D01*
X99249000Y-79450500D01*
X98958500Y-79450500D01*
X98958500Y-80243000D01*
X99006328Y-80243000D01*
X99006341Y-80242999D01*
X99072743Y-80235859D01*
X99099257Y-80235859D01*
X99165658Y-80242999D01*
X99165672Y-80243000D01*
X99213500Y-80243000D01*
X99213500Y-80069076D01*
X99233185Y-80002037D01*
X99285989Y-79956282D01*
X99355147Y-79946338D01*
X99418703Y-79975363D01*
X99436763Y-79994761D01*
X99515952Y-80100543D01*
X99515951Y-80100543D01*
X99515952Y-80100544D01*
X99515954Y-80100546D01*
X99568813Y-80140116D01*
X99610682Y-80196046D01*
X99618500Y-80239380D01*
X99618500Y-80243000D01*
X99654819Y-80279319D01*
X99653551Y-80280586D01*
X99683794Y-80315489D01*
X99695000Y-80367000D01*
X99695000Y-84711499D01*
X99675315Y-84778538D01*
X99622511Y-84824293D01*
X99571000Y-84835499D01*
X97914000Y-84835499D01*
X97846961Y-84815814D01*
X97801206Y-84763010D01*
X97790000Y-84711499D01*
X97790000Y-80367000D01*
X97809685Y-80299961D01*
X97862489Y-80254206D01*
X97887800Y-80248699D01*
X97893500Y-80243000D01*
X97893500Y-79450500D01*
X98298500Y-79450500D01*
X98298500Y-80243000D01*
X98346328Y-80243000D01*
X98346341Y-80242999D01*
X98412743Y-80235859D01*
X98439257Y-80235859D01*
X98505658Y-80242999D01*
X98505672Y-80243000D01*
X98553500Y-80243000D01*
X98553500Y-79450500D01*
X98298500Y-79450500D01*
X97893500Y-79450500D01*
X97893500Y-79169500D01*
X97913185Y-79102461D01*
X97965989Y-79056706D01*
X98017500Y-79045500D01*
X99249000Y-79045500D01*
X99316039Y-79065185D01*
G37*
G04 #@! TD.AperFunction*
G04 #@! TA.AperFunction,Conductor*
G36*
X112498039Y-79065185D02*
G01*
X112543794Y-79117989D01*
X112555000Y-79169500D01*
X112555000Y-79326500D01*
X112535315Y-79393539D01*
X112482511Y-79439294D01*
X112431000Y-79450500D01*
X112140500Y-79450500D01*
X112140500Y-80243000D01*
X112188328Y-80243000D01*
X112188341Y-80242999D01*
X112254743Y-80235859D01*
X112281257Y-80235859D01*
X112347658Y-80242999D01*
X112347672Y-80243000D01*
X112395500Y-80243000D01*
X112395500Y-80069076D01*
X112415185Y-80002037D01*
X112467989Y-79956282D01*
X112537147Y-79946338D01*
X112600703Y-79975363D01*
X112618763Y-79994761D01*
X112697952Y-80100543D01*
X112697951Y-80100543D01*
X112697952Y-80100544D01*
X112697954Y-80100546D01*
X112750813Y-80140116D01*
X112792682Y-80196046D01*
X112800500Y-80239380D01*
X112800500Y-80243000D01*
X112809437Y-80251937D01*
X112846039Y-80262685D01*
X112891794Y-80315489D01*
X112903000Y-80367000D01*
X112903000Y-84711499D01*
X112883315Y-84778538D01*
X112830511Y-84824293D01*
X112779000Y-84835499D01*
X111122000Y-84835499D01*
X111054961Y-84815814D01*
X111009206Y-84763010D01*
X110998000Y-84711499D01*
X110998000Y-80367000D01*
X111017685Y-80299961D01*
X111040260Y-80280398D01*
X111039181Y-80279319D01*
X111075500Y-80243000D01*
X111075500Y-79450500D01*
X111480500Y-79450500D01*
X111480500Y-80243000D01*
X111528328Y-80243000D01*
X111528341Y-80242999D01*
X111594743Y-80235859D01*
X111621257Y-80235859D01*
X111687658Y-80242999D01*
X111687672Y-80243000D01*
X111735500Y-80243000D01*
X111735500Y-79450500D01*
X111480500Y-79450500D01*
X111075500Y-79450500D01*
X111075500Y-79169500D01*
X111095185Y-79102461D01*
X111147989Y-79056706D01*
X111199500Y-79045500D01*
X112431000Y-79045500D01*
X112498039Y-79065185D01*
G37*
G04 #@! TD.AperFunction*
M02*
