G04 #@! TF.GenerationSoftware,KiCad,Pcbnew,7.0.8*
G04 #@! TF.CreationDate,2024-01-30T17:06:20-06:00*
G04 #@! TF.ProjectId,PDM_2024_TestBoard,50444d5f-3230-4323-945f-54657374426f,rev?*
G04 #@! TF.SameCoordinates,Original*
G04 #@! TF.FileFunction,Soldermask,Top*
G04 #@! TF.FilePolarity,Negative*
%FSLAX46Y46*%
G04 Gerber Fmt 4.6, Leading zero omitted, Abs format (unit mm)*
G04 Created by KiCad (PCBNEW 7.0.8) date 2024-01-30 17:06:20*
%MOMM*%
%LPD*%
G01*
G04 APERTURE LIST*
G04 Aperture macros list*
%AMRoundRect*
0 Rectangle with rounded corners*
0 $1 Rounding radius*
0 $2 $3 $4 $5 $6 $7 $8 $9 X,Y pos of 4 corners*
0 Add a 4 corners polygon primitive as box body*
4,1,4,$2,$3,$4,$5,$6,$7,$8,$9,$2,$3,0*
0 Add four circle primitives for the rounded corners*
1,1,$1+$1,$2,$3*
1,1,$1+$1,$4,$5*
1,1,$1+$1,$6,$7*
1,1,$1+$1,$8,$9*
0 Add four rect primitives between the rounded corners*
20,1,$1+$1,$2,$3,$4,$5,0*
20,1,$1+$1,$4,$5,$6,$7,0*
20,1,$1+$1,$6,$7,$8,$9,0*
20,1,$1+$1,$8,$9,$2,$3,0*%
%AMFreePoly0*
4,1,21,1.372500,0.787500,0.862500,0.787500,0.862500,0.532500,1.372500,0.532500,1.372500,0.127500,0.862500,0.127500,0.862500,-0.127500,1.372500,-0.127500,1.372500,-0.532500,0.862500,-0.532500,0.862500,-0.787500,1.372500,-0.787500,1.372500,-1.195000,0.612500,-1.195000,0.612500,-1.117500,-0.862500,-1.117500,-0.862500,1.117500,0.612500,1.117500,0.612500,1.195000,1.372500,1.195000,
1.372500,0.787500,1.372500,0.787500,$1*%
G04 Aperture macros list end*
%ADD10C,0.150000*%
%ADD11C,2.000000*%
%ADD12RoundRect,0.225000X-0.250000X0.225000X-0.250000X-0.225000X0.250000X-0.225000X0.250000X0.225000X0*%
%ADD13C,2.800000*%
%ADD14RoundRect,0.200000X-0.200000X-0.275000X0.200000X-0.275000X0.200000X0.275000X-0.200000X0.275000X0*%
%ADD15R,1.450000X0.450000*%
%ADD16RoundRect,0.825000X1.625000X-0.825000X1.625000X0.825000X-1.625000X0.825000X-1.625000X-0.825000X0*%
%ADD17RoundRect,0.250000X-0.375000X-0.625000X0.375000X-0.625000X0.375000X0.625000X-0.375000X0.625000X0*%
%ADD18RoundRect,0.200000X0.275000X-0.200000X0.275000X0.200000X-0.275000X0.200000X-0.275000X-0.200000X0*%
%ADD19RoundRect,0.100000X-0.637500X-0.100000X0.637500X-0.100000X0.637500X0.100000X-0.637500X0.100000X0*%
%ADD20RoundRect,0.250000X-1.425000X0.362500X-1.425000X-0.362500X1.425000X-0.362500X1.425000X0.362500X0*%
%ADD21RoundRect,0.225000X0.250000X-0.225000X0.250000X0.225000X-0.250000X0.225000X-0.250000X-0.225000X0*%
%ADD22RoundRect,0.225000X-0.225000X-0.250000X0.225000X-0.250000X0.225000X0.250000X-0.225000X0.250000X0*%
%ADD23RoundRect,0.225000X0.225000X0.250000X-0.225000X0.250000X-0.225000X-0.250000X0.225000X-0.250000X0*%
%ADD24RoundRect,0.225000X-0.375000X0.225000X-0.375000X-0.225000X0.375000X-0.225000X0.375000X0.225000X0*%
%ADD25R,0.650000X0.400000*%
%ADD26RoundRect,0.200000X-0.275000X0.200000X-0.275000X-0.200000X0.275000X-0.200000X0.275000X0.200000X0*%
%ADD27R,0.405000X0.990000*%
%ADD28FreePoly0,90.000000*%
%ADD29R,0.300000X0.670000*%
%ADD30RoundRect,0.250000X0.250000X0.475000X-0.250000X0.475000X-0.250000X-0.475000X0.250000X-0.475000X0*%
G04 APERTURE END LIST*
D10*
X110998000Y-78486000D02*
X112903000Y-78486000D01*
X112903000Y-84836000D01*
X110998000Y-84836000D01*
X110998000Y-78486000D01*
G36*
X110998000Y-78486000D02*
G01*
X112903000Y-78486000D01*
X112903000Y-84836000D01*
X110998000Y-84836000D01*
X110998000Y-78486000D01*
G37*
X97790000Y-78740000D02*
X99695000Y-78740000D01*
X99695000Y-85090000D01*
X97790000Y-85090000D01*
X97790000Y-78740000D01*
G36*
X97790000Y-78740000D02*
G01*
X99695000Y-78740000D01*
X99695000Y-85090000D01*
X97790000Y-85090000D01*
X97790000Y-78740000D01*
G37*
D11*
X114681000Y-83185000D03*
D12*
X101092000Y-37667000D03*
X101092000Y-39217000D03*
D13*
X134874000Y-33274000D03*
D11*
X84074000Y-78740000D03*
D14*
X117667000Y-39370000D03*
X119317000Y-39370000D03*
D11*
X137668000Y-68326000D03*
X130302000Y-77978000D03*
X137414000Y-63500000D03*
D15*
X108118000Y-73619000D03*
X108118000Y-72969000D03*
X108118000Y-72319000D03*
X108118000Y-71669000D03*
X103718000Y-71669000D03*
X103718000Y-72319000D03*
X103718000Y-72969000D03*
X103718000Y-73619000D03*
D16*
X85344000Y-29640000D03*
X85344000Y-40640000D03*
D17*
X98168000Y-35052000D03*
X100968000Y-35052000D03*
D18*
X99060000Y-39267000D03*
X99060000Y-37617000D03*
X116332000Y-75882000D03*
X116332000Y-74232000D03*
D13*
X84328000Y-53340000D03*
D19*
X117025500Y-61225000D03*
X117025500Y-61875000D03*
X117025500Y-62525000D03*
X117025500Y-63175000D03*
X117025500Y-63825000D03*
X117025500Y-64475000D03*
X117025500Y-65125000D03*
X117025500Y-65775000D03*
X122750500Y-65775000D03*
X122750500Y-65125000D03*
X122750500Y-64475000D03*
X122750500Y-63825000D03*
X122750500Y-63175000D03*
X122750500Y-62525000D03*
X122750500Y-61875000D03*
X122750500Y-61225000D03*
D11*
X88900000Y-72898000D03*
X130810000Y-68072000D03*
D20*
X112268000Y-67649500D03*
X112268000Y-73574500D03*
D13*
X106934000Y-77724000D03*
D18*
X107188000Y-64770000D03*
X107188000Y-63120000D03*
X104902000Y-64770000D03*
X104902000Y-63120000D03*
D11*
X111760000Y-40640000D03*
D19*
X116957000Y-33184000D03*
X116957000Y-33834000D03*
X116957000Y-34484000D03*
X116957000Y-35134000D03*
X116957000Y-35784000D03*
X116957000Y-36434000D03*
X116957000Y-37084000D03*
X122682000Y-37084000D03*
X122682000Y-36434000D03*
X122682000Y-35784000D03*
X122682000Y-35134000D03*
X122682000Y-34484000D03*
X122682000Y-33834000D03*
X122682000Y-33184000D03*
D21*
X92964000Y-39217000D03*
X92964000Y-37667000D03*
D11*
X111760000Y-36322000D03*
D22*
X121399000Y-31496000D03*
X122949000Y-31496000D03*
D11*
X84074000Y-68580000D03*
D23*
X104915000Y-70104000D03*
X103365000Y-70104000D03*
D11*
X138176000Y-77724000D03*
D18*
X103378000Y-64770000D03*
X103378000Y-63120000D03*
D22*
X102844000Y-75438000D03*
X104394000Y-75438000D03*
D24*
X108204000Y-29084000D03*
X108204000Y-32384000D03*
D11*
X92964000Y-68326000D03*
D20*
X99086000Y-67649500D03*
X99086000Y-73574500D03*
D11*
X120142000Y-42926000D03*
D24*
X110998000Y-28958000D03*
X110998000Y-32258000D03*
D15*
X108204000Y-68285000D03*
X108204000Y-67635000D03*
X108204000Y-66985000D03*
X108204000Y-66335000D03*
X103804000Y-66335000D03*
X103804000Y-66985000D03*
X103804000Y-67635000D03*
X103804000Y-68285000D03*
D14*
X120778000Y-39370000D03*
X122428000Y-39370000D03*
D18*
X108712000Y-64770000D03*
X108712000Y-63120000D03*
D12*
X94996000Y-37667000D03*
X94996000Y-39217000D03*
D25*
X117697000Y-79640000D03*
X117697000Y-78990000D03*
X117697000Y-78340000D03*
X115797000Y-78340000D03*
X115797000Y-78990000D03*
X115797000Y-79640000D03*
D26*
X125222000Y-33274000D03*
X125222000Y-34924000D03*
D27*
X98096000Y-79248000D03*
X98756000Y-79248000D03*
X99416000Y-79248000D03*
X100076000Y-79248000D03*
D28*
X99086000Y-77255500D03*
D27*
X111278000Y-79248000D03*
X111938000Y-79248000D03*
X112598000Y-79248000D03*
X113258000Y-79248000D03*
D28*
X112268000Y-77255500D03*
D23*
X95276000Y-32092000D03*
X93726000Y-32092000D03*
D11*
X115062000Y-30734000D03*
X134366000Y-72898000D03*
D14*
X102299000Y-81280000D03*
X103949000Y-81280000D03*
D29*
X95114000Y-34400000D03*
X94614000Y-34400000D03*
X94114000Y-34400000D03*
X93614000Y-34400000D03*
X93614000Y-35880000D03*
X94114000Y-35880000D03*
X94614000Y-35880000D03*
X95114000Y-35880000D03*
D11*
X104140000Y-30988000D03*
D26*
X97028000Y-37617000D03*
X97028000Y-39267000D03*
D25*
X104074000Y-79390000D03*
X104074000Y-78740000D03*
X104074000Y-78090000D03*
X102174000Y-78090000D03*
X102174000Y-78740000D03*
X102174000Y-79390000D03*
D30*
X95438000Y-29806000D03*
X93538000Y-29806000D03*
D11*
X92964000Y-64008000D03*
X84328000Y-63754000D03*
D13*
X120904000Y-75946000D03*
D23*
X122695000Y-59690000D03*
X121145000Y-59690000D03*
D11*
X130937000Y-63119000D03*
X91948000Y-78740000D03*
X99314000Y-30988000D03*
X94488000Y-82296000D03*
M02*
