G04 #@! TF.GenerationSoftware,KiCad,Pcbnew,7.0.8*
G04 #@! TF.CreationDate,2024-01-30T17:06:19-06:00*
G04 #@! TF.ProjectId,PDM_2024_TestBoard,50444d5f-3230-4323-945f-54657374426f,rev?*
G04 #@! TF.SameCoordinates,Original*
G04 #@! TF.FileFunction,Copper,L3,Inr*
G04 #@! TF.FilePolarity,Positive*
%FSLAX46Y46*%
G04 Gerber Fmt 4.6, Leading zero omitted, Abs format (unit mm)*
G04 Created by KiCad (PCBNEW 7.0.8) date 2024-01-30 17:06:19*
%MOMM*%
%LPD*%
G01*
G04 APERTURE LIST*
G04 #@! TA.AperFunction,ComponentPad*
%ADD10C,2.800000*%
G04 #@! TD*
G04 #@! TA.AperFunction,ViaPad*
%ADD11C,0.800000*%
G04 #@! TD*
G04 #@! TA.AperFunction,Conductor*
%ADD12C,1.000000*%
G04 #@! TD*
G04 #@! TA.AperFunction,Conductor*
%ADD13C,0.300000*%
G04 #@! TD*
G04 APERTURE END LIST*
D10*
X134874000Y-33274000D03*
X84328000Y-53340000D03*
X106934000Y-77724000D03*
X120904000Y-75946000D03*
D11*
X108331000Y-69735500D03*
X136779000Y-47371000D03*
X105537000Y-80518000D03*
X108077000Y-61214000D03*
X94742000Y-40767000D03*
X101898477Y-68789523D03*
X105791000Y-60833000D03*
X102362000Y-61341000D03*
X136779000Y-42799000D03*
X119761000Y-59055000D03*
X116459000Y-66802000D03*
X103759000Y-76708000D03*
X117602000Y-81407000D03*
X104902000Y-61976000D03*
X106807000Y-41910000D03*
X106807000Y-61595000D03*
X104902000Y-41910000D03*
X101854000Y-74422000D03*
X101854000Y-70358000D03*
X124206000Y-30988000D03*
X126746000Y-32766000D03*
X101092000Y-41656000D03*
X102870000Y-35306000D03*
X124206000Y-42418000D03*
X124206000Y-59690000D03*
X103886000Y-41148000D03*
X102222500Y-65786000D03*
X106680000Y-70357500D03*
X111760000Y-33528000D03*
X129794000Y-59309000D03*
X118110000Y-31242000D03*
X112014000Y-81153000D03*
X112014000Y-83566000D03*
X98806000Y-81534000D03*
X98806000Y-83947000D03*
X111760000Y-40640000D03*
X115062000Y-61976000D03*
X88900000Y-72898000D03*
X101854000Y-76962000D03*
X122174000Y-66548000D03*
X115062000Y-34798000D03*
X115557500Y-65786000D03*
X111760000Y-36322000D03*
X107188000Y-81280000D03*
X96647000Y-27940000D03*
X114808000Y-74930000D03*
X91948000Y-78740000D03*
X103124000Y-82550000D03*
X84074000Y-78740000D03*
X101092000Y-83693000D03*
X130937000Y-63119000D03*
X109220000Y-61468000D03*
X84328000Y-63754000D03*
X102108000Y-63246000D03*
X137668000Y-68326000D03*
X115062000Y-73152000D03*
X119126000Y-68072000D03*
X109728000Y-69342000D03*
X115062000Y-63246000D03*
X84074000Y-68580000D03*
X101852767Y-67791066D03*
X114566500Y-64516000D03*
D12*
X136779000Y-47371000D02*
X136779000Y-42799000D01*
D13*
X93472000Y-80264000D02*
X91948000Y-78740000D01*
X103124000Y-82550000D02*
X102870000Y-82550000D01*
X100584000Y-80264000D02*
X93472000Y-80264000D01*
X102870000Y-82550000D02*
X100584000Y-80264000D01*
X101092000Y-83693000D02*
X99949000Y-82550000D01*
X99949000Y-82550000D02*
X87884000Y-82550000D01*
X87884000Y-82550000D02*
X84074000Y-78740000D01*
X130683000Y-63119000D02*
X128016000Y-60452000D01*
X110236000Y-60452000D02*
X109220000Y-61468000D01*
X130937000Y-63119000D02*
X130683000Y-63119000D01*
X128016000Y-60452000D02*
X110236000Y-60452000D01*
X90932000Y-63754000D02*
X84328000Y-63754000D01*
X102108000Y-63246000D02*
X91440000Y-63246000D01*
X91440000Y-63246000D02*
X90932000Y-63754000D01*
X101852767Y-67791066D02*
X100609701Y-66548000D01*
X100609701Y-66548000D02*
X95758000Y-66548000D01*
X93726000Y-68580000D02*
X84074000Y-68580000D01*
X95758000Y-66548000D02*
X93726000Y-68580000D01*
G04 #@! TA.AperFunction,Conductor*
G36*
X141166539Y-46247685D02*
G01*
X141212294Y-46300489D01*
X141223499Y-46351998D01*
X141223499Y-64615142D01*
X141223499Y-82801974D01*
X141223366Y-82806031D01*
X141218016Y-82887644D01*
X141204701Y-83073804D01*
X141203666Y-83081483D01*
X141180252Y-83199205D01*
X141148250Y-83346311D01*
X141146375Y-83353066D01*
X141105424Y-83473708D01*
X141055134Y-83608538D01*
X141052648Y-83614297D01*
X140994911Y-83731375D01*
X140927084Y-83855588D01*
X140924218Y-83860322D01*
X140851687Y-83968872D01*
X140849770Y-83971582D01*
X140766442Y-84082898D01*
X140763420Y-84086624D01*
X140676983Y-84185186D01*
X140674209Y-84188148D01*
X140576148Y-84286209D01*
X140573186Y-84288983D01*
X140474624Y-84375420D01*
X140470898Y-84378442D01*
X140359582Y-84461770D01*
X140356872Y-84463687D01*
X140248322Y-84536218D01*
X140243588Y-84539084D01*
X140119375Y-84606911D01*
X140002297Y-84664648D01*
X139996538Y-84667134D01*
X139861708Y-84717424D01*
X139741066Y-84758375D01*
X139734311Y-84760250D01*
X139587205Y-84792252D01*
X139469483Y-84815666D01*
X139461804Y-84816701D01*
X139275644Y-84830016D01*
X139219861Y-84833672D01*
X139194024Y-84835366D01*
X139189975Y-84835499D01*
X101227909Y-84835499D01*
X101160870Y-84815814D01*
X101115115Y-84763010D01*
X101105171Y-84693852D01*
X101134196Y-84630296D01*
X101192974Y-84592522D01*
X101202122Y-84590210D01*
X101371803Y-84554144D01*
X101544730Y-84477151D01*
X101697871Y-84365888D01*
X101824533Y-84225216D01*
X101919179Y-84061284D01*
X101977674Y-83881256D01*
X101997460Y-83693000D01*
X101984112Y-83566000D01*
X111108540Y-83566000D01*
X111128326Y-83754256D01*
X111128327Y-83754259D01*
X111186818Y-83934277D01*
X111186821Y-83934284D01*
X111281467Y-84098216D01*
X111395817Y-84225214D01*
X111408129Y-84238888D01*
X111561265Y-84350148D01*
X111561270Y-84350151D01*
X111734192Y-84427142D01*
X111734197Y-84427144D01*
X111919354Y-84466500D01*
X111919355Y-84466500D01*
X112108644Y-84466500D01*
X112108646Y-84466500D01*
X112293803Y-84427144D01*
X112466730Y-84350151D01*
X112619871Y-84238888D01*
X112746533Y-84098216D01*
X112841179Y-83934284D01*
X112899674Y-83754256D01*
X112919460Y-83566000D01*
X112899674Y-83377744D01*
X112841179Y-83197716D01*
X112746533Y-83033784D01*
X112619871Y-82893112D01*
X112612345Y-82887644D01*
X112466734Y-82781851D01*
X112466729Y-82781848D01*
X112293807Y-82704857D01*
X112293802Y-82704855D01*
X112148001Y-82673865D01*
X112108646Y-82665500D01*
X111919354Y-82665500D01*
X111886897Y-82672398D01*
X111734197Y-82704855D01*
X111734192Y-82704857D01*
X111561270Y-82781848D01*
X111561265Y-82781851D01*
X111408129Y-82893111D01*
X111281466Y-83033785D01*
X111186821Y-83197715D01*
X111186818Y-83197722D01*
X111138539Y-83346311D01*
X111128326Y-83377744D01*
X111108540Y-83566000D01*
X101984112Y-83566000D01*
X101977674Y-83504744D01*
X101919179Y-83324716D01*
X101824533Y-83160784D01*
X101697871Y-83020112D01*
X101697870Y-83020111D01*
X101544734Y-82908851D01*
X101544729Y-82908848D01*
X101371807Y-82831857D01*
X101371802Y-82831855D01*
X101226001Y-82800865D01*
X101186646Y-82792500D01*
X101186645Y-82792500D01*
X101162808Y-82792500D01*
X101095769Y-82772815D01*
X101075127Y-82756181D01*
X100469434Y-82150488D01*
X100459361Y-82137914D01*
X100459174Y-82138070D01*
X100454201Y-82132059D01*
X100401756Y-82082810D01*
X100380035Y-82061089D01*
X100374240Y-82056594D01*
X100369798Y-82052799D01*
X100334396Y-82019554D01*
X100334388Y-82019548D01*
X100315792Y-82009325D01*
X100299531Y-81998644D01*
X100282763Y-81985637D01*
X100259295Y-81975482D01*
X100238178Y-81966343D01*
X100232956Y-81963786D01*
X100190368Y-81940373D01*
X100190365Y-81940372D01*
X100169801Y-81935092D01*
X100151396Y-81928790D01*
X100131927Y-81920365D01*
X100131921Y-81920363D01*
X100083951Y-81912766D01*
X100078236Y-81911582D01*
X100061772Y-81907355D01*
X100031180Y-81899500D01*
X100031177Y-81899500D01*
X100009955Y-81899500D01*
X99990555Y-81897973D01*
X99969596Y-81894653D01*
X99969595Y-81894653D01*
X99945786Y-81896903D01*
X99921230Y-81899225D01*
X99915392Y-81899500D01*
X99804755Y-81899500D01*
X99737716Y-81879815D01*
X99691961Y-81827011D01*
X99682017Y-81757853D01*
X99686824Y-81737182D01*
X99691674Y-81722256D01*
X99711460Y-81534000D01*
X99691674Y-81345744D01*
X99633179Y-81165716D01*
X99595525Y-81100498D01*
X99579055Y-81032599D01*
X99601907Y-80966572D01*
X99656829Y-80923382D01*
X99702914Y-80914500D01*
X100263192Y-80914500D01*
X100330231Y-80934185D01*
X100350873Y-80950819D01*
X102265414Y-82865360D01*
X102295663Y-82914720D01*
X102296820Y-82918281D01*
X102296821Y-82918285D01*
X102370094Y-83045196D01*
X102391467Y-83082216D01*
X102496780Y-83199178D01*
X102518129Y-83222888D01*
X102671265Y-83334148D01*
X102671270Y-83334151D01*
X102844192Y-83411142D01*
X102844197Y-83411144D01*
X103029354Y-83450500D01*
X103029355Y-83450500D01*
X103218644Y-83450500D01*
X103218646Y-83450500D01*
X103403803Y-83411144D01*
X103576730Y-83334151D01*
X103729871Y-83222888D01*
X103856533Y-83082216D01*
X103951179Y-82918284D01*
X104009674Y-82738256D01*
X104029460Y-82550000D01*
X104009674Y-82361744D01*
X103951179Y-82181716D01*
X103856533Y-82017784D01*
X103729871Y-81877112D01*
X103660913Y-81827011D01*
X103576734Y-81765851D01*
X103576729Y-81765848D01*
X103403807Y-81688857D01*
X103403802Y-81688855D01*
X103243162Y-81654711D01*
X103218646Y-81649500D01*
X103029354Y-81649500D01*
X102979823Y-81660027D01*
X102910157Y-81654711D01*
X102866364Y-81626418D01*
X102519946Y-81280000D01*
X106282540Y-81280000D01*
X106302326Y-81468256D01*
X106302327Y-81468259D01*
X106360818Y-81648277D01*
X106360821Y-81648284D01*
X106455467Y-81812216D01*
X106546003Y-81912766D01*
X106582129Y-81952888D01*
X106735265Y-82064148D01*
X106735270Y-82064151D01*
X106908192Y-82141142D01*
X106908197Y-82141144D01*
X107093354Y-82180500D01*
X107093355Y-82180500D01*
X107282644Y-82180500D01*
X107282646Y-82180500D01*
X107467803Y-82141144D01*
X107640730Y-82064151D01*
X107793871Y-81952888D01*
X107920533Y-81812216D01*
X108015179Y-81648284D01*
X108073674Y-81468256D01*
X108093460Y-81280000D01*
X108080112Y-81153000D01*
X111108540Y-81153000D01*
X111128326Y-81341256D01*
X111128327Y-81341259D01*
X111186818Y-81521277D01*
X111186821Y-81521284D01*
X111281467Y-81685216D01*
X111391143Y-81807023D01*
X111408129Y-81825888D01*
X111561265Y-81937148D01*
X111561270Y-81937151D01*
X111734192Y-82014142D01*
X111734197Y-82014144D01*
X111919354Y-82053500D01*
X111919355Y-82053500D01*
X112108644Y-82053500D01*
X112108646Y-82053500D01*
X112293803Y-82014144D01*
X112466730Y-81937151D01*
X112619871Y-81825888D01*
X112746533Y-81685216D01*
X112841179Y-81521284D01*
X112899674Y-81341256D01*
X112919460Y-81153000D01*
X112899674Y-80964744D01*
X112841179Y-80784716D01*
X112746533Y-80620784D01*
X112619871Y-80480112D01*
X112619870Y-80480111D01*
X112466734Y-80368851D01*
X112466729Y-80368848D01*
X112293807Y-80291857D01*
X112293802Y-80291855D01*
X112148001Y-80260865D01*
X112108646Y-80252500D01*
X111919354Y-80252500D01*
X111886897Y-80259398D01*
X111734197Y-80291855D01*
X111734192Y-80291857D01*
X111561270Y-80368848D01*
X111561265Y-80368851D01*
X111408129Y-80480111D01*
X111281466Y-80620785D01*
X111186821Y-80784715D01*
X111186818Y-80784722D01*
X111128327Y-80964740D01*
X111128326Y-80964744D01*
X111108540Y-81153000D01*
X108080112Y-81153000D01*
X108073674Y-81091744D01*
X108015179Y-80911716D01*
X107920533Y-80747784D01*
X107793871Y-80607112D01*
X107793870Y-80607111D01*
X107640734Y-80495851D01*
X107640729Y-80495848D01*
X107467807Y-80418857D01*
X107467802Y-80418855D01*
X107322001Y-80387865D01*
X107282646Y-80379500D01*
X107093354Y-80379500D01*
X107060897Y-80386398D01*
X106908197Y-80418855D01*
X106908192Y-80418857D01*
X106735270Y-80495848D01*
X106735265Y-80495851D01*
X106582129Y-80607111D01*
X106455466Y-80747785D01*
X106360821Y-80911715D01*
X106360818Y-80911722D01*
X106321543Y-81032599D01*
X106302326Y-81091744D01*
X106282540Y-81280000D01*
X102519946Y-81280000D01*
X101104434Y-79864488D01*
X101094361Y-79851914D01*
X101094174Y-79852070D01*
X101089201Y-79846059D01*
X101036756Y-79796810D01*
X101015035Y-79775089D01*
X101009240Y-79770594D01*
X101004798Y-79766799D01*
X100969396Y-79733554D01*
X100969388Y-79733548D01*
X100950792Y-79723325D01*
X100934531Y-79712644D01*
X100917763Y-79699637D01*
X100894295Y-79689482D01*
X100873178Y-79680343D01*
X100867956Y-79677786D01*
X100825368Y-79654373D01*
X100825365Y-79654372D01*
X100804801Y-79649092D01*
X100786396Y-79642790D01*
X100766927Y-79634365D01*
X100766921Y-79634363D01*
X100718951Y-79626766D01*
X100713236Y-79625582D01*
X100696772Y-79621355D01*
X100666180Y-79613500D01*
X100666177Y-79613500D01*
X100644955Y-79613500D01*
X100625555Y-79611973D01*
X100604596Y-79608653D01*
X100604595Y-79608653D01*
X100590759Y-79609961D01*
X100556230Y-79613225D01*
X100550392Y-79613500D01*
X93792808Y-79613500D01*
X93725769Y-79593815D01*
X93705127Y-79577181D01*
X92882808Y-78754862D01*
X92849323Y-78693539D01*
X92847168Y-78680141D01*
X92833674Y-78551745D01*
X92833672Y-78551740D01*
X92775179Y-78371716D01*
X92680533Y-78207784D01*
X92553871Y-78067112D01*
X92553870Y-78067111D01*
X92400734Y-77955851D01*
X92400729Y-77955848D01*
X92227807Y-77878857D01*
X92227802Y-77878855D01*
X92082001Y-77847865D01*
X92042646Y-77839500D01*
X91853354Y-77839500D01*
X91820897Y-77846398D01*
X91668197Y-77878855D01*
X91668192Y-77878857D01*
X91495270Y-77955848D01*
X91495265Y-77955851D01*
X91342129Y-78067111D01*
X91215466Y-78207785D01*
X91120821Y-78371715D01*
X91120818Y-78371722D01*
X91074098Y-78515513D01*
X91062326Y-78551744D01*
X91042540Y-78740000D01*
X91062326Y-78928256D01*
X91062327Y-78928259D01*
X91120818Y-79108277D01*
X91120821Y-79108284D01*
X91215467Y-79272216D01*
X91264695Y-79326889D01*
X91342129Y-79412888D01*
X91495265Y-79524148D01*
X91495270Y-79524151D01*
X91668192Y-79601142D01*
X91668197Y-79601144D01*
X91853354Y-79640500D01*
X91877192Y-79640500D01*
X91944231Y-79660185D01*
X91964873Y-79676819D01*
X92951564Y-80663510D01*
X92961635Y-80676080D01*
X92961822Y-80675926D01*
X92966796Y-80681937D01*
X92966798Y-80681940D01*
X92995345Y-80708748D01*
X93019243Y-80731190D01*
X93040967Y-80752913D01*
X93046757Y-80757405D01*
X93051197Y-80761197D01*
X93076242Y-80784715D01*
X93086607Y-80794448D01*
X93086609Y-80794449D01*
X93105205Y-80804672D01*
X93121470Y-80815357D01*
X93138232Y-80828360D01*
X93138235Y-80828361D01*
X93138236Y-80828362D01*
X93182823Y-80847656D01*
X93188059Y-80850221D01*
X93230632Y-80873627D01*
X93246340Y-80877659D01*
X93251186Y-80878904D01*
X93269598Y-80885207D01*
X93289073Y-80893635D01*
X93328033Y-80899805D01*
X93337046Y-80901233D01*
X93342756Y-80902415D01*
X93389823Y-80914500D01*
X93411050Y-80914500D01*
X93430447Y-80916026D01*
X93451404Y-80919346D01*
X93499761Y-80914774D01*
X93505598Y-80914500D01*
X97909086Y-80914500D01*
X97976125Y-80934185D01*
X98021880Y-80986989D01*
X98031824Y-81056147D01*
X98016474Y-81100499D01*
X97978820Y-81165718D01*
X97978818Y-81165722D01*
X97921784Y-81341256D01*
X97920326Y-81345744D01*
X97900540Y-81534000D01*
X97920326Y-81722256D01*
X97920327Y-81722259D01*
X97925176Y-81737182D01*
X97927171Y-81807023D01*
X97891090Y-81866856D01*
X97828389Y-81897684D01*
X97807245Y-81899500D01*
X88204808Y-81899500D01*
X88137769Y-81879815D01*
X88117127Y-81863181D01*
X85008808Y-78754862D01*
X84975323Y-78693539D01*
X84973168Y-78680141D01*
X84959674Y-78551745D01*
X84959672Y-78551740D01*
X84901179Y-78371716D01*
X84806533Y-78207784D01*
X84679871Y-78067112D01*
X84679870Y-78067111D01*
X84526734Y-77955851D01*
X84526729Y-77955848D01*
X84353807Y-77878857D01*
X84353802Y-77878855D01*
X84208001Y-77847865D01*
X84168646Y-77839500D01*
X83979354Y-77839500D01*
X83946897Y-77846398D01*
X83794197Y-77878855D01*
X83794192Y-77878857D01*
X83621270Y-77955848D01*
X83621265Y-77955851D01*
X83468129Y-78067111D01*
X83341466Y-78207785D01*
X83246821Y-78371715D01*
X83246818Y-78371722D01*
X83200098Y-78515513D01*
X83188326Y-78551744D01*
X83168540Y-78740000D01*
X83188326Y-78928256D01*
X83188327Y-78928259D01*
X83246818Y-79108277D01*
X83246821Y-79108284D01*
X83341467Y-79272216D01*
X83390695Y-79326889D01*
X83468129Y-79412888D01*
X83621265Y-79524148D01*
X83621270Y-79524151D01*
X83794192Y-79601142D01*
X83794197Y-79601144D01*
X83979354Y-79640500D01*
X84003192Y-79640500D01*
X84070231Y-79660185D01*
X84090873Y-79676819D01*
X87363564Y-82949510D01*
X87373635Y-82962080D01*
X87373822Y-82961926D01*
X87378796Y-82967937D01*
X87378798Y-82967940D01*
X87407345Y-82994748D01*
X87431243Y-83017190D01*
X87452966Y-83038912D01*
X87458758Y-83043405D01*
X87463198Y-83047198D01*
X87479260Y-83062280D01*
X87498607Y-83080448D01*
X87517198Y-83090668D01*
X87533463Y-83101352D01*
X87550234Y-83114361D01*
X87550237Y-83114363D01*
X87594827Y-83133658D01*
X87600056Y-83136220D01*
X87642632Y-83159627D01*
X87663193Y-83164905D01*
X87681597Y-83171207D01*
X87701074Y-83179636D01*
X87738927Y-83185630D01*
X87749054Y-83187235D01*
X87754764Y-83188417D01*
X87801823Y-83200500D01*
X87823045Y-83200500D01*
X87842442Y-83202026D01*
X87863405Y-83205347D01*
X87911772Y-83200774D01*
X87917609Y-83200500D01*
X97987901Y-83200500D01*
X98054940Y-83220185D01*
X98100695Y-83272989D01*
X98110639Y-83342147D01*
X98081614Y-83405703D01*
X98080050Y-83407473D01*
X98073466Y-83414785D01*
X97978821Y-83578715D01*
X97978818Y-83578722D01*
X97922239Y-83752856D01*
X97920326Y-83758744D01*
X97900540Y-83947000D01*
X97920326Y-84135256D01*
X97920327Y-84135259D01*
X97978818Y-84315277D01*
X97978821Y-84315284D01*
X98073467Y-84479216D01*
X98200129Y-84619888D01*
X98204478Y-84624718D01*
X98203424Y-84625666D01*
X98236180Y-84678840D01*
X98234847Y-84748697D01*
X98195958Y-84806744D01*
X98131860Y-84834551D01*
X98116558Y-84835499D01*
X79250025Y-84835499D01*
X79245975Y-84835366D01*
X79217818Y-84833520D01*
X79164355Y-84830016D01*
X78978194Y-84816701D01*
X78970515Y-84815666D01*
X78852794Y-84792252D01*
X78705687Y-84760250D01*
X78698932Y-84758375D01*
X78578291Y-84717424D01*
X78443460Y-84667134D01*
X78437712Y-84664653D01*
X78320623Y-84606910D01*
X78196410Y-84539084D01*
X78191676Y-84536218D01*
X78083126Y-84463687D01*
X78080416Y-84461770D01*
X78023676Y-84419296D01*
X77969083Y-84378428D01*
X77965384Y-84375428D01*
X77866809Y-84288980D01*
X77863865Y-84286223D01*
X77765774Y-84188132D01*
X77763015Y-84185186D01*
X77676566Y-84086609D01*
X77673575Y-84082922D01*
X77612226Y-84000969D01*
X77590228Y-83971582D01*
X77588311Y-83968872D01*
X77515780Y-83860322D01*
X77512914Y-83855588D01*
X77445089Y-83731375D01*
X77418834Y-83678137D01*
X77387337Y-83614268D01*
X77384876Y-83608568D01*
X77334575Y-83473708D01*
X77293620Y-83353059D01*
X77291748Y-83346311D01*
X77275798Y-83272989D01*
X77259747Y-83199205D01*
X77238158Y-83090666D01*
X77236332Y-83081484D01*
X77235299Y-83073819D01*
X77221978Y-82887568D01*
X77221902Y-82886410D01*
X77216632Y-82806006D01*
X77216500Y-82801993D01*
X77216500Y-76962000D01*
X100948540Y-76962000D01*
X100968326Y-77150256D01*
X100968327Y-77150259D01*
X101026818Y-77330277D01*
X101026821Y-77330284D01*
X101121467Y-77494216D01*
X101170695Y-77548889D01*
X101248129Y-77634888D01*
X101401265Y-77746148D01*
X101401270Y-77746151D01*
X101574192Y-77823142D01*
X101574197Y-77823144D01*
X101759354Y-77862500D01*
X101759355Y-77862500D01*
X101948644Y-77862500D01*
X101948646Y-77862500D01*
X102133803Y-77823144D01*
X102306730Y-77746151D01*
X102337217Y-77724001D01*
X105028645Y-77724001D01*
X105048039Y-77995160D01*
X105048040Y-77995167D01*
X105063691Y-78067112D01*
X105105825Y-78260801D01*
X105147197Y-78371722D01*
X105200830Y-78515519D01*
X105331109Y-78754107D01*
X105331110Y-78754108D01*
X105331113Y-78754113D01*
X105494029Y-78971742D01*
X105494033Y-78971746D01*
X105494038Y-78971752D01*
X105686247Y-79163961D01*
X105686253Y-79163966D01*
X105686258Y-79163971D01*
X105903887Y-79326887D01*
X105903891Y-79326889D01*
X105903892Y-79326890D01*
X106142481Y-79457169D01*
X106142480Y-79457169D01*
X106142484Y-79457170D01*
X106142487Y-79457172D01*
X106397199Y-79552175D01*
X106662840Y-79609961D01*
X106897802Y-79626766D01*
X106933999Y-79629355D01*
X106934000Y-79629355D01*
X106934001Y-79629355D01*
X106952100Y-79628060D01*
X107205160Y-79609961D01*
X107470801Y-79552175D01*
X107725513Y-79457172D01*
X107725517Y-79457169D01*
X107725519Y-79457169D01*
X107844813Y-79392029D01*
X107964113Y-79326887D01*
X108181742Y-79163971D01*
X108373971Y-78971742D01*
X108536887Y-78754113D01*
X108647388Y-78551745D01*
X108667169Y-78515519D01*
X108667169Y-78515517D01*
X108667172Y-78515513D01*
X108762175Y-78260801D01*
X108819961Y-77995160D01*
X108839355Y-77724000D01*
X108819961Y-77452840D01*
X108762175Y-77187199D01*
X108667172Y-76932487D01*
X108667170Y-76932484D01*
X108667169Y-76932480D01*
X108536890Y-76693892D01*
X108536889Y-76693891D01*
X108536887Y-76693887D01*
X108373971Y-76476258D01*
X108373966Y-76476253D01*
X108373961Y-76476247D01*
X108181752Y-76284038D01*
X108181746Y-76284033D01*
X108181742Y-76284029D01*
X107964113Y-76121113D01*
X107964108Y-76121110D01*
X107964107Y-76121109D01*
X107725518Y-75990830D01*
X107725519Y-75990830D01*
X107675920Y-75972330D01*
X107605329Y-75946001D01*
X118998645Y-75946001D01*
X119018039Y-76217160D01*
X119018040Y-76217167D01*
X119074402Y-76476259D01*
X119075825Y-76482801D01*
X119117197Y-76593722D01*
X119170830Y-76737519D01*
X119301109Y-76976107D01*
X119301110Y-76976108D01*
X119301113Y-76976113D01*
X119464029Y-77193742D01*
X119464033Y-77193746D01*
X119464038Y-77193752D01*
X119656247Y-77385961D01*
X119656253Y-77385966D01*
X119656258Y-77385971D01*
X119873887Y-77548887D01*
X119873891Y-77548889D01*
X119873892Y-77548890D01*
X120112481Y-77679169D01*
X120112480Y-77679169D01*
X120112484Y-77679170D01*
X120112487Y-77679172D01*
X120367199Y-77774175D01*
X120632840Y-77831961D01*
X120884605Y-77849967D01*
X120903999Y-77851355D01*
X120904000Y-77851355D01*
X120904001Y-77851355D01*
X120922100Y-77850060D01*
X121175160Y-77831961D01*
X121440801Y-77774175D01*
X121695513Y-77679172D01*
X121695517Y-77679169D01*
X121695519Y-77679169D01*
X121814813Y-77614029D01*
X121934113Y-77548887D01*
X122151742Y-77385971D01*
X122343971Y-77193742D01*
X122506887Y-76976113D01*
X122572029Y-76856813D01*
X122637169Y-76737519D01*
X122637169Y-76737517D01*
X122637172Y-76737513D01*
X122732175Y-76482801D01*
X122789961Y-76217160D01*
X122809355Y-75946000D01*
X122789961Y-75674840D01*
X122732175Y-75409199D01*
X122637172Y-75154487D01*
X122637170Y-75154484D01*
X122637169Y-75154480D01*
X122506890Y-74915892D01*
X122506889Y-74915891D01*
X122506887Y-74915887D01*
X122343971Y-74698258D01*
X122343966Y-74698253D01*
X122343961Y-74698247D01*
X122151752Y-74506038D01*
X122151746Y-74506033D01*
X122151742Y-74506029D01*
X121934113Y-74343113D01*
X121934108Y-74343110D01*
X121934107Y-74343109D01*
X121695518Y-74212830D01*
X121695519Y-74212830D01*
X121645920Y-74194330D01*
X121440801Y-74117825D01*
X121440794Y-74117823D01*
X121440793Y-74117823D01*
X121175167Y-74060040D01*
X121175160Y-74060039D01*
X120904001Y-74040645D01*
X120903999Y-74040645D01*
X120632839Y-74060039D01*
X120632832Y-74060040D01*
X120367206Y-74117823D01*
X120367202Y-74117824D01*
X120367199Y-74117825D01*
X120292059Y-74145851D01*
X120112480Y-74212830D01*
X119873892Y-74343109D01*
X119873891Y-74343110D01*
X119656259Y-74506028D01*
X119656247Y-74506038D01*
X119464038Y-74698247D01*
X119464028Y-74698259D01*
X119301110Y-74915891D01*
X119301109Y-74915892D01*
X119170830Y-75154480D01*
X119151559Y-75206148D01*
X119075825Y-75409199D01*
X119075824Y-75409202D01*
X119075823Y-75409206D01*
X119018040Y-75674832D01*
X119018039Y-75674839D01*
X118998645Y-75945998D01*
X118998645Y-75946001D01*
X107605329Y-75946001D01*
X107470801Y-75895825D01*
X107470794Y-75895823D01*
X107470793Y-75895823D01*
X107205167Y-75838040D01*
X107205160Y-75838039D01*
X106934001Y-75818645D01*
X106933999Y-75818645D01*
X106662839Y-75838039D01*
X106662832Y-75838040D01*
X106397206Y-75895823D01*
X106397202Y-75895824D01*
X106397199Y-75895825D01*
X106269843Y-75943326D01*
X106142480Y-75990830D01*
X105903892Y-76121109D01*
X105903891Y-76121110D01*
X105686259Y-76284028D01*
X105686247Y-76284038D01*
X105494038Y-76476247D01*
X105494028Y-76476259D01*
X105331110Y-76693891D01*
X105331109Y-76693892D01*
X105200830Y-76932480D01*
X105184558Y-76976108D01*
X105105825Y-77187199D01*
X105105824Y-77187202D01*
X105105823Y-77187206D01*
X105048040Y-77452832D01*
X105048039Y-77452839D01*
X105028645Y-77723998D01*
X105028645Y-77724001D01*
X102337217Y-77724001D01*
X102459871Y-77634888D01*
X102586533Y-77494216D01*
X102681179Y-77330284D01*
X102739674Y-77150256D01*
X102759460Y-76962000D01*
X102739674Y-76773744D01*
X102681179Y-76593716D01*
X102586533Y-76429784D01*
X102459871Y-76289112D01*
X102459870Y-76289111D01*
X102306734Y-76177851D01*
X102306729Y-76177848D01*
X102133807Y-76100857D01*
X102133802Y-76100855D01*
X101988001Y-76069865D01*
X101948646Y-76061500D01*
X101759354Y-76061500D01*
X101726897Y-76068398D01*
X101574197Y-76100855D01*
X101574192Y-76100857D01*
X101401270Y-76177848D01*
X101401265Y-76177851D01*
X101248129Y-76289111D01*
X101121466Y-76429785D01*
X101026821Y-76593715D01*
X101026818Y-76593722D01*
X100980098Y-76737513D01*
X100968326Y-76773744D01*
X100948540Y-76962000D01*
X77216500Y-76962000D01*
X77216500Y-74422000D01*
X100948540Y-74422000D01*
X100968326Y-74610256D01*
X100968327Y-74610259D01*
X101026818Y-74790277D01*
X101026821Y-74790284D01*
X101121467Y-74954216D01*
X101248129Y-75094888D01*
X101401265Y-75206148D01*
X101401270Y-75206151D01*
X101574192Y-75283142D01*
X101574197Y-75283144D01*
X101759354Y-75322500D01*
X101759355Y-75322500D01*
X101948644Y-75322500D01*
X101948646Y-75322500D01*
X102133803Y-75283144D01*
X102306730Y-75206151D01*
X102459871Y-75094888D01*
X102586533Y-74954216D01*
X102600514Y-74930000D01*
X113902540Y-74930000D01*
X113922326Y-75118256D01*
X113922327Y-75118259D01*
X113980818Y-75298277D01*
X113980821Y-75298284D01*
X114075467Y-75462216D01*
X114202129Y-75602888D01*
X114355265Y-75714148D01*
X114355270Y-75714151D01*
X114528192Y-75791142D01*
X114528197Y-75791144D01*
X114713354Y-75830500D01*
X114713355Y-75830500D01*
X114902644Y-75830500D01*
X114902646Y-75830500D01*
X115087803Y-75791144D01*
X115260730Y-75714151D01*
X115413871Y-75602888D01*
X115540533Y-75462216D01*
X115635179Y-75298284D01*
X115693674Y-75118256D01*
X115713460Y-74930000D01*
X115693674Y-74741744D01*
X115635179Y-74561716D01*
X115540533Y-74397784D01*
X115413871Y-74257112D01*
X115352037Y-74212187D01*
X115309373Y-74156858D01*
X115303394Y-74087244D01*
X115336000Y-74025450D01*
X115374481Y-73998594D01*
X115514730Y-73936151D01*
X115667871Y-73824888D01*
X115794533Y-73684216D01*
X115889179Y-73520284D01*
X115947674Y-73340256D01*
X115967460Y-73152000D01*
X115947674Y-72963744D01*
X115889179Y-72783716D01*
X115794533Y-72619784D01*
X115667871Y-72479112D01*
X115667870Y-72479111D01*
X115514734Y-72367851D01*
X115514729Y-72367848D01*
X115341807Y-72290857D01*
X115341802Y-72290855D01*
X115196001Y-72259865D01*
X115156646Y-72251500D01*
X114967354Y-72251500D01*
X114934897Y-72258398D01*
X114782197Y-72290855D01*
X114782192Y-72290857D01*
X114609270Y-72367848D01*
X114609265Y-72367851D01*
X114456129Y-72479111D01*
X114329466Y-72619785D01*
X114234821Y-72783715D01*
X114234818Y-72783722D01*
X114176327Y-72963740D01*
X114176326Y-72963744D01*
X114156540Y-73152000D01*
X114176326Y-73340256D01*
X114176327Y-73340259D01*
X114234818Y-73520277D01*
X114234821Y-73520284D01*
X114329467Y-73684216D01*
X114387899Y-73749111D01*
X114456129Y-73824888D01*
X114517960Y-73869811D01*
X114560626Y-73925141D01*
X114566605Y-73994754D01*
X114533999Y-74056549D01*
X114495512Y-74083408D01*
X114355267Y-74145850D01*
X114355265Y-74145851D01*
X114202129Y-74257111D01*
X114075466Y-74397785D01*
X113980821Y-74561715D01*
X113980818Y-74561722D01*
X113936455Y-74698259D01*
X113922326Y-74741744D01*
X113902540Y-74930000D01*
X102600514Y-74930000D01*
X102681179Y-74790284D01*
X102739674Y-74610256D01*
X102759460Y-74422000D01*
X102739674Y-74233744D01*
X102683234Y-74060040D01*
X102681181Y-74053722D01*
X102681180Y-74053721D01*
X102681179Y-74053716D01*
X102586533Y-73889784D01*
X102459871Y-73749112D01*
X102459870Y-73749111D01*
X102306734Y-73637851D01*
X102306729Y-73637848D01*
X102133807Y-73560857D01*
X102133802Y-73560855D01*
X101988001Y-73529865D01*
X101948646Y-73521500D01*
X101759354Y-73521500D01*
X101726897Y-73528398D01*
X101574197Y-73560855D01*
X101574192Y-73560857D01*
X101401270Y-73637848D01*
X101401265Y-73637851D01*
X101248129Y-73749111D01*
X101121466Y-73889785D01*
X101026821Y-74053715D01*
X101026818Y-74053722D01*
X100975330Y-74212188D01*
X100968326Y-74233744D01*
X100948540Y-74422000D01*
X77216500Y-74422000D01*
X77216500Y-72898000D01*
X87994540Y-72898000D01*
X88014326Y-73086256D01*
X88014327Y-73086259D01*
X88072818Y-73266277D01*
X88072821Y-73266284D01*
X88167467Y-73430216D01*
X88248559Y-73520277D01*
X88294129Y-73570888D01*
X88447265Y-73682148D01*
X88447270Y-73682151D01*
X88620192Y-73759142D01*
X88620197Y-73759144D01*
X88805354Y-73798500D01*
X88805355Y-73798500D01*
X88994644Y-73798500D01*
X88994646Y-73798500D01*
X89179803Y-73759144D01*
X89352730Y-73682151D01*
X89505871Y-73570888D01*
X89632533Y-73430216D01*
X89727179Y-73266284D01*
X89785674Y-73086256D01*
X89805460Y-72898000D01*
X89785674Y-72709744D01*
X89727179Y-72529716D01*
X89632533Y-72365784D01*
X89505871Y-72225112D01*
X89505870Y-72225111D01*
X89352734Y-72113851D01*
X89352729Y-72113848D01*
X89179807Y-72036857D01*
X89179802Y-72036855D01*
X89034001Y-72005865D01*
X88994646Y-71997500D01*
X88805354Y-71997500D01*
X88772897Y-72004398D01*
X88620197Y-72036855D01*
X88620192Y-72036857D01*
X88447270Y-72113848D01*
X88447265Y-72113851D01*
X88294129Y-72225111D01*
X88167466Y-72365785D01*
X88072821Y-72529715D01*
X88072818Y-72529722D01*
X88014327Y-72709740D01*
X88014326Y-72709744D01*
X87994540Y-72898000D01*
X77216500Y-72898000D01*
X77216500Y-70358000D01*
X100948540Y-70358000D01*
X100968326Y-70546256D01*
X100968327Y-70546259D01*
X101026818Y-70726277D01*
X101026821Y-70726284D01*
X101121467Y-70890216D01*
X101247679Y-71030388D01*
X101248129Y-71030888D01*
X101401265Y-71142148D01*
X101401270Y-71142151D01*
X101574192Y-71219142D01*
X101574197Y-71219144D01*
X101759354Y-71258500D01*
X101759355Y-71258500D01*
X101948644Y-71258500D01*
X101948646Y-71258500D01*
X102133803Y-71219144D01*
X102306730Y-71142151D01*
X102459871Y-71030888D01*
X102586533Y-70890216D01*
X102681179Y-70726284D01*
X102739674Y-70546256D01*
X102759460Y-70358000D01*
X102759407Y-70357500D01*
X105774540Y-70357500D01*
X105794326Y-70545756D01*
X105794327Y-70545759D01*
X105852818Y-70725777D01*
X105852821Y-70725784D01*
X105947467Y-70889716D01*
X106074129Y-71030388D01*
X106227265Y-71141648D01*
X106227270Y-71141651D01*
X106400192Y-71218642D01*
X106400197Y-71218644D01*
X106585354Y-71258000D01*
X106585355Y-71258000D01*
X106774644Y-71258000D01*
X106774646Y-71258000D01*
X106959803Y-71218644D01*
X107132730Y-71141651D01*
X107285871Y-71030388D01*
X107412533Y-70889716D01*
X107507179Y-70725784D01*
X107565674Y-70545756D01*
X107585460Y-70357500D01*
X107565674Y-70169244D01*
X107507343Y-69989722D01*
X107507181Y-69989222D01*
X107507180Y-69989221D01*
X107507179Y-69989216D01*
X107412533Y-69825284D01*
X107285871Y-69684612D01*
X107285870Y-69684611D01*
X107132734Y-69573351D01*
X107132729Y-69573348D01*
X106959807Y-69496357D01*
X106959802Y-69496355D01*
X106814001Y-69465365D01*
X106774646Y-69457000D01*
X106585354Y-69457000D01*
X106552897Y-69463898D01*
X106400197Y-69496355D01*
X106400192Y-69496357D01*
X106227270Y-69573348D01*
X106227265Y-69573351D01*
X106074129Y-69684611D01*
X105947466Y-69825285D01*
X105852821Y-69989215D01*
X105852818Y-69989222D01*
X105794327Y-70169240D01*
X105794326Y-70169244D01*
X105774540Y-70357500D01*
X102759407Y-70357500D01*
X102739674Y-70169744D01*
X102681179Y-69989716D01*
X102586533Y-69825784D01*
X102459871Y-69685112D01*
X102459183Y-69684612D01*
X102306734Y-69573851D01*
X102306729Y-69573848D01*
X102133807Y-69496857D01*
X102133802Y-69496855D01*
X101988001Y-69465865D01*
X101948646Y-69457500D01*
X101759354Y-69457500D01*
X101726897Y-69464398D01*
X101574197Y-69496855D01*
X101574192Y-69496857D01*
X101401270Y-69573848D01*
X101401265Y-69573851D01*
X101248129Y-69685111D01*
X101121466Y-69825785D01*
X101026821Y-69989715D01*
X101026818Y-69989722D01*
X100968488Y-70169244D01*
X100968326Y-70169744D01*
X100948540Y-70358000D01*
X77216500Y-70358000D01*
X77216500Y-68580000D01*
X83168540Y-68580000D01*
X83188326Y-68768256D01*
X83188327Y-68768259D01*
X83246818Y-68948277D01*
X83246821Y-68948284D01*
X83341467Y-69112216D01*
X83444369Y-69226500D01*
X83468129Y-69252888D01*
X83621265Y-69364148D01*
X83621270Y-69364151D01*
X83794192Y-69441142D01*
X83794197Y-69441144D01*
X83979354Y-69480500D01*
X83979355Y-69480500D01*
X84168644Y-69480500D01*
X84168646Y-69480500D01*
X84353803Y-69441144D01*
X84526730Y-69364151D01*
X84557218Y-69342000D01*
X108822540Y-69342000D01*
X108842326Y-69530256D01*
X108842327Y-69530259D01*
X108900818Y-69710277D01*
X108900821Y-69710284D01*
X108995467Y-69874216D01*
X109122129Y-70014888D01*
X109275265Y-70126148D01*
X109275270Y-70126151D01*
X109448192Y-70203142D01*
X109448197Y-70203144D01*
X109633354Y-70242500D01*
X109633355Y-70242500D01*
X109822644Y-70242500D01*
X109822646Y-70242500D01*
X110007803Y-70203144D01*
X110180730Y-70126151D01*
X110333871Y-70014888D01*
X110460533Y-69874216D01*
X110555179Y-69710284D01*
X110613674Y-69530256D01*
X110633460Y-69342000D01*
X110613674Y-69153744D01*
X110555179Y-68973716D01*
X110460533Y-68809784D01*
X110333871Y-68669112D01*
X110333870Y-68669111D01*
X110180734Y-68557851D01*
X110180729Y-68557848D01*
X110007807Y-68480857D01*
X110007802Y-68480855D01*
X109862001Y-68449865D01*
X109822646Y-68441500D01*
X109633354Y-68441500D01*
X109600897Y-68448398D01*
X109448197Y-68480855D01*
X109448192Y-68480857D01*
X109275270Y-68557848D01*
X109275265Y-68557851D01*
X109122129Y-68669111D01*
X108995466Y-68809785D01*
X108900821Y-68973715D01*
X108900818Y-68973722D01*
X108851334Y-69126019D01*
X108842326Y-69153744D01*
X108822540Y-69342000D01*
X84557218Y-69342000D01*
X84678090Y-69254182D01*
X84743896Y-69230702D01*
X84750975Y-69230500D01*
X93640495Y-69230500D01*
X93656505Y-69232267D01*
X93656528Y-69232026D01*
X93664289Y-69232758D01*
X93664296Y-69232760D01*
X93736203Y-69230500D01*
X93766925Y-69230500D01*
X93774190Y-69229581D01*
X93780016Y-69229122D01*
X93828569Y-69227597D01*
X93848956Y-69221673D01*
X93867996Y-69217731D01*
X93889058Y-69215071D01*
X93934235Y-69197183D01*
X93939735Y-69195300D01*
X93986398Y-69181744D01*
X94004665Y-69170939D01*
X94022136Y-69162380D01*
X94041871Y-69154568D01*
X94081177Y-69126010D01*
X94086043Y-69122813D01*
X94127865Y-69098081D01*
X94142870Y-69083075D01*
X94157668Y-69070436D01*
X94174837Y-69057963D01*
X94205809Y-69020522D01*
X94209713Y-69016231D01*
X95991127Y-67234819D01*
X96052450Y-67201334D01*
X96078808Y-67198500D01*
X100288893Y-67198500D01*
X100355932Y-67218185D01*
X100376574Y-67234819D01*
X100917958Y-67776202D01*
X100951443Y-67837525D01*
X100953597Y-67850916D01*
X100967093Y-67979322D01*
X100967094Y-67979325D01*
X101025585Y-68159343D01*
X101025588Y-68159350D01*
X101120234Y-68323282D01*
X101226678Y-68441500D01*
X101246896Y-68463954D01*
X101400032Y-68575214D01*
X101400037Y-68575217D01*
X101572959Y-68652208D01*
X101572964Y-68652210D01*
X101758121Y-68691566D01*
X101758122Y-68691566D01*
X101947411Y-68691566D01*
X101947413Y-68691566D01*
X102132570Y-68652210D01*
X102305497Y-68575217D01*
X102458638Y-68463954D01*
X102585300Y-68323282D01*
X102679946Y-68159350D01*
X102708328Y-68072000D01*
X118220540Y-68072000D01*
X118240326Y-68260256D01*
X118240327Y-68260259D01*
X118298818Y-68440277D01*
X118298821Y-68440284D01*
X118393467Y-68604216D01*
X118451899Y-68669111D01*
X118520129Y-68744888D01*
X118673265Y-68856148D01*
X118673270Y-68856151D01*
X118846192Y-68933142D01*
X118846197Y-68933144D01*
X119031354Y-68972500D01*
X119031355Y-68972500D01*
X119220644Y-68972500D01*
X119220646Y-68972500D01*
X119405803Y-68933144D01*
X119578730Y-68856151D01*
X119731871Y-68744888D01*
X119858533Y-68604216D01*
X119953179Y-68440284D01*
X119990312Y-68326000D01*
X136762540Y-68326000D01*
X136782326Y-68514256D01*
X136782327Y-68514259D01*
X136840818Y-68694277D01*
X136840821Y-68694284D01*
X136935467Y-68858216D01*
X137062129Y-68998888D01*
X137215265Y-69110148D01*
X137215270Y-69110151D01*
X137388192Y-69187142D01*
X137388197Y-69187144D01*
X137573354Y-69226500D01*
X137573355Y-69226500D01*
X137762644Y-69226500D01*
X137762646Y-69226500D01*
X137947803Y-69187144D01*
X138120730Y-69110151D01*
X138273871Y-68998888D01*
X138400533Y-68858216D01*
X138495179Y-68694284D01*
X138553674Y-68514256D01*
X138573460Y-68326000D01*
X138553674Y-68137744D01*
X138495179Y-67957716D01*
X138400533Y-67793784D01*
X138273871Y-67653112D01*
X138273870Y-67653111D01*
X138120734Y-67541851D01*
X138120729Y-67541848D01*
X137947807Y-67464857D01*
X137947802Y-67464855D01*
X137802001Y-67433865D01*
X137762646Y-67425500D01*
X137573354Y-67425500D01*
X137540897Y-67432398D01*
X137388197Y-67464855D01*
X137388192Y-67464857D01*
X137215270Y-67541848D01*
X137215265Y-67541851D01*
X137062129Y-67653111D01*
X136935466Y-67793785D01*
X136840821Y-67957715D01*
X136840818Y-67957722D01*
X136782327Y-68137740D01*
X136782326Y-68137744D01*
X136762540Y-68326000D01*
X119990312Y-68326000D01*
X120011674Y-68260256D01*
X120031460Y-68072000D01*
X120011674Y-67883744D01*
X119953179Y-67703716D01*
X119858533Y-67539784D01*
X119731871Y-67399112D01*
X119731870Y-67399111D01*
X119578734Y-67287851D01*
X119578729Y-67287848D01*
X119405807Y-67210857D01*
X119405802Y-67210855D01*
X119260001Y-67179865D01*
X119220646Y-67171500D01*
X119031354Y-67171500D01*
X118998897Y-67178398D01*
X118846197Y-67210855D01*
X118846192Y-67210857D01*
X118673270Y-67287848D01*
X118673265Y-67287851D01*
X118520129Y-67399111D01*
X118393466Y-67539785D01*
X118298821Y-67703715D01*
X118298818Y-67703722D01*
X118240327Y-67883740D01*
X118240326Y-67883744D01*
X118220540Y-68072000D01*
X102708328Y-68072000D01*
X102738441Y-67979322D01*
X102758227Y-67791066D01*
X102738441Y-67602810D01*
X102679946Y-67422782D01*
X102585300Y-67258850D01*
X102458638Y-67118178D01*
X102406385Y-67080214D01*
X102305501Y-67006917D01*
X102305496Y-67006914D01*
X102132571Y-66929922D01*
X102127985Y-66928432D01*
X102070308Y-66888997D01*
X102043108Y-66824639D01*
X102055020Y-66755792D01*
X102102262Y-66704315D01*
X102166299Y-66686500D01*
X102317144Y-66686500D01*
X102317146Y-66686500D01*
X102502303Y-66647144D01*
X102675230Y-66570151D01*
X102828371Y-66458888D01*
X102955033Y-66318216D01*
X103049679Y-66154284D01*
X103108174Y-65974256D01*
X103127960Y-65786000D01*
X103108174Y-65597744D01*
X103049679Y-65417716D01*
X102955033Y-65253784D01*
X102828371Y-65113112D01*
X102828370Y-65113111D01*
X102675234Y-65001851D01*
X102675229Y-65001848D01*
X102502307Y-64924857D01*
X102502302Y-64924855D01*
X102356501Y-64893865D01*
X102317146Y-64885500D01*
X102127854Y-64885500D01*
X102095397Y-64892398D01*
X101942697Y-64924855D01*
X101942692Y-64924857D01*
X101769770Y-65001848D01*
X101769765Y-65001851D01*
X101616629Y-65113111D01*
X101489966Y-65253785D01*
X101395321Y-65417715D01*
X101395318Y-65417722D01*
X101342974Y-65578821D01*
X101336826Y-65597744D01*
X101317040Y-65786000D01*
X101336826Y-65974256D01*
X101336827Y-65974259D01*
X101360560Y-66047302D01*
X101362555Y-66117143D01*
X101326475Y-66176976D01*
X101263774Y-66207804D01*
X101194359Y-66199839D01*
X101154948Y-66173301D01*
X101130135Y-66148488D01*
X101120062Y-66135914D01*
X101119875Y-66136070D01*
X101114902Y-66130059D01*
X101062457Y-66080810D01*
X101040736Y-66059089D01*
X101034941Y-66054594D01*
X101030499Y-66050799D01*
X100995097Y-66017554D01*
X100995089Y-66017548D01*
X100976493Y-66007325D01*
X100960232Y-65996644D01*
X100943464Y-65983637D01*
X100919881Y-65973432D01*
X100898879Y-65964343D01*
X100893657Y-65961786D01*
X100851069Y-65938373D01*
X100851066Y-65938372D01*
X100830502Y-65933092D01*
X100812097Y-65926790D01*
X100792628Y-65918365D01*
X100792622Y-65918363D01*
X100744652Y-65910766D01*
X100738937Y-65909582D01*
X100722473Y-65905355D01*
X100691881Y-65897500D01*
X100691878Y-65897500D01*
X100670656Y-65897500D01*
X100651256Y-65895973D01*
X100630297Y-65892653D01*
X100630296Y-65892653D01*
X100606487Y-65894903D01*
X100581931Y-65897225D01*
X100576093Y-65897500D01*
X95843505Y-65897500D01*
X95827494Y-65895732D01*
X95827472Y-65895974D01*
X95819705Y-65895240D01*
X95819704Y-65895240D01*
X95747797Y-65897500D01*
X95717075Y-65897500D01*
X95717071Y-65897500D01*
X95717061Y-65897501D01*
X95709793Y-65898419D01*
X95703976Y-65898876D01*
X95655436Y-65900402D01*
X95655425Y-65900404D01*
X95635049Y-65906323D01*
X95616008Y-65910266D01*
X95594953Y-65912926D01*
X95594937Y-65912930D01*
X95549771Y-65930812D01*
X95544244Y-65932704D01*
X95497599Y-65946256D01*
X95479327Y-65957062D01*
X95461861Y-65965619D01*
X95442128Y-65973432D01*
X95402830Y-66001983D01*
X95397953Y-66005186D01*
X95384281Y-66013272D01*
X95356132Y-66029920D01*
X95341126Y-66044926D01*
X95326336Y-66057558D01*
X95309167Y-66070032D01*
X95309165Y-66070034D01*
X95278194Y-66107470D01*
X95274261Y-66111791D01*
X94379137Y-67006917D01*
X93492873Y-67893181D01*
X93431550Y-67926666D01*
X93405192Y-67929500D01*
X84750975Y-67929500D01*
X84683936Y-67909815D01*
X84678090Y-67905818D01*
X84526734Y-67795851D01*
X84526729Y-67795848D01*
X84353807Y-67718857D01*
X84353802Y-67718855D01*
X84208001Y-67687865D01*
X84168646Y-67679500D01*
X83979354Y-67679500D01*
X83946897Y-67686398D01*
X83794197Y-67718855D01*
X83794192Y-67718857D01*
X83621270Y-67795848D01*
X83621265Y-67795851D01*
X83468129Y-67907111D01*
X83341466Y-68047785D01*
X83246821Y-68211715D01*
X83246818Y-68211722D01*
X83188327Y-68391740D01*
X83188326Y-68391744D01*
X83168540Y-68580000D01*
X77216500Y-68580000D01*
X77216500Y-63754000D01*
X83422540Y-63754000D01*
X83442326Y-63942256D01*
X83442327Y-63942259D01*
X83500818Y-64122277D01*
X83500821Y-64122284D01*
X83595467Y-64286216D01*
X83699357Y-64401597D01*
X83722129Y-64426888D01*
X83875265Y-64538148D01*
X83875270Y-64538151D01*
X84048192Y-64615142D01*
X84048197Y-64615144D01*
X84233354Y-64654500D01*
X84233355Y-64654500D01*
X84422644Y-64654500D01*
X84422646Y-64654500D01*
X84607803Y-64615144D01*
X84780730Y-64538151D01*
X84932090Y-64428182D01*
X84997896Y-64404702D01*
X85004975Y-64404500D01*
X90846495Y-64404500D01*
X90862505Y-64406267D01*
X90862528Y-64406026D01*
X90870289Y-64406758D01*
X90870296Y-64406760D01*
X90942203Y-64404500D01*
X90972925Y-64404500D01*
X90980190Y-64403581D01*
X90986016Y-64403122D01*
X91034569Y-64401597D01*
X91054956Y-64395673D01*
X91073996Y-64391731D01*
X91095058Y-64389071D01*
X91140235Y-64371183D01*
X91145735Y-64369300D01*
X91192398Y-64355744D01*
X91210665Y-64344939D01*
X91228136Y-64336380D01*
X91247871Y-64328568D01*
X91287177Y-64300010D01*
X91292043Y-64296813D01*
X91333865Y-64272081D01*
X91348870Y-64257075D01*
X91363668Y-64244436D01*
X91380837Y-64231963D01*
X91411809Y-64194522D01*
X91415713Y-64190231D01*
X91673128Y-63932816D01*
X91734450Y-63899334D01*
X91760808Y-63896500D01*
X101431025Y-63896500D01*
X101498064Y-63916185D01*
X101503910Y-63920182D01*
X101655265Y-64030148D01*
X101655270Y-64030151D01*
X101828192Y-64107142D01*
X101828197Y-64107144D01*
X102013354Y-64146500D01*
X102013355Y-64146500D01*
X102202644Y-64146500D01*
X102202646Y-64146500D01*
X102387803Y-64107144D01*
X102560730Y-64030151D01*
X102713871Y-63918888D01*
X102840533Y-63778216D01*
X102935179Y-63614284D01*
X102993674Y-63434256D01*
X103013460Y-63246000D01*
X102993674Y-63057744D01*
X102935179Y-62877716D01*
X102840533Y-62713784D01*
X102713871Y-62573112D01*
X102712090Y-62571818D01*
X102560734Y-62461851D01*
X102560729Y-62461848D01*
X102387807Y-62384857D01*
X102387802Y-62384855D01*
X102242001Y-62353865D01*
X102202646Y-62345500D01*
X102013354Y-62345500D01*
X101980897Y-62352398D01*
X101828197Y-62384855D01*
X101828192Y-62384857D01*
X101655270Y-62461848D01*
X101655265Y-62461851D01*
X101503910Y-62571818D01*
X101438104Y-62595298D01*
X101431025Y-62595500D01*
X91525504Y-62595500D01*
X91509493Y-62593732D01*
X91509471Y-62593974D01*
X91501704Y-62593240D01*
X91501703Y-62593240D01*
X91429796Y-62595500D01*
X91399075Y-62595500D01*
X91399071Y-62595500D01*
X91399061Y-62595501D01*
X91391793Y-62596419D01*
X91385976Y-62596876D01*
X91337435Y-62598402D01*
X91337424Y-62598404D01*
X91317048Y-62604323D01*
X91298008Y-62608266D01*
X91276947Y-62610927D01*
X91276939Y-62610929D01*
X91231775Y-62628811D01*
X91226247Y-62630703D01*
X91179602Y-62644255D01*
X91161332Y-62655060D01*
X91143863Y-62663618D01*
X91124128Y-62671432D01*
X91124126Y-62671433D01*
X91084839Y-62699977D01*
X91079956Y-62703184D01*
X91038132Y-62727919D01*
X91023126Y-62742926D01*
X91008336Y-62755558D01*
X90991167Y-62768032D01*
X90991165Y-62768034D01*
X90960194Y-62805470D01*
X90956262Y-62809790D01*
X90912553Y-62853500D01*
X90698871Y-63067182D01*
X90637551Y-63100666D01*
X90611192Y-63103500D01*
X85004975Y-63103500D01*
X84937936Y-63083815D01*
X84932090Y-63079818D01*
X84780734Y-62969851D01*
X84780729Y-62969848D01*
X84607807Y-62892857D01*
X84607802Y-62892855D01*
X84462001Y-62861865D01*
X84422646Y-62853500D01*
X84233354Y-62853500D01*
X84200897Y-62860398D01*
X84048197Y-62892855D01*
X84048192Y-62892857D01*
X83875270Y-62969848D01*
X83875265Y-62969851D01*
X83722129Y-63081111D01*
X83595466Y-63221785D01*
X83500821Y-63385715D01*
X83500818Y-63385722D01*
X83442983Y-63563721D01*
X83442326Y-63565744D01*
X83422540Y-63754000D01*
X77216500Y-63754000D01*
X77216500Y-61976000D01*
X103996540Y-61976000D01*
X104016326Y-62164256D01*
X104016327Y-62164259D01*
X104074818Y-62344277D01*
X104074821Y-62344284D01*
X104169467Y-62508216D01*
X104291957Y-62644255D01*
X104296129Y-62648888D01*
X104449265Y-62760148D01*
X104449270Y-62760151D01*
X104622192Y-62837142D01*
X104622197Y-62837144D01*
X104807354Y-62876500D01*
X104807355Y-62876500D01*
X104996644Y-62876500D01*
X104996646Y-62876500D01*
X105181803Y-62837144D01*
X105354730Y-62760151D01*
X105507871Y-62648888D01*
X105634533Y-62508216D01*
X105729179Y-62344284D01*
X105787674Y-62164256D01*
X105795244Y-62092221D01*
X105821828Y-62027609D01*
X105879126Y-61987624D01*
X105948945Y-61984964D01*
X106009118Y-62020473D01*
X106025952Y-62043186D01*
X106074463Y-62127211D01*
X106074465Y-62127214D01*
X106201129Y-62267888D01*
X106354265Y-62379148D01*
X106354270Y-62379151D01*
X106527192Y-62456142D01*
X106527197Y-62456144D01*
X106712354Y-62495500D01*
X106712355Y-62495500D01*
X106901644Y-62495500D01*
X106901646Y-62495500D01*
X107086803Y-62456144D01*
X107259730Y-62379151D01*
X107412871Y-62267888D01*
X107539533Y-62127216D01*
X107634179Y-61963284D01*
X107692674Y-61783256D01*
X107712460Y-61595000D01*
X107699112Y-61468000D01*
X108314540Y-61468000D01*
X108334326Y-61656256D01*
X108334327Y-61656259D01*
X108392818Y-61836277D01*
X108392821Y-61836284D01*
X108487467Y-62000216D01*
X108570312Y-62092224D01*
X108614129Y-62140888D01*
X108767265Y-62252148D01*
X108767270Y-62252151D01*
X108940192Y-62329142D01*
X108940197Y-62329144D01*
X109125354Y-62368500D01*
X109125355Y-62368500D01*
X109314644Y-62368500D01*
X109314646Y-62368500D01*
X109499803Y-62329144D01*
X109672730Y-62252151D01*
X109825871Y-62140888D01*
X109952533Y-62000216D01*
X110047179Y-61836284D01*
X110105674Y-61656256D01*
X110119168Y-61527855D01*
X110145752Y-61463242D01*
X110154790Y-61453155D01*
X110469128Y-61138816D01*
X110530450Y-61105334D01*
X110556808Y-61102500D01*
X114358252Y-61102500D01*
X114425291Y-61122185D01*
X114471046Y-61174989D01*
X114480990Y-61244147D01*
X114451965Y-61307703D01*
X114450402Y-61309472D01*
X114329466Y-61443785D01*
X114234821Y-61607715D01*
X114234818Y-61607722D01*
X114177784Y-61783256D01*
X114176326Y-61787744D01*
X114156540Y-61976000D01*
X114176326Y-62164256D01*
X114176327Y-62164259D01*
X114234818Y-62344277D01*
X114234821Y-62344284D01*
X114329467Y-62508216D01*
X114339806Y-62519699D01*
X114347307Y-62528030D01*
X114377535Y-62591022D01*
X114368909Y-62660357D01*
X114347307Y-62693970D01*
X114329466Y-62713785D01*
X114234821Y-62877715D01*
X114234818Y-62877722D01*
X114204884Y-62969851D01*
X114176326Y-63057744D01*
X114156540Y-63246000D01*
X114176326Y-63434256D01*
X114176327Y-63434259D01*
X114218391Y-63563721D01*
X114220386Y-63633563D01*
X114184305Y-63693395D01*
X114150898Y-63715318D01*
X114113766Y-63731850D01*
X113960629Y-63843111D01*
X113833966Y-63983785D01*
X113739321Y-64147715D01*
X113739318Y-64147722D01*
X113689834Y-64300019D01*
X113680826Y-64327744D01*
X113661040Y-64516000D01*
X113680826Y-64704256D01*
X113680827Y-64704258D01*
X113680827Y-64704259D01*
X113739318Y-64884277D01*
X113739321Y-64884284D01*
X113833967Y-65048216D01*
X113892399Y-65113111D01*
X113960629Y-65188888D01*
X114113765Y-65300148D01*
X114113770Y-65300151D01*
X114286692Y-65377142D01*
X114286697Y-65377144D01*
X114471854Y-65416500D01*
X114471855Y-65416500D01*
X114560045Y-65416500D01*
X114627084Y-65436185D01*
X114672839Y-65488989D01*
X114682783Y-65558147D01*
X114677976Y-65578815D01*
X114675870Y-65585295D01*
X114671826Y-65597741D01*
X114662460Y-65686855D01*
X114652040Y-65786000D01*
X114671826Y-65974256D01*
X114671827Y-65974259D01*
X114730318Y-66154277D01*
X114730321Y-66154284D01*
X114824967Y-66318216D01*
X114951629Y-66458888D01*
X115104765Y-66570148D01*
X115104770Y-66570151D01*
X115277692Y-66647142D01*
X115277697Y-66647144D01*
X115462854Y-66686500D01*
X115462855Y-66686500D01*
X115652144Y-66686500D01*
X115652146Y-66686500D01*
X115837303Y-66647144D01*
X116010230Y-66570151D01*
X116040718Y-66548000D01*
X121268540Y-66548000D01*
X121288326Y-66736256D01*
X121288327Y-66736259D01*
X121346818Y-66916277D01*
X121346821Y-66916284D01*
X121441467Y-67080216D01*
X121559095Y-67210855D01*
X121568129Y-67220888D01*
X121721265Y-67332148D01*
X121721270Y-67332151D01*
X121894192Y-67409142D01*
X121894197Y-67409144D01*
X122079354Y-67448500D01*
X122079355Y-67448500D01*
X122268644Y-67448500D01*
X122268646Y-67448500D01*
X122453803Y-67409144D01*
X122626730Y-67332151D01*
X122779871Y-67220888D01*
X122906533Y-67080216D01*
X123001179Y-66916284D01*
X123059674Y-66736256D01*
X123079460Y-66548000D01*
X123059674Y-66359744D01*
X123001179Y-66179716D01*
X122906533Y-66015784D01*
X122779871Y-65875112D01*
X122779870Y-65875111D01*
X122626734Y-65763851D01*
X122626729Y-65763848D01*
X122453807Y-65686857D01*
X122453802Y-65686855D01*
X122308001Y-65655865D01*
X122268646Y-65647500D01*
X122079354Y-65647500D01*
X122046897Y-65654398D01*
X121894197Y-65686855D01*
X121894192Y-65686857D01*
X121721270Y-65763848D01*
X121721265Y-65763851D01*
X121568129Y-65875111D01*
X121441466Y-66015785D01*
X121346821Y-66179715D01*
X121346818Y-66179722D01*
X121301820Y-66318214D01*
X121288326Y-66359744D01*
X121268540Y-66548000D01*
X116040718Y-66548000D01*
X116163371Y-66458888D01*
X116290033Y-66318216D01*
X116384679Y-66154284D01*
X116443174Y-65974256D01*
X116462960Y-65786000D01*
X116443174Y-65597744D01*
X116384679Y-65417716D01*
X116290033Y-65253784D01*
X116163371Y-65113112D01*
X116163370Y-65113111D01*
X116010234Y-65001851D01*
X116010229Y-65001848D01*
X115837307Y-64924857D01*
X115837302Y-64924855D01*
X115691501Y-64893865D01*
X115652146Y-64885500D01*
X115563956Y-64885500D01*
X115496917Y-64865815D01*
X115451162Y-64813011D01*
X115441218Y-64743853D01*
X115446024Y-64723184D01*
X115452173Y-64704258D01*
X115452174Y-64704256D01*
X115471960Y-64516000D01*
X115452174Y-64327744D01*
X115410108Y-64198278D01*
X115408113Y-64128437D01*
X115444193Y-64068604D01*
X115477606Y-64046680D01*
X115514724Y-64030154D01*
X115514726Y-64030152D01*
X115514730Y-64030151D01*
X115667871Y-63918888D01*
X115794533Y-63778216D01*
X115889179Y-63614284D01*
X115947674Y-63434256D01*
X115967460Y-63246000D01*
X115947674Y-63057744D01*
X115889179Y-62877716D01*
X115794533Y-62713784D01*
X115776693Y-62693971D01*
X115746464Y-62630981D01*
X115755089Y-62561646D01*
X115776694Y-62528028D01*
X115794533Y-62508216D01*
X115889179Y-62344284D01*
X115947674Y-62164256D01*
X115967460Y-61976000D01*
X115947674Y-61787744D01*
X115889179Y-61607716D01*
X115794533Y-61443784D01*
X115673598Y-61309472D01*
X115643368Y-61246481D01*
X115651993Y-61177145D01*
X115696735Y-61123480D01*
X115763387Y-61102522D01*
X115765748Y-61102500D01*
X127695192Y-61102500D01*
X127762231Y-61122185D01*
X127782873Y-61138819D01*
X130078414Y-63434360D01*
X130108663Y-63483720D01*
X130109820Y-63487281D01*
X130109821Y-63487285D01*
X130155120Y-63565744D01*
X130204467Y-63651216D01*
X130318817Y-63778214D01*
X130331129Y-63791888D01*
X130484265Y-63903148D01*
X130484270Y-63903151D01*
X130657192Y-63980142D01*
X130657197Y-63980144D01*
X130842354Y-64019500D01*
X130842355Y-64019500D01*
X131031644Y-64019500D01*
X131031646Y-64019500D01*
X131216803Y-63980144D01*
X131389730Y-63903151D01*
X131542871Y-63791888D01*
X131669533Y-63651216D01*
X131764179Y-63487284D01*
X131822674Y-63307256D01*
X131842460Y-63119000D01*
X131822674Y-62930744D01*
X131764179Y-62750716D01*
X131669533Y-62586784D01*
X131542871Y-62446112D01*
X131542870Y-62446111D01*
X131389734Y-62334851D01*
X131389729Y-62334848D01*
X131216807Y-62257857D01*
X131216802Y-62257855D01*
X131056162Y-62223711D01*
X131031646Y-62218500D01*
X130842354Y-62218500D01*
X130792823Y-62229027D01*
X130723157Y-62223711D01*
X130679364Y-62195418D01*
X128536434Y-60052488D01*
X128526361Y-60039914D01*
X128526174Y-60040070D01*
X128521201Y-60034059D01*
X128468756Y-59984810D01*
X128447035Y-59963089D01*
X128441240Y-59958594D01*
X128436798Y-59954799D01*
X128401396Y-59921554D01*
X128401388Y-59921548D01*
X128382792Y-59911325D01*
X128366531Y-59900644D01*
X128349763Y-59887637D01*
X128326180Y-59877432D01*
X128305178Y-59868343D01*
X128299956Y-59865786D01*
X128257368Y-59842373D01*
X128257365Y-59842372D01*
X128236801Y-59837092D01*
X128218396Y-59830790D01*
X128198927Y-59822365D01*
X128198921Y-59822363D01*
X128150951Y-59814766D01*
X128145236Y-59813582D01*
X128128772Y-59809355D01*
X128098180Y-59801500D01*
X128098177Y-59801500D01*
X128076955Y-59801500D01*
X128057555Y-59799973D01*
X128036596Y-59796653D01*
X128036595Y-59796653D01*
X128012786Y-59798903D01*
X127988230Y-59801225D01*
X127982392Y-59801500D01*
X125234829Y-59801500D01*
X125167790Y-59781815D01*
X125122035Y-59729011D01*
X125111508Y-59690461D01*
X125111460Y-59690000D01*
X125091674Y-59501744D01*
X125033179Y-59321716D01*
X125025837Y-59309000D01*
X128888540Y-59309000D01*
X128908326Y-59497256D01*
X128908327Y-59497259D01*
X128966818Y-59677277D01*
X128966821Y-59677284D01*
X129061467Y-59841216D01*
X129158450Y-59948926D01*
X129188129Y-59981888D01*
X129341265Y-60093148D01*
X129341270Y-60093151D01*
X129514192Y-60170142D01*
X129514197Y-60170144D01*
X129699354Y-60209500D01*
X129699355Y-60209500D01*
X129888644Y-60209500D01*
X129888646Y-60209500D01*
X130073803Y-60170144D01*
X130246730Y-60093151D01*
X130399871Y-59981888D01*
X130526533Y-59841216D01*
X130621179Y-59677284D01*
X130679674Y-59497256D01*
X130699460Y-59309000D01*
X130679674Y-59120744D01*
X130621179Y-58940716D01*
X130526533Y-58776784D01*
X130399871Y-58636112D01*
X130399870Y-58636111D01*
X130246734Y-58524851D01*
X130246729Y-58524848D01*
X130073807Y-58447857D01*
X130073802Y-58447855D01*
X129928001Y-58416865D01*
X129888646Y-58408500D01*
X129699354Y-58408500D01*
X129666897Y-58415398D01*
X129514197Y-58447855D01*
X129514192Y-58447857D01*
X129341270Y-58524848D01*
X129341265Y-58524851D01*
X129188129Y-58636111D01*
X129061466Y-58776785D01*
X128966821Y-58940715D01*
X128966818Y-58940722D01*
X128941998Y-59017112D01*
X128908326Y-59120744D01*
X128888540Y-59309000D01*
X125025837Y-59309000D01*
X124938533Y-59157784D01*
X124811871Y-59017112D01*
X124811870Y-59017111D01*
X124658734Y-58905851D01*
X124658729Y-58905848D01*
X124485807Y-58828857D01*
X124485802Y-58828855D01*
X124340001Y-58797865D01*
X124300646Y-58789500D01*
X124111354Y-58789500D01*
X124078897Y-58796398D01*
X123926197Y-58828855D01*
X123926192Y-58828857D01*
X123753270Y-58905848D01*
X123753265Y-58905851D01*
X123600129Y-59017111D01*
X123473466Y-59157785D01*
X123378821Y-59321715D01*
X123378818Y-59321722D01*
X123321784Y-59497256D01*
X123320326Y-59501744D01*
X123300540Y-59690000D01*
X123300492Y-59690461D01*
X123273908Y-59755076D01*
X123216610Y-59795061D01*
X123177171Y-59801500D01*
X110321505Y-59801500D01*
X110305494Y-59799732D01*
X110305472Y-59799974D01*
X110297705Y-59799240D01*
X110297704Y-59799240D01*
X110225797Y-59801500D01*
X110195075Y-59801500D01*
X110195071Y-59801500D01*
X110195061Y-59801501D01*
X110187793Y-59802419D01*
X110181976Y-59802876D01*
X110133436Y-59804402D01*
X110133425Y-59804404D01*
X110113049Y-59810323D01*
X110094008Y-59814266D01*
X110072953Y-59816926D01*
X110072937Y-59816930D01*
X110027771Y-59834812D01*
X110022244Y-59836704D01*
X109975599Y-59850256D01*
X109957327Y-59861062D01*
X109939861Y-59869619D01*
X109920128Y-59877432D01*
X109880830Y-59905983D01*
X109875953Y-59909186D01*
X109862281Y-59917272D01*
X109834132Y-59933920D01*
X109819126Y-59948926D01*
X109804336Y-59961558D01*
X109787167Y-59974032D01*
X109787165Y-59974034D01*
X109756194Y-60011470D01*
X109752262Y-60015791D01*
X109236873Y-60531181D01*
X109175550Y-60564666D01*
X109149192Y-60567500D01*
X109125354Y-60567500D01*
X109092897Y-60574398D01*
X108940197Y-60606855D01*
X108940192Y-60606857D01*
X108767270Y-60683848D01*
X108767265Y-60683851D01*
X108614129Y-60795111D01*
X108487466Y-60935785D01*
X108392821Y-61099715D01*
X108392818Y-61099722D01*
X108334327Y-61279740D01*
X108334326Y-61279744D01*
X108314540Y-61468000D01*
X107699112Y-61468000D01*
X107692674Y-61406744D01*
X107634179Y-61226716D01*
X107539533Y-61062784D01*
X107412871Y-60922112D01*
X107412870Y-60922111D01*
X107259734Y-60810851D01*
X107259729Y-60810848D01*
X107086807Y-60733857D01*
X107086802Y-60733855D01*
X106941001Y-60702865D01*
X106901646Y-60694500D01*
X106712354Y-60694500D01*
X106679897Y-60701398D01*
X106527197Y-60733855D01*
X106527192Y-60733857D01*
X106354270Y-60810848D01*
X106354265Y-60810851D01*
X106201129Y-60922111D01*
X106074466Y-61062785D01*
X105979821Y-61226715D01*
X105979818Y-61226722D01*
X105921327Y-61406740D01*
X105921326Y-61406744D01*
X105917433Y-61443783D01*
X105913755Y-61478777D01*
X105887170Y-61543391D01*
X105829872Y-61583375D01*
X105760053Y-61586035D01*
X105699879Y-61550524D01*
X105683050Y-61527819D01*
X105634533Y-61443784D01*
X105507871Y-61303112D01*
X105475708Y-61279744D01*
X105354734Y-61191851D01*
X105354729Y-61191848D01*
X105181807Y-61114857D01*
X105181802Y-61114855D01*
X105036001Y-61083865D01*
X104996646Y-61075500D01*
X104807354Y-61075500D01*
X104774897Y-61082398D01*
X104622197Y-61114855D01*
X104622192Y-61114857D01*
X104449270Y-61191848D01*
X104449265Y-61191851D01*
X104296129Y-61303111D01*
X104169466Y-61443785D01*
X104074821Y-61607715D01*
X104074818Y-61607722D01*
X104017784Y-61783256D01*
X104016326Y-61787744D01*
X103996540Y-61976000D01*
X77216500Y-61976000D01*
X77216500Y-53340001D01*
X82422645Y-53340001D01*
X82442039Y-53611160D01*
X82442040Y-53611167D01*
X82499823Y-53876793D01*
X82499825Y-53876801D01*
X82576330Y-54081920D01*
X82594830Y-54131519D01*
X82725109Y-54370107D01*
X82725110Y-54370108D01*
X82725113Y-54370113D01*
X82888029Y-54587742D01*
X82888033Y-54587746D01*
X82888038Y-54587752D01*
X83080247Y-54779961D01*
X83080253Y-54779966D01*
X83080258Y-54779971D01*
X83297887Y-54942887D01*
X83297891Y-54942889D01*
X83297892Y-54942890D01*
X83536481Y-55073169D01*
X83536480Y-55073169D01*
X83536484Y-55073170D01*
X83536487Y-55073172D01*
X83791199Y-55168175D01*
X84056840Y-55225961D01*
X84308605Y-55243967D01*
X84327999Y-55245355D01*
X84328000Y-55245355D01*
X84328001Y-55245355D01*
X84346100Y-55244060D01*
X84599160Y-55225961D01*
X84864801Y-55168175D01*
X85119513Y-55073172D01*
X85119517Y-55073169D01*
X85119519Y-55073169D01*
X85238813Y-55008029D01*
X85358113Y-54942887D01*
X85575742Y-54779971D01*
X85767971Y-54587742D01*
X85930887Y-54370113D01*
X86061172Y-54131513D01*
X86156175Y-53876801D01*
X86213961Y-53611160D01*
X86233355Y-53340000D01*
X86213961Y-53068840D01*
X86156175Y-52803199D01*
X86061172Y-52548487D01*
X86061170Y-52548484D01*
X86061169Y-52548480D01*
X85930890Y-52309892D01*
X85930889Y-52309891D01*
X85930887Y-52309887D01*
X85767971Y-52092258D01*
X85767966Y-52092253D01*
X85767961Y-52092247D01*
X85575752Y-51900038D01*
X85575746Y-51900033D01*
X85575742Y-51900029D01*
X85358113Y-51737113D01*
X85358108Y-51737110D01*
X85358107Y-51737109D01*
X85119518Y-51606830D01*
X85119519Y-51606830D01*
X85069920Y-51588330D01*
X84864801Y-51511825D01*
X84864794Y-51511823D01*
X84864793Y-51511823D01*
X84599167Y-51454040D01*
X84599160Y-51454039D01*
X84328001Y-51434645D01*
X84327999Y-51434645D01*
X84056839Y-51454039D01*
X84056832Y-51454040D01*
X83791206Y-51511823D01*
X83791202Y-51511824D01*
X83791199Y-51511825D01*
X83663843Y-51559326D01*
X83536480Y-51606830D01*
X83297892Y-51737109D01*
X83297891Y-51737110D01*
X83080259Y-51900028D01*
X83080247Y-51900038D01*
X82888038Y-52092247D01*
X82888028Y-52092259D01*
X82725110Y-52309891D01*
X82725109Y-52309892D01*
X82594830Y-52548480D01*
X82547326Y-52675843D01*
X82499825Y-52803199D01*
X82499824Y-52803202D01*
X82499823Y-52803206D01*
X82442040Y-53068832D01*
X82442039Y-53068839D01*
X82422645Y-53339998D01*
X82422645Y-53340001D01*
X77216500Y-53340001D01*
X77216500Y-46351998D01*
X77236185Y-46284961D01*
X77288989Y-46239206D01*
X77340500Y-46228000D01*
X141099500Y-46228000D01*
X141166539Y-46247685D01*
G37*
G04 #@! TD.AperFunction*
G04 #@! TA.AperFunction,Conductor*
G36*
X96578134Y-26817185D02*
G01*
X96623889Y-26869989D01*
X96633833Y-26939147D01*
X96604808Y-27002703D01*
X96546030Y-27040477D01*
X96536876Y-27042790D01*
X96367197Y-27078855D01*
X96367192Y-27078857D01*
X96194270Y-27155848D01*
X96194265Y-27155851D01*
X96041129Y-27267111D01*
X95914466Y-27407785D01*
X95819821Y-27571715D01*
X95819818Y-27571722D01*
X95761327Y-27751740D01*
X95761326Y-27751744D01*
X95741540Y-27940000D01*
X95761326Y-28128256D01*
X95761327Y-28128259D01*
X95819818Y-28308277D01*
X95819821Y-28308284D01*
X95914467Y-28472216D01*
X96041129Y-28612888D01*
X96194265Y-28724148D01*
X96194270Y-28724151D01*
X96367192Y-28801142D01*
X96367197Y-28801144D01*
X96552354Y-28840500D01*
X96552355Y-28840500D01*
X96741644Y-28840500D01*
X96741646Y-28840500D01*
X96926803Y-28801144D01*
X97099730Y-28724151D01*
X97252871Y-28612888D01*
X97379533Y-28472216D01*
X97474179Y-28308284D01*
X97532674Y-28128256D01*
X97552460Y-27940000D01*
X97532674Y-27751744D01*
X97474179Y-27571716D01*
X97379533Y-27407784D01*
X97252871Y-27267112D01*
X97239735Y-27257568D01*
X97099734Y-27155851D01*
X97099729Y-27155848D01*
X96926807Y-27078857D01*
X96926802Y-27078855D01*
X96757124Y-27042790D01*
X96695642Y-27009598D01*
X96661866Y-26948435D01*
X96666518Y-26878720D01*
X96708123Y-26822588D01*
X96773470Y-26797859D01*
X96782905Y-26797500D01*
X139189964Y-26797500D01*
X139194019Y-26797633D01*
X139223188Y-26799544D01*
X139275780Y-26802991D01*
X139461833Y-26816298D01*
X139469475Y-26817328D01*
X139587233Y-26840752D01*
X139734306Y-26872746D01*
X139741052Y-26874618D01*
X139861739Y-26915585D01*
X139949811Y-26948435D01*
X139996528Y-26965860D01*
X140002284Y-26968345D01*
X140085937Y-27009598D01*
X140119386Y-27026093D01*
X140243587Y-27093912D01*
X140248314Y-27096773D01*
X140336727Y-27155849D01*
X140356885Y-27169318D01*
X140359595Y-27171236D01*
X140416999Y-27214207D01*
X140470895Y-27254553D01*
X140474603Y-27257560D01*
X140520268Y-27297607D01*
X140573200Y-27344027D01*
X140576146Y-27346786D01*
X140674211Y-27444851D01*
X140676971Y-27447798D01*
X140763430Y-27546385D01*
X140766451Y-27550111D01*
X140849762Y-27661403D01*
X140851680Y-27664113D01*
X140924220Y-27772676D01*
X140927086Y-27777410D01*
X140994906Y-27901613D01*
X141052652Y-28018712D01*
X141055138Y-28024470D01*
X141105409Y-28159247D01*
X141110510Y-28174272D01*
X141146378Y-28279939D01*
X141148253Y-28286694D01*
X141180247Y-28433766D01*
X141203667Y-28551507D01*
X141204702Y-28559187D01*
X141218017Y-28745354D01*
X141223367Y-28826967D01*
X141223500Y-28831024D01*
X141223500Y-44072000D01*
X141203815Y-44139039D01*
X141151011Y-44184794D01*
X141099500Y-44196000D01*
X137903500Y-44196000D01*
X137836461Y-44176315D01*
X137790706Y-44123511D01*
X137779500Y-44072000D01*
X137779500Y-42748256D01*
X137764074Y-42596560D01*
X137703162Y-42402420D01*
X137703160Y-42402416D01*
X137703159Y-42402412D01*
X137604409Y-42224498D01*
X137604408Y-42224497D01*
X137604407Y-42224495D01*
X137471867Y-42070106D01*
X137471865Y-42070104D01*
X137310962Y-41945554D01*
X137310959Y-41945553D01*
X137310958Y-41945552D01*
X137128271Y-41855940D01*
X136931285Y-41804937D01*
X136931287Y-41804937D01*
X136795804Y-41798066D01*
X136728064Y-41794631D01*
X136728063Y-41794631D01*
X136728061Y-41794631D01*
X136526936Y-41825442D01*
X136526924Y-41825445D01*
X136336118Y-41896111D01*
X136336111Y-41896115D01*
X136163432Y-42003745D01*
X136163427Y-42003749D01*
X136015949Y-42143938D01*
X136015948Y-42143940D01*
X135899705Y-42310949D01*
X135819459Y-42497943D01*
X135778500Y-42697258D01*
X135778500Y-44072000D01*
X135758815Y-44139039D01*
X135706011Y-44184794D01*
X135654500Y-44196000D01*
X77340500Y-44196000D01*
X77273461Y-44176315D01*
X77227706Y-44123511D01*
X77216500Y-44072000D01*
X77216500Y-40767000D01*
X93836540Y-40767000D01*
X93856326Y-40955256D01*
X93856327Y-40955259D01*
X93914818Y-41135277D01*
X93914821Y-41135284D01*
X94009467Y-41299216D01*
X94042821Y-41336259D01*
X94136129Y-41439888D01*
X94289265Y-41551148D01*
X94289270Y-41551151D01*
X94462192Y-41628142D01*
X94462197Y-41628144D01*
X94647354Y-41667500D01*
X94647355Y-41667500D01*
X94836644Y-41667500D01*
X94836646Y-41667500D01*
X95021803Y-41628144D01*
X95194730Y-41551151D01*
X95347871Y-41439888D01*
X95474533Y-41299216D01*
X95561837Y-41148000D01*
X102980540Y-41148000D01*
X103000326Y-41336256D01*
X103000327Y-41336259D01*
X103058818Y-41516277D01*
X103058821Y-41516284D01*
X103153467Y-41680216D01*
X103256487Y-41794631D01*
X103280129Y-41820888D01*
X103433265Y-41932148D01*
X103433270Y-41932151D01*
X103606192Y-42009142D01*
X103606197Y-42009144D01*
X103791354Y-42048500D01*
X103791355Y-42048500D01*
X103980644Y-42048500D01*
X103980646Y-42048500D01*
X104165803Y-42009144D01*
X104338730Y-41932151D01*
X104491871Y-41820888D01*
X104618533Y-41680216D01*
X104713179Y-41516284D01*
X104771674Y-41336256D01*
X104791460Y-41148000D01*
X104771674Y-40959744D01*
X104713179Y-40779716D01*
X104632514Y-40640000D01*
X110854540Y-40640000D01*
X110874326Y-40828256D01*
X110874327Y-40828259D01*
X110932818Y-41008277D01*
X110932821Y-41008284D01*
X111027467Y-41172216D01*
X111141817Y-41299214D01*
X111154129Y-41312888D01*
X111307265Y-41424148D01*
X111307270Y-41424151D01*
X111480192Y-41501142D01*
X111480197Y-41501144D01*
X111665354Y-41540500D01*
X111665355Y-41540500D01*
X111854644Y-41540500D01*
X111854646Y-41540500D01*
X112039803Y-41501144D01*
X112212730Y-41424151D01*
X112365871Y-41312888D01*
X112492533Y-41172216D01*
X112587179Y-41008284D01*
X112645674Y-40828256D01*
X112665460Y-40640000D01*
X112645674Y-40451744D01*
X112587179Y-40271716D01*
X112492533Y-40107784D01*
X112365871Y-39967112D01*
X112365870Y-39967111D01*
X112212734Y-39855851D01*
X112212729Y-39855848D01*
X112039807Y-39778857D01*
X112039802Y-39778855D01*
X111894001Y-39747865D01*
X111854646Y-39739500D01*
X111665354Y-39739500D01*
X111632897Y-39746398D01*
X111480197Y-39778855D01*
X111480192Y-39778857D01*
X111307270Y-39855848D01*
X111307265Y-39855851D01*
X111154129Y-39967111D01*
X111027466Y-40107785D01*
X110932821Y-40271715D01*
X110932818Y-40271722D01*
X110874327Y-40451740D01*
X110874326Y-40451744D01*
X110854540Y-40640000D01*
X104632514Y-40640000D01*
X104618533Y-40615784D01*
X104491871Y-40475112D01*
X104459708Y-40451744D01*
X104338734Y-40363851D01*
X104338729Y-40363848D01*
X104165807Y-40286857D01*
X104165802Y-40286855D01*
X104020001Y-40255865D01*
X103980646Y-40247500D01*
X103791354Y-40247500D01*
X103758897Y-40254398D01*
X103606197Y-40286855D01*
X103606192Y-40286857D01*
X103433270Y-40363848D01*
X103433265Y-40363851D01*
X103280129Y-40475111D01*
X103153466Y-40615785D01*
X103058821Y-40779715D01*
X103058818Y-40779722D01*
X103001784Y-40955256D01*
X103000326Y-40959744D01*
X102980540Y-41148000D01*
X95561837Y-41148000D01*
X95569179Y-41135284D01*
X95627674Y-40955256D01*
X95647460Y-40767000D01*
X95627674Y-40578744D01*
X95569179Y-40398716D01*
X95474533Y-40234784D01*
X95347871Y-40094112D01*
X95347870Y-40094111D01*
X95194734Y-39982851D01*
X95194729Y-39982848D01*
X95021807Y-39905857D01*
X95021802Y-39905855D01*
X94876001Y-39874865D01*
X94836646Y-39866500D01*
X94647354Y-39866500D01*
X94614897Y-39873398D01*
X94462197Y-39905855D01*
X94462192Y-39905857D01*
X94289270Y-39982848D01*
X94289265Y-39982851D01*
X94136129Y-40094111D01*
X94009466Y-40234785D01*
X93914821Y-40398715D01*
X93914818Y-40398722D01*
X93889998Y-40475112D01*
X93856326Y-40578744D01*
X93836540Y-40767000D01*
X77216500Y-40767000D01*
X77216500Y-36322000D01*
X110854540Y-36322000D01*
X110874326Y-36510256D01*
X110874327Y-36510259D01*
X110932818Y-36690277D01*
X110932821Y-36690284D01*
X111027467Y-36854216D01*
X111154129Y-36994888D01*
X111307265Y-37106148D01*
X111307270Y-37106151D01*
X111480192Y-37183142D01*
X111480197Y-37183144D01*
X111665354Y-37222500D01*
X111665355Y-37222500D01*
X111854644Y-37222500D01*
X111854646Y-37222500D01*
X112039803Y-37183144D01*
X112212730Y-37106151D01*
X112365871Y-36994888D01*
X112492533Y-36854216D01*
X112587179Y-36690284D01*
X112645674Y-36510256D01*
X112665460Y-36322000D01*
X112645674Y-36133744D01*
X112587179Y-35953716D01*
X112492533Y-35789784D01*
X112365871Y-35649112D01*
X112365870Y-35649111D01*
X112212734Y-35537851D01*
X112212729Y-35537848D01*
X112039807Y-35460857D01*
X112039802Y-35460855D01*
X111894001Y-35429865D01*
X111854646Y-35421500D01*
X111665354Y-35421500D01*
X111632897Y-35428398D01*
X111480197Y-35460855D01*
X111480192Y-35460857D01*
X111307270Y-35537848D01*
X111307265Y-35537851D01*
X111154129Y-35649111D01*
X111027466Y-35789785D01*
X110932821Y-35953715D01*
X110932818Y-35953722D01*
X110874327Y-36133740D01*
X110874326Y-36133744D01*
X110854540Y-36322000D01*
X77216500Y-36322000D01*
X77216500Y-34798000D01*
X114156540Y-34798000D01*
X114176326Y-34986256D01*
X114176327Y-34986259D01*
X114234818Y-35166277D01*
X114234821Y-35166284D01*
X114329467Y-35330216D01*
X114411660Y-35421500D01*
X114456129Y-35470888D01*
X114609265Y-35582148D01*
X114609270Y-35582151D01*
X114782192Y-35659142D01*
X114782197Y-35659144D01*
X114967354Y-35698500D01*
X114967355Y-35698500D01*
X115156644Y-35698500D01*
X115156646Y-35698500D01*
X115341803Y-35659144D01*
X115514730Y-35582151D01*
X115667871Y-35470888D01*
X115794533Y-35330216D01*
X115889179Y-35166284D01*
X115947674Y-34986256D01*
X115967460Y-34798000D01*
X115947674Y-34609744D01*
X115889179Y-34429716D01*
X115794533Y-34265784D01*
X115667871Y-34125112D01*
X115667870Y-34125111D01*
X115514734Y-34013851D01*
X115514729Y-34013848D01*
X115341807Y-33936857D01*
X115341802Y-33936855D01*
X115196001Y-33905865D01*
X115156646Y-33897500D01*
X114967354Y-33897500D01*
X114934897Y-33904398D01*
X114782197Y-33936855D01*
X114782192Y-33936857D01*
X114609270Y-34013848D01*
X114609265Y-34013851D01*
X114456129Y-34125111D01*
X114329466Y-34265785D01*
X114234821Y-34429715D01*
X114234818Y-34429722D01*
X114176327Y-34609740D01*
X114176326Y-34609744D01*
X114156540Y-34798000D01*
X77216500Y-34798000D01*
X77216500Y-33528000D01*
X110854540Y-33528000D01*
X110874326Y-33716256D01*
X110874327Y-33716259D01*
X110932818Y-33896277D01*
X110932821Y-33896284D01*
X111027467Y-34060216D01*
X111085899Y-34125111D01*
X111154129Y-34200888D01*
X111307265Y-34312148D01*
X111307270Y-34312151D01*
X111480192Y-34389142D01*
X111480197Y-34389144D01*
X111665354Y-34428500D01*
X111665355Y-34428500D01*
X111854644Y-34428500D01*
X111854646Y-34428500D01*
X112039803Y-34389144D01*
X112212730Y-34312151D01*
X112365871Y-34200888D01*
X112492533Y-34060216D01*
X112587179Y-33896284D01*
X112645674Y-33716256D01*
X112665460Y-33528000D01*
X112645674Y-33339744D01*
X112624313Y-33274001D01*
X132968645Y-33274001D01*
X132988039Y-33545160D01*
X132988040Y-33545167D01*
X133025258Y-33716256D01*
X133045825Y-33810801D01*
X133092842Y-33936857D01*
X133140830Y-34065519D01*
X133271109Y-34304107D01*
X133271110Y-34304108D01*
X133271113Y-34304113D01*
X133434029Y-34521742D01*
X133434033Y-34521746D01*
X133434038Y-34521752D01*
X133626247Y-34713961D01*
X133626253Y-34713966D01*
X133626258Y-34713971D01*
X133843887Y-34876887D01*
X133843891Y-34876889D01*
X133843892Y-34876890D01*
X134082481Y-35007169D01*
X134082480Y-35007169D01*
X134082484Y-35007170D01*
X134082487Y-35007172D01*
X134337199Y-35102175D01*
X134602840Y-35159961D01*
X134854605Y-35177967D01*
X134873999Y-35179355D01*
X134874000Y-35179355D01*
X134874001Y-35179355D01*
X134892100Y-35178060D01*
X135145160Y-35159961D01*
X135410801Y-35102175D01*
X135665513Y-35007172D01*
X135665517Y-35007169D01*
X135665519Y-35007169D01*
X135784813Y-34942029D01*
X135904113Y-34876887D01*
X136121742Y-34713971D01*
X136313971Y-34521742D01*
X136476887Y-34304113D01*
X136607172Y-34065513D01*
X136702175Y-33810801D01*
X136759961Y-33545160D01*
X136779355Y-33274000D01*
X136759961Y-33002840D01*
X136702175Y-32737199D01*
X136607172Y-32482487D01*
X136607170Y-32482484D01*
X136607169Y-32482480D01*
X136476890Y-32243892D01*
X136476889Y-32243891D01*
X136476887Y-32243887D01*
X136313971Y-32026258D01*
X136313966Y-32026253D01*
X136313961Y-32026247D01*
X136121752Y-31834038D01*
X136121746Y-31834033D01*
X136121742Y-31834029D01*
X135904113Y-31671113D01*
X135904108Y-31671110D01*
X135904107Y-31671109D01*
X135665518Y-31540830D01*
X135665519Y-31540830D01*
X135615920Y-31522330D01*
X135410801Y-31445825D01*
X135410794Y-31445823D01*
X135410793Y-31445823D01*
X135145167Y-31388040D01*
X135145160Y-31388039D01*
X134874001Y-31368645D01*
X134873999Y-31368645D01*
X134602839Y-31388039D01*
X134602832Y-31388040D01*
X134337206Y-31445823D01*
X134337202Y-31445824D01*
X134337199Y-31445825D01*
X134209843Y-31493326D01*
X134082480Y-31540830D01*
X133843892Y-31671109D01*
X133843891Y-31671110D01*
X133626259Y-31834028D01*
X133626247Y-31834038D01*
X133434038Y-32026247D01*
X133434028Y-32026259D01*
X133271110Y-32243891D01*
X133271109Y-32243892D01*
X133140830Y-32482480D01*
X133093326Y-32609843D01*
X133045825Y-32737199D01*
X133045824Y-32737202D01*
X133045823Y-32737206D01*
X132988040Y-33002832D01*
X132988039Y-33002839D01*
X132968645Y-33273998D01*
X132968645Y-33274001D01*
X112624313Y-33274001D01*
X112587179Y-33159716D01*
X112492533Y-32995784D01*
X112365871Y-32855112D01*
X112365870Y-32855111D01*
X112212734Y-32743851D01*
X112212729Y-32743848D01*
X112039807Y-32666857D01*
X112039802Y-32666855D01*
X111894001Y-32635865D01*
X111854646Y-32627500D01*
X111665354Y-32627500D01*
X111632897Y-32634398D01*
X111480197Y-32666855D01*
X111480192Y-32666857D01*
X111307270Y-32743848D01*
X111307265Y-32743851D01*
X111154129Y-32855111D01*
X111027466Y-32995785D01*
X110932821Y-33159715D01*
X110932818Y-33159722D01*
X110895687Y-33274001D01*
X110874326Y-33339744D01*
X110854540Y-33528000D01*
X77216500Y-33528000D01*
X77216500Y-31242000D01*
X117204540Y-31242000D01*
X117224326Y-31430256D01*
X117224327Y-31430259D01*
X117282818Y-31610277D01*
X117282821Y-31610284D01*
X117377467Y-31774216D01*
X117504129Y-31914888D01*
X117657265Y-32026148D01*
X117657270Y-32026151D01*
X117830192Y-32103142D01*
X117830197Y-32103144D01*
X118015354Y-32142500D01*
X118015355Y-32142500D01*
X118204644Y-32142500D01*
X118204646Y-32142500D01*
X118389803Y-32103144D01*
X118562730Y-32026151D01*
X118715871Y-31914888D01*
X118842533Y-31774216D01*
X118937179Y-31610284D01*
X118995674Y-31430256D01*
X119015460Y-31242000D01*
X118995674Y-31053744D01*
X118937179Y-30873716D01*
X118842533Y-30709784D01*
X118715871Y-30569112D01*
X118715870Y-30569111D01*
X118562734Y-30457851D01*
X118562729Y-30457848D01*
X118389807Y-30380857D01*
X118389802Y-30380855D01*
X118244001Y-30349865D01*
X118204646Y-30341500D01*
X118015354Y-30341500D01*
X117982897Y-30348398D01*
X117830197Y-30380855D01*
X117830192Y-30380857D01*
X117657270Y-30457848D01*
X117657265Y-30457851D01*
X117504129Y-30569111D01*
X117377466Y-30709785D01*
X117282821Y-30873715D01*
X117282818Y-30873722D01*
X117224327Y-31053740D01*
X117224326Y-31053744D01*
X117204540Y-31242000D01*
X77216500Y-31242000D01*
X77216500Y-28831035D01*
X77216633Y-28826980D01*
X77218326Y-28801142D01*
X77221989Y-28745252D01*
X77235299Y-28559162D01*
X77236327Y-28551530D01*
X77259761Y-28433721D01*
X77291748Y-28286683D01*
X77293615Y-28279956D01*
X77334592Y-28159241D01*
X77384863Y-28024462D01*
X77387338Y-28018729D01*
X77445103Y-27901593D01*
X77512921Y-27777395D01*
X77515760Y-27772704D01*
X77588346Y-27664073D01*
X77590219Y-27661426D01*
X77673573Y-27550078D01*
X77676538Y-27546421D01*
X77763061Y-27447761D01*
X77765756Y-27444883D01*
X77863883Y-27346756D01*
X77866761Y-27344061D01*
X77965421Y-27257538D01*
X77969078Y-27254573D01*
X78080426Y-27171219D01*
X78083073Y-27169346D01*
X78191704Y-27096760D01*
X78196395Y-27093921D01*
X78320593Y-27026103D01*
X78437729Y-26968338D01*
X78443462Y-26965863D01*
X78578241Y-26915592D01*
X78698956Y-26874615D01*
X78705683Y-26872748D01*
X78852721Y-26840761D01*
X78970530Y-26817327D01*
X78978162Y-26816299D01*
X79164339Y-26802983D01*
X79200972Y-26800582D01*
X79245981Y-26797633D01*
X79250036Y-26797500D01*
X96511095Y-26797500D01*
X96578134Y-26817185D01*
G37*
G04 #@! TD.AperFunction*
M02*
