M48
; DRILL file {KiCad 7.0.8} date 2024 January 30, Tuesday 17:06:25
; FORMAT={-:-/ absolute / metric / decimal}
; #@! TF.CreationDate,2024-01-30T17:06:25-06:00
; #@! TF.GenerationSoftware,Kicad,Pcbnew,7.0.8
; #@! TF.FileFunction,Plated,1,4,PTH
FMAT,2
METRIC
; #@! TA.AperFunction,Plated,PTH,ViaDrill
T1C0.400
; #@! TA.AperFunction,Plated,PTH,ComponentDrill
T2C1.400
%
G90
G05
T1
X84.074Y-68.58
X84.074Y-78.74
X84.328Y-63.754
X88.9Y-72.898
X91.948Y-78.74
X94.742Y-40.767
X96.647Y-27.94
X98.806Y-81.534
X98.806Y-83.947
X101.092Y-41.656
X101.092Y-83.693
X101.853Y-67.791
X101.854Y-70.358
X101.854Y-74.422
X101.854Y-76.962
X101.898Y-68.79
X102.108Y-63.246
X102.222Y-65.786
X102.362Y-61.341
X102.87Y-35.306
X103.124Y-82.55
X103.759Y-76.708
X103.886Y-41.148
X104.902Y-41.91
X104.902Y-61.976
X105.537Y-80.518
X105.791Y-60.833
X106.68Y-70.358
X106.807Y-41.91
X106.807Y-61.595
X107.188Y-81.28
X108.077Y-61.214
X108.331Y-69.736
X109.22Y-61.468
X109.728Y-69.342
X111.76Y-33.528
X111.76Y-36.322
X111.76Y-40.64
X112.014Y-81.153
X112.014Y-83.566
X114.566Y-64.516
X114.808Y-74.93
X115.062Y-34.798
X115.062Y-61.976
X115.062Y-63.246
X115.062Y-73.152
X115.557Y-65.786
X116.459Y-66.802
X117.602Y-81.407
X118.11Y-31.242
X119.126Y-68.072
X119.761Y-59.055
X122.174Y-66.548
X124.206Y-30.988
X124.206Y-42.418
X124.206Y-59.69
X126.746Y-32.766
X129.794Y-59.309
X130.937Y-63.119
X136.779Y-42.799
X136.779Y-47.371
X137.668Y-68.326
T2
X84.328Y-53.34
X106.934Y-77.724
X120.904Y-75.946
X134.874Y-33.274
T0
M30
