%TF.GenerationSoftware,KiCad,Pcbnew,7.0.8*%
%TF.CreationDate,2024-01-30T17:06:26-06:00*%
%TF.ProjectId,PDM_2024_TestBoard,50444d5f-3230-4323-945f-54657374426f,rev?*%
%TF.SameCoordinates,Original*%
%TF.FileFunction,Drillmap*%
%TF.FilePolarity,Positive*%
%FSLAX45Y45*%
G04 Gerber Fmt 4.5, Leading zero omitted, Abs format (unit mm)*
G04 Created by KiCad (PCBNEW 7.0.8) date 2024-01-30 17:06:26*
%MOMM*%
%LPD*%
G01*
G04 APERTURE LIST*
%ADD10C,0.100000*%
%ADD11C,0.200000*%
%ADD12C,0.040000*%
%ADD13C,0.140000*%
G04 APERTURE END LIST*
D10*
X14122400Y-8280400D02*
X14122400Y-2882900D01*
X7924800Y-2679700D02*
G75*
G03*
X7721600Y-2882900I0J-203200D01*
G01*
X14122400Y-2882900D02*
G75*
G03*
X13919200Y-2679700I-203200J0D01*
G01*
X7721600Y-2882900D02*
X7721600Y-8280400D01*
X13919200Y-2679700D02*
X7924800Y-2679700D01*
X13919200Y-8483600D02*
G75*
G03*
X14122400Y-8280400I0J203200D01*
G01*
X7721600Y-8280400D02*
G75*
G03*
X7924800Y-8483600I203200J0D01*
G01*
X7924800Y-8483600D02*
X13919200Y-8483600D01*
D11*
D12*
X8387400Y-6838000D02*
X8427400Y-6878000D01*
X8427400Y-6838000D02*
X8387400Y-6878000D01*
X8387400Y-7854000D02*
X8427400Y-7894000D01*
X8427400Y-7854000D02*
X8387400Y-7894000D01*
X8412800Y-6355400D02*
X8452800Y-6395400D01*
X8452800Y-6355400D02*
X8412800Y-6395400D01*
X8870000Y-7269800D02*
X8910000Y-7309800D01*
X8910000Y-7269800D02*
X8870000Y-7309800D01*
X9174800Y-7854000D02*
X9214800Y-7894000D01*
X9214800Y-7854000D02*
X9174800Y-7894000D01*
X9454200Y-4056700D02*
X9494200Y-4096700D01*
X9494200Y-4056700D02*
X9454200Y-4096700D01*
X9644700Y-2774000D02*
X9684700Y-2814000D01*
X9684700Y-2774000D02*
X9644700Y-2814000D01*
X9860600Y-8133400D02*
X9900600Y-8173400D01*
X9900600Y-8133400D02*
X9860600Y-8173400D01*
X9860600Y-8374700D02*
X9900600Y-8414700D01*
X9900600Y-8374700D02*
X9860600Y-8414700D01*
X10089200Y-4145600D02*
X10129200Y-4185600D01*
X10129200Y-4145600D02*
X10089200Y-4185600D01*
X10089200Y-8349300D02*
X10129200Y-8389300D01*
X10129200Y-8349300D02*
X10089200Y-8389300D01*
X10165277Y-6759107D02*
X10205277Y-6799107D01*
X10205277Y-6759107D02*
X10165277Y-6799107D01*
X10165400Y-7015800D02*
X10205400Y-7055800D01*
X10205400Y-7015800D02*
X10165400Y-7055800D01*
X10165400Y-7422200D02*
X10205400Y-7462200D01*
X10205400Y-7422200D02*
X10165400Y-7462200D01*
X10165400Y-7676200D02*
X10205400Y-7716200D01*
X10205400Y-7676200D02*
X10165400Y-7716200D01*
X10169848Y-6858952D02*
X10209848Y-6898952D01*
X10209848Y-6858952D02*
X10169848Y-6898952D01*
X10190800Y-6304600D02*
X10230800Y-6344600D01*
X10230800Y-6304600D02*
X10190800Y-6344600D01*
X10202250Y-6558600D02*
X10242250Y-6598600D01*
X10242250Y-6558600D02*
X10202250Y-6598600D01*
X10216200Y-6114100D02*
X10256200Y-6154100D01*
X10256200Y-6114100D02*
X10216200Y-6154100D01*
X10267000Y-3510600D02*
X10307000Y-3550600D01*
X10307000Y-3510600D02*
X10267000Y-3550600D01*
X10292400Y-8235000D02*
X10332400Y-8275000D01*
X10332400Y-8235000D02*
X10292400Y-8275000D01*
X10355900Y-7650800D02*
X10395900Y-7690800D01*
X10395900Y-7650800D02*
X10355900Y-7690800D01*
X10368600Y-4094800D02*
X10408600Y-4134800D01*
X10408600Y-4094800D02*
X10368600Y-4134800D01*
X10470200Y-4171000D02*
X10510200Y-4211000D01*
X10510200Y-4171000D02*
X10470200Y-4211000D01*
X10470200Y-6177600D02*
X10510200Y-6217600D01*
X10510200Y-6177600D02*
X10470200Y-6217600D01*
X10533700Y-8031800D02*
X10573700Y-8071800D01*
X10573700Y-8031800D02*
X10533700Y-8071800D01*
X10559100Y-6063300D02*
X10599100Y-6103300D01*
X10599100Y-6063300D02*
X10559100Y-6103300D01*
X10648000Y-7015750D02*
X10688000Y-7055750D01*
X10688000Y-7015750D02*
X10648000Y-7055750D01*
X10660700Y-4171000D02*
X10700700Y-4211000D01*
X10700700Y-4171000D02*
X10660700Y-4211000D01*
X10660700Y-6139500D02*
X10700700Y-6179500D01*
X10700700Y-6139500D02*
X10660700Y-6179500D01*
X10698800Y-8108000D02*
X10738800Y-8148000D01*
X10738800Y-8108000D02*
X10698800Y-8148000D01*
X10787700Y-6101400D02*
X10827700Y-6141400D01*
X10827700Y-6101400D02*
X10787700Y-6141400D01*
X10813100Y-6953550D02*
X10853100Y-6993550D01*
X10853100Y-6953550D02*
X10813100Y-6993550D01*
X10902000Y-6126800D02*
X10942000Y-6166800D01*
X10942000Y-6126800D02*
X10902000Y-6166800D01*
X10952800Y-6914200D02*
X10992800Y-6954200D01*
X10992800Y-6914200D02*
X10952800Y-6954200D01*
X11156000Y-3332800D02*
X11196000Y-3372800D01*
X11196000Y-3332800D02*
X11156000Y-3372800D01*
X11156000Y-3612200D02*
X11196000Y-3652200D01*
X11196000Y-3612200D02*
X11156000Y-3652200D01*
X11156000Y-4044000D02*
X11196000Y-4084000D01*
X11196000Y-4044000D02*
X11156000Y-4084000D01*
X11181400Y-8095300D02*
X11221400Y-8135300D01*
X11221400Y-8095300D02*
X11181400Y-8135300D01*
X11181400Y-8336600D02*
X11221400Y-8376600D01*
X11221400Y-8336600D02*
X11181400Y-8376600D01*
X11436650Y-6431600D02*
X11476650Y-6471600D01*
X11476650Y-6431600D02*
X11436650Y-6471600D01*
X11460800Y-7473000D02*
X11500800Y-7513000D01*
X11500800Y-7473000D02*
X11460800Y-7513000D01*
X11486200Y-3459800D02*
X11526200Y-3499800D01*
X11526200Y-3459800D02*
X11486200Y-3499800D01*
X11486200Y-6177600D02*
X11526200Y-6217600D01*
X11526200Y-6177600D02*
X11486200Y-6217600D01*
X11486200Y-6304600D02*
X11526200Y-6344600D01*
X11526200Y-6304600D02*
X11486200Y-6344600D01*
X11486200Y-7295200D02*
X11526200Y-7335200D01*
X11526200Y-7295200D02*
X11486200Y-7335200D01*
X11535750Y-6558600D02*
X11575750Y-6598600D01*
X11575750Y-6558600D02*
X11535750Y-6598600D01*
X11625900Y-6660200D02*
X11665900Y-6700200D01*
X11665900Y-6660200D02*
X11625900Y-6700200D01*
X11740200Y-8120700D02*
X11780200Y-8160700D01*
X11780200Y-8120700D02*
X11740200Y-8160700D01*
X11791000Y-3104200D02*
X11831000Y-3144200D01*
X11831000Y-3104200D02*
X11791000Y-3144200D01*
X11892600Y-6787200D02*
X11932600Y-6827200D01*
X11932600Y-6787200D02*
X11892600Y-6827200D01*
X11956100Y-5885500D02*
X11996100Y-5925500D01*
X11996100Y-5885500D02*
X11956100Y-5925500D01*
X12197400Y-6634800D02*
X12237400Y-6674800D01*
X12237400Y-6634800D02*
X12197400Y-6674800D01*
X12400600Y-3078800D02*
X12440600Y-3118800D01*
X12440600Y-3078800D02*
X12400600Y-3118800D01*
X12400600Y-4221800D02*
X12440600Y-4261800D01*
X12440600Y-4221800D02*
X12400600Y-4261800D01*
X12400600Y-5949000D02*
X12440600Y-5989000D01*
X12440600Y-5949000D02*
X12400600Y-5989000D01*
X12654600Y-3256600D02*
X12694600Y-3296600D01*
X12694600Y-3256600D02*
X12654600Y-3296600D01*
X12959400Y-5910900D02*
X12999400Y-5950900D01*
X12999400Y-5910900D02*
X12959400Y-5950900D01*
X13073700Y-6291900D02*
X13113700Y-6331900D01*
X13113700Y-6291900D02*
X13073700Y-6331900D01*
X13657900Y-4259900D02*
X13697900Y-4299900D01*
X13697900Y-4259900D02*
X13657900Y-4299900D01*
X13657900Y-4717100D02*
X13697900Y-4757100D01*
X13697900Y-4717100D02*
X13657900Y-4757100D01*
X13746800Y-6812600D02*
X13786800Y-6852600D01*
X13786800Y-6812600D02*
X13746800Y-6852600D01*
D13*
X8502800Y-5334000D02*
G75*
G03*
X8502800Y-5334000I-70000J0D01*
G01*
X10763400Y-7772400D02*
G75*
G03*
X10763400Y-7772400I-70000J0D01*
G01*
X12160400Y-7594600D02*
G75*
G03*
X12160400Y-7594600I-70000J0D01*
G01*
X13557400Y-3327400D02*
G75*
G03*
X13557400Y-3327400I-70000J0D01*
G01*
D11*
X7977377Y-8800084D02*
X7977377Y-8600084D01*
X7977377Y-8600084D02*
X8024996Y-8600084D01*
X8024996Y-8600084D02*
X8053567Y-8609608D01*
X8053567Y-8609608D02*
X8072615Y-8628655D01*
X8072615Y-8628655D02*
X8082139Y-8647703D01*
X8082139Y-8647703D02*
X8091662Y-8685798D01*
X8091662Y-8685798D02*
X8091662Y-8714369D01*
X8091662Y-8714369D02*
X8082139Y-8752465D01*
X8082139Y-8752465D02*
X8072615Y-8771512D01*
X8072615Y-8771512D02*
X8053567Y-8790560D01*
X8053567Y-8790560D02*
X8024996Y-8800084D01*
X8024996Y-8800084D02*
X7977377Y-8800084D01*
X8177377Y-8800084D02*
X8177377Y-8666750D01*
X8177377Y-8704846D02*
X8186901Y-8685798D01*
X8186901Y-8685798D02*
X8196424Y-8676274D01*
X8196424Y-8676274D02*
X8215472Y-8666750D01*
X8215472Y-8666750D02*
X8234520Y-8666750D01*
X8301186Y-8800084D02*
X8301186Y-8666750D01*
X8301186Y-8600084D02*
X8291662Y-8609608D01*
X8291662Y-8609608D02*
X8301186Y-8619131D01*
X8301186Y-8619131D02*
X8310710Y-8609608D01*
X8310710Y-8609608D02*
X8301186Y-8600084D01*
X8301186Y-8600084D02*
X8301186Y-8619131D01*
X8424996Y-8800084D02*
X8405948Y-8790560D01*
X8405948Y-8790560D02*
X8396424Y-8771512D01*
X8396424Y-8771512D02*
X8396424Y-8600084D01*
X8529758Y-8800084D02*
X8510710Y-8790560D01*
X8510710Y-8790560D02*
X8501186Y-8771512D01*
X8501186Y-8771512D02*
X8501186Y-8600084D01*
X8758329Y-8800084D02*
X8758329Y-8600084D01*
X8758329Y-8600084D02*
X8824996Y-8742941D01*
X8824996Y-8742941D02*
X8891663Y-8600084D01*
X8891663Y-8600084D02*
X8891663Y-8800084D01*
X9072615Y-8800084D02*
X9072615Y-8695322D01*
X9072615Y-8695322D02*
X9063091Y-8676274D01*
X9063091Y-8676274D02*
X9044044Y-8666750D01*
X9044044Y-8666750D02*
X9005948Y-8666750D01*
X9005948Y-8666750D02*
X8986901Y-8676274D01*
X9072615Y-8790560D02*
X9053567Y-8800084D01*
X9053567Y-8800084D02*
X9005948Y-8800084D01*
X9005948Y-8800084D02*
X8986901Y-8790560D01*
X8986901Y-8790560D02*
X8977377Y-8771512D01*
X8977377Y-8771512D02*
X8977377Y-8752465D01*
X8977377Y-8752465D02*
X8986901Y-8733417D01*
X8986901Y-8733417D02*
X9005948Y-8723893D01*
X9005948Y-8723893D02*
X9053567Y-8723893D01*
X9053567Y-8723893D02*
X9072615Y-8714369D01*
X9167853Y-8666750D02*
X9167853Y-8866750D01*
X9167853Y-8676274D02*
X9186901Y-8666750D01*
X9186901Y-8666750D02*
X9224996Y-8666750D01*
X9224996Y-8666750D02*
X9244044Y-8676274D01*
X9244044Y-8676274D02*
X9253567Y-8685798D01*
X9253567Y-8685798D02*
X9263091Y-8704846D01*
X9263091Y-8704846D02*
X9263091Y-8761988D01*
X9263091Y-8761988D02*
X9253567Y-8781036D01*
X9253567Y-8781036D02*
X9244044Y-8790560D01*
X9244044Y-8790560D02*
X9224996Y-8800084D01*
X9224996Y-8800084D02*
X9186901Y-8800084D01*
X9186901Y-8800084D02*
X9167853Y-8790560D01*
X9348805Y-8781036D02*
X9358329Y-8790560D01*
X9358329Y-8790560D02*
X9348805Y-8800084D01*
X9348805Y-8800084D02*
X9339282Y-8790560D01*
X9339282Y-8790560D02*
X9348805Y-8781036D01*
X9348805Y-8781036D02*
X9348805Y-8800084D01*
X9348805Y-8676274D02*
X9358329Y-8685798D01*
X9358329Y-8685798D02*
X9348805Y-8695322D01*
X9348805Y-8695322D02*
X9339282Y-8685798D01*
X9339282Y-8685798D02*
X9348805Y-8676274D01*
X9348805Y-8676274D02*
X9348805Y-8695322D01*
D12*
X7676600Y-9108600D02*
X7716600Y-9148600D01*
X7716600Y-9108600D02*
X7676600Y-9148600D01*
D11*
X8015472Y-9020084D02*
X8034520Y-9020084D01*
X8034520Y-9020084D02*
X8053567Y-9029608D01*
X8053567Y-9029608D02*
X8063091Y-9039131D01*
X8063091Y-9039131D02*
X8072615Y-9058179D01*
X8072615Y-9058179D02*
X8082139Y-9096274D01*
X8082139Y-9096274D02*
X8082139Y-9143893D01*
X8082139Y-9143893D02*
X8072615Y-9181988D01*
X8072615Y-9181988D02*
X8063091Y-9201036D01*
X8063091Y-9201036D02*
X8053567Y-9210560D01*
X8053567Y-9210560D02*
X8034520Y-9220084D01*
X8034520Y-9220084D02*
X8015472Y-9220084D01*
X8015472Y-9220084D02*
X7996424Y-9210560D01*
X7996424Y-9210560D02*
X7986901Y-9201036D01*
X7986901Y-9201036D02*
X7977377Y-9181988D01*
X7977377Y-9181988D02*
X7967853Y-9143893D01*
X7967853Y-9143893D02*
X7967853Y-9096274D01*
X7967853Y-9096274D02*
X7977377Y-9058179D01*
X7977377Y-9058179D02*
X7986901Y-9039131D01*
X7986901Y-9039131D02*
X7996424Y-9029608D01*
X7996424Y-9029608D02*
X8015472Y-9020084D01*
X8167853Y-9201036D02*
X8177377Y-9210560D01*
X8177377Y-9210560D02*
X8167853Y-9220084D01*
X8167853Y-9220084D02*
X8158329Y-9210560D01*
X8158329Y-9210560D02*
X8167853Y-9201036D01*
X8167853Y-9201036D02*
X8167853Y-9220084D01*
X8348805Y-9086750D02*
X8348805Y-9220084D01*
X8301186Y-9010560D02*
X8253567Y-9153417D01*
X8253567Y-9153417D02*
X8377377Y-9153417D01*
X8491663Y-9020084D02*
X8510710Y-9020084D01*
X8510710Y-9020084D02*
X8529758Y-9029608D01*
X8529758Y-9029608D02*
X8539282Y-9039131D01*
X8539282Y-9039131D02*
X8548805Y-9058179D01*
X8548805Y-9058179D02*
X8558329Y-9096274D01*
X8558329Y-9096274D02*
X8558329Y-9143893D01*
X8558329Y-9143893D02*
X8548805Y-9181988D01*
X8548805Y-9181988D02*
X8539282Y-9201036D01*
X8539282Y-9201036D02*
X8529758Y-9210560D01*
X8529758Y-9210560D02*
X8510710Y-9220084D01*
X8510710Y-9220084D02*
X8491663Y-9220084D01*
X8491663Y-9220084D02*
X8472615Y-9210560D01*
X8472615Y-9210560D02*
X8463091Y-9201036D01*
X8463091Y-9201036D02*
X8453567Y-9181988D01*
X8453567Y-9181988D02*
X8444044Y-9143893D01*
X8444044Y-9143893D02*
X8444044Y-9096274D01*
X8444044Y-9096274D02*
X8453567Y-9058179D01*
X8453567Y-9058179D02*
X8463091Y-9039131D01*
X8463091Y-9039131D02*
X8472615Y-9029608D01*
X8472615Y-9029608D02*
X8491663Y-9020084D01*
X8682139Y-9020084D02*
X8701186Y-9020084D01*
X8701186Y-9020084D02*
X8720234Y-9029608D01*
X8720234Y-9029608D02*
X8729758Y-9039131D01*
X8729758Y-9039131D02*
X8739282Y-9058179D01*
X8739282Y-9058179D02*
X8748805Y-9096274D01*
X8748805Y-9096274D02*
X8748805Y-9143893D01*
X8748805Y-9143893D02*
X8739282Y-9181988D01*
X8739282Y-9181988D02*
X8729758Y-9201036D01*
X8729758Y-9201036D02*
X8720234Y-9210560D01*
X8720234Y-9210560D02*
X8701186Y-9220084D01*
X8701186Y-9220084D02*
X8682139Y-9220084D01*
X8682139Y-9220084D02*
X8663091Y-9210560D01*
X8663091Y-9210560D02*
X8653567Y-9201036D01*
X8653567Y-9201036D02*
X8644044Y-9181988D01*
X8644044Y-9181988D02*
X8634520Y-9143893D01*
X8634520Y-9143893D02*
X8634520Y-9096274D01*
X8634520Y-9096274D02*
X8644044Y-9058179D01*
X8644044Y-9058179D02*
X8653567Y-9039131D01*
X8653567Y-9039131D02*
X8663091Y-9029608D01*
X8663091Y-9029608D02*
X8682139Y-9020084D01*
X8834520Y-9220084D02*
X8834520Y-9086750D01*
X8834520Y-9105798D02*
X8844044Y-9096274D01*
X8844044Y-9096274D02*
X8863091Y-9086750D01*
X8863091Y-9086750D02*
X8891663Y-9086750D01*
X8891663Y-9086750D02*
X8910710Y-9096274D01*
X8910710Y-9096274D02*
X8920234Y-9115322D01*
X8920234Y-9115322D02*
X8920234Y-9220084D01*
X8920234Y-9115322D02*
X8929758Y-9096274D01*
X8929758Y-9096274D02*
X8948805Y-9086750D01*
X8948805Y-9086750D02*
X8977377Y-9086750D01*
X8977377Y-9086750D02*
X8996425Y-9096274D01*
X8996425Y-9096274D02*
X9005948Y-9115322D01*
X9005948Y-9115322D02*
X9005948Y-9220084D01*
X9101186Y-9220084D02*
X9101186Y-9086750D01*
X9101186Y-9105798D02*
X9110710Y-9096274D01*
X9110710Y-9096274D02*
X9129758Y-9086750D01*
X9129758Y-9086750D02*
X9158329Y-9086750D01*
X9158329Y-9086750D02*
X9177377Y-9096274D01*
X9177377Y-9096274D02*
X9186901Y-9115322D01*
X9186901Y-9115322D02*
X9186901Y-9220084D01*
X9186901Y-9115322D02*
X9196425Y-9096274D01*
X9196425Y-9096274D02*
X9215472Y-9086750D01*
X9215472Y-9086750D02*
X9244044Y-9086750D01*
X9244044Y-9086750D02*
X9263091Y-9096274D01*
X9263091Y-9096274D02*
X9272615Y-9115322D01*
X9272615Y-9115322D02*
X9272615Y-9220084D01*
X9663091Y-9010560D02*
X9491663Y-9267703D01*
X9920234Y-9020084D02*
X9939282Y-9020084D01*
X9939282Y-9020084D02*
X9958329Y-9029608D01*
X9958329Y-9029608D02*
X9967853Y-9039131D01*
X9967853Y-9039131D02*
X9977377Y-9058179D01*
X9977377Y-9058179D02*
X9986901Y-9096274D01*
X9986901Y-9096274D02*
X9986901Y-9143893D01*
X9986901Y-9143893D02*
X9977377Y-9181988D01*
X9977377Y-9181988D02*
X9967853Y-9201036D01*
X9967853Y-9201036D02*
X9958329Y-9210560D01*
X9958329Y-9210560D02*
X9939282Y-9220084D01*
X9939282Y-9220084D02*
X9920234Y-9220084D01*
X9920234Y-9220084D02*
X9901187Y-9210560D01*
X9901187Y-9210560D02*
X9891663Y-9201036D01*
X9891663Y-9201036D02*
X9882139Y-9181988D01*
X9882139Y-9181988D02*
X9872615Y-9143893D01*
X9872615Y-9143893D02*
X9872615Y-9096274D01*
X9872615Y-9096274D02*
X9882139Y-9058179D01*
X9882139Y-9058179D02*
X9891663Y-9039131D01*
X9891663Y-9039131D02*
X9901187Y-9029608D01*
X9901187Y-9029608D02*
X9920234Y-9020084D01*
X10072615Y-9201036D02*
X10082139Y-9210560D01*
X10082139Y-9210560D02*
X10072615Y-9220084D01*
X10072615Y-9220084D02*
X10063091Y-9210560D01*
X10063091Y-9210560D02*
X10072615Y-9201036D01*
X10072615Y-9201036D02*
X10072615Y-9220084D01*
X10205948Y-9020084D02*
X10224996Y-9020084D01*
X10224996Y-9020084D02*
X10244044Y-9029608D01*
X10244044Y-9029608D02*
X10253568Y-9039131D01*
X10253568Y-9039131D02*
X10263091Y-9058179D01*
X10263091Y-9058179D02*
X10272615Y-9096274D01*
X10272615Y-9096274D02*
X10272615Y-9143893D01*
X10272615Y-9143893D02*
X10263091Y-9181988D01*
X10263091Y-9181988D02*
X10253568Y-9201036D01*
X10253568Y-9201036D02*
X10244044Y-9210560D01*
X10244044Y-9210560D02*
X10224996Y-9220084D01*
X10224996Y-9220084D02*
X10205948Y-9220084D01*
X10205948Y-9220084D02*
X10186901Y-9210560D01*
X10186901Y-9210560D02*
X10177377Y-9201036D01*
X10177377Y-9201036D02*
X10167853Y-9181988D01*
X10167853Y-9181988D02*
X10158329Y-9143893D01*
X10158329Y-9143893D02*
X10158329Y-9096274D01*
X10158329Y-9096274D02*
X10167853Y-9058179D01*
X10167853Y-9058179D02*
X10177377Y-9039131D01*
X10177377Y-9039131D02*
X10186901Y-9029608D01*
X10186901Y-9029608D02*
X10205948Y-9020084D01*
X10463091Y-9220084D02*
X10348806Y-9220084D01*
X10405948Y-9220084D02*
X10405948Y-9020084D01*
X10405948Y-9020084D02*
X10386901Y-9048655D01*
X10386901Y-9048655D02*
X10367853Y-9067703D01*
X10367853Y-9067703D02*
X10348806Y-9077227D01*
X10644044Y-9020084D02*
X10548806Y-9020084D01*
X10548806Y-9020084D02*
X10539282Y-9115322D01*
X10539282Y-9115322D02*
X10548806Y-9105798D01*
X10548806Y-9105798D02*
X10567853Y-9096274D01*
X10567853Y-9096274D02*
X10615472Y-9096274D01*
X10615472Y-9096274D02*
X10634520Y-9105798D01*
X10634520Y-9105798D02*
X10644044Y-9115322D01*
X10644044Y-9115322D02*
X10653568Y-9134369D01*
X10653568Y-9134369D02*
X10653568Y-9181988D01*
X10653568Y-9181988D02*
X10644044Y-9201036D01*
X10644044Y-9201036D02*
X10634520Y-9210560D01*
X10634520Y-9210560D02*
X10615472Y-9220084D01*
X10615472Y-9220084D02*
X10567853Y-9220084D01*
X10567853Y-9220084D02*
X10548806Y-9210560D01*
X10548806Y-9210560D02*
X10539282Y-9201036D01*
X10720234Y-9020084D02*
X10853568Y-9020084D01*
X10853568Y-9020084D02*
X10767853Y-9220084D01*
X10920234Y-9020084D02*
X10920234Y-9058179D01*
X10996425Y-9020084D02*
X10996425Y-9058179D01*
X11291663Y-9296274D02*
X11282139Y-9286750D01*
X11282139Y-9286750D02*
X11263091Y-9258179D01*
X11263091Y-9258179D02*
X11253568Y-9239131D01*
X11253568Y-9239131D02*
X11244044Y-9210560D01*
X11244044Y-9210560D02*
X11234520Y-9162941D01*
X11234520Y-9162941D02*
X11234520Y-9124846D01*
X11234520Y-9124846D02*
X11244044Y-9077227D01*
X11244044Y-9077227D02*
X11253568Y-9048655D01*
X11253568Y-9048655D02*
X11263091Y-9029608D01*
X11263091Y-9029608D02*
X11282139Y-9001036D01*
X11282139Y-9001036D02*
X11291663Y-8991512D01*
X11453568Y-9020084D02*
X11415472Y-9020084D01*
X11415472Y-9020084D02*
X11396425Y-9029608D01*
X11396425Y-9029608D02*
X11386901Y-9039131D01*
X11386901Y-9039131D02*
X11367853Y-9067703D01*
X11367853Y-9067703D02*
X11358329Y-9105798D01*
X11358329Y-9105798D02*
X11358329Y-9181988D01*
X11358329Y-9181988D02*
X11367853Y-9201036D01*
X11367853Y-9201036D02*
X11377377Y-9210560D01*
X11377377Y-9210560D02*
X11396425Y-9220084D01*
X11396425Y-9220084D02*
X11434520Y-9220084D01*
X11434520Y-9220084D02*
X11453568Y-9210560D01*
X11453568Y-9210560D02*
X11463091Y-9201036D01*
X11463091Y-9201036D02*
X11472615Y-9181988D01*
X11472615Y-9181988D02*
X11472615Y-9134369D01*
X11472615Y-9134369D02*
X11463091Y-9115322D01*
X11463091Y-9115322D02*
X11453568Y-9105798D01*
X11453568Y-9105798D02*
X11434520Y-9096274D01*
X11434520Y-9096274D02*
X11396425Y-9096274D01*
X11396425Y-9096274D02*
X11377377Y-9105798D01*
X11377377Y-9105798D02*
X11367853Y-9115322D01*
X11367853Y-9115322D02*
X11358329Y-9134369D01*
X11548806Y-9039131D02*
X11558329Y-9029608D01*
X11558329Y-9029608D02*
X11577377Y-9020084D01*
X11577377Y-9020084D02*
X11624996Y-9020084D01*
X11624996Y-9020084D02*
X11644044Y-9029608D01*
X11644044Y-9029608D02*
X11653568Y-9039131D01*
X11653568Y-9039131D02*
X11663091Y-9058179D01*
X11663091Y-9058179D02*
X11663091Y-9077227D01*
X11663091Y-9077227D02*
X11653568Y-9105798D01*
X11653568Y-9105798D02*
X11539282Y-9220084D01*
X11539282Y-9220084D02*
X11663091Y-9220084D01*
X11901187Y-9220084D02*
X11901187Y-9020084D01*
X11986901Y-9220084D02*
X11986901Y-9115322D01*
X11986901Y-9115322D02*
X11977377Y-9096274D01*
X11977377Y-9096274D02*
X11958330Y-9086750D01*
X11958330Y-9086750D02*
X11929758Y-9086750D01*
X11929758Y-9086750D02*
X11910710Y-9096274D01*
X11910710Y-9096274D02*
X11901187Y-9105798D01*
X12110710Y-9220084D02*
X12091663Y-9210560D01*
X12091663Y-9210560D02*
X12082139Y-9201036D01*
X12082139Y-9201036D02*
X12072615Y-9181988D01*
X12072615Y-9181988D02*
X12072615Y-9124846D01*
X12072615Y-9124846D02*
X12082139Y-9105798D01*
X12082139Y-9105798D02*
X12091663Y-9096274D01*
X12091663Y-9096274D02*
X12110710Y-9086750D01*
X12110710Y-9086750D02*
X12139282Y-9086750D01*
X12139282Y-9086750D02*
X12158330Y-9096274D01*
X12158330Y-9096274D02*
X12167853Y-9105798D01*
X12167853Y-9105798D02*
X12177377Y-9124846D01*
X12177377Y-9124846D02*
X12177377Y-9181988D01*
X12177377Y-9181988D02*
X12167853Y-9201036D01*
X12167853Y-9201036D02*
X12158330Y-9210560D01*
X12158330Y-9210560D02*
X12139282Y-9220084D01*
X12139282Y-9220084D02*
X12110710Y-9220084D01*
X12291663Y-9220084D02*
X12272615Y-9210560D01*
X12272615Y-9210560D02*
X12263091Y-9191512D01*
X12263091Y-9191512D02*
X12263091Y-9020084D01*
X12444044Y-9210560D02*
X12424996Y-9220084D01*
X12424996Y-9220084D02*
X12386901Y-9220084D01*
X12386901Y-9220084D02*
X12367853Y-9210560D01*
X12367853Y-9210560D02*
X12358330Y-9191512D01*
X12358330Y-9191512D02*
X12358330Y-9115322D01*
X12358330Y-9115322D02*
X12367853Y-9096274D01*
X12367853Y-9096274D02*
X12386901Y-9086750D01*
X12386901Y-9086750D02*
X12424996Y-9086750D01*
X12424996Y-9086750D02*
X12444044Y-9096274D01*
X12444044Y-9096274D02*
X12453568Y-9115322D01*
X12453568Y-9115322D02*
X12453568Y-9134369D01*
X12453568Y-9134369D02*
X12358330Y-9153417D01*
X12529758Y-9210560D02*
X12548806Y-9220084D01*
X12548806Y-9220084D02*
X12586901Y-9220084D01*
X12586901Y-9220084D02*
X12605949Y-9210560D01*
X12605949Y-9210560D02*
X12615472Y-9191512D01*
X12615472Y-9191512D02*
X12615472Y-9181988D01*
X12615472Y-9181988D02*
X12605949Y-9162941D01*
X12605949Y-9162941D02*
X12586901Y-9153417D01*
X12586901Y-9153417D02*
X12558330Y-9153417D01*
X12558330Y-9153417D02*
X12539282Y-9143893D01*
X12539282Y-9143893D02*
X12529758Y-9124846D01*
X12529758Y-9124846D02*
X12529758Y-9115322D01*
X12529758Y-9115322D02*
X12539282Y-9096274D01*
X12539282Y-9096274D02*
X12558330Y-9086750D01*
X12558330Y-9086750D02*
X12586901Y-9086750D01*
X12586901Y-9086750D02*
X12605949Y-9096274D01*
X12682139Y-9296274D02*
X12691663Y-9286750D01*
X12691663Y-9286750D02*
X12710711Y-9258179D01*
X12710711Y-9258179D02*
X12720234Y-9239131D01*
X12720234Y-9239131D02*
X12729758Y-9210560D01*
X12729758Y-9210560D02*
X12739282Y-9162941D01*
X12739282Y-9162941D02*
X12739282Y-9124846D01*
X12739282Y-9124846D02*
X12729758Y-9077227D01*
X12729758Y-9077227D02*
X12720234Y-9048655D01*
X12720234Y-9048655D02*
X12710711Y-9029608D01*
X12710711Y-9029608D02*
X12691663Y-9001036D01*
X12691663Y-9001036D02*
X12682139Y-8991512D01*
D13*
X7716600Y-9392600D02*
G75*
G03*
X7716600Y-9392600I-70000J0D01*
G01*
D11*
X8082139Y-9484084D02*
X7967853Y-9484084D01*
X8024996Y-9484084D02*
X8024996Y-9284084D01*
X8024996Y-9284084D02*
X8005948Y-9312655D01*
X8005948Y-9312655D02*
X7986901Y-9331703D01*
X7986901Y-9331703D02*
X7967853Y-9341227D01*
X8167853Y-9465036D02*
X8177377Y-9474560D01*
X8177377Y-9474560D02*
X8167853Y-9484084D01*
X8167853Y-9484084D02*
X8158329Y-9474560D01*
X8158329Y-9474560D02*
X8167853Y-9465036D01*
X8167853Y-9465036D02*
X8167853Y-9484084D01*
X8348805Y-9350750D02*
X8348805Y-9484084D01*
X8301186Y-9274560D02*
X8253567Y-9417417D01*
X8253567Y-9417417D02*
X8377377Y-9417417D01*
X8491663Y-9284084D02*
X8510710Y-9284084D01*
X8510710Y-9284084D02*
X8529758Y-9293608D01*
X8529758Y-9293608D02*
X8539282Y-9303131D01*
X8539282Y-9303131D02*
X8548805Y-9322179D01*
X8548805Y-9322179D02*
X8558329Y-9360274D01*
X8558329Y-9360274D02*
X8558329Y-9407893D01*
X8558329Y-9407893D02*
X8548805Y-9445988D01*
X8548805Y-9445988D02*
X8539282Y-9465036D01*
X8539282Y-9465036D02*
X8529758Y-9474560D01*
X8529758Y-9474560D02*
X8510710Y-9484084D01*
X8510710Y-9484084D02*
X8491663Y-9484084D01*
X8491663Y-9484084D02*
X8472615Y-9474560D01*
X8472615Y-9474560D02*
X8463091Y-9465036D01*
X8463091Y-9465036D02*
X8453567Y-9445988D01*
X8453567Y-9445988D02*
X8444044Y-9407893D01*
X8444044Y-9407893D02*
X8444044Y-9360274D01*
X8444044Y-9360274D02*
X8453567Y-9322179D01*
X8453567Y-9322179D02*
X8463091Y-9303131D01*
X8463091Y-9303131D02*
X8472615Y-9293608D01*
X8472615Y-9293608D02*
X8491663Y-9284084D01*
X8682139Y-9284084D02*
X8701186Y-9284084D01*
X8701186Y-9284084D02*
X8720234Y-9293608D01*
X8720234Y-9293608D02*
X8729758Y-9303131D01*
X8729758Y-9303131D02*
X8739282Y-9322179D01*
X8739282Y-9322179D02*
X8748805Y-9360274D01*
X8748805Y-9360274D02*
X8748805Y-9407893D01*
X8748805Y-9407893D02*
X8739282Y-9445988D01*
X8739282Y-9445988D02*
X8729758Y-9465036D01*
X8729758Y-9465036D02*
X8720234Y-9474560D01*
X8720234Y-9474560D02*
X8701186Y-9484084D01*
X8701186Y-9484084D02*
X8682139Y-9484084D01*
X8682139Y-9484084D02*
X8663091Y-9474560D01*
X8663091Y-9474560D02*
X8653567Y-9465036D01*
X8653567Y-9465036D02*
X8644044Y-9445988D01*
X8644044Y-9445988D02*
X8634520Y-9407893D01*
X8634520Y-9407893D02*
X8634520Y-9360274D01*
X8634520Y-9360274D02*
X8644044Y-9322179D01*
X8644044Y-9322179D02*
X8653567Y-9303131D01*
X8653567Y-9303131D02*
X8663091Y-9293608D01*
X8663091Y-9293608D02*
X8682139Y-9284084D01*
X8834520Y-9484084D02*
X8834520Y-9350750D01*
X8834520Y-9369798D02*
X8844044Y-9360274D01*
X8844044Y-9360274D02*
X8863091Y-9350750D01*
X8863091Y-9350750D02*
X8891663Y-9350750D01*
X8891663Y-9350750D02*
X8910710Y-9360274D01*
X8910710Y-9360274D02*
X8920234Y-9379322D01*
X8920234Y-9379322D02*
X8920234Y-9484084D01*
X8920234Y-9379322D02*
X8929758Y-9360274D01*
X8929758Y-9360274D02*
X8948805Y-9350750D01*
X8948805Y-9350750D02*
X8977377Y-9350750D01*
X8977377Y-9350750D02*
X8996425Y-9360274D01*
X8996425Y-9360274D02*
X9005948Y-9379322D01*
X9005948Y-9379322D02*
X9005948Y-9484084D01*
X9101186Y-9484084D02*
X9101186Y-9350750D01*
X9101186Y-9369798D02*
X9110710Y-9360274D01*
X9110710Y-9360274D02*
X9129758Y-9350750D01*
X9129758Y-9350750D02*
X9158329Y-9350750D01*
X9158329Y-9350750D02*
X9177377Y-9360274D01*
X9177377Y-9360274D02*
X9186901Y-9379322D01*
X9186901Y-9379322D02*
X9186901Y-9484084D01*
X9186901Y-9379322D02*
X9196425Y-9360274D01*
X9196425Y-9360274D02*
X9215472Y-9350750D01*
X9215472Y-9350750D02*
X9244044Y-9350750D01*
X9244044Y-9350750D02*
X9263091Y-9360274D01*
X9263091Y-9360274D02*
X9272615Y-9379322D01*
X9272615Y-9379322D02*
X9272615Y-9484084D01*
X9663091Y-9274560D02*
X9491663Y-9531703D01*
X9920234Y-9284084D02*
X9939282Y-9284084D01*
X9939282Y-9284084D02*
X9958329Y-9293608D01*
X9958329Y-9293608D02*
X9967853Y-9303131D01*
X9967853Y-9303131D02*
X9977377Y-9322179D01*
X9977377Y-9322179D02*
X9986901Y-9360274D01*
X9986901Y-9360274D02*
X9986901Y-9407893D01*
X9986901Y-9407893D02*
X9977377Y-9445988D01*
X9977377Y-9445988D02*
X9967853Y-9465036D01*
X9967853Y-9465036D02*
X9958329Y-9474560D01*
X9958329Y-9474560D02*
X9939282Y-9484084D01*
X9939282Y-9484084D02*
X9920234Y-9484084D01*
X9920234Y-9484084D02*
X9901187Y-9474560D01*
X9901187Y-9474560D02*
X9891663Y-9465036D01*
X9891663Y-9465036D02*
X9882139Y-9445988D01*
X9882139Y-9445988D02*
X9872615Y-9407893D01*
X9872615Y-9407893D02*
X9872615Y-9360274D01*
X9872615Y-9360274D02*
X9882139Y-9322179D01*
X9882139Y-9322179D02*
X9891663Y-9303131D01*
X9891663Y-9303131D02*
X9901187Y-9293608D01*
X9901187Y-9293608D02*
X9920234Y-9284084D01*
X10072615Y-9465036D02*
X10082139Y-9474560D01*
X10082139Y-9474560D02*
X10072615Y-9484084D01*
X10072615Y-9484084D02*
X10063091Y-9474560D01*
X10063091Y-9474560D02*
X10072615Y-9465036D01*
X10072615Y-9465036D02*
X10072615Y-9484084D01*
X10205948Y-9284084D02*
X10224996Y-9284084D01*
X10224996Y-9284084D02*
X10244044Y-9293608D01*
X10244044Y-9293608D02*
X10253568Y-9303131D01*
X10253568Y-9303131D02*
X10263091Y-9322179D01*
X10263091Y-9322179D02*
X10272615Y-9360274D01*
X10272615Y-9360274D02*
X10272615Y-9407893D01*
X10272615Y-9407893D02*
X10263091Y-9445988D01*
X10263091Y-9445988D02*
X10253568Y-9465036D01*
X10253568Y-9465036D02*
X10244044Y-9474560D01*
X10244044Y-9474560D02*
X10224996Y-9484084D01*
X10224996Y-9484084D02*
X10205948Y-9484084D01*
X10205948Y-9484084D02*
X10186901Y-9474560D01*
X10186901Y-9474560D02*
X10177377Y-9465036D01*
X10177377Y-9465036D02*
X10167853Y-9445988D01*
X10167853Y-9445988D02*
X10158329Y-9407893D01*
X10158329Y-9407893D02*
X10158329Y-9360274D01*
X10158329Y-9360274D02*
X10167853Y-9322179D01*
X10167853Y-9322179D02*
X10177377Y-9303131D01*
X10177377Y-9303131D02*
X10186901Y-9293608D01*
X10186901Y-9293608D02*
X10205948Y-9284084D01*
X10453568Y-9284084D02*
X10358329Y-9284084D01*
X10358329Y-9284084D02*
X10348806Y-9379322D01*
X10348806Y-9379322D02*
X10358329Y-9369798D01*
X10358329Y-9369798D02*
X10377377Y-9360274D01*
X10377377Y-9360274D02*
X10424996Y-9360274D01*
X10424996Y-9360274D02*
X10444044Y-9369798D01*
X10444044Y-9369798D02*
X10453568Y-9379322D01*
X10453568Y-9379322D02*
X10463091Y-9398369D01*
X10463091Y-9398369D02*
X10463091Y-9445988D01*
X10463091Y-9445988D02*
X10453568Y-9465036D01*
X10453568Y-9465036D02*
X10444044Y-9474560D01*
X10444044Y-9474560D02*
X10424996Y-9484084D01*
X10424996Y-9484084D02*
X10377377Y-9484084D01*
X10377377Y-9484084D02*
X10358329Y-9474560D01*
X10358329Y-9474560D02*
X10348806Y-9465036D01*
X10644044Y-9284084D02*
X10548806Y-9284084D01*
X10548806Y-9284084D02*
X10539282Y-9379322D01*
X10539282Y-9379322D02*
X10548806Y-9369798D01*
X10548806Y-9369798D02*
X10567853Y-9360274D01*
X10567853Y-9360274D02*
X10615472Y-9360274D01*
X10615472Y-9360274D02*
X10634520Y-9369798D01*
X10634520Y-9369798D02*
X10644044Y-9379322D01*
X10644044Y-9379322D02*
X10653568Y-9398369D01*
X10653568Y-9398369D02*
X10653568Y-9445988D01*
X10653568Y-9445988D02*
X10644044Y-9465036D01*
X10644044Y-9465036D02*
X10634520Y-9474560D01*
X10634520Y-9474560D02*
X10615472Y-9484084D01*
X10615472Y-9484084D02*
X10567853Y-9484084D01*
X10567853Y-9484084D02*
X10548806Y-9474560D01*
X10548806Y-9474560D02*
X10539282Y-9465036D01*
X10844044Y-9484084D02*
X10729758Y-9484084D01*
X10786901Y-9484084D02*
X10786901Y-9284084D01*
X10786901Y-9284084D02*
X10767853Y-9312655D01*
X10767853Y-9312655D02*
X10748806Y-9331703D01*
X10748806Y-9331703D02*
X10729758Y-9341227D01*
X10920234Y-9284084D02*
X10920234Y-9322179D01*
X10996425Y-9284084D02*
X10996425Y-9322179D01*
X11291663Y-9560274D02*
X11282139Y-9550750D01*
X11282139Y-9550750D02*
X11263091Y-9522179D01*
X11263091Y-9522179D02*
X11253568Y-9503131D01*
X11253568Y-9503131D02*
X11244044Y-9474560D01*
X11244044Y-9474560D02*
X11234520Y-9426941D01*
X11234520Y-9426941D02*
X11234520Y-9388846D01*
X11234520Y-9388846D02*
X11244044Y-9341227D01*
X11244044Y-9341227D02*
X11253568Y-9312655D01*
X11253568Y-9312655D02*
X11263091Y-9293608D01*
X11263091Y-9293608D02*
X11282139Y-9265036D01*
X11282139Y-9265036D02*
X11291663Y-9255512D01*
X11453568Y-9350750D02*
X11453568Y-9484084D01*
X11405948Y-9274560D02*
X11358329Y-9417417D01*
X11358329Y-9417417D02*
X11482139Y-9417417D01*
X11710710Y-9484084D02*
X11710710Y-9284084D01*
X11796425Y-9484084D02*
X11796425Y-9379322D01*
X11796425Y-9379322D02*
X11786901Y-9360274D01*
X11786901Y-9360274D02*
X11767853Y-9350750D01*
X11767853Y-9350750D02*
X11739282Y-9350750D01*
X11739282Y-9350750D02*
X11720234Y-9360274D01*
X11720234Y-9360274D02*
X11710710Y-9369798D01*
X11920234Y-9484084D02*
X11901187Y-9474560D01*
X11901187Y-9474560D02*
X11891663Y-9465036D01*
X11891663Y-9465036D02*
X11882139Y-9445988D01*
X11882139Y-9445988D02*
X11882139Y-9388846D01*
X11882139Y-9388846D02*
X11891663Y-9369798D01*
X11891663Y-9369798D02*
X11901187Y-9360274D01*
X11901187Y-9360274D02*
X11920234Y-9350750D01*
X11920234Y-9350750D02*
X11948806Y-9350750D01*
X11948806Y-9350750D02*
X11967853Y-9360274D01*
X11967853Y-9360274D02*
X11977377Y-9369798D01*
X11977377Y-9369798D02*
X11986901Y-9388846D01*
X11986901Y-9388846D02*
X11986901Y-9445988D01*
X11986901Y-9445988D02*
X11977377Y-9465036D01*
X11977377Y-9465036D02*
X11967853Y-9474560D01*
X11967853Y-9474560D02*
X11948806Y-9484084D01*
X11948806Y-9484084D02*
X11920234Y-9484084D01*
X12101187Y-9484084D02*
X12082139Y-9474560D01*
X12082139Y-9474560D02*
X12072615Y-9455512D01*
X12072615Y-9455512D02*
X12072615Y-9284084D01*
X12253568Y-9474560D02*
X12234520Y-9484084D01*
X12234520Y-9484084D02*
X12196425Y-9484084D01*
X12196425Y-9484084D02*
X12177377Y-9474560D01*
X12177377Y-9474560D02*
X12167853Y-9455512D01*
X12167853Y-9455512D02*
X12167853Y-9379322D01*
X12167853Y-9379322D02*
X12177377Y-9360274D01*
X12177377Y-9360274D02*
X12196425Y-9350750D01*
X12196425Y-9350750D02*
X12234520Y-9350750D01*
X12234520Y-9350750D02*
X12253568Y-9360274D01*
X12253568Y-9360274D02*
X12263091Y-9379322D01*
X12263091Y-9379322D02*
X12263091Y-9398369D01*
X12263091Y-9398369D02*
X12167853Y-9417417D01*
X12339282Y-9474560D02*
X12358330Y-9484084D01*
X12358330Y-9484084D02*
X12396425Y-9484084D01*
X12396425Y-9484084D02*
X12415472Y-9474560D01*
X12415472Y-9474560D02*
X12424996Y-9455512D01*
X12424996Y-9455512D02*
X12424996Y-9445988D01*
X12424996Y-9445988D02*
X12415472Y-9426941D01*
X12415472Y-9426941D02*
X12396425Y-9417417D01*
X12396425Y-9417417D02*
X12367853Y-9417417D01*
X12367853Y-9417417D02*
X12348806Y-9407893D01*
X12348806Y-9407893D02*
X12339282Y-9388846D01*
X12339282Y-9388846D02*
X12339282Y-9379322D01*
X12339282Y-9379322D02*
X12348806Y-9360274D01*
X12348806Y-9360274D02*
X12367853Y-9350750D01*
X12367853Y-9350750D02*
X12396425Y-9350750D01*
X12396425Y-9350750D02*
X12415472Y-9360274D01*
X12491663Y-9560274D02*
X12501187Y-9550750D01*
X12501187Y-9550750D02*
X12520234Y-9522179D01*
X12520234Y-9522179D02*
X12529758Y-9503131D01*
X12529758Y-9503131D02*
X12539282Y-9474560D01*
X12539282Y-9474560D02*
X12548806Y-9426941D01*
X12548806Y-9426941D02*
X12548806Y-9388846D01*
X12548806Y-9388846D02*
X12539282Y-9341227D01*
X12539282Y-9341227D02*
X12529758Y-9312655D01*
X12529758Y-9312655D02*
X12520234Y-9293608D01*
X12520234Y-9293608D02*
X12501187Y-9265036D01*
X12501187Y-9265036D02*
X12491663Y-9255512D01*
M02*
